<?xml version="1.0" encoding="UTF-8" standalone="no"?>
<!DOCTYPE svg PUBLIC "-//W3C//DTD SVG 1.1//EN"
 "http://www.w3.org/Graphics/SVG/1.1/DTD/svg11.dtd">
<!-- Generated by graphviz version 2.44.1 (20220725.2034)
 -->
<!-- Title: auxiliary_types.hpp Pages: 1 -->
<svg width="500pt" height="434pt"
 viewBox="0.00 0.00 500.10 434.00" xmlns="http://www.w3.org/2000/svg" xmlns:xlink="http://www.w3.org/1999/xlink">
<g id="graph0" class="graph" transform="scale(1 1) rotate(0) translate(4 430)">
<title>auxiliary_types.hpp</title>
<!-- Node1 -->
<g id="node1" class="node">
<title>Node1</title>
<g id="a_node1"><a xlink:title=" ">
<polygon fill="#999999" stroke="#666666" points="262.6,-426 161.6,-426 161.6,-407 262.6,-407 262.6,-426"/>
<text text-anchor="middle" x="212.1" y="-414" font-family="Helvetica,sans-Serif" font-size="10.00">auxiliary_types.hpp</text>
</a>
</g>
</g>
<!-- Node2 -->
<g id="node2" class="node">
<title>Node2</title>
<g id="a_node2"><a xlink:href="$auxiliary__functions_8hpp.html" xlink:title=" ">
<polygon fill="white" stroke="#666666" points="227.1,-371 111.1,-371 111.1,-352 227.1,-352 227.1,-371"/>
<text text-anchor="middle" x="169.1" y="-359" font-family="Helvetica,sans-Serif" font-size="10.00">auxiliary_functions.hpp</text>
</a>
</g>
</g>
<!-- Node1&#45;&gt;Node2 -->
<g id="edge1" class="edge">
<title>Node1&#45;&gt;Node2</title>
<path fill="none" stroke="#63b8ff" d="M198.67,-398.96C191.18,-389.72 182.16,-378.6 176.06,-371.09"/>
<polygon fill="#63b8ff" stroke="#63b8ff" points="195.98,-401.19 205,-406.75 201.41,-396.78 195.98,-401.19"/>
</g>
<!-- Node3 -->
<g id="node3" class="node">
<title>Node3</title>
<g id="a_node3"><a xlink:href="$dig__t_8hpp.html" xlink:title=" ">
<polygon fill="white" stroke="#666666" points="240.1,-316 184.1,-316 184.1,-297 240.1,-297 240.1,-316"/>
<text text-anchor="middle" x="212.1" y="-304" font-family="Helvetica,sans-Serif" font-size="10.00">dig_t.hpp</text>
</a>
</g>
</g>
<!-- Node1&#45;&gt;Node3 -->
<g id="edge15" class="edge">
<title>Node1&#45;&gt;Node3</title>
<path fill="none" stroke="#63b8ff" d="M224.01,-398.22C228.77,-390.3 233.68,-380.56 236.1,-371 241.17,-350.89 227.93,-328.42 219.15,-316.34"/>
<polygon fill="#63b8ff" stroke="#63b8ff" points="220.93,-396.54 218.46,-406.84 226.82,-400.32 220.93,-396.54"/>
</g>
<!-- Node2&#45;&gt;Node3 -->
<g id="edge2" class="edge">
<title>Node2&#45;&gt;Node3</title>
<path fill="none" stroke="#63b8ff" d="M182.52,-343.96C190.01,-334.72 199.03,-323.6 205.13,-316.09"/>
<polygon fill="#63b8ff" stroke="#63b8ff" points="179.78,-341.78 176.2,-351.75 185.22,-346.19 179.78,-341.78"/>
</g>
<!-- Node4 -->
<g id="node4" class="node">
<title>Node4</title>
<g id="a_node4"><a xlink:href="$int__num__t_8hpp.html" xlink:title=" ">
<polygon fill="white" stroke="#666666" points="134.1,-19 56.1,-19 56.1,0 134.1,0 134.1,-19"/>
<text text-anchor="middle" x="95.1" y="-7" font-family="Helvetica,sans-Serif" font-size="10.00">int_num_t.hpp</text>
</a>
</g>
</g>
<!-- Node3&#45;&gt;Node4 -->
<g id="edge3" class="edge">
<title>Node3&#45;&gt;Node4</title>
<path fill="none" stroke="#63b8ff" d="M173.96,-301.42C124.53,-295.34 42.17,-282.29 21.1,-261 -6.29,-233.33 2.1,-214.43 2.1,-175.5 2.1,-175.5 2.1,-175.5 2.1,-118.5 2.1,-71.73 52.79,-35.15 79.32,-19.21"/>
<polygon fill="#63b8ff" stroke="#63b8ff" points="173.63,-304.9 183.97,-302.61 174.45,-297.95 173.63,-304.9"/>
</g>
<!-- Node5 -->
<g id="node5" class="node">
<title>Node5</title>
<g id="a_node5"><a xlink:href="$memory__handler_8hpp.html" xlink:title=" ">
<polygon fill="white" stroke="#666666" points="137.6,-250 30.6,-250 30.6,-231 137.6,-231 137.6,-250"/>
<text text-anchor="middle" x="84.1" y="-238" font-family="Helvetica,sans-Serif" font-size="10.00">memory_handler.hpp</text>
</a>
</g>
</g>
<!-- Node3&#45;&gt;Node5 -->
<g id="edge4" class="edge">
<title>Node3&#45;&gt;Node5</title>
<path fill="none" stroke="#63b8ff" d="M185.82,-292.36C160.6,-279.75 123.22,-261.06 101.49,-250.2"/>
<polygon fill="#63b8ff" stroke="#63b8ff" points="184.32,-295.53 194.83,-296.87 187.45,-289.27 184.32,-295.53"/>
</g>
<!-- Node6 -->
<g id="node6" class="node">
<title>Node6</title>
<g id="a_node6"><a xlink:href="$nat__reg__digs__t_01_07_copia_01en_01conflicto_01de_01_m_s_i_012022-11-24_08_8hpp.html" xlink:title=" ">
<polygon fill="white" stroke="#666666" points="268.1,-261 156.1,-261 156.1,-220 268.1,-220 268.1,-261"/>
<text text-anchor="start" x="164.1" y="-249" font-family="Helvetica,sans-Serif" font-size="10.00">nat_reg_digs_t (Copia</text>
<text text-anchor="start" x="164.1" y="-238" font-family="Helvetica,sans-Serif" font-size="10.00"> en conflicto de MSI</text>
<text text-anchor="middle" x="212.1" y="-227" font-family="Helvetica,sans-Serif" font-size="10.00"> 2022&#45;11&#45;24).hpp</text>
</a>
</g>
</g>
<!-- Node3&#45;&gt;Node6 -->
<g id="edge5" class="edge">
<title>Node3&#45;&gt;Node6</title>
<path fill="none" stroke="#63b8ff" d="M212.1,-286.63C212.1,-278.56 212.1,-269.15 212.1,-261.01"/>
<polygon fill="#63b8ff" stroke="#63b8ff" points="208.6,-286.87 212.1,-296.87 215.6,-286.87 208.6,-286.87"/>
</g>
<!-- Node7 -->
<g id="node7" class="node">
<title>Node7</title>
<g id="a_node7"><a xlink:href="$nat__reg__digs__t_8hpp.html" xlink:title=" ">
<polygon fill="white" stroke="#666666" points="385.6,-250 286.6,-250 286.6,-231 385.6,-231 385.6,-250"/>
<text text-anchor="middle" x="336.1" y="-238" font-family="Helvetica,sans-Serif" font-size="10.00">nat_reg_digs_t.hpp</text>
</a>
</g>
</g>
<!-- Node3&#45;&gt;Node7 -->
<g id="edge6" class="edge">
<title>Node3&#45;&gt;Node7</title>
<path fill="none" stroke="#63b8ff" d="M237.87,-292.19C262.3,-279.59 298.29,-261.01 319.24,-250.2"/>
<polygon fill="#63b8ff" stroke="#63b8ff" points="236.1,-289.17 228.82,-296.87 239.31,-295.39 236.1,-289.17"/>
</g>
<!-- Node12 -->
<g id="node12" class="node">
<title>Node12</title>
<g id="a_node12"><a xlink:href="$reg__digs__t_8hpp.html" xlink:title=" ">
<polygon fill="white" stroke="#666666" points="484.1,-250 404.1,-250 404.1,-231 484.1,-231 484.1,-250"/>
<text text-anchor="middle" x="444.1" y="-238" font-family="Helvetica,sans-Serif" font-size="10.00">reg_digs_t.hpp</text>
</a>
</g>
</g>
<!-- Node3&#45;&gt;Node12 -->
<g id="edge13" class="edge">
<title>Node3&#45;&gt;Node12</title>
<path fill="none" stroke="#63b8ff" d="M250.05,-297.75C287.15,-289.82 345.05,-276.49 394.1,-261 404.05,-257.86 414.86,-253.73 423.88,-250.09"/>
<polygon fill="#63b8ff" stroke="#63b8ff" points="249.22,-294.35 240.16,-299.84 250.67,-301.2 249.22,-294.35"/>
</g>
<!-- Node8 -->
<g id="node8" class="node">
<title>Node8</title>
<g id="a_node8"><a xlink:href="$int__reg__digs__t_8hpp.html" xlink:title=" ">
<polygon fill="white" stroke="#666666" points="270.1,-184 174.1,-184 174.1,-165 270.1,-165 270.1,-184"/>
<text text-anchor="middle" x="222.1" y="-172" font-family="Helvetica,sans-Serif" font-size="10.00">int_reg_digs_t.hpp</text>
</a>
</g>
</g>
<!-- Node7&#45;&gt;Node8 -->
<g id="edge7" class="edge">
<title>Node7&#45;&gt;Node8</title>
<path fill="none" stroke="#63b8ff" d="M311.8,-225.86C289.35,-213.26 256.69,-194.92 237.59,-184.2"/>
<polygon fill="#63b8ff" stroke="#63b8ff" points="310.29,-229.03 320.72,-230.87 313.72,-222.92 310.29,-229.03"/>
</g>
<!-- Node8&#45;&gt;Node4 -->
<g id="edge11" class="edge">
<title>Node8&#45;&gt;Node4</title>
<path fill="none" stroke="#63b8ff" d="M164.71,-161.79C145.94,-155.18 126.69,-144.91 114.1,-129 87.72,-95.67 91.32,-40.21 93.86,-19.06"/>
<polygon fill="#63b8ff" stroke="#63b8ff" points="163.86,-165.19 174.45,-164.93 166,-158.53 163.86,-165.19"/>
</g>
<!-- Node9 -->
<g id="node9" class="node">
<title>Node9</title>
<g id="a_node9"><a xlink:href="$base__num__t_8hpp.html" xlink:title=" ">
<polygon fill="white" stroke="#666666" points="212.6,-129 123.6,-129 123.6,-110 212.6,-110 212.6,-129"/>
<text text-anchor="middle" x="168.1" y="-117" font-family="Helvetica,sans-Serif" font-size="10.00">base_num_t.hpp</text>
</a>
</g>
</g>
<!-- Node8&#45;&gt;Node9 -->
<g id="edge8" class="edge">
<title>Node8&#45;&gt;Node9</title>
<path fill="none" stroke="#63b8ff" d="M205.81,-157.52C196.3,-148.18 184.66,-136.75 176.85,-129.09"/>
<polygon fill="#63b8ff" stroke="#63b8ff" points="203.59,-160.24 213.18,-164.75 208.49,-155.25 203.59,-160.24"/>
</g>
<!-- Node11 -->
<g id="node11" class="node">
<title>Node11</title>
<g id="a_node11"><a xlink:href="$nat__rat__fixed__reg__t_8hpp.html" xlink:title=" ">
<polygon fill="white" stroke="#666666" points="349.6,-129 230.6,-129 230.6,-110 349.6,-110 349.6,-129"/>
<text text-anchor="middle" x="290.1" y="-117" font-family="Helvetica,sans-Serif" font-size="10.00">nat_rat_fixed_reg_t.hpp</text>
</a>
</g>
</g>
<!-- Node8&#45;&gt;Node11 -->
<g id="edge12" class="edge">
<title>Node8&#45;&gt;Node11</title>
<path fill="none" stroke="#63b8ff" d="M241.21,-158.6C253.39,-149.11 268.75,-137.13 278.97,-129.17"/>
<polygon fill="#63b8ff" stroke="#63b8ff" points="238.76,-156.08 233.02,-164.98 243.06,-161.6 238.76,-156.08"/>
</g>
<!-- Node10 -->
<g id="node10" class="node">
<title>Node10</title>
<g id="a_node10"><a xlink:href="$nat__num__t_8hpp.html" xlink:title=" ">
<polygon fill="white" stroke="#666666" points="206.6,-74 125.6,-74 125.6,-55 206.6,-55 206.6,-74"/>
<text text-anchor="middle" x="166.1" y="-62" font-family="Helvetica,sans-Serif" font-size="10.00">nat_num_t.hpp</text>
</a>
</g>
</g>
<!-- Node9&#45;&gt;Node10 -->
<g id="edge9" class="edge">
<title>Node9&#45;&gt;Node10</title>
<path fill="none" stroke="#63b8ff" d="M167.39,-99.66C167.06,-90.93 166.68,-80.99 166.42,-74.09"/>
<polygon fill="#63b8ff" stroke="#63b8ff" points="163.89,-99.89 167.77,-109.75 170.89,-99.62 163.89,-99.89"/>
</g>
<!-- Node10&#45;&gt;Node4 -->
<g id="edge10" class="edge">
<title>Node10&#45;&gt;Node4</title>
<path fill="none" stroke="#63b8ff" d="M146.51,-48.88C133.73,-39.34 117.48,-27.21 106.71,-19.17"/>
<polygon fill="#63b8ff" stroke="#63b8ff" points="144.58,-51.81 154.69,-54.98 148.77,-46.2 144.58,-51.81"/>
</g>
<!-- Node13 -->
<g id="node13" class="node">
<title>Node13</title>
<g id="a_node13"><a xlink:href="$pruebas__dig__t_8cpp.html" xlink:title=" ">
<polygon fill="white" stroke="#666666" points="492.1,-184 396.1,-184 396.1,-165 492.1,-165 492.1,-184"/>
<text text-anchor="middle" x="444.1" y="-172" font-family="Helvetica,sans-Serif" font-size="10.00">pruebas_dig_t.cpp</text>
</a>
</g>
</g>
<!-- Node12&#45;&gt;Node13 -->
<g id="edge14" class="edge">
<title>Node12&#45;&gt;Node13</title>
<path fill="none" stroke="#63b8ff" d="M444.1,-220.58C444.1,-208.63 444.1,-193.72 444.1,-184.41"/>
<polygon fill="#63b8ff" stroke="#63b8ff" points="440.6,-220.87 444.1,-230.87 447.6,-220.87 440.6,-220.87"/>
</g>
</g>
</svg>
