<?xml version="1.0" encoding="UTF-8" standalone="no"?>
<!DOCTYPE svg PUBLIC "-//W3C//DTD SVG 1.1//EN"
 "http://www.w3.org/Graphics/SVG/1.1/DTD/svg11.dtd">
<!-- Generated by graphviz version 2.44.1 (20220725.2034)
 -->
<!-- Title: base_num_t.hpp Pages: 1 -->
<svg width="97pt" height="137pt"
 viewBox="0.00 0.00 97.00 137.00" xmlns="http://www.w3.org/2000/svg" xmlns:xlink="http://www.w3.org/1999/xlink">
<g id="graph0" class="graph" transform="scale(1 1) rotate(0) translate(4 133)">
<title>base_num_t.hpp</title>
<!-- Node1 -->
<g id="node1" class="node">
<title>Node1</title>
<g id="a_node1"><a xlink:title=" ">
<polygon fill="#999999" stroke="#666666" points="89,-129 0,-129 0,-110 89,-110 89,-129"/>
<text text-anchor="middle" x="44.5" y="-117" font-family="Helvetica,sans-Serif" font-size="10.00">base_num_t.hpp</text>
</a>
</g>
</g>
<!-- Node2 -->
<g id="node2" class="node">
<title>Node2</title>
<g id="a_node2"><a xlink:href="$nat__num__t_8hpp.html" xlink:title=" ">
<polygon fill="white" stroke="#666666" points="85,-74 4,-74 4,-55 85,-55 85,-74"/>
<text text-anchor="middle" x="44.5" y="-62" font-family="Helvetica,sans-Serif" font-size="10.00">nat_num_t.hpp</text>
</a>
</g>
</g>
<!-- Node1&#45;&gt;Node2 -->
<g id="edge1" class="edge">
<title>Node1&#45;&gt;Node2</title>
<path fill="none" stroke="#63b8ff" d="M44.5,-99.66C44.5,-90.93 44.5,-80.99 44.5,-74.09"/>
<polygon fill="#63b8ff" stroke="#63b8ff" points="41,-99.75 44.5,-109.75 48,-99.75 41,-99.75"/>
</g>
<!-- Node3 -->
<g id="node3" class="node">
<title>Node3</title>
<g id="a_node3"><a xlink:href="$int__num__t_8hpp.html" xlink:title=" ">
<polygon fill="white" stroke="#666666" points="83.5,-19 5.5,-19 5.5,0 83.5,0 83.5,-19"/>
<text text-anchor="middle" x="44.5" y="-7" font-family="Helvetica,sans-Serif" font-size="10.00">int_num_t.hpp</text>
</a>
</g>
</g>
<!-- Node2&#45;&gt;Node3 -->
<g id="edge2" class="edge">
<title>Node2&#45;&gt;Node3</title>
<path fill="none" stroke="#63b8ff" d="M44.5,-44.66C44.5,-35.93 44.5,-25.99 44.5,-19.09"/>
<polygon fill="#63b8ff" stroke="#63b8ff" points="41,-44.75 44.5,-54.75 48,-44.75 41,-44.75"/>
</g>
</g>
</svg>
