<?xml version="1.0" encoding="UTF-8" standalone="no"?>
<!DOCTYPE svg PUBLIC "-//W3C//DTD SVG 1.1//EN"
 "http://www.w3.org/Graphics/SVG/1.1/DTD/svg11.dtd">
<!-- Generated by graphviz version 2.44.1 (20220725.2034)
 -->
<!-- Title: nat_num_t::m_div2 Pages: 1 -->
<svg width="653pt" height="190pt"
 viewBox="0.00 0.00 653.00 189.50" xmlns="http://www.w3.org/2000/svg" xmlns:xlink="http://www.w3.org/1999/xlink">
<g id="graph0" class="graph" transform="scale(1 1) rotate(0) translate(4 185.5)">
<title>nat_num_t::m_div2</title>
<!-- Node1 -->
<g id="node1" class="node">
<title>Node1</title>
<g id="a_node1"><a xlink:title=" ">
<polygon fill="#999999" stroke="#666666" points="100,-57 0,-57 0,-38 100,-38 100,-57"/>
<text text-anchor="middle" x="50" y="-45" font-family="Helvetica,sans-Serif" font-size="10.00">nat_num_t::m_div2</text>
</a>
</g>
</g>
<!-- Node2 -->
<g id="node2" class="node">
<title>Node2</title>
<g id="a_node2"><a xlink:href="$classnat__num__t.html#a5a1e29dfd320bf08016a2f0227621f0d" xlink:title=" ">
<polygon fill="white" stroke="#666666" points="234,-114 136,-114 136,-95 234,-95 234,-114"/>
<text text-anchor="middle" x="185" y="-102" font-family="Helvetica,sans-Serif" font-size="10.00">nat_num_t::reduce</text>
</a>
</g>
</g>
<!-- Node1&#45;&gt;Node2 -->
<g id="edge1" class="edge">
<title>Node1&#45;&gt;Node2</title>
<path fill="none" stroke="#63b8ff" d="M73.26,-57.04C94.94,-66.33 128.08,-80.54 152.47,-90.99"/>
<polygon fill="#63b8ff" stroke="#63b8ff" points="151.1,-94.21 161.67,-94.93 153.85,-87.77 151.1,-94.21"/>
</g>
<!-- Node5 -->
<g id="node5" class="node">
<title>Node5</title>
<g id="a_node5"><a xlink:href="$classnat__num__t.html#a3f420ff49cf6b55ef38936b2035a4071" xlink:title=" ">
<polygon fill="white" stroke="#666666" points="645,-133 559,-133 559,-114 645,-114 645,-133"/>
<text text-anchor="middle" x="602" y="-121" font-family="Helvetica,sans-Serif" font-size="10.00">nat_num_t::size</text>
</a>
</g>
</g>
<!-- Node1&#45;&gt;Node5 -->
<g id="edge7" class="edge">
<title>Node1&#45;&gt;Node5</title>
<path fill="none" stroke="#63b8ff" d="M100.13,-47.25C165.39,-47.61 284.05,-50.68 384,-66.5 447.58,-76.56 519.5,-97.38 562.5,-110.88"/>
<polygon fill="#63b8ff" stroke="#63b8ff" points="561.67,-114.29 572.26,-113.98 563.79,-107.62 561.67,-114.29"/>
</g>
<!-- Node7 -->
<g id="node7" class="node">
<title>Node7</title>
<g id="a_node7"><a xlink:href="$classnat__num__t.html#a04b3864005da7d30b79ebdb0b4529bcc" xlink:title=" ">
<polygon fill="white" stroke="#666666" points="232.5,-19 137.5,-19 137.5,0 232.5,0 232.5,-19"/>
<text text-anchor="middle" x="185" y="-7" font-family="Helvetica,sans-Serif" font-size="10.00">nat_num_t::substr</text>
</a>
</g>
</g>
<!-- Node1&#45;&gt;Node7 -->
<g id="edge8" class="edge">
<title>Node1&#45;&gt;Node7</title>
<path fill="none" stroke="#63b8ff" d="M84.56,-37.91C101.57,-33.05 122.43,-27.09 140.64,-21.89"/>
<polygon fill="#63b8ff" stroke="#63b8ff" points="141.8,-25.2 150.45,-19.09 139.87,-18.47 141.8,-25.2"/>
</g>
<!-- Node3 -->
<g id="node3" class="node">
<title>Node3</title>
<g id="a_node3"><a xlink:href="$classnat__num__t.html#a14b63725918fba3ba1f731c3cda4b6ca" xlink:title=" ">
<polygon fill="white" stroke="#666666" points="378,-181.5 276,-181.5 276,-151.5 378,-151.5 378,-181.5"/>
<text text-anchor="start" x="284" y="-169.5" font-family="Helvetica,sans-Serif" font-size="10.00">nat_num_t::digs_no</text>
<text text-anchor="middle" x="327" y="-158.5" font-family="Helvetica,sans-Serif" font-size="10.00">_significativos</text>
</a>
</g>
</g>
<!-- Node2&#45;&gt;Node3 -->
<g id="edge2" class="edge">
<title>Node2&#45;&gt;Node3</title>
<path fill="none" stroke="#63b8ff" d="M207.57,-114.05C227.5,-122.88 257.69,-136.25 282.61,-147.28"/>
<polygon fill="#63b8ff" stroke="#63b8ff" points="281.31,-150.54 291.87,-151.38 284.14,-144.13 281.31,-150.54"/>
</g>
<!-- Node2&#45;&gt;Node5 -->
<g id="edge6" class="edge">
<title>Node2&#45;&gt;Node5</title>
<path fill="none" stroke="#63b8ff" d="M234.01,-106.7C312.48,-110.29 467.57,-117.39 548.72,-121.11"/>
<polygon fill="#63b8ff" stroke="#63b8ff" points="548.57,-124.6 558.72,-121.56 548.89,-117.61 548.57,-124.6"/>
</g>
<!-- Node6 -->
<g id="node6" class="node">
<title>Node6</title>
<g id="a_node6"><a xlink:href="$classnat__num__t.html#a8f8bdd2355aab6b9b24f4c87cd68f5b7" xlink:title=" ">
<polygon fill="white" stroke="#666666" points="384,-95 270,-95 270,-76 384,-76 384,-95"/>
<text text-anchor="middle" x="327" y="-83" font-family="Helvetica,sans-Serif" font-size="10.00">nat_num_t::nat_num_t</text>
</a>
</g>
</g>
<!-- Node2&#45;&gt;Node6 -->
<g id="edge5" class="edge">
<title>Node2&#45;&gt;Node6</title>
<path fill="none" stroke="#63b8ff" d="M234.18,-97.96C242.37,-96.85 251,-95.68 259.55,-94.52"/>
<polygon fill="#63b8ff" stroke="#63b8ff" points="260.1,-97.98 269.54,-93.16 259.16,-91.04 260.1,-97.98"/>
</g>
<!-- Node4 -->
<g id="node4" class="node">
<title>Node4</title>
<g id="a_node4"><a xlink:href="$classnat__num__t.html#a2a7eae79a48f9b29a40c9103cfac72d7" xlink:title=" ">
<polygon fill="white" stroke="#666666" points="523,-181.5 420,-181.5 420,-151.5 523,-151.5 523,-181.5"/>
<text text-anchor="start" x="428" y="-169.5" font-family="Helvetica,sans-Serif" font-size="10.00">nat_num_t::ceros_a</text>
<text text-anchor="middle" x="471.5" y="-158.5" font-family="Helvetica,sans-Serif" font-size="10.00">_la_izqda</text>
</a>
</g>
</g>
<!-- Node3&#45;&gt;Node4 -->
<g id="edge3" class="edge">
<title>Node3&#45;&gt;Node4</title>
<path fill="none" stroke="#63b8ff" d="M378.24,-166.5C388.34,-166.5 399.05,-166.5 409.47,-166.5"/>
<polygon fill="#63b8ff" stroke="#63b8ff" points="409.75,-170 419.75,-166.5 409.75,-163 409.75,-170"/>
</g>
<!-- Node4&#45;&gt;Node5 -->
<g id="edge4" class="edge">
<title>Node4&#45;&gt;Node5</title>
<path fill="none" stroke="#63b8ff" d="M517.44,-151.46C532.26,-146.5 548.59,-141.04 562.85,-136.27"/>
<polygon fill="#63b8ff" stroke="#63b8ff" points="563.98,-139.58 572.35,-133.09 561.76,-132.94 563.98,-139.58"/>
</g>
</g>
</svg>
