<?xml version="1.0" encoding="UTF-8" standalone="no"?>
<!DOCTYPE svg PUBLIC "-//W3C//DTD SVG 1.1//EN"
 "http://www.w3.org/Graphics/SVG/1.1/DTD/svg11.dtd">
<!-- Generated by graphviz version 2.44.1 (20220725.2034)
 -->
<!-- Title: nat_num_t::reduce Pages: 1 -->
<svg width="517pt" height="114pt"
 viewBox="0.00 0.00 517.00 113.50" xmlns="http://www.w3.org/2000/svg" xmlns:xlink="http://www.w3.org/1999/xlink">
<g id="graph0" class="graph" transform="scale(1 1) rotate(0) translate(4 109.5)">
<title>nat_num_t::reduce</title>
<!-- Node1 -->
<g id="node1" class="node">
<title>Node1</title>
<g id="a_node1"><a xlink:title=" ">
<polygon fill="#999999" stroke="#666666" points="98,-57 0,-57 0,-38 98,-38 98,-57"/>
<text text-anchor="middle" x="49" y="-45" font-family="Helvetica,sans-Serif" font-size="10.00">nat_num_t::reduce</text>
</a>
</g>
</g>
<!-- Node2 -->
<g id="node2" class="node">
<title>Node2</title>
<g id="a_node2"><a xlink:href="$classnat__num__t.html#a14b63725918fba3ba1f731c3cda4b6ca" xlink:title=" ">
<polygon fill="white" stroke="#666666" points="242,-105.5 140,-105.5 140,-75.5 242,-75.5 242,-105.5"/>
<text text-anchor="start" x="148" y="-93.5" font-family="Helvetica,sans-Serif" font-size="10.00">nat_num_t::digs_no</text>
<text text-anchor="middle" x="191" y="-82.5" font-family="Helvetica,sans-Serif" font-size="10.00">_significativos</text>
</a>
</g>
</g>
<!-- Node1&#45;&gt;Node2 -->
<g id="edge1" class="edge">
<title>Node1&#45;&gt;Node2</title>
<path fill="none" stroke="#63b8ff" d="M81.07,-57.04C95.82,-61.57 113.95,-67.14 131.15,-72.43"/>
<polygon fill="#63b8ff" stroke="#63b8ff" points="130.56,-75.9 141.14,-75.49 132.61,-69.21 130.56,-75.9"/>
</g>
<!-- Node4 -->
<g id="node4" class="node">
<title>Node4</title>
<g id="a_node4"><a xlink:href="$classnat__num__t.html#a3f420ff49cf6b55ef38936b2035a4071" xlink:title=" ">
<polygon fill="white" stroke="#666666" points="509,-78 423,-78 423,-59 509,-59 509,-78"/>
<text text-anchor="middle" x="466" y="-66" font-family="Helvetica,sans-Serif" font-size="10.00">nat_num_t::size</text>
</a>
</g>
</g>
<!-- Node1&#45;&gt;Node4 -->
<g id="edge5" class="edge">
<title>Node1&#45;&gt;Node4</title>
<path fill="none" stroke="#63b8ff" d="M98.01,-49.93C176.48,-53.9 331.57,-61.75 412.72,-65.85"/>
<polygon fill="#63b8ff" stroke="#63b8ff" points="412.55,-69.35 422.72,-66.36 412.91,-62.36 412.55,-69.35"/>
</g>
<!-- Node5 -->
<g id="node5" class="node">
<title>Node5</title>
<g id="a_node5"><a xlink:href="$classnat__num__t.html#a8f8bdd2355aab6b9b24f4c87cd68f5b7" xlink:title=" ">
<polygon fill="white" stroke="#666666" points="248,-19 134,-19 134,0 248,0 248,-19"/>
<text text-anchor="middle" x="191" y="-7" font-family="Helvetica,sans-Serif" font-size="10.00">nat_num_t::nat_num_t</text>
</a>
</g>
</g>
<!-- Node1&#45;&gt;Node5 -->
<g id="edge4" class="edge">
<title>Node1&#45;&gt;Node5</title>
<path fill="none" stroke="#63b8ff" d="M85.33,-37.91C103.4,-33.01 125.6,-26.98 144.89,-21.74"/>
<polygon fill="#63b8ff" stroke="#63b8ff" points="145.95,-25.08 154.68,-19.09 144.12,-18.33 145.95,-25.08"/>
</g>
<!-- Node3 -->
<g id="node3" class="node">
<title>Node3</title>
<g id="a_node3"><a xlink:href="$classnat__num__t.html#a2a7eae79a48f9b29a40c9103cfac72d7" xlink:title=" ">
<polygon fill="white" stroke="#666666" points="387,-105.5 284,-105.5 284,-75.5 387,-75.5 387,-105.5"/>
<text text-anchor="start" x="292" y="-93.5" font-family="Helvetica,sans-Serif" font-size="10.00">nat_num_t::ceros_a</text>
<text text-anchor="middle" x="335.5" y="-82.5" font-family="Helvetica,sans-Serif" font-size="10.00">_la_izqda</text>
</a>
</g>
</g>
<!-- Node2&#45;&gt;Node3 -->
<g id="edge2" class="edge">
<title>Node2&#45;&gt;Node3</title>
<path fill="none" stroke="#63b8ff" d="M242.24,-90.5C252.34,-90.5 263.05,-90.5 273.47,-90.5"/>
<polygon fill="#63b8ff" stroke="#63b8ff" points="273.75,-94 283.75,-90.5 273.75,-87 273.75,-94"/>
</g>
<!-- Node3&#45;&gt;Node4 -->
<g id="edge3" class="edge">
<title>Node3&#45;&gt;Node4</title>
<path fill="none" stroke="#63b8ff" d="M387.29,-81.81C395.67,-80.37 404.36,-78.88 412.78,-77.44"/>
<polygon fill="#63b8ff" stroke="#63b8ff" points="413.59,-80.85 422.86,-75.72 412.41,-73.95 413.59,-80.85"/>
</g>
</g>
</svg>
