<?xml version="1.0" encoding="UTF-8" standalone="no"?>
<!DOCTYPE svg PUBLIC "-//W3C//DTD SVG 1.1//EN"
 "http://www.w3.org/Graphics/SVG/1.1/DTD/svg11.dtd">
<!-- Generated by graphviz version 2.44.1 (20220725.2034)
 -->
<!-- Title: nat_num_t::nat_num_t Pages: 1 -->
<svg width="667pt" height="127pt"
 viewBox="0.00 0.00 667.00 127.17" xmlns="http://www.w3.org/2000/svg" xmlns:xlink="http://www.w3.org/1999/xlink">
<g id="graph0" class="graph" transform="scale(1 1) rotate(0) translate(4 123.17)">
<title>nat_num_t::nat_num_t</title>
<!-- Node1 -->
<g id="node1" class="node">
<title>Node1</title>
<g id="a_node1"><a xlink:title=" ">
<polygon fill="#999999" stroke="#666666" points="114,-51.67 0,-51.67 0,-32.67 114,-32.67 114,-51.67"/>
<text text-anchor="middle" x="57" y="-39.67" font-family="Helvetica,sans-Serif" font-size="10.00">nat_num_t::nat_num_t</text>
</a>
</g>
</g>
<!-- Node2 -->
<g id="node2" class="node">
<title>Node2</title>
<g id="a_node2"><a xlink:href="$classnat__num__t.html#a296e66bafb159169f28cab2ef1357f14" xlink:title=" ">
<polygon fill="white" stroke="#666666" points="243.5,-88.67 154.5,-88.67 154.5,-69.67 243.5,-69.67 243.5,-88.67"/>
<text text-anchor="middle" x="199" y="-76.67" font-family="Helvetica,sans-Serif" font-size="10.00">nat_num_t::clear</text>
</a>
</g>
</g>
<!-- Node1&#45;&gt;Node2 -->
<g id="edge1" class="edge">
<title>Node1&#45;&gt;Node2</title>
<path fill="none" stroke="#63b8ff" d="M94.05,-51.7C111.63,-56.34 132.98,-61.98 151.75,-66.94"/>
<polygon fill="#63b8ff" stroke="#63b8ff" points="151.02,-70.37 161.58,-69.54 152.81,-63.6 151.02,-70.37"/>
</g>
<!-- Node3 -->
<g id="node3" class="node">
<title>Node3</title>
<g id="a_node3"><a xlink:href="$classnat__num__t.html#a5a1e29dfd320bf08016a2f0227621f0d" xlink:title=" ">
<polygon fill="white" stroke="#666666" points="248,-51.67 150,-51.67 150,-32.67 248,-32.67 248,-51.67"/>
<text text-anchor="middle" x="199" y="-39.67" font-family="Helvetica,sans-Serif" font-size="10.00">nat_num_t::reduce</text>
</a>
</g>
</g>
<!-- Node1&#45;&gt;Node3 -->
<g id="edge2" class="edge">
<title>Node1&#45;&gt;Node3</title>
<path fill="none" stroke="#63b8ff" d="M114.14,-42.17C122.57,-42.17 131.29,-42.17 139.77,-42.17"/>
<polygon fill="#63b8ff" stroke="#63b8ff" points="139.96,-45.67 149.96,-42.17 139.96,-38.67 139.96,-45.67"/>
</g>
<!-- Node6 -->
<g id="node6" class="node">
<title>Node6</title>
<g id="a_node6"><a xlink:href="$classnat__num__t.html#a3f420ff49cf6b55ef38936b2035a4071" xlink:title=" ">
<polygon fill="white" stroke="#666666" points="659,-70.67 573,-70.67 573,-51.67 659,-51.67 659,-70.67"/>
<text text-anchor="middle" x="616" y="-58.67" font-family="Helvetica,sans-Serif" font-size="10.00">nat_num_t::size</text>
</a>
</g>
</g>
<!-- Node1&#45;&gt;Node6 -->
<g id="edge8" class="edge">
<title>Node1&#45;&gt;Node6</title>
<path fill="none" stroke="#63b8ff" d="M93.29,-32.64C155.1,-17.21 286.96,10.17 398,-4.17 462.55,-12.5 535.29,-34.24 578.03,-48.34"/>
<polygon fill="#63b8ff" stroke="#63b8ff" points="577.11,-51.72 587.7,-51.57 579.33,-45.08 577.11,-51.72"/>
</g>
<!-- Node4 -->
<g id="node4" class="node">
<title>Node4</title>
<g id="a_node4"><a xlink:href="$classnat__num__t.html#a14b63725918fba3ba1f731c3cda4b6ca" xlink:title=" ">
<polygon fill="white" stroke="#666666" points="392,-119.17 290,-119.17 290,-89.17 392,-89.17 392,-119.17"/>
<text text-anchor="start" x="298" y="-107.17" font-family="Helvetica,sans-Serif" font-size="10.00">nat_num_t::digs_no</text>
<text text-anchor="middle" x="341" y="-96.17" font-family="Helvetica,sans-Serif" font-size="10.00">_significativos</text>
</a>
</g>
</g>
<!-- Node3&#45;&gt;Node4 -->
<g id="edge3" class="edge">
<title>Node3&#45;&gt;Node4</title>
<path fill="none" stroke="#63b8ff" d="M225.03,-51.74C232.46,-54.68 240.59,-57.97 248,-61.17 265.05,-68.52 283.65,-77.1 299.63,-84.65"/>
<polygon fill="#63b8ff" stroke="#63b8ff" points="298.17,-87.84 308.7,-88.97 301.17,-81.51 298.17,-87.84"/>
</g>
<!-- Node3&#45;&gt;Node6 -->
<g id="edge7" class="edge">
<title>Node3&#45;&gt;Node6</title>
<path fill="none" stroke="#63b8ff" d="M248.01,-44.36C326.48,-47.96 481.57,-55.06 562.72,-58.77"/>
<polygon fill="#63b8ff" stroke="#63b8ff" points="562.57,-62.27 572.72,-59.23 562.89,-55.28 562.57,-62.27"/>
</g>
<!-- Node7 -->
<g id="node7" class="node">
<title>Node7</title>
<g id="a_node7"><a xlink:href="$classnat__num__t.html#a8f8bdd2355aab6b9b24f4c87cd68f5b7" xlink:title=" ">
<polygon fill="white" stroke="#666666" points="398,-32.67 284,-32.67 284,-13.67 398,-13.67 398,-32.67"/>
<text text-anchor="middle" x="341" y="-20.67" font-family="Helvetica,sans-Serif" font-size="10.00">nat_num_t::nat_num_t</text>
</a>
</g>
</g>
<!-- Node3&#45;&gt;Node7 -->
<g id="edge6" class="edge">
<title>Node3&#45;&gt;Node7</title>
<path fill="none" stroke="#63b8ff" d="M248.18,-35.63C256.37,-34.52 265,-33.35 273.55,-32.18"/>
<polygon fill="#63b8ff" stroke="#63b8ff" points="274.1,-35.64 283.54,-30.83 273.16,-28.71 274.1,-35.64"/>
</g>
<!-- Node5 -->
<g id="node5" class="node">
<title>Node5</title>
<g id="a_node5"><a xlink:href="$classnat__num__t.html#a2a7eae79a48f9b29a40c9103cfac72d7" xlink:title=" ">
<polygon fill="white" stroke="#666666" points="537,-119.17 434,-119.17 434,-89.17 537,-89.17 537,-119.17"/>
<text text-anchor="start" x="442" y="-107.17" font-family="Helvetica,sans-Serif" font-size="10.00">nat_num_t::ceros_a</text>
<text text-anchor="middle" x="485.5" y="-96.17" font-family="Helvetica,sans-Serif" font-size="10.00">_la_izqda</text>
</a>
</g>
</g>
<!-- Node4&#45;&gt;Node5 -->
<g id="edge4" class="edge">
<title>Node4&#45;&gt;Node5</title>
<path fill="none" stroke="#63b8ff" d="M392.24,-104.17C402.34,-104.17 413.05,-104.17 423.47,-104.17"/>
<polygon fill="#63b8ff" stroke="#63b8ff" points="423.75,-107.67 433.75,-104.17 423.75,-100.67 423.75,-107.67"/>
</g>
<!-- Node5&#45;&gt;Node6 -->
<g id="edge5" class="edge">
<title>Node5&#45;&gt;Node6</title>
<path fill="none" stroke="#63b8ff" d="M531.44,-89.13C546.26,-84.17 562.59,-78.7 576.85,-73.93"/>
<polygon fill="#63b8ff" stroke="#63b8ff" points="577.98,-77.25 586.35,-70.75 575.76,-70.61 577.98,-77.25"/>
</g>
</g>
</svg>
