<?xml version="1.0" encoding="UTF-8" standalone="no"?>
<!DOCTYPE svg PUBLIC "-//W3C//DTD SVG 1.1//EN"
 "http://www.w3.org/Graphics/SVG/1.1/DTD/svg11.dtd">
<!-- Generated by graphviz version 2.44.1 (20220725.2034)
 -->
<!-- Title: nat_num_t::operator= Pages: 1 -->
<svg width="663pt" height="114pt"
 viewBox="0.00 0.00 663.00 113.50" xmlns="http://www.w3.org/2000/svg" xmlns:xlink="http://www.w3.org/1999/xlink">
<g id="graph0" class="graph" transform="scale(1 1) rotate(0) translate(4 109.5)">
<title>nat_num_t::operator=</title>
<!-- Node1 -->
<g id="node1" class="node">
<title>Node1</title>
<g id="a_node1"><a xlink:title=" ">
<polygon fill="#999999" stroke="#666666" points="110,-75 0,-75 0,-56 110,-56 110,-75"/>
<text text-anchor="middle" x="55" y="-63" font-family="Helvetica,sans-Serif" font-size="10.00">nat_num_t::operator=</text>
</a>
</g>
</g>
<!-- Node2 -->
<g id="node2" class="node">
<title>Node2</title>
<g id="a_node2"><a xlink:href="$classnat__num__t.html#a296e66bafb159169f28cab2ef1357f14" xlink:title=" ">
<polygon fill="white" stroke="#666666" points="239.5,-94 150.5,-94 150.5,-75 239.5,-75 239.5,-94"/>
<text text-anchor="middle" x="195" y="-82" font-family="Helvetica,sans-Serif" font-size="10.00">nat_num_t::clear</text>
</a>
</g>
</g>
<!-- Node1&#45;&gt;Node2 -->
<g id="edge1" class="edge">
<title>Node1&#45;&gt;Node2</title>
<path fill="none" stroke="#63b8ff" d="M110.15,-72.95C120.01,-74.31 130.3,-75.73 140.15,-77.09"/>
<polygon fill="#63b8ff" stroke="#63b8ff" points="139.85,-80.58 150.23,-78.47 140.8,-73.64 139.85,-80.58"/>
</g>
<!-- Node3 -->
<g id="node3" class="node">
<title>Node3</title>
<g id="a_node3"><a xlink:href="$classnat__num__t.html#a5a1e29dfd320bf08016a2f0227621f0d" xlink:title=" ">
<polygon fill="white" stroke="#666666" points="244,-57 146,-57 146,-38 244,-38 244,-57"/>
<text text-anchor="middle" x="195" y="-45" font-family="Helvetica,sans-Serif" font-size="10.00">nat_num_t::reduce</text>
</a>
</g>
</g>
<!-- Node1&#45;&gt;Node3 -->
<g id="edge2" class="edge">
<title>Node1&#45;&gt;Node3</title>
<path fill="none" stroke="#63b8ff" d="M110.15,-58.44C118.52,-57.35 127.2,-56.21 135.66,-55.11"/>
<polygon fill="#63b8ff" stroke="#63b8ff" points="136.38,-58.55 145.84,-53.78 135.47,-51.6 136.38,-58.55"/>
</g>
<!-- Node4 -->
<g id="node4" class="node">
<title>Node4</title>
<g id="a_node4"><a xlink:href="$classnat__num__t.html#a14b63725918fba3ba1f731c3cda4b6ca" xlink:title=" ">
<polygon fill="white" stroke="#666666" points="388,-105.5 286,-105.5 286,-75.5 388,-75.5 388,-105.5"/>
<text text-anchor="start" x="294" y="-93.5" font-family="Helvetica,sans-Serif" font-size="10.00">nat_num_t::digs_no</text>
<text text-anchor="middle" x="337" y="-82.5" font-family="Helvetica,sans-Serif" font-size="10.00">_significativos</text>
</a>
</g>
</g>
<!-- Node3&#45;&gt;Node4 -->
<g id="edge3" class="edge">
<title>Node3&#45;&gt;Node4</title>
<path fill="none" stroke="#63b8ff" d="M227.07,-57.04C241.82,-61.57 259.95,-67.14 277.15,-72.43"/>
<polygon fill="#63b8ff" stroke="#63b8ff" points="276.56,-75.9 287.14,-75.49 278.61,-69.21 276.56,-75.9"/>
</g>
<!-- Node6 -->
<g id="node6" class="node">
<title>Node6</title>
<g id="a_node6"><a xlink:href="$classnat__num__t.html#a3f420ff49cf6b55ef38936b2035a4071" xlink:title=" ">
<polygon fill="white" stroke="#666666" points="655,-78 569,-78 569,-59 655,-59 655,-78"/>
<text text-anchor="middle" x="612" y="-66" font-family="Helvetica,sans-Serif" font-size="10.00">nat_num_t::size</text>
</a>
</g>
</g>
<!-- Node3&#45;&gt;Node6 -->
<g id="edge7" class="edge">
<title>Node3&#45;&gt;Node6</title>
<path fill="none" stroke="#63b8ff" d="M244.01,-49.93C322.48,-53.9 477.57,-61.75 558.72,-65.85"/>
<polygon fill="#63b8ff" stroke="#63b8ff" points="558.55,-69.35 568.72,-66.36 558.91,-62.36 558.55,-69.35"/>
</g>
<!-- Node7 -->
<g id="node7" class="node">
<title>Node7</title>
<g id="a_node7"><a xlink:href="$classnat__num__t.html#a8f8bdd2355aab6b9b24f4c87cd68f5b7" xlink:title=" ">
<polygon fill="white" stroke="#666666" points="394,-19 280,-19 280,0 394,0 394,-19"/>
<text text-anchor="middle" x="337" y="-7" font-family="Helvetica,sans-Serif" font-size="10.00">nat_num_t::nat_num_t</text>
</a>
</g>
</g>
<!-- Node3&#45;&gt;Node7 -->
<g id="edge6" class="edge">
<title>Node3&#45;&gt;Node7</title>
<path fill="none" stroke="#63b8ff" d="M231.33,-37.91C249.4,-33.01 271.6,-26.98 290.89,-21.74"/>
<polygon fill="#63b8ff" stroke="#63b8ff" points="291.95,-25.08 300.68,-19.09 290.12,-18.33 291.95,-25.08"/>
</g>
<!-- Node5 -->
<g id="node5" class="node">
<title>Node5</title>
<g id="a_node5"><a xlink:href="$classnat__num__t.html#a2a7eae79a48f9b29a40c9103cfac72d7" xlink:title=" ">
<polygon fill="white" stroke="#666666" points="533,-105.5 430,-105.5 430,-75.5 533,-75.5 533,-105.5"/>
<text text-anchor="start" x="438" y="-93.5" font-family="Helvetica,sans-Serif" font-size="10.00">nat_num_t::ceros_a</text>
<text text-anchor="middle" x="481.5" y="-82.5" font-family="Helvetica,sans-Serif" font-size="10.00">_la_izqda</text>
</a>
</g>
</g>
<!-- Node4&#45;&gt;Node5 -->
<g id="edge4" class="edge">
<title>Node4&#45;&gt;Node5</title>
<path fill="none" stroke="#63b8ff" d="M388.24,-90.5C398.34,-90.5 409.05,-90.5 419.47,-90.5"/>
<polygon fill="#63b8ff" stroke="#63b8ff" points="419.75,-94 429.75,-90.5 419.75,-87 419.75,-94"/>
</g>
<!-- Node5&#45;&gt;Node6 -->
<g id="edge5" class="edge">
<title>Node5&#45;&gt;Node6</title>
<path fill="none" stroke="#63b8ff" d="M533.29,-81.81C541.67,-80.37 550.36,-78.88 558.78,-77.44"/>
<polygon fill="#63b8ff" stroke="#63b8ff" points="559.59,-80.85 568.86,-75.72 558.41,-73.95 559.59,-80.85"/>
</g>
</g>
</svg>
