<?xml version="1.0" encoding="UTF-8" standalone="no"?>
<!DOCTYPE svg PUBLIC "-//W3C//DTD SVG 1.1//EN"
 "http://www.w3.org/Graphics/SVG/1.1/DTD/svg11.dtd">
<!-- Generated by graphviz version 2.44.1 (20220725.2034)
 -->
<!-- Title: nat_num_t::push_back Pages: 1 -->
<svg width="274pt" height="175pt"
 viewBox="0.00 0.00 274.00 175.00" xmlns="http://www.w3.org/2000/svg" xmlns:xlink="http://www.w3.org/1999/xlink">
<g id="graph0" class="graph" transform="scale(1 1) rotate(0) translate(4 171)">
<title>nat_num_t::push_back</title>
<!-- Node1 -->
<g id="node1" class="node">
<title>Node1</title>
<g id="a_node1"><a xlink:title=" ">
<polygon fill="#999999" stroke="#666666" points="266,-93 150,-93 150,-74 266,-74 266,-93"/>
<text text-anchor="middle" x="208" y="-81" font-family="Helvetica,sans-Serif" font-size="10.00">nat_num_t::push_back</text>
</a>
</g>
</g>
<!-- Node2 -->
<g id="node2" class="node">
<title>Node2</title>
<g id="a_node2"><a xlink:href="$classnat__num__t.html#a573146d0cf8ab1ee7be2b8f89c809bc3" xlink:title=" ">
<polygon fill="white" stroke="#666666" points="114,-167 0,-167 0,-148 114,-148 114,-167"/>
<text text-anchor="middle" x="57" y="-155" font-family="Helvetica,sans-Serif" font-size="10.00">nat_num_t::nat_num_t</text>
</a>
</g>
</g>
<!-- Node1&#45;&gt;Node2 -->
<g id="edge1" class="edge">
<title>Node1&#45;&gt;Node2</title>
<path fill="none" stroke="#63b8ff" d="M184.87,-98.83C166.51,-111.05 139.39,-127.96 114,-139.5 107.03,-142.67 99.33,-145.53 91.94,-147.98"/>
<polygon fill="#63b8ff" stroke="#63b8ff" points="187.04,-101.59 193.37,-93.09 183.13,-95.78 187.04,-101.59"/>
</g>
<!-- Node3 -->
<g id="node3" class="node">
<title>Node3</title>
<g id="a_node3"><a xlink:href="$classnat__num__t.html#a0f5643bd0b8c549e71abd522d58c7e7e" xlink:title=" ">
<polygon fill="white" stroke="#666666" points="110.5,-130 3.5,-130 3.5,-111 110.5,-111 110.5,-130"/>
<text text-anchor="middle" x="57" y="-118" font-family="Helvetica,sans-Serif" font-size="10.00">nat_num_t::operator*</text>
</a>
</g>
</g>
<!-- Node1&#45;&gt;Node3 -->
<g id="edge2" class="edge">
<title>Node1&#45;&gt;Node3</title>
<path fill="none" stroke="#63b8ff" d="M158.7,-95.49C138.55,-100.5 115.48,-106.23 96.5,-110.94"/>
<polygon fill="#63b8ff" stroke="#63b8ff" points="159.77,-98.84 168.63,-93.03 158.08,-92.04 159.77,-98.84"/>
</g>
<!-- Node4 -->
<g id="node4" class="node">
<title>Node4</title>
<g id="a_node4"><a xlink:href="$classnat__num__t.html#ae0bbc32c65935b4cf54a154ec950fc18" xlink:title=" ">
<polygon fill="white" stroke="#666666" points="113.5,-93 0.5,-93 0.5,-74 113.5,-74 113.5,-93"/>
<text text-anchor="middle" x="57" y="-81" font-family="Helvetica,sans-Serif" font-size="10.00">nat_num_t::operator*=</text>
</a>
</g>
</g>
<!-- Node1&#45;&gt;Node4 -->
<g id="edge3" class="edge">
<title>Node1&#45;&gt;Node4</title>
<path fill="none" stroke="#63b8ff" d="M139.73,-83.5C131.06,-83.5 122.26,-83.5 113.8,-83.5"/>
<polygon fill="#63b8ff" stroke="#63b8ff" points="139.82,-87 149.82,-83.5 139.82,-80 139.82,-87"/>
</g>
<!-- Node5 -->
<g id="node5" class="node">
<title>Node5</title>
<g id="a_node5"><a xlink:href="$classnat__num__t.html#a60b040d5731e18546560a0f53f2de020" xlink:title=" ">
<polygon fill="white" stroke="#666666" points="112,-56 2,-56 2,-37 112,-37 112,-56"/>
<text text-anchor="middle" x="57" y="-44" font-family="Helvetica,sans-Serif" font-size="10.00">nat_num_t::operator=</text>
</a>
</g>
</g>
<!-- Node1&#45;&gt;Node5 -->
<g id="edge4" class="edge">
<title>Node1&#45;&gt;Node5</title>
<path fill="none" stroke="#63b8ff" d="M158.7,-71.51C138.55,-66.5 115.48,-60.77 96.5,-56.06"/>
<polygon fill="#63b8ff" stroke="#63b8ff" points="158.08,-74.96 168.63,-73.97 159.77,-68.16 158.08,-74.96"/>
</g>
<!-- Node6 -->
<g id="node6" class="node">
<title>Node6</title>
<g id="a_node6"><a xlink:href="$nat__num__t_8hpp.html#abb536e9b1b1447052db560972a06adbe" xlink:title=" ">
<polygon fill="white" stroke="#666666" points="89,-19 25,-19 25,0 89,0 89,-19"/>
<text text-anchor="middle" x="57" y="-7" font-family="Helvetica,sans-Serif" font-size="10.00">operator&gt;&gt;</text>
</a>
</g>
</g>
<!-- Node1&#45;&gt;Node6 -->
<g id="edge5" class="edge">
<title>Node1&#45;&gt;Node6</title>
<path fill="none" stroke="#63b8ff" d="M184.46,-68.37C166.05,-56.47 139.08,-40.02 114,-28.5 106.16,-24.9 97.44,-21.62 89.26,-18.83"/>
<polygon fill="#63b8ff" stroke="#63b8ff" points="182.72,-71.42 193,-73.97 186.56,-65.56 182.72,-71.42"/>
</g>
</g>
</svg>
