<?xml version="1.0" encoding="UTF-8" standalone="no"?>
<!DOCTYPE svg PUBLIC "-//W3C//DTD SVG 1.1//EN"
 "http://www.w3.org/Graphics/SVG/1.1/DTD/svg11.dtd">
<!-- Generated by graphviz version 2.44.1 (20220725.2034)
 -->
<!-- Title: nat_num_t::operator+= Pages: 1 -->
<svg width="685pt" height="127pt"
 viewBox="0.00 0.00 685.00 127.49" xmlns="http://www.w3.org/2000/svg" xmlns:xlink="http://www.w3.org/1999/xlink">
<g id="graph0" class="graph" transform="scale(1 1) rotate(0) translate(4 123.49)">
<title>nat_num_t::operator+=</title>
<!-- Node1 -->
<g id="node1" class="node">
<title>Node1</title>
<g id="a_node1"><a xlink:title=" ">
<polygon fill="#999999" stroke="#666666" points="116,-51.99 0,-51.99 0,-32.99 116,-32.99 116,-51.99"/>
<text text-anchor="middle" x="58" y="-39.99" font-family="Helvetica,sans-Serif" font-size="10.00">nat_num_t::operator+=</text>
</a>
</g>
</g>
<!-- Node2 -->
<g id="node2" class="node">
<title>Node2</title>
<g id="a_node2"><a xlink:href="$classnat__num__t.html#aa0ced0babafe7e7e98b393c63d0c06d9" xlink:title=" ">
<polygon fill="white" stroke="#666666" points="266,-88.99 152,-88.99 152,-69.99 266,-69.99 266,-88.99"/>
<text text-anchor="middle" x="209" y="-76.99" font-family="Helvetica,sans-Serif" font-size="10.00">nat_num_t::push_front</text>
</a>
</g>
</g>
<!-- Node1&#45;&gt;Node2 -->
<g id="edge1" class="edge">
<title>Node1&#45;&gt;Node2</title>
<path fill="none" stroke="#63b8ff" d="M97.37,-52.02C116.33,-56.72 139.4,-62.45 159.56,-67.46"/>
<polygon fill="#63b8ff" stroke="#63b8ff" points="158.95,-70.91 169.5,-69.93 160.64,-64.12 158.95,-70.91"/>
</g>
<!-- Node3 -->
<g id="node3" class="node">
<title>Node3</title>
<g id="a_node3"><a xlink:href="$classnat__num__t.html#a5a1e29dfd320bf08016a2f0227621f0d" xlink:title=" ">
<polygon fill="white" stroke="#666666" points="258,-51.99 160,-51.99 160,-32.99 258,-32.99 258,-51.99"/>
<text text-anchor="middle" x="209" y="-39.99" font-family="Helvetica,sans-Serif" font-size="10.00">nat_num_t::reduce</text>
</a>
</g>
</g>
<!-- Node1&#45;&gt;Node3 -->
<g id="edge2" class="edge">
<title>Node1&#45;&gt;Node3</title>
<path fill="none" stroke="#63b8ff" d="M116.18,-42.49C127.24,-42.49 138.84,-42.49 149.92,-42.49"/>
<polygon fill="#63b8ff" stroke="#63b8ff" points="149.93,-45.99 159.93,-42.49 149.93,-38.99 149.93,-45.99"/>
</g>
<!-- Node6 -->
<g id="node6" class="node">
<title>Node6</title>
<g id="a_node6"><a xlink:href="$classnat__num__t.html#a3f420ff49cf6b55ef38936b2035a4071" xlink:title=" ">
<polygon fill="white" stroke="#666666" points="677,-70.99 591,-70.99 591,-51.99 677,-51.99 677,-70.99"/>
<text text-anchor="middle" x="634" y="-58.99" font-family="Helvetica,sans-Serif" font-size="10.00">nat_num_t::size</text>
</a>
</g>
</g>
<!-- Node1&#45;&gt;Node6 -->
<g id="edge8" class="edge">
<title>Node1&#45;&gt;Node6</title>
<path fill="none" stroke="#63b8ff" d="M95.55,-32.94C160.26,-17.3 299.17,10.6 416,-4.49 480.55,-12.82 553.29,-34.56 596.03,-48.66"/>
<polygon fill="#63b8ff" stroke="#63b8ff" points="595.11,-52.04 605.7,-51.89 597.33,-45.4 595.11,-52.04"/>
</g>
<!-- Node4 -->
<g id="node4" class="node">
<title>Node4</title>
<g id="a_node4"><a xlink:href="$classnat__num__t.html#a14b63725918fba3ba1f731c3cda4b6ca" xlink:title=" ">
<polygon fill="white" stroke="#666666" points="410,-119.49 308,-119.49 308,-89.49 410,-89.49 410,-119.49"/>
<text text-anchor="start" x="316" y="-107.49" font-family="Helvetica,sans-Serif" font-size="10.00">nat_num_t::digs_no</text>
<text text-anchor="middle" x="359" y="-96.49" font-family="Helvetica,sans-Serif" font-size="10.00">_significativos</text>
</a>
</g>
</g>
<!-- Node3&#45;&gt;Node4 -->
<g id="edge3" class="edge">
<title>Node3&#45;&gt;Node4</title>
<path fill="none" stroke="#63b8ff" d="M240.16,-52.04C248.59,-54.9 257.71,-58.16 266,-61.49 283.5,-68.52 302.45,-77.19 318.57,-84.89"/>
<polygon fill="#63b8ff" stroke="#63b8ff" points="317.18,-88.11 327.7,-89.3 320.22,-81.8 317.18,-88.11"/>
</g>
<!-- Node3&#45;&gt;Node6 -->
<g id="edge7" class="edge">
<title>Node3&#45;&gt;Node6</title>
<path fill="none" stroke="#63b8ff" d="M258.11,-44.65C338.16,-48.24 498.06,-55.43 580.77,-59.14"/>
<polygon fill="#63b8ff" stroke="#63b8ff" points="580.79,-62.65 590.94,-59.6 581.11,-55.65 580.79,-62.65"/>
</g>
<!-- Node7 -->
<g id="node7" class="node">
<title>Node7</title>
<g id="a_node7"><a xlink:href="$classnat__num__t.html#a8f8bdd2355aab6b9b24f4c87cd68f5b7" xlink:title=" ">
<polygon fill="white" stroke="#666666" points="416,-32.99 302,-32.99 302,-13.99 416,-13.99 416,-32.99"/>
<text text-anchor="middle" x="359" y="-20.99" font-family="Helvetica,sans-Serif" font-size="10.00">nat_num_t::nat_num_t</text>
</a>
</g>
</g>
<!-- Node3&#45;&gt;Node7 -->
<g id="edge6" class="edge">
<title>Node3&#45;&gt;Node7</title>
<path fill="none" stroke="#63b8ff" d="M258.05,-36.32C268.89,-34.93 280.57,-33.43 292,-31.96"/>
<polygon fill="#63b8ff" stroke="#63b8ff" points="292.48,-35.43 301.95,-30.68 291.59,-28.49 292.48,-35.43"/>
</g>
<!-- Node5 -->
<g id="node5" class="node">
<title>Node5</title>
<g id="a_node5"><a xlink:href="$classnat__num__t.html#a2a7eae79a48f9b29a40c9103cfac72d7" xlink:title=" ">
<polygon fill="white" stroke="#666666" points="555,-119.49 452,-119.49 452,-89.49 555,-89.49 555,-119.49"/>
<text text-anchor="start" x="460" y="-107.49" font-family="Helvetica,sans-Serif" font-size="10.00">nat_num_t::ceros_a</text>
<text text-anchor="middle" x="503.5" y="-96.49" font-family="Helvetica,sans-Serif" font-size="10.00">_la_izqda</text>
</a>
</g>
</g>
<!-- Node4&#45;&gt;Node5 -->
<g id="edge4" class="edge">
<title>Node4&#45;&gt;Node5</title>
<path fill="none" stroke="#63b8ff" d="M410.24,-104.49C420.34,-104.49 431.05,-104.49 441.47,-104.49"/>
<polygon fill="#63b8ff" stroke="#63b8ff" points="441.75,-107.99 451.75,-104.49 441.75,-100.99 441.75,-107.99"/>
</g>
<!-- Node5&#45;&gt;Node6 -->
<g id="edge5" class="edge">
<title>Node5&#45;&gt;Node6</title>
<path fill="none" stroke="#63b8ff" d="M549.44,-89.45C564.26,-84.49 580.59,-79.03 594.85,-74.25"/>
<polygon fill="#63b8ff" stroke="#63b8ff" points="595.98,-77.57 604.35,-71.07 593.76,-70.93 595.98,-77.57"/>
</g>
</g>
</svg>
