<?xml version="1.0" encoding="UTF-8" standalone="no"?>
<!DOCTYPE svg PUBLIC "-//W3C//DTD SVG 1.1//EN"
 "http://www.w3.org/Graphics/SVG/1.1/DTD/svg11.dtd">
<!-- Generated by graphviz version 2.44.1 (20220725.2034)
 -->
<!-- Title: nat_num_t::operator&gt; Pages: 1 -->
<svg width="379pt" height="55pt"
 viewBox="0.00 0.00 379.00 54.50" xmlns="http://www.w3.org/2000/svg" xmlns:xlink="http://www.w3.org/1999/xlink">
<g id="graph0" class="graph" transform="scale(1 1) rotate(0) translate(4 50.5)">
<title>nat_num_t::operator&gt;</title>
<!-- Node1 -->
<g id="node1" class="node">
<title>Node1</title>
<g id="a_node1"><a xlink:title=" ">
<polygon fill="#999999" stroke="#666666" points="110,-19 0,-19 0,0 110,0 110,-19"/>
<text text-anchor="middle" x="55" y="-7" font-family="Helvetica,sans-Serif" font-size="10.00">nat_num_t::operator&gt;</text>
</a>
</g>
</g>
<!-- Node2 -->
<g id="node2" class="node">
<title>Node2</title>
<g id="a_node2"><a xlink:href="$classnat__num__t.html#a2a7eae79a48f9b29a40c9103cfac72d7" xlink:title=" ">
<polygon fill="white" stroke="#666666" points="249,-46.5 146,-46.5 146,-16.5 249,-16.5 249,-46.5"/>
<text text-anchor="start" x="154" y="-34.5" font-family="Helvetica,sans-Serif" font-size="10.00">nat_num_t::ceros_a</text>
<text text-anchor="middle" x="197.5" y="-23.5" font-family="Helvetica,sans-Serif" font-size="10.00">_la_izqda</text>
</a>
</g>
</g>
<!-- Node1&#45;&gt;Node2 -->
<g id="edge1" class="edge">
<title>Node1&#45;&gt;Node2</title>
<path fill="none" stroke="#63b8ff" d="M110.32,-18.01C118.56,-19.3 127.1,-20.63 135.46,-21.94"/>
<polygon fill="#63b8ff" stroke="#63b8ff" points="135.13,-25.43 145.55,-23.52 136.21,-18.52 135.13,-25.43"/>
</g>
<!-- Node3 -->
<g id="node3" class="node">
<title>Node3</title>
<g id="a_node3"><a xlink:href="$classnat__num__t.html#a3f420ff49cf6b55ef38936b2035a4071" xlink:title=" ">
<polygon fill="white" stroke="#666666" points="371,-19 285,-19 285,0 371,0 371,-19"/>
<text text-anchor="middle" x="328" y="-7" font-family="Helvetica,sans-Serif" font-size="10.00">nat_num_t::size</text>
</a>
</g>
</g>
<!-- Node1&#45;&gt;Node3 -->
<g id="edge3" class="edge">
<title>Node1&#45;&gt;Node3</title>
<path fill="none" stroke="#63b8ff" d="M110.25,-8.1C122.04,-7.85 134.44,-7.63 146,-7.5 191.77,-6.99 203.23,-6.91 249,-7.5 257.37,-7.61 266.25,-7.78 274.9,-7.98"/>
<polygon fill="#63b8ff" stroke="#63b8ff" points="274.82,-11.48 284.9,-8.22 274.99,-4.48 274.82,-11.48"/>
</g>
<!-- Node2&#45;&gt;Node3 -->
<g id="edge2" class="edge">
<title>Node2&#45;&gt;Node3</title>
<path fill="none" stroke="#63b8ff" d="M249.29,-22.81C257.67,-21.37 266.36,-19.88 274.78,-18.44"/>
<polygon fill="#63b8ff" stroke="#63b8ff" points="275.59,-21.85 284.86,-16.72 274.41,-14.95 275.59,-21.85"/>
</g>
</g>
</svg>
