<?xml version="1.0" encoding="UTF-8" standalone="no"?>
<!DOCTYPE svg PUBLIC "-//W3C//DTD SVG 1.1//EN"
 "http://www.w3.org/Graphics/SVG/1.1/DTD/svg11.dtd">
<!-- Generated by graphviz version 2.44.1 (20220725.2034)
 -->
<!-- Title: nat_num_t::clear Pages: 1 -->
<svg width="247pt" height="101pt"
 viewBox="0.00 0.00 247.00 101.00" xmlns="http://www.w3.org/2000/svg" xmlns:xlink="http://www.w3.org/1999/xlink">
<g id="graph0" class="graph" transform="scale(1 1) rotate(0) translate(4 97)">
<title>nat_num_t::clear</title>
<!-- Node1 -->
<g id="node1" class="node">
<title>Node1</title>
<g id="a_node1"><a xlink:title=" ">
<polygon fill="#999999" stroke="#666666" points="239,-56 150,-56 150,-37 239,-37 239,-56"/>
<text text-anchor="middle" x="194.5" y="-44" font-family="Helvetica,sans-Serif" font-size="10.00">nat_num_t::clear</text>
</a>
</g>
</g>
<!-- Node2 -->
<g id="node2" class="node">
<title>Node2</title>
<g id="a_node2"><a xlink:href="$classnat__num__t.html#a37024fe6aa82e7f7632fa2f119d91982" xlink:title=" ">
<polygon fill="white" stroke="#666666" points="114,-93 0,-93 0,-74 114,-74 114,-93"/>
<text text-anchor="middle" x="57" y="-81" font-family="Helvetica,sans-Serif" font-size="10.00">nat_num_t::nat_num_t</text>
</a>
</g>
</g>
<!-- Node1&#45;&gt;Node2 -->
<g id="edge1" class="edge">
<title>Node1&#45;&gt;Node2</title>
<path fill="none" stroke="#63b8ff" d="M148.86,-58.69C130.79,-63.62 110.23,-69.24 93.25,-73.88"/>
<polygon fill="#63b8ff" stroke="#63b8ff" points="149.88,-62.04 158.61,-56.03 148.04,-55.29 149.88,-62.04"/>
</g>
<!-- Node3 -->
<g id="node3" class="node">
<title>Node3</title>
<g id="a_node3"><a xlink:href="$classnat__num__t.html#a2f2bc5932044b67b90f5fba65c0fbb36" xlink:title=" ">
<polygon fill="white" stroke="#666666" points="112,-56 2,-56 2,-37 112,-37 112,-56"/>
<text text-anchor="middle" x="57" y="-44" font-family="Helvetica,sans-Serif" font-size="10.00">nat_num_t::operator=</text>
</a>
</g>
</g>
<!-- Node1&#45;&gt;Node3 -->
<g id="edge2" class="edge">
<title>Node1&#45;&gt;Node3</title>
<path fill="none" stroke="#63b8ff" d="M139.6,-46.5C130.67,-46.5 121.41,-46.5 112.47,-46.5"/>
<polygon fill="#63b8ff" stroke="#63b8ff" points="139.88,-50 149.88,-46.5 139.88,-43 139.88,-50"/>
</g>
<!-- Node4 -->
<g id="node4" class="node">
<title>Node4</title>
<g id="a_node4"><a xlink:href="$nat__num__t_8hpp.html#abb536e9b1b1447052db560972a06adbe" xlink:title=" ">
<polygon fill="white" stroke="#666666" points="89,-19 25,-19 25,0 89,0 89,-19"/>
<text text-anchor="middle" x="57" y="-7" font-family="Helvetica,sans-Serif" font-size="10.00">operator&gt;&gt;</text>
</a>
</g>
</g>
<!-- Node1&#45;&gt;Node4 -->
<g id="edge3" class="edge">
<title>Node1&#45;&gt;Node4</title>
<path fill="none" stroke="#63b8ff" d="M148.69,-34.27C129.16,-28.93 106.74,-22.81 89.08,-17.99"/>
<polygon fill="#63b8ff" stroke="#63b8ff" points="148.04,-37.71 158.61,-36.97 149.88,-30.96 148.04,-37.71"/>
</g>
</g>
</svg>
