<?xml version="1.0" encoding="UTF-8" standalone="no"?>
<!DOCTYPE svg PUBLIC "-//W3C//DTD SVG 1.1//EN"
 "http://www.w3.org/Graphics/SVG/1.1/DTD/svg11.dtd">
<!-- Generated by graphviz version 2.44.1 (20220725.2034)
 -->
<!-- Title: nat_num_t::rem2 Pages: 1 -->
<svg width="643pt" height="133pt"
 viewBox="0.00 0.00 643.00 132.50" xmlns="http://www.w3.org/2000/svg" xmlns:xlink="http://www.w3.org/1999/xlink">
<g id="graph0" class="graph" transform="scale(1 1) rotate(0) translate(4 128.5)">
<title>nat_num_t::rem2</title>
<!-- Node1 -->
<g id="node1" class="node">
<title>Node1</title>
<g id="a_node1"><a xlink:title=" ">
<polygon fill="#999999" stroke="#666666" points="90,-19 0,-19 0,0 90,0 90,-19"/>
<text text-anchor="middle" x="45" y="-7" font-family="Helvetica,sans-Serif" font-size="10.00">nat_num_t::rem2</text>
</a>
</g>
</g>
<!-- Node2 -->
<g id="node2" class="node">
<title>Node2</title>
<g id="a_node2"><a xlink:href="$classnat__num__t.html#a5a1e29dfd320bf08016a2f0227621f0d" xlink:title=" ">
<polygon fill="white" stroke="#666666" points="224,-57 126,-57 126,-38 224,-38 224,-57"/>
<text text-anchor="middle" x="175" y="-45" font-family="Helvetica,sans-Serif" font-size="10.00">nat_num_t::reduce</text>
</a>
</g>
</g>
<!-- Node1&#45;&gt;Node2 -->
<g id="edge1" class="edge">
<title>Node1&#45;&gt;Node2</title>
<path fill="none" stroke="#63b8ff" d="M78.3,-19.09C94.52,-23.9 114.38,-29.8 131.79,-34.97"/>
<polygon fill="#63b8ff" stroke="#63b8ff" points="131.13,-38.42 141.71,-37.91 133.12,-31.71 131.13,-38.42"/>
</g>
<!-- Node5 -->
<g id="node5" class="node">
<title>Node5</title>
<g id="a_node5"><a xlink:href="$classnat__num__t.html#a3f420ff49cf6b55ef38936b2035a4071" xlink:title=" ">
<polygon fill="white" stroke="#666666" points="635,-76 549,-76 549,-57 635,-57 635,-76"/>
<text text-anchor="middle" x="592" y="-64" font-family="Helvetica,sans-Serif" font-size="10.00">nat_num_t::size</text>
</a>
</g>
</g>
<!-- Node1&#45;&gt;Node5 -->
<g id="edge7" class="edge">
<title>Node1&#45;&gt;Node5</title>
<path fill="none" stroke="#63b8ff" d="M90.26,-5.92C153.5,-1.62 273.19,3.52 374,-9.5 438.55,-17.84 511.29,-39.58 554.03,-53.67"/>
<polygon fill="#63b8ff" stroke="#63b8ff" points="553.11,-57.05 563.7,-56.9 555.33,-50.41 553.11,-57.05"/>
</g>
<!-- Node3 -->
<g id="node3" class="node">
<title>Node3</title>
<g id="a_node3"><a xlink:href="$classnat__num__t.html#a14b63725918fba3ba1f731c3cda4b6ca" xlink:title=" ">
<polygon fill="white" stroke="#666666" points="368,-124.5 266,-124.5 266,-94.5 368,-94.5 368,-124.5"/>
<text text-anchor="start" x="274" y="-112.5" font-family="Helvetica,sans-Serif" font-size="10.00">nat_num_t::digs_no</text>
<text text-anchor="middle" x="317" y="-101.5" font-family="Helvetica,sans-Serif" font-size="10.00">_significativos</text>
</a>
</g>
</g>
<!-- Node2&#45;&gt;Node3 -->
<g id="edge2" class="edge">
<title>Node2&#45;&gt;Node3</title>
<path fill="none" stroke="#63b8ff" d="M197.57,-57.05C217.5,-65.88 247.69,-79.25 272.61,-90.28"/>
<polygon fill="#63b8ff" stroke="#63b8ff" points="271.31,-93.54 281.87,-94.38 274.14,-87.13 271.31,-93.54"/>
</g>
<!-- Node2&#45;&gt;Node5 -->
<g id="edge6" class="edge">
<title>Node2&#45;&gt;Node5</title>
<path fill="none" stroke="#63b8ff" d="M224.01,-49.7C302.48,-53.29 457.57,-60.39 538.72,-64.11"/>
<polygon fill="#63b8ff" stroke="#63b8ff" points="538.57,-67.6 548.72,-64.56 538.89,-60.61 538.57,-67.6"/>
</g>
<!-- Node6 -->
<g id="node6" class="node">
<title>Node6</title>
<g id="a_node6"><a xlink:href="$classnat__num__t.html#a8f8bdd2355aab6b9b24f4c87cd68f5b7" xlink:title=" ">
<polygon fill="white" stroke="#666666" points="374,-38 260,-38 260,-19 374,-19 374,-38"/>
<text text-anchor="middle" x="317" y="-26" font-family="Helvetica,sans-Serif" font-size="10.00">nat_num_t::nat_num_t</text>
</a>
</g>
</g>
<!-- Node2&#45;&gt;Node6 -->
<g id="edge5" class="edge">
<title>Node2&#45;&gt;Node6</title>
<path fill="none" stroke="#63b8ff" d="M224.18,-40.96C232.37,-39.85 241,-38.68 249.55,-37.52"/>
<polygon fill="#63b8ff" stroke="#63b8ff" points="250.1,-40.98 259.54,-36.16 249.16,-34.04 250.1,-40.98"/>
</g>
<!-- Node4 -->
<g id="node4" class="node">
<title>Node4</title>
<g id="a_node4"><a xlink:href="$classnat__num__t.html#a2a7eae79a48f9b29a40c9103cfac72d7" xlink:title=" ">
<polygon fill="white" stroke="#666666" points="513,-124.5 410,-124.5 410,-94.5 513,-94.5 513,-124.5"/>
<text text-anchor="start" x="418" y="-112.5" font-family="Helvetica,sans-Serif" font-size="10.00">nat_num_t::ceros_a</text>
<text text-anchor="middle" x="461.5" y="-101.5" font-family="Helvetica,sans-Serif" font-size="10.00">_la_izqda</text>
</a>
</g>
</g>
<!-- Node3&#45;&gt;Node4 -->
<g id="edge3" class="edge">
<title>Node3&#45;&gt;Node4</title>
<path fill="none" stroke="#63b8ff" d="M368.24,-109.5C378.34,-109.5 389.05,-109.5 399.47,-109.5"/>
<polygon fill="#63b8ff" stroke="#63b8ff" points="399.75,-113 409.75,-109.5 399.75,-106 399.75,-113"/>
</g>
<!-- Node4&#45;&gt;Node5 -->
<g id="edge4" class="edge">
<title>Node4&#45;&gt;Node5</title>
<path fill="none" stroke="#63b8ff" d="M507.44,-94.46C522.26,-89.5 538.59,-84.04 552.85,-79.27"/>
<polygon fill="#63b8ff" stroke="#63b8ff" points="553.98,-82.58 562.35,-76.09 551.76,-75.94 553.98,-82.58"/>
</g>
</g>
</svg>
