<?xml version="1.0" encoding="UTF-8" standalone="no"?>
<!DOCTYPE svg PUBLIC "-//W3C//DTD SVG 1.1//EN"
 "http://www.w3.org/Graphics/SVG/1.1/DTD/svg11.dtd">
<!-- Generated by graphviz version 2.44.1 (20220725.2034)
 -->
<!-- Title: nat_num_t::nat_num_t Pages: 1 -->
<svg width="685pt" height="139pt"
 viewBox="0.00 0.00 685.00 139.00" xmlns="http://www.w3.org/2000/svg" xmlns:xlink="http://www.w3.org/1999/xlink">
<g id="graph0" class="graph" transform="scale(1 1) rotate(0) translate(4 135)">
<title>nat_num_t::nat_num_t</title>
<!-- Node1 -->
<g id="node1" class="node">
<title>Node1</title>
<g id="a_node1"><a xlink:title=" ">
<polygon fill="#999999" stroke="#666666" points="114,-94 0,-94 0,-75 114,-75 114,-94"/>
<text text-anchor="middle" x="57" y="-82" font-family="Helvetica,sans-Serif" font-size="10.00">nat_num_t::nat_num_t</text>
</a>
</g>
</g>
<!-- Node2 -->
<g id="node2" class="node">
<title>Node2</title>
<g id="a_node2"><a xlink:href="$classnat__num__t.html#a296e66bafb159169f28cab2ef1357f14" xlink:title=" ">
<polygon fill="white" stroke="#666666" points="252.5,-131 163.5,-131 163.5,-112 252.5,-112 252.5,-131"/>
<text text-anchor="middle" x="208" y="-119" font-family="Helvetica,sans-Serif" font-size="10.00">nat_num_t::clear</text>
</a>
</g>
</g>
<!-- Node1&#45;&gt;Node2 -->
<g id="edge1" class="edge">
<title>Node1&#45;&gt;Node2</title>
<path fill="none" stroke="#63b8ff" d="M96.37,-94.03C115.33,-98.74 138.4,-104.47 158.56,-109.47"/>
<polygon fill="#63b8ff" stroke="#63b8ff" points="157.95,-112.93 168.5,-111.94 159.64,-106.13 157.95,-112.93"/>
</g>
<!-- Node3 -->
<g id="node3" class="node">
<title>Node3</title>
<g id="a_node3"><a xlink:href="$classnat__num__t.html#aef1019272164e14682dc667e158afa53" xlink:title=" ">
<polygon fill="white" stroke="#666666" points="266,-94 150,-94 150,-75 266,-75 266,-94"/>
<text text-anchor="middle" x="208" y="-82" font-family="Helvetica,sans-Serif" font-size="10.00">nat_num_t::push_back</text>
</a>
</g>
</g>
<!-- Node1&#45;&gt;Node3 -->
<g id="edge2" class="edge">
<title>Node1&#45;&gt;Node3</title>
<path fill="none" stroke="#63b8ff" d="M114.33,-84.5C122.53,-84.5 131.05,-84.5 139.44,-84.5"/>
<polygon fill="#63b8ff" stroke="#63b8ff" points="139.6,-88 149.6,-84.5 139.6,-81 139.6,-88"/>
</g>
<!-- Node4 -->
<g id="node4" class="node">
<title>Node4</title>
<g id="a_node4"><a xlink:href="$classnat__num__t.html#a5a1e29dfd320bf08016a2f0227621f0d" xlink:title=" ">
<polygon fill="white" stroke="#666666" points="257,-57 159,-57 159,-38 257,-38 257,-57"/>
<text text-anchor="middle" x="208" y="-45" font-family="Helvetica,sans-Serif" font-size="10.00">nat_num_t::reduce</text>
</a>
</g>
</g>
<!-- Node1&#45;&gt;Node4 -->
<g id="edge3" class="edge">
<title>Node1&#45;&gt;Node4</title>
<path fill="none" stroke="#63b8ff" d="M96.37,-74.97C115.33,-70.26 138.4,-64.53 158.56,-59.53"/>
<polygon fill="#63b8ff" stroke="#63b8ff" points="159.64,-62.87 168.5,-57.06 157.95,-56.07 159.64,-62.87"/>
</g>
<!-- Node5 -->
<g id="node5" class="node">
<title>Node5</title>
<g id="a_node5"><a xlink:href="$classnat__num__t.html#a14b63725918fba3ba1f731c3cda4b6ca" xlink:title=" ">
<polygon fill="white" stroke="#666666" points="410,-105.5 308,-105.5 308,-75.5 410,-75.5 410,-105.5"/>
<text text-anchor="start" x="316" y="-93.5" font-family="Helvetica,sans-Serif" font-size="10.00">nat_num_t::digs_no</text>
<text text-anchor="middle" x="359" y="-82.5" font-family="Helvetica,sans-Serif" font-size="10.00">_significativos</text>
</a>
</g>
</g>
<!-- Node4&#45;&gt;Node5 -->
<g id="edge4" class="edge">
<title>Node4&#45;&gt;Node5</title>
<path fill="none" stroke="#63b8ff" d="M242.07,-57.04C258.49,-61.78 278.86,-67.66 297.92,-73.16"/>
<polygon fill="#63b8ff" stroke="#63b8ff" points="297.16,-76.59 307.74,-76 299.1,-69.86 297.16,-76.59"/>
</g>
<!-- Node7 -->
<g id="node7" class="node">
<title>Node7</title>
<g id="a_node7"><a xlink:href="$classnat__num__t.html#a3f420ff49cf6b55ef38936b2035a4071" xlink:title=" ">
<polygon fill="white" stroke="#666666" points="677,-78 591,-78 591,-59 677,-59 677,-78"/>
<text text-anchor="middle" x="634" y="-66" font-family="Helvetica,sans-Serif" font-size="10.00">nat_num_t::size</text>
</a>
</g>
</g>
<!-- Node4&#45;&gt;Node7 -->
<g id="edge8" class="edge">
<title>Node4&#45;&gt;Node7</title>
<path fill="none" stroke="#63b8ff" d="M257.23,-49.89C337.47,-53.86 497.74,-61.8 580.64,-65.91"/>
<polygon fill="#63b8ff" stroke="#63b8ff" points="580.68,-69.41 590.84,-66.41 581.03,-62.42 580.68,-69.41"/>
</g>
<!-- Node8 -->
<g id="node8" class="node">
<title>Node8</title>
<g id="a_node8"><a xlink:href="$classnat__num__t.html#a8f8bdd2355aab6b9b24f4c87cd68f5b7" xlink:title=" ">
<polygon fill="white" stroke="#666666" points="416,-19 302,-19 302,0 416,0 416,-19"/>
<text text-anchor="middle" x="359" y="-7" font-family="Helvetica,sans-Serif" font-size="10.00">nat_num_t::nat_num_t</text>
</a>
</g>
</g>
<!-- Node4&#45;&gt;Node8 -->
<g id="edge7" class="edge">
<title>Node4&#45;&gt;Node8</title>
<path fill="none" stroke="#63b8ff" d="M246.6,-37.91C266.08,-32.94 290.07,-26.82 310.8,-21.54"/>
<polygon fill="#63b8ff" stroke="#63b8ff" points="311.85,-24.88 320.67,-19.02 310.12,-18.1 311.85,-24.88"/>
</g>
<!-- Node6 -->
<g id="node6" class="node">
<title>Node6</title>
<g id="a_node6"><a xlink:href="$classnat__num__t.html#a2a7eae79a48f9b29a40c9103cfac72d7" xlink:title=" ">
<polygon fill="white" stroke="#666666" points="555,-105.5 452,-105.5 452,-75.5 555,-75.5 555,-105.5"/>
<text text-anchor="start" x="460" y="-93.5" font-family="Helvetica,sans-Serif" font-size="10.00">nat_num_t::ceros_a</text>
<text text-anchor="middle" x="503.5" y="-82.5" font-family="Helvetica,sans-Serif" font-size="10.00">_la_izqda</text>
</a>
</g>
</g>
<!-- Node5&#45;&gt;Node6 -->
<g id="edge5" class="edge">
<title>Node5&#45;&gt;Node6</title>
<path fill="none" stroke="#63b8ff" d="M410.24,-90.5C420.34,-90.5 431.05,-90.5 441.47,-90.5"/>
<polygon fill="#63b8ff" stroke="#63b8ff" points="441.75,-94 451.75,-90.5 441.75,-87 441.75,-94"/>
</g>
<!-- Node6&#45;&gt;Node7 -->
<g id="edge6" class="edge">
<title>Node6&#45;&gt;Node7</title>
<path fill="none" stroke="#63b8ff" d="M555.29,-81.81C563.67,-80.37 572.36,-78.88 580.78,-77.44"/>
<polygon fill="#63b8ff" stroke="#63b8ff" points="581.59,-80.85 590.86,-75.72 580.41,-73.95 581.59,-80.85"/>
</g>
</g>
</svg>
