<?xml version="1.0" encoding="UTF-8" standalone="no"?>
<!DOCTYPE svg PUBLIC "-//W3C//DTD SVG 1.1//EN"
 "http://www.w3.org/Graphics/SVG/1.1/DTD/svg11.dtd">
<!-- Generated by graphviz version 2.44.1 (20220725.2034)
 -->
<!-- Title: dig_t.hpp Pages: 1 -->
<svg width="500pt" height="324pt"
 viewBox="0.00 0.00 500.10 324.00" xmlns="http://www.w3.org/2000/svg" xmlns:xlink="http://www.w3.org/1999/xlink">
<g id="graph0" class="graph" transform="scale(1 1) rotate(0) translate(4 320)">
<title>dig_t.hpp</title>
<!-- Node1 -->
<g id="node1" class="node">
<title>Node1</title>
<g id="a_node1"><a xlink:title=" ">
<polygon fill="#999999" stroke="#666666" points="240.1,-316 184.1,-316 184.1,-297 240.1,-297 240.1,-316"/>
<text text-anchor="middle" x="212.1" y="-304" font-family="Helvetica,sans-Serif" font-size="10.00">dig_t.hpp</text>
</a>
</g>
</g>
<!-- Node2 -->
<g id="node2" class="node">
<title>Node2</title>
<g id="a_node2"><a xlink:href="$int__num__t_8hpp.html" xlink:title=" ">
<polygon fill="white" stroke="#666666" points="187.1,-19 109.1,-19 109.1,0 187.1,0 187.1,-19"/>
<text text-anchor="middle" x="148.1" y="-7" font-family="Helvetica,sans-Serif" font-size="10.00">int_num_t.hpp</text>
</a>
</g>
</g>
<!-- Node1&#45;&gt;Node2 -->
<g id="edge1" class="edge">
<title>Node1&#45;&gt;Node2</title>
<path fill="none" stroke="#63b8ff" d="M173.96,-301.42C124.53,-295.34 42.17,-282.29 21.1,-261 -6.29,-233.33 2.1,-214.43 2.1,-175.5 2.1,-175.5 2.1,-175.5 2.1,-118.5 2.1,-62.69 71.89,-32.43 114.97,-19.06"/>
<polygon fill="#63b8ff" stroke="#63b8ff" points="173.63,-304.9 183.97,-302.61 174.45,-297.95 173.63,-304.9"/>
</g>
<!-- Node3 -->
<g id="node3" class="node">
<title>Node3</title>
<g id="a_node3"><a xlink:href="$memory__handler_8hpp.html" xlink:title=" ">
<polygon fill="white" stroke="#666666" points="137.6,-250 30.6,-250 30.6,-231 137.6,-231 137.6,-250"/>
<text text-anchor="middle" x="84.1" y="-238" font-family="Helvetica,sans-Serif" font-size="10.00">memory_handler.hpp</text>
</a>
</g>
</g>
<!-- Node1&#45;&gt;Node3 -->
<g id="edge2" class="edge">
<title>Node1&#45;&gt;Node3</title>
<path fill="none" stroke="#63b8ff" d="M185.82,-292.36C160.6,-279.75 123.22,-261.06 101.49,-250.2"/>
<polygon fill="#63b8ff" stroke="#63b8ff" points="184.32,-295.53 194.83,-296.87 187.45,-289.27 184.32,-295.53"/>
</g>
<!-- Node4 -->
<g id="node4" class="node">
<title>Node4</title>
<g id="a_node4"><a xlink:href="$nat__reg__digs__t_01_07_copia_01en_01conflicto_01de_01_m_s_i_012022-11-24_08_8hpp.html" xlink:title=" ">
<polygon fill="white" stroke="#666666" points="268.1,-261 156.1,-261 156.1,-220 268.1,-220 268.1,-261"/>
<text text-anchor="start" x="164.1" y="-249" font-family="Helvetica,sans-Serif" font-size="10.00">nat_reg_digs_t (Copia</text>
<text text-anchor="start" x="164.1" y="-238" font-family="Helvetica,sans-Serif" font-size="10.00"> en conflicto de MSI</text>
<text text-anchor="middle" x="212.1" y="-227" font-family="Helvetica,sans-Serif" font-size="10.00"> 2022&#45;11&#45;24).hpp</text>
</a>
</g>
</g>
<!-- Node1&#45;&gt;Node4 -->
<g id="edge3" class="edge">
<title>Node1&#45;&gt;Node4</title>
<path fill="none" stroke="#63b8ff" d="M212.1,-286.63C212.1,-278.56 212.1,-269.15 212.1,-261.01"/>
<polygon fill="#63b8ff" stroke="#63b8ff" points="208.6,-286.87 212.1,-296.87 215.6,-286.87 208.6,-286.87"/>
</g>
<!-- Node5 -->
<g id="node5" class="node">
<title>Node5</title>
<g id="a_node5"><a xlink:href="$nat__reg__digs__t_8hpp.html" xlink:title=" ">
<polygon fill="white" stroke="#666666" points="385.6,-250 286.6,-250 286.6,-231 385.6,-231 385.6,-250"/>
<text text-anchor="middle" x="336.1" y="-238" font-family="Helvetica,sans-Serif" font-size="10.00">nat_reg_digs_t.hpp</text>
</a>
</g>
</g>
<!-- Node1&#45;&gt;Node5 -->
<g id="edge4" class="edge">
<title>Node1&#45;&gt;Node5</title>
<path fill="none" stroke="#63b8ff" d="M237.87,-292.19C262.3,-279.59 298.29,-261.01 319.24,-250.2"/>
<polygon fill="#63b8ff" stroke="#63b8ff" points="236.1,-289.17 228.82,-296.87 239.31,-295.39 236.1,-289.17"/>
</g>
<!-- Node10 -->
<g id="node10" class="node">
<title>Node10</title>
<g id="a_node10"><a xlink:href="$reg__digs__t_8hpp.html" xlink:title=" ">
<polygon fill="white" stroke="#666666" points="484.1,-250 404.1,-250 404.1,-231 484.1,-231 484.1,-250"/>
<text text-anchor="middle" x="444.1" y="-238" font-family="Helvetica,sans-Serif" font-size="10.00">reg_digs_t.hpp</text>
</a>
</g>
</g>
<!-- Node1&#45;&gt;Node10 -->
<g id="edge11" class="edge">
<title>Node1&#45;&gt;Node10</title>
<path fill="none" stroke="#63b8ff" d="M250.28,-297.85C287.61,-289.99 345.84,-276.71 395.1,-261 404.87,-257.89 415.47,-253.76 424.3,-250.11"/>
<polygon fill="#63b8ff" stroke="#63b8ff" points="249.41,-294.45 240.34,-299.92 250.84,-301.31 249.41,-294.45"/>
</g>
<!-- Node6 -->
<g id="node6" class="node">
<title>Node6</title>
<g id="a_node6"><a xlink:href="$int__reg__digs__t_8hpp.html" xlink:title=" ">
<polygon fill="white" stroke="#666666" points="323.1,-184 227.1,-184 227.1,-165 323.1,-165 323.1,-184"/>
<text text-anchor="middle" x="275.1" y="-172" font-family="Helvetica,sans-Serif" font-size="10.00">int_reg_digs_t.hpp</text>
</a>
</g>
</g>
<!-- Node5&#45;&gt;Node6 -->
<g id="edge5" class="edge">
<title>Node5&#45;&gt;Node6</title>
<path fill="none" stroke="#63b8ff" d="M320.83,-223.48C309.05,-211.12 293.2,-194.49 283.58,-184.41"/>
<polygon fill="#63b8ff" stroke="#63b8ff" points="318.44,-226.04 327.87,-230.87 323.5,-221.22 318.44,-226.04"/>
</g>
<!-- Node6&#45;&gt;Node2 -->
<g id="edge9" class="edge">
<title>Node6&#45;&gt;Node2</title>
<path fill="none" stroke="#63b8ff" d="M217.71,-161.79C198.94,-155.18 179.69,-144.91 167.1,-129 140.72,-95.67 144.32,-40.21 146.86,-19.06"/>
<polygon fill="#63b8ff" stroke="#63b8ff" points="216.86,-165.19 227.45,-164.93 219,-158.53 216.86,-165.19"/>
</g>
<!-- Node7 -->
<g id="node7" class="node">
<title>Node7</title>
<g id="a_node7"><a xlink:href="$base__num__t_8hpp.html" xlink:title=" ">
<polygon fill="white" stroke="#666666" points="265.6,-129 176.6,-129 176.6,-110 265.6,-110 265.6,-129"/>
<text text-anchor="middle" x="221.1" y="-117" font-family="Helvetica,sans-Serif" font-size="10.00">base_num_t.hpp</text>
</a>
</g>
</g>
<!-- Node6&#45;&gt;Node7 -->
<g id="edge6" class="edge">
<title>Node6&#45;&gt;Node7</title>
<path fill="none" stroke="#63b8ff" d="M258.81,-157.52C249.3,-148.18 237.66,-136.75 229.85,-129.09"/>
<polygon fill="#63b8ff" stroke="#63b8ff" points="256.59,-160.24 266.18,-164.75 261.49,-155.25 256.59,-160.24"/>
</g>
<!-- Node9 -->
<g id="node9" class="node">
<title>Node9</title>
<g id="a_node9"><a xlink:href="$nat__rat__fixed__reg__t_8hpp.html" xlink:title=" ">
<polygon fill="white" stroke="#666666" points="402.6,-129 283.6,-129 283.6,-110 402.6,-110 402.6,-129"/>
<text text-anchor="middle" x="343.1" y="-117" font-family="Helvetica,sans-Serif" font-size="10.00">nat_rat_fixed_reg_t.hpp</text>
</a>
</g>
</g>
<!-- Node6&#45;&gt;Node9 -->
<g id="edge10" class="edge">
<title>Node6&#45;&gt;Node9</title>
<path fill="none" stroke="#63b8ff" d="M294.21,-158.6C306.39,-149.11 321.75,-137.13 331.97,-129.17"/>
<polygon fill="#63b8ff" stroke="#63b8ff" points="291.76,-156.08 286.02,-164.98 296.06,-161.6 291.76,-156.08"/>
</g>
<!-- Node8 -->
<g id="node8" class="node">
<title>Node8</title>
<g id="a_node8"><a xlink:href="$nat__num__t_8hpp.html" xlink:title=" ">
<polygon fill="white" stroke="#666666" points="259.6,-74 178.6,-74 178.6,-55 259.6,-55 259.6,-74"/>
<text text-anchor="middle" x="219.1" y="-62" font-family="Helvetica,sans-Serif" font-size="10.00">nat_num_t.hpp</text>
</a>
</g>
</g>
<!-- Node7&#45;&gt;Node8 -->
<g id="edge7" class="edge">
<title>Node7&#45;&gt;Node8</title>
<path fill="none" stroke="#63b8ff" d="M220.39,-99.66C220.06,-90.93 219.68,-80.99 219.42,-74.09"/>
<polygon fill="#63b8ff" stroke="#63b8ff" points="216.89,-99.89 220.77,-109.75 223.89,-99.62 216.89,-99.89"/>
</g>
<!-- Node8&#45;&gt;Node2 -->
<g id="edge8" class="edge">
<title>Node8&#45;&gt;Node2</title>
<path fill="none" stroke="#63b8ff" d="M199.51,-48.88C186.73,-39.34 170.48,-27.21 159.71,-19.17"/>
<polygon fill="#63b8ff" stroke="#63b8ff" points="197.58,-51.81 207.69,-54.98 201.77,-46.2 197.58,-51.81"/>
</g>
<!-- Node11 -->
<g id="node11" class="node">
<title>Node11</title>
<g id="a_node11"><a xlink:href="$pruebas__dig__t_8cpp.html" xlink:title=" ">
<polygon fill="white" stroke="#666666" points="492.1,-184 396.1,-184 396.1,-165 492.1,-165 492.1,-184"/>
<text text-anchor="middle" x="444.1" y="-172" font-family="Helvetica,sans-Serif" font-size="10.00">pruebas_dig_t.cpp</text>
</a>
</g>
</g>
<!-- Node10&#45;&gt;Node11 -->
<g id="edge12" class="edge">
<title>Node10&#45;&gt;Node11</title>
<path fill="none" stroke="#63b8ff" d="M444.1,-220.58C444.1,-208.63 444.1,-193.72 444.1,-184.41"/>
<polygon fill="#63b8ff" stroke="#63b8ff" points="440.6,-220.87 444.1,-230.87 447.6,-220.87 440.6,-220.87"/>
</g>
</g>
</svg>
