<?xml version="1.0" encoding="UTF-8" standalone="no"?>
<!DOCTYPE svg PUBLIC "-//W3C//DTD SVG 1.1//EN"
 "http://www.w3.org/Graphics/SVG/1.1/DTD/svg11.dtd">
<!-- Generated by graphviz version 2.44.1 (20220725.2034)
 -->
<!-- Title: NumRepr::display_prop_C_B_minus_1_eq_C_Bm1 Pages: 1 -->
<svg width="306pt" height="64pt"
 viewBox="0.00 0.00 306.00 64.00" xmlns="http://www.w3.org/2000/svg" xmlns:xlink="http://www.w3.org/1999/xlink">
<g id="graph0" class="graph" transform="scale(1 1) rotate(0) translate(4 60)">
<title>NumRepr::display_prop_C_B_minus_1_eq_C_Bm1</title>
<!-- Node1 -->
<g id="node1" class="node">
<title>Node1</title>
<g id="a_node1"><a xlink:title=" ">
<polygon fill="#999999" stroke="#666666" points="137,-42.5 0,-42.5 0,-12.5 137,-12.5 137,-42.5"/>
<text text-anchor="start" x="8" y="-30.5" font-family="Helvetica,sans-Serif" font-size="10.00">NumRepr::display_prop</text>
<text text-anchor="middle" x="68.5" y="-19.5" font-family="Helvetica,sans-Serif" font-size="10.00">_C_B_minus_1_eq_C_Bm1</text>
</a>
</g>
</g>
<!-- Node2 -->
<g id="node2" class="node">
<title>Node2</title>
<g id="a_node2"><a xlink:href="$struct_num_repr_1_1dig__t.html#a946d999d39a25dda024a06800ac57f70" xlink:title="&quot;C_B&quot; es identico a &quot;operator&#45;()&quot;">
<polygon fill="white" stroke="#666666" points="291,-56 180,-56 180,-37 291,-37 291,-56"/>
<text text-anchor="middle" x="235.5" y="-44" font-family="Helvetica,sans-Serif" font-size="10.00">NumRepr::dig_t::C_B</text>
</a>
</g>
</g>
<!-- Node1&#45;&gt;Node2 -->
<g id="edge1" class="edge">
<title>Node1&#45;&gt;Node2</title>
<path fill="none" stroke="#63b8ff" d="M137.09,-35.28C147.88,-36.53 159.02,-37.81 169.75,-39.04"/>
<polygon fill="#63b8ff" stroke="#63b8ff" points="169.54,-42.54 179.87,-40.21 170.34,-35.59 169.54,-42.54"/>
</g>
<!-- Node3 -->
<g id="node3" class="node">
<title>Node3</title>
<g id="a_node3"><a xlink:href="$struct_num_repr_1_1dig__t.html#a3d6a5c0e1d8a4719d58a476cfb68c960" xlink:title="&quot;C_Bm1&quot; es identico a &quot;operator!()&quot;">
<polygon fill="white" stroke="#666666" points="298,-19 173,-19 173,0 298,0 298,-19"/>
<text text-anchor="middle" x="235.5" y="-7" font-family="Helvetica,sans-Serif" font-size="10.00">NumRepr::dig_t::C_Bm1</text>
</a>
</g>
</g>
<!-- Node1&#45;&gt;Node3 -->
<g id="edge2" class="edge">
<title>Node1&#45;&gt;Node3</title>
<path fill="none" stroke="#63b8ff" d="M137.09,-20.13C145.6,-19.2 154.32,-18.25 162.89,-17.31"/>
<polygon fill="#63b8ff" stroke="#63b8ff" points="163.29,-20.79 172.85,-16.23 162.53,-13.83 163.29,-20.79"/>
</g>
</g>
</svg>
