<?xml version="1.0" encoding="UTF-8" standalone="no"?>
<!DOCTYPE svg PUBLIC "-//W3C//DTD SVG 1.1//EN"
 "http://www.w3.org/Graphics/SVG/1.1/DTD/svg11.dtd">
<!-- Generated by graphviz version 2.44.1 (20220725.2034)
 -->
<!-- Title: NumRepr::auxiliary_functions::is_prime Pages: 1 -->
<svg width="273pt" height="112pt"
 viewBox="0.00 0.00 273.00 111.50" xmlns="http://www.w3.org/2000/svg" xmlns:xlink="http://www.w3.org/1999/xlink">
<g id="graph0" class="graph" transform="scale(1 1) rotate(0) translate(4 107.5)">
<title>NumRepr::auxiliary_functions::is_prime</title>
<!-- Node1 -->
<g id="node1" class="node">
<title>Node1</title>
<g id="a_node1"><a xlink:title=" ">
<polygon fill="#999999" stroke="#666666" points="104,-60 0,-60 0,-30 104,-30 104,-60"/>
<text text-anchor="start" x="8" y="-48" font-family="Helvetica,sans-Serif" font-size="10.00">NumRepr::auxiliary</text>
<text text-anchor="middle" x="52" y="-37" font-family="Helvetica,sans-Serif" font-size="10.00">_functions::is_prime</text>
</a>
</g>
</g>
<!-- Node2 -->
<g id="node2" class="node">
<title>Node2</title>
<g id="a_node2"><a xlink:href="$namespace_num_repr_1_1detail.html#aa138a7304b06ab664d7208956b3c0dbe" xlink:title=" ">
<polygon fill="white" stroke="#666666" points="265,-85.5 140,-85.5 140,-66.5 265,-66.5 265,-85.5"/>
<text text-anchor="middle" x="202.5" y="-73.5" font-family="Helvetica,sans-Serif" font-size="10.00">NumRepr::detail::ceilsqrt</text>
</a>
</g>
</g>
<!-- Node1&#45;&gt;Node2 -->
<g id="edge1" class="edge">
<title>Node1&#45;&gt;Node2</title>
<path fill="none" stroke="#63b8ff" d="M104.11,-55.67C117.61,-58.49 132.24,-61.54 145.97,-64.41"/>
<polygon fill="#63b8ff" stroke="#63b8ff" points="145.27,-67.84 155.77,-66.45 146.7,-60.98 145.27,-67.84"/>
</g>
<!-- Node3 -->
<g id="node3" class="node">
<title>Node3</title>
<g id="a_node3"><a xlink:href="$namespace_num_repr_1_1detail.html#a098c7fa0c984b9aa1e6c5e6033affc88" xlink:title=" ">
<polygon fill="white" stroke="#666666" points="257.5,-30 147.5,-30 147.5,0 257.5,0 257.5,-30"/>
<text text-anchor="start" x="155.5" y="-18" font-family="Helvetica,sans-Serif" font-size="10.00">NumRepr::detail::find</text>
<text text-anchor="middle" x="202.5" y="-7" font-family="Helvetica,sans-Serif" font-size="10.00">_factor</text>
</a>
</g>
</g>
<!-- Node1&#45;&gt;Node3 -->
<g id="edge3" class="edge">
<title>Node1&#45;&gt;Node3</title>
<path fill="none" stroke="#63b8ff" d="M104.11,-34.68C114.77,-32.52 126.14,-30.22 137.21,-27.99"/>
<polygon fill="#63b8ff" stroke="#63b8ff" points="138.15,-31.37 147.26,-25.96 136.77,-24.51 138.15,-31.37"/>
</g>
<!-- Node2&#45;&gt;Node2 -->
<g id="edge2" class="edge">
<title>Node2&#45;&gt;Node2</title>
<path fill="none" stroke="#63b8ff" d="M179.38,-85.58C168.13,-94.23 175.84,-103.5 202.5,-103.5 220,-103.5 229.33,-99.51 230.5,-94.32"/>
<polygon fill="#63b8ff" stroke="#63b8ff" points="233.55,-92.61 225.62,-85.58 227.44,-96.02 233.55,-92.61"/>
</g>
<!-- Node3&#45;&gt;Node3 -->
<g id="edge4" class="edge">
<title>Node3&#45;&gt;Node3</title>
<path fill="none" stroke="#63b8ff" d="M176.13,-30.28C170.27,-39.41 179.06,-48 202.5,-48 216.42,-48 225.17,-44.97 228.76,-40.6"/>
<polygon fill="#63b8ff" stroke="#63b8ff" points="232.26,-40.31 228.87,-30.28 225.26,-40.24 232.26,-40.31"/>
</g>
</g>
</svg>
