<?xml version="1.0" encoding="UTF-8" standalone="no"?>
<!DOCTYPE svg PUBLIC "-//W3C//DTD SVG 1.1//EN"
 "http://www.w3.org/Graphics/SVG/1.1/DTD/svg11.dtd">
<!-- Generated by graphviz version 2.44.1 (20220725.2034)
 -->
<!-- Title: nat_reg_digs_t.hpp Pages: 1 -->
<svg width="273pt" height="247pt"
 viewBox="0.00 0.00 273.00 247.00" xmlns="http://www.w3.org/2000/svg" xmlns:xlink="http://www.w3.org/1999/xlink">
<g id="graph0" class="graph" transform="scale(1 1) rotate(0) translate(4 243)">
<title>nat_reg_digs_t.hpp</title>
<!-- Node1 -->
<g id="node1" class="node">
<title>Node1</title>
<g id="a_node1"><a xlink:title=" ">
<polygon fill="#999999" stroke="#666666" points="167,-239 68,-239 68,-220 167,-220 167,-239"/>
<text text-anchor="middle" x="117.5" y="-227" font-family="Helvetica,sans-Serif" font-size="10.00">nat_reg_digs_t.hpp</text>
</a>
</g>
</g>
<!-- Node2 -->
<g id="node2" class="node">
<title>Node2</title>
<g id="a_node2"><a xlink:href="$int__reg__digs__t_8hpp.html" xlink:title=" ">
<polygon fill="white" stroke="#666666" points="165.5,-184 69.5,-184 69.5,-165 165.5,-165 165.5,-184"/>
<text text-anchor="middle" x="117.5" y="-172" font-family="Helvetica,sans-Serif" font-size="10.00">int_reg_digs_t.hpp</text>
</a>
</g>
</g>
<!-- Node1&#45;&gt;Node2 -->
<g id="edge1" class="edge">
<title>Node1&#45;&gt;Node2</title>
<path fill="none" stroke="#63b8ff" d="M117.5,-209.66C117.5,-200.93 117.5,-190.99 117.5,-184.09"/>
<polygon fill="#63b8ff" stroke="#63b8ff" points="114,-209.75 117.5,-219.75 121,-209.75 114,-209.75"/>
</g>
<!-- Node3 -->
<g id="node3" class="node">
<title>Node3</title>
<g id="a_node3"><a xlink:href="$base__num__t_8hpp.html" xlink:title=" ">
<polygon fill="white" stroke="#666666" points="89,-129 0,-129 0,-110 89,-110 89,-129"/>
<text text-anchor="middle" x="44.5" y="-117" font-family="Helvetica,sans-Serif" font-size="10.00">base_num_t.hpp</text>
</a>
</g>
</g>
<!-- Node2&#45;&gt;Node3 -->
<g id="edge2" class="edge">
<title>Node2&#45;&gt;Node3</title>
<path fill="none" stroke="#63b8ff" d="M97.36,-158.88C84.22,-149.34 67.52,-137.21 56.44,-129.17"/>
<polygon fill="#63b8ff" stroke="#63b8ff" points="95.62,-161.94 105.77,-164.98 99.74,-156.28 95.62,-161.94"/>
</g>
<!-- Node5 -->
<g id="node5" class="node">
<title>Node5</title>
<g id="a_node5"><a xlink:href="$int__num__t_8hpp.html" xlink:title=" ">
<polygon fill="white" stroke="#666666" points="119.5,-19 41.5,-19 41.5,0 119.5,0 119.5,-19"/>
<text text-anchor="middle" x="80.5" y="-7" font-family="Helvetica,sans-Serif" font-size="10.00">int_num_t.hpp</text>
</a>
</g>
</g>
<!-- Node2&#45;&gt;Node5 -->
<g id="edge5" class="edge">
<title>Node2&#45;&gt;Node5</title>
<path fill="none" stroke="#63b8ff" d="M115.18,-154.76C112.04,-131.22 105.74,-89.7 96.5,-55 93.12,-42.31 87.71,-28.1 84.14,-19.23"/>
<polygon fill="#63b8ff" stroke="#63b8ff" points="111.72,-155.29 116.47,-164.77 118.66,-154.4 111.72,-155.29"/>
</g>
<!-- Node6 -->
<g id="node6" class="node">
<title>Node6</title>
<g id="a_node6"><a xlink:href="$nat__rat__fixed__reg__t_8hpp.html" xlink:title=" ">
<polygon fill="white" stroke="#666666" points="265,-129 146,-129 146,-110 265,-110 265,-129"/>
<text text-anchor="middle" x="205.5" y="-117" font-family="Helvetica,sans-Serif" font-size="10.00">nat_rat_fixed_reg_t.hpp</text>
</a>
</g>
</g>
<!-- Node2&#45;&gt;Node6 -->
<g id="edge6" class="edge">
<title>Node2&#45;&gt;Node6</title>
<path fill="none" stroke="#63b8ff" d="M140.42,-159.7C156.45,-150.04 177.37,-137.44 191.1,-129.17"/>
<polygon fill="#63b8ff" stroke="#63b8ff" points="138.4,-156.83 131.64,-164.98 142.01,-162.82 138.4,-156.83"/>
</g>
<!-- Node4 -->
<g id="node4" class="node">
<title>Node4</title>
<g id="a_node4"><a xlink:href="$nat__num__t_8hpp.html" xlink:title=" ">
<polygon fill="white" stroke="#666666" points="87,-74 6,-74 6,-55 87,-55 87,-74"/>
<text text-anchor="middle" x="46.5" y="-62" font-family="Helvetica,sans-Serif" font-size="10.00">nat_num_t.hpp</text>
</a>
</g>
</g>
<!-- Node3&#45;&gt;Node4 -->
<g id="edge3" class="edge">
<title>Node3&#45;&gt;Node4</title>
<path fill="none" stroke="#63b8ff" d="M45.21,-99.66C45.54,-90.93 45.92,-80.99 46.18,-74.09"/>
<polygon fill="#63b8ff" stroke="#63b8ff" points="41.71,-99.62 44.83,-109.75 48.7,-99.89 41.71,-99.62"/>
</g>
<!-- Node4&#45;&gt;Node5 -->
<g id="edge4" class="edge">
<title>Node4&#45;&gt;Node5</title>
<path fill="none" stroke="#63b8ff" d="M57.66,-46.1C63.47,-37.04 70.32,-26.37 74.99,-19.09"/>
<polygon fill="#63b8ff" stroke="#63b8ff" points="54.57,-44.44 52.11,-54.75 60.46,-48.22 54.57,-44.44"/>
</g>
</g>
</svg>
