<?xml version="1.0" encoding="UTF-8" standalone="no"?>
<!DOCTYPE svg PUBLIC "-//W3C//DTD SVG 1.1//EN"
 "http://www.w3.org/Graphics/SVG/1.1/DTD/svg11.dtd">
<!-- Generated by graphviz version 2.44.1 (20220725.2034)
 -->
<!-- Title: is_0 Pages: 1 -->
<svg width="200pt" height="508pt"
 viewBox="0.00 0.00 200.00 508.00" xmlns="http://www.w3.org/2000/svg" xmlns:xlink="http://www.w3.org/1999/xlink">
<g id="graph0" class="graph" transform="scale(1 1) rotate(0) translate(4 504)">
<title>is_0</title>
<!-- Node1 -->
<g id="node1" class="node">
<title>Node1</title>
<g id="a_node1"><a xlink:title=" ">
<polygon fill="#999999" stroke="#666666" points="192,-264.5 157,-264.5 157,-245.5 192,-245.5 192,-264.5"/>
<text text-anchor="middle" x="174.5" y="-252.5" font-family="Helvetica,sans-Serif" font-size="10.00">is_0</text>
</a>
</g>
</g>
<!-- Node2 -->
<g id="node2" class="node">
<title>Node2</title>
<g id="a_node2"><a xlink:href="$struct_num_repr_1_1dig__t.html#a48f6d7f54f227eaf337438fccd8b9ff4" xlink:title=" ">
<polygon fill="white" stroke="#666666" points="110,-500 11,-500 11,-470 110,-470 110,-500"/>
<text text-anchor="start" x="19" y="-488" font-family="Helvetica,sans-Serif" font-size="10.00">NumRepr::dig_t::is</text>
<text text-anchor="middle" x="60.5" y="-477" font-family="Helvetica,sans-Serif" font-size="10.00">_0_divisor</text>
</a>
</g>
</g>
<!-- Node1&#45;&gt;Node2 -->
<g id="edge1" class="edge">
<title>Node1&#45;&gt;Node2</title>
<path fill="none" stroke="#63b8ff" d="M174.05,-274.61C174.1,-314.62 168.64,-406.51 121,-461 117.92,-464.52 114.25,-467.53 110.27,-470.11"/>
<polygon fill="#63b8ff" stroke="#63b8ff" points="177.55,-274.51 173.91,-264.56 170.55,-274.61 177.55,-274.51"/>
</g>
<!-- Node3 -->
<g id="node3" class="node">
<title>Node3</title>
<g id="a_node3"><a xlink:href="$struct_num_repr_1_1dig__t.html#ad54d97fbbe203e3aecaf937df2600ba2" xlink:title=" ">
<polygon fill="white" stroke="#666666" points="110,-452 11,-452 11,-422 110,-422 110,-452"/>
<text text-anchor="start" x="19" y="-440" font-family="Helvetica,sans-Serif" font-size="10.00">NumRepr::dig_t::is</text>
<text text-anchor="middle" x="60.5" y="-429" font-family="Helvetica,sans-Serif" font-size="10.00">_maxormin</text>
</a>
</g>
</g>
<!-- Node1&#45;&gt;Node3 -->
<g id="edge2" class="edge">
<title>Node1&#45;&gt;Node3</title>
<path fill="none" stroke="#63b8ff" d="M172.18,-274.68C168.96,-307.49 158,-373.61 121,-413 117.8,-416.41 114.04,-419.35 110.01,-421.87"/>
<polygon fill="#63b8ff" stroke="#63b8ff" points="175.68,-274.83 173.02,-264.57 168.7,-274.24 175.68,-274.83"/>
</g>
<!-- Node4 -->
<g id="node4" class="node">
<title>Node4</title>
<g id="a_node4"><a xlink:href="$struct_num_repr_1_1dig__t.html#af91d529a5c32bcc62d02b4700713b512" xlink:title=" ">
<polygon fill="white" stroke="#666666" points="110,-404 11,-404 11,-374 110,-374 110,-404"/>
<text text-anchor="start" x="19" y="-392" font-family="Helvetica,sans-Serif" font-size="10.00">NumRepr::dig_t::is</text>
<text text-anchor="middle" x="60.5" y="-381" font-family="Helvetica,sans-Serif" font-size="10.00">_near_maxormin</text>
</a>
</g>
</g>
<!-- Node1&#45;&gt;Node4 -->
<g id="edge3" class="edge">
<title>Node1&#45;&gt;Node4</title>
<path fill="none" stroke="#63b8ff" d="M168.88,-274.47C162.2,-298.71 147.61,-339.99 121,-365 117.35,-368.43 113.14,-371.4 108.69,-373.96"/>
<polygon fill="#63b8ff" stroke="#63b8ff" points="172.31,-275.2 171.41,-264.64 165.53,-273.45 172.31,-275.2"/>
</g>
<!-- Node5 -->
<g id="node5" class="node">
<title>Node5</title>
<g id="a_node5"><a xlink:href="$struct_num_repr_1_1dig__t.html#aecc930e8cb3dbc3ede5beeff11ef77ee" xlink:title=" ">
<polygon fill="white" stroke="#666666" points="120.5,-355.5 0.5,-355.5 0.5,-336.5 120.5,-336.5 120.5,-355.5"/>
<text text-anchor="middle" x="60.5" y="-343.5" font-family="Helvetica,sans-Serif" font-size="10.00">NumRepr::dig_t::is_unit</text>
</a>
</g>
</g>
<!-- Node1&#45;&gt;Node5 -->
<g id="edge4" class="edge">
<title>Node1&#45;&gt;Node5</title>
<path fill="none" stroke="#63b8ff" d="M164.05,-274.06C155.08,-290.33 140.12,-313.21 121,-327 115.64,-330.87 109.45,-333.97 103.14,-336.46"/>
<polygon fill="#63b8ff" stroke="#63b8ff" points="167.3,-275.41 168.86,-264.93 161.1,-272.15 167.3,-275.41"/>
</g>
<!-- Node6 -->
<g id="node6" class="node">
<title>Node6</title>
<g id="a_node6"><a xlink:href="$struct_num_repr_1_1nat__rat__fixed__reg__t.html#a858568dd397e27a65b678be845d2f11d" xlink:title=" ">
<polygon fill="white" stroke="#666666" points="121,-318 0,-318 0,-288 121,-288 121,-318"/>
<text text-anchor="start" x="8" y="-306" font-family="Helvetica,sans-Serif" font-size="10.00">NumRepr::nat_rat_fixed</text>
<text text-anchor="middle" x="60.5" y="-295" font-family="Helvetica,sans-Serif" font-size="10.00">_reg_t::operator!=</text>
</a>
</g>
</g>
<!-- Node1&#45;&gt;Node6 -->
<g id="edge5" class="edge">
<title>Node1&#45;&gt;Node6</title>
<path fill="none" stroke="#63b8ff" d="M147.28,-267.27C138.92,-271.1 129.6,-275.3 121,-279 114.14,-281.95 106.8,-285 99.7,-287.89"/>
<polygon fill="#63b8ff" stroke="#63b8ff" points="148.95,-270.35 156.56,-262.98 146.02,-264 148.95,-270.35"/>
</g>
<!-- Node7 -->
<g id="node7" class="node">
<title>Node7</title>
<g id="a_node7"><a xlink:href="$struct_num_repr_1_1nat__rat__fixed__reg__t.html#a863b4585d8f4ae407912c98c9273b6d3" xlink:title=" ">
<polygon fill="white" stroke="#666666" points="121,-270 0,-270 0,-240 121,-240 121,-270"/>
<text text-anchor="start" x="8" y="-258" font-family="Helvetica,sans-Serif" font-size="10.00">NumRepr::nat_rat_fixed</text>
<text text-anchor="middle" x="60.5" y="-247" font-family="Helvetica,sans-Serif" font-size="10.00">_reg_t::operator&#45;=</text>
</a>
</g>
</g>
<!-- Node1&#45;&gt;Node7 -->
<g id="edge6" class="edge">
<title>Node1&#45;&gt;Node7</title>
<path fill="none" stroke="#63b8ff" d="M146.72,-255C138.9,-255 130.02,-255 121.03,-255"/>
<polygon fill="#63b8ff" stroke="#63b8ff" points="146.97,-258.5 156.97,-255 146.97,-251.5 146.97,-258.5"/>
</g>
<!-- Node8 -->
<g id="node8" class="node">
<title>Node8</title>
<g id="a_node8"><a xlink:href="$struct_num_repr_1_1nat__rat__fixed__reg__t.html#a0f8ef4c04d7b0956fb973192e04259c9" xlink:title=" ">
<polygon fill="white" stroke="#666666" points="121,-222 0,-222 0,-192 121,-192 121,-222"/>
<text text-anchor="start" x="8" y="-210" font-family="Helvetica,sans-Serif" font-size="10.00">NumRepr::nat_rat_fixed</text>
<text text-anchor="middle" x="60.5" y="-199" font-family="Helvetica,sans-Serif" font-size="10.00">_reg_t::operator&lt;</text>
</a>
</g>
</g>
<!-- Node1&#45;&gt;Node8 -->
<g id="edge7" class="edge">
<title>Node1&#45;&gt;Node8</title>
<path fill="none" stroke="#63b8ff" d="M147.28,-242.73C138.92,-238.9 129.6,-234.7 121,-231 114.14,-228.05 106.8,-225 99.7,-222.11"/>
<polygon fill="#63b8ff" stroke="#63b8ff" points="146.02,-246 156.56,-247.02 148.95,-239.65 146.02,-246"/>
</g>
<!-- Node9 -->
<g id="node9" class="node">
<title>Node9</title>
<g id="a_node9"><a xlink:href="$struct_num_repr_1_1nat__rat__fixed__reg__t.html#a674d8af40df8b5fc48eecd0e58c6b844" xlink:title=" ">
<polygon fill="white" stroke="#666666" points="121,-174 0,-174 0,-144 121,-144 121,-174"/>
<text text-anchor="start" x="8" y="-162" font-family="Helvetica,sans-Serif" font-size="10.00">NumRepr::nat_rat_fixed</text>
<text text-anchor="middle" x="60.5" y="-151" font-family="Helvetica,sans-Serif" font-size="10.00">_reg_t::operator&lt;=</text>
</a>
</g>
</g>
<!-- Node1&#45;&gt;Node9 -->
<g id="edge8" class="edge">
<title>Node1&#45;&gt;Node9</title>
<path fill="none" stroke="#63b8ff" d="M163.8,-236.28C154.65,-220.24 139.59,-197.49 121,-183 116.7,-179.64 111.86,-176.69 106.85,-174.12"/>
<polygon fill="#63b8ff" stroke="#63b8ff" points="160.84,-238.17 168.71,-245.27 166.98,-234.82 160.84,-238.17"/>
</g>
<!-- Node10 -->
<g id="node10" class="node">
<title>Node10</title>
<g id="a_node10"><a xlink:href="$struct_num_repr_1_1nat__rat__fixed__reg__t.html#a1dfad6f1cf535bde170572bc3c023c6d" xlink:title=" ">
<polygon fill="white" stroke="#666666" points="121,-126 0,-126 0,-96 121,-96 121,-126"/>
<text text-anchor="start" x="8" y="-114" font-family="Helvetica,sans-Serif" font-size="10.00">NumRepr::nat_rat_fixed</text>
<text text-anchor="middle" x="60.5" y="-103" font-family="Helvetica,sans-Serif" font-size="10.00">_reg_t::operator==</text>
</a>
</g>
</g>
<!-- Node1&#45;&gt;Node10 -->
<g id="edge9" class="edge">
<title>Node1&#45;&gt;Node10</title>
<path fill="none" stroke="#63b8ff" d="M169.72,-235.28C163.74,-209.08 149.69,-162.87 121,-135 117.48,-131.59 113.42,-128.64 109.1,-126.09"/>
<polygon fill="#63b8ff" stroke="#63b8ff" points="166.32,-236.11 171.81,-245.17 173.17,-234.67 166.32,-236.11"/>
</g>
<!-- Node11 -->
<g id="node11" class="node">
<title>Node11</title>
<g id="a_node11"><a xlink:href="$struct_num_repr_1_1nat__rat__fixed__reg__t.html#a9a04f43c91d88792c1c6d7369406660a" xlink:title=" ">
<polygon fill="white" stroke="#666666" points="121,-78 0,-78 0,-48 121,-48 121,-78"/>
<text text-anchor="start" x="8" y="-66" font-family="Helvetica,sans-Serif" font-size="10.00">NumRepr::nat_rat_fixed</text>
<text text-anchor="middle" x="60.5" y="-55" font-family="Helvetica,sans-Serif" font-size="10.00">_reg_t::operator&gt;</text>
</a>
</g>
</g>
<!-- Node1&#45;&gt;Node11 -->
<g id="edge10" class="edge">
<title>Node1&#45;&gt;Node11</title>
<path fill="none" stroke="#63b8ff" d="M172.63,-235.04C170.08,-200.54 160.09,-129.38 121,-87 117.83,-83.56 114.1,-80.61 110.07,-78.07"/>
<polygon fill="#63b8ff" stroke="#63b8ff" points="169.15,-235.47 173.24,-245.24 176.13,-235.05 169.15,-235.47"/>
</g>
<!-- Node12 -->
<g id="node12" class="node">
<title>Node12</title>
<g id="a_node12"><a xlink:href="$struct_num_repr_1_1nat__rat__fixed__reg__t.html#a81d967416f67b9a4c30fbca73b4d2a6c" xlink:title=" ">
<polygon fill="white" stroke="#666666" points="121,-30 0,-30 0,0 121,0 121,-30"/>
<text text-anchor="start" x="8" y="-18" font-family="Helvetica,sans-Serif" font-size="10.00">NumRepr::nat_rat_fixed</text>
<text text-anchor="middle" x="60.5" y="-7" font-family="Helvetica,sans-Serif" font-size="10.00">_reg_t::operator&gt;=</text>
</a>
</g>
</g>
<!-- Node1&#45;&gt;Node12 -->
<g id="edge11" class="edge">
<title>Node1&#45;&gt;Node12</title>
<path fill="none" stroke="#63b8ff" d="M174.34,-235.31C175.03,-193.85 170.83,-96.64 121,-39 118.01,-35.55 114.46,-32.58 110.59,-30.04"/>
<polygon fill="#63b8ff" stroke="#63b8ff" points="170.84,-235.35 174.05,-245.45 177.83,-235.55 170.84,-235.35"/>
</g>
</g>
</svg>
