<?xml version="1.0" encoding="UTF-8" standalone="no"?>
<!DOCTYPE svg PUBLIC "-//W3C//DTD SVG 1.1//EN"
 "http://www.w3.org/Graphics/SVG/1.1/DTD/svg11.dtd">
<!-- Generated by graphviz version 2.44.1 (20220725.2034)
 -->
<!-- Title: NumRepr::reg_digs_t::mC_B Pages: 1 -->
<svg width="264pt" height="104pt"
 viewBox="0.00 0.00 264.00 104.00" xmlns="http://www.w3.org/2000/svg" xmlns:xlink="http://www.w3.org/1999/xlink">
<g id="graph0" class="graph" transform="scale(1 1) rotate(0) translate(4 100)">
<title>NumRepr::reg_digs_t::mC_B</title>
<!-- Node1 -->
<g id="node1" class="node">
<title>Node1</title>
<g id="a_node1"><a xlink:title=" ">
<polygon fill="#999999" stroke="#666666" points="110,-54 0,-54 0,-24 110,-24 110,-54"/>
<text text-anchor="start" x="8" y="-42" font-family="Helvetica,sans-Serif" font-size="10.00">NumRepr::reg_digs_t</text>
<text text-anchor="middle" x="55" y="-31" font-family="Helvetica,sans-Serif" font-size="10.00">::mC_B</text>
</a>
</g>
</g>
<!-- Node2 -->
<g id="node2" class="node">
<title>Node2</title>
<g id="a_node2"><a xlink:href="$struct_num_repr_1_1reg__digs__t.html#aba51984e457f7e0cd28fa38c3454b38a" xlink:title=" ">
<polygon fill="white" stroke="#666666" points="256,-78 146,-78 146,-48 256,-48 256,-78"/>
<text text-anchor="start" x="154" y="-66" font-family="Helvetica,sans-Serif" font-size="10.00">NumRepr::reg_digs_t</text>
<text text-anchor="middle" x="201" y="-55" font-family="Helvetica,sans-Serif" font-size="10.00">::mC_Bm1</text>
</a>
</g>
</g>
<!-- Node1&#45;&gt;Node2 -->
<g id="edge1" class="edge">
<title>Node1&#45;&gt;Node2</title>
<path fill="none" stroke="#63b8ff" d="M110.03,-48C118.4,-49.4 127.13,-50.85 135.7,-52.28"/>
<polygon fill="#63b8ff" stroke="#63b8ff" points="135.23,-55.75 145.67,-53.94 136.38,-48.85 135.23,-55.75"/>
</g>
<!-- Node3 -->
<g id="node3" class="node">
<title>Node3</title>
<g id="a_node3"><a xlink:href="$struct_num_repr_1_1reg__digs__t.html#abc257d67bb67ef69b1a2491e58a705e1" xlink:title="Funciones que ponen a constantes (constexpr) los objetos base_t">
<polygon fill="white" stroke="#666666" points="256,-30 146,-30 146,0 256,0 256,-30"/>
<text text-anchor="start" x="154" y="-18" font-family="Helvetica,sans-Serif" font-size="10.00">NumRepr::reg_digs_t</text>
<text text-anchor="middle" x="201" y="-7" font-family="Helvetica,sans-Serif" font-size="10.00">::set_0</text>
</a>
</g>
</g>
<!-- Node1&#45;&gt;Node3 -->
<g id="edge3" class="edge">
<title>Node1&#45;&gt;Node3</title>
<path fill="none" stroke="#63b8ff" d="M110.03,-30C118.4,-28.6 127.13,-27.15 135.7,-25.72"/>
<polygon fill="#63b8ff" stroke="#63b8ff" points="136.38,-29.15 145.67,-24.06 135.23,-22.25 136.38,-29.15"/>
</g>
<!-- Node2&#45;&gt;Node2 -->
<g id="edge2" class="edge">
<title>Node2&#45;&gt;Node2</title>
<path fill="none" stroke="#63b8ff" d="M175.34,-78.28C169.63,-87.41 178.19,-96 201,-96 214.54,-96 223.06,-92.97 226.56,-88.6"/>
<polygon fill="#63b8ff" stroke="#63b8ff" points="230.06,-88.31 226.66,-78.28 223.06,-88.24 230.06,-88.31"/>
</g>
</g>
</svg>
