<?xml version="1.0" encoding="UTF-8" standalone="no"?>
<!DOCTYPE svg PUBLIC "-//W3C//DTD SVG 1.1//EN"
 "http://www.w3.org/Graphics/SVG/1.1/DTD/svg11.dtd">
<!-- Generated by graphviz version 2.44.1 (20220725.2034)
 -->
<!-- Title: int_num_t::unos_a_la_izqda Pages: 1 -->
<svg width="254pt" height="51pt"
 viewBox="0.00 0.00 254.00 50.50" xmlns="http://www.w3.org/2000/svg" xmlns:xlink="http://www.w3.org/1999/xlink">
<g id="graph0" class="graph" transform="scale(1 1) rotate(0) translate(4 46.5)">
<title>int_num_t::unos_a_la_izqda</title>
<!-- Node1 -->
<g id="node1" class="node">
<title>Node1</title>
<g id="a_node1"><a xlink:title=" ">
<polygon fill="#999999" stroke="#666666" points="110,-30 0,-30 0,0 110,0 110,-30"/>
<text text-anchor="start" x="8" y="-18" font-family="Helvetica,sans-Serif" font-size="10.00">int_num_t::unos_a_la</text>
<text text-anchor="middle" x="55" y="-7" font-family="Helvetica,sans-Serif" font-size="10.00">_izqda</text>
</a>
</g>
</g>
<!-- Node2 -->
<g id="node2" class="node">
<title>Node2</title>
<g id="a_node2"><a xlink:href="$structint__num__t.html#ae209e7a115353db1633459a602d24e0b" xlink:title=" ">
<polygon fill="white" stroke="#666666" points="246,-24.5 146,-24.5 146,-5.5 246,-5.5 246,-24.5"/>
<text text-anchor="middle" x="196" y="-12.5" font-family="Helvetica,sans-Serif" font-size="10.00">int_num_t::num_int</text>
</a>
</g>
</g>
<!-- Node1&#45;&gt;Node2 -->
<g id="edge1" class="edge">
<title>Node1&#45;&gt;Node2</title>
<path fill="none" stroke="#63b8ff" d="M110.14,-15C118.48,-15 127.14,-15 135.6,-15"/>
<polygon fill="#63b8ff" stroke="#63b8ff" points="135.77,-18.5 145.77,-15 135.77,-11.5 135.77,-18.5"/>
</g>
<!-- Node2&#45;&gt;Node2 -->
<g id="edge2" class="edge">
<title>Node2&#45;&gt;Node2</title>
<path fill="none" stroke="#63b8ff" d="M174.42,-24.58C163.92,-33.23 171.12,-42.5 196,-42.5 211.94,-42.5 220.62,-38.7 222.04,-33.69"/>
<polygon fill="#63b8ff" stroke="#63b8ff" points="225.12,-32.02 217.58,-24.58 218.84,-35.1 225.12,-32.02"/>
</g>
</g>
</svg>
