<?xml version="1.0" encoding="UTF-8" standalone="no"?>
<!DOCTYPE svg PUBLIC "-//W3C//DTD SVG 1.1//EN"
 "http://www.w3.org/Graphics/SVG/1.1/DTD/svg11.dtd">
<!-- Generated by graphviz version 2.44.1 (20220725.2034)
 -->
<!-- Title: NumRepr::nat_reg_digs_t::regi_0 Pages: 1 -->
<svg width="284pt" height="182pt"
 viewBox="0.00 0.00 284.00 182.00" xmlns="http://www.w3.org/2000/svg" xmlns:xlink="http://www.w3.org/1999/xlink">
<g id="graph0" class="graph" transform="scale(1 1) rotate(0) translate(4 178)">
<title>NumRepr::nat_reg_digs_t::regi_0</title>
<!-- Node1 -->
<g id="node1" class="node">
<title>Node1</title>
<g id="a_node1"><a xlink:title="ARRAYS DE ENTEROS (CONSTANTES EN TIEMPO DE COMPILACION INMEDIATAS)">
<polygon fill="#999999" stroke="#666666" points="276,-102 156,-102 156,-72 276,-72 276,-102"/>
<text text-anchor="start" x="164" y="-90" font-family="Helvetica,sans-Serif" font-size="10.00">NumRepr::nat_reg_digs</text>
<text text-anchor="middle" x="216" y="-79" font-family="Helvetica,sans-Serif" font-size="10.00">_t::regi_0</text>
</a>
</g>
</g>
<!-- Node2 -->
<g id="node2" class="node">
<title>Node2</title>
<g id="a_node2"><a xlink:href="$struct_num_repr_1_1nat__reg__digs__t.html#a11a8669870d26e8e0e4d0d2af3c814d8" xlink:title=" ">
<polygon fill="white" stroke="#666666" points="120,-174 0,-174 0,-144 120,-144 120,-174"/>
<text text-anchor="start" x="8" y="-162" font-family="Helvetica,sans-Serif" font-size="10.00">NumRepr::nat_reg_digs</text>
<text text-anchor="middle" x="60" y="-151" font-family="Helvetica,sans-Serif" font-size="10.00">_t::regi_1</text>
</a>
</g>
</g>
<!-- Node1&#45;&gt;Node2 -->
<g id="edge1" class="edge">
<title>Node1&#45;&gt;Node2</title>
<path fill="none" stroke="#63b8ff" d="M177.39,-106.89C160.08,-115.82 139.16,-126.28 120,-135 113.36,-138.02 106.22,-141.08 99.28,-143.96"/>
<polygon fill="#63b8ff" stroke="#63b8ff" points="179.35,-109.82 186.61,-102.11 176.12,-103.61 179.35,-109.82"/>
</g>
<!-- Node3 -->
<g id="node3" class="node">
<title>Node3</title>
<g id="a_node3"><a xlink:href="$struct_num_repr_1_1nat__reg__digs__t.html#a197912d151a7d43a251ec8c019701678" xlink:title=" ">
<polygon fill="white" stroke="#666666" points="120,-126 0,-126 0,-96 120,-96 120,-126"/>
<text text-anchor="start" x="8" y="-114" font-family="Helvetica,sans-Serif" font-size="10.00">NumRepr::nat_reg_digs</text>
<text text-anchor="middle" x="60" y="-103" font-family="Helvetica,sans-Serif" font-size="10.00">_t::regi_B</text>
</a>
</g>
</g>
<!-- Node1&#45;&gt;Node3 -->
<g id="edge2" class="edge">
<title>Node1&#45;&gt;Node3</title>
<path fill="none" stroke="#63b8ff" d="M145.91,-97.77C137.33,-99.1 128.61,-100.46 120.2,-101.77"/>
<polygon fill="#63b8ff" stroke="#63b8ff" points="146.56,-101.21 155.9,-96.21 145.48,-94.29 146.56,-101.21"/>
</g>
<!-- Node4 -->
<g id="node4" class="node">
<title>Node4</title>
<g id="a_node4"><a xlink:href="$struct_num_repr_1_1nat__reg__digs__t.html#a9fb67b33d8f8d153fce5b8bcc575f283" xlink:title=" ">
<polygon fill="white" stroke="#666666" points="120,-78 0,-78 0,-48 120,-48 120,-78"/>
<text text-anchor="start" x="8" y="-66" font-family="Helvetica,sans-Serif" font-size="10.00">NumRepr::nat_reg_digs</text>
<text text-anchor="middle" x="60" y="-55" font-family="Helvetica,sans-Serif" font-size="10.00">_t::regi_Bm1</text>
</a>
</g>
</g>
<!-- Node1&#45;&gt;Node4 -->
<g id="edge3" class="edge">
<title>Node1&#45;&gt;Node4</title>
<path fill="none" stroke="#63b8ff" d="M145.91,-76.23C137.33,-74.9 128.61,-73.54 120.2,-72.23"/>
<polygon fill="#63b8ff" stroke="#63b8ff" points="145.48,-79.71 155.9,-77.79 146.56,-72.79 145.48,-79.71"/>
</g>
<!-- Node5 -->
<g id="node5" class="node">
<title>Node5</title>
<g id="a_node5"><a xlink:href="$struct_num_repr_1_1nat__reg__digs__t.html#a72cde29ddb63c9bc1d77bd7ba9954e78" xlink:title=" ">
<polygon fill="white" stroke="#666666" points="120,-30 0,-30 0,0 120,0 120,-30"/>
<text text-anchor="start" x="8" y="-18" font-family="Helvetica,sans-Serif" font-size="10.00">NumRepr::nat_reg_digs</text>
<text text-anchor="middle" x="60" y="-7" font-family="Helvetica,sans-Serif" font-size="10.00">_t::regi_pow_n_B</text>
</a>
</g>
</g>
<!-- Node1&#45;&gt;Node5 -->
<g id="edge4" class="edge">
<title>Node1&#45;&gt;Node5</title>
<path fill="none" stroke="#63b8ff" d="M177.39,-67.11C160.08,-58.18 139.16,-47.72 120,-39 113.36,-35.98 106.22,-32.92 99.28,-30.04"/>
<polygon fill="#63b8ff" stroke="#63b8ff" points="176.12,-70.39 186.61,-71.89 179.35,-64.18 176.12,-70.39"/>
</g>
</g>
</svg>
