<?xml version="1.0" encoding="UTF-8" standalone="no"?>
<!DOCTYPE svg PUBLIC "-//W3C//DTD SVG 1.1//EN"
 "http://www.w3.org/Graphics/SVG/1.1/DTD/svg11.dtd">
<!-- Generated by graphviz version 2.44.1 (20220725.2034)
 -->
<!-- Title: NumRepr::nat_reg_digs_t::const_ref_data Pages: 1 -->
<svg width="284pt" height="422pt"
 viewBox="0.00 0.00 284.00 422.00" xmlns="http://www.w3.org/2000/svg" xmlns:xlink="http://www.w3.org/1999/xlink">
<g id="graph0" class="graph" transform="scale(1 1) rotate(0) translate(4 418)">
<title>NumRepr::nat_reg_digs_t::const_ref_data</title>
<!-- Node1 -->
<g id="node1" class="node">
<title>Node1</title>
<g id="a_node1"><a xlink:title=" ">
<polygon fill="#999999" stroke="#666666" points="276,-222 156,-222 156,-192 276,-192 276,-222"/>
<text text-anchor="start" x="164" y="-210" font-family="Helvetica,sans-Serif" font-size="10.00">NumRepr::nat_reg_digs</text>
<text text-anchor="middle" x="216" y="-199" font-family="Helvetica,sans-Serif" font-size="10.00">_t::const_ref_data</text>
</a>
</g>
</g>
<!-- Node2 -->
<g id="node2" class="node">
<title>Node2</title>
<g id="a_node2"><a xlink:href="$struct_num_repr_1_1nat__reg__digs__t.html#ac754667e568ecdda0033e4672fdeefd3" xlink:title="CONSTRUCTOR COPIA POR REFERENCIA CONSTANTE.">
<polygon fill="white" stroke="#666666" points="120,-414 0,-414 0,-384 120,-384 120,-414"/>
<text text-anchor="start" x="8" y="-402" font-family="Helvetica,sans-Serif" font-size="10.00">NumRepr::nat_reg_digs</text>
<text text-anchor="middle" x="60" y="-391" font-family="Helvetica,sans-Serif" font-size="10.00">_t::nat_reg_digs_t</text>
</a>
</g>
</g>
<!-- Node1&#45;&gt;Node2 -->
<g id="edge1" class="edge">
<title>Node1&#45;&gt;Node2</title>
<path fill="none" stroke="#63b8ff" d="M206.87,-231.97C193.93,-268.14 165.35,-335.13 120,-375 116.1,-378.43 111.64,-381.41 106.96,-383.99"/>
<polygon fill="#63b8ff" stroke="#63b8ff" points="210.29,-232.81 210.25,-222.22 203.67,-230.52 210.29,-232.81"/>
</g>
<!-- Node3 -->
<g id="node3" class="node">
<title>Node3</title>
<g id="a_node3"><a xlink:href="$struct_num_repr_1_1nat__reg__digs__t.html#aa1b50464c47ec2306e132409e5c0d39b" xlink:title=" ">
<polygon fill="white" stroke="#666666" points="120,-366 0,-366 0,-336 120,-336 120,-366"/>
<text text-anchor="start" x="8" y="-354" font-family="Helvetica,sans-Serif" font-size="10.00">NumRepr::nat_reg_digs</text>
<text text-anchor="middle" x="60" y="-343" font-family="Helvetica,sans-Serif" font-size="10.00">_t::operator!=</text>
</a>
</g>
</g>
<!-- Node1&#45;&gt;Node3 -->
<g id="edge2" class="edge">
<title>Node1&#45;&gt;Node3</title>
<path fill="none" stroke="#63b8ff" d="M201.23,-231.07C184.89,-257.73 155.36,-300.46 120,-327 115.49,-330.38 110.43,-333.37 105.23,-335.99"/>
<polygon fill="#63b8ff" stroke="#63b8ff" points="204.31,-232.73 206.44,-222.36 198.3,-229.14 204.31,-232.73"/>
</g>
<!-- Node4 -->
<g id="node4" class="node">
<title>Node4</title>
<g id="a_node4"><a xlink:href="$struct_num_repr_1_1nat__reg__digs__t.html#a75a06e97717d145137e875999180048e" xlink:title=" ">
<polygon fill="white" stroke="#666666" points="120,-318 0,-318 0,-288 120,-288 120,-318"/>
<text text-anchor="start" x="8" y="-306" font-family="Helvetica,sans-Serif" font-size="10.00">NumRepr::nat_reg_digs</text>
<text text-anchor="middle" x="60" y="-295" font-family="Helvetica,sans-Serif" font-size="10.00">_t::operator&lt;</text>
</a>
</g>
</g>
<!-- Node1&#45;&gt;Node4 -->
<g id="edge3" class="edge">
<title>Node1&#45;&gt;Node4</title>
<path fill="none" stroke="#63b8ff" d="M190.11,-228.76C171.65,-244.16 145.38,-264.55 120,-279 114.33,-282.23 108.14,-285.24 101.97,-287.97"/>
<polygon fill="#63b8ff" stroke="#63b8ff" points="192.39,-231.41 197.77,-222.29 187.87,-226.07 192.39,-231.41"/>
</g>
<!-- Node5 -->
<g id="node5" class="node">
<title>Node5</title>
<g id="a_node5"><a xlink:href="$struct_num_repr_1_1nat__reg__digs__t.html#a8eced305bac59431a2c2c0bb10feb7be" xlink:title=" ">
<polygon fill="white" stroke="#666666" points="120,-270 0,-270 0,-240 120,-240 120,-270"/>
<text text-anchor="start" x="8" y="-258" font-family="Helvetica,sans-Serif" font-size="10.00">NumRepr::nat_reg_digs</text>
<text text-anchor="middle" x="60" y="-247" font-family="Helvetica,sans-Serif" font-size="10.00">_t::operator&lt;=</text>
</a>
</g>
</g>
<!-- Node1&#45;&gt;Node5 -->
<g id="edge4" class="edge">
<title>Node1&#45;&gt;Node5</title>
<path fill="none" stroke="#63b8ff" d="M157.04,-225.07C141.24,-229.99 124.31,-235.27 109.13,-240"/>
<polygon fill="#63b8ff" stroke="#63b8ff" points="158.19,-228.37 166.7,-222.06 156.11,-221.69 158.19,-228.37"/>
</g>
<!-- Node6 -->
<g id="node6" class="node">
<title>Node6</title>
<g id="a_node6"><a xlink:href="$struct_num_repr_1_1nat__reg__digs__t.html#a760667e522ab381ea922f79a0fe37032" xlink:title="OPERADOR COMPARACION SPACESHIP C++20.">
<polygon fill="white" stroke="#666666" points="120,-222 0,-222 0,-192 120,-192 120,-222"/>
<text text-anchor="start" x="8" y="-210" font-family="Helvetica,sans-Serif" font-size="10.00">NumRepr::nat_reg_digs</text>
<text text-anchor="middle" x="60" y="-199" font-family="Helvetica,sans-Serif" font-size="10.00">_t::operator&lt;=&gt;</text>
</a>
</g>
</g>
<!-- Node1&#45;&gt;Node6 -->
<g id="edge5" class="edge">
<title>Node1&#45;&gt;Node6</title>
<path fill="none" stroke="#63b8ff" d="M145.63,-207C137.14,-207 128.52,-207 120.2,-207"/>
<polygon fill="#63b8ff" stroke="#63b8ff" points="145.9,-210.5 155.9,-207 145.9,-203.5 145.9,-210.5"/>
</g>
<!-- Node7 -->
<g id="node7" class="node">
<title>Node7</title>
<g id="a_node7"><a xlink:href="$struct_num_repr_1_1nat__reg__digs__t.html#a0222f0fe5e680461731101767d0d658b" xlink:title="OPERACION ASIGNACION POR COPIA REFERENCIA EN LA QUE SE PUEDE COPIAR.">
<polygon fill="white" stroke="#666666" points="120,-174 0,-174 0,-144 120,-144 120,-174"/>
<text text-anchor="start" x="8" y="-162" font-family="Helvetica,sans-Serif" font-size="10.00">NumRepr::nat_reg_digs</text>
<text text-anchor="middle" x="60" y="-151" font-family="Helvetica,sans-Serif" font-size="10.00">_t::operator=</text>
</a>
</g>
</g>
<!-- Node1&#45;&gt;Node7 -->
<g id="edge6" class="edge">
<title>Node1&#45;&gt;Node7</title>
<path fill="none" stroke="#63b8ff" d="M157.04,-188.93C141.24,-184.01 124.31,-178.73 109.13,-174"/>
<polygon fill="#63b8ff" stroke="#63b8ff" points="156.11,-192.31 166.7,-191.94 158.19,-185.63 156.11,-192.31"/>
</g>
<!-- Node8 -->
<g id="node8" class="node">
<title>Node8</title>
<g id="a_node8"><a xlink:href="$struct_num_repr_1_1nat__reg__digs__t.html#aea0d7502c64527b4b97ef9fe0e99e404" xlink:title=" ">
<polygon fill="white" stroke="#666666" points="120,-126 0,-126 0,-96 120,-96 120,-126"/>
<text text-anchor="start" x="8" y="-114" font-family="Helvetica,sans-Serif" font-size="10.00">NumRepr::nat_reg_digs</text>
<text text-anchor="middle" x="60" y="-103" font-family="Helvetica,sans-Serif" font-size="10.00">_t::operator==</text>
</a>
</g>
</g>
<!-- Node1&#45;&gt;Node8 -->
<g id="edge7" class="edge">
<title>Node1&#45;&gt;Node8</title>
<path fill="none" stroke="#63b8ff" d="M190.11,-185.24C171.65,-169.84 145.38,-149.45 120,-135 114.33,-131.77 108.14,-128.76 101.97,-126.03"/>
<polygon fill="#63b8ff" stroke="#63b8ff" points="187.87,-187.93 197.77,-191.71 192.39,-182.59 187.87,-187.93"/>
</g>
<!-- Node9 -->
<g id="node9" class="node">
<title>Node9</title>
<g id="a_node9"><a xlink:href="$struct_num_repr_1_1nat__reg__digs__t.html#a0c0115fb7a0bc33e71bc0b6848d97c5d" xlink:title=" ">
<polygon fill="white" stroke="#666666" points="120,-78 0,-78 0,-48 120,-48 120,-78"/>
<text text-anchor="start" x="8" y="-66" font-family="Helvetica,sans-Serif" font-size="10.00">NumRepr::nat_reg_digs</text>
<text text-anchor="middle" x="60" y="-55" font-family="Helvetica,sans-Serif" font-size="10.00">_t::operator&gt;</text>
</a>
</g>
</g>
<!-- Node1&#45;&gt;Node9 -->
<g id="edge8" class="edge">
<title>Node1&#45;&gt;Node9</title>
<path fill="none" stroke="#63b8ff" d="M201.23,-182.93C184.89,-156.27 155.36,-113.54 120,-87 115.49,-83.62 110.43,-80.63 105.23,-78.01"/>
<polygon fill="#63b8ff" stroke="#63b8ff" points="198.3,-184.86 206.44,-191.64 204.31,-181.27 198.3,-184.86"/>
</g>
<!-- Node10 -->
<g id="node10" class="node">
<title>Node10</title>
<g id="a_node10"><a xlink:href="$struct_num_repr_1_1nat__reg__digs__t.html#a11543159dbaddde4dcb666056e758070" xlink:title=" ">
<polygon fill="white" stroke="#666666" points="120,-30 0,-30 0,0 120,0 120,-30"/>
<text text-anchor="start" x="8" y="-18" font-family="Helvetica,sans-Serif" font-size="10.00">NumRepr::nat_reg_digs</text>
<text text-anchor="middle" x="60" y="-7" font-family="Helvetica,sans-Serif" font-size="10.00">_t::operator&gt;=</text>
</a>
</g>
</g>
<!-- Node1&#45;&gt;Node10 -->
<g id="edge9" class="edge">
<title>Node1&#45;&gt;Node10</title>
<path fill="none" stroke="#63b8ff" d="M206.87,-182.03C193.93,-145.86 165.35,-78.87 120,-39 116.1,-35.57 111.64,-32.59 106.96,-30.01"/>
<polygon fill="#63b8ff" stroke="#63b8ff" points="203.67,-183.48 210.25,-191.78 210.29,-181.19 203.67,-183.48"/>
</g>
</g>
</svg>
