<?xml version="1.0" encoding="UTF-8" standalone="no"?>
<!DOCTYPE svg PUBLIC "-//W3C//DTD SVG 1.1//EN"
 "http://www.w3.org/Graphics/SVG/1.1/DTD/svg11.dtd">
<!-- Generated by graphviz version 2.44.1 (20220725.2034)
 -->
<!-- Title: NumRepr::nat_rat_fixed_reg_t::regd_pow_n_B Pages: 1 -->
<svg width="609pt" height="124pt"
 viewBox="0.00 0.00 609.00 124.00" xmlns="http://www.w3.org/2000/svg" xmlns:xlink="http://www.w3.org/1999/xlink">
<g id="graph0" class="graph" transform="scale(1 1) rotate(0) translate(4 120)">
<title>NumRepr::nat_rat_fixed_reg_t::regd_pow_n_B</title>
<!-- Node1 -->
<g id="node1" class="node">
<title>Node1</title>
<g id="a_node1"><a xlink:title=" ">
<polygon fill="#999999" stroke="#666666" points="121,-73 0,-73 0,-43 121,-43 121,-73"/>
<text text-anchor="start" x="8" y="-61" font-family="Helvetica,sans-Serif" font-size="10.00">NumRepr::nat_rat_fixed</text>
<text text-anchor="middle" x="60.5" y="-50" font-family="Helvetica,sans-Serif" font-size="10.00">_reg_t::regd_pow_n_B</text>
</a>
</g>
</g>
<!-- Node2 -->
<g id="node2" class="node">
<title>Node2</title>
<g id="a_node2"><a xlink:href="$struct_num_repr_1_1nat__rat__fixed__reg__t.html#a960faa8c0828a9a6680526e7a9bfbc59" xlink:title=" ">
<polygon fill="white" stroke="#666666" points="278,-116 157,-116 157,-86 278,-86 278,-116"/>
<text text-anchor="start" x="165" y="-104" font-family="Helvetica,sans-Serif" font-size="10.00">NumRepr::nat_rat_fixed</text>
<text text-anchor="middle" x="217.5" y="-93" font-family="Helvetica,sans-Serif" font-size="10.00">_reg_t::dig_1</text>
</a>
</g>
</g>
<!-- Node1&#45;&gt;Node2 -->
<g id="edge1" class="edge">
<title>Node1&#45;&gt;Node2</title>
<path fill="none" stroke="#63b8ff" d="M115.71,-73.04C127.63,-76.35 140.36,-79.88 152.61,-83.28"/>
<polygon fill="#63b8ff" stroke="#63b8ff" points="151.75,-86.67 162.32,-85.97 153.62,-79.92 151.75,-86.67"/>
</g>
<!-- Node3 -->
<g id="node3" class="node">
<title>Node3</title>
<g id="a_node3"><a xlink:href="$struct_num_repr_1_1nat__rat__fixed__reg__t.html#a05f3a766ce29786655fc99812d550fa6" xlink:title=" ">
<polygon fill="white" stroke="#666666" points="444,-73 314,-73 314,-43 444,-43 444,-73"/>
<text text-anchor="start" x="322" y="-61" font-family="Helvetica,sans-Serif" font-size="10.00">NumRepr::nat_rat_fixed</text>
<text text-anchor="middle" x="379" y="-50" font-family="Helvetica,sans-Serif" font-size="10.00">_reg_t::pfx_rat_reg_digs_t</text>
</a>
</g>
</g>
<!-- Node1&#45;&gt;Node3 -->
<g id="edge2" class="edge">
<title>Node1&#45;&gt;Node3</title>
<path fill="none" stroke="#63b8ff" d="M121.03,-58C172.78,-58 247.99,-58 303.68,-58"/>
<polygon fill="#63b8ff" stroke="#63b8ff" points="303.84,-61.5 313.84,-58 303.84,-54.5 303.84,-61.5"/>
</g>
<!-- Node5 -->
<g id="node5" class="node">
<title>Node5</title>
<g id="a_node5"><a xlink:href="$struct_num_repr_1_1nat__rat__fixed__reg__t.html#a300ccd4144f9f2cdb9979897e14ded03" xlink:title=" ">
<polygon fill="white" stroke="#666666" points="278,-30 157,-30 157,0 278,0 278,-30"/>
<text text-anchor="start" x="165" y="-18" font-family="Helvetica,sans-Serif" font-size="10.00">NumRepr::nat_rat_fixed</text>
<text text-anchor="middle" x="217.5" y="-7" font-family="Helvetica,sans-Serif" font-size="10.00">_reg_t::regd_0</text>
</a>
</g>
</g>
<!-- Node1&#45;&gt;Node5 -->
<g id="edge4" class="edge">
<title>Node1&#45;&gt;Node5</title>
<path fill="none" stroke="#63b8ff" d="M115.71,-42.96C127.63,-39.65 140.36,-36.12 152.61,-32.72"/>
<polygon fill="#63b8ff" stroke="#63b8ff" points="153.62,-36.08 162.32,-30.03 151.75,-29.33 153.62,-36.08"/>
</g>
<!-- Node4 -->
<g id="node4" class="node">
<title>Node4</title>
<g id="a_node4"><a xlink:href="$struct_num_repr_1_1nat__rat__fixed__reg__t.html#a235bc4a9ae726bbf7c7d5933d9a62b2e" xlink:title=" ">
<polygon fill="white" stroke="#666666" points="601,-51 480,-51 480,-21 601,-21 601,-51"/>
<text text-anchor="start" x="488" y="-39" font-family="Helvetica,sans-Serif" font-size="10.00">NumRepr::nat_rat_fixed</text>
<text text-anchor="middle" x="540.5" y="-28" font-family="Helvetica,sans-Serif" font-size="10.00">_reg_t::dig_0</text>
</a>
</g>
</g>
<!-- Node3&#45;&gt;Node4 -->
<g id="edge3" class="edge">
<title>Node3&#45;&gt;Node4</title>
<path fill="none" stroke="#63b8ff" d="M444.42,-49.12C452.71,-47.97 461.24,-46.79 469.62,-45.64"/>
<polygon fill="#63b8ff" stroke="#63b8ff" points="470.32,-49.08 479.75,-44.24 469.36,-42.14 470.32,-49.08"/>
</g>
<!-- Node5&#45;&gt;Node3 -->
<g id="edge6" class="edge">
<title>Node5&#45;&gt;Node3</title>
<path fill="none" stroke="#63b8ff" d="M274.29,-30.04C286.55,-33.35 299.64,-36.88 312.26,-40.28"/>
<polygon fill="#63b8ff" stroke="#63b8ff" points="311.68,-43.75 322.25,-42.97 313.5,-36.99 311.68,-43.75"/>
</g>
<!-- Node5&#45;&gt;Node4 -->
<g id="edge5" class="edge">
<title>Node5&#45;&gt;Node4</title>
<path fill="none" stroke="#63b8ff" d="M278.13,-18.9C332.43,-22.45 412.65,-27.7 469.87,-31.44"/>
<polygon fill="#63b8ff" stroke="#63b8ff" points="469.72,-34.94 479.92,-32.1 470.17,-27.96 469.72,-34.94"/>
</g>
</g>
</svg>
