<?xml version="1.0" encoding="UTF-8" standalone="no"?>
<!DOCTYPE svg PUBLIC "-//W3C//DTD SVG 1.1//EN"
 "http://www.w3.org/Graphics/SVG/1.1/DTD/svg11.dtd">
<!-- Generated by graphviz version 2.44.1 (20220725.2034)
 -->
<!-- Title: NumRepr::nat_reg_digs_t::regd_base_N_pow_n_B_m1 Pages: 1 -->
<svg width="317pt" height="86pt"
 viewBox="0.00 0.00 317.00 86.00" xmlns="http://www.w3.org/2000/svg" xmlns:xlink="http://www.w3.org/1999/xlink">
<g id="graph0" class="graph" transform="scale(1 1) rotate(0) translate(4 82)">
<title>NumRepr::nat_reg_digs_t::regd_base_N_pow_n_B_m1</title>
<!-- Node1 -->
<g id="node1" class="node">
<title>Node1</title>
<g id="a_node1"><a xlink:title=" ">
<polygon fill="#999999" stroke="#666666" points="153,-54 0,-54 0,-24 153,-24 153,-54"/>
<text text-anchor="start" x="8" y="-42" font-family="Helvetica,sans-Serif" font-size="10.00">NumRepr::nat_reg_digs</text>
<text text-anchor="middle" x="76.5" y="-31" font-family="Helvetica,sans-Serif" font-size="10.00">_t::regd_base_N_pow_n_B_m1</text>
</a>
</g>
</g>
<!-- Node2 -->
<g id="node2" class="node">
<title>Node2</title>
<g id="a_node2"><a xlink:href="$struct_num_repr_1_1nat__reg__digs__t.html#a85a8b769de34b30bc8f57d8fe7b6eca7" xlink:title=" ">
<polygon fill="white" stroke="#666666" points="309,-78 189,-78 189,-48 309,-48 309,-78"/>
<text text-anchor="start" x="197" y="-66" font-family="Helvetica,sans-Serif" font-size="10.00">NumRepr::nat_reg_digs</text>
<text text-anchor="middle" x="249" y="-55" font-family="Helvetica,sans-Serif" font-size="10.00">_t::dig_0</text>
</a>
</g>
</g>
<!-- Node1&#45;&gt;Node2 -->
<g id="edge1" class="edge">
<title>Node1&#45;&gt;Node2</title>
<path fill="none" stroke="#63b8ff" d="M153.28,-49.67C161.75,-50.86 170.35,-52.07 178.73,-53.25"/>
<polygon fill="#63b8ff" stroke="#63b8ff" points="178.44,-56.74 188.83,-54.67 179.42,-49.81 178.44,-56.74"/>
</g>
<!-- Node3 -->
<g id="node3" class="node">
<title>Node3</title>
<g id="a_node3"><a xlink:href="$struct_num_repr_1_1nat__reg__digs__t.html#acd8786bcc458752321399dfb474df42a" xlink:title=" ">
<polygon fill="white" stroke="#666666" points="309,-30 189,-30 189,0 309,0 309,-30"/>
<text text-anchor="start" x="197" y="-18" font-family="Helvetica,sans-Serif" font-size="10.00">NumRepr::nat_reg_digs</text>
<text text-anchor="middle" x="249" y="-7" font-family="Helvetica,sans-Serif" font-size="10.00">_t::dig_Bm1</text>
</a>
</g>
</g>
<!-- Node1&#45;&gt;Node3 -->
<g id="edge2" class="edge">
<title>Node1&#45;&gt;Node3</title>
<path fill="none" stroke="#63b8ff" d="M153.28,-28.33C161.75,-27.14 170.35,-25.93 178.73,-24.75"/>
<polygon fill="#63b8ff" stroke="#63b8ff" points="179.42,-28.19 188.83,-23.33 178.44,-21.26 179.42,-28.19"/>
</g>
</g>
</svg>
