<?xml version="1.0" encoding="UTF-8" standalone="no"?>
<!DOCTYPE svg PUBLIC "-//W3C//DTD SVG 1.1//EN"
 "http://www.w3.org/Graphics/SVG/1.1/DTD/svg11.dtd">
<!-- Generated by graphviz version 2.44.1 (20220725.2034)
 -->
<!-- Title: NumRepr::nat_rat_fixed_reg_t::regi_0 Pages: 1 -->
<svg width="286pt" height="182pt"
 viewBox="0.00 0.00 286.00 182.00" xmlns="http://www.w3.org/2000/svg" xmlns:xlink="http://www.w3.org/1999/xlink">
<g id="graph0" class="graph" transform="scale(1 1) rotate(0) translate(4 178)">
<title>NumRepr::nat_rat_fixed_reg_t::regi_0</title>
<!-- Node1 -->
<g id="node1" class="node">
<title>Node1</title>
<g id="a_node1"><a xlink:title="ARRAYS DE ENTEROS QUE SON DE AYUDA.">
<polygon fill="#999999" stroke="#666666" points="278,-102 157,-102 157,-72 278,-72 278,-102"/>
<text text-anchor="start" x="165" y="-90" font-family="Helvetica,sans-Serif" font-size="10.00">NumRepr::nat_rat_fixed</text>
<text text-anchor="middle" x="217.5" y="-79" font-family="Helvetica,sans-Serif" font-size="10.00">_reg_t::regi_0</text>
</a>
</g>
</g>
<!-- Node2 -->
<g id="node2" class="node">
<title>Node2</title>
<g id="a_node2"><a xlink:href="$struct_num_repr_1_1nat__rat__fixed__reg__t.html#a9a2b45b2f3d26220d33285794c8128a6" xlink:title=" ">
<polygon fill="white" stroke="#666666" points="121,-174 0,-174 0,-144 121,-144 121,-174"/>
<text text-anchor="start" x="8" y="-162" font-family="Helvetica,sans-Serif" font-size="10.00">NumRepr::nat_rat_fixed</text>
<text text-anchor="middle" x="60.5" y="-151" font-family="Helvetica,sans-Serif" font-size="10.00">_reg_t::regi_1</text>
</a>
</g>
</g>
<!-- Node1&#45;&gt;Node2 -->
<g id="edge1" class="edge">
<title>Node1&#45;&gt;Node2</title>
<path fill="none" stroke="#63b8ff" d="M178.7,-106.9C161.29,-115.83 140.26,-126.29 121,-135 114.3,-138.03 107.1,-141.09 100.1,-143.97"/>
<polygon fill="#63b8ff" stroke="#63b8ff" points="180.68,-109.81 187.96,-102.12 177.47,-103.59 180.68,-109.81"/>
</g>
<!-- Node3 -->
<g id="node3" class="node">
<title>Node3</title>
<g id="a_node3"><a xlink:href="$struct_num_repr_1_1nat__rat__fixed__reg__t.html#a6d97e8aa88ec3d0b9f81c66de861b915" xlink:title=" ">
<polygon fill="white" stroke="#666666" points="121,-126 0,-126 0,-96 121,-96 121,-126"/>
<text text-anchor="start" x="8" y="-114" font-family="Helvetica,sans-Serif" font-size="10.00">NumRepr::nat_rat_fixed</text>
<text text-anchor="middle" x="60.5" y="-103" font-family="Helvetica,sans-Serif" font-size="10.00">_reg_t::regi_B</text>
</a>
</g>
</g>
<!-- Node1&#45;&gt;Node3 -->
<g id="edge2" class="edge">
<title>Node1&#45;&gt;Node3</title>
<path fill="none" stroke="#63b8ff" d="M146.62,-97.82C138.07,-99.14 129.39,-100.49 121.01,-101.79"/>
<polygon fill="#63b8ff" stroke="#63b8ff" points="147.23,-101.27 156.57,-96.28 146.16,-94.35 147.23,-101.27"/>
</g>
<!-- Node4 -->
<g id="node4" class="node">
<title>Node4</title>
<g id="a_node4"><a xlink:href="$struct_num_repr_1_1nat__rat__fixed__reg__t.html#a9c1583db7aec52231103595dc69a2a32" xlink:title=" ">
<polygon fill="white" stroke="#666666" points="121,-78 0,-78 0,-48 121,-48 121,-78"/>
<text text-anchor="start" x="8" y="-66" font-family="Helvetica,sans-Serif" font-size="10.00">NumRepr::nat_rat_fixed</text>
<text text-anchor="middle" x="60.5" y="-55" font-family="Helvetica,sans-Serif" font-size="10.00">_reg_t::regi_Bm1</text>
</a>
</g>
</g>
<!-- Node1&#45;&gt;Node4 -->
<g id="edge3" class="edge">
<title>Node1&#45;&gt;Node4</title>
<path fill="none" stroke="#63b8ff" d="M146.62,-76.18C138.07,-74.86 129.39,-73.51 121.01,-72.21"/>
<polygon fill="#63b8ff" stroke="#63b8ff" points="146.16,-79.65 156.57,-77.72 147.23,-72.73 146.16,-79.65"/>
</g>
<!-- Node5 -->
<g id="node5" class="node">
<title>Node5</title>
<g id="a_node5"><a xlink:href="$struct_num_repr_1_1nat__rat__fixed__reg__t.html#a993ab098e0e7070f2514b0ebd9b9162e" xlink:title=" ">
<polygon fill="white" stroke="#666666" points="121,-30 0,-30 0,0 121,0 121,-30"/>
<text text-anchor="start" x="8" y="-18" font-family="Helvetica,sans-Serif" font-size="10.00">NumRepr::nat_rat_fixed</text>
<text text-anchor="middle" x="60.5" y="-7" font-family="Helvetica,sans-Serif" font-size="10.00">_reg_t::regi_pow_n_B</text>
</a>
</g>
</g>
<!-- Node1&#45;&gt;Node5 -->
<g id="edge4" class="edge">
<title>Node1&#45;&gt;Node5</title>
<path fill="none" stroke="#63b8ff" d="M178.7,-67.1C161.29,-58.17 140.26,-47.71 121,-39 114.3,-35.97 107.1,-32.91 100.1,-30.03"/>
<polygon fill="#63b8ff" stroke="#63b8ff" points="177.47,-70.41 187.96,-71.88 180.68,-64.19 177.47,-70.41"/>
</g>
</g>
</svg>
