<?xml version="1.0" encoding="UTF-8" standalone="no"?>
<!DOCTYPE svg PUBLIC "-//W3C//DTD SVG 1.1//EN"
 "http://www.w3.org/Graphics/SVG/1.1/DTD/svg11.dtd">
<!-- Generated by graphviz version 2.44.1 (20220725.2034)
 -->
<!-- Title: int_num_t::operator&gt; Pages: 1 -->
<svg width="251pt" height="45pt"
 viewBox="0.00 0.00 251.00 45.00" xmlns="http://www.w3.org/2000/svg" xmlns:xlink="http://www.w3.org/1999/xlink">
<g id="graph0" class="graph" transform="scale(1 1) rotate(0) translate(4 41)">
<title>int_num_t::operator&gt;</title>
<!-- Node1 -->
<g id="node1" class="node">
<title>Node1</title>
<g id="a_node1"><a xlink:title=" ">
<polygon fill="#999999" stroke="#666666" points="107,-19 0,-19 0,0 107,0 107,-19"/>
<text text-anchor="middle" x="53.5" y="-7" font-family="Helvetica,sans-Serif" font-size="10.00">int_num_t::operator&gt;</text>
</a>
</g>
</g>
<!-- Node2 -->
<g id="node2" class="node">
<title>Node2</title>
<g id="a_node2"><a xlink:href="$structint__num__t.html#ae209e7a115353db1633459a602d24e0b" xlink:title=" ">
<polygon fill="white" stroke="#666666" points="243,-19 143,-19 143,0 243,0 243,-19"/>
<text text-anchor="middle" x="193" y="-7" font-family="Helvetica,sans-Serif" font-size="10.00">int_num_t::num_int</text>
</a>
</g>
</g>
<!-- Node1&#45;&gt;Node2 -->
<g id="edge1" class="edge">
<title>Node1&#45;&gt;Node2</title>
<path fill="none" stroke="#63b8ff" d="M107.27,-9.5C115.56,-9.5 124.18,-9.5 132.61,-9.5"/>
<polygon fill="#63b8ff" stroke="#63b8ff" points="132.76,-13 142.76,-9.5 132.76,-6 132.76,-13"/>
</g>
<!-- Node2&#45;&gt;Node2 -->
<g id="edge2" class="edge">
<title>Node2&#45;&gt;Node2</title>
<path fill="none" stroke="#63b8ff" d="M171.73,-19.08C161.38,-27.73 168.47,-37 193,-37 208.71,-37 217.27,-33.2 218.67,-28.19"/>
<polygon fill="#63b8ff" stroke="#63b8ff" points="221.77,-26.56 214.27,-19.08 215.47,-29.61 221.77,-26.56"/>
</g>
</g>
</svg>
