<?xml version="1.0" encoding="UTF-8" standalone="no"?>
<!DOCTYPE svg PUBLIC "-//W3C//DTD SVG 1.1//EN"
 "http://www.w3.org/Graphics/SVG/1.1/DTD/svg11.dtd">
<!-- Generated by graphviz version 2.44.1 (20220725.2034)
 -->
<!-- Title: NumRepr::nat_rat_fixed_reg_t::dig_1 Pages: 1 -->
<svg width="286pt" height="470pt"
 viewBox="0.00 0.00 286.00 470.00" xmlns="http://www.w3.org/2000/svg" xmlns:xlink="http://www.w3.org/1999/xlink">
<g id="graph0" class="graph" transform="scale(1 1) rotate(0) translate(4 466)">
<title>NumRepr::nat_rat_fixed_reg_t::dig_1</title>
<!-- Node1 -->
<g id="node1" class="node">
<title>Node1</title>
<g id="a_node1"><a xlink:title=" ">
<polygon fill="#999999" stroke="#666666" points="278,-246 157,-246 157,-216 278,-216 278,-246"/>
<text text-anchor="start" x="165" y="-234" font-family="Helvetica,sans-Serif" font-size="10.00">NumRepr::nat_rat_fixed</text>
<text text-anchor="middle" x="217.5" y="-223" font-family="Helvetica,sans-Serif" font-size="10.00">_reg_t::dig_1</text>
</a>
</g>
</g>
<!-- Node2 -->
<g id="node2" class="node">
<title>Node2</title>
<g id="a_node2"><a xlink:href="$struct_num_repr_1_1nat__rat__fixed__reg__t.html#a43181180eabb8e8ea937db4ba2d7718d" xlink:title=" ">
<polygon fill="white" stroke="#666666" points="121,-462 0,-462 0,-432 121,-432 121,-462"/>
<text text-anchor="start" x="8" y="-450" font-family="Helvetica,sans-Serif" font-size="10.00">NumRepr::nat_rat_fixed</text>
<text text-anchor="middle" x="60.5" y="-439" font-family="Helvetica,sans-Serif" font-size="10.00">_reg_t::mC_B</text>
</a>
</g>
</g>
<!-- Node1&#45;&gt;Node2 -->
<g id="edge1" class="edge">
<title>Node1&#45;&gt;Node2</title>
<path fill="none" stroke="#63b8ff" d="M210.28,-256.04C199.05,-296.42 171.68,-376.13 121,-423 117.32,-426.4 113.1,-429.35 108.63,-431.9"/>
<polygon fill="#63b8ff" stroke="#63b8ff" points="213.71,-256.77 212.92,-246.21 206.95,-254.96 213.71,-256.77"/>
</g>
<!-- Node3 -->
<g id="node3" class="node">
<title>Node3</title>
<g id="a_node3"><a xlink:href="$struct_num_repr_1_1nat__rat__fixed__reg__t.html#a1ad5dbda3b2a1663086f48ccddb0c07d" xlink:title=" ">
<polygon fill="white" stroke="#666666" points="121,-414 0,-414 0,-384 121,-384 121,-414"/>
<text text-anchor="start" x="8" y="-402" font-family="Helvetica,sans-Serif" font-size="10.00">NumRepr::nat_rat_fixed</text>
<text text-anchor="middle" x="60.5" y="-391" font-family="Helvetica,sans-Serif" font-size="10.00">_reg_t::operator++</text>
</a>
</g>
</g>
<!-- Node1&#45;&gt;Node3 -->
<g id="edge2" class="edge">
<title>Node1&#45;&gt;Node3</title>
<path fill="none" stroke="#63b8ff" d="M205.87,-255.62C191.08,-287.24 161.48,-341.98 121,-375 116.86,-378.38 112.18,-381.34 107.3,-383.91"/>
<polygon fill="#63b8ff" stroke="#63b8ff" points="209.19,-256.77 210.15,-246.22 202.82,-253.87 209.19,-256.77"/>
</g>
<!-- Node4 -->
<g id="node4" class="node">
<title>Node4</title>
<g id="a_node4"><a xlink:href="$struct_num_repr_1_1nat__rat__fixed__reg__t.html#af9fbb6e036ca9bd58675e476d43e05a9" xlink:title=" ">
<polygon fill="white" stroke="#666666" points="121,-366 0,-366 0,-336 121,-336 121,-366"/>
<text text-anchor="start" x="8" y="-354" font-family="Helvetica,sans-Serif" font-size="10.00">NumRepr::nat_rat_fixed</text>
<text text-anchor="middle" x="60.5" y="-343" font-family="Helvetica,sans-Serif" font-size="10.00">_reg_t::operator+=</text>
</a>
</g>
</g>
<!-- Node1&#45;&gt;Node4 -->
<g id="edge3" class="edge">
<title>Node1&#45;&gt;Node4</title>
<path fill="none" stroke="#63b8ff" d="M198.25,-254.12C180.43,-275.41 151.61,-306.69 121,-327 115.99,-330.32 110.44,-333.31 104.81,-335.96"/>
<polygon fill="#63b8ff" stroke="#63b8ff" points="201.09,-256.16 204.74,-246.21 195.68,-251.72 201.09,-256.16"/>
</g>
<!-- Node5 -->
<g id="node5" class="node">
<title>Node5</title>
<g id="a_node5"><a xlink:href="$struct_num_repr_1_1nat__rat__fixed__reg__t.html#a863b4585d8f4ae407912c98c9273b6d3" xlink:title=" ">
<polygon fill="white" stroke="#666666" points="121,-318 0,-318 0,-288 121,-288 121,-318"/>
<text text-anchor="start" x="8" y="-306" font-family="Helvetica,sans-Serif" font-size="10.00">NumRepr::nat_rat_fixed</text>
<text text-anchor="middle" x="60.5" y="-295" font-family="Helvetica,sans-Serif" font-size="10.00">_reg_t::operator&#45;=</text>
</a>
</g>
</g>
<!-- Node1&#45;&gt;Node5 -->
<g id="edge4" class="edge">
<title>Node1&#45;&gt;Node5</title>
<path fill="none" stroke="#63b8ff" d="M178.7,-250.9C161.29,-259.83 140.26,-270.29 121,-279 114.3,-282.03 107.1,-285.09 100.1,-287.97"/>
<polygon fill="#63b8ff" stroke="#63b8ff" points="180.68,-253.81 187.96,-246.12 177.47,-247.59 180.68,-253.81"/>
</g>
<!-- Node6 -->
<g id="node6" class="node">
<title>Node6</title>
<g id="a_node6"><a xlink:href="$struct_num_repr_1_1nat__rat__fixed__reg__t.html#a4d1b2577021f8594d6efa471234869e0" xlink:title=" ">
<polygon fill="white" stroke="#666666" points="121,-270 0,-270 0,-240 121,-240 121,-270"/>
<text text-anchor="start" x="8" y="-258" font-family="Helvetica,sans-Serif" font-size="10.00">NumRepr::nat_rat_fixed</text>
<text text-anchor="middle" x="60.5" y="-247" font-family="Helvetica,sans-Serif" font-size="10.00">_reg_t::regd_1</text>
</a>
</g>
</g>
<!-- Node1&#45;&gt;Node6 -->
<g id="edge5" class="edge">
<title>Node1&#45;&gt;Node6</title>
<path fill="none" stroke="#63b8ff" d="M146.62,-241.82C138.07,-243.14 129.39,-244.49 121.01,-245.79"/>
<polygon fill="#63b8ff" stroke="#63b8ff" points="147.23,-245.27 156.57,-240.28 146.16,-238.35 147.23,-245.27"/>
</g>
<!-- Node7 -->
<g id="node7" class="node">
<title>Node7</title>
<g id="a_node7"><a xlink:href="$struct_num_repr_1_1nat__rat__fixed__reg__t.html#afc75739252c5a40b233bd12eace8dd16" xlink:title=" ">
<polygon fill="white" stroke="#666666" points="121,-222 0,-222 0,-192 121,-192 121,-222"/>
<text text-anchor="start" x="8" y="-210" font-family="Helvetica,sans-Serif" font-size="10.00">NumRepr::nat_rat_fixed</text>
<text text-anchor="middle" x="60.5" y="-199" font-family="Helvetica,sans-Serif" font-size="10.00">_reg_t::regd_B</text>
</a>
</g>
</g>
<!-- Node1&#45;&gt;Node7 -->
<g id="edge6" class="edge">
<title>Node1&#45;&gt;Node7</title>
<path fill="none" stroke="#63b8ff" d="M146.62,-220.18C138.07,-218.86 129.39,-217.51 121.01,-216.21"/>
<polygon fill="#63b8ff" stroke="#63b8ff" points="146.16,-223.65 156.57,-221.72 147.23,-216.73 146.16,-223.65"/>
</g>
<!-- Node8 -->
<g id="node8" class="node">
<title>Node8</title>
<g id="a_node8"><a xlink:href="$struct_num_repr_1_1nat__rat__fixed__reg__t.html#a0fd73bc1e0e7ef8d7e5cfeb2830da7a5" xlink:title=" ">
<polygon fill="white" stroke="#666666" points="121,-174 0,-174 0,-144 121,-144 121,-174"/>
<text text-anchor="start" x="8" y="-162" font-family="Helvetica,sans-Serif" font-size="10.00">NumRepr::nat_rat_fixed</text>
<text text-anchor="middle" x="60.5" y="-151" font-family="Helvetica,sans-Serif" font-size="10.00">_reg_t::regd_pow_n_B</text>
</a>
</g>
</g>
<!-- Node1&#45;&gt;Node8 -->
<g id="edge7" class="edge">
<title>Node1&#45;&gt;Node8</title>
<path fill="none" stroke="#63b8ff" d="M178.7,-211.1C161.29,-202.17 140.26,-191.71 121,-183 114.3,-179.97 107.1,-176.91 100.1,-174.03"/>
<polygon fill="#63b8ff" stroke="#63b8ff" points="177.47,-214.41 187.96,-215.88 180.68,-208.19 177.47,-214.41"/>
</g>
<!-- Node9 -->
<g id="node9" class="node">
<title>Node9</title>
<g id="a_node9"><a xlink:href="$struct_num_repr_1_1nat__rat__fixed__reg__t.html#a9a2b45b2f3d26220d33285794c8128a6" xlink:title=" ">
<polygon fill="white" stroke="#666666" points="121,-126 0,-126 0,-96 121,-96 121,-126"/>
<text text-anchor="start" x="8" y="-114" font-family="Helvetica,sans-Serif" font-size="10.00">NumRepr::nat_rat_fixed</text>
<text text-anchor="middle" x="60.5" y="-103" font-family="Helvetica,sans-Serif" font-size="10.00">_reg_t::regi_1</text>
</a>
</g>
</g>
<!-- Node1&#45;&gt;Node9 -->
<g id="edge8" class="edge">
<title>Node1&#45;&gt;Node9</title>
<path fill="none" stroke="#63b8ff" d="M198.25,-207.88C180.43,-186.59 151.61,-155.31 121,-135 115.99,-131.68 110.44,-128.69 104.81,-126.04"/>
<polygon fill="#63b8ff" stroke="#63b8ff" points="195.68,-210.28 204.74,-215.79 201.09,-205.84 195.68,-210.28"/>
</g>
<!-- Node10 -->
<g id="node10" class="node">
<title>Node10</title>
<g id="a_node10"><a xlink:href="$struct_num_repr_1_1nat__rat__fixed__reg__t.html#a6d97e8aa88ec3d0b9f81c66de861b915" xlink:title=" ">
<polygon fill="white" stroke="#666666" points="121,-78 0,-78 0,-48 121,-48 121,-78"/>
<text text-anchor="start" x="8" y="-66" font-family="Helvetica,sans-Serif" font-size="10.00">NumRepr::nat_rat_fixed</text>
<text text-anchor="middle" x="60.5" y="-55" font-family="Helvetica,sans-Serif" font-size="10.00">_reg_t::regi_B</text>
</a>
</g>
</g>
<!-- Node1&#45;&gt;Node10 -->
<g id="edge9" class="edge">
<title>Node1&#45;&gt;Node10</title>
<path fill="none" stroke="#63b8ff" d="M205.87,-206.38C191.08,-174.76 161.48,-120.02 121,-87 116.86,-83.62 112.18,-80.66 107.3,-78.09"/>
<polygon fill="#63b8ff" stroke="#63b8ff" points="202.82,-208.13 210.15,-215.78 209.19,-205.23 202.82,-208.13"/>
</g>
<!-- Node11 -->
<g id="node11" class="node">
<title>Node11</title>
<g id="a_node11"><a xlink:href="$struct_num_repr_1_1nat__rat__fixed__reg__t.html#a993ab098e0e7070f2514b0ebd9b9162e" xlink:title=" ">
<polygon fill="white" stroke="#666666" points="121,-30 0,-30 0,0 121,0 121,-30"/>
<text text-anchor="start" x="8" y="-18" font-family="Helvetica,sans-Serif" font-size="10.00">NumRepr::nat_rat_fixed</text>
<text text-anchor="middle" x="60.5" y="-7" font-family="Helvetica,sans-Serif" font-size="10.00">_reg_t::regi_pow_n_B</text>
</a>
</g>
</g>
<!-- Node1&#45;&gt;Node11 -->
<g id="edge10" class="edge">
<title>Node1&#45;&gt;Node11</title>
<path fill="none" stroke="#63b8ff" d="M210.28,-205.96C199.05,-165.58 171.68,-85.87 121,-39 117.32,-35.6 113.1,-32.65 108.63,-30.1"/>
<polygon fill="#63b8ff" stroke="#63b8ff" points="206.95,-207.04 212.92,-215.79 213.71,-205.23 206.95,-207.04"/>
</g>
</g>
</svg>
