<?xml version="1.0" encoding="UTF-8" standalone="no"?>
<!DOCTYPE svg PUBLIC "-//W3C//DTD SVG 1.1//EN"
 "http://www.w3.org/Graphics/SVG/1.1/DTD/svg11.dtd">
<!-- Generated by graphviz version 2.44.1 (20220725.2034)
 -->
<!-- Title: int_num_t::filled_of_all_digits_are_0 Pages: 1 -->
<svg width="243pt" height="51pt"
 viewBox="0.00 0.00 243.00 50.50" xmlns="http://www.w3.org/2000/svg" xmlns:xlink="http://www.w3.org/1999/xlink">
<g id="graph0" class="graph" transform="scale(1 1) rotate(0) translate(4 46.5)">
<title>int_num_t::filled_of_all_digits_are_0</title>
<!-- Node1 -->
<g id="node1" class="node">
<title>Node1</title>
<g id="a_node1"><a xlink:title=" ">
<polygon fill="#999999" stroke="#666666" points="99,-30 0,-30 0,0 99,0 99,-30"/>
<text text-anchor="start" x="8" y="-18" font-family="Helvetica,sans-Serif" font-size="10.00">int_num_t::filled_of</text>
<text text-anchor="middle" x="49.5" y="-7" font-family="Helvetica,sans-Serif" font-size="10.00">_all_digits_are_0</text>
</a>
</g>
</g>
<!-- Node2 -->
<g id="node2" class="node">
<title>Node2</title>
<g id="a_node2"><a xlink:href="$structint__num__t.html#ae209e7a115353db1633459a602d24e0b" xlink:title=" ">
<polygon fill="white" stroke="#666666" points="235,-24.5 135,-24.5 135,-5.5 235,-5.5 235,-24.5"/>
<text text-anchor="middle" x="185" y="-12.5" font-family="Helvetica,sans-Serif" font-size="10.00">int_num_t::num_int</text>
</a>
</g>
</g>
<!-- Node1&#45;&gt;Node2 -->
<g id="edge1" class="edge">
<title>Node1&#45;&gt;Node2</title>
<path fill="none" stroke="#63b8ff" d="M99.07,-15C107.34,-15 116.01,-15 124.53,-15"/>
<polygon fill="#63b8ff" stroke="#63b8ff" points="124.79,-18.5 134.79,-15 124.79,-11.5 124.79,-18.5"/>
</g>
<!-- Node2&#45;&gt;Node2 -->
<g id="edge2" class="edge">
<title>Node2&#45;&gt;Node2</title>
<path fill="none" stroke="#63b8ff" d="M164.35,-24.58C154.3,-33.23 161.18,-42.5 185,-42.5 200.26,-42.5 208.57,-38.7 209.93,-33.69"/>
<polygon fill="#63b8ff" stroke="#63b8ff" points="213.07,-32.15 205.65,-24.58 206.73,-35.12 213.07,-32.15"/>
</g>
</g>
</svg>
