<?xml version="1.0" encoding="UTF-8" standalone="no"?>
<!DOCTYPE svg PUBLIC "-//W3C//DTD SVG 1.1//EN"
 "http://www.w3.org/Graphics/SVG/1.1/DTD/svg11.dtd">
<!-- Generated by graphviz version 2.44.1 (20220725.2034)
 -->
<!-- Title: NumRepr::dig_t::is_maxormin Pages: 1 -->
<svg width="193pt" height="64pt"
 viewBox="0.00 0.00 193.00 64.00" xmlns="http://www.w3.org/2000/svg" xmlns:xlink="http://www.w3.org/1999/xlink">
<g id="graph0" class="graph" transform="scale(1 1) rotate(0) translate(4 60)">
<title>NumRepr::dig_t::is_maxormin</title>
<!-- Node1 -->
<g id="node1" class="node">
<title>Node1</title>
<g id="a_node1"><a xlink:title=" ">
<polygon fill="#999999" stroke="#666666" points="99,-42.5 0,-42.5 0,-12.5 99,-12.5 99,-42.5"/>
<text text-anchor="start" x="8" y="-30.5" font-family="Helvetica,sans-Serif" font-size="10.00">NumRepr::dig_t::is</text>
<text text-anchor="middle" x="49.5" y="-19.5" font-family="Helvetica,sans-Serif" font-size="10.00">_maxormin</text>
</a>
</g>
</g>
<!-- Node2 -->
<g id="node2" class="node">
<title>Node2</title>
<g id="a_node2"><a xlink:href="$nat__reg__digs__t_01_07_copia_01en_01conflicto_01de_01_m_s_i_012022-11-24_08_8hpp.html#a540a0e700a266a624a295898de9ff8fc" xlink:title=" ">
<polygon fill="white" stroke="#666666" points="177.5,-56 142.5,-56 142.5,-37 177.5,-37 177.5,-56"/>
<text text-anchor="middle" x="160" y="-44" font-family="Helvetica,sans-Serif" font-size="10.00">is_0</text>
</a>
</g>
</g>
<!-- Node1&#45;&gt;Node2 -->
<g id="edge1" class="edge">
<title>Node1&#45;&gt;Node2</title>
<path fill="none" stroke="#63b8ff" d="M99.04,-36C110.47,-38 122.25,-40.06 132.31,-41.83"/>
<polygon fill="#63b8ff" stroke="#63b8ff" points="132,-45.32 142.45,-43.6 133.2,-38.43 132,-45.32"/>
</g>
<!-- Node3 -->
<g id="node3" class="node">
<title>Node3</title>
<g id="a_node3"><a xlink:href="$nat__reg__digs__t_01_07_copia_01en_01conflicto_01de_01_m_s_i_012022-11-24_08_8hpp.html#a6433e8337d5ddd54c9d362e29780d52b" xlink:title=" ">
<polygon fill="white" stroke="#666666" points="185,-19 135,-19 135,0 185,0 185,-19"/>
<text text-anchor="middle" x="160" y="-7" font-family="Helvetica,sans-Serif" font-size="10.00">is_Bm1</text>
</a>
</g>
</g>
<!-- Node1&#45;&gt;Node3 -->
<g id="edge2" class="edge">
<title>Node1&#45;&gt;Node3</title>
<path fill="none" stroke="#63b8ff" d="M99.04,-19.45C107.77,-18 116.69,-16.52 124.9,-15.16"/>
<polygon fill="#63b8ff" stroke="#63b8ff" points="125.56,-18.6 134.85,-13.51 124.41,-11.69 125.56,-18.6"/>
</g>
</g>
</svg>
