<?xml version="1.0" encoding="UTF-8" standalone="no"?>
<!DOCTYPE svg PUBLIC "-//W3C//DTD SVG 1.1//EN"
 "http://www.w3.org/Graphics/SVG/1.1/DTD/svg11.dtd">
<!-- Generated by graphviz version 2.44.1 (20220725.2034)
 -->
<!-- Title: NumRepr::nat_rat_fixed_reg_t::operator&#45;= Pages: 1 -->
<svg width="452pt" height="234pt"
 viewBox="0.00 0.00 452.00 234.15" xmlns="http://www.w3.org/2000/svg" xmlns:xlink="http://www.w3.org/1999/xlink">
<g id="graph0" class="graph" transform="scale(1 1) rotate(0) translate(4 230.15)">
<title>NumRepr::nat_rat_fixed_reg_t::operator&#45;=</title>
<!-- Node1 -->
<g id="node1" class="node">
<title>Node1</title>
<g id="a_node1"><a xlink:title=" ">
<polygon fill="#999999" stroke="#666666" points="121,-131 0,-131 0,-101 121,-101 121,-131"/>
<text text-anchor="start" x="8" y="-119" font-family="Helvetica,sans-Serif" font-size="10.00">NumRepr::nat_rat_fixed</text>
<text text-anchor="middle" x="60.5" y="-108" font-family="Helvetica,sans-Serif" font-size="10.00">_reg_t::operator&#45;=</text>
</a>
</g>
</g>
<!-- Node2 -->
<g id="node2" class="node">
<title>Node2</title>
<g id="a_node2"><a xlink:href="$struct_num_repr_1_1nat__rat__fixed__reg__t.html#a235bc4a9ae726bbf7c7d5933d9a62b2e" xlink:title=" ">
<polygon fill="white" stroke="#666666" points="444,-137 323,-137 323,-107 444,-107 444,-137"/>
<text text-anchor="start" x="331" y="-125" font-family="Helvetica,sans-Serif" font-size="10.00">NumRepr::nat_rat_fixed</text>
<text text-anchor="middle" x="383.5" y="-114" font-family="Helvetica,sans-Serif" font-size="10.00">_reg_t::dig_0</text>
</a>
</g>
</g>
<!-- Node1&#45;&gt;Node2 -->
<g id="edge1" class="edge">
<title>Node1&#45;&gt;Node2</title>
<path fill="none" stroke="#63b8ff" d="M71.25,-131.37C86.43,-153.66 118.03,-194.04 157,-210 210.47,-231.9 233.18,-231.02 287,-210 320.19,-197.04 348.79,-166.55 365.83,-145.11"/>
<polygon fill="#63b8ff" stroke="#63b8ff" points="368.66,-147.17 371.98,-137.11 363.11,-142.9 368.66,-147.17"/>
</g>
<!-- Node3 -->
<g id="node3" class="node">
<title>Node3</title>
<g id="a_node3"><a xlink:href="$struct_num_repr_1_1nat__rat__fixed__reg__t.html#a960faa8c0828a9a6680526e7a9bfbc59" xlink:title=" ">
<polygon fill="white" stroke="#666666" points="282.5,-201 161.5,-201 161.5,-171 282.5,-171 282.5,-201"/>
<text text-anchor="start" x="169.5" y="-189" font-family="Helvetica,sans-Serif" font-size="10.00">NumRepr::nat_rat_fixed</text>
<text text-anchor="middle" x="222" y="-178" font-family="Helvetica,sans-Serif" font-size="10.00">_reg_t::dig_1</text>
</a>
</g>
</g>
<!-- Node1&#45;&gt;Node3 -->
<g id="edge2" class="edge">
<title>Node1&#45;&gt;Node3</title>
<path fill="none" stroke="#63b8ff" d="M91.29,-131.2C109.97,-140.52 134.66,-152.45 157,-162 161.1,-163.75 165.38,-165.51 169.69,-167.23"/>
<polygon fill="#63b8ff" stroke="#63b8ff" points="168.54,-170.54 179.13,-170.92 171.09,-164.02 168.54,-170.54"/>
</g>
<!-- Node4 -->
<g id="node4" class="node">
<title>Node4</title>
<g id="a_node4"><a xlink:href="$struct_num_repr_1_1nat__rat__fixed__reg__t.html#a487d6b76d2e1cb0c18afaf54288e6029" xlink:title=" ">
<polygon fill="white" stroke="#666666" points="282.5,-153 161.5,-153 161.5,-123 282.5,-123 282.5,-153"/>
<text text-anchor="start" x="169.5" y="-141" font-family="Helvetica,sans-Serif" font-size="10.00">NumRepr::nat_rat_fixed</text>
<text text-anchor="middle" x="222" y="-130" font-family="Helvetica,sans-Serif" font-size="10.00">_reg_t::dig_Bm1</text>
</a>
</g>
</g>
<!-- Node1&#45;&gt;Node4 -->
<g id="edge3" class="edge">
<title>Node1&#45;&gt;Node4</title>
<path fill="none" stroke="#63b8ff" d="M121.35,-124.25C131.16,-125.61 141.4,-127.02 151.42,-128.4"/>
<polygon fill="#63b8ff" stroke="#63b8ff" points="150.96,-131.87 161.35,-129.77 151.92,-124.94 150.96,-131.87"/>
</g>
<!-- Node5 -->
<g id="node5" class="node">
<title>Node5</title>
<g id="a_node5"><a xlink:href="$nat__reg__digs__t_01_07_copia_01en_01conflicto_01de_01_m_s_i_012022-11-24_08_8hpp.html#a540a0e700a266a624a295898de9ff8fc" xlink:title=" ">
<polygon fill="white" stroke="#666666" points="239.5,-104.5 204.5,-104.5 204.5,-85.5 239.5,-85.5 239.5,-104.5"/>
<text text-anchor="middle" x="222" y="-92.5" font-family="Helvetica,sans-Serif" font-size="10.00">is_0</text>
</a>
</g>
</g>
<!-- Node1&#45;&gt;Node5 -->
<g id="edge4" class="edge">
<title>Node1&#45;&gt;Node5</title>
<path fill="none" stroke="#63b8ff" d="M121.35,-108.12C146.41,-104.82 174.27,-101.15 194.14,-98.54"/>
<polygon fill="#63b8ff" stroke="#63b8ff" points="194.84,-101.97 204.3,-97.2 193.93,-95.03 194.84,-101.97"/>
</g>
<!-- Node6 -->
<g id="node6" class="node">
<title>Node6</title>
<g id="a_node6"><a xlink:href="$nat__reg__digs__t_01_07_copia_01en_01conflicto_01de_01_m_s_i_012022-11-24_08_8hpp.html#a3fdf457344d84bef1762417b5f5228d2" xlink:title=" ">
<polygon fill="white" stroke="#666666" points="239.5,-67.5 204.5,-67.5 204.5,-48.5 239.5,-48.5 239.5,-67.5"/>
<text text-anchor="middle" x="222" y="-55.5" font-family="Helvetica,sans-Serif" font-size="10.00">is_1</text>
</a>
</g>
</g>
<!-- Node1&#45;&gt;Node6 -->
<g id="edge5" class="edge">
<title>Node1&#45;&gt;Node6</title>
<path fill="none" stroke="#63b8ff" d="M96.11,-100.9C114.1,-93.29 136.56,-84.19 157,-77 169.14,-72.73 182.78,-68.59 194.35,-65.27"/>
<polygon fill="#63b8ff" stroke="#63b8ff" points="195.6,-68.56 204.28,-62.47 193.71,-61.82 195.6,-68.56"/>
</g>
<!-- Node7 -->
<g id="node7" class="node">
<title>Node7</title>
<g id="a_node7"><a xlink:href="$struct_num_repr_1_1nat__rat__fixed__reg__t.html#a05f3a766ce29786655fc99812d550fa6" xlink:title=" ">
<polygon fill="white" stroke="#666666" points="287,-30 157,-30 157,0 287,0 287,-30"/>
<text text-anchor="start" x="165" y="-18" font-family="Helvetica,sans-Serif" font-size="10.00">NumRepr::nat_rat_fixed</text>
<text text-anchor="middle" x="222" y="-7" font-family="Helvetica,sans-Serif" font-size="10.00">_reg_t::pfx_rat_reg_digs_t</text>
</a>
</g>
</g>
<!-- Node1&#45;&gt;Node7 -->
<g id="edge6" class="edge">
<title>Node1&#45;&gt;Node7</title>
<path fill="none" stroke="#63b8ff" d="M77.31,-100.93C95.41,-84.29 126.52,-57.55 157,-40 160.45,-38.01 164.09,-36.12 167.8,-34.33"/>
<polygon fill="#63b8ff" stroke="#63b8ff" points="169.48,-37.41 177.15,-30.1 166.59,-31.04 169.48,-37.41"/>
</g>
<!-- Node7&#45;&gt;Node2 -->
<g id="edge7" class="edge">
<title>Node7&#45;&gt;Node2</title>
<path fill="none" stroke="#63b8ff" d="M267.31,-30.04C274.09,-32.98 280.86,-36.31 287,-40 314.87,-56.74 342.59,-81.71 360.93,-99.7"/>
<polygon fill="#63b8ff" stroke="#63b8ff" points="358.64,-102.35 368.19,-106.93 363.58,-97.39 358.64,-102.35"/>
</g>
</g>
</svg>
