<?xml version="1.0" encoding="UTF-8" standalone="no"?>
<!DOCTYPE svg PUBLIC "-//W3C//DTD SVG 1.1//EN"
 "http://www.w3.org/Graphics/SVG/1.1/DTD/svg11.dtd">
<!-- Generated by graphviz version 2.44.1 (20220725.2034)
 -->
<!-- Title: int_num_t::operator!= Pages: 1 -->
<svg width="389pt" height="55pt"
 viewBox="0.00 0.00 389.00 54.50" xmlns="http://www.w3.org/2000/svg" xmlns:xlink="http://www.w3.org/1999/xlink">
<g id="graph0" class="graph" transform="scale(1 1) rotate(0) translate(4 50.5)">
<title>int_num_t::operator!=</title>
<!-- Node1 -->
<g id="node1" class="node">
<title>Node1</title>
<g id="a_node1"><a xlink:title=" ">
<polygon fill="#999999" stroke="#666666" points="110,-19 0,-19 0,0 110,0 110,-19"/>
<text text-anchor="middle" x="55" y="-7" font-family="Helvetica,sans-Serif" font-size="10.00">int_num_t::operator!=</text>
</a>
</g>
</g>
<!-- Node2 -->
<g id="node2" class="node">
<title>Node2</title>
<g id="a_node2"><a xlink:href="$structint__num__t.html#a55203f0d36573721c63de3837f8d416e" xlink:title=" ">
<polygon fill="white" stroke="#666666" points="245,-46.5 146,-46.5 146,-16.5 245,-16.5 245,-46.5"/>
<text text-anchor="start" x="154" y="-34.5" font-family="Helvetica,sans-Serif" font-size="10.00">int_num_t::digs_no</text>
<text text-anchor="middle" x="195.5" y="-23.5" font-family="Helvetica,sans-Serif" font-size="10.00">_significativos</text>
</a>
</g>
</g>
<!-- Node1&#45;&gt;Node2 -->
<g id="edge1" class="edge">
<title>Node1&#45;&gt;Node2</title>
<path fill="none" stroke="#63b8ff" d="M110.34,-18.13C118.64,-19.45 127.24,-20.82 135.62,-22.15"/>
<polygon fill="#63b8ff" stroke="#63b8ff" points="135.3,-25.64 145.72,-23.75 136.39,-18.73 135.3,-25.64"/>
</g>
<!-- Node3 -->
<g id="node3" class="node">
<title>Node3</title>
<g id="a_node3"><a xlink:href="$structint__num__t.html#ae209e7a115353db1633459a602d24e0b" xlink:title=" ">
<polygon fill="white" stroke="#666666" points="381,-19 281,-19 281,0 381,0 381,-19"/>
<text text-anchor="middle" x="331" y="-7" font-family="Helvetica,sans-Serif" font-size="10.00">int_num_t::num_int</text>
</a>
</g>
</g>
<!-- Node1&#45;&gt;Node3 -->
<g id="edge4" class="edge">
<title>Node1&#45;&gt;Node3</title>
<path fill="none" stroke="#63b8ff" d="M110.25,-8.1C122.04,-7.85 134.44,-7.63 146,-7.5 190,-7.01 201,-6.98 245,-7.5 253.18,-7.6 261.81,-7.74 270.31,-7.92"/>
<polygon fill="#63b8ff" stroke="#63b8ff" points="270.49,-11.42 280.56,-8.14 270.64,-4.42 270.49,-11.42"/>
</g>
<!-- Node2&#45;&gt;Node3 -->
<g id="edge2" class="edge">
<title>Node2&#45;&gt;Node3</title>
<path fill="none" stroke="#63b8ff" d="M245.07,-23.5C253.43,-22.12 262.2,-20.67 270.81,-19.25"/>
<polygon fill="#63b8ff" stroke="#63b8ff" points="271.49,-22.69 280.79,-17.61 270.35,-15.78 271.49,-22.69"/>
</g>
<!-- Node3&#45;&gt;Node3 -->
<g id="edge3" class="edge">
<title>Node3&#45;&gt;Node3</title>
<path fill="none" stroke="#63b8ff" d="M310.35,-19.08C300.3,-27.73 307.18,-37 331,-37 346.26,-37 354.57,-33.2 355.93,-28.19"/>
<polygon fill="#63b8ff" stroke="#63b8ff" points="359.07,-26.65 351.65,-19.08 352.73,-29.62 359.07,-26.65"/>
</g>
</g>
</svg>
