<?xml version="1.0" encoding="UTF-8" standalone="no"?>
<!DOCTYPE svg PUBLIC "-//W3C//DTD SVG 1.1//EN"
 "http://www.w3.org/Graphics/SVG/1.1/DTD/svg11.dtd">
<!-- Generated by graphviz version 2.44.1 (20220725.2034)
 -->
<!-- Title: int_num_t::operator% Pages: 1 -->
<svg width="371pt" height="46pt"
 viewBox="0.00 0.00 371.00 46.00" xmlns="http://www.w3.org/2000/svg" xmlns:xlink="http://www.w3.org/1999/xlink">
<g id="graph0" class="graph" transform="scale(1 1) rotate(0) translate(4 42)">
<title>int_num_t::operator%</title>
<!-- Node1 -->
<g id="node1" class="node">
<title>Node1</title>
<g id="a_node1"><a xlink:title=" ">
<polygon fill="#999999" stroke="#666666" points="110,-19 0,-19 0,0 110,0 110,-19"/>
<text text-anchor="middle" x="55" y="-7" font-family="Helvetica,sans-Serif" font-size="10.00">int_num_t::operator%</text>
</a>
</g>
</g>
<!-- Node2 -->
<g id="node2" class="node">
<title>Node2</title>
<g id="a_node2"><a xlink:href="$structint__num__t.html#a94f6a0a608614642522b2d8fff91aff0" xlink:title=" ">
<polygon fill="white" stroke="#666666" points="227,-38 146,-38 146,-19 227,-19 227,-38"/>
<text text-anchor="middle" x="186.5" y="-26" font-family="Helvetica,sans-Serif" font-size="10.00">int_num_t::abs</text>
</a>
</g>
</g>
<!-- Node1&#45;&gt;Node2 -->
<g id="edge1" class="edge">
<title>Node1&#45;&gt;Node2</title>
<path fill="none" stroke="#63b8ff" d="M110.17,-17.45C118.64,-18.69 127.37,-19.97 135.74,-21.2"/>
<polygon fill="#63b8ff" stroke="#63b8ff" points="135.33,-24.68 145.73,-22.67 136.35,-17.75 135.33,-24.68"/>
</g>
<!-- Node3 -->
<g id="node3" class="node">
<title>Node3</title>
<g id="a_node3"><a xlink:href="$structint__num__t.html#ae209e7a115353db1633459a602d24e0b" xlink:title=" ">
<polygon fill="white" stroke="#666666" points="363,-19 263,-19 263,0 363,0 363,-19"/>
<text text-anchor="middle" x="313" y="-7" font-family="Helvetica,sans-Serif" font-size="10.00">int_num_t::num_int</text>
</a>
</g>
</g>
<!-- Node1&#45;&gt;Node3 -->
<g id="edge4" class="edge">
<title>Node1&#45;&gt;Node3</title>
<path fill="none" stroke="#63b8ff" d="M110.29,-9.5C152.14,-9.5 209.94,-9.5 252.94,-9.5"/>
<polygon fill="#63b8ff" stroke="#63b8ff" points="252.98,-13 262.98,-9.5 252.98,-6 252.98,-13"/>
</g>
<!-- Node2&#45;&gt;Node3 -->
<g id="edge2" class="edge">
<title>Node2&#45;&gt;Node3</title>
<path fill="none" stroke="#63b8ff" d="M227.23,-22.44C235.32,-21.2 243.98,-19.88 252.58,-18.57"/>
<polygon fill="#63b8ff" stroke="#63b8ff" points="253.24,-22.01 262.59,-17.04 252.18,-15.09 253.24,-22.01"/>
</g>
<!-- Node3&#45;&gt;Node3 -->
<g id="edge3" class="edge">
<title>Node3&#45;&gt;Node3</title>
<path fill="none" stroke="#63b8ff" d="M293.58,-19.08C284.13,-27.73 290.61,-37 313,-37 327,-37 334.77,-33.38 336.33,-28.55"/>
<polygon fill="#63b8ff" stroke="#63b8ff" points="339.47,-26.99 332.42,-19.08 333,-29.66 339.47,-26.99"/>
</g>
</g>
</svg>
