<?xml version="1.0" encoding="UTF-8" standalone="no"?>
<!DOCTYPE svg PUBLIC "-//W3C//DTD SVG 1.1//EN"
 "http://www.w3.org/Graphics/SVG/1.1/DTD/svg11.dtd">
<!-- Generated by graphviz version 2.44.1 (20220725.2034)
 -->
<!-- Title: NumRepr::dig_t::mult_inv Pages: 1 -->
<svg width="273pt" height="64pt"
 viewBox="0.00 0.00 273.00 64.00" xmlns="http://www.w3.org/2000/svg" xmlns:xlink="http://www.w3.org/1999/xlink">
<g id="graph0" class="graph" transform="scale(1 1) rotate(0) translate(4 60)">
<title>NumRepr::dig_t::mult_inv</title>
<!-- Node1 -->
<g id="node1" class="node">
<title>Node1</title>
<g id="a_node1"><a xlink:title=" ">
<polygon fill="#999999" stroke="#666666" points="128,-37 0,-37 0,-18 128,-18 128,-37"/>
<text text-anchor="middle" x="64" y="-25" font-family="Helvetica,sans-Serif" font-size="10.00">NumRepr::dig_t::mult_inv</text>
</a>
</g>
</g>
<!-- Node2 -->
<g id="node2" class="node">
<title>Node2</title>
<g id="a_node2"><a xlink:href="$namespace_num_repr.html#a46e6abf96f0de3f606c367f6217adfc5" xlink:title="DEFINCION DE template&lt;uint128_t Radix&gt; digito_t{};.">
<polygon fill="white" stroke="#666666" points="265,-56 164,-56 164,-37 265,-37 265,-56"/>
<text text-anchor="middle" x="214.5" y="-44" font-family="Helvetica,sans-Serif" font-size="10.00">NumRepr::dig_max</text>
</a>
</g>
</g>
<!-- Node1&#45;&gt;Node2 -->
<g id="edge1" class="edge">
<title>Node1&#45;&gt;Node2</title>
<path fill="none" stroke="#63b8ff" d="M128.41,-35.61C136.81,-36.69 145.41,-37.79 153.75,-38.86"/>
<polygon fill="#63b8ff" stroke="#63b8ff" points="153.41,-42.34 163.77,-40.14 154.3,-35.4 153.41,-42.34"/>
</g>
<!-- Node3 -->
<g id="node3" class="node">
<title>Node3</title>
<g id="a_node3"><a xlink:href="$nat__reg__digs__t_01_07_copia_01en_01conflicto_01de_01_m_s_i_012022-11-24_08_8hpp.html#a3fdf457344d84bef1762417b5f5228d2" xlink:title=" ">
<polygon fill="white" stroke="#666666" points="232,-19 197,-19 197,0 232,0 232,-19"/>
<text text-anchor="middle" x="214.5" y="-7" font-family="Helvetica,sans-Serif" font-size="10.00">is_1</text>
</a>
</g>
</g>
<!-- Node1&#45;&gt;Node3 -->
<g id="edge2" class="edge">
<title>Node1&#45;&gt;Node3</title>
<path fill="none" stroke="#63b8ff" d="M128.41,-19.81C148.78,-17.35 170.26,-14.74 186.54,-12.77"/>
<polygon fill="#63b8ff" stroke="#63b8ff" points="187.4,-16.19 196.91,-11.51 186.56,-9.24 187.4,-16.19"/>
</g>
</g>
</svg>
