<?xml version="1.0" encoding="UTF-8" standalone="no"?>
<!DOCTYPE svg PUBLIC "-//W3C//DTD SVG 1.1//EN"
 "http://www.w3.org/Graphics/SVG/1.1/DTD/svg11.dtd">
<!-- Generated by graphviz version 2.44.1 (20220725.2034)
 -->
<!-- Title: NumRepr::nat_rat_fixed_reg_t::subst Pages: 1 -->
<svg width="452pt" height="101pt"
 viewBox="0.00 0.00 452.00 100.74" xmlns="http://www.w3.org/2000/svg" xmlns:xlink="http://www.w3.org/1999/xlink">
<g id="graph0" class="graph" transform="scale(1 1) rotate(0) translate(4 96.74)">
<title>NumRepr::nat_rat_fixed_reg_t::subst</title>
<!-- Node1 -->
<g id="node1" class="node">
<title>Node1</title>
<g id="a_node1"><a xlink:title=" ">
<polygon fill="#999999" stroke="#666666" points="121,-78 0,-78 0,-48 121,-48 121,-78"/>
<text text-anchor="start" x="8" y="-66" font-family="Helvetica,sans-Serif" font-size="10.00">NumRepr::nat_rat_fixed</text>
<text text-anchor="middle" x="60.5" y="-55" font-family="Helvetica,sans-Serif" font-size="10.00">_reg_t::subst</text>
</a>
</g>
</g>
<!-- Node2 -->
<g id="node2" class="node">
<title>Node2</title>
<g id="a_node2"><a xlink:href="$struct_num_repr_1_1nat__rat__fixed__reg__t.html#a235bc4a9ae726bbf7c7d5933d9a62b2e" xlink:title=" ">
<polygon fill="white" stroke="#666666" points="444,-75 323,-75 323,-45 444,-45 444,-75"/>
<text text-anchor="start" x="331" y="-63" font-family="Helvetica,sans-Serif" font-size="10.00">NumRepr::nat_rat_fixed</text>
<text text-anchor="middle" x="383.5" y="-52" font-family="Helvetica,sans-Serif" font-size="10.00">_reg_t::dig_0</text>
</a>
</g>
</g>
<!-- Node1&#45;&gt;Node2 -->
<g id="edge1" class="edge">
<title>Node1&#45;&gt;Node2</title>
<path fill="none" stroke="#63b8ff" d="M111.61,-78.06C126.12,-81.74 142.07,-85.15 157,-87 214.34,-94.09 229.77,-94.93 287,-87 300.87,-85.08 315.56,-81.65 329.15,-77.88"/>
<polygon fill="#63b8ff" stroke="#63b8ff" points="330.19,-81.22 338.82,-75.08 328.24,-74.49 330.19,-81.22"/>
</g>
<!-- Node3 -->
<g id="node3" class="node">
<title>Node3</title>
<g id="a_node3"><a xlink:href="$struct_num_repr_1_1nat__rat__fixed__reg__t.html#a487d6b76d2e1cb0c18afaf54288e6029" xlink:title=" ">
<polygon fill="white" stroke="#666666" points="282.5,-78 161.5,-78 161.5,-48 282.5,-48 282.5,-78"/>
<text text-anchor="start" x="169.5" y="-66" font-family="Helvetica,sans-Serif" font-size="10.00">NumRepr::nat_rat_fixed</text>
<text text-anchor="middle" x="222" y="-55" font-family="Helvetica,sans-Serif" font-size="10.00">_reg_t::dig_Bm1</text>
</a>
</g>
</g>
<!-- Node1&#45;&gt;Node3 -->
<g id="edge2" class="edge">
<title>Node1&#45;&gt;Node3</title>
<path fill="none" stroke="#63b8ff" d="M121.35,-63C131.06,-63 141.19,-63 151.11,-63"/>
<polygon fill="#63b8ff" stroke="#63b8ff" points="151.35,-66.5 161.35,-63 151.35,-59.5 151.35,-66.5"/>
</g>
<!-- Node4 -->
<g id="node4" class="node">
<title>Node4</title>
<g id="a_node4"><a xlink:href="$struct_num_repr_1_1nat__rat__fixed__reg__t.html#a05f3a766ce29786655fc99812d550fa6" xlink:title=" ">
<polygon fill="white" stroke="#666666" points="287,-30 157,-30 157,0 287,0 287,-30"/>
<text text-anchor="start" x="165" y="-18" font-family="Helvetica,sans-Serif" font-size="10.00">NumRepr::nat_rat_fixed</text>
<text text-anchor="middle" x="222" y="-7" font-family="Helvetica,sans-Serif" font-size="10.00">_reg_t::pfx_rat_reg_digs_t</text>
</a>
</g>
</g>
<!-- Node1&#45;&gt;Node4 -->
<g id="edge3" class="edge">
<title>Node1&#45;&gt;Node4</title>
<path fill="none" stroke="#63b8ff" d="M111.53,-47.94C127.27,-43.21 144.8,-37.93 161.15,-33.01"/>
<polygon fill="#63b8ff" stroke="#63b8ff" points="162.58,-36.24 171.15,-30 160.56,-29.53 162.58,-36.24"/>
</g>
<!-- Node4&#45;&gt;Node2 -->
<g id="edge4" class="edge">
<title>Node4&#45;&gt;Node2</title>
<path fill="none" stroke="#63b8ff" d="M276.55,-30.11C290.31,-33.99 305.22,-38.2 319.41,-42.2"/>
<polygon fill="#63b8ff" stroke="#63b8ff" points="318.51,-45.58 329.09,-44.93 320.41,-38.85 318.51,-45.58"/>
</g>
</g>
</svg>
