<?xml version="1.0" encoding="UTF-8" standalone="no"?>
<!DOCTYPE svg PUBLIC "-//W3C//DTD SVG 1.1//EN"
 "http://www.w3.org/Graphics/SVG/1.1/DTD/svg11.dtd">
<!-- Generated by graphviz version 2.44.1 (20220725.2034)
 -->
<!-- Title: int_num_t::divBp Pages: 1 -->
<svg width="234pt" height="45pt"
 viewBox="0.00 0.00 234.00 45.00" xmlns="http://www.w3.org/2000/svg" xmlns:xlink="http://www.w3.org/1999/xlink">
<g id="graph0" class="graph" transform="scale(1 1) rotate(0) translate(4 41)">
<title>int_num_t::divBp</title>
<!-- Node1 -->
<g id="node1" class="node">
<title>Node1</title>
<g id="a_node1"><a xlink:title=" ">
<polygon fill="#999999" stroke="#666666" points="90,-19 0,-19 0,0 90,0 90,-19"/>
<text text-anchor="middle" x="45" y="-7" font-family="Helvetica,sans-Serif" font-size="10.00">int_num_t::divBp</text>
</a>
</g>
</g>
<!-- Node2 -->
<g id="node2" class="node">
<title>Node2</title>
<g id="a_node2"><a xlink:href="$structint__num__t.html#ae209e7a115353db1633459a602d24e0b" xlink:title=" ">
<polygon fill="white" stroke="#666666" points="226,-19 126,-19 126,0 226,0 226,-19"/>
<text text-anchor="middle" x="176" y="-7" font-family="Helvetica,sans-Serif" font-size="10.00">int_num_t::num_int</text>
</a>
</g>
</g>
<!-- Node1&#45;&gt;Node2 -->
<g id="edge1" class="edge">
<title>Node1&#45;&gt;Node2</title>
<path fill="none" stroke="#63b8ff" d="M90.03,-9.5C98.32,-9.5 107.11,-9.5 115.78,-9.5"/>
<polygon fill="#63b8ff" stroke="#63b8ff" points="115.85,-13 125.85,-9.5 115.85,-6 115.85,-13"/>
</g>
<!-- Node2&#45;&gt;Node2 -->
<g id="edge2" class="edge">
<title>Node2&#45;&gt;Node2</title>
<path fill="none" stroke="#63b8ff" d="M155.96,-19.08C146.22,-27.73 152.89,-37 176,-37 190.8,-37 198.86,-33.2 200.18,-28.19"/>
<polygon fill="#63b8ff" stroke="#63b8ff" points="203.36,-26.73 196.04,-19.08 196.99,-29.63 203.36,-26.73"/>
</g>
</g>
</svg>
