<?xml version="1.0" encoding="UTF-8" standalone="no"?>
<!DOCTYPE svg PUBLIC "-//W3C//DTD SVG 1.1//EN"
 "http://www.w3.org/Graphics/SVG/1.1/DTD/svg11.dtd">
<!-- Generated by graphviz version 2.44.1 (20220725.2034)
 -->
<!-- Title: utilities.hpp Pages: 1 -->
<svg width="422pt" height="324pt"
 viewBox="0.00 0.00 421.50 324.00" xmlns="http://www.w3.org/2000/svg" xmlns:xlink="http://www.w3.org/1999/xlink">
<g id="graph0" class="graph" transform="scale(1 1) rotate(0) translate(4 320)">
<title>utilities.hpp</title>
<!-- Node1 -->
<g id="node1" class="node">
<title>Node1</title>
<g id="a_node1"><a xlink:title=" ">
<polygon fill="#999999" stroke="#666666" points="228.5,-316 162.5,-316 162.5,-297 228.5,-297 228.5,-316"/>
<text text-anchor="middle" x="195.5" y="-304" font-family="Helvetica,sans-Serif" font-size="10.00">utilities.hpp</text>
</a>
</g>
</g>
<!-- Node2 -->
<g id="node2" class="node">
<title>Node2</title>
<g id="a_node2"><a xlink:href="$nat__rat__fixed__reg__t_8hpp.html" xlink:title=" ">
<polygon fill="white" stroke="#666666" points="119,-129 0,-129 0,-110 119,-110 119,-129"/>
<text text-anchor="middle" x="59.5" y="-117" font-family="Helvetica,sans-Serif" font-size="10.00">nat_rat_fixed_reg_t.hpp</text>
</a>
</g>
</g>
<!-- Node1&#45;&gt;Node2 -->
<g id="edge1" class="edge">
<title>Node1&#45;&gt;Node2</title>
<path fill="none" stroke="#63b8ff" d="M152.15,-302.27C123.62,-297.69 88.05,-286.78 68.5,-261 37.78,-220.49 51.04,-153.06 57.09,-129.19"/>
<polygon fill="#63b8ff" stroke="#63b8ff" points="151.91,-305.78 162.3,-303.69 152.88,-298.84 151.91,-305.78"/>
</g>
<!-- Node3 -->
<g id="node3" class="node">
<title>Node3</title>
<g id="a_node3"><a xlink:href="$nat__reg__digs__t_01_07_copia_01en_01conflicto_01de_01_m_s_i_012022-11-24_08_8hpp.html" xlink:title=" ">
<polygon fill="white" stroke="#666666" points="189.5,-261 77.5,-261 77.5,-220 189.5,-220 189.5,-261"/>
<text text-anchor="start" x="85.5" y="-249" font-family="Helvetica,sans-Serif" font-size="10.00">nat_reg_digs_t (Copia</text>
<text text-anchor="start" x="85.5" y="-238" font-family="Helvetica,sans-Serif" font-size="10.00"> en conflicto de MSI</text>
<text text-anchor="middle" x="133.5" y="-227" font-family="Helvetica,sans-Serif" font-size="10.00"> 2022&#45;11&#45;24).hpp</text>
</a>
</g>
</g>
<!-- Node1&#45;&gt;Node3 -->
<g id="edge2" class="edge">
<title>Node1&#45;&gt;Node3</title>
<path fill="none" stroke="#63b8ff" d="M180.12,-289.62C171.73,-280.97 161.28,-270.18 152.4,-261.01"/>
<polygon fill="#63b8ff" stroke="#63b8ff" points="177.67,-292.12 187.14,-296.87 182.69,-287.25 177.67,-292.12"/>
</g>
<!-- Node4 -->
<g id="node4" class="node">
<title>Node4</title>
<g id="a_node4"><a xlink:href="$nat__reg__digs__t_8hpp.html" xlink:title=" ">
<polygon fill="white" stroke="#666666" points="307,-250 208,-250 208,-231 307,-231 307,-250"/>
<text text-anchor="middle" x="257.5" y="-238" font-family="Helvetica,sans-Serif" font-size="10.00">nat_reg_digs_t.hpp</text>
</a>
</g>
</g>
<!-- Node1&#45;&gt;Node4 -->
<g id="edge3" class="edge">
<title>Node1&#45;&gt;Node4</title>
<path fill="none" stroke="#63b8ff" d="M211.02,-289.48C222.99,-277.12 239.1,-260.49 248.87,-250.41"/>
<polygon fill="#63b8ff" stroke="#63b8ff" points="208.31,-287.25 203.86,-296.87 213.33,-292.12 208.31,-287.25"/>
</g>
<!-- Node9 -->
<g id="node9" class="node">
<title>Node9</title>
<g id="a_node9"><a xlink:href="$reg__digs__t_8hpp.html" xlink:title=" ">
<polygon fill="white" stroke="#666666" points="405.5,-250 325.5,-250 325.5,-231 405.5,-231 405.5,-250"/>
<text text-anchor="middle" x="365.5" y="-238" font-family="Helvetica,sans-Serif" font-size="10.00">reg_digs_t.hpp</text>
</a>
</g>
</g>
<!-- Node1&#45;&gt;Node9 -->
<g id="edge10" class="edge">
<title>Node1&#45;&gt;Node9</title>
<path fill="none" stroke="#63b8ff" d="M228.71,-293.55C253.07,-284.72 286.92,-272.32 316.5,-261 325.56,-257.53 335.52,-253.59 344.08,-250.17"/>
<polygon fill="#63b8ff" stroke="#63b8ff" points="227.43,-290.29 219.22,-296.99 229.81,-296.88 227.43,-290.29"/>
</g>
<!-- Node5 -->
<g id="node5" class="node">
<title>Node5</title>
<g id="a_node5"><a xlink:href="$int__reg__digs__t_8hpp.html" xlink:title=" ">
<polygon fill="white" stroke="#666666" points="259.5,-184 163.5,-184 163.5,-165 259.5,-165 259.5,-184"/>
<text text-anchor="middle" x="211.5" y="-172" font-family="Helvetica,sans-Serif" font-size="10.00">int_reg_digs_t.hpp</text>
</a>
</g>
</g>
<!-- Node4&#45;&gt;Node5 -->
<g id="edge4" class="edge">
<title>Node4&#45;&gt;Node5</title>
<path fill="none" stroke="#63b8ff" d="M245.22,-222.41C236.42,-210.18 224.94,-194.2 217.9,-184.41"/>
<polygon fill="#63b8ff" stroke="#63b8ff" points="242.62,-224.79 251.3,-230.87 248.3,-220.71 242.62,-224.79"/>
</g>
<!-- Node5&#45;&gt;Node2 -->
<g id="edge9" class="edge">
<title>Node5&#45;&gt;Node2</title>
<path fill="none" stroke="#63b8ff" d="M177.57,-161.67C149.23,-151.79 109.48,-137.93 84.11,-129.08"/>
<polygon fill="#63b8ff" stroke="#63b8ff" points="176.48,-165 187.08,-164.98 178.79,-158.39 176.48,-165"/>
</g>
<!-- Node6 -->
<g id="node6" class="node">
<title>Node6</title>
<g id="a_node6"><a xlink:href="$base__num__t_8hpp.html" xlink:title=" ">
<polygon fill="white" stroke="#666666" points="246,-129 157,-129 157,-110 246,-110 246,-129"/>
<text text-anchor="middle" x="201.5" y="-117" font-family="Helvetica,sans-Serif" font-size="10.00">base_num_t.hpp</text>
</a>
</g>
</g>
<!-- Node5&#45;&gt;Node6 -->
<g id="edge5" class="edge">
<title>Node5&#45;&gt;Node6</title>
<path fill="none" stroke="#63b8ff" d="M207.95,-154.66C206.3,-145.93 204.42,-135.99 203.12,-129.09"/>
<polygon fill="#63b8ff" stroke="#63b8ff" points="204.56,-155.57 209.85,-164.75 211.43,-154.27 204.56,-155.57"/>
</g>
<!-- Node8 -->
<g id="node8" class="node">
<title>Node8</title>
<g id="a_node8"><a xlink:href="$int__num__t_8hpp.html" xlink:title=" ">
<polygon fill="white" stroke="#666666" points="276.5,-19 198.5,-19 198.5,0 276.5,0 276.5,-19"/>
<text text-anchor="middle" x="237.5" y="-7" font-family="Helvetica,sans-Serif" font-size="10.00">int_num_t.hpp</text>
</a>
</g>
</g>
<!-- Node5&#45;&gt;Node8 -->
<g id="edge8" class="edge">
<title>Node5&#45;&gt;Node8</title>
<path fill="none" stroke="#63b8ff" d="M231.74,-158.57C240.5,-150.84 249.81,-140.59 254.5,-129 270.16,-90.27 250.75,-39.31 241.68,-19.2"/>
<polygon fill="#63b8ff" stroke="#63b8ff" points="229.5,-155.88 223.99,-164.93 233.94,-161.29 229.5,-155.88"/>
</g>
<!-- Node7 -->
<g id="node7" class="node">
<title>Node7</title>
<g id="a_node7"><a xlink:href="$nat__num__t_8hpp.html" xlink:title=" ">
<polygon fill="white" stroke="#666666" points="244,-74 163,-74 163,-55 244,-55 244,-74"/>
<text text-anchor="middle" x="203.5" y="-62" font-family="Helvetica,sans-Serif" font-size="10.00">nat_num_t.hpp</text>
</a>
</g>
</g>
<!-- Node6&#45;&gt;Node7 -->
<g id="edge6" class="edge">
<title>Node6&#45;&gt;Node7</title>
<path fill="none" stroke="#63b8ff" d="M202.21,-99.66C202.54,-90.93 202.92,-80.99 203.18,-74.09"/>
<polygon fill="#63b8ff" stroke="#63b8ff" points="198.71,-99.62 201.83,-109.75 205.7,-99.89 198.71,-99.62"/>
</g>
<!-- Node7&#45;&gt;Node8 -->
<g id="edge7" class="edge">
<title>Node7&#45;&gt;Node8</title>
<path fill="none" stroke="#63b8ff" d="M214.66,-46.1C220.47,-37.04 227.32,-26.37 231.99,-19.09"/>
<polygon fill="#63b8ff" stroke="#63b8ff" points="211.57,-44.44 209.11,-54.75 217.46,-48.22 211.57,-44.44"/>
</g>
<!-- Node10 -->
<g id="node10" class="node">
<title>Node10</title>
<g id="a_node10"><a xlink:href="$pruebas__dig__t_8cpp.html" xlink:title=" ">
<polygon fill="white" stroke="#666666" points="413.5,-184 317.5,-184 317.5,-165 413.5,-165 413.5,-184"/>
<text text-anchor="middle" x="365.5" y="-172" font-family="Helvetica,sans-Serif" font-size="10.00">pruebas_dig_t.cpp</text>
</a>
</g>
</g>
<!-- Node9&#45;&gt;Node10 -->
<g id="edge11" class="edge">
<title>Node9&#45;&gt;Node10</title>
<path fill="none" stroke="#63b8ff" d="M365.5,-220.58C365.5,-208.63 365.5,-193.72 365.5,-184.41"/>
<polygon fill="#63b8ff" stroke="#63b8ff" points="362,-220.87 365.5,-230.87 369,-220.87 362,-220.87"/>
</g>
</g>
</svg>
