<?xml version="1.0" encoding="UTF-8" standalone="no"?>
<!DOCTYPE svg PUBLIC "-//W3C//DTD SVG 1.1//EN"
 "http://www.w3.org/Graphics/SVG/1.1/DTD/svg11.dtd">
<!-- Generated by graphviz version 2.44.1 (20220725.2034)
 -->
<!-- Title: auxiliary_types.hpp Pages: 1 -->
<svg width="1296pt" height="137pt"
 viewBox="0.00 0.00 1295.50 137.00" xmlns="http://www.w3.org/2000/svg" xmlns:xlink="http://www.w3.org/1999/xlink">
<g id="graph0" class="graph" transform="scale(1 1) rotate(0) translate(4 133)">
<title>auxiliary_types.hpp</title>
<!-- Node1 -->
<g id="node1" class="node">
<title>Node1</title>
<g id="a_node1"><a xlink:title=" ">
<polygon fill="#999999" stroke="#666666" points="730.5,-129 629.5,-129 629.5,-110 730.5,-110 730.5,-129"/>
<text text-anchor="middle" x="680" y="-117" font-family="Helvetica,sans-Serif" font-size="10.00">auxiliary_types.hpp</text>
</a>
</g>
</g>
<!-- Node2 -->
<g id="node2" class="node">
<title>Node2</title>
<g id="a_node2"><a xlink:href="basic__types_8hpp.html" target="_top" xlink:title=" ">
<polygon fill="white" stroke="#666666" points="724,-74 636,-74 636,-55 724,-55 724,-74"/>
<text text-anchor="middle" x="680" y="-62" font-family="Helvetica,sans-Serif" font-size="10.00">basic_types.hpp</text>
</a>
</g>
</g>
<!-- Node1&#45;&gt;Node2 -->
<g id="edge1" class="edge">
<title>Node1&#45;&gt;Node2</title>
<path fill="none" stroke="#63b8ff" d="M680,-109.75C680,-102.8 680,-92.85 680,-84.13"/>
<polygon fill="#63b8ff" stroke="#63b8ff" points="683.5,-84.09 680,-74.09 676.5,-84.09 683.5,-84.09"/>
</g>
<!-- Node3 -->
<g id="node3" class="node">
<title>Node3</title>
<g id="a_node3"><a xlink:title=" ">
<polygon fill="#e0e0e0" stroke="#999999" points="46,-19 0,-19 0,0 46,0 46,-19"/>
<text text-anchor="middle" x="23" y="-7" font-family="Helvetica,sans-Serif" font-size="10.00">cstdint</text>
</a>
</g>
</g>
<!-- Node2&#45;&gt;Node3 -->
<g id="edge2" class="edge">
<title>Node2&#45;&gt;Node3</title>
<path fill="none" stroke="#63b8ff" d="M635.71,-63.2C534.47,-61.92 278.32,-55.19 56.19,-18.87"/>
<polygon fill="#63b8ff" stroke="#63b8ff" points="56.75,-15.42 46.31,-17.23 55.6,-22.32 56.75,-15.42"/>
</g>
<!-- Node4 -->
<g id="node4" class="node">
<title>Node4</title>
<g id="a_node4"><a xlink:title=" ">
<polygon fill="#e0e0e0" stroke="#999999" points="126,-19 64,-19 64,0 126,0 126,-19"/>
<text text-anchor="middle" x="95" y="-7" font-family="Helvetica,sans-Serif" font-size="10.00">type_traits</text>
</a>
</g>
</g>
<!-- Node2&#45;&gt;Node4 -->
<g id="edge3" class="edge">
<title>Node2&#45;&gt;Node4</title>
<path fill="none" stroke="#63b8ff" d="M635.99,-61.82C544.62,-57.91 327.63,-46.5 136.33,-19.01"/>
<polygon fill="#63b8ff" stroke="#63b8ff" points="136.77,-15.54 126.37,-17.56 135.77,-22.47 136.77,-15.54"/>
</g>
<!-- Node5 -->
<g id="node5" class="node">
<title>Node5</title>
<g id="a_node5"><a xlink:title=" ">
<polygon fill="#e0e0e0" stroke="#999999" points="194,-19 144,-19 144,0 194,0 194,-19"/>
<text text-anchor="middle" x="169" y="-7" font-family="Helvetica,sans-Serif" font-size="10.00">optional</text>
</a>
</g>
</g>
<!-- Node2&#45;&gt;Node5 -->
<g id="edge4" class="edge">
<title>Node2&#45;&gt;Node5</title>
<path fill="none" stroke="#63b8ff" d="M635.98,-61.63C553.23,-57.64 368.8,-46.44 204.46,-18.99"/>
<polygon fill="#63b8ff" stroke="#63b8ff" points="204.61,-15.46 194.16,-17.24 203.43,-22.37 204.61,-15.46"/>
</g>
<!-- Node6 -->
<g id="node6" class="node">
<title>Node6</title>
<g id="a_node6"><a xlink:title=" ">
<polygon fill="#e0e0e0" stroke="#999999" points="266,-19 212,-19 212,0 266,0 266,-19"/>
<text text-anchor="middle" x="239" y="-7" font-family="Helvetica,sans-Serif" font-size="10.00">compare</text>
</a>
</g>
</g>
<!-- Node2&#45;&gt;Node6 -->
<g id="edge5" class="edge">
<title>Node2&#45;&gt;Node6</title>
<path fill="none" stroke="#63b8ff" d="M635.7,-60.42C562.78,-54.95 412.74,-42.08 276.27,-19.01"/>
<polygon fill="#63b8ff" stroke="#63b8ff" points="276.5,-15.5 266.05,-17.26 275.32,-22.4 276.5,-15.5"/>
</g>
<!-- Node7 -->
<g id="node7" class="node">
<title>Node7</title>
<g id="a_node7"><a xlink:title=" ">
<polygon fill="#e0e0e0" stroke="#999999" points="340,-19 284,-19 284,0 340,0 340,-19"/>
<text text-anchor="middle" x="312" y="-7" font-family="Helvetica,sans-Serif" font-size="10.00">concepts</text>
</a>
</g>
</g>
<!-- Node2&#45;&gt;Node7 -->
<g id="edge6" class="edge">
<title>Node2&#45;&gt;Node7</title>
<path fill="none" stroke="#63b8ff" d="M635.89,-58.88C574.18,-52.13 458.4,-38.42 350.32,-19.09"/>
<polygon fill="#63b8ff" stroke="#63b8ff" points="350.69,-15.6 340.23,-17.27 349.44,-22.49 350.69,-15.6"/>
</g>
<!-- Node8 -->
<g id="node8" class="node">
<title>Node8</title>
<g id="a_node8"><a xlink:title=" ">
<polygon fill="#e0e0e0" stroke="#999999" points="412,-19 358,-19 358,0 412,0 412,-19"/>
<text text-anchor="middle" x="385" y="-7" font-family="Helvetica,sans-Serif" font-size="10.00">iostream</text>
</a>
</g>
</g>
<!-- Node2&#45;&gt;Node8 -->
<g id="edge7" class="edge">
<title>Node2&#45;&gt;Node8</title>
<path fill="none" stroke="#63b8ff" d="M635.85,-56.77C586.2,-49 502.93,-35.42 421.95,-19.09"/>
<polygon fill="#63b8ff" stroke="#63b8ff" points="422.58,-15.65 412.09,-17.08 421.19,-22.51 422.58,-15.65"/>
</g>
<!-- Node9 -->
<g id="node9" class="node">
<title>Node9</title>
<g id="a_node9"><a xlink:title=" ">
<polygon fill="#e0e0e0" stroke="#999999" points="476,-19 430,-19 430,0 476,0 476,-19"/>
<text text-anchor="middle" x="453" y="-7" font-family="Helvetica,sans-Serif" font-size="10.00">cstring</text>
</a>
</g>
</g>
<!-- Node2&#45;&gt;Node9 -->
<g id="edge8" class="edge">
<title>Node2&#45;&gt;Node9</title>
<path fill="none" stroke="#63b8ff" d="M640.69,-54.96C603.32,-46.74 545.3,-33.74 485.96,-19.17"/>
<polygon fill="#63b8ff" stroke="#63b8ff" points="486.59,-15.72 476.05,-16.73 484.92,-22.52 486.59,-15.72"/>
</g>
<!-- Node10 -->
<g id="node10" class="node">
<title>Node10</title>
<g id="a_node10"><a xlink:title=" ">
<polygon fill="#e0e0e0" stroke="#999999" points="535.5,-19 494.5,-19 494.5,0 535.5,0 535.5,-19"/>
<text text-anchor="middle" x="515" y="-7" font-family="Helvetica,sans-Serif" font-size="10.00">string</text>
</a>
</g>
</g>
<!-- Node2&#45;&gt;Node10 -->
<g id="edge9" class="edge">
<title>Node2&#45;&gt;Node10</title>
<path fill="none" stroke="#63b8ff" d="M653.49,-54.98C624.03,-45.52 576.52,-30.26 545.53,-20.31"/>
<polygon fill="#63b8ff" stroke="#63b8ff" points="546.29,-16.87 535.7,-17.15 544.15,-23.54 546.29,-16.87"/>
</g>
<!-- Node11 -->
<g id="node11" class="node">
<title>Node11</title>
<g id="a_node11"><a xlink:title=" ">
<polygon fill="#e0e0e0" stroke="#999999" points="606,-19 554,-19 554,0 606,0 606,-19"/>
<text text-anchor="middle" x="580" y="-7" font-family="Helvetica,sans-Serif" font-size="10.00">sstream</text>
</a>
</g>
</g>
<!-- Node2&#45;&gt;Node11 -->
<g id="edge10" class="edge">
<title>Node2&#45;&gt;Node11</title>
<path fill="none" stroke="#63b8ff" d="M663.93,-54.98C648.14,-46.61 623.78,-33.7 605.37,-23.95"/>
<polygon fill="#63b8ff" stroke="#63b8ff" points="606.83,-20.76 596.36,-19.17 603.56,-26.95 606.83,-20.76"/>
</g>
<!-- Node12 -->
<g id="node12" class="node">
<title>Node12</title>
<g id="a_node12"><a xlink:title=" ">
<polygon fill="#e0e0e0" stroke="#999999" points="674,-19 624,-19 624,0 674,0 674,-19"/>
<text text-anchor="middle" x="649" y="-7" font-family="Helvetica,sans-Serif" font-size="10.00">fstream</text>
</a>
</g>
</g>
<!-- Node2&#45;&gt;Node12 -->
<g id="edge11" class="edge">
<title>Node2&#45;&gt;Node12</title>
<path fill="none" stroke="#63b8ff" d="M674.88,-54.75C670.64,-47.49 664.47,-36.95 659.22,-27.98"/>
<polygon fill="#63b8ff" stroke="#63b8ff" points="662.09,-25.95 654.02,-19.09 656.05,-29.49 662.09,-25.95"/>
</g>
<!-- Node13 -->
<g id="node13" class="node">
<title>Node13</title>
<g id="a_node13"><a xlink:title=" ">
<polygon fill="#e0e0e0" stroke="#999999" points="730,-19 692,-19 692,0 730,0 730,-19"/>
<text text-anchor="middle" x="711" y="-7" font-family="Helvetica,sans-Serif" font-size="10.00">array</text>
</a>
</g>
</g>
<!-- Node2&#45;&gt;Node13 -->
<g id="edge12" class="edge">
<title>Node2&#45;&gt;Node13</title>
<path fill="none" stroke="#63b8ff" d="M685.12,-54.75C689.36,-47.49 695.53,-36.95 700.78,-27.98"/>
<polygon fill="#63b8ff" stroke="#63b8ff" points="703.95,-29.49 705.98,-19.09 697.91,-25.95 703.95,-29.49"/>
</g>
<!-- Node14 -->
<g id="node14" class="node">
<title>Node14</title>
<g id="a_node14"><a xlink:title=" ">
<polygon fill="#e0e0e0" stroke="#999999" points="792,-19 748,-19 748,0 792,0 792,-19"/>
<text text-anchor="middle" x="770" y="-7" font-family="Helvetica,sans-Serif" font-size="10.00">vector</text>
</a>
</g>
</g>
<!-- Node2&#45;&gt;Node14 -->
<g id="edge13" class="edge">
<title>Node2&#45;&gt;Node14</title>
<path fill="none" stroke="#63b8ff" d="M694.46,-54.98C708.42,-46.77 729.79,-34.18 746.25,-24.49"/>
<polygon fill="#63b8ff" stroke="#63b8ff" points="748.44,-27.26 755.28,-19.17 744.88,-21.23 748.44,-27.26"/>
</g>
<!-- Node15 -->
<g id="node15" class="node">
<title>Node15</title>
<g id="a_node15"><a xlink:title=" ">
<polygon fill="#e0e0e0" stroke="#999999" points="839.5,-19 810.5,-19 810.5,0 839.5,0 839.5,-19"/>
<text text-anchor="middle" x="825" y="-7" font-family="Helvetica,sans-Serif" font-size="10.00">list</text>
</a>
</g>
</g>
<!-- Node2&#45;&gt;Node15 -->
<g id="edge14" class="edge">
<title>Node2&#45;&gt;Node15</title>
<path fill="none" stroke="#63b8ff" d="M703.3,-54.98C729.99,-45.23 773.52,-29.32 800.65,-19.4"/>
<polygon fill="#63b8ff" stroke="#63b8ff" points="801.98,-22.64 810.17,-15.92 799.58,-16.07 801.98,-22.64"/>
</g>
<!-- Node16 -->
<g id="node16" class="node">
<title>Node16</title>
<g id="a_node16"><a xlink:title=" ">
<polygon fill="#e0e0e0" stroke="#999999" points="892.5,-19 857.5,-19 857.5,0 892.5,0 892.5,-19"/>
<text text-anchor="middle" x="875" y="-7" font-family="Helvetica,sans-Serif" font-size="10.00">map</text>
</a>
</g>
</g>
<!-- Node2&#45;&gt;Node16 -->
<g id="edge15" class="edge">
<title>Node2&#45;&gt;Node16</title>
<path fill="none" stroke="#63b8ff" d="M714.8,-54.97C747.01,-46.94 796.43,-34.25 847.53,-19.32"/>
<polygon fill="#63b8ff" stroke="#63b8ff" points="848.82,-22.58 857.42,-16.4 846.84,-15.87 848.82,-22.58"/>
</g>
<!-- Node17 -->
<g id="node17" class="node">
<title>Node17</title>
<g id="a_node17"><a xlink:title=" ">
<polygon fill="#e0e0e0" stroke="#999999" points="955.5,-19 910.5,-19 910.5,0 955.5,0 955.5,-19"/>
<text text-anchor="middle" x="933" y="-7" font-family="Helvetica,sans-Serif" font-size="10.00">climits</text>
</a>
</g>
</g>
<!-- Node2&#45;&gt;Node17 -->
<g id="edge16" class="edge">
<title>Node2&#45;&gt;Node17</title>
<path fill="none" stroke="#63b8ff" d="M724,-55.62C766.83,-47.74 833.95,-34.83 900.54,-19.23"/>
<polygon fill="#63b8ff" stroke="#63b8ff" points="901.43,-22.61 910.36,-16.9 899.82,-15.8 901.43,-22.61"/>
</g>
<!-- Node18 -->
<g id="node18" class="node">
<title>Node18</title>
<g id="a_node18"><a xlink:title=" ">
<polygon fill="#e0e0e0" stroke="#999999" points="1024.5,-19 973.5,-19 973.5,0 1024.5,0 1024.5,-19"/>
<text text-anchor="middle" x="999" y="-7" font-family="Helvetica,sans-Serif" font-size="10.00">numeric</text>
</a>
</g>
</g>
<!-- Node2&#45;&gt;Node18 -->
<g id="edge17" class="edge">
<title>Node2&#45;&gt;Node18</title>
<path fill="none" stroke="#63b8ff" d="M724.16,-57.86C778.39,-50.66 873.36,-37.15 963.59,-19.14"/>
<polygon fill="#63b8ff" stroke="#63b8ff" points="964.33,-22.56 973.44,-17.15 962.94,-15.7 964.33,-22.56"/>
</g>
<!-- Node19 -->
<g id="node19" class="node">
<title>Node19</title>
<g id="a_node19"><a xlink:title=" ">
<polygon fill="#e0e0e0" stroke="#999999" points="1083,-19 1043,-19 1043,0 1083,0 1083,-19"/>
<text text-anchor="middle" x="1063" y="-7" font-family="Helvetica,sans-Serif" font-size="10.00">limits</text>
</a>
</g>
</g>
<!-- Node2&#45;&gt;Node19 -->
<g id="edge18" class="edge">
<title>Node2&#45;&gt;Node19</title>
<path fill="none" stroke="#63b8ff" d="M724.25,-60.23C789.79,-54.88 916.6,-42.62 1033.03,-18.89"/>
<polygon fill="#63b8ff" stroke="#63b8ff" points="1033.74,-22.32 1042.82,-16.86 1032.32,-15.46 1033.74,-22.32"/>
</g>
<!-- Node20 -->
<g id="node20" class="node">
<title>Node20</title>
<g id="a_node20"><a xlink:title=" ">
<polygon fill="#e0e0e0" stroke="#999999" points="1145,-19 1101,-19 1101,0 1145,0 1145,-19"/>
<text text-anchor="middle" x="1123" y="-7" font-family="Helvetica,sans-Serif" font-size="10.00">cmath</text>
</a>
</g>
</g>
<!-- Node2&#45;&gt;Node20 -->
<g id="edge19" class="edge">
<title>Node2&#45;&gt;Node20</title>
<path fill="none" stroke="#63b8ff" d="M724.24,-61.05C798.29,-56.45 952.05,-44.73 1090.79,-18.94"/>
<polygon fill="#63b8ff" stroke="#63b8ff" points="1091.57,-22.35 1100.75,-17.06 1090.27,-15.48 1091.57,-22.35"/>
</g>
<!-- Node21 -->
<g id="node21" class="node">
<title>Node21</title>
<g id="a_node21"><a xlink:title=" ">
<polygon fill="#e0e0e0" stroke="#999999" points="1210.5,-19 1163.5,-19 1163.5,0 1210.5,0 1210.5,-19"/>
<text text-anchor="middle" x="1187" y="-7" font-family="Helvetica,sans-Serif" font-size="10.00">iterator</text>
</a>
</g>
</g>
<!-- Node2&#45;&gt;Node21 -->
<g id="edge20" class="edge">
<title>Node2&#45;&gt;Node21</title>
<path fill="none" stroke="#63b8ff" d="M724.09,-61.7C806.5,-57.82 989.55,-46.83 1153.06,-18.86"/>
<polygon fill="#63b8ff" stroke="#63b8ff" points="1154.05,-22.24 1163.3,-17.08 1152.85,-15.35 1154.05,-22.24"/>
</g>
<!-- Node22 -->
<g id="node22" class="node">
<title>Node22</title>
<g id="a_node22"><a xlink:title=" ">
<polygon fill="#e0e0e0" stroke="#999999" points="1287.5,-19 1228.5,-19 1228.5,0 1287.5,0 1287.5,-19"/>
<text text-anchor="middle" x="1258" y="-7" font-family="Helvetica,sans-Serif" font-size="10.00">functional</text>
</a>
</g>
</g>
<!-- Node2&#45;&gt;Node22 -->
<g id="edge21" class="edge">
<title>Node2&#45;&gt;Node22</title>
<path fill="none" stroke="#63b8ff" d="M724.34,-61.92C815.27,-58.22 1029.56,-47.23 1218.11,-19.1"/>
<polygon fill="#63b8ff" stroke="#63b8ff" points="1218.84,-22.53 1228.2,-17.57 1217.79,-15.61 1218.84,-22.53"/>
</g>
</g>
</svg>
