<?xml version="1.0" encoding="UTF-8" standalone="no"?>
<!DOCTYPE svg PUBLIC "-//W3C//DTD SVG 1.1//EN"
 "http://www.w3.org/Graphics/SVG/1.1/DTD/svg11.dtd">
<!-- Generated by graphviz version 2.44.1 (20220725.2034)
 -->
<!-- Title: nat_num_t::operator uint Pages: 1 -->
<svg width="675pt" height="133pt"
 viewBox="0.00 0.00 675.00 132.50" xmlns="http://www.w3.org/2000/svg" xmlns:xlink="http://www.w3.org/1999/xlink">
<g id="graph0" class="graph" transform="scale(1 1) rotate(0) translate(4 128.5)">
<title>nat_num_t::operator uint</title>
<!-- Node1 -->
<g id="node1" class="node">
<title>Node1</title>
<g id="a_node1"><a xlink:title=" ">
<polygon fill="#999999" stroke="#666666" points="122,-19 0,-19 0,0 122,0 122,-19"/>
<text text-anchor="middle" x="61" y="-7" font-family="Helvetica,sans-Serif" font-size="10.00">nat_num_t::operator uint</text>
</a>
</g>
</g>
<!-- Node2 -->
<g id="node2" class="node">
<title>Node2</title>
<g id="a_node2"><a xlink:href="classnat__num__t.html#a5a1e29dfd320bf08016a2f0227621f0d" target="_top" xlink:title=" ">
<polygon fill="white" stroke="#666666" points="256,-57 158,-57 158,-38 256,-38 256,-57"/>
<text text-anchor="middle" x="207" y="-45" font-family="Helvetica,sans-Serif" font-size="10.00">nat_num_t::reduce</text>
</a>
</g>
</g>
<!-- Node1&#45;&gt;Node2 -->
<g id="edge1" class="edge">
<title>Node1&#45;&gt;Node2</title>
<path fill="none" stroke="#63b8ff" d="M98.34,-19.09C117.08,-24.04 140.14,-30.12 160.11,-35.39"/>
<polygon fill="#63b8ff" stroke="#63b8ff" points="159.36,-38.81 169.92,-37.98 161.15,-32.04 159.36,-38.81"/>
</g>
<!-- Node5 -->
<g id="node5" class="node">
<title>Node5</title>
<g id="a_node5"><a xlink:href="classnat__num__t.html#a3f420ff49cf6b55ef38936b2035a4071" target="_top" xlink:title=" ">
<polygon fill="white" stroke="#666666" points="667,-76 581,-76 581,-57 667,-57 667,-76"/>
<text text-anchor="middle" x="624" y="-64" font-family="Helvetica,sans-Serif" font-size="10.00">nat_num_t::size</text>
</a>
</g>
</g>
<!-- Node1&#45;&gt;Node5 -->
<g id="edge7" class="edge">
<title>Node1&#45;&gt;Node5</title>
<path fill="none" stroke="#63b8ff" d="M122.27,-4.85C191.18,-0.61 307.23,3.26 406,-9.5 470.55,-17.84 543.29,-39.58 586.03,-53.67"/>
<polygon fill="#63b8ff" stroke="#63b8ff" points="585.11,-57.05 595.7,-56.9 587.33,-50.41 585.11,-57.05"/>
</g>
<!-- Node3 -->
<g id="node3" class="node">
<title>Node3</title>
<g id="a_node3"><a xlink:href="classnat__num__t.html#a14b63725918fba3ba1f731c3cda4b6ca" target="_top" xlink:title=" ">
<polygon fill="white" stroke="#666666" points="400,-124.5 298,-124.5 298,-94.5 400,-94.5 400,-124.5"/>
<text text-anchor="start" x="306" y="-112.5" font-family="Helvetica,sans-Serif" font-size="10.00">nat_num_t::digs_no</text>
<text text-anchor="middle" x="349" y="-101.5" font-family="Helvetica,sans-Serif" font-size="10.00">_significativos</text>
</a>
</g>
</g>
<!-- Node2&#45;&gt;Node3 -->
<g id="edge2" class="edge">
<title>Node2&#45;&gt;Node3</title>
<path fill="none" stroke="#63b8ff" d="M229.57,-57.05C249.5,-65.88 279.69,-79.25 304.61,-90.28"/>
<polygon fill="#63b8ff" stroke="#63b8ff" points="303.31,-93.54 313.87,-94.38 306.14,-87.13 303.31,-93.54"/>
</g>
<!-- Node2&#45;&gt;Node5 -->
<g id="edge6" class="edge">
<title>Node2&#45;&gt;Node5</title>
<path fill="none" stroke="#63b8ff" d="M256.01,-49.7C334.48,-53.29 489.57,-60.39 570.72,-64.11"/>
<polygon fill="#63b8ff" stroke="#63b8ff" points="570.57,-67.6 580.72,-64.56 570.89,-60.61 570.57,-67.6"/>
</g>
<!-- Node6 -->
<g id="node6" class="node">
<title>Node6</title>
<g id="a_node6"><a xlink:href="classnat__num__t.html#a8f8bdd2355aab6b9b24f4c87cd68f5b7" target="_top" xlink:title=" ">
<polygon fill="white" stroke="#666666" points="406,-38 292,-38 292,-19 406,-19 406,-38"/>
<text text-anchor="middle" x="349" y="-26" font-family="Helvetica,sans-Serif" font-size="10.00">nat_num_t::nat_num_t</text>
</a>
</g>
</g>
<!-- Node2&#45;&gt;Node6 -->
<g id="edge5" class="edge">
<title>Node2&#45;&gt;Node6</title>
<path fill="none" stroke="#63b8ff" d="M256.18,-40.96C264.37,-39.85 273,-38.68 281.55,-37.52"/>
<polygon fill="#63b8ff" stroke="#63b8ff" points="282.1,-40.98 291.54,-36.16 281.16,-34.04 282.1,-40.98"/>
</g>
<!-- Node4 -->
<g id="node4" class="node">
<title>Node4</title>
<g id="a_node4"><a xlink:href="classnat__num__t.html#a2a7eae79a48f9b29a40c9103cfac72d7" target="_top" xlink:title=" ">
<polygon fill="white" stroke="#666666" points="545,-124.5 442,-124.5 442,-94.5 545,-94.5 545,-124.5"/>
<text text-anchor="start" x="450" y="-112.5" font-family="Helvetica,sans-Serif" font-size="10.00">nat_num_t::ceros_a</text>
<text text-anchor="middle" x="493.5" y="-101.5" font-family="Helvetica,sans-Serif" font-size="10.00">_la_izqda</text>
</a>
</g>
</g>
<!-- Node3&#45;&gt;Node4 -->
<g id="edge3" class="edge">
<title>Node3&#45;&gt;Node4</title>
<path fill="none" stroke="#63b8ff" d="M400.24,-109.5C410.34,-109.5 421.05,-109.5 431.47,-109.5"/>
<polygon fill="#63b8ff" stroke="#63b8ff" points="431.75,-113 441.75,-109.5 431.75,-106 431.75,-113"/>
</g>
<!-- Node4&#45;&gt;Node5 -->
<g id="edge4" class="edge">
<title>Node4&#45;&gt;Node5</title>
<path fill="none" stroke="#63b8ff" d="M539.44,-94.46C554.26,-89.5 570.59,-84.04 584.85,-79.27"/>
<polygon fill="#63b8ff" stroke="#63b8ff" points="585.98,-82.58 594.35,-76.09 583.76,-75.94 585.98,-82.58"/>
</g>
</g>
</svg>
