<?xml version="1.0" encoding="UTF-8" standalone="no"?>
<!DOCTYPE svg PUBLIC "-//W3C//DTD SVG 1.1//EN"
 "http://www.w3.org/Graphics/SVG/1.1/DTD/svg11.dtd">
<!-- Generated by graphviz version 2.44.1 (20220725.2034)
 -->
<!-- Title: nat_num_t::operator= Pages: 1 -->
<svg width="681pt" height="139pt"
 viewBox="0.00 0.00 681.00 139.00" xmlns="http://www.w3.org/2000/svg" xmlns:xlink="http://www.w3.org/1999/xlink">
<g id="graph0" class="graph" transform="scale(1 1) rotate(0) translate(4 135)">
<title>nat_num_t::operator=</title>
<!-- Node1 -->
<g id="node1" class="node">
<title>Node1</title>
<g id="a_node1"><a xlink:title=" ">
<polygon fill="#999999" stroke="#666666" points="110,-94 0,-94 0,-75 110,-75 110,-94"/>
<text text-anchor="middle" x="55" y="-82" font-family="Helvetica,sans-Serif" font-size="10.00">nat_num_t::operator=</text>
</a>
</g>
</g>
<!-- Node2 -->
<g id="node2" class="node">
<title>Node2</title>
<g id="a_node2"><a xlink:href="classnat__num__t.html#a296e66bafb159169f28cab2ef1357f14" target="_top" xlink:title=" ">
<polygon fill="white" stroke="#666666" points="248.5,-131 159.5,-131 159.5,-112 248.5,-112 248.5,-131"/>
<text text-anchor="middle" x="204" y="-119" font-family="Helvetica,sans-Serif" font-size="10.00">nat_num_t::clear</text>
</a>
</g>
</g>
<!-- Node1&#45;&gt;Node2 -->
<g id="edge1" class="edge">
<title>Node1&#45;&gt;Node2</title>
<path fill="none" stroke="#63b8ff" d="M93.86,-94.03C112.56,-98.74 135.32,-104.47 155.22,-109.47"/>
<polygon fill="#63b8ff" stroke="#63b8ff" points="154.47,-112.89 165.02,-111.94 156.17,-106.1 154.47,-112.89"/>
</g>
<!-- Node3 -->
<g id="node3" class="node">
<title>Node3</title>
<g id="a_node3"><a xlink:href="classnat__num__t.html#aef1019272164e14682dc667e158afa53" target="_top" xlink:title=" ">
<polygon fill="white" stroke="#666666" points="262,-94 146,-94 146,-75 262,-75 262,-94"/>
<text text-anchor="middle" x="204" y="-82" font-family="Helvetica,sans-Serif" font-size="10.00">nat_num_t::push_back</text>
</a>
</g>
</g>
<!-- Node1&#45;&gt;Node3 -->
<g id="edge2" class="edge">
<title>Node1&#45;&gt;Node3</title>
<path fill="none" stroke="#63b8ff" d="M110.32,-84.5C118.58,-84.5 127.18,-84.5 135.67,-84.5"/>
<polygon fill="#63b8ff" stroke="#63b8ff" points="135.95,-88 145.95,-84.5 135.95,-81 135.95,-88"/>
</g>
<!-- Node4 -->
<g id="node4" class="node">
<title>Node4</title>
<g id="a_node4"><a xlink:href="classnat__num__t.html#a5a1e29dfd320bf08016a2f0227621f0d" target="_top" xlink:title=" ">
<polygon fill="white" stroke="#666666" points="253,-57 155,-57 155,-38 253,-38 253,-57"/>
<text text-anchor="middle" x="204" y="-45" font-family="Helvetica,sans-Serif" font-size="10.00">nat_num_t::reduce</text>
</a>
</g>
</g>
<!-- Node1&#45;&gt;Node4 -->
<g id="edge3" class="edge">
<title>Node1&#45;&gt;Node4</title>
<path fill="none" stroke="#63b8ff" d="M93.86,-74.97C112.56,-70.26 135.32,-64.53 155.22,-59.53"/>
<polygon fill="#63b8ff" stroke="#63b8ff" points="156.17,-62.9 165.02,-57.06 154.47,-56.11 156.17,-62.9"/>
</g>
<!-- Node5 -->
<g id="node5" class="node">
<title>Node5</title>
<g id="a_node5"><a xlink:href="classnat__num__t.html#a14b63725918fba3ba1f731c3cda4b6ca" target="_top" xlink:title=" ">
<polygon fill="white" stroke="#666666" points="406,-105.5 304,-105.5 304,-75.5 406,-75.5 406,-105.5"/>
<text text-anchor="start" x="312" y="-93.5" font-family="Helvetica,sans-Serif" font-size="10.00">nat_num_t::digs_no</text>
<text text-anchor="middle" x="355" y="-82.5" font-family="Helvetica,sans-Serif" font-size="10.00">_significativos</text>
</a>
</g>
</g>
<!-- Node4&#45;&gt;Node5 -->
<g id="edge4" class="edge">
<title>Node4&#45;&gt;Node5</title>
<path fill="none" stroke="#63b8ff" d="M238.07,-57.04C254.49,-61.78 274.86,-67.66 293.92,-73.16"/>
<polygon fill="#63b8ff" stroke="#63b8ff" points="293.16,-76.59 303.74,-76 295.1,-69.86 293.16,-76.59"/>
</g>
<!-- Node7 -->
<g id="node7" class="node">
<title>Node7</title>
<g id="a_node7"><a xlink:href="classnat__num__t.html#a3f420ff49cf6b55ef38936b2035a4071" target="_top" xlink:title=" ">
<polygon fill="white" stroke="#666666" points="673,-78 587,-78 587,-59 673,-59 673,-78"/>
<text text-anchor="middle" x="630" y="-66" font-family="Helvetica,sans-Serif" font-size="10.00">nat_num_t::size</text>
</a>
</g>
</g>
<!-- Node4&#45;&gt;Node7 -->
<g id="edge8" class="edge">
<title>Node4&#45;&gt;Node7</title>
<path fill="none" stroke="#63b8ff" d="M253.23,-49.89C333.47,-53.86 493.74,-61.8 576.64,-65.91"/>
<polygon fill="#63b8ff" stroke="#63b8ff" points="576.68,-69.41 586.84,-66.41 577.03,-62.42 576.68,-69.41"/>
</g>
<!-- Node8 -->
<g id="node8" class="node">
<title>Node8</title>
<g id="a_node8"><a xlink:href="classnat__num__t.html#a8f8bdd2355aab6b9b24f4c87cd68f5b7" target="_top" xlink:title=" ">
<polygon fill="white" stroke="#666666" points="412,-19 298,-19 298,0 412,0 412,-19"/>
<text text-anchor="middle" x="355" y="-7" font-family="Helvetica,sans-Serif" font-size="10.00">nat_num_t::nat_num_t</text>
</a>
</g>
</g>
<!-- Node4&#45;&gt;Node8 -->
<g id="edge7" class="edge">
<title>Node4&#45;&gt;Node8</title>
<path fill="none" stroke="#63b8ff" d="M242.6,-37.91C262.08,-32.94 286.07,-26.82 306.8,-21.54"/>
<polygon fill="#63b8ff" stroke="#63b8ff" points="307.85,-24.88 316.67,-19.02 306.12,-18.1 307.85,-24.88"/>
</g>
<!-- Node6 -->
<g id="node6" class="node">
<title>Node6</title>
<g id="a_node6"><a xlink:href="classnat__num__t.html#a2a7eae79a48f9b29a40c9103cfac72d7" target="_top" xlink:title=" ">
<polygon fill="white" stroke="#666666" points="551,-105.5 448,-105.5 448,-75.5 551,-75.5 551,-105.5"/>
<text text-anchor="start" x="456" y="-93.5" font-family="Helvetica,sans-Serif" font-size="10.00">nat_num_t::ceros_a</text>
<text text-anchor="middle" x="499.5" y="-82.5" font-family="Helvetica,sans-Serif" font-size="10.00">_la_izqda</text>
</a>
</g>
</g>
<!-- Node5&#45;&gt;Node6 -->
<g id="edge5" class="edge">
<title>Node5&#45;&gt;Node6</title>
<path fill="none" stroke="#63b8ff" d="M406.24,-90.5C416.34,-90.5 427.05,-90.5 437.47,-90.5"/>
<polygon fill="#63b8ff" stroke="#63b8ff" points="437.75,-94 447.75,-90.5 437.75,-87 437.75,-94"/>
</g>
<!-- Node6&#45;&gt;Node7 -->
<g id="edge6" class="edge">
<title>Node6&#45;&gt;Node7</title>
<path fill="none" stroke="#63b8ff" d="M551.29,-81.81C559.67,-80.37 568.36,-78.88 576.78,-77.44"/>
<polygon fill="#63b8ff" stroke="#63b8ff" points="577.59,-80.85 586.86,-75.72 576.41,-73.95 577.59,-80.85"/>
</g>
</g>
</svg>
