<?xml version="1.0" encoding="UTF-8" standalone="no"?>
<!DOCTYPE svg PUBLIC "-//W3C//DTD SVG 1.1//EN"
 "http://www.w3.org/Graphics/SVG/1.1/DTD/svg11.dtd">
<!-- Generated by graphviz version 2.44.1 (20220725.2034)
 -->
<!-- Title: nat_num_t::digs_fracc_no_significativos Pages: 1 -->
<svg width="442pt" height="64pt"
 viewBox="0.00 0.00 442.00 64.00" xmlns="http://www.w3.org/2000/svg" xmlns:xlink="http://www.w3.org/1999/xlink">
<g id="graph0" class="graph" transform="scale(1 1) rotate(0) translate(4 60)">
<title>nat_num_t::digs_fracc_no_significativos</title>
<!-- Node1 -->
<g id="node1" class="node">
<title>Node1</title>
<g id="a_node1"><a xlink:title=" ">
<polygon fill="#999999" stroke="#666666" points="434,-42.5 321,-42.5 321,-12.5 434,-12.5 434,-42.5"/>
<text text-anchor="start" x="329" y="-30.5" font-family="Helvetica,sans-Serif" font-size="10.00">nat_num_t::digs_fracc</text>
<text text-anchor="middle" x="377.5" y="-19.5" font-family="Helvetica,sans-Serif" font-size="10.00">_no_significativos</text>
</a>
</g>
</g>
<!-- Node2 -->
<g id="node2" class="node">
<title>Node2</title>
<g id="a_node2"><a xlink:href="classnat__num__t.html#a52b809b6182fe1ae3ceb43114ce7a0dc" target="_top" xlink:title=" ">
<polygon fill="white" stroke="#666666" points="285,-37 160,-37 160,-18 285,-18 285,-37"/>
<text text-anchor="middle" x="222.5" y="-25" font-family="Helvetica,sans-Serif" font-size="10.00">nat_num_t::reduce_fracc</text>
</a>
</g>
</g>
<!-- Node1&#45;&gt;Node2 -->
<g id="edge1" class="edge">
<title>Node1&#45;&gt;Node2</title>
<path fill="none" stroke="#63b8ff" d="M310.61,-27.5C302.13,-27.5 293.48,-27.5 285.08,-27.5"/>
<polygon fill="#63b8ff" stroke="#63b8ff" points="310.83,-31 320.83,-27.5 310.83,-24 310.83,-31"/>
</g>
<!-- Node3 -->
<g id="node3" class="node">
<title>Node3</title>
<g id="a_node3"><a xlink:href="classnat__num__t.html#a86fb8e79d86da172cc7adff7632ac725" target="_top" xlink:title=" ">
<polygon fill="white" stroke="#666666" points="117,-56 7,-56 7,-37 117,-37 117,-56"/>
<text text-anchor="middle" x="62" y="-44" font-family="Helvetica,sans-Serif" font-size="10.00">nat_num_t::EuclidDiv</text>
</a>
</g>
</g>
<!-- Node2&#45;&gt;Node3 -->
<g id="edge2" class="edge">
<title>Node2&#45;&gt;Node3</title>
<path fill="none" stroke="#63b8ff" d="M149.76,-36.1C138.78,-37.42 127.61,-38.76 117.09,-40.02"/>
<polygon fill="#63b8ff" stroke="#63b8ff" points="150.25,-39.57 159.77,-34.9 149.42,-32.62 150.25,-39.57"/>
</g>
<!-- Node4 -->
<g id="node4" class="node">
<title>Node4</title>
<g id="a_node4"><a xlink:href="classnat__num__t.html#a33fdda0e7d67cc2f9a9c90ea001e8c2b" target="_top" xlink:title=" ">
<polygon fill="white" stroke="#666666" points="124,-19 0,-19 0,0 124,0 124,-19"/>
<text text-anchor="middle" x="62" y="-7" font-family="Helvetica,sans-Serif" font-size="10.00">nat_num_t::m_EuclidDiv</text>
</a>
</g>
</g>
<!-- Node2&#45;&gt;Node4 -->
<g id="edge3" class="edge">
<title>Node2&#45;&gt;Node4</title>
<path fill="none" stroke="#63b8ff" d="M149.76,-19.35C141.17,-18.38 132.46,-17.39 124.04,-16.43"/>
<polygon fill="#63b8ff" stroke="#63b8ff" points="149.43,-22.84 159.77,-20.49 150.22,-15.88 149.43,-22.84"/>
</g>
</g>
</svg>
