<?xml version="1.0" encoding="UTF-8" standalone="no"?>
<!DOCTYPE svg PUBLIC "-//W3C//DTD SVG 1.1//EN"
 "http://www.w3.org/Graphics/SVG/1.1/DTD/svg11.dtd">
<!-- Generated by graphviz version 2.44.1 (20220725.2034)
 -->
<!-- Title: nat_num_t::operator*= Pages: 1 -->
<svg width="684pt" height="127pt"
 viewBox="0.00 0.00 684.00 127.50" xmlns="http://www.w3.org/2000/svg" xmlns:xlink="http://www.w3.org/1999/xlink">
<g id="graph0" class="graph" transform="scale(1 1) rotate(0) translate(4 123.5)">
<title>nat_num_t::operator*=</title>
<!-- Node1 -->
<g id="node1" class="node">
<title>Node1</title>
<g id="a_node1"><a xlink:title=" ">
<polygon fill="#999999" stroke="#666666" points="113,-52 0,-52 0,-33 113,-33 113,-52"/>
<text text-anchor="middle" x="56.5" y="-40" font-family="Helvetica,sans-Serif" font-size="10.00">nat_num_t::operator*=</text>
</a>
</g>
</g>
<!-- Node2 -->
<g id="node2" class="node">
<title>Node2</title>
<g id="a_node2"><a xlink:href="classnat__num__t.html#aef1019272164e14682dc667e158afa53" target="_top" xlink:title=" ">
<polygon fill="white" stroke="#666666" points="265,-89 149,-89 149,-70 265,-70 265,-89"/>
<text text-anchor="middle" x="207" y="-77" font-family="Helvetica,sans-Serif" font-size="10.00">nat_num_t::push_back</text>
</a>
</g>
</g>
<!-- Node1&#45;&gt;Node2 -->
<g id="edge1" class="edge">
<title>Node1&#45;&gt;Node2</title>
<path fill="none" stroke="#63b8ff" d="M95.74,-52.03C114.64,-56.73 137.63,-62.46 157.73,-67.47"/>
<polygon fill="#63b8ff" stroke="#63b8ff" points="157.08,-70.92 167.63,-69.94 158.77,-64.12 157.08,-70.92"/>
</g>
<!-- Node3 -->
<g id="node3" class="node">
<title>Node3</title>
<g id="a_node3"><a xlink:href="classnat__num__t.html#a5a1e29dfd320bf08016a2f0227621f0d" target="_top" xlink:title=" ">
<polygon fill="white" stroke="#666666" points="256,-52 158,-52 158,-33 256,-33 256,-52"/>
<text text-anchor="middle" x="207" y="-40" font-family="Helvetica,sans-Serif" font-size="10.00">nat_num_t::reduce</text>
</a>
</g>
</g>
<!-- Node1&#45;&gt;Node3 -->
<g id="edge2" class="edge">
<title>Node1&#45;&gt;Node3</title>
<path fill="none" stroke="#63b8ff" d="M113.22,-42.5C124.43,-42.5 136.25,-42.5 147.56,-42.5"/>
<polygon fill="#63b8ff" stroke="#63b8ff" points="147.77,-46 157.77,-42.5 147.77,-39 147.77,-46"/>
</g>
<!-- Node6 -->
<g id="node6" class="node">
<title>Node6</title>
<g id="a_node6"><a xlink:href="classnat__num__t.html#a3f420ff49cf6b55ef38936b2035a4071" target="_top" xlink:title=" ">
<polygon fill="white" stroke="#666666" points="676,-71 590,-71 590,-52 676,-52 676,-71"/>
<text text-anchor="middle" x="633" y="-59" font-family="Helvetica,sans-Serif" font-size="10.00">nat_num_t::size</text>
</a>
</g>
</g>
<!-- Node1&#45;&gt;Node6 -->
<g id="edge8" class="edge">
<title>Node1&#45;&gt;Node6</title>
<path fill="none" stroke="#63b8ff" d="M94.1,-32.95C158.9,-17.3 298.01,10.61 415,-4.5 479.55,-12.83 552.29,-34.57 595.03,-48.67"/>
<polygon fill="#63b8ff" stroke="#63b8ff" points="594.11,-52.05 604.7,-51.9 596.33,-45.41 594.11,-52.05"/>
</g>
<!-- Node4 -->
<g id="node4" class="node">
<title>Node4</title>
<g id="a_node4"><a xlink:href="classnat__num__t.html#a14b63725918fba3ba1f731c3cda4b6ca" target="_top" xlink:title=" ">
<polygon fill="white" stroke="#666666" points="409,-119.5 307,-119.5 307,-89.5 409,-89.5 409,-119.5"/>
<text text-anchor="start" x="315" y="-107.5" font-family="Helvetica,sans-Serif" font-size="10.00">nat_num_t::digs_no</text>
<text text-anchor="middle" x="358" y="-96.5" font-family="Helvetica,sans-Serif" font-size="10.00">_significativos</text>
</a>
</g>
</g>
<!-- Node3&#45;&gt;Node4 -->
<g id="edge3" class="edge">
<title>Node3&#45;&gt;Node4</title>
<path fill="none" stroke="#63b8ff" d="M238.7,-52.01C247.29,-54.86 256.57,-58.14 265,-61.5 282.66,-68.54 301.77,-77.28 317.97,-85.04"/>
<polygon fill="#63b8ff" stroke="#63b8ff" points="316.61,-88.27 327.14,-89.47 319.66,-81.97 316.61,-88.27"/>
</g>
<!-- Node3&#45;&gt;Node6 -->
<g id="edge7" class="edge">
<title>Node3&#45;&gt;Node6</title>
<path fill="none" stroke="#63b8ff" d="M256.23,-44.66C336.47,-48.25 496.74,-55.44 579.64,-59.15"/>
<polygon fill="#63b8ff" stroke="#63b8ff" points="579.7,-62.66 589.84,-59.61 580.01,-55.66 579.7,-62.66"/>
</g>
<!-- Node7 -->
<g id="node7" class="node">
<title>Node7</title>
<g id="a_node7"><a xlink:href="classnat__num__t.html#a8f8bdd2355aab6b9b24f4c87cd68f5b7" target="_top" xlink:title=" ">
<polygon fill="white" stroke="#666666" points="415,-33 301,-33 301,-14 415,-14 415,-33"/>
<text text-anchor="middle" x="358" y="-21" font-family="Helvetica,sans-Serif" font-size="10.00">nat_num_t::nat_num_t</text>
</a>
</g>
</g>
<!-- Node3&#45;&gt;Node7 -->
<g id="edge6" class="edge">
<title>Node3&#45;&gt;Node7</title>
<path fill="none" stroke="#63b8ff" d="M256.38,-36.33C267.35,-34.93 279.19,-33.42 290.77,-31.94"/>
<polygon fill="#63b8ff" stroke="#63b8ff" points="291.36,-35.4 300.84,-30.66 290.48,-28.45 291.36,-35.4"/>
</g>
<!-- Node5 -->
<g id="node5" class="node">
<title>Node5</title>
<g id="a_node5"><a xlink:href="classnat__num__t.html#a2a7eae79a48f9b29a40c9103cfac72d7" target="_top" xlink:title=" ">
<polygon fill="white" stroke="#666666" points="554,-119.5 451,-119.5 451,-89.5 554,-89.5 554,-119.5"/>
<text text-anchor="start" x="459" y="-107.5" font-family="Helvetica,sans-Serif" font-size="10.00">nat_num_t::ceros_a</text>
<text text-anchor="middle" x="502.5" y="-96.5" font-family="Helvetica,sans-Serif" font-size="10.00">_la_izqda</text>
</a>
</g>
</g>
<!-- Node4&#45;&gt;Node5 -->
<g id="edge4" class="edge">
<title>Node4&#45;&gt;Node5</title>
<path fill="none" stroke="#63b8ff" d="M409.24,-104.5C419.34,-104.5 430.05,-104.5 440.47,-104.5"/>
<polygon fill="#63b8ff" stroke="#63b8ff" points="440.75,-108 450.75,-104.5 440.75,-101 440.75,-108"/>
</g>
<!-- Node5&#45;&gt;Node6 -->
<g id="edge5" class="edge">
<title>Node5&#45;&gt;Node6</title>
<path fill="none" stroke="#63b8ff" d="M548.44,-89.46C563.26,-84.5 579.59,-79.04 593.85,-74.26"/>
<polygon fill="#63b8ff" stroke="#63b8ff" points="594.98,-77.58 603.35,-71.08 592.76,-70.94 594.98,-77.58"/>
</g>
</g>
</svg>
