<?xml version="1.0" encoding="UTF-8" standalone="no"?>
<!DOCTYPE svg PUBLIC "-//W3C//DTD SVG 1.1//EN"
 "http://www.w3.org/Graphics/SVG/1.1/DTD/svg11.dtd">
<!-- Generated by graphviz version 2.44.1 (20220725.2034)
 -->
<!-- Title: nat_num_t::m_remB Pages: 1 -->
<svg width="658pt" height="114pt"
 viewBox="0.00 0.00 658.00 113.50" xmlns="http://www.w3.org/2000/svg" xmlns:xlink="http://www.w3.org/1999/xlink">
<g id="graph0" class="graph" transform="scale(1 1) rotate(0) translate(4 109.5)">
<title>nat_num_t::m_remB</title>
<!-- Node1 -->
<g id="node1" class="node">
<title>Node1</title>
<g id="a_node1"><a xlink:title=" ">
<polygon fill="#999999" stroke="#666666" points="105,-57 0,-57 0,-38 105,-38 105,-57"/>
<text text-anchor="middle" x="52.5" y="-45" font-family="Helvetica,sans-Serif" font-size="10.00">nat_num_t::m_remB</text>
</a>
</g>
</g>
<!-- Node2 -->
<g id="node2" class="node">
<title>Node2</title>
<g id="a_node2"><a xlink:href="classnat__num__t.html#a5a1e29dfd320bf08016a2f0227621f0d" target="_top" xlink:title=" ">
<polygon fill="white" stroke="#666666" points="239,-57 141,-57 141,-38 239,-38 239,-57"/>
<text text-anchor="middle" x="190" y="-45" font-family="Helvetica,sans-Serif" font-size="10.00">nat_num_t::reduce</text>
</a>
</g>
</g>
<!-- Node1&#45;&gt;Node2 -->
<g id="edge1" class="edge">
<title>Node1&#45;&gt;Node2</title>
<path fill="none" stroke="#63b8ff" d="M105.11,-47.5C113.41,-47.5 122.05,-47.5 130.49,-47.5"/>
<polygon fill="#63b8ff" stroke="#63b8ff" points="130.65,-51 140.65,-47.5 130.65,-44 130.65,-51"/>
</g>
<!-- Node3 -->
<g id="node3" class="node">
<title>Node3</title>
<g id="a_node3"><a xlink:href="classnat__num__t.html#a14b63725918fba3ba1f731c3cda4b6ca" target="_top" xlink:title=" ">
<polygon fill="white" stroke="#666666" points="383,-105.5 281,-105.5 281,-75.5 383,-75.5 383,-105.5"/>
<text text-anchor="start" x="289" y="-93.5" font-family="Helvetica,sans-Serif" font-size="10.00">nat_num_t::digs_no</text>
<text text-anchor="middle" x="332" y="-82.5" font-family="Helvetica,sans-Serif" font-size="10.00">_significativos</text>
</a>
</g>
</g>
<!-- Node2&#45;&gt;Node3 -->
<g id="edge2" class="edge">
<title>Node2&#45;&gt;Node3</title>
<path fill="none" stroke="#63b8ff" d="M222.07,-57.04C236.82,-61.57 254.95,-67.14 272.15,-72.43"/>
<polygon fill="#63b8ff" stroke="#63b8ff" points="271.56,-75.9 282.14,-75.49 273.61,-69.21 271.56,-75.9"/>
</g>
<!-- Node5 -->
<g id="node5" class="node">
<title>Node5</title>
<g id="a_node5"><a xlink:href="classnat__num__t.html#a3f420ff49cf6b55ef38936b2035a4071" target="_top" xlink:title=" ">
<polygon fill="white" stroke="#666666" points="650,-78 564,-78 564,-59 650,-59 650,-78"/>
<text text-anchor="middle" x="607" y="-66" font-family="Helvetica,sans-Serif" font-size="10.00">nat_num_t::size</text>
</a>
</g>
</g>
<!-- Node2&#45;&gt;Node5 -->
<g id="edge6" class="edge">
<title>Node2&#45;&gt;Node5</title>
<path fill="none" stroke="#63b8ff" d="M239.01,-49.93C317.48,-53.9 472.57,-61.75 553.72,-65.85"/>
<polygon fill="#63b8ff" stroke="#63b8ff" points="553.55,-69.35 563.72,-66.36 553.91,-62.36 553.55,-69.35"/>
</g>
<!-- Node6 -->
<g id="node6" class="node">
<title>Node6</title>
<g id="a_node6"><a xlink:href="classnat__num__t.html#a8f8bdd2355aab6b9b24f4c87cd68f5b7" target="_top" xlink:title=" ">
<polygon fill="white" stroke="#666666" points="389,-19 275,-19 275,0 389,0 389,-19"/>
<text text-anchor="middle" x="332" y="-7" font-family="Helvetica,sans-Serif" font-size="10.00">nat_num_t::nat_num_t</text>
</a>
</g>
</g>
<!-- Node2&#45;&gt;Node6 -->
<g id="edge5" class="edge">
<title>Node2&#45;&gt;Node6</title>
<path fill="none" stroke="#63b8ff" d="M226.33,-37.91C244.4,-33.01 266.6,-26.98 285.89,-21.74"/>
<polygon fill="#63b8ff" stroke="#63b8ff" points="286.95,-25.08 295.68,-19.09 285.12,-18.33 286.95,-25.08"/>
</g>
<!-- Node4 -->
<g id="node4" class="node">
<title>Node4</title>
<g id="a_node4"><a xlink:href="classnat__num__t.html#a2a7eae79a48f9b29a40c9103cfac72d7" target="_top" xlink:title=" ">
<polygon fill="white" stroke="#666666" points="528,-105.5 425,-105.5 425,-75.5 528,-75.5 528,-105.5"/>
<text text-anchor="start" x="433" y="-93.5" font-family="Helvetica,sans-Serif" font-size="10.00">nat_num_t::ceros_a</text>
<text text-anchor="middle" x="476.5" y="-82.5" font-family="Helvetica,sans-Serif" font-size="10.00">_la_izqda</text>
</a>
</g>
</g>
<!-- Node3&#45;&gt;Node4 -->
<g id="edge3" class="edge">
<title>Node3&#45;&gt;Node4</title>
<path fill="none" stroke="#63b8ff" d="M383.24,-90.5C393.34,-90.5 404.05,-90.5 414.47,-90.5"/>
<polygon fill="#63b8ff" stroke="#63b8ff" points="414.75,-94 424.75,-90.5 414.75,-87 414.75,-94"/>
</g>
<!-- Node4&#45;&gt;Node5 -->
<g id="edge4" class="edge">
<title>Node4&#45;&gt;Node5</title>
<path fill="none" stroke="#63b8ff" d="M528.29,-81.81C536.67,-80.37 545.36,-78.88 553.78,-77.44"/>
<polygon fill="#63b8ff" stroke="#63b8ff" points="554.59,-80.85 563.86,-75.72 553.41,-73.95 554.59,-80.85"/>
</g>
</g>
</svg>
