<?xml version="1.0" encoding="UTF-8" standalone="no"?>
<!DOCTYPE svg PUBLIC "-//W3C//DTD SVG 1.1//EN"
 "http://www.w3.org/Graphics/SVG/1.1/DTD/svg11.dtd">
<!-- Generated by graphviz version 2.44.1 (20220725.2034)
 -->
<!-- Title: nat_num_t::nat_num_t Pages: 1 -->
<!--zoomable 1348 -->
<svg id="main" version="1.1" xmlns="http://www.w3.org/2000/svg" xmlns:xlink="http://www.w3.org/1999/xlink" xml:space="preserve" onload="init(evt)">
<style type="text/css"><![CDATA[
.edge:hover path { stroke: red; }
.edge:hover polygon { stroke: red; fill: red; }
]]></style>
<script type="text/javascript"><![CDATA[
var edges = document.getElementsByTagName('g');
if (edges && edges.length) {
  for (var i=0;i<edges.length;i++) {
    if (edges[i].id.substr(0,4)=='edge') {
      edges[i].setAttribute('class','edge');
    }
  }
}
]]></script>
        <defs>
                <circle id="rim" cx="0" cy="0" r="7"/>
                <circle id="rim2" cx="0" cy="0" r="3.5"/>
                <g id="zoomPlus">
                        <use xlink:href="#rim" fill="#404040">
                                <set attributeName="fill" to="#808080" begin="zoomplus.mouseover" end="zoomplus.mouseout"/>
                        </use>
                        <path d="M-4,0h8M0,-4v8" fill="none" stroke="white" stroke-width="1.5" pointer-events="none"/>
                </g>
                <g id="zoomMin">
                        <use xlink:href="#rim" fill="#404040">
                                <set attributeName="fill" to="#808080" begin="zoomminus.mouseover" end="zoomminus.mouseout"/>
                        </use>
                        <path d="M-4,0h8" fill="none" stroke="white" stroke-width="1.5" pointer-events="none"/>
                </g>
                <g id="dirArrow">
                        <path fill="none" stroke="white" stroke-width="1.5" d="M0,-3.0v7 M-2.5,-0.5L0,-3.0L2.5,-0.5"/>
                </g>
               <g id="resetDef">
                       <use xlink:href="#rim2" fill="#404040">
                               <set attributeName="fill" to="#808080" begin="reset.mouseover" end="reset.mouseout"/>
                       </use>
               </g>
        </defs>

<script type="text/javascript">
var viewWidth = 592;
var viewHeight = 1348;
var sectionId = 'dynsection-2';
</script>
<script xlink:href="svgpan.js"/>
<svg id="graph" class="graph">
<g id="viewport">
<title>nat_num_t::nat_num_t</title>
<!-- Node1 -->
<g id="node1" class="node">
<title>Node1</title>
<g id="a_node1"><a xlink:title=" ">
<polygon fill="#999999" stroke="#666666" points="584,-1245.5 470,-1245.5 470,-1226.5 584,-1226.5 584,-1245.5"/>
<text text-anchor="middle" x="527" y="-1233.5" font-family="Helvetica,sans-Serif" font-size="10.00">nat_num_t::nat_num_t</text>
</a>
</g>
</g>
<!-- Node2 -->
<g id="node2" class="node">
<title>Node2</title>
<g id="a_node2"><a xlink:href="classnat__num__t.html#a6c10bdb02ef2fdb24147eeaded22dac7" target="_top" xlink:title=" ">
<polygon fill="white" stroke="#666666" points="425,-1339.5 318,-1339.5 318,-1320.5 425,-1320.5 425,-1339.5"/>
<text text-anchor="middle" x="371.5" y="-1327.5" font-family="Helvetica,sans-Serif" font-size="10.00">nat_num_t::operator&#45;</text>
</a>
</g>
</g>
<!-- Node1&#45;&gt;Node2 -->
<g id="edge1" class="edge">
<title>Node1&#45;&gt;Node2</title>
<path fill="none" stroke="#63b8ff" d="M509.94,-1252.8C492.68,-1269.97 463.68,-1296.26 434,-1312 427.71,-1315.34 420.72,-1318.13 413.78,-1320.44"/>
<polygon fill="#63b8ff" stroke="#63b8ff" points="512.48,-1255.21 517.01,-1245.63 507.5,-1250.3 512.48,-1255.21"/>
</g>
<!-- Node3 -->
<g id="node3" class="node">
<title>Node3</title>
<g id="a_node3"><a xlink:href="classnat__num__t.html#ace3973d5269ca6fca23d993806084378" target="_top" xlink:title=" ">
<polygon fill="white" stroke="#666666" points="428,-1302.5 315,-1302.5 315,-1283.5 428,-1283.5 428,-1302.5"/>
<text text-anchor="middle" x="371.5" y="-1290.5" font-family="Helvetica,sans-Serif" font-size="10.00">nat_num_t::operator&#45;=</text>
</a>
</g>
</g>
<!-- Node1&#45;&gt;Node3 -->
<g id="edge2" class="edge">
<title>Node1&#45;&gt;Node3</title>
<path fill="none" stroke="#63b8ff" d="M490.81,-1249.07C462.6,-1259.54 423.65,-1274.01 398.28,-1283.43"/>
<polygon fill="#63b8ff" stroke="#63b8ff" points="492.15,-1252.3 500.31,-1245.54 489.71,-1245.74 492.15,-1252.3"/>
</g>
<!-- Node4 -->
<g id="node4" class="node">
<title>Node4</title>
<g id="a_node4"><a xlink:href="classnat__num__t.html#aa1a1fa2bc567648fb5fd76d2a73e911e" target="_top" xlink:title=" ">
<polygon fill="white" stroke="#666666" points="264.5,-1264.5 157.5,-1264.5 157.5,-1245.5 264.5,-1245.5 264.5,-1264.5"/>
<text text-anchor="middle" x="211" y="-1252.5" font-family="Helvetica,sans-Serif" font-size="10.00">nat_num_t::operator/</text>
</a>
</g>
</g>
<!-- Node1&#45;&gt;Node4 -->
<g id="edge3" class="edge">
<title>Node1&#45;&gt;Node4</title>
<path fill="none" stroke="#63b8ff" d="M459.67,-1240.01C401.53,-1243.53 318.14,-1248.58 264.52,-1251.82"/>
<polygon fill="#63b8ff" stroke="#63b8ff" points="460.09,-1243.49 469.86,-1239.4 459.67,-1236.51 460.09,-1243.49"/>
</g>
<!-- Node5 -->
<g id="node5" class="node">
<title>Node5</title>
<g id="a_node5"><a xlink:href="classnat__num__t.html#aeecab0dc9b304ff23fb08008db79fcc1" target="_top" xlink:title=" ">
<polygon fill="white" stroke="#666666" points="267.5,-1227.5 154.5,-1227.5 154.5,-1208.5 267.5,-1208.5 267.5,-1227.5"/>
<text text-anchor="middle" x="211" y="-1215.5" font-family="Helvetica,sans-Serif" font-size="10.00">nat_num_t::operator/=</text>
</a>
</g>
</g>
<!-- Node1&#45;&gt;Node5 -->
<g id="edge4" class="edge">
<title>Node1&#45;&gt;Node5</title>
<path fill="none" stroke="#63b8ff" d="M459.86,-1232.21C402.83,-1228.94 321.4,-1224.27 267.65,-1221.19"/>
<polygon fill="#63b8ff" stroke="#63b8ff" points="459.68,-1235.7 469.86,-1232.78 460.08,-1228.72 459.68,-1235.7"/>
</g>
<!-- Node6 -->
<g id="node6" class="node">
<title>Node6</title>
<g id="a_node6"><a xlink:href="classnat__num__t.html#a5a1e29dfd320bf08016a2f0227621f0d" target="_top" xlink:title=" ">
<polygon fill="white" stroke="#666666" points="420.5,-679.5 322.5,-679.5 322.5,-660.5 420.5,-660.5 420.5,-679.5"/>
<text text-anchor="middle" x="371.5" y="-667.5" font-family="Helvetica,sans-Serif" font-size="10.00">nat_num_t::reduce</text>
</a>
</g>
</g>
<!-- Node1&#45;&gt;Node6 -->
<g id="edge5" class="edge">
<title>Node1&#45;&gt;Node6</title>
<path fill="none" stroke="#63b8ff" d="M520.66,-1216.31C495.92,-1125.09 392.89,-745.2 375.12,-679.65"/>
<polygon fill="#63b8ff" stroke="#63b8ff" points="517.34,-1217.44 523.34,-1226.18 524.1,-1215.61 517.34,-1217.44"/>
</g>
<!-- Node38 -->
<g id="node38" class="node">
<title>Node38</title>
<g id="a_node38"><a xlink:href="classnat__num__t.html#a52b809b6182fe1ae3ceb43114ce7a0dc" target="_top" xlink:title=" ">
<polygon fill="white" stroke="#666666" points="434,-1188.5 309,-1188.5 309,-1169.5 434,-1169.5 434,-1188.5"/>
<text text-anchor="middle" x="371.5" y="-1176.5" font-family="Helvetica,sans-Serif" font-size="10.00">nat_num_t::reduce_fracc</text>
</a>
</g>
</g>
<!-- Node1&#45;&gt;Node38 -->
<g id="edge41" class="edge">
<title>Node1&#45;&gt;Node38</title>
<path fill="none" stroke="#63b8ff" d="M490.81,-1222.93C462.6,-1212.46 423.65,-1197.99 398.28,-1188.57"/>
<polygon fill="#63b8ff" stroke="#63b8ff" points="489.71,-1226.26 500.31,-1226.46 492.15,-1219.7 489.71,-1226.26"/>
</g>
<!-- Node6&#45;&gt;Node4 -->
<g id="edge35" class="edge">
<title>Node6&#45;&gt;Node4</title>
<path fill="none" stroke="#63b8ff" d="M368.32,-690.03C357.7,-785.87 310.48,-1194.87 273,-1237 269.99,-1240.38 266.38,-1243.14 262.44,-1245.39"/>
<polygon fill="#63b8ff" stroke="#63b8ff" points="371.81,-690.26 369.43,-679.94 364.85,-689.49 371.81,-690.26"/>
</g>
<!-- Node6&#45;&gt;Node5 -->
<g id="edge36" class="edge">
<title>Node6&#45;&gt;Node5</title>
<path fill="none" stroke="#63b8ff" d="M369.56,-689.74C365.07,-776.4 342.94,-1122.3 273,-1200 269.97,-1203.36 266.35,-1206.11 262.4,-1208.36"/>
<polygon fill="#63b8ff" stroke="#63b8ff" points="373.06,-689.84 370.07,-679.68 366.07,-689.49 373.06,-689.84"/>
</g>
<!-- Node7 -->
<g id="node7" class="node">
<title>Node7</title>
<g id="a_node7"><a xlink:href="classnat__num__t.html#a3a404549ae4f05cafef5d6ceec3a6646" target="_top" xlink:title=" ">
<polygon fill="white" stroke="#666666" points="254,-660.5 168,-660.5 168,-641.5 254,-641.5 254,-660.5"/>
<text text-anchor="middle" x="211" y="-648.5" font-family="Helvetica,sans-Serif" font-size="10.00">nat_num_t::div2</text>
</a>
</g>
</g>
<!-- Node6&#45;&gt;Node7 -->
<g id="edge6" class="edge">
<title>Node6&#45;&gt;Node7</title>
<path fill="none" stroke="#63b8ff" d="M311.96,-662.98C292.81,-660.69 271.92,-658.18 254.22,-656.06"/>
<polygon fill="#63b8ff" stroke="#63b8ff" points="311.74,-666.48 322.08,-664.2 312.57,-659.53 311.74,-666.48"/>
</g>
<!-- Node8 -->
<g id="node8" class="node">
<title>Node8</title>
<g id="a_node8"><a xlink:href="classnat__num__t.html#aad12fc5939f569965b9694292906194c" target="_top" xlink:title=" ">
<polygon fill="white" stroke="#666666" points="255,-623.5 167,-623.5 167,-604.5 255,-604.5 255,-623.5"/>
<text text-anchor="middle" x="211" y="-611.5" font-family="Helvetica,sans-Serif" font-size="10.00">nat_num_t::divB</text>
</a>
</g>
</g>
<!-- Node6&#45;&gt;Node8 -->
<g id="edge7" class="edge">
<title>Node6&#45;&gt;Node8</title>
<path fill="none" stroke="#63b8ff" d="M337.05,-656.73C318.31,-649.44 294.47,-640.41 273,-633 263.67,-629.78 253.45,-626.5 244.09,-623.6"/>
<polygon fill="#63b8ff" stroke="#63b8ff" points="336.02,-660.09 346.61,-660.47 338.57,-653.57 336.02,-660.09"/>
</g>
<!-- Node9 -->
<g id="node9" class="node">
<title>Node9</title>
<g id="a_node9"><a xlink:href="classnat__num__t.html#a86fb8e79d86da172cc7adff7632ac725" target="_top" xlink:title=" ">
<polygon fill="white" stroke="#666666" points="266,-1153.5 156,-1153.5 156,-1134.5 266,-1134.5 266,-1153.5"/>
<text text-anchor="middle" x="211" y="-1141.5" font-family="Helvetica,sans-Serif" font-size="10.00">nat_num_t::EuclidDiv</text>
</a>
</g>
</g>
<!-- Node6&#45;&gt;Node9 -->
<g id="edge8" class="edge">
<title>Node6&#45;&gt;Node9</title>
<path fill="none" stroke="#63b8ff" d="M368.87,-689.87C362.03,-768.81 333.1,-1059.18 273,-1125 269.48,-1128.85 265.2,-1131.93 260.56,-1134.38"/>
<polygon fill="#63b8ff" stroke="#63b8ff" points="372.37,-690.07 369.72,-679.81 365.39,-689.48 372.37,-690.07"/>
</g>
<!-- Node10 -->
<g id="node10" class="node">
<title>Node10</title>
<g id="a_node10"><a xlink:href="classnat__num__t.html#affad1b46b9de15da174a01644271785f" target="_top" xlink:title=" ">
<polygon fill="white" stroke="#666666" points="261,-586.5 161,-586.5 161,-567.5 261,-567.5 261,-586.5"/>
<text text-anchor="middle" x="211" y="-574.5" font-family="Helvetica,sans-Serif" font-size="10.00">nat_num_t::m_div2</text>
</a>
</g>
</g>
<!-- Node6&#45;&gt;Node10 -->
<g id="edge9" class="edge">
<title>Node6&#45;&gt;Node10</title>
<path fill="none" stroke="#63b8ff" d="M352.85,-653.55C334.25,-636.99 303.47,-611.69 273,-596 265.8,-592.29 257.75,-589.15 249.91,-586.56"/>
<polygon fill="#63b8ff" stroke="#63b8ff" points="350.74,-656.36 360.5,-660.49 355.44,-651.18 350.74,-656.36"/>
</g>
<!-- Node11 -->
<g id="node11" class="node">
<title>Node11</title>
<g id="a_node11"><a xlink:href="classnat__num__t.html#af92fae6d437e61b258bb0fa3987b91b6" target="_top" xlink:title=" ">
<polygon fill="white" stroke="#666666" points="261.5,-549.5 160.5,-549.5 160.5,-530.5 261.5,-530.5 261.5,-549.5"/>
<text text-anchor="middle" x="211" y="-537.5" font-family="Helvetica,sans-Serif" font-size="10.00">nat_num_t::m_divB</text>
</a>
</g>
</g>
<!-- Node6&#45;&gt;Node11 -->
<g id="edge10" class="edge">
<title>Node6&#45;&gt;Node11</title>
<path fill="none" stroke="#63b8ff" d="M359.13,-651.69C342.95,-627.11 310.98,-583.67 273,-559 267.05,-555.13 260.26,-552.01 253.42,-549.51"/>
<polygon fill="#63b8ff" stroke="#63b8ff" points="356.37,-653.87 364.72,-660.4 362.26,-650.09 356.37,-653.87"/>
</g>
<!-- Node12 -->
<g id="node12" class="node">
<title>Node12</title>
<g id="a_node12"><a xlink:href="classnat__num__t.html#a33fdda0e7d67cc2f9a9c90ea001e8c2b" target="_top" xlink:title=" ">
<polygon fill="white" stroke="#666666" points="273,-1190.5 149,-1190.5 149,-1171.5 273,-1171.5 273,-1190.5"/>
<text text-anchor="middle" x="211" y="-1178.5" font-family="Helvetica,sans-Serif" font-size="10.00">nat_num_t::m_EuclidDiv</text>
</a>
</g>
</g>
<!-- Node6&#45;&gt;Node12 -->
<g id="edge11" class="edge">
<title>Node6&#45;&gt;Node12</title>
<path fill="none" stroke="#63b8ff" d="M369.26,-689.93C363.67,-773.09 338.29,-1091.44 273,-1163 269.87,-1166.43 266.13,-1169.21 262.06,-1171.48"/>
<polygon fill="#63b8ff" stroke="#63b8ff" points="372.76,-690.01 369.91,-679.81 365.77,-689.56 372.76,-690.01"/>
</g>
<!-- Node13 -->
<g id="node13" class="node">
<title>Node13</title>
<g id="a_node13"><a xlink:href="classnat__num__t.html#afef2a039b484e1a1147959e96e07be7a" target="_top" xlink:title=" ">
<polygon fill="white" stroke="#666666" points="263,-512.5 159,-512.5 159,-493.5 263,-493.5 263,-512.5"/>
<text text-anchor="middle" x="211" y="-500.5" font-family="Helvetica,sans-Serif" font-size="10.00">nat_num_t::m_rem2</text>
</a>
</g>
</g>
<!-- Node6&#45;&gt;Node13 -->
<g id="edge12" class="edge">
<title>Node6&#45;&gt;Node13</title>
<path fill="none" stroke="#63b8ff" d="M363.06,-651.02C349.77,-619.54 318.94,-556.57 273,-522 267.86,-518.13 261.92,-515.04 255.8,-512.57"/>
<polygon fill="#63b8ff" stroke="#63b8ff" points="359.87,-652.47 366.9,-660.4 366.35,-649.82 359.87,-652.47"/>
</g>
<!-- Node14 -->
<g id="node14" class="node">
<title>Node14</title>
<g id="a_node14"><a xlink:href="classnat__num__t.html#a7f59276202f957a0027f1784f88bc617" target="_top" xlink:title=" ">
<polygon fill="white" stroke="#666666" points="263.5,-475.5 158.5,-475.5 158.5,-456.5 263.5,-456.5 263.5,-475.5"/>
<text text-anchor="middle" x="211" y="-463.5" font-family="Helvetica,sans-Serif" font-size="10.00">nat_num_t::m_remB</text>
</a>
</g>
</g>
<!-- Node6&#45;&gt;Node14 -->
<g id="edge13" class="edge">
<title>Node6&#45;&gt;Node14</title>
<path fill="none" stroke="#63b8ff" d="M365.62,-650.55C355.18,-612.94 327.11,-530.01 273,-485 268.31,-481.1 262.82,-478 257.09,-475.53"/>
<polygon fill="#63b8ff" stroke="#63b8ff" points="362.25,-651.51 368.2,-660.28 369.02,-649.72 362.25,-651.51"/>
</g>
<!-- Node15 -->
<g id="node15" class="node">
<title>Node15</title>
<g id="a_node15"><a xlink:href="classnat__num__t.html#aa042059e50f3008d12e430fdebcc323f" target="_top" xlink:title=" ">
<polygon fill="white" stroke="#666666" points="259,-438.5 163,-438.5 163,-419.5 259,-419.5 259,-438.5"/>
<text text-anchor="middle" x="211" y="-426.5" font-family="Helvetica,sans-Serif" font-size="10.00">nat_num_t::mC_B</text>
</a>
</g>
</g>
<!-- Node6&#45;&gt;Node15 -->
<g id="edge14" class="edge">
<title>Node6&#45;&gt;Node15</title>
<path fill="none" stroke="#63b8ff" d="M367.46,-650.32C359.78,-607.21 335.52,-503.89 273,-448 268.62,-444.08 263.43,-440.97 257.97,-438.5"/>
<polygon fill="#63b8ff" stroke="#63b8ff" points="364.04,-651.07 369.14,-660.35 370.94,-649.91 364.04,-651.07"/>
</g>
<!-- Node16 -->
<g id="node16" class="node">
<title>Node16</title>
<g id="a_node16"><a xlink:href="classnat__num__t.html#ac276fad3a3947175a55b2b9e990ae231" target="_top" xlink:title=" ">
<polygon fill="white" stroke="#666666" points="266,-401.5 156,-401.5 156,-382.5 266,-382.5 266,-401.5"/>
<text text-anchor="middle" x="211" y="-389.5" font-family="Helvetica,sans-Serif" font-size="10.00">nat_num_t::mC_Bm1</text>
</a>
</g>
</g>
<!-- Node6&#45;&gt;Node16 -->
<g id="edge15" class="edge">
<title>Node6&#45;&gt;Node16</title>
<path fill="none" stroke="#63b8ff" d="M368.87,-650.38C363.81,-602.39 344.17,-478.16 273,-411 268.89,-407.12 263.99,-404.03 258.79,-401.57"/>
<polygon fill="#63b8ff" stroke="#63b8ff" points="365.39,-650.76 369.82,-660.38 372.35,-650.09 365.39,-650.76"/>
</g>
<!-- Node17 -->
<g id="node17" class="node">
<title>Node17</title>
<g id="a_node17"><a xlink:href="classnat__num__t.html#a07b25245f1119449ee9171ab2ea85de6" target="_top" xlink:title=" ">
<polygon fill="white" stroke="#666666" points="258.5,-325.5 163.5,-325.5 163.5,-306.5 258.5,-306.5 258.5,-325.5"/>
<text text-anchor="middle" x="211" y="-313.5" font-family="Helvetica,sans-Serif" font-size="10.00">nat_num_t::minus</text>
</a>
</g>
</g>
<!-- Node6&#45;&gt;Node17 -->
<g id="edge16" class="edge">
<title>Node6&#45;&gt;Node17</title>
<path fill="none" stroke="#63b8ff" d="M370.38,-650.13C368.97,-593.95 357.39,-432.12 273,-340 267.23,-333.71 259.61,-329.04 251.71,-325.59"/>
<polygon fill="#63b8ff" stroke="#63b8ff" points="366.88,-650.5 370.55,-660.45 373.88,-650.39 366.88,-650.5"/>
</g>
<!-- Node18 -->
<g id="node18" class="node">
<title>Node18</title>
<g id="a_node18"><a xlink:href="classnat__num__t.html#aa7de2415a6824b4af279ec90aac74dd3" target="_top" xlink:title=" ">
<polygon fill="white" stroke="#666666" points="110,-343.5 3,-343.5 3,-324.5 110,-324.5 110,-343.5"/>
<text text-anchor="middle" x="56.5" y="-331.5" font-family="Helvetica,sans-Serif" font-size="10.00">nat_num_t::operator&#45;</text>
</a>
</g>
</g>
<!-- Node6&#45;&gt;Node18 -->
<g id="edge33" class="edge">
<title>Node6&#45;&gt;Node18</title>
<path fill="none" stroke="#63b8ff" d="M370.44,-650.3C369.12,-596.82 357.65,-447.95 273,-374 249.25,-353.25 165.92,-342.6 110.11,-337.67"/>
<polygon fill="#63b8ff" stroke="#63b8ff" points="366.94,-650.52 370.59,-660.47 373.94,-650.42 366.94,-650.52"/>
</g>
<!-- Node19 -->
<g id="node19" class="node">
<title>Node19</title>
<g id="a_node19"><a xlink:href="classnat__num__t.html#a0951fd96d0bf5389fd1a30aa2c19ef6a" target="_top" xlink:title=" ">
<polygon fill="white" stroke="#666666" points="113,-306.5 0,-306.5 0,-287.5 113,-287.5 113,-306.5"/>
<text text-anchor="middle" x="56.5" y="-294.5" font-family="Helvetica,sans-Serif" font-size="10.00">nat_num_t::operator&#45;=</text>
</a>
</g>
</g>
<!-- Node6&#45;&gt;Node19 -->
<g id="edge34" class="edge">
<title>Node6&#45;&gt;Node19</title>
<path fill="none" stroke="#63b8ff" d="M368.45,-650.15C360.68,-579.4 330.58,-341.47 273,-297 217.92,-254.47 129.12,-273.74 84.67,-287.46"/>
<polygon fill="#63b8ff" stroke="#63b8ff" points="364.99,-650.77 369.54,-660.35 371.95,-650.03 364.99,-650.77"/>
</g>
<!-- Node20 -->
<g id="node20" class="node">
<title>Node20</title>
<g id="a_node20"><a xlink:href="classnat__num__t.html#a37024fe6aa82e7f7632fa2f119d91982" target="_top" xlink:title=" ">
<polygon fill="white" stroke="#666666" points="268,-249.5 154,-249.5 154,-230.5 268,-230.5 268,-249.5"/>
<text text-anchor="middle" x="211" y="-237.5" font-family="Helvetica,sans-Serif" font-size="10.00">nat_num_t::nat_num_t</text>
</a>
</g>
</g>
<!-- Node6&#45;&gt;Node20 -->
<g id="edge19" class="edge">
<title>Node6&#45;&gt;Node20</title>
<path fill="none" stroke="#63b8ff" d="M368.16,-650.08C359.2,-576.86 324.93,-323.71 273,-264 267.47,-257.65 260.04,-252.96 252.28,-249.51"/>
<polygon fill="#63b8ff" stroke="#63b8ff" points="364.71,-650.72 369.38,-660.23 371.66,-649.89 364.71,-650.72"/>
</g>
<!-- Node21 -->
<g id="node21" class="node">
<title>Node21</title>
<g id="a_node21"><a xlink:href="classnat__num__t.html#a344d5169b4e8601fd3b3c7b32ea7a2ef" target="_top" xlink:title=" ">
<polygon fill="white" stroke="#666666" points="263,-212 159,-212 159,-182 263,-182 263,-212"/>
<text text-anchor="start" x="167" y="-200" font-family="Helvetica,sans-Serif" font-size="10.00">nat_num_t::operator</text>
<text text-anchor="middle" x="211" y="-189" font-family="Helvetica,sans-Serif" font-size="10.00"> uchint</text>
</a>
</g>
</g>
<!-- Node6&#45;&gt;Node21 -->
<g id="edge20" class="edge">
<title>Node6&#45;&gt;Node21</title>
<path fill="none" stroke="#63b8ff" d="M368.65,-650.03C361.05,-571.9 329.91,-287.89 273,-221 270.05,-217.53 266.53,-214.56 262.7,-212.02"/>
<polygon fill="#63b8ff" stroke="#63b8ff" points="365.2,-650.76 369.64,-660.38 372.17,-650.1 365.2,-650.76"/>
</g>
<!-- Node22 -->
<g id="node22" class="node">
<title>Node22</title>
<g id="a_node22"><a xlink:href="classnat__num__t.html#a491e17555be2492eedcb5788b8a9a271" target="_top" xlink:title=" ">
<polygon fill="white" stroke="#666666" points="272,-163.5 150,-163.5 150,-144.5 272,-144.5 272,-163.5"/>
<text text-anchor="middle" x="211" y="-151.5" font-family="Helvetica,sans-Serif" font-size="10.00">nat_num_t::operator uint</text>
</a>
</g>
</g>
<!-- Node6&#45;&gt;Node22 -->
<g id="edge21" class="edge">
<title>Node6&#45;&gt;Node22</title>
<path fill="none" stroke="#63b8ff" d="M369.25,-649.94C363.65,-566.21 338.2,-245.67 273,-173 269.52,-169.12 265.26,-166.02 260.63,-163.55"/>
<polygon fill="#63b8ff" stroke="#63b8ff" points="365.77,-650.38 369.91,-660.13 372.76,-649.92 365.77,-650.38"/>
</g>
<!-- Node23 -->
<g id="node23" class="node">
<title>Node23</title>
<g id="a_node23"><a xlink:href="classnat__num__t.html#abe95f2899f69106cd62ca8d576d546e3" target="_top" xlink:title=" ">
<polygon fill="white" stroke="#666666" points="263,-126 159,-126 159,-96 263,-96 263,-126"/>
<text text-anchor="start" x="167" y="-114" font-family="Helvetica,sans-Serif" font-size="10.00">nat_num_t::operator</text>
<text text-anchor="middle" x="211" y="-103" font-family="Helvetica,sans-Serif" font-size="10.00"> ulint</text>
</a>
</g>
</g>
<!-- Node6&#45;&gt;Node23 -->
<g id="edge22" class="edge">
<title>Node6&#45;&gt;Node23</title>
<path fill="none" stroke="#63b8ff" d="M369.42,-650.22C364.32,-563.37 339.99,-216.49 273,-135 270.18,-131.57 266.81,-128.63 263.11,-126.11"/>
<polygon fill="#63b8ff" stroke="#63b8ff" points="365.93,-650.52 370,-660.3 372.92,-650.12 365.93,-650.52"/>
</g>
<!-- Node24 -->
<g id="node24" class="node">
<title>Node24</title>
<g id="a_node24"><a xlink:href="classnat__num__t.html#a541e1b883b4bdab9c1fceac15fa2ce4c" target="_top" xlink:title=" ">
<polygon fill="white" stroke="#666666" points="263,-78 159,-78 159,-48 263,-48 263,-78"/>
<text text-anchor="start" x="167" y="-66" font-family="Helvetica,sans-Serif" font-size="10.00">nat_num_t::operator</text>
<text text-anchor="middle" x="211" y="-55" font-family="Helvetica,sans-Serif" font-size="10.00"> ullint</text>
</a>
</g>
</g>
<!-- Node6&#45;&gt;Node24 -->
<g id="edge23" class="edge">
<title>Node6&#45;&gt;Node24</title>
<path fill="none" stroke="#63b8ff" d="M369.75,-650.23C365.89,-558.68 345.63,-176.66 273,-87 270.21,-83.55 266.85,-80.6 263.16,-78.06"/>
<polygon fill="#63b8ff" stroke="#63b8ff" points="366.26,-650.48 370.15,-660.33 373.25,-650.2 366.26,-650.48"/>
</g>
<!-- Node25 -->
<g id="node25" class="node">
<title>Node25</title>
<g id="a_node25"><a xlink:href="classnat__num__t.html#a9c55fd75b20e9196e5f798c6d311f745" target="_top" xlink:title=" ">
<polygon fill="white" stroke="#666666" points="263,-30 159,-30 159,0 263,0 263,-30"/>
<text text-anchor="start" x="167" y="-18" font-family="Helvetica,sans-Serif" font-size="10.00">nat_num_t::operator</text>
<text text-anchor="middle" x="211" y="-7" font-family="Helvetica,sans-Serif" font-size="10.00"> usint</text>
</a>
</g>
</g>
<!-- Node6&#45;&gt;Node25 -->
<g id="edge24" class="edge">
<title>Node6&#45;&gt;Node25</title>
<path fill="none" stroke="#63b8ff" d="M370.03,-650.45C367.37,-554.81 351.34,-136.95 273,-39 270.23,-35.53 266.88,-32.57 263.21,-30.03"/>
<polygon fill="#63b8ff" stroke="#63b8ff" points="366.53,-650.56 370.29,-660.47 373.53,-650.38 366.53,-650.56"/>
</g>
<!-- Node26 -->
<g id="node26" class="node">
<title>Node26</title>
<g id="a_node26"><a xlink:href="classnat__num__t.html#a017ccdb8add749e869c3e35cd4d32f9d" target="_top" xlink:title=" ">
<polygon fill="white" stroke="#666666" points="263,-1116 159,-1116 159,-1086 263,-1086 263,-1116"/>
<text text-anchor="start" x="167" y="-1104" font-family="Helvetica,sans-Serif" font-size="10.00">nat_num_t::operator</text>
<text text-anchor="middle" x="211" y="-1093" font-family="Helvetica,sans-Serif" font-size="10.00"> vector&lt; dig &gt;</text>
</a>
</g>
</g>
<!-- Node6&#45;&gt;Node26 -->
<g id="edge25" class="edge">
<title>Node6&#45;&gt;Node26</title>
<path fill="none" stroke="#63b8ff" d="M368.17,-689.97C359.23,-763.37 325.03,-1017.14 273,-1077 270.01,-1080.44 266.47,-1083.38 262.62,-1085.91"/>
<polygon fill="#63b8ff" stroke="#63b8ff" points="371.67,-690.14 369.38,-679.79 364.72,-689.3 371.67,-690.14"/>
</g>
<!-- Node27 -->
<g id="node27" class="node">
<title>Node27</title>
<g id="a_node27"><a xlink:href="classnat__num__t.html#a2a5a33dec1079928b211d2dc47e6d85f" target="_top" xlink:title=" ">
<polygon fill="white" stroke="#666666" points="264.5,-1067.5 157.5,-1067.5 157.5,-1048.5 264.5,-1048.5 264.5,-1067.5"/>
<text text-anchor="middle" x="211" y="-1055.5" font-family="Helvetica,sans-Serif" font-size="10.00">nat_num_t::operator!</text>
</a>
</g>
</g>
<!-- Node6&#45;&gt;Node27 -->
<g id="edge26" class="edge">
<title>Node6&#45;&gt;Node27</title>
<path fill="none" stroke="#63b8ff" d="M367.89,-689.62C358.33,-758.55 323.2,-988.31 273,-1040 269.69,-1043.41 265.77,-1046.18 261.55,-1048.43"/>
<polygon fill="#63b8ff" stroke="#63b8ff" points="371.36,-690.04 369.24,-679.66 364.43,-689.09 371.36,-690.04"/>
</g>
<!-- Node28 -->
<g id="node28" class="node">
<title>Node28</title>
<g id="a_node28"><a xlink:href="classnat__num__t.html#a9d9cdb7e6209d001ab8e4ffa3450cb33" target="_top" xlink:title=" ">
<polygon fill="white" stroke="#666666" points="267.5,-1030.5 154.5,-1030.5 154.5,-1011.5 267.5,-1011.5 267.5,-1030.5"/>
<text text-anchor="middle" x="211" y="-1018.5" font-family="Helvetica,sans-Serif" font-size="10.00">nat_num_t::operator%</text>
</a>
</g>
</g>
<!-- Node6&#45;&gt;Node28 -->
<g id="edge27" class="edge">
<title>Node6&#45;&gt;Node28</title>
<path fill="none" stroke="#63b8ff" d="M370.84,-689.69C370.72,-746.69 362.37,-913.44 273,-1003 269.57,-1006.44 265.51,-1009.23 261.15,-1011.49"/>
<polygon fill="#63b8ff" stroke="#63b8ff" points="374.34,-689.51 370.77,-679.54 367.34,-689.56 374.34,-689.51"/>
</g>
<!-- Node29 -->
<g id="node29" class="node">
<title>Node29</title>
<g id="a_node29"><a xlink:href="classnat__num__t.html#aebfeb312e837e0bc29834fe3d9b7343b" target="_top" xlink:title=" ">
<polygon fill="white" stroke="#666666" points="270.5,-993.5 151.5,-993.5 151.5,-974.5 270.5,-974.5 270.5,-993.5"/>
<text text-anchor="middle" x="211" y="-981.5" font-family="Helvetica,sans-Serif" font-size="10.00">nat_num_t::operator%=</text>
</a>
</g>
</g>
<!-- Node6&#45;&gt;Node29 -->
<g id="edge28" class="edge">
<title>Node6&#45;&gt;Node29</title>
<path fill="none" stroke="#63b8ff" d="M370,-689.59C367.57,-742.22 353.53,-887.94 273,-966 269.51,-969.38 265.42,-972.13 261.04,-974.37"/>
<polygon fill="#63b8ff" stroke="#63b8ff" points="373.5,-689.7 370.37,-679.58 366.5,-689.44 373.5,-689.7"/>
</g>
<!-- Node30 -->
<g id="node30" class="node">
<title>Node30</title>
<g id="a_node30"><a xlink:href="classnat__num__t.html#a0f5643bd0b8c549e71abd522d58c7e7e" target="_top" xlink:title=" ">
<polygon fill="white" stroke="#666666" points="264.5,-956.5 157.5,-956.5 157.5,-937.5 264.5,-937.5 264.5,-956.5"/>
<text text-anchor="middle" x="211" y="-944.5" font-family="Helvetica,sans-Serif" font-size="10.00">nat_num_t::operator*</text>
</a>
</g>
</g>
<!-- Node6&#45;&gt;Node30 -->
<g id="edge29" class="edge">
<title>Node6&#45;&gt;Node30</title>
<path fill="none" stroke="#63b8ff" d="M368.93,-689.69C364.02,-737.83 344.68,-862.38 273,-929 269.36,-932.38 265.12,-935.13 260.59,-937.37"/>
<polygon fill="#63b8ff" stroke="#63b8ff" points="372.42,-689.93 369.85,-679.66 365.45,-689.29 372.42,-689.93"/>
</g>
<!-- Node31 -->
<g id="node31" class="node">
<title>Node31</title>
<g id="a_node31"><a xlink:href="classnat__num__t.html#ae0bbc32c65935b4cf54a154ec950fc18" target="_top" xlink:title=" ">
<polygon fill="white" stroke="#666666" points="267.5,-919.5 154.5,-919.5 154.5,-900.5 267.5,-900.5 267.5,-919.5"/>
<text text-anchor="middle" x="211" y="-907.5" font-family="Helvetica,sans-Serif" font-size="10.00">nat_num_t::operator*=</text>
</a>
</g>
</g>
<!-- Node6&#45;&gt;Node31 -->
<g id="edge30" class="edge">
<title>Node6&#45;&gt;Node31</title>
<path fill="none" stroke="#63b8ff" d="M367.52,-689.75C359.96,-732.99 335.93,-836.59 273,-892 269.11,-895.43 264.58,-898.21 259.8,-900.45"/>
<polygon fill="#63b8ff" stroke="#63b8ff" points="371.01,-690.12 369.17,-679.68 364.1,-688.99 371.01,-690.12"/>
</g>
<!-- Node32 -->
<g id="node32" class="node">
<title>Node32</title>
<g id="a_node32"><a xlink:href="classnat__num__t.html#ab1087d198842dd2e00e8f2961421fd50" target="_top" xlink:title=" ">
<polygon fill="white" stroke="#666666" points="266,-882.5 156,-882.5 156,-863.5 266,-863.5 266,-882.5"/>
<text text-anchor="middle" x="211" y="-870.5" font-family="Helvetica,sans-Serif" font-size="10.00">nat_num_t::operator+</text>
</a>
</g>
</g>
<!-- Node6&#45;&gt;Node32 -->
<g id="edge31" class="edge">
<title>Node6&#45;&gt;Node32</title>
<path fill="none" stroke="#63b8ff" d="M365.68,-689.52C355.34,-727.26 327.45,-810.4 273,-855 268.81,-858.43 264,-861.2 258.94,-863.45"/>
<polygon fill="#63b8ff" stroke="#63b8ff" points="369.09,-690.32 368.23,-679.76 362.32,-688.55 369.09,-690.32"/>
</g>
<!-- Node33 -->
<g id="node33" class="node">
<title>Node33</title>
<g id="a_node33"><a xlink:href="classnat__num__t.html#a61807871c9e8e701d61e7573acd35055" target="_top" xlink:title=" ">
<polygon fill="white" stroke="#666666" points="269,-845.5 153,-845.5 153,-826.5 269,-826.5 269,-845.5"/>
<text text-anchor="middle" x="211" y="-833.5" font-family="Helvetica,sans-Serif" font-size="10.00">nat_num_t::operator+=</text>
</a>
</g>
</g>
<!-- Node6&#45;&gt;Node33 -->
<g id="edge32" class="edge">
<title>Node6&#45;&gt;Node33</title>
<path fill="none" stroke="#63b8ff" d="M363.12,-689.06C349.91,-720.65 319.2,-783.77 273,-818 268.39,-821.42 263.13,-824.19 257.68,-826.44"/>
<polygon fill="#63b8ff" stroke="#63b8ff" points="366.42,-690.22 366.93,-679.64 359.93,-687.6 366.42,-690.22"/>
</g>
<!-- Node34 -->
<g id="node34" class="node">
<title>Node34</title>
<g id="a_node34"><a xlink:href="classnat__num__t.html#a2f2bc5932044b67b90f5fba65c0fbb36" target="_top" xlink:title=" ">
<polygon fill="white" stroke="#666666" points="266,-808.5 156,-808.5 156,-789.5 266,-789.5 266,-808.5"/>
<text text-anchor="middle" x="211" y="-796.5" font-family="Helvetica,sans-Serif" font-size="10.00">nat_num_t::operator=</text>
</a>
</g>
</g>
<!-- Node6&#45;&gt;Node34 -->
<g id="edge37" class="edge">
<title>Node6&#45;&gt;Node34</title>
<path fill="none" stroke="#63b8ff" d="M359.19,-688.39C343.06,-713.07 311.16,-756.62 273,-781 267.7,-784.39 261.73,-787.16 255.66,-789.42"/>
<polygon fill="#63b8ff" stroke="#63b8ff" points="362.33,-689.96 364.75,-679.65 356.43,-686.2 362.33,-689.96"/>
</g>
<!-- Node35 -->
<g id="node35" class="node">
<title>Node35</title>
<g id="a_node35"><a xlink:href="classnat__num__t.html#ae56a8fb7a652c7bb033757d7e5f1c8e9" target="_top" xlink:title=" ">
<polygon fill="white" stroke="#666666" points="256,-771.5 166,-771.5 166,-752.5 256,-752.5 256,-771.5"/>
<text text-anchor="middle" x="211" y="-759.5" font-family="Helvetica,sans-Serif" font-size="10.00">nat_num_t::rem2</text>
</a>
</g>
</g>
<!-- Node6&#45;&gt;Node35 -->
<g id="edge38" class="edge">
<title>Node6&#45;&gt;Node35</title>
<path fill="none" stroke="#63b8ff" d="M352.9,-686.54C334.34,-703.18 303.59,-728.54 273,-744 266.5,-747.29 259.29,-750.08 252.18,-752.41"/>
<polygon fill="#63b8ff" stroke="#63b8ff" points="355.51,-688.9 360.53,-679.57 350.78,-683.73 355.51,-688.9"/>
</g>
<!-- Node36 -->
<g id="node36" class="node">
<title>Node36</title>
<g id="a_node36"><a xlink:href="classnat__num__t.html#aed8fccba120976b462162f62991f68e4" target="_top" xlink:title=" ">
<polygon fill="white" stroke="#666666" points="257,-734.5 165,-734.5 165,-715.5 257,-715.5 257,-734.5"/>
<text text-anchor="middle" x="211" y="-722.5" font-family="Helvetica,sans-Serif" font-size="10.00">nat_num_t::remB</text>
</a>
</g>
</g>
<!-- Node6&#45;&gt;Node36 -->
<g id="edge39" class="edge">
<title>Node6&#45;&gt;Node36</title>
<path fill="none" stroke="#63b8ff" d="M337.09,-683.4C318.37,-690.72 294.53,-699.75 273,-707 264.31,-709.92 254.85,-712.85 246.02,-715.46"/>
<polygon fill="#63b8ff" stroke="#63b8ff" points="338.62,-686.56 346.64,-679.63 336.05,-680.04 338.62,-686.56"/>
</g>
<!-- Node37 -->
<g id="node37" class="node">
<title>Node37</title>
<g id="a_node37"><a xlink:href="classnat__num__t.html#ab352e91cb85a60cc2ec06082f59dca99" target="_top" xlink:title=" ">
<polygon fill="white" stroke="#666666" points="263.5,-697.5 158.5,-697.5 158.5,-678.5 263.5,-678.5 263.5,-697.5"/>
<text text-anchor="middle" x="211" y="-685.5" font-family="Helvetica,sans-Serif" font-size="10.00">nat_num_t::remBm1</text>
</a>
</g>
</g>
<!-- Node6&#45;&gt;Node37 -->
<g id="edge40" class="edge">
<title>Node6&#45;&gt;Node37</title>
<path fill="none" stroke="#63b8ff" d="M311.89,-676.66C296.08,-678.45 279.1,-680.38 263.7,-682.13"/>
<polygon fill="#63b8ff" stroke="#63b8ff" points="312.54,-680.1 322.08,-675.5 311.75,-673.15 312.54,-680.1"/>
</g>
<!-- Node17&#45;&gt;Node18 -->
<g id="edge17" class="edge">
<title>Node17&#45;&gt;Node18</title>
<path fill="none" stroke="#63b8ff" d="M153.33,-322.69C139.21,-324.36 124.12,-326.14 110.2,-327.78"/>
<polygon fill="#63b8ff" stroke="#63b8ff" points="153.9,-326.15 163.42,-321.5 153.07,-319.19 153.9,-326.15"/>
</g>
<!-- Node17&#45;&gt;Node19 -->
<g id="edge18" class="edge">
<title>Node17&#45;&gt;Node19</title>
<path fill="none" stroke="#63b8ff" d="M153.14,-308.92C140.08,-307.29 126.2,-305.56 113.19,-303.94"/>
<polygon fill="#63b8ff" stroke="#63b8ff" points="153.06,-312.43 163.42,-310.2 153.93,-305.49 153.06,-312.43"/>
</g>
<!-- Node38&#45;&gt;Node9 -->
<g id="edge42" class="edge">
<title>Node38&#45;&gt;Node9</title>
<path fill="none" stroke="#63b8ff" d="M317.22,-1167.23C297.06,-1162.78 274.38,-1157.78 255.26,-1153.55"/>
<polygon fill="#63b8ff" stroke="#63b8ff" points="316.67,-1170.7 327.19,-1169.44 318.18,-1163.86 316.67,-1170.7"/>
</g>
<!-- Node38&#45;&gt;Node12 -->
<g id="edge43" class="edge">
<title>Node38&#45;&gt;Node12</title>
<path fill="none" stroke="#63b8ff" d="M298.76,-1179.91C290.17,-1180.01 281.46,-1180.12 273.04,-1180.23"/>
<polygon fill="#63b8ff" stroke="#63b8ff" points="298.81,-1183.4 308.77,-1179.78 298.72,-1176.41 298.81,-1183.4"/>
</g>
</g>
</svg>
        <g id="navigator" transform="translate(0 0)" fill="#404254">
                <rect fill="#f2f5e9" fill-opacity="0.5" stroke="#606060" stroke-width=".5" x="0" y="0" width="60" height="60"/>
                <use id="zoomplus" xlink:href="#zoomPlus" x="17" y="9" onmousedown="handleZoom(evt,'in')"/>
                <use id="zoomminus" xlink:href="#zoomMin" x="42" y="9" onmousedown="handleZoom(evt,'out')"/>
                <use id="reset" xlink:href="#resetDef" x="30" y="36" onmousedown="handleReset()"/>
                <g id="arrowUp" xlink:href="#dirArrow" transform="translate(30 24)" onmousedown="handlePan(0,-1)">
                  <use xlink:href="#rim" fill="#404040">
                        <set attributeName="fill" to="#808080" begin="arrowUp.mouseover" end="arrowUp.mouseout"/>
                  </use>
                  <path fill="none" stroke="white" stroke-width="1.5" d="M0,-3.0v7 M-2.5,-0.5L0,-3.0L2.5,-0.5"/>
                </g>
                <g id="arrowRight" xlink:href="#dirArrow" transform="rotate(90) translate(36 -43)" onmousedown="handlePan(1,0)">
                  <use xlink:href="#rim" fill="#404040">
                        <set attributeName="fill" to="#808080" begin="arrowRight.mouseover" end="arrowRight.mouseout"/>
                  </use>
                  <path fill="none" stroke="white" stroke-width="1.5" d="M0,-3.0v7 M-2.5,-0.5L0,-3.0L2.5,-0.5"/>
                </g>
                <g id="arrowDown" xlink:href="#dirArrow" transform="rotate(180) translate(-30 -48)" onmousedown="handlePan(0,1)">
                  <use xlink:href="#rim" fill="#404040">
                        <set attributeName="fill" to="#808080" begin="arrowDown.mouseover" end="arrowDown.mouseout"/>
                  </use>
                  <path fill="none" stroke="white" stroke-width="1.5" d="M0,-3.0v7 M-2.5,-0.5L0,-3.0L2.5,-0.5"/>
                </g>
                <g id="arrowLeft" xlink:href="#dirArrow" transform="rotate(270) translate(-36 17)" onmousedown="handlePan(-1,0)">
                  <use xlink:href="#rim" fill="#404040">
                        <set attributeName="fill" to="#808080" begin="arrowLeft.mouseover" end="arrowLeft.mouseout"/>
                  </use>
                  <path fill="none" stroke="white" stroke-width="1.5" d="M0,-3.0v7 M-2.5,-0.5L0,-3.0L2.5,-0.5"/>
                </g>
        </g>
        <svg viewBox="0 0 15 15" width="100%" height="30px" preserveAspectRatio="xMaxYMin meet">
         <g id="arrow_out" transform="scale(0.3 0.3)">
          <a xlink:href="classnat__num__t_a8f8bdd2355aab6b9b24f4c87cd68f5b7_icgraph_org.svg" target="_base">
           <rect id="button" ry="5" rx="5" y="6" x="6" height="38" width="38"
                fill="#f2f5e9" fill-opacity="0.5" stroke="#606060" stroke-width="1.0"/>
           <path id="arrow"
             d="M 11.500037,31.436501 C 11.940474,20.09759 22.043105,11.32322 32.158766,21.979434 L 37.068811,17.246167 C 37.068811,17.246167 37.088388,32 37.088388,32 L 22.160133,31.978069 C 22.160133,31.978069 26.997745,27.140456 26.997745,27.140456 C 18.528582,18.264221 13.291696,25.230495 11.500037,31.436501 z"
             style="fill:#404040;"/>
          </a>
         </g>
        </svg>
</svg>
