<?xml version="1.0" encoding="UTF-8" standalone="no"?>
<!DOCTYPE svg PUBLIC "-//W3C//DTD SVG 1.1//EN"
 "http://www.w3.org/Graphics/SVG/1.1/DTD/svg11.dtd">
<!-- Generated by graphviz version 2.44.1 (20220725.2034)
 -->
<!-- Title: nat_num_t::remBm1 Pages: 1 -->
<!--zoomable 127 -->
<svg id="main" version="1.1" xmlns="http://www.w3.org/2000/svg" xmlns:xlink="http://www.w3.org/1999/xlink" xml:space="preserve" onload="init(evt)">
<style type="text/css"><![CDATA[
.edge:hover path { stroke: red; }
.edge:hover polygon { stroke: red; fill: red; }
]]></style>
<script type="text/javascript"><![CDATA[
var edges = document.getElementsByTagName('g');
if (edges && edges.length) {
  for (var i=0;i<edges.length;i++) {
    if (edges[i].id.substr(0,4)=='edge') {
      edges[i].setAttribute('class','edge');
    }
  }
}
]]></script>
        <defs>
                <circle id="rim" cx="0" cy="0" r="7"/>
                <circle id="rim2" cx="0" cy="0" r="3.5"/>
                <g id="zoomPlus">
                        <use xlink:href="#rim" fill="#404040">
                                <set attributeName="fill" to="#808080" begin="zoomplus.mouseover" end="zoomplus.mouseout"/>
                        </use>
                        <path d="M-4,0h8M0,-4v8" fill="none" stroke="white" stroke-width="1.5" pointer-events="none"/>
                </g>
                <g id="zoomMin">
                        <use xlink:href="#rim" fill="#404040">
                                <set attributeName="fill" to="#808080" begin="zoomminus.mouseover" end="zoomminus.mouseout"/>
                        </use>
                        <path d="M-4,0h8" fill="none" stroke="white" stroke-width="1.5" pointer-events="none"/>
                </g>
                <g id="dirArrow">
                        <path fill="none" stroke="white" stroke-width="1.5" d="M0,-3.0v7 M-2.5,-0.5L0,-3.0L2.5,-0.5"/>
                </g>
               <g id="resetDef">
                       <use xlink:href="#rim2" fill="#404040">
                               <set attributeName="fill" to="#808080" begin="reset.mouseover" end="reset.mouseout"/>
                       </use>
               </g>
        </defs>

<script type="text/javascript">
var viewWidth = 658;
var viewHeight = 127;
var sectionId = 'dynsection-101';
</script>
<script xlink:href="svgpan.js"/>
<svg id="graph" class="graph">
<g id="viewport">
<title>nat_num_t::remBm1</title>
<!-- Node1 -->
<g id="node1" class="node">
<title>Node1</title>
<g id="a_node1"><a xlink:title=" ">
<polygon fill="#999999" stroke="#666666" points="105,-51.58 0,-51.58 0,-32.58 105,-32.58 105,-51.58"/>
<text text-anchor="middle" x="52.5" y="-39.58" font-family="Helvetica,sans-Serif" font-size="10.00">nat_num_t::remBm1</text>
</a>
</g>
</g>
<!-- Node2 -->
<g id="node2" class="node">
<title>Node2</title>
<g id="a_node2"><a xlink:href="classnat__num__t.html#a5884ef039a920a6cd34409885551d33a" target="_top" xlink:title=" ">
<polygon fill="white" stroke="#666666" points="232,-88.58 148,-88.58 148,-69.58 232,-69.58 232,-88.58"/>
<text text-anchor="middle" x="190" y="-76.58" font-family="Helvetica,sans-Serif" font-size="10.00">nat_num_t::abs</text>
</a>
</g>
</g>
<!-- Node1&#45;&gt;Node2 -->
<g id="edge1" class="edge">
<title>Node1&#45;&gt;Node2</title>
<path fill="none" stroke="#63b8ff" d="M88.39,-51.61C105.33,-56.24 125.88,-61.85 143.99,-66.79"/>
<polygon fill="#63b8ff" stroke="#63b8ff" points="143.18,-70.2 153.75,-69.46 145.03,-63.45 143.18,-70.2"/>
</g>
<!-- Node3 -->
<g id="node3" class="node">
<title>Node3</title>
<g id="a_node3"><a xlink:href="classnat__num__t.html#a5a1e29dfd320bf08016a2f0227621f0d" target="_top" xlink:title=" ">
<polygon fill="white" stroke="#666666" points="239,-51.58 141,-51.58 141,-32.58 239,-32.58 239,-51.58"/>
<text text-anchor="middle" x="190" y="-39.58" font-family="Helvetica,sans-Serif" font-size="10.00">nat_num_t::reduce</text>
</a>
</g>
</g>
<!-- Node1&#45;&gt;Node3 -->
<g id="edge2" class="edge">
<title>Node1&#45;&gt;Node3</title>
<path fill="none" stroke="#63b8ff" d="M105.11,-42.08C113.41,-42.08 122.05,-42.08 130.49,-42.08"/>
<polygon fill="#63b8ff" stroke="#63b8ff" points="130.65,-45.58 140.65,-42.08 130.65,-38.58 130.65,-45.58"/>
</g>
<!-- Node6 -->
<g id="node6" class="node">
<title>Node6</title>
<g id="a_node6"><a xlink:href="classnat__num__t.html#a3f420ff49cf6b55ef38936b2035a4071" target="_top" xlink:title=" ">
<polygon fill="white" stroke="#666666" points="650,-70.58 564,-70.58 564,-51.58 650,-51.58 650,-70.58"/>
<text text-anchor="middle" x="607" y="-58.58" font-family="Helvetica,sans-Serif" font-size="10.00">nat_num_t::size</text>
</a>
</g>
</g>
<!-- Node1&#45;&gt;Node6 -->
<g id="edge8" class="edge">
<title>Node1&#45;&gt;Node6</title>
<path fill="none" stroke="#63b8ff" d="M88.8,-32.48C150,-17.08 279.7,10.03 389,-4.08 453.55,-12.42 526.29,-34.16 569.03,-48.25"/>
<polygon fill="#63b8ff" stroke="#63b8ff" points="568.11,-51.64 578.7,-51.48 570.33,-45 568.11,-51.64"/>
</g>
<!-- Node4 -->
<g id="node4" class="node">
<title>Node4</title>
<g id="a_node4"><a xlink:href="classnat__num__t.html#a14b63725918fba3ba1f731c3cda4b6ca" target="_top" xlink:title=" ">
<polygon fill="white" stroke="#666666" points="383,-119.08 281,-119.08 281,-89.08 383,-89.08 383,-119.08"/>
<text text-anchor="start" x="289" y="-107.08" font-family="Helvetica,sans-Serif" font-size="10.00">nat_num_t::digs_no</text>
<text text-anchor="middle" x="332" y="-96.08" font-family="Helvetica,sans-Serif" font-size="10.00">_significativos</text>
</a>
</g>
</g>
<!-- Node3&#45;&gt;Node4 -->
<g id="edge3" class="edge">
<title>Node3&#45;&gt;Node4</title>
<path fill="none" stroke="#63b8ff" d="M216.03,-51.66C223.46,-54.59 231.59,-57.89 239,-61.08 256.05,-68.43 274.65,-77.02 290.63,-84.57"/>
<polygon fill="#63b8ff" stroke="#63b8ff" points="289.17,-87.75 299.7,-88.88 292.17,-81.43 289.17,-87.75"/>
</g>
<!-- Node3&#45;&gt;Node6 -->
<g id="edge7" class="edge">
<title>Node3&#45;&gt;Node6</title>
<path fill="none" stroke="#63b8ff" d="M239.01,-44.28C317.48,-47.87 472.57,-54.97 553.72,-58.69"/>
<polygon fill="#63b8ff" stroke="#63b8ff" points="553.57,-62.19 563.72,-59.15 553.89,-55.19 553.57,-62.19"/>
</g>
<!-- Node7 -->
<g id="node7" class="node">
<title>Node7</title>
<g id="a_node7"><a xlink:href="classnat__num__t.html#a8f8bdd2355aab6b9b24f4c87cd68f5b7" target="_top" xlink:title=" ">
<polygon fill="white" stroke="#666666" points="389,-32.58 275,-32.58 275,-13.58 389,-13.58 389,-32.58"/>
<text text-anchor="middle" x="332" y="-20.58" font-family="Helvetica,sans-Serif" font-size="10.00">nat_num_t::nat_num_t</text>
</a>
</g>
</g>
<!-- Node3&#45;&gt;Node7 -->
<g id="edge6" class="edge">
<title>Node3&#45;&gt;Node7</title>
<path fill="none" stroke="#63b8ff" d="M239.18,-35.54C247.37,-34.43 256,-33.26 264.55,-32.1"/>
<polygon fill="#63b8ff" stroke="#63b8ff" points="265.1,-35.56 274.54,-30.75 264.16,-28.62 265.1,-35.56"/>
</g>
<!-- Node5 -->
<g id="node5" class="node">
<title>Node5</title>
<g id="a_node5"><a xlink:href="classnat__num__t.html#a2a7eae79a48f9b29a40c9103cfac72d7" target="_top" xlink:title=" ">
<polygon fill="white" stroke="#666666" points="528,-119.08 425,-119.08 425,-89.08 528,-89.08 528,-119.08"/>
<text text-anchor="start" x="433" y="-107.08" font-family="Helvetica,sans-Serif" font-size="10.00">nat_num_t::ceros_a</text>
<text text-anchor="middle" x="476.5" y="-96.08" font-family="Helvetica,sans-Serif" font-size="10.00">_la_izqda</text>
</a>
</g>
</g>
<!-- Node4&#45;&gt;Node5 -->
<g id="edge4" class="edge">
<title>Node4&#45;&gt;Node5</title>
<path fill="none" stroke="#63b8ff" d="M383.24,-104.08C393.34,-104.08 404.05,-104.08 414.47,-104.08"/>
<polygon fill="#63b8ff" stroke="#63b8ff" points="414.75,-107.58 424.75,-104.08 414.75,-100.58 414.75,-107.58"/>
</g>
<!-- Node5&#45;&gt;Node6 -->
<g id="edge5" class="edge">
<title>Node5&#45;&gt;Node6</title>
<path fill="none" stroke="#63b8ff" d="M522.44,-89.04C537.26,-84.08 553.59,-78.62 567.85,-73.85"/>
<polygon fill="#63b8ff" stroke="#63b8ff" points="568.98,-77.16 577.35,-70.67 566.76,-70.52 568.98,-77.16"/>
</g>
</g>
</svg>
        <g id="navigator" transform="translate(0 0)" fill="#404254">
                <rect fill="#f2f5e9" fill-opacity="0.5" stroke="#606060" stroke-width=".5" x="0" y="0" width="60" height="60"/>
                <use id="zoomplus" xlink:href="#zoomPlus" x="17" y="9" onmousedown="handleZoom(evt,'in')"/>
                <use id="zoomminus" xlink:href="#zoomMin" x="42" y="9" onmousedown="handleZoom(evt,'out')"/>
                <use id="reset" xlink:href="#resetDef" x="30" y="36" onmousedown="handleReset()"/>
                <g id="arrowUp" xlink:href="#dirArrow" transform="translate(30 24)" onmousedown="handlePan(0,-1)">
                  <use xlink:href="#rim" fill="#404040">
                        <set attributeName="fill" to="#808080" begin="arrowUp.mouseover" end="arrowUp.mouseout"/>
                  </use>
                  <path fill="none" stroke="white" stroke-width="1.5" d="M0,-3.0v7 M-2.5,-0.5L0,-3.0L2.5,-0.5"/>
                </g>
                <g id="arrowRight" xlink:href="#dirArrow" transform="rotate(90) translate(36 -43)" onmousedown="handlePan(1,0)">
                  <use xlink:href="#rim" fill="#404040">
                        <set attributeName="fill" to="#808080" begin="arrowRight.mouseover" end="arrowRight.mouseout"/>
                  </use>
                  <path fill="none" stroke="white" stroke-width="1.5" d="M0,-3.0v7 M-2.5,-0.5L0,-3.0L2.5,-0.5"/>
                </g>
                <g id="arrowDown" xlink:href="#dirArrow" transform="rotate(180) translate(-30 -48)" onmousedown="handlePan(0,1)">
                  <use xlink:href="#rim" fill="#404040">
                        <set attributeName="fill" to="#808080" begin="arrowDown.mouseover" end="arrowDown.mouseout"/>
                  </use>
                  <path fill="none" stroke="white" stroke-width="1.5" d="M0,-3.0v7 M-2.5,-0.5L0,-3.0L2.5,-0.5"/>
                </g>
                <g id="arrowLeft" xlink:href="#dirArrow" transform="rotate(270) translate(-36 17)" onmousedown="handlePan(-1,0)">
                  <use xlink:href="#rim" fill="#404040">
                        <set attributeName="fill" to="#808080" begin="arrowLeft.mouseover" end="arrowLeft.mouseout"/>
                  </use>
                  <path fill="none" stroke="white" stroke-width="1.5" d="M0,-3.0v7 M-2.5,-0.5L0,-3.0L2.5,-0.5"/>
                </g>
        </g>
        <svg viewBox="0 0 15 15" width="100%" height="30px" preserveAspectRatio="xMaxYMin meet">
         <g id="arrow_out" transform="scale(0.3 0.3)">
          <a xlink:href="classnat__num__t_ab352e91cb85a60cc2ec06082f59dca99_cgraph_org.svg" target="_base">
           <rect id="button" ry="5" rx="5" y="6" x="6" height="38" width="38"
                fill="#f2f5e9" fill-opacity="0.5" stroke="#606060" stroke-width="1.0"/>
           <path id="arrow"
             d="M 11.500037,31.436501 C 11.940474,20.09759 22.043105,11.32322 32.158766,21.979434 L 37.068811,17.246167 C 37.068811,17.246167 37.088388,32 37.088388,32 L 22.160133,31.978069 C 22.160133,31.978069 26.997745,27.140456 26.997745,27.140456 C 18.528582,18.264221 13.291696,25.230495 11.500037,31.436501 z"
             style="fill:#404040;"/>
          </a>
         </g>
        </svg>
</svg>
