<?xml version="1.0" encoding="UTF-8" standalone="no"?>
<!DOCTYPE svg PUBLIC "-//W3C//DTD SVG 1.1//EN"
 "http://www.w3.org/Graphics/SVG/1.1/DTD/svg11.dtd">
<!-- Generated by graphviz version 2.44.1 (20220725.2034)
 -->
<!-- Title: nat_num_t::div2 Pages: 1 -->
<svg width="639pt" height="190pt"
 viewBox="0.00 0.00 639.00 189.50" xmlns="http://www.w3.org/2000/svg" xmlns:xlink="http://www.w3.org/1999/xlink">
<g id="graph0" class="graph" transform="scale(1 1) rotate(0) translate(4 185.5)">
<title>nat_num_t::div2</title>
<!-- Node1 -->
<g id="node1" class="node">
<title>Node1</title>
<g id="a_node1"><a xlink:title=" ">
<polygon fill="#999999" stroke="#666666" points="86,-76 0,-76 0,-57 86,-57 86,-76"/>
<text text-anchor="middle" x="43" y="-64" font-family="Helvetica,sans-Serif" font-size="10.00">nat_num_t::div2</text>
</a>
</g>
</g>
<!-- Node2 -->
<g id="node2" class="node">
<title>Node2</title>
<g id="a_node2"><a xlink:href="classnat__num__t.html#a5884ef039a920a6cd34409885551d33a" target="_top" xlink:title=" ">
<polygon fill="white" stroke="#666666" points="213,-132 129,-132 129,-113 213,-113 213,-132"/>
<text text-anchor="middle" x="171" y="-120" font-family="Helvetica,sans-Serif" font-size="10.00">nat_num_t::abs</text>
</a>
</g>
</g>
<!-- Node1&#45;&gt;Node2 -->
<g id="edge1" class="edge">
<title>Node1&#45;&gt;Node2</title>
<path fill="none" stroke="#63b8ff" d="M62.37,-76.06C78.03,-84.06 101.24,-95.58 122,-104.5 125.71,-106.1 129.62,-107.69 133.53,-109.24"/>
<polygon fill="#63b8ff" stroke="#63b8ff" points="132.57,-112.62 143.16,-112.95 135.09,-106.09 132.57,-112.62"/>
</g>
<!-- Node3 -->
<g id="node3" class="node">
<title>Node3</title>
<g id="a_node3"><a xlink:href="classnat__num__t.html#a5a1e29dfd320bf08016a2f0227621f0d" target="_top" xlink:title=" ">
<polygon fill="white" stroke="#666666" points="220,-95 122,-95 122,-76 220,-76 220,-95"/>
<text text-anchor="middle" x="171" y="-83" font-family="Helvetica,sans-Serif" font-size="10.00">nat_num_t::reduce</text>
</a>
</g>
</g>
<!-- Node1&#45;&gt;Node3 -->
<g id="edge2" class="edge">
<title>Node1&#45;&gt;Node3</title>
<path fill="none" stroke="#63b8ff" d="M86.31,-72.88C94.53,-74.12 103.28,-75.44 111.91,-76.74"/>
<polygon fill="#63b8ff" stroke="#63b8ff" points="111.53,-80.22 121.94,-78.25 112.57,-73.3 111.53,-80.22"/>
</g>
<!-- Node6 -->
<g id="node6" class="node">
<title>Node6</title>
<g id="a_node6"><a xlink:href="classnat__num__t.html#a3f420ff49cf6b55ef38936b2035a4071" target="_top" xlink:title=" ">
<polygon fill="white" stroke="#666666" points="631,-133 545,-133 545,-114 631,-114 631,-133"/>
<text text-anchor="middle" x="588" y="-121" font-family="Helvetica,sans-Serif" font-size="10.00">nat_num_t::size</text>
</a>
</g>
</g>
<!-- Node1&#45;&gt;Node6 -->
<g id="edge8" class="edge">
<title>Node1&#45;&gt;Node6</title>
<path fill="none" stroke="#63b8ff" d="M86.16,-63.07C148.51,-58.77 268.82,-53.43 370,-66.5 434.55,-74.84 507.29,-96.58 550.03,-110.67"/>
<polygon fill="#63b8ff" stroke="#63b8ff" points="549.11,-114.05 559.7,-113.9 551.33,-107.41 549.11,-114.05"/>
</g>
<!-- Node8 -->
<g id="node8" class="node">
<title>Node8</title>
<g id="a_node8"><a xlink:href="classnat__num__t.html#a04b3864005da7d30b79ebdb0b4529bcc" target="_top" xlink:title=" ">
<polygon fill="white" stroke="#666666" points="218.5,-19 123.5,-19 123.5,0 218.5,0 218.5,-19"/>
<text text-anchor="middle" x="171" y="-7" font-family="Helvetica,sans-Serif" font-size="10.00">nat_num_t::substr</text>
</a>
</g>
</g>
<!-- Node1&#45;&gt;Node8 -->
<g id="edge9" class="edge">
<title>Node1&#45;&gt;Node8</title>
<path fill="none" stroke="#63b8ff" d="M65.09,-56.96C85.44,-47.75 116.47,-33.72 139.51,-23.29"/>
<polygon fill="#63b8ff" stroke="#63b8ff" points="141.17,-26.38 148.84,-19.07 138.29,-20 141.17,-26.38"/>
</g>
<!-- Node4 -->
<g id="node4" class="node">
<title>Node4</title>
<g id="a_node4"><a xlink:href="classnat__num__t.html#a14b63725918fba3ba1f731c3cda4b6ca" target="_top" xlink:title=" ">
<polygon fill="white" stroke="#666666" points="364,-181.5 262,-181.5 262,-151.5 364,-151.5 364,-181.5"/>
<text text-anchor="start" x="270" y="-169.5" font-family="Helvetica,sans-Serif" font-size="10.00">nat_num_t::digs_no</text>
<text text-anchor="middle" x="313" y="-158.5" font-family="Helvetica,sans-Serif" font-size="10.00">_significativos</text>
</a>
</g>
</g>
<!-- Node3&#45;&gt;Node4 -->
<g id="edge3" class="edge">
<title>Node3&#45;&gt;Node4</title>
<path fill="none" stroke="#63b8ff" d="M201.01,-95.01C207.48,-97.66 214.15,-100.84 220,-104.5 238.4,-116.02 238.21,-125.07 256,-137.5 260.54,-140.67 265.48,-143.73 270.48,-146.58"/>
<polygon fill="#63b8ff" stroke="#63b8ff" points="269.01,-149.77 279.46,-151.49 272.37,-143.63 269.01,-149.77"/>
</g>
<!-- Node3&#45;&gt;Node6 -->
<g id="edge7" class="edge">
<title>Node3&#45;&gt;Node6</title>
<path fill="none" stroke="#63b8ff" d="M208.14,-95.05C222.88,-98.58 240.16,-102.27 256,-104.5 353.93,-118.29 469.5,-122.13 534.92,-123.16"/>
<polygon fill="#63b8ff" stroke="#63b8ff" points="534.93,-126.66 544.98,-123.3 535.03,-119.66 534.93,-126.66"/>
</g>
<!-- Node7 -->
<g id="node7" class="node">
<title>Node7</title>
<g id="a_node7"><a xlink:href="classnat__num__t.html#a8f8bdd2355aab6b9b24f4c87cd68f5b7" target="_top" xlink:title=" ">
<polygon fill="white" stroke="#666666" points="370,-95 256,-95 256,-76 370,-76 370,-95"/>
<text text-anchor="middle" x="313" y="-83" font-family="Helvetica,sans-Serif" font-size="10.00">nat_num_t::nat_num_t</text>
</a>
</g>
</g>
<!-- Node3&#45;&gt;Node7 -->
<g id="edge6" class="edge">
<title>Node3&#45;&gt;Node7</title>
<path fill="none" stroke="#63b8ff" d="M220.18,-85.5C228.28,-85.5 236.81,-85.5 245.27,-85.5"/>
<polygon fill="#63b8ff" stroke="#63b8ff" points="245.54,-89 255.54,-85.5 245.54,-82 245.54,-89"/>
</g>
<!-- Node5 -->
<g id="node5" class="node">
<title>Node5</title>
<g id="a_node5"><a xlink:href="classnat__num__t.html#a2a7eae79a48f9b29a40c9103cfac72d7" target="_top" xlink:title=" ">
<polygon fill="white" stroke="#666666" points="509,-181.5 406,-181.5 406,-151.5 509,-151.5 509,-181.5"/>
<text text-anchor="start" x="414" y="-169.5" font-family="Helvetica,sans-Serif" font-size="10.00">nat_num_t::ceros_a</text>
<text text-anchor="middle" x="457.5" y="-158.5" font-family="Helvetica,sans-Serif" font-size="10.00">_la_izqda</text>
</a>
</g>
</g>
<!-- Node4&#45;&gt;Node5 -->
<g id="edge4" class="edge">
<title>Node4&#45;&gt;Node5</title>
<path fill="none" stroke="#63b8ff" d="M364.24,-166.5C374.34,-166.5 385.05,-166.5 395.47,-166.5"/>
<polygon fill="#63b8ff" stroke="#63b8ff" points="395.75,-170 405.75,-166.5 395.75,-163 395.75,-170"/>
</g>
<!-- Node5&#45;&gt;Node6 -->
<g id="edge5" class="edge">
<title>Node5&#45;&gt;Node6</title>
<path fill="none" stroke="#63b8ff" d="M503.44,-151.46C518.26,-146.5 534.59,-141.04 548.85,-136.27"/>
<polygon fill="#63b8ff" stroke="#63b8ff" points="549.98,-139.58 558.35,-133.09 547.76,-132.94 549.98,-139.58"/>
</g>
</g>
</svg>
