<?xml version="1.0" encoding="UTF-8" standalone="no"?>
<!DOCTYPE svg PUBLIC "-//W3C//DTD SVG 1.1//EN"
 "http://www.w3.org/Graphics/SVG/1.1/DTD/svg11.dtd">
<!-- Generated by graphviz version 2.44.1 (20220725.2034)
 -->
<!-- Title: nat_num_t::operator&gt;= Pages: 1 -->
<svg width="385pt" height="55pt"
 viewBox="0.00 0.00 385.00 54.50" xmlns="http://www.w3.org/2000/svg" xmlns:xlink="http://www.w3.org/1999/xlink">
<g id="graph0" class="graph" transform="scale(1 1) rotate(0) translate(4 50.5)">
<title>nat_num_t::operator&gt;=</title>
<!-- Node1 -->
<g id="node1" class="node">
<title>Node1</title>
<g id="a_node1"><a xlink:title=" ">
<polygon fill="#999999" stroke="#666666" points="116,-19 0,-19 0,0 116,0 116,-19"/>
<text text-anchor="middle" x="58" y="-7" font-family="Helvetica,sans-Serif" font-size="10.00">nat_num_t::operator&gt;=</text>
</a>
</g>
</g>
<!-- Node2 -->
<g id="node2" class="node">
<title>Node2</title>
<g id="a_node2"><a xlink:href="classnat__num__t.html#a2a7eae79a48f9b29a40c9103cfac72d7" target="_top" xlink:title=" ">
<polygon fill="white" stroke="#666666" points="255,-46.5 152,-46.5 152,-16.5 255,-16.5 255,-46.5"/>
<text text-anchor="start" x="160" y="-34.5" font-family="Helvetica,sans-Serif" font-size="10.00">nat_num_t::ceros_a</text>
<text text-anchor="middle" x="203.5" y="-23.5" font-family="Helvetica,sans-Serif" font-size="10.00">_la_izqda</text>
</a>
</g>
</g>
<!-- Node1&#45;&gt;Node2 -->
<g id="edge1" class="edge">
<title>Node1&#45;&gt;Node2</title>
<path fill="none" stroke="#63b8ff" d="M116.13,-18.26C124.46,-19.54 133.07,-20.86 141.48,-22.15"/>
<polygon fill="#63b8ff" stroke="#63b8ff" points="141.19,-25.64 151.61,-23.7 142.25,-18.72 141.19,-25.64"/>
</g>
<!-- Node3 -->
<g id="node3" class="node">
<title>Node3</title>
<g id="a_node3"><a xlink:href="classnat__num__t.html#a3f420ff49cf6b55ef38936b2035a4071" target="_top" xlink:title=" ">
<polygon fill="white" stroke="#666666" points="377,-19 291,-19 291,0 377,0 377,-19"/>
<text text-anchor="middle" x="334" y="-7" font-family="Helvetica,sans-Serif" font-size="10.00">nat_num_t::size</text>
</a>
</g>
</g>
<!-- Node1&#45;&gt;Node3 -->
<g id="edge3" class="edge">
<title>Node1&#45;&gt;Node3</title>
<path fill="none" stroke="#63b8ff" d="M116.05,-8.08C127.93,-7.84 140.37,-7.63 152,-7.5 197.78,-7.01 209.23,-6.91 255,-7.5 263.37,-7.61 272.25,-7.78 280.9,-7.98"/>
<polygon fill="#63b8ff" stroke="#63b8ff" points="280.82,-11.48 290.9,-8.22 280.99,-4.48 280.82,-11.48"/>
</g>
<!-- Node2&#45;&gt;Node3 -->
<g id="edge2" class="edge">
<title>Node2&#45;&gt;Node3</title>
<path fill="none" stroke="#63b8ff" d="M255.29,-22.81C263.67,-21.37 272.36,-19.88 280.78,-18.44"/>
<polygon fill="#63b8ff" stroke="#63b8ff" points="281.59,-21.85 290.86,-16.72 280.41,-14.95 281.59,-21.85"/>
</g>
</g>
</svg>
