<?xml version="1.0" encoding="UTF-8" standalone="no"?>
<!DOCTYPE svg PUBLIC "-//W3C//DTD SVG 1.1//EN"
 "http://www.w3.org/Graphics/SVG/1.1/DTD/svg11.dtd">
<!-- Generated by graphviz version 2.44.1 (20220725.2034)
 -->
<!-- Title: nat_num_t::operator&#45; Pages: 1 -->
<!--zoomable 171 -->
<svg id="main" version="1.1" xmlns="http://www.w3.org/2000/svg" xmlns:xlink="http://www.w3.org/1999/xlink" xml:space="preserve" onload="init(evt)">
<style type="text/css"><![CDATA[
.edge:hover path { stroke: red; }
.edge:hover polygon { stroke: red; fill: red; }
]]></style>
<script type="text/javascript"><![CDATA[
var edges = document.getElementsByTagName('g');
if (edges && edges.length) {
  for (var i=0;i<edges.length;i++) {
    if (edges[i].id.substr(0,4)=='edge') {
      edges[i].setAttribute('class','edge');
    }
  }
}
]]></script>
        <defs>
                <circle id="rim" cx="0" cy="0" r="7"/>
                <circle id="rim2" cx="0" cy="0" r="3.5"/>
                <g id="zoomPlus">
                        <use xlink:href="#rim" fill="#404040">
                                <set attributeName="fill" to="#808080" begin="zoomplus.mouseover" end="zoomplus.mouseout"/>
                        </use>
                        <path d="M-4,0h8M0,-4v8" fill="none" stroke="white" stroke-width="1.5" pointer-events="none"/>
                </g>
                <g id="zoomMin">
                        <use xlink:href="#rim" fill="#404040">
                                <set attributeName="fill" to="#808080" begin="zoomminus.mouseover" end="zoomminus.mouseout"/>
                        </use>
                        <path d="M-4,0h8" fill="none" stroke="white" stroke-width="1.5" pointer-events="none"/>
                </g>
                <g id="dirArrow">
                        <path fill="none" stroke="white" stroke-width="1.5" d="M0,-3.0v7 M-2.5,-0.5L0,-3.0L2.5,-0.5"/>
                </g>
               <g id="resetDef">
                       <use xlink:href="#rim2" fill="#404040">
                               <set attributeName="fill" to="#808080" begin="reset.mouseover" end="reset.mouseout"/>
                       </use>
               </g>
        </defs>

<script type="text/javascript">
var viewWidth = 807;
var viewHeight = 171;
var sectionId = 'dynsection-66';
</script>
<script xlink:href="svgpan.js"/>
<svg id="graph" class="graph">
<g id="viewport">
<title>nat_num_t::operator&#45;</title>
<!-- Node1 -->
<g id="node1" class="node">
<title>Node1</title>
<g id="a_node1"><a xlink:title=" ">
<polygon fill="#999999" stroke="#666666" points="107,-66.5 0,-66.5 0,-47.5 107,-47.5 107,-66.5"/>
<text text-anchor="middle" x="53.5" y="-54.5" font-family="Helvetica,sans-Serif" font-size="10.00">nat_num_t::operator&#45;</text>
</a>
</g>
</g>
<!-- Node2 -->
<g id="node2" class="node">
<title>Node2</title>
<g id="a_node2"><a xlink:href="classnat__num__t.html#a07b25245f1119449ee9171ab2ea85de6" target="_top" xlink:title=" ">
<polygon fill="white" stroke="#666666" points="238,-123.5 143,-123.5 143,-104.5 238,-104.5 238,-123.5"/>
<text text-anchor="middle" x="190.5" y="-111.5" font-family="Helvetica,sans-Serif" font-size="10.00">nat_num_t::minus</text>
</a>
</g>
</g>
<!-- Node1&#45;&gt;Node2 -->
<g id="edge1" class="edge">
<title>Node1&#45;&gt;Node2</title>
<path fill="none" stroke="#63b8ff" d="M77.1,-66.54C99.1,-75.83 132.74,-90.04 157.49,-100.49"/>
<polygon fill="#63b8ff" stroke="#63b8ff" points="156.26,-103.76 166.83,-104.43 158.98,-97.31 156.26,-103.76"/>
</g>
<!-- Node4 -->
<g id="node4" class="node">
<title>Node4</title>
<g id="a_node4"><a xlink:href="classnat__num__t.html#a5a1e29dfd320bf08016a2f0227621f0d" target="_top" xlink:title=" ">
<polygon fill="white" stroke="#666666" points="380,-85.5 282,-85.5 282,-66.5 380,-66.5 380,-85.5"/>
<text text-anchor="middle" x="331" y="-73.5" font-family="Helvetica,sans-Serif" font-size="10.00">nat_num_t::reduce</text>
</a>
</g>
</g>
<!-- Node1&#45;&gt;Node4 -->
<g id="edge11" class="edge">
<title>Node1&#45;&gt;Node4</title>
<path fill="none" stroke="#63b8ff" d="M107.29,-60.64C154.41,-63.89 223.28,-68.64 271.93,-72"/>
<polygon fill="#63b8ff" stroke="#63b8ff" points="271.78,-75.49 281.99,-72.69 272.26,-68.51 271.78,-75.49"/>
</g>
<!-- Node7 -->
<g id="node7" class="node">
<title>Node7</title>
<g id="a_node7"><a xlink:href="classnat__num__t.html#a3f420ff49cf6b55ef38936b2035a4071" target="_top" xlink:title=" ">
<polygon fill="white" stroke="#666666" points="799,-106.5 713,-106.5 713,-87.5 799,-87.5 799,-106.5"/>
<text text-anchor="middle" x="756" y="-94.5" font-family="Helvetica,sans-Serif" font-size="10.00">nat_num_t::size</text>
</a>
</g>
</g>
<!-- Node1&#45;&gt;Node7 -->
<g id="edge12" class="edge">
<title>Node1&#45;&gt;Node7</title>
<path fill="none" stroke="#63b8ff" d="M81.88,-47.46C130.95,-31.23 237.44,0 330,0 330,0 330,0 482,0 578.94,0 684.64,-54.97 730.97,-82.15"/>
<polygon fill="#63b8ff" stroke="#63b8ff" points="729.3,-85.23 739.68,-87.34 732.89,-79.22 729.3,-85.23"/>
</g>
<!-- Node8 -->
<g id="node8" class="node">
<title>Node8</title>
<g id="a_node8"><a xlink:href="classnat__num__t.html#a8f8bdd2355aab6b9b24f4c87cd68f5b7" target="_top" xlink:title=" ">
<polygon fill="white" stroke="#666666" points="538,-47.5 424,-47.5 424,-28.5 538,-28.5 538,-47.5"/>
<text text-anchor="middle" x="481" y="-35.5" font-family="Helvetica,sans-Serif" font-size="10.00">nat_num_t::nat_num_t</text>
</a>
</g>
</g>
<!-- Node1&#45;&gt;Node8 -->
<g id="edge10" class="edge">
<title>Node1&#45;&gt;Node8</title>
<path fill="none" stroke="#63b8ff" d="M107.1,-54.65C184.55,-51.19 329.22,-44.73 413.8,-40.96"/>
<polygon fill="#63b8ff" stroke="#63b8ff" points="413.97,-44.45 423.8,-40.51 413.66,-37.46 413.97,-44.45"/>
</g>
<!-- Node3 -->
<g id="node3" class="node">
<title>Node3</title>
<g id="a_node3"><a xlink:href="classnat__num__t.html#aa0ced0babafe7e7e98b393c63d0c06d9" target="_top" xlink:title=" ">
<polygon fill="white" stroke="#666666" points="388,-123.5 274,-123.5 274,-104.5 388,-104.5 388,-123.5"/>
<text text-anchor="middle" x="331" y="-111.5" font-family="Helvetica,sans-Serif" font-size="10.00">nat_num_t::push_front</text>
</a>
</g>
</g>
<!-- Node2&#45;&gt;Node3 -->
<g id="edge2" class="edge">
<title>Node2&#45;&gt;Node3</title>
<path fill="none" stroke="#63b8ff" d="M238,-114C246.25,-114 254.98,-114 263.65,-114"/>
<polygon fill="#63b8ff" stroke="#63b8ff" points="263.77,-117.5 273.77,-114 263.77,-110.5 263.77,-117.5"/>
</g>
<!-- Node2&#45;&gt;Node4 -->
<g id="edge3" class="edge">
<title>Node2&#45;&gt;Node4</title>
<path fill="none" stroke="#63b8ff" d="M226.45,-104.41C244.33,-99.51 266.29,-93.48 285.38,-88.24"/>
<polygon fill="#63b8ff" stroke="#63b8ff" points="286.34,-91.61 295.06,-85.59 284.49,-84.86 286.34,-91.61"/>
</g>
<!-- Node2&#45;&gt;Node7 -->
<g id="edge9" class="edge">
<title>Node2&#45;&gt;Node7</title>
<path fill="none" stroke="#63b8ff" d="M226.13,-123.55C306.84,-144.21 513.06,-187.74 677,-143 698.68,-137.08 720.47,-123.43 735.48,-112.53"/>
<polygon fill="#63b8ff" stroke="#63b8ff" points="737.6,-115.31 743.49,-106.51 733.4,-109.72 737.6,-115.31"/>
</g>
<!-- Node5 -->
<g id="node5" class="node">
<title>Node5</title>
<g id="a_node5"><a xlink:href="classnat__num__t.html#a14b63725918fba3ba1f731c3cda4b6ca" target="_top" xlink:title=" ">
<polygon fill="white" stroke="#666666" points="532,-134 430,-134 430,-104 532,-104 532,-134"/>
<text text-anchor="start" x="438" y="-122" font-family="Helvetica,sans-Serif" font-size="10.00">nat_num_t::digs_no</text>
<text text-anchor="middle" x="481" y="-111" font-family="Helvetica,sans-Serif" font-size="10.00">_significativos</text>
</a>
</g>
</g>
<!-- Node4&#45;&gt;Node5 -->
<g id="edge4" class="edge">
<title>Node4&#45;&gt;Node5</title>
<path fill="none" stroke="#63b8ff" d="M364.85,-85.54C381.09,-90.26 401.21,-96.11 420.07,-101.59"/>
<polygon fill="#63b8ff" stroke="#63b8ff" points="419.21,-104.98 429.79,-104.41 421.16,-98.26 419.21,-104.98"/>
</g>
<!-- Node4&#45;&gt;Node7 -->
<g id="edge8" class="edge">
<title>Node4&#45;&gt;Node7</title>
<path fill="none" stroke="#63b8ff" d="M380.11,-78.39C460.16,-82.36 620.06,-90.3 702.77,-94.41"/>
<polygon fill="#63b8ff" stroke="#63b8ff" points="702.78,-97.91 712.94,-94.91 703.13,-90.92 702.78,-97.91"/>
</g>
<!-- Node4&#45;&gt;Node8 -->
<g id="edge7" class="edge">
<title>Node4&#45;&gt;Node8</title>
<path fill="none" stroke="#63b8ff" d="M369.35,-66.41C388.7,-61.44 412.53,-55.32 433.11,-50.04"/>
<polygon fill="#63b8ff" stroke="#63b8ff" points="434.11,-53.4 442.92,-47.52 432.37,-46.62 434.11,-53.4"/>
</g>
<!-- Node6 -->
<g id="node6" class="node">
<title>Node6</title>
<g id="a_node6"><a xlink:href="classnat__num__t.html#a2a7eae79a48f9b29a40c9103cfac72d7" target="_top" xlink:title=" ">
<polygon fill="white" stroke="#666666" points="677,-134 574,-134 574,-104 677,-104 677,-134"/>
<text text-anchor="start" x="582" y="-122" font-family="Helvetica,sans-Serif" font-size="10.00">nat_num_t::ceros_a</text>
<text text-anchor="middle" x="625.5" y="-111" font-family="Helvetica,sans-Serif" font-size="10.00">_la_izqda</text>
</a>
</g>
</g>
<!-- Node5&#45;&gt;Node6 -->
<g id="edge5" class="edge">
<title>Node5&#45;&gt;Node6</title>
<path fill="none" stroke="#63b8ff" d="M532.24,-119C542.34,-119 553.05,-119 563.47,-119"/>
<polygon fill="#63b8ff" stroke="#63b8ff" points="563.75,-122.5 573.75,-119 563.75,-115.5 563.75,-122.5"/>
</g>
<!-- Node6&#45;&gt;Node7 -->
<g id="edge6" class="edge">
<title>Node6&#45;&gt;Node7</title>
<path fill="none" stroke="#63b8ff" d="M677.29,-110.31C685.67,-108.87 694.36,-107.38 702.78,-105.94"/>
<polygon fill="#63b8ff" stroke="#63b8ff" points="703.59,-109.35 712.86,-104.22 702.41,-102.45 703.59,-109.35"/>
</g>
</g>
</svg>
        <g id="navigator" transform="translate(0 0)" fill="#404254">
                <rect fill="#f2f5e9" fill-opacity="0.5" stroke="#606060" stroke-width=".5" x="0" y="0" width="60" height="60"/>
                <use id="zoomplus" xlink:href="#zoomPlus" x="17" y="9" onmousedown="handleZoom(evt,'in')"/>
                <use id="zoomminus" xlink:href="#zoomMin" x="42" y="9" onmousedown="handleZoom(evt,'out')"/>
                <use id="reset" xlink:href="#resetDef" x="30" y="36" onmousedown="handleReset()"/>
                <g id="arrowUp" xlink:href="#dirArrow" transform="translate(30 24)" onmousedown="handlePan(0,-1)">
                  <use xlink:href="#rim" fill="#404040">
                        <set attributeName="fill" to="#808080" begin="arrowUp.mouseover" end="arrowUp.mouseout"/>
                  </use>
                  <path fill="none" stroke="white" stroke-width="1.5" d="M0,-3.0v7 M-2.5,-0.5L0,-3.0L2.5,-0.5"/>
                </g>
                <g id="arrowRight" xlink:href="#dirArrow" transform="rotate(90) translate(36 -43)" onmousedown="handlePan(1,0)">
                  <use xlink:href="#rim" fill="#404040">
                        <set attributeName="fill" to="#808080" begin="arrowRight.mouseover" end="arrowRight.mouseout"/>
                  </use>
                  <path fill="none" stroke="white" stroke-width="1.5" d="M0,-3.0v7 M-2.5,-0.5L0,-3.0L2.5,-0.5"/>
                </g>
                <g id="arrowDown" xlink:href="#dirArrow" transform="rotate(180) translate(-30 -48)" onmousedown="handlePan(0,1)">
                  <use xlink:href="#rim" fill="#404040">
                        <set attributeName="fill" to="#808080" begin="arrowDown.mouseover" end="arrowDown.mouseout"/>
                  </use>
                  <path fill="none" stroke="white" stroke-width="1.5" d="M0,-3.0v7 M-2.5,-0.5L0,-3.0L2.5,-0.5"/>
                </g>
                <g id="arrowLeft" xlink:href="#dirArrow" transform="rotate(270) translate(-36 17)" onmousedown="handlePan(-1,0)">
                  <use xlink:href="#rim" fill="#404040">
                        <set attributeName="fill" to="#808080" begin="arrowLeft.mouseover" end="arrowLeft.mouseout"/>
                  </use>
                  <path fill="none" stroke="white" stroke-width="1.5" d="M0,-3.0v7 M-2.5,-0.5L0,-3.0L2.5,-0.5"/>
                </g>
        </g>
        <svg viewBox="0 0 15 15" width="100%" height="30px" preserveAspectRatio="xMaxYMin meet">
         <g id="arrow_out" transform="scale(0.3 0.3)">
          <a xlink:href="classnat__num__t_a6c10bdb02ef2fdb24147eeaded22dac7_cgraph_org.svg" target="_base">
           <rect id="button" ry="5" rx="5" y="6" x="6" height="38" width="38"
                fill="#f2f5e9" fill-opacity="0.5" stroke="#606060" stroke-width="1.0"/>
           <path id="arrow"
             d="M 11.500037,31.436501 C 11.940474,20.09759 22.043105,11.32322 32.158766,21.979434 L 37.068811,17.246167 C 37.068811,17.246167 37.088388,32 37.088388,32 L 22.160133,31.978069 C 22.160133,31.978069 26.997745,27.140456 26.997745,27.140456 C 18.528582,18.264221 13.291696,25.230495 11.500037,31.436501 z"
             style="fill:#404040;"/>
          </a>
         </g>
        </svg>
</svg>
