<?xml version="1.0" encoding="UTF-8" standalone="no"?>
<!DOCTYPE svg PUBLIC "-//W3C//DTD SVG 1.1//EN"
 "http://www.w3.org/Graphics/SVG/1.1/DTD/svg11.dtd">
<!-- Generated by graphviz version 2.44.1 (20220725.2034)
 -->
<!-- Title: nat_num_t::end Pages: 1 -->
<svg width="238pt" height="64pt"
 viewBox="0.00 0.00 238.00 64.00" xmlns="http://www.w3.org/2000/svg" xmlns:xlink="http://www.w3.org/1999/xlink">
<g id="graph0" class="graph" transform="scale(1 1) rotate(0) translate(4 60)">
<title>nat_num_t::end</title>
<!-- Node1 -->
<g id="node1" class="node">
<title>Node1</title>
<g id="a_node1"><a xlink:title=" ">
<polygon fill="#999999" stroke="#666666" points="230,-37 146,-37 146,-18 230,-18 230,-37"/>
<text text-anchor="middle" x="188" y="-25" font-family="Helvetica,sans-Serif" font-size="10.00">nat_num_t::end</text>
</a>
</g>
</g>
<!-- Node2 -->
<g id="node2" class="node">
<title>Node2</title>
<g id="a_node2"><a xlink:href="classnat__num__t.html#ac276fad3a3947175a55b2b9e990ae231" target="_top" xlink:title=" ">
<polygon fill="white" stroke="#666666" points="110,-56 0,-56 0,-37 110,-37 110,-56"/>
<text text-anchor="middle" x="55" y="-44" font-family="Helvetica,sans-Serif" font-size="10.00">nat_num_t::mC_Bm1</text>
</a>
</g>
</g>
<!-- Node1&#45;&gt;Node2 -->
<g id="edge1" class="edge">
<title>Node1&#45;&gt;Node2</title>
<path fill="none" stroke="#63b8ff" d="M135.91,-34.91C127.54,-36.12 118.84,-37.39 110.4,-38.61"/>
<polygon fill="#63b8ff" stroke="#63b8ff" points="136.52,-38.36 145.91,-33.46 135.51,-31.43 136.52,-38.36"/>
</g>
<!-- Node3 -->
<g id="node3" class="node">
<title>Node3</title>
<g id="a_node3"><a xlink:href="classnat__num__t.html#a2a5a33dec1079928b211d2dc47e6d85f" target="_top" xlink:title=" ">
<polygon fill="white" stroke="#666666" points="108.5,-19 1.5,-19 1.5,0 108.5,0 108.5,-19"/>
<text text-anchor="middle" x="55" y="-7" font-family="Helvetica,sans-Serif" font-size="10.00">nat_num_t::operator!</text>
</a>
</g>
</g>
<!-- Node1&#45;&gt;Node3 -->
<g id="edge2" class="edge">
<title>Node1&#45;&gt;Node3</title>
<path fill="none" stroke="#63b8ff" d="M135.94,-20.48C126.94,-19.25 117.55,-17.96 108.51,-16.71"/>
<polygon fill="#63b8ff" stroke="#63b8ff" points="135.53,-23.96 145.91,-21.85 136.48,-17.03 135.53,-23.96"/>
</g>
</g>
</svg>
