<?xml version="1.0" encoding="UTF-8" standalone="no"?>
<!DOCTYPE svg PUBLIC "-//W3C//DTD SVG 1.1//EN"
 "http://www.w3.org/Graphics/SVG/1.1/DTD/svg11.dtd">
<!-- Generated by graphviz version 2.44.1 (20220725.2034)
 -->
<!-- Title: nat_num_t::divB Pages: 1 -->
<svg width="641pt" height="114pt"
 viewBox="0.00 0.00 641.00 113.50" xmlns="http://www.w3.org/2000/svg" xmlns:xlink="http://www.w3.org/1999/xlink">
<g id="graph0" class="graph" transform="scale(1 1) rotate(0) translate(4 109.5)">
<title>nat_num_t::divB</title>
<!-- Node1 -->
<g id="node1" class="node">
<title>Node1</title>
<g id="a_node1"><a xlink:title=" ">
<polygon fill="#999999" stroke="#666666" points="88,-75 0,-75 0,-56 88,-56 88,-75"/>
<text text-anchor="middle" x="44" y="-63" font-family="Helvetica,sans-Serif" font-size="10.00">nat_num_t::divB</text>
</a>
</g>
</g>
<!-- Node2 -->
<g id="node2" class="node">
<title>Node2</title>
<g id="a_node2"><a xlink:href="classnat__num__t.html#ae76e097322e6374c6aa5cb54b3ce7d3b" target="_top" xlink:title=" ">
<polygon fill="white" stroke="#666666" points="222,-94 124,-94 124,-75 222,-75 222,-94"/>
<text text-anchor="middle" x="173" y="-82" font-family="Helvetica,sans-Serif" font-size="10.00">nat_num_t::m_abs</text>
</a>
</g>
</g>
<!-- Node1&#45;&gt;Node2 -->
<g id="edge1" class="edge">
<title>Node1&#45;&gt;Node2</title>
<path fill="none" stroke="#63b8ff" d="M88.35,-71.99C96.51,-73.21 105.17,-74.5 113.7,-75.78"/>
<polygon fill="#63b8ff" stroke="#63b8ff" points="113.21,-79.24 123.61,-77.26 114.24,-72.32 113.21,-79.24"/>
</g>
<!-- Node3 -->
<g id="node3" class="node">
<title>Node3</title>
<g id="a_node3"><a xlink:href="classnat__num__t.html#a5a1e29dfd320bf08016a2f0227621f0d" target="_top" xlink:title=" ">
<polygon fill="white" stroke="#666666" points="222,-57 124,-57 124,-38 222,-38 222,-57"/>
<text text-anchor="middle" x="173" y="-45" font-family="Helvetica,sans-Serif" font-size="10.00">nat_num_t::reduce</text>
</a>
</g>
</g>
<!-- Node1&#45;&gt;Node3 -->
<g id="edge2" class="edge">
<title>Node1&#45;&gt;Node3</title>
<path fill="none" stroke="#63b8ff" d="M88.35,-59.36C96.51,-58.2 105.17,-56.97 113.7,-55.76"/>
<polygon fill="#63b8ff" stroke="#63b8ff" points="114.2,-59.23 123.61,-54.36 113.22,-52.3 114.2,-59.23"/>
</g>
<!-- Node4 -->
<g id="node4" class="node">
<title>Node4</title>
<g id="a_node4"><a xlink:href="classnat__num__t.html#a14b63725918fba3ba1f731c3cda4b6ca" target="_top" xlink:title=" ">
<polygon fill="white" stroke="#666666" points="366,-105.5 264,-105.5 264,-75.5 366,-75.5 366,-105.5"/>
<text text-anchor="start" x="272" y="-93.5" font-family="Helvetica,sans-Serif" font-size="10.00">nat_num_t::digs_no</text>
<text text-anchor="middle" x="315" y="-82.5" font-family="Helvetica,sans-Serif" font-size="10.00">_significativos</text>
</a>
</g>
</g>
<!-- Node3&#45;&gt;Node4 -->
<g id="edge3" class="edge">
<title>Node3&#45;&gt;Node4</title>
<path fill="none" stroke="#63b8ff" d="M205.07,-57.04C219.82,-61.57 237.95,-67.14 255.15,-72.43"/>
<polygon fill="#63b8ff" stroke="#63b8ff" points="254.56,-75.9 265.14,-75.49 256.61,-69.21 254.56,-75.9"/>
</g>
<!-- Node6 -->
<g id="node6" class="node">
<title>Node6</title>
<g id="a_node6"><a xlink:href="classnat__num__t.html#a3f420ff49cf6b55ef38936b2035a4071" target="_top" xlink:title=" ">
<polygon fill="white" stroke="#666666" points="633,-78 547,-78 547,-59 633,-59 633,-78"/>
<text text-anchor="middle" x="590" y="-66" font-family="Helvetica,sans-Serif" font-size="10.00">nat_num_t::size</text>
</a>
</g>
</g>
<!-- Node3&#45;&gt;Node6 -->
<g id="edge7" class="edge">
<title>Node3&#45;&gt;Node6</title>
<path fill="none" stroke="#63b8ff" d="M222.01,-49.93C300.48,-53.9 455.57,-61.75 536.72,-65.85"/>
<polygon fill="#63b8ff" stroke="#63b8ff" points="536.55,-69.35 546.72,-66.36 536.91,-62.36 536.55,-69.35"/>
</g>
<!-- Node7 -->
<g id="node7" class="node">
<title>Node7</title>
<g id="a_node7"><a xlink:href="classnat__num__t.html#a8f8bdd2355aab6b9b24f4c87cd68f5b7" target="_top" xlink:title=" ">
<polygon fill="white" stroke="#666666" points="372,-19 258,-19 258,0 372,0 372,-19"/>
<text text-anchor="middle" x="315" y="-7" font-family="Helvetica,sans-Serif" font-size="10.00">nat_num_t::nat_num_t</text>
</a>
</g>
</g>
<!-- Node3&#45;&gt;Node7 -->
<g id="edge6" class="edge">
<title>Node3&#45;&gt;Node7</title>
<path fill="none" stroke="#63b8ff" d="M209.33,-37.91C227.4,-33.01 249.6,-26.98 268.89,-21.74"/>
<polygon fill="#63b8ff" stroke="#63b8ff" points="269.95,-25.08 278.68,-19.09 268.12,-18.33 269.95,-25.08"/>
</g>
<!-- Node5 -->
<g id="node5" class="node">
<title>Node5</title>
<g id="a_node5"><a xlink:href="classnat__num__t.html#a2a7eae79a48f9b29a40c9103cfac72d7" target="_top" xlink:title=" ">
<polygon fill="white" stroke="#666666" points="511,-105.5 408,-105.5 408,-75.5 511,-75.5 511,-105.5"/>
<text text-anchor="start" x="416" y="-93.5" font-family="Helvetica,sans-Serif" font-size="10.00">nat_num_t::ceros_a</text>
<text text-anchor="middle" x="459.5" y="-82.5" font-family="Helvetica,sans-Serif" font-size="10.00">_la_izqda</text>
</a>
</g>
</g>
<!-- Node4&#45;&gt;Node5 -->
<g id="edge4" class="edge">
<title>Node4&#45;&gt;Node5</title>
<path fill="none" stroke="#63b8ff" d="M366.24,-90.5C376.34,-90.5 387.05,-90.5 397.47,-90.5"/>
<polygon fill="#63b8ff" stroke="#63b8ff" points="397.75,-94 407.75,-90.5 397.75,-87 397.75,-94"/>
</g>
<!-- Node5&#45;&gt;Node6 -->
<g id="edge5" class="edge">
<title>Node5&#45;&gt;Node6</title>
<path fill="none" stroke="#63b8ff" d="M511.29,-81.81C519.67,-80.37 528.36,-78.88 536.78,-77.44"/>
<polygon fill="#63b8ff" stroke="#63b8ff" points="537.59,-80.85 546.86,-75.72 536.41,-73.95 537.59,-80.85"/>
</g>
</g>
</svg>
