<?xml version="1.0" encoding="UTF-8" standalone="no"?>
<!DOCTYPE svg PUBLIC "-//W3C//DTD SVG 1.1//EN"
 "http://www.w3.org/Graphics/SVG/1.1/DTD/svg11.dtd">
<!-- Generated by graphviz version 2.44.1 (20220725.2034)
 -->
<!-- Title: nat_num_t::m_divB Pages: 1 -->
<svg width="654pt" height="114pt"
 viewBox="0.00 0.00 654.00 113.50" xmlns="http://www.w3.org/2000/svg" xmlns:xlink="http://www.w3.org/1999/xlink">
<g id="graph0" class="graph" transform="scale(1 1) rotate(0) translate(4 109.5)">
<title>nat_num_t::m_divB</title>
<!-- Node1 -->
<g id="node1" class="node">
<title>Node1</title>
<g id="a_node1"><a xlink:title=" ">
<polygon fill="#999999" stroke="#666666" points="101,-57 0,-57 0,-38 101,-38 101,-57"/>
<text text-anchor="middle" x="50.5" y="-45" font-family="Helvetica,sans-Serif" font-size="10.00">nat_num_t::m_divB</text>
</a>
</g>
</g>
<!-- Node2 -->
<g id="node2" class="node">
<title>Node2</title>
<g id="a_node2"><a xlink:href="classnat__num__t.html#a5a1e29dfd320bf08016a2f0227621f0d" target="_top" xlink:title=" ">
<polygon fill="white" stroke="#666666" points="235,-57 137,-57 137,-38 235,-38 235,-57"/>
<text text-anchor="middle" x="186" y="-45" font-family="Helvetica,sans-Serif" font-size="10.00">nat_num_t::reduce</text>
</a>
</g>
</g>
<!-- Node1&#45;&gt;Node2 -->
<g id="edge1" class="edge">
<title>Node1&#45;&gt;Node2</title>
<path fill="none" stroke="#63b8ff" d="M101.21,-47.5C109.43,-47.5 118.02,-47.5 126.44,-47.5"/>
<polygon fill="#63b8ff" stroke="#63b8ff" points="126.58,-51 136.58,-47.5 126.58,-44 126.58,-51"/>
</g>
<!-- Node3 -->
<g id="node3" class="node">
<title>Node3</title>
<g id="a_node3"><a xlink:href="classnat__num__t.html#a14b63725918fba3ba1f731c3cda4b6ca" target="_top" xlink:title=" ">
<polygon fill="white" stroke="#666666" points="379,-105.5 277,-105.5 277,-75.5 379,-75.5 379,-105.5"/>
<text text-anchor="start" x="285" y="-93.5" font-family="Helvetica,sans-Serif" font-size="10.00">nat_num_t::digs_no</text>
<text text-anchor="middle" x="328" y="-82.5" font-family="Helvetica,sans-Serif" font-size="10.00">_significativos</text>
</a>
</g>
</g>
<!-- Node2&#45;&gt;Node3 -->
<g id="edge2" class="edge">
<title>Node2&#45;&gt;Node3</title>
<path fill="none" stroke="#63b8ff" d="M218.07,-57.04C232.82,-61.57 250.95,-67.14 268.15,-72.43"/>
<polygon fill="#63b8ff" stroke="#63b8ff" points="267.56,-75.9 278.14,-75.49 269.61,-69.21 267.56,-75.9"/>
</g>
<!-- Node5 -->
<g id="node5" class="node">
<title>Node5</title>
<g id="a_node5"><a xlink:href="classnat__num__t.html#a3f420ff49cf6b55ef38936b2035a4071" target="_top" xlink:title=" ">
<polygon fill="white" stroke="#666666" points="646,-78 560,-78 560,-59 646,-59 646,-78"/>
<text text-anchor="middle" x="603" y="-66" font-family="Helvetica,sans-Serif" font-size="10.00">nat_num_t::size</text>
</a>
</g>
</g>
<!-- Node2&#45;&gt;Node5 -->
<g id="edge6" class="edge">
<title>Node2&#45;&gt;Node5</title>
<path fill="none" stroke="#63b8ff" d="M235.01,-49.93C313.48,-53.9 468.57,-61.75 549.72,-65.85"/>
<polygon fill="#63b8ff" stroke="#63b8ff" points="549.55,-69.35 559.72,-66.36 549.91,-62.36 549.55,-69.35"/>
</g>
<!-- Node6 -->
<g id="node6" class="node">
<title>Node6</title>
<g id="a_node6"><a xlink:href="classnat__num__t.html#a8f8bdd2355aab6b9b24f4c87cd68f5b7" target="_top" xlink:title=" ">
<polygon fill="white" stroke="#666666" points="385,-19 271,-19 271,0 385,0 385,-19"/>
<text text-anchor="middle" x="328" y="-7" font-family="Helvetica,sans-Serif" font-size="10.00">nat_num_t::nat_num_t</text>
</a>
</g>
</g>
<!-- Node2&#45;&gt;Node6 -->
<g id="edge5" class="edge">
<title>Node2&#45;&gt;Node6</title>
<path fill="none" stroke="#63b8ff" d="M222.33,-37.91C240.4,-33.01 262.6,-26.98 281.89,-21.74"/>
<polygon fill="#63b8ff" stroke="#63b8ff" points="282.95,-25.08 291.68,-19.09 281.12,-18.33 282.95,-25.08"/>
</g>
<!-- Node4 -->
<g id="node4" class="node">
<title>Node4</title>
<g id="a_node4"><a xlink:href="classnat__num__t.html#a2a7eae79a48f9b29a40c9103cfac72d7" target="_top" xlink:title=" ">
<polygon fill="white" stroke="#666666" points="524,-105.5 421,-105.5 421,-75.5 524,-75.5 524,-105.5"/>
<text text-anchor="start" x="429" y="-93.5" font-family="Helvetica,sans-Serif" font-size="10.00">nat_num_t::ceros_a</text>
<text text-anchor="middle" x="472.5" y="-82.5" font-family="Helvetica,sans-Serif" font-size="10.00">_la_izqda</text>
</a>
</g>
</g>
<!-- Node3&#45;&gt;Node4 -->
<g id="edge3" class="edge">
<title>Node3&#45;&gt;Node4</title>
<path fill="none" stroke="#63b8ff" d="M379.24,-90.5C389.34,-90.5 400.05,-90.5 410.47,-90.5"/>
<polygon fill="#63b8ff" stroke="#63b8ff" points="410.75,-94 420.75,-90.5 410.75,-87 410.75,-94"/>
</g>
<!-- Node4&#45;&gt;Node5 -->
<g id="edge4" class="edge">
<title>Node4&#45;&gt;Node5</title>
<path fill="none" stroke="#63b8ff" d="M524.29,-81.81C532.67,-80.37 541.36,-78.88 549.78,-77.44"/>
<polygon fill="#63b8ff" stroke="#63b8ff" points="550.59,-80.85 559.86,-75.72 549.41,-73.95 550.59,-80.85"/>
</g>
</g>
</svg>
