<?xml version="1.0" encoding="UTF-8" standalone="no"?>
<!DOCTYPE svg PUBLIC "-//W3C//DTD SVG 1.1//EN"
 "http://www.w3.org/Graphics/SVG/1.1/DTD/svg11.dtd">
<!-- Generated by graphviz version 2.44.1 (20220725.2034)
 -->
<!-- Title: nat_num_t::ceros_a_la_drcha Pages: 1 -->
<svg width="581pt" height="182pt"
 viewBox="0.00 0.00 581.00 182.35" xmlns="http://www.w3.org/2000/svg" xmlns:xlink="http://www.w3.org/1999/xlink">
<g id="graph0" class="graph" transform="scale(1 1) rotate(0) translate(4 178.35)">
<title>nat_num_t::ceros_a_la_drcha</title>
<!-- Node1 -->
<g id="node1" class="node">
<title>Node1</title>
<g id="a_node1"><a xlink:title=" ">
<polygon fill="#999999" stroke="#666666" points="573,-99.5 470,-99.5 470,-69.5 573,-69.5 573,-99.5"/>
<text text-anchor="start" x="478" y="-87.5" font-family="Helvetica,sans-Serif" font-size="10.00">nat_num_t::ceros_a</text>
<text text-anchor="middle" x="521.5" y="-76.5" font-family="Helvetica,sans-Serif" font-size="10.00">_la_drcha</text>
</a>
</g>
</g>
<!-- Node2 -->
<g id="node2" class="node">
<title>Node2</title>
<g id="a_node2"><a xlink:href="classnat__num__t.html#a5a50025c599c9230b0ad18badc673e37" target="_top" xlink:title=" ">
<polygon fill="white" stroke="#666666" points="434,-142.5 321,-142.5 321,-112.5 434,-112.5 434,-142.5"/>
<text text-anchor="start" x="329" y="-130.5" font-family="Helvetica,sans-Serif" font-size="10.00">nat_num_t::digs_fracc</text>
<text text-anchor="middle" x="377.5" y="-119.5" font-family="Helvetica,sans-Serif" font-size="10.00">_no_significativos</text>
</a>
</g>
</g>
<!-- Node1&#45;&gt;Node2 -->
<g id="edge1" class="edge">
<title>Node1&#45;&gt;Node2</title>
<path fill="none" stroke="#63b8ff" d="M461,-102.52C450.14,-105.81 438.92,-109.2 428.38,-112.4"/>
<polygon fill="#63b8ff" stroke="#63b8ff" points="462.28,-105.79 470.84,-99.54 460.25,-99.09 462.28,-105.79"/>
</g>
<!-- Node4 -->
<g id="node4" class="node">
<title>Node4</title>
<g id="a_node4"><a xlink:href="classnat__num__t.html#a86fb8e79d86da172cc7adff7632ac725" target="_top" xlink:title=" ">
<polygon fill="white" stroke="#666666" points="117,-157 7,-157 7,-138 117,-138 117,-157"/>
<text text-anchor="middle" x="62" y="-145" font-family="Helvetica,sans-Serif" font-size="10.00">nat_num_t::EuclidDiv</text>
</a>
</g>
</g>
<!-- Node1&#45;&gt;Node4 -->
<g id="edge5" class="edge">
<title>Node1&#45;&gt;Node4</title>
<path fill="none" stroke="#63b8ff" d="M499.72,-107.11C483.57,-122.93 459.64,-142.73 434,-151.5 320.94,-190.16 176.93,-170.7 106.19,-157.04"/>
<polygon fill="#63b8ff" stroke="#63b8ff" points="502.47,-109.31 507.01,-99.74 497.49,-104.4 502.47,-109.31"/>
</g>
<!-- Node5 -->
<g id="node5" class="node">
<title>Node5</title>
<g id="a_node5"><a xlink:href="classnat__num__t.html#a33fdda0e7d67cc2f9a9c90ea001e8c2b" target="_top" xlink:title=" ">
<polygon fill="white" stroke="#666666" points="124,-117 0,-117 0,-98 124,-98 124,-117"/>
<text text-anchor="middle" x="62" y="-105" font-family="Helvetica,sans-Serif" font-size="10.00">nat_num_t::m_EuclidDiv</text>
</a>
</g>
</g>
<!-- Node1&#45;&gt;Node5 -->
<g id="edge6" class="edge">
<title>Node1&#45;&gt;Node5</title>
<path fill="none" stroke="#63b8ff" d="M459.75,-87.55C372.28,-91.95 211.76,-100.02 124.09,-104.43"/>
<polygon fill="#63b8ff" stroke="#63b8ff" points="459.98,-91.05 469.79,-87.05 459.63,-84.06 459.98,-91.05"/>
</g>
<!-- Node6 -->
<g id="node6" class="node">
<title>Node6</title>
<g id="a_node6"><a xlink:href="classnat__num__t.html#aa1a1fa2bc567648fb5fd76d2a73e911e" target="_top" xlink:title=" ">
<polygon fill="white" stroke="#666666" points="431,-56 324,-56 324,-37 431,-37 431,-56"/>
<text text-anchor="middle" x="377.5" y="-44" font-family="Helvetica,sans-Serif" font-size="10.00">nat_num_t::operator/</text>
</a>
</g>
</g>
<!-- Node1&#45;&gt;Node6 -->
<g id="edge7" class="edge">
<title>Node1&#45;&gt;Node6</title>
<path fill="none" stroke="#63b8ff" d="M459.61,-68.21C444.17,-64.07 428.07,-59.77 414.33,-56.09"/>
<polygon fill="#63b8ff" stroke="#63b8ff" points="459.07,-71.68 469.64,-70.89 460.88,-64.92 459.07,-71.68"/>
</g>
<!-- Node7 -->
<g id="node7" class="node">
<title>Node7</title>
<g id="a_node7"><a xlink:href="classnat__num__t.html#aeecab0dc9b304ff23fb08008db79fcc1" target="_top" xlink:title=" ">
<polygon fill="white" stroke="#666666" points="434,-19 321,-19 321,0 434,0 434,-19"/>
<text text-anchor="middle" x="377.5" y="-7" font-family="Helvetica,sans-Serif" font-size="10.00">nat_num_t::operator/=</text>
</a>
</g>
</g>
<!-- Node1&#45;&gt;Node7 -->
<g id="edge8" class="edge">
<title>Node1&#45;&gt;Node7</title>
<path fill="none" stroke="#63b8ff" d="M492.25,-63.08C475.89,-51.4 454.51,-37.36 434,-27.5 427.34,-24.3 419.96,-21.46 412.82,-19.03"/>
<polygon fill="#63b8ff" stroke="#63b8ff" points="490.65,-66.24 500.8,-69.29 494.76,-60.58 490.65,-66.24"/>
</g>
<!-- Node3 -->
<g id="node3" class="node">
<title>Node3</title>
<g id="a_node3"><a xlink:href="classnat__num__t.html#a52b809b6182fe1ae3ceb43114ce7a0dc" target="_top" xlink:title=" ">
<polygon fill="white" stroke="#666666" points="285,-137 160,-137 160,-118 285,-118 285,-137"/>
<text text-anchor="middle" x="222.5" y="-125" font-family="Helvetica,sans-Serif" font-size="10.00">nat_num_t::reduce_fracc</text>
</a>
</g>
</g>
<!-- Node2&#45;&gt;Node3 -->
<g id="edge2" class="edge">
<title>Node2&#45;&gt;Node3</title>
<path fill="none" stroke="#63b8ff" d="M310.61,-127.5C302.13,-127.5 293.48,-127.5 285.08,-127.5"/>
<polygon fill="#63b8ff" stroke="#63b8ff" points="310.83,-131 320.83,-127.5 310.83,-124 310.83,-131"/>
</g>
<!-- Node3&#45;&gt;Node4 -->
<g id="edge3" class="edge">
<title>Node3&#45;&gt;Node4</title>
<path fill="none" stroke="#63b8ff" d="M149.76,-136.55C138.78,-137.94 127.61,-139.35 117.09,-140.67"/>
<polygon fill="#63b8ff" stroke="#63b8ff" points="150.28,-140.01 159.77,-135.29 149.41,-133.07 150.28,-140.01"/>
</g>
<!-- Node3&#45;&gt;Node5 -->
<g id="edge4" class="edge">
<title>Node3&#45;&gt;Node5</title>
<path fill="none" stroke="#63b8ff" d="M149.76,-118.45C141.17,-117.36 132.46,-116.27 124.04,-115.2"/>
<polygon fill="#63b8ff" stroke="#63b8ff" points="149.41,-121.93 159.77,-119.71 150.28,-114.99 149.41,-121.93"/>
</g>
</g>
</svg>
