<?xml version="1.0" encoding="UTF-8" standalone="no"?>
<!DOCTYPE svg PUBLIC "-//W3C//DTD SVG 1.1//EN"
 "http://www.w3.org/Graphics/SVG/1.1/DTD/svg11.dtd">
<!-- Generated by graphviz version 2.44.1 (20220725.2034)
 -->
<!-- Title: nat_num_t::operator* Pages: 1 -->
<svg width="660pt" height="133pt"
 viewBox="0.00 0.00 660.00 132.50" xmlns="http://www.w3.org/2000/svg" xmlns:xlink="http://www.w3.org/1999/xlink">
<g id="graph0" class="graph" transform="scale(1 1) rotate(0) translate(4 128.5)">
<title>nat_num_t::operator*</title>
<!-- Node1 -->
<g id="node1" class="node">
<title>Node1</title>
<g id="a_node1"><a xlink:title=" ">
<polygon fill="#999999" stroke="#666666" points="107,-19 0,-19 0,0 107,0 107,-19"/>
<text text-anchor="middle" x="53.5" y="-7" font-family="Helvetica,sans-Serif" font-size="10.00">nat_num_t::operator*</text>
</a>
</g>
</g>
<!-- Node2 -->
<g id="node2" class="node">
<title>Node2</title>
<g id="a_node2"><a xlink:href="classnat__num__t.html#a5a1e29dfd320bf08016a2f0227621f0d" target="_top" xlink:title=" ">
<polygon fill="white" stroke="#666666" points="241,-57 143,-57 143,-38 241,-38 241,-57"/>
<text text-anchor="middle" x="192" y="-45" font-family="Helvetica,sans-Serif" font-size="10.00">nat_num_t::reduce</text>
</a>
</g>
</g>
<!-- Node1&#45;&gt;Node2 -->
<g id="edge1" class="edge">
<title>Node1&#45;&gt;Node2</title>
<path fill="none" stroke="#63b8ff" d="M88.94,-19.09C106.48,-23.97 128.01,-29.96 146.76,-35.18"/>
<polygon fill="#63b8ff" stroke="#63b8ff" points="145.99,-38.6 156.57,-37.91 147.87,-31.86 145.99,-38.6"/>
</g>
<!-- Node5 -->
<g id="node5" class="node">
<title>Node5</title>
<g id="a_node5"><a xlink:href="classnat__num__t.html#a3f420ff49cf6b55ef38936b2035a4071" target="_top" xlink:title=" ">
<polygon fill="white" stroke="#666666" points="652,-76 566,-76 566,-57 652,-57 652,-76"/>
<text text-anchor="middle" x="609" y="-64" font-family="Helvetica,sans-Serif" font-size="10.00">nat_num_t::size</text>
</a>
</g>
</g>
<!-- Node1&#45;&gt;Node5 -->
<g id="edge7" class="edge">
<title>Node1&#45;&gt;Node5</title>
<path fill="none" stroke="#63b8ff" d="M107.22,-5.34C173.7,-1.05 291.34,3.37 391,-9.5 455.55,-17.84 528.29,-39.58 571.03,-53.67"/>
<polygon fill="#63b8ff" stroke="#63b8ff" points="570.11,-57.05 580.7,-56.9 572.33,-50.41 570.11,-57.05"/>
</g>
<!-- Node3 -->
<g id="node3" class="node">
<title>Node3</title>
<g id="a_node3"><a xlink:href="classnat__num__t.html#a14b63725918fba3ba1f731c3cda4b6ca" target="_top" xlink:title=" ">
<polygon fill="white" stroke="#666666" points="385,-124.5 283,-124.5 283,-94.5 385,-94.5 385,-124.5"/>
<text text-anchor="start" x="291" y="-112.5" font-family="Helvetica,sans-Serif" font-size="10.00">nat_num_t::digs_no</text>
<text text-anchor="middle" x="334" y="-101.5" font-family="Helvetica,sans-Serif" font-size="10.00">_significativos</text>
</a>
</g>
</g>
<!-- Node2&#45;&gt;Node3 -->
<g id="edge2" class="edge">
<title>Node2&#45;&gt;Node3</title>
<path fill="none" stroke="#63b8ff" d="M214.57,-57.05C234.5,-65.88 264.69,-79.25 289.61,-90.28"/>
<polygon fill="#63b8ff" stroke="#63b8ff" points="288.31,-93.54 298.87,-94.38 291.14,-87.13 288.31,-93.54"/>
</g>
<!-- Node2&#45;&gt;Node5 -->
<g id="edge6" class="edge">
<title>Node2&#45;&gt;Node5</title>
<path fill="none" stroke="#63b8ff" d="M241.01,-49.7C319.48,-53.29 474.57,-60.39 555.72,-64.11"/>
<polygon fill="#63b8ff" stroke="#63b8ff" points="555.57,-67.6 565.72,-64.56 555.89,-60.61 555.57,-67.6"/>
</g>
<!-- Node6 -->
<g id="node6" class="node">
<title>Node6</title>
<g id="a_node6"><a xlink:href="classnat__num__t.html#a8f8bdd2355aab6b9b24f4c87cd68f5b7" target="_top" xlink:title=" ">
<polygon fill="white" stroke="#666666" points="391,-38 277,-38 277,-19 391,-19 391,-38"/>
<text text-anchor="middle" x="334" y="-26" font-family="Helvetica,sans-Serif" font-size="10.00">nat_num_t::nat_num_t</text>
</a>
</g>
</g>
<!-- Node2&#45;&gt;Node6 -->
<g id="edge5" class="edge">
<title>Node2&#45;&gt;Node6</title>
<path fill="none" stroke="#63b8ff" d="M241.18,-40.96C249.37,-39.85 258,-38.68 266.55,-37.52"/>
<polygon fill="#63b8ff" stroke="#63b8ff" points="267.1,-40.98 276.54,-36.16 266.16,-34.04 267.1,-40.98"/>
</g>
<!-- Node4 -->
<g id="node4" class="node">
<title>Node4</title>
<g id="a_node4"><a xlink:href="classnat__num__t.html#a2a7eae79a48f9b29a40c9103cfac72d7" target="_top" xlink:title=" ">
<polygon fill="white" stroke="#666666" points="530,-124.5 427,-124.5 427,-94.5 530,-94.5 530,-124.5"/>
<text text-anchor="start" x="435" y="-112.5" font-family="Helvetica,sans-Serif" font-size="10.00">nat_num_t::ceros_a</text>
<text text-anchor="middle" x="478.5" y="-101.5" font-family="Helvetica,sans-Serif" font-size="10.00">_la_izqda</text>
</a>
</g>
</g>
<!-- Node3&#45;&gt;Node4 -->
<g id="edge3" class="edge">
<title>Node3&#45;&gt;Node4</title>
<path fill="none" stroke="#63b8ff" d="M385.24,-109.5C395.34,-109.5 406.05,-109.5 416.47,-109.5"/>
<polygon fill="#63b8ff" stroke="#63b8ff" points="416.75,-113 426.75,-109.5 416.75,-106 416.75,-113"/>
</g>
<!-- Node4&#45;&gt;Node5 -->
<g id="edge4" class="edge">
<title>Node4&#45;&gt;Node5</title>
<path fill="none" stroke="#63b8ff" d="M524.44,-94.46C539.26,-89.5 555.59,-84.04 569.85,-79.27"/>
<polygon fill="#63b8ff" stroke="#63b8ff" points="570.98,-82.58 579.35,-76.09 568.76,-75.94 570.98,-82.58"/>
</g>
</g>
</svg>
