<?xml version="1.0" encoding="UTF-8" standalone="no"?>
<!DOCTYPE svg PUBLIC "-//W3C//DTD SVG 1.1//EN"
 "http://www.w3.org/Graphics/SVG/1.1/DTD/svg11.dtd">
<!-- Generated by graphviz version 2.44.1 (20220725.2034)
 -->
<!-- Title: nat_num_t::reduce_fracc Pages: 1 -->
<svg width="544pt" height="114pt"
 viewBox="0.00 0.00 544.00 113.50" xmlns="http://www.w3.org/2000/svg" xmlns:xlink="http://www.w3.org/1999/xlink">
<g id="graph0" class="graph" transform="scale(1 1) rotate(0) translate(4 109.5)">
<title>nat_num_t::reduce_fracc</title>
<!-- Node1 -->
<g id="node1" class="node">
<title>Node1</title>
<g id="a_node1"><a xlink:title=" ">
<polygon fill="#999999" stroke="#666666" points="125,-57 0,-57 0,-38 125,-38 125,-57"/>
<text text-anchor="middle" x="62.5" y="-45" font-family="Helvetica,sans-Serif" font-size="10.00">nat_num_t::reduce_fracc</text>
</a>
</g>
</g>
<!-- Node2 -->
<g id="node2" class="node">
<title>Node2</title>
<g id="a_node2"><a xlink:href="classnat__num__t.html#a5a50025c599c9230b0ad18badc673e37" target="_top" xlink:title=" ">
<polygon fill="white" stroke="#666666" points="274.5,-105.5 161.5,-105.5 161.5,-75.5 274.5,-75.5 274.5,-105.5"/>
<text text-anchor="start" x="169.5" y="-93.5" font-family="Helvetica,sans-Serif" font-size="10.00">nat_num_t::digs_fracc</text>
<text text-anchor="middle" x="218" y="-82.5" font-family="Helvetica,sans-Serif" font-size="10.00">_no_significativos</text>
</a>
</g>
</g>
<!-- Node1&#45;&gt;Node2 -->
<g id="edge1" class="edge">
<title>Node1&#45;&gt;Node2</title>
<path fill="none" stroke="#63b8ff" d="M97.57,-57.04C114.11,-61.68 134.54,-67.4 153.8,-72.79"/>
<polygon fill="#63b8ff" stroke="#63b8ff" points="152.86,-76.17 163.43,-75.49 154.75,-69.43 152.86,-76.17"/>
</g>
<!-- Node4 -->
<g id="node4" class="node">
<title>Node4</title>
<g id="a_node4"><a xlink:href="classnat__num__t.html#a3f420ff49cf6b55ef38936b2035a4071" target="_top" xlink:title=" ">
<polygon fill="white" stroke="#666666" points="536,-78 450,-78 450,-59 536,-59 536,-78"/>
<text text-anchor="middle" x="493" y="-66" font-family="Helvetica,sans-Serif" font-size="10.00">nat_num_t::size</text>
</a>
</g>
</g>
<!-- Node1&#45;&gt;Node4 -->
<g id="edge5" class="edge">
<title>Node1&#45;&gt;Node4</title>
<path fill="none" stroke="#63b8ff" d="M125.35,-50.53C209.97,-54.68 360.35,-62.05 439.67,-65.94"/>
<polygon fill="#63b8ff" stroke="#63b8ff" points="439.76,-69.44 449.92,-66.44 440.1,-62.45 439.76,-69.44"/>
</g>
<!-- Node5 -->
<g id="node5" class="node">
<title>Node5</title>
<g id="a_node5"><a xlink:href="classnat__num__t.html#a8f8bdd2355aab6b9b24f4c87cd68f5b7" target="_top" xlink:title=" ">
<polygon fill="white" stroke="#666666" points="275,-19 161,-19 161,0 275,0 275,-19"/>
<text text-anchor="middle" x="218" y="-7" font-family="Helvetica,sans-Serif" font-size="10.00">nat_num_t::nat_num_t</text>
</a>
</g>
</g>
<!-- Node1&#45;&gt;Node5 -->
<g id="edge4" class="edge">
<title>Node1&#45;&gt;Node5</title>
<path fill="none" stroke="#63b8ff" d="M102.23,-37.91C122.4,-32.92 147.25,-26.77 168.66,-21.47"/>
<polygon fill="#63b8ff" stroke="#63b8ff" points="169.68,-24.82 178.54,-19.02 168,-18.03 169.68,-24.82"/>
</g>
<!-- Node3 -->
<g id="node3" class="node">
<title>Node3</title>
<g id="a_node3"><a xlink:href="classnat__num__t.html#a386e6f8d5f8b23ea4ac327c3f3a33d61" target="_top" xlink:title=" ">
<polygon fill="white" stroke="#666666" points="414,-105.5 311,-105.5 311,-75.5 414,-75.5 414,-105.5"/>
<text text-anchor="start" x="319" y="-93.5" font-family="Helvetica,sans-Serif" font-size="10.00">nat_num_t::ceros_a</text>
<text text-anchor="middle" x="362.5" y="-82.5" font-family="Helvetica,sans-Serif" font-size="10.00">_la_drcha</text>
</a>
</g>
</g>
<!-- Node2&#45;&gt;Node3 -->
<g id="edge2" class="edge">
<title>Node2&#45;&gt;Node3</title>
<path fill="none" stroke="#63b8ff" d="M274.5,-90.5C283.04,-90.5 291.9,-90.5 300.54,-90.5"/>
<polygon fill="#63b8ff" stroke="#63b8ff" points="300.57,-94 310.57,-90.5 300.57,-87 300.57,-94"/>
</g>
<!-- Node3&#45;&gt;Node4 -->
<g id="edge3" class="edge">
<title>Node3&#45;&gt;Node4</title>
<path fill="none" stroke="#63b8ff" d="M414.29,-81.81C422.67,-80.37 431.36,-78.88 439.78,-77.44"/>
<polygon fill="#63b8ff" stroke="#63b8ff" points="440.59,-80.85 449.86,-75.72 439.41,-73.95 440.59,-80.85"/>
</g>
</g>
</svg>
