<?xml version="1.0" encoding="UTF-8" standalone="no"?>
<!DOCTYPE svg PUBLIC "-//W3C//DTD SVG 1.1//EN"
 "http://www.w3.org/Graphics/SVG/1.1/DTD/svg11.dtd">
<!-- Generated by graphviz version 2.44.1 (20220725.2034)
 -->
<!-- Title: nat_num_t::push_front Pages: 1 -->
<svg width="423pt" height="323pt"
 viewBox="0.00 0.00 423.00 323.00" xmlns="http://www.w3.org/2000/svg" xmlns:xlink="http://www.w3.org/1999/xlink">
<g id="graph0" class="graph" transform="scale(1 1) rotate(0) translate(4 319)">
<title>nat_num_t::push_front</title>
<!-- Node1 -->
<g id="node1" class="node">
<title>Node1</title>
<g id="a_node1"><a xlink:title=" ">
<polygon fill="#999999" stroke="#666666" points="415,-167 301,-167 301,-148 415,-148 415,-167"/>
<text text-anchor="middle" x="358" y="-155" font-family="Helvetica,sans-Serif" font-size="10.00">nat_num_t::push_front</text>
</a>
</g>
</g>
<!-- Node2 -->
<g id="node2" class="node">
<title>Node2</title>
<g id="a_node2"><a xlink:href="classnat__num__t.html#aa042059e50f3008d12e430fdebcc323f" target="_top" xlink:title=" ">
<polygon fill="white" stroke="#666666" points="255,-315 159,-315 159,-296 255,-296 255,-315"/>
<text text-anchor="middle" x="207" y="-303" font-family="Helvetica,sans-Serif" font-size="10.00">nat_num_t::mC_B</text>
</a>
</g>
</g>
<!-- Node1&#45;&gt;Node2 -->
<g id="edge1" class="edge">
<title>Node1&#45;&gt;Node2</title>
<path fill="none" stroke="#63b8ff" d="M348.5,-176.52C334.9,-204.83 305.58,-257.89 265,-287.5 260.31,-290.93 254.94,-293.71 249.41,-295.98"/>
<polygon fill="#63b8ff" stroke="#63b8ff" points="351.75,-177.84 352.79,-167.3 345.4,-174.89 351.75,-177.84"/>
</g>
<!-- Node3 -->
<g id="node3" class="node">
<title>Node3</title>
<g id="a_node3"><a xlink:href="classnat__num__t.html#a07b25245f1119449ee9171ab2ea85de6" target="_top" xlink:title=" ">
<polygon fill="white" stroke="#666666" points="254.5,-278 159.5,-278 159.5,-259 254.5,-259 254.5,-278"/>
<text text-anchor="middle" x="207" y="-266" font-family="Helvetica,sans-Serif" font-size="10.00">nat_num_t::minus</text>
</a>
</g>
</g>
<!-- Node1&#45;&gt;Node3 -->
<g id="edge2" class="edge">
<title>Node1&#45;&gt;Node3</title>
<path fill="none" stroke="#63b8ff" d="M343.91,-175.21C327.62,-196.07 297.9,-230.4 265,-250.5 259.51,-253.85 253.33,-256.64 247.13,-258.93"/>
<polygon fill="#63b8ff" stroke="#63b8ff" points="346.76,-177.25 350.04,-167.18 341.19,-173.01 346.76,-177.25"/>
</g>
<!-- Node6 -->
<g id="node6" class="node">
<title>Node6</title>
<g id="a_node6"><a xlink:href="classnat__num__t.html#a61184e641a296ac9d663239efde22c51" target="_top" xlink:title=" ">
<polygon fill="white" stroke="#666666" points="264,-241 150,-241 150,-222 264,-222 264,-241"/>
<text text-anchor="middle" x="207" y="-229" font-family="Helvetica,sans-Serif" font-size="10.00">nat_num_t::nat_num_t</text>
</a>
</g>
</g>
<!-- Node1&#45;&gt;Node6 -->
<g id="edge5" class="edge">
<title>Node1&#45;&gt;Node6</title>
<path fill="none" stroke="#63b8ff" d="M334.9,-173.05C316.76,-185.28 290.08,-202.11 265,-213.5 258.01,-216.68 250.3,-219.52 242.86,-221.96"/>
<polygon fill="#63b8ff" stroke="#63b8ff" points="337.27,-175.66 343.55,-167.12 333.32,-169.89 337.27,-175.66"/>
</g>
<!-- Node7 -->
<g id="node7" class="node">
<title>Node7</title>
<g id="a_node7"><a xlink:href="classnat__num__t.html#a76505954b863accc7f84837c3b8052e4" target="_top" xlink:title=" ">
<polygon fill="white" stroke="#666666" points="260.5,-204 153.5,-204 153.5,-185 260.5,-185 260.5,-204"/>
<text text-anchor="middle" x="207" y="-192" font-family="Helvetica,sans-Serif" font-size="10.00">nat_num_t::operator*</text>
</a>
</g>
</g>
<!-- Node1&#45;&gt;Node7 -->
<g id="edge6" class="edge">
<title>Node1&#45;&gt;Node7</title>
<path fill="none" stroke="#63b8ff" d="M308.7,-169.49C288.55,-174.5 265.48,-180.23 246.5,-184.94"/>
<polygon fill="#63b8ff" stroke="#63b8ff" points="309.77,-172.84 318.63,-167.03 308.08,-166.04 309.77,-172.84"/>
</g>
<!-- Node8 -->
<g id="node8" class="node">
<title>Node8</title>
<g id="a_node8"><a xlink:href="classnat__num__t.html#ab9a8ea8a497f47f6ac49ae79300e3f6d" target="_top" xlink:title=" ">
<polygon fill="white" stroke="#666666" points="263.5,-167 150.5,-167 150.5,-148 263.5,-148 263.5,-167"/>
<text text-anchor="middle" x="207" y="-155" font-family="Helvetica,sans-Serif" font-size="10.00">nat_num_t::operator*=</text>
</a>
</g>
</g>
<!-- Node1&#45;&gt;Node8 -->
<g id="edge7" class="edge">
<title>Node1&#45;&gt;Node8</title>
<path fill="none" stroke="#63b8ff" d="M290.39,-157.5C281.55,-157.5 272.55,-157.5 263.92,-157.5"/>
<polygon fill="#63b8ff" stroke="#63b8ff" points="290.67,-161 300.67,-157.5 290.67,-154 290.67,-161"/>
</g>
<!-- Node9 -->
<g id="node9" class="node">
<title>Node9</title>
<g id="a_node9"><a xlink:href="classnat__num__t.html#ab1087d198842dd2e00e8f2961421fd50" target="_top" xlink:title=" ">
<polygon fill="white" stroke="#666666" points="262,-130 152,-130 152,-111 262,-111 262,-130"/>
<text text-anchor="middle" x="207" y="-118" font-family="Helvetica,sans-Serif" font-size="10.00">nat_num_t::operator+</text>
</a>
</g>
</g>
<!-- Node1&#45;&gt;Node9 -->
<g id="edge8" class="edge">
<title>Node1&#45;&gt;Node9</title>
<path fill="none" stroke="#63b8ff" d="M308.7,-145.51C288.55,-140.5 265.48,-134.77 246.5,-130.06"/>
<polygon fill="#63b8ff" stroke="#63b8ff" points="308.08,-148.96 318.63,-147.97 309.77,-142.16 308.08,-148.96"/>
</g>
<!-- Node10 -->
<g id="node10" class="node">
<title>Node10</title>
<g id="a_node10"><a xlink:href="classnat__num__t.html#a61807871c9e8e701d61e7573acd35055" target="_top" xlink:title=" ">
<polygon fill="white" stroke="#666666" points="265,-93 149,-93 149,-74 265,-74 265,-93"/>
<text text-anchor="middle" x="207" y="-81" font-family="Helvetica,sans-Serif" font-size="10.00">nat_num_t::operator+=</text>
</a>
</g>
</g>
<!-- Node1&#45;&gt;Node10 -->
<g id="edge9" class="edge">
<title>Node1&#45;&gt;Node10</title>
<path fill="none" stroke="#63b8ff" d="M334.49,-142.15C316.31,-130.23 289.77,-113.87 265,-102.5 257.32,-98.98 248.79,-95.78 240.73,-93.06"/>
<polygon fill="#63b8ff" stroke="#63b8ff" points="332.92,-145.31 343.18,-147.93 336.79,-139.48 332.92,-145.31"/>
</g>
<!-- Node11 -->
<g id="node11" class="node">
<title>Node11</title>
<g id="a_node11"><a xlink:href="classnat__num__t.html#afc38a7f6ec3d2a9356054115973db46a" target="_top" xlink:title=" ">
<polygon fill="white" stroke="#666666" points="260.5,-56 153.5,-56 153.5,-37 260.5,-37 260.5,-56"/>
<text text-anchor="middle" x="207" y="-44" font-family="Helvetica,sans-Serif" font-size="10.00">nat_num_t::operator&#45;</text>
</a>
</g>
</g>
<!-- Node1&#45;&gt;Node11 -->
<g id="edge10" class="edge">
<title>Node1&#45;&gt;Node11</title>
<path fill="none" stroke="#63b8ff" d="M343.81,-140.07C327.43,-119.53 297.62,-85.66 265,-65.5 258.88,-61.72 251.91,-58.59 245.01,-56.05"/>
<polygon fill="#63b8ff" stroke="#63b8ff" points="341.07,-142.25 349.98,-147.98 346.59,-137.94 341.07,-142.25"/>
</g>
<!-- Node12 -->
<g id="node12" class="node">
<title>Node12</title>
<g id="a_node12"><a xlink:href="classnat__num__t.html#aa68a5e36a62a4682136e992ebc6f7e83" target="_top" xlink:title=" ">
<polygon fill="white" stroke="#666666" points="262,-19 152,-19 152,0 262,0 262,-19"/>
<text text-anchor="middle" x="207" y="-7" font-family="Helvetica,sans-Serif" font-size="10.00">nat_num_t::operator=</text>
</a>
</g>
</g>
<!-- Node1&#45;&gt;Node12 -->
<g id="edge11" class="edge">
<title>Node1&#45;&gt;Node12</title>
<path fill="none" stroke="#63b8ff" d="M348.4,-138.71C334.67,-110.72 305.19,-58.21 265,-28.5 259.8,-24.66 253.77,-21.56 247.63,-19.07"/>
<polygon fill="#63b8ff" stroke="#63b8ff" points="345.28,-140.3 352.74,-147.82 351.6,-137.29 345.28,-140.3"/>
</g>
<!-- Node4 -->
<g id="node4" class="node">
<title>Node4</title>
<g id="a_node4"><a xlink:href="classnat__num__t.html#aa7de2415a6824b4af279ec90aac74dd3" target="_top" xlink:title=" ">
<polygon fill="white" stroke="#666666" points="110,-296 3,-296 3,-277 110,-277 110,-296"/>
<text text-anchor="middle" x="56.5" y="-284" font-family="Helvetica,sans-Serif" font-size="10.00">nat_num_t::operator&#45;</text>
</a>
</g>
</g>
<!-- Node3&#45;&gt;Node4 -->
<g id="edge3" class="edge">
<title>Node3&#45;&gt;Node4</title>
<path fill="none" stroke="#63b8ff" d="M149.29,-275.37C136.43,-276.93 122.81,-278.58 110.12,-280.12"/>
<polygon fill="#63b8ff" stroke="#63b8ff" points="149.91,-278.82 159.42,-274.15 149.07,-271.87 149.91,-278.82"/>
</g>
<!-- Node5 -->
<g id="node5" class="node">
<title>Node5</title>
<g id="a_node5"><a xlink:href="classnat__num__t.html#a0951fd96d0bf5389fd1a30aa2c19ef6a" target="_top" xlink:title=" ">
<polygon fill="white" stroke="#666666" points="113,-259 0,-259 0,-240 113,-240 113,-259"/>
<text text-anchor="middle" x="56.5" y="-247" font-family="Helvetica,sans-Serif" font-size="10.00">nat_num_t::operator&#45;=</text>
</a>
</g>
</g>
<!-- Node3&#45;&gt;Node5 -->
<g id="edge4" class="edge">
<title>Node3&#45;&gt;Node5</title>
<path fill="none" stroke="#63b8ff" d="M149.19,-261.23C137.33,-259.71 124.84,-258.12 113.02,-256.6"/>
<polygon fill="#63b8ff" stroke="#63b8ff" points="149.06,-264.74 159.42,-262.54 149.95,-257.8 149.06,-264.74"/>
</g>
</g>
</svg>
