<?xml version="1.0" encoding="UTF-8" standalone="no"?>
<!DOCTYPE svg PUBLIC "-//W3C//DTD SVG 1.1//EN"
 "http://www.w3.org/Graphics/SVG/1.1/DTD/svg11.dtd">
<!-- Generated by graphviz version 2.44.1 (20220725.2034)
 -->
<!-- Title: nat_num_t::operator/ Pages: 1 -->
<svg width="660pt" height="200pt"
 viewBox="0.00 0.00 660.00 200.00" xmlns="http://www.w3.org/2000/svg" xmlns:xlink="http://www.w3.org/1999/xlink">
<g id="graph0" class="graph" transform="scale(1 1) rotate(0) translate(4 196)">
<title>nat_num_t::operator/</title>
<!-- Node1 -->
<g id="node1" class="node">
<title>Node1</title>
<g id="a_node1"><a xlink:title=" ">
<polygon fill="#999999" stroke="#666666" points="107,-124.5 0,-124.5 0,-105.5 107,-105.5 107,-124.5"/>
<text text-anchor="middle" x="53.5" y="-112.5" font-family="Helvetica,sans-Serif" font-size="10.00">nat_num_t::operator/</text>
</a>
</g>
</g>
<!-- Node2 -->
<g id="node2" class="node">
<title>Node2</title>
<g id="a_node2"><a xlink:href="classnat__num__t.html#a386e6f8d5f8b23ea4ac327c3f3a33d61" target="_top" xlink:title=" ">
<polygon fill="white" stroke="#666666" points="530,-192 427,-192 427,-162 530,-162 530,-192"/>
<text text-anchor="start" x="435" y="-180" font-family="Helvetica,sans-Serif" font-size="10.00">nat_num_t::ceros_a</text>
<text text-anchor="middle" x="478.5" y="-169" font-family="Helvetica,sans-Serif" font-size="10.00">_la_drcha</text>
</a>
</g>
</g>
<!-- Node1&#45;&gt;Node2 -->
<g id="edge1" class="edge">
<title>Node1&#45;&gt;Node2</title>
<path fill="none" stroke="#63b8ff" d="M75.11,-124.51C92.75,-132.19 119.01,-142.59 143,-148 237.11,-169.21 349.35,-175.12 416.93,-176.64"/>
<polygon fill="#63b8ff" stroke="#63b8ff" points="416.91,-180.14 426.98,-176.84 417.05,-173.14 416.91,-180.14"/>
</g>
<!-- Node3 -->
<g id="node3" class="node">
<title>Node3</title>
<g id="a_node3"><a xlink:href="classnat__num__t.html#a3f420ff49cf6b55ef38936b2035a4071" target="_top" xlink:title=" ">
<polygon fill="white" stroke="#666666" points="652,-105.5 566,-105.5 566,-86.5 652,-86.5 652,-105.5"/>
<text text-anchor="middle" x="609" y="-93.5" font-family="Helvetica,sans-Serif" font-size="10.00">nat_num_t::size</text>
</a>
</g>
</g>
<!-- Node1&#45;&gt;Node3 -->
<g id="edge10" class="edge">
<title>Node1&#45;&gt;Node3</title>
<path fill="none" stroke="#63b8ff" d="M107.37,-117.78C119.1,-118.29 131.47,-118.74 143,-119 253.21,-121.49 280.94,-121.28 391,-115 447.28,-111.79 511.58,-105.88 555.49,-101.5"/>
<polygon fill="#63b8ff" stroke="#63b8ff" points="556.04,-104.96 565.64,-100.47 555.34,-97.99 556.04,-104.96"/>
</g>
<!-- Node4 -->
<g id="node4" class="node">
<title>Node4</title>
<g id="a_node4"><a xlink:href="classnat__num__t.html#a8f8bdd2355aab6b9b24f4c87cd68f5b7" target="_top" xlink:title=" ">
<polygon fill="white" stroke="#666666" points="391,-105.5 277,-105.5 277,-86.5 391,-86.5 391,-105.5"/>
<text text-anchor="middle" x="334" y="-93.5" font-family="Helvetica,sans-Serif" font-size="10.00">nat_num_t::nat_num_t</text>
</a>
</g>
</g>
<!-- Node1&#45;&gt;Node4 -->
<g id="edge3" class="edge">
<title>Node1&#45;&gt;Node4</title>
<path fill="none" stroke="#63b8ff" d="M107.21,-111.4C152.41,-108.32 217.76,-103.86 266.54,-100.53"/>
<polygon fill="#63b8ff" stroke="#63b8ff" points="266.94,-104.02 276.68,-99.84 266.46,-97.03 266.94,-104.02"/>
</g>
<!-- Node5 -->
<g id="node5" class="node">
<title>Node5</title>
<g id="a_node5"><a xlink:href="classnat__num__t.html#a5a1e29dfd320bf08016a2f0227621f0d" target="_top" xlink:title=" ">
<polygon fill="white" stroke="#666666" points="241,-67.5 143,-67.5 143,-48.5 241,-48.5 241,-67.5"/>
<text text-anchor="middle" x="192" y="-55.5" font-family="Helvetica,sans-Serif" font-size="10.00">nat_num_t::reduce</text>
</a>
</g>
</g>
<!-- Node1&#45;&gt;Node5 -->
<g id="edge4" class="edge">
<title>Node1&#45;&gt;Node5</title>
<path fill="none" stroke="#63b8ff" d="M77.35,-105.46C99.59,-96.17 133.61,-81.96 158.64,-71.51"/>
<polygon fill="#63b8ff" stroke="#63b8ff" points="160.2,-74.65 168.08,-67.57 157.5,-68.2 160.2,-74.65"/>
</g>
<!-- Node2&#45;&gt;Node3 -->
<g id="edge2" class="edge">
<title>Node2&#45;&gt;Node3</title>
<path fill="none" stroke="#63b8ff" d="M506.43,-161.98C514.11,-157.58 522.44,-152.69 530,-148 549.08,-136.18 570.25,-122 585.71,-111.44"/>
<polygon fill="#63b8ff" stroke="#63b8ff" points="587.83,-114.22 594.09,-105.68 583.87,-108.45 587.83,-114.22"/>
</g>
<!-- Node5&#45;&gt;Node3 -->
<g id="edge9" class="edge">
<title>Node5&#45;&gt;Node3</title>
<path fill="none" stroke="#63b8ff" d="M241.01,-62.4C319.48,-69.58 474.57,-83.78 555.72,-91.21"/>
<polygon fill="#63b8ff" stroke="#63b8ff" points="555.44,-94.7 565.72,-92.13 556.08,-87.73 555.44,-94.7"/>
</g>
<!-- Node5&#45;&gt;Node4 -->
<g id="edge8" class="edge">
<title>Node5&#45;&gt;Node4</title>
<path fill="none" stroke="#63b8ff" d="M228.33,-67.59C246.4,-72.49 268.6,-78.52 287.89,-83.76"/>
<polygon fill="#63b8ff" stroke="#63b8ff" points="287.12,-87.17 297.68,-86.41 288.95,-80.42 287.12,-87.17"/>
</g>
<!-- Node6 -->
<g id="node6" class="node">
<title>Node6</title>
<g id="a_node6"><a xlink:href="classnat__num__t.html#a14b63725918fba3ba1f731c3cda4b6ca" target="_top" xlink:title=" ">
<polygon fill="white" stroke="#666666" points="385,-30 283,-30 283,0 385,0 385,-30"/>
<text text-anchor="start" x="291" y="-18" font-family="Helvetica,sans-Serif" font-size="10.00">nat_num_t::digs_no</text>
<text text-anchor="middle" x="334" y="-7" font-family="Helvetica,sans-Serif" font-size="10.00">_significativos</text>
</a>
</g>
</g>
<!-- Node5&#45;&gt;Node6 -->
<g id="edge5" class="edge">
<title>Node5&#45;&gt;Node6</title>
<path fill="none" stroke="#63b8ff" d="M224.07,-48.46C238.82,-43.93 256.95,-38.36 274.15,-33.07"/>
<polygon fill="#63b8ff" stroke="#63b8ff" points="275.61,-36.29 284.14,-30.01 273.56,-29.6 275.61,-36.29"/>
</g>
<!-- Node7 -->
<g id="node7" class="node">
<title>Node7</title>
<g id="a_node7"><a xlink:href="classnat__num__t.html#a2a7eae79a48f9b29a40c9103cfac72d7" target="_top" xlink:title=" ">
<polygon fill="white" stroke="#666666" points="530,-30 427,-30 427,0 530,0 530,-30"/>
<text text-anchor="start" x="435" y="-18" font-family="Helvetica,sans-Serif" font-size="10.00">nat_num_t::ceros_a</text>
<text text-anchor="middle" x="478.5" y="-7" font-family="Helvetica,sans-Serif" font-size="10.00">_la_izqda</text>
</a>
</g>
</g>
<!-- Node6&#45;&gt;Node7 -->
<g id="edge6" class="edge">
<title>Node6&#45;&gt;Node7</title>
<path fill="none" stroke="#63b8ff" d="M385.24,-15C395.34,-15 406.05,-15 416.47,-15"/>
<polygon fill="#63b8ff" stroke="#63b8ff" points="416.75,-18.5 426.75,-15 416.75,-11.5 416.75,-18.5"/>
</g>
<!-- Node7&#45;&gt;Node3 -->
<g id="edge7" class="edge">
<title>Node7&#45;&gt;Node3</title>
<path fill="none" stroke="#63b8ff" d="M506.43,-30.02C514.11,-34.42 522.44,-39.31 530,-44 549.08,-55.82 570.25,-70 585.71,-80.56"/>
<polygon fill="#63b8ff" stroke="#63b8ff" points="583.87,-83.55 594.09,-86.32 587.83,-77.78 583.87,-83.55"/>
</g>
</g>
</svg>
