<?xml version="1.0" encoding="UTF-8" standalone="no"?>
<!DOCTYPE svg PUBLIC "-//W3C//DTD SVG 1.1//EN"
 "http://www.w3.org/Graphics/SVG/1.1/DTD/svg11.dtd">
<!-- Generated by graphviz version 2.44.1 (20220725.2034)
 -->
<!-- Title: nat_num_t::m_EuclidDiv Pages: 1 -->
<!--zoomable 314 -->
<svg id="main" version="1.1" xmlns="http://www.w3.org/2000/svg" xmlns:xlink="http://www.w3.org/1999/xlink" xml:space="preserve" onload="init(evt)">
<style type="text/css"><![CDATA[
.edge:hover path { stroke: red; }
.edge:hover polygon { stroke: red; fill: red; }
]]></style>
<script type="text/javascript"><![CDATA[
var edges = document.getElementsByTagName('g');
if (edges && edges.length) {
  for (var i=0;i<edges.length;i++) {
    if (edges[i].id.substr(0,4)=='edge') {
      edges[i].setAttribute('class','edge');
    }
  }
}
]]></script>
        <defs>
                <circle id="rim" cx="0" cy="0" r="7"/>
                <circle id="rim2" cx="0" cy="0" r="3.5"/>
                <g id="zoomPlus">
                        <use xlink:href="#rim" fill="#404040">
                                <set attributeName="fill" to="#808080" begin="zoomplus.mouseover" end="zoomplus.mouseout"/>
                        </use>
                        <path d="M-4,0h8M0,-4v8" fill="none" stroke="white" stroke-width="1.5" pointer-events="none"/>
                </g>
                <g id="zoomMin">
                        <use xlink:href="#rim" fill="#404040">
                                <set attributeName="fill" to="#808080" begin="zoomminus.mouseover" end="zoomminus.mouseout"/>
                        </use>
                        <path d="M-4,0h8" fill="none" stroke="white" stroke-width="1.5" pointer-events="none"/>
                </g>
                <g id="dirArrow">
                        <path fill="none" stroke="white" stroke-width="1.5" d="M0,-3.0v7 M-2.5,-0.5L0,-3.0L2.5,-0.5"/>
                </g>
               <g id="resetDef">
                       <use xlink:href="#rim2" fill="#404040">
                               <set attributeName="fill" to="#808080" begin="reset.mouseover" end="reset.mouseout"/>
                       </use>
               </g>
        </defs>

<script type="text/javascript">
var viewWidth = 704;
var viewHeight = 314;
var sectionId = 'dynsection-36';
</script>
<script xlink:href="svgpan.js"/>
<svg id="graph" class="graph">
<g id="viewport">
<title>nat_num_t::m_EuclidDiv</title>
<!-- Node1 -->
<g id="node1" class="node">
<title>Node1</title>
<g id="a_node1"><a xlink:title=" ">
<polygon fill="#999999" stroke="#666666" points="124,-207.5 0,-207.5 0,-188.5 124,-188.5 124,-207.5"/>
<text text-anchor="middle" x="62" y="-195.5" font-family="Helvetica,sans-Serif" font-size="10.00">nat_num_t::m_EuclidDiv</text>
</a>
</g>
</g>
<!-- Node2 -->
<g id="node2" class="node">
<title>Node2</title>
<g id="a_node2"><a xlink:href="classnat__num__t.html#a5884ef039a920a6cd34409885551d33a" target="_top" xlink:title=" ">
<polygon fill="white" stroke="#666666" points="264.5,-305.5 180.5,-305.5 180.5,-286.5 264.5,-286.5 264.5,-305.5"/>
<text text-anchor="middle" x="222.5" y="-293.5" font-family="Helvetica,sans-Serif" font-size="10.00">nat_num_t::abs</text>
</a>
</g>
</g>
<!-- Node1&#45;&gt;Node2 -->
<g id="edge1" class="edge">
<title>Node1&#45;&gt;Node2</title>
<path fill="none" stroke="#63b8ff" d="M73.64,-207.74C90.78,-223.03 126.02,-252.91 160,-272 167.17,-276.03 175.16,-279.69 182.94,-282.87"/>
<polygon fill="#63b8ff" stroke="#63b8ff" points="181.68,-286.13 192.26,-286.5 184.22,-279.6 181.68,-286.13"/>
</g>
<!-- Node3 -->
<g id="node3" class="node">
<title>Node3</title>
<g id="a_node3"><a xlink:href="classnat__num__t.html#a386e6f8d5f8b23ea4ac327c3f3a33d61" target="_top" xlink:title=" ">
<polygon fill="white" stroke="#666666" points="574,-192 471,-192 471,-162 574,-162 574,-192"/>
<text text-anchor="start" x="479" y="-180" font-family="Helvetica,sans-Serif" font-size="10.00">nat_num_t::ceros_a</text>
<text text-anchor="middle" x="522.5" y="-169" font-family="Helvetica,sans-Serif" font-size="10.00">_la_drcha</text>
</a>
</g>
</g>
<!-- Node1&#45;&gt;Node3 -->
<g id="edge2" class="edge">
<title>Node1&#45;&gt;Node3</title>
<path fill="none" stroke="#63b8ff" d="M124.23,-203.83C198.24,-209.65 326.37,-215.79 435,-201 445.3,-199.6 456.1,-197.3 466.45,-194.66"/>
<polygon fill="#63b8ff" stroke="#63b8ff" points="467.44,-198.02 476.19,-192.05 465.63,-191.26 467.44,-198.02"/>
</g>
<!-- Node4 -->
<g id="node4" class="node">
<title>Node4</title>
<g id="a_node4"><a xlink:href="classnat__num__t.html#a3f420ff49cf6b55ef38936b2035a4071" target="_top" xlink:title=" ">
<polygon fill="white" stroke="#666666" points="696,-143.5 610,-143.5 610,-124.5 696,-124.5 696,-143.5"/>
<text text-anchor="middle" x="653" y="-131.5" font-family="Helvetica,sans-Serif" font-size="10.00">nat_num_t::size</text>
</a>
</g>
</g>
<!-- Node1&#45;&gt;Node4 -->
<g id="edge15" class="edge">
<title>Node1&#45;&gt;Node4</title>
<path fill="none" stroke="#63b8ff" d="M93.66,-207.61C112.57,-213.03 137.44,-219.25 160,-222 342.88,-244.29 405.72,-275.99 574,-201 599.55,-189.61 623.04,-167.07 637.43,-151.29"/>
<polygon fill="#63b8ff" stroke="#63b8ff" points="640.09,-153.56 644.08,-143.75 634.84,-148.93 640.09,-153.56"/>
</g>
<!-- Node5 -->
<g id="node5" class="node">
<title>Node5</title>
<g id="a_node5"><a xlink:href="classnat__num__t.html#a5a1e29dfd320bf08016a2f0227621f0d" target="_top" xlink:title=" ">
<polygon fill="white" stroke="#666666" points="271.5,-105.5 173.5,-105.5 173.5,-86.5 271.5,-86.5 271.5,-105.5"/>
<text text-anchor="middle" x="222.5" y="-93.5" font-family="Helvetica,sans-Serif" font-size="10.00">nat_num_t::reduce</text>
</a>
</g>
</g>
<!-- Node1&#45;&gt;Node5 -->
<g id="edge4" class="edge">
<title>Node1&#45;&gt;Node5</title>
<path fill="none" stroke="#63b8ff" d="M77.91,-188.4C105.52,-170.63 164.81,-132.48 197.92,-111.18"/>
<polygon fill="#63b8ff" stroke="#63b8ff" points="200,-114 206.51,-105.64 196.21,-108.11 200,-114"/>
</g>
<!-- Node9 -->
<g id="node9" class="node">
<title>Node9</title>
<g id="a_node9"><a xlink:href="classnat__num__t.html#a52b809b6182fe1ae3ceb43114ce7a0dc" target="_top" xlink:title=" ">
<polygon fill="white" stroke="#666666" points="285,-164.5 160,-164.5 160,-145.5 285,-145.5 285,-164.5"/>
<text text-anchor="middle" x="222.5" y="-152.5" font-family="Helvetica,sans-Serif" font-size="10.00">nat_num_t::reduce_fracc</text>
</a>
</g>
</g>
<!-- Node1&#45;&gt;Node9 -->
<g id="edge10" class="edge">
<title>Node1&#45;&gt;Node9</title>
<path fill="none" stroke="#63b8ff" d="M98.18,-188.46C121.26,-182.19 151.66,-173.95 176.5,-167.21"/>
<polygon fill="#63b8ff" stroke="#63b8ff" points="177.69,-170.51 186.42,-164.52 175.85,-163.76 177.69,-170.51"/>
</g>
<!-- Node11 -->
<g id="node11" class="node">
<title>Node11</title>
<g id="a_node11"><a xlink:href="classnat__num__t.html#a04b3864005da7d30b79ebdb0b4529bcc" target="_top" xlink:title=" ">
<polygon fill="white" stroke="#666666" points="270,-68.5 175,-68.5 175,-49.5 270,-49.5 270,-68.5"/>
<text text-anchor="middle" x="222.5" y="-56.5" font-family="Helvetica,sans-Serif" font-size="10.00">nat_num_t::substr</text>
</a>
</g>
</g>
<!-- Node1&#45;&gt;Node11 -->
<g id="edge16" class="edge">
<title>Node1&#45;&gt;Node11</title>
<path fill="none" stroke="#63b8ff" d="M68.15,-188.29C80.7,-165.52 115.2,-108.34 160,-78 163.05,-75.94 166.33,-74.09 169.73,-72.44"/>
<polygon fill="#63b8ff" stroke="#63b8ff" points="171.13,-75.64 178.96,-68.5 168.39,-69.21 171.13,-75.64"/>
</g>
<!-- Node3&#45;&gt;Node4 -->
<g id="edge3" class="edge">
<title>Node3&#45;&gt;Node4</title>
<path fill="none" stroke="#63b8ff" d="M568.44,-161.96C583.26,-157 599.59,-151.54 613.85,-146.77"/>
<polygon fill="#63b8ff" stroke="#63b8ff" points="614.98,-150.08 623.35,-143.59 612.76,-143.44 614.98,-150.08"/>
</g>
<!-- Node5&#45;&gt;Node4 -->
<g id="edge9" class="edge">
<title>Node5&#45;&gt;Node4</title>
<path fill="none" stroke="#63b8ff" d="M265.98,-86.42C282.99,-83.04 302.83,-79.66 321,-78 371.46,-73.38 384.74,-71.62 435,-78 499.32,-86.17 571.85,-107.43 614.65,-121.28"/>
<polygon fill="#63b8ff" stroke="#63b8ff" points="613.76,-124.67 624.35,-124.46 615.94,-118.02 613.76,-124.67"/>
</g>
<!-- Node6 -->
<g id="node6" class="node">
<title>Node6</title>
<g id="a_node6"><a xlink:href="classnat__num__t.html#a14b63725918fba3ba1f731c3cda4b6ca" target="_top" xlink:title=" ">
<polygon fill="white" stroke="#666666" points="429,-30 327,-30 327,0 429,0 429,-30"/>
<text text-anchor="start" x="335" y="-18" font-family="Helvetica,sans-Serif" font-size="10.00">nat_num_t::digs_no</text>
<text text-anchor="middle" x="378" y="-7" font-family="Helvetica,sans-Serif" font-size="10.00">_significativos</text>
</a>
</g>
</g>
<!-- Node5&#45;&gt;Node6 -->
<g id="edge5" class="edge">
<title>Node5&#45;&gt;Node6</title>
<path fill="none" stroke="#63b8ff" d="M265.94,-86.46C272.54,-84.17 279.11,-81.38 285,-78 304.09,-67.05 303.05,-56.74 321,-44 325.46,-40.83 330.32,-37.79 335.25,-34.96"/>
<polygon fill="#63b8ff" stroke="#63b8ff" points="337.04,-37.97 344.12,-30.08 333.67,-31.83 337.04,-37.97"/>
</g>
<!-- Node8 -->
<g id="node8" class="node">
<title>Node8</title>
<g id="a_node8"><a xlink:href="classnat__num__t.html#a8f8bdd2355aab6b9b24f4c87cd68f5b7" target="_top" xlink:title=" ">
<polygon fill="white" stroke="#666666" points="435,-105.5 321,-105.5 321,-86.5 435,-86.5 435,-105.5"/>
<text text-anchor="middle" x="378" y="-93.5" font-family="Helvetica,sans-Serif" font-size="10.00">nat_num_t::nat_num_t</text>
</a>
</g>
</g>
<!-- Node5&#45;&gt;Node8 -->
<g id="edge8" class="edge">
<title>Node5&#45;&gt;Node8</title>
<path fill="none" stroke="#63b8ff" d="M271.65,-96C284,-96 297.5,-96 310.59,-96"/>
<polygon fill="#63b8ff" stroke="#63b8ff" points="310.97,-99.5 320.97,-96 310.97,-92.5 310.97,-99.5"/>
</g>
<!-- Node7 -->
<g id="node7" class="node">
<title>Node7</title>
<g id="a_node7"><a xlink:href="classnat__num__t.html#a2a7eae79a48f9b29a40c9103cfac72d7" target="_top" xlink:title=" ">
<polygon fill="white" stroke="#666666" points="574,-30 471,-30 471,0 574,0 574,-30"/>
<text text-anchor="start" x="479" y="-18" font-family="Helvetica,sans-Serif" font-size="10.00">nat_num_t::ceros_a</text>
<text text-anchor="middle" x="522.5" y="-7" font-family="Helvetica,sans-Serif" font-size="10.00">_la_izqda</text>
</a>
</g>
</g>
<!-- Node6&#45;&gt;Node7 -->
<g id="edge6" class="edge">
<title>Node6&#45;&gt;Node7</title>
<path fill="none" stroke="#63b8ff" d="M429.24,-15C439.34,-15 450.05,-15 460.47,-15"/>
<polygon fill="#63b8ff" stroke="#63b8ff" points="460.75,-18.5 470.75,-15 460.75,-11.5 460.75,-18.5"/>
</g>
<!-- Node7&#45;&gt;Node4 -->
<g id="edge7" class="edge">
<title>Node7&#45;&gt;Node4</title>
<path fill="none" stroke="#63b8ff" d="M553.7,-30.14C560.67,-34.22 567.83,-38.92 574,-44 600.32,-65.67 625.09,-96.77 639.39,-116.15"/>
<polygon fill="#63b8ff" stroke="#63b8ff" points="636.66,-118.35 645.36,-124.4 642.33,-114.24 636.66,-118.35"/>
</g>
<!-- Node9&#45;&gt;Node4 -->
<g id="edge14" class="edge">
<title>Node9&#45;&gt;Node4</title>
<path fill="none" stroke="#63b8ff" d="M285.35,-151.97C369.97,-147.82 520.35,-140.45 599.67,-136.56"/>
<polygon fill="#63b8ff" stroke="#63b8ff" points="600.1,-140.05 609.92,-136.06 599.76,-133.06 600.1,-140.05"/>
</g>
<!-- Node9&#45;&gt;Node8 -->
<g id="edge13" class="edge">
<title>Node9&#45;&gt;Node8</title>
<path fill="none" stroke="#63b8ff" d="M248.5,-145.39C274.11,-135.55 314.11,-120.17 342.68,-109.19"/>
<polygon fill="#63b8ff" stroke="#63b8ff" points="344.18,-112.36 352.26,-105.51 341.67,-105.83 344.18,-112.36"/>
</g>
<!-- Node10 -->
<g id="node10" class="node">
<title>Node10</title>
<g id="a_node10"><a xlink:href="classnat__num__t.html#a5a50025c599c9230b0ad18badc673e37" target="_top" xlink:title=" ">
<polygon fill="white" stroke="#666666" points="434.5,-192 321.5,-192 321.5,-162 434.5,-162 434.5,-192"/>
<text text-anchor="start" x="329.5" y="-180" font-family="Helvetica,sans-Serif" font-size="10.00">nat_num_t::digs_fracc</text>
<text text-anchor="middle" x="378" y="-169" font-family="Helvetica,sans-Serif" font-size="10.00">_no_significativos</text>
</a>
</g>
</g>
<!-- Node9&#45;&gt;Node10 -->
<g id="edge11" class="edge">
<title>Node9&#45;&gt;Node10</title>
<path fill="none" stroke="#63b8ff" d="M285.05,-163.82C293.68,-165.06 302.58,-166.33 311.29,-167.58"/>
<polygon fill="#63b8ff" stroke="#63b8ff" points="311,-171.08 321.39,-169.03 311.99,-164.15 311,-171.08"/>
</g>
<!-- Node10&#45;&gt;Node3 -->
<g id="edge12" class="edge">
<title>Node10&#45;&gt;Node3</title>
<path fill="none" stroke="#63b8ff" d="M434.5,-177C443.04,-177 451.9,-177 460.54,-177"/>
<polygon fill="#63b8ff" stroke="#63b8ff" points="460.57,-180.5 470.57,-177 460.57,-173.5 460.57,-180.5"/>
</g>
</g>
</svg>
        <g id="navigator" transform="translate(0 0)" fill="#404254">
                <rect fill="#f2f5e9" fill-opacity="0.5" stroke="#606060" stroke-width=".5" x="0" y="0" width="60" height="60"/>
                <use id="zoomplus" xlink:href="#zoomPlus" x="17" y="9" onmousedown="handleZoom(evt,'in')"/>
                <use id="zoomminus" xlink:href="#zoomMin" x="42" y="9" onmousedown="handleZoom(evt,'out')"/>
                <use id="reset" xlink:href="#resetDef" x="30" y="36" onmousedown="handleReset()"/>
                <g id="arrowUp" xlink:href="#dirArrow" transform="translate(30 24)" onmousedown="handlePan(0,-1)">
                  <use xlink:href="#rim" fill="#404040">
                        <set attributeName="fill" to="#808080" begin="arrowUp.mouseover" end="arrowUp.mouseout"/>
                  </use>
                  <path fill="none" stroke="white" stroke-width="1.5" d="M0,-3.0v7 M-2.5,-0.5L0,-3.0L2.5,-0.5"/>
                </g>
                <g id="arrowRight" xlink:href="#dirArrow" transform="rotate(90) translate(36 -43)" onmousedown="handlePan(1,0)">
                  <use xlink:href="#rim" fill="#404040">
                        <set attributeName="fill" to="#808080" begin="arrowRight.mouseover" end="arrowRight.mouseout"/>
                  </use>
                  <path fill="none" stroke="white" stroke-width="1.5" d="M0,-3.0v7 M-2.5,-0.5L0,-3.0L2.5,-0.5"/>
                </g>
                <g id="arrowDown" xlink:href="#dirArrow" transform="rotate(180) translate(-30 -48)" onmousedown="handlePan(0,1)">
                  <use xlink:href="#rim" fill="#404040">
                        <set attributeName="fill" to="#808080" begin="arrowDown.mouseover" end="arrowDown.mouseout"/>
                  </use>
                  <path fill="none" stroke="white" stroke-width="1.5" d="M0,-3.0v7 M-2.5,-0.5L0,-3.0L2.5,-0.5"/>
                </g>
                <g id="arrowLeft" xlink:href="#dirArrow" transform="rotate(270) translate(-36 17)" onmousedown="handlePan(-1,0)">
                  <use xlink:href="#rim" fill="#404040">
                        <set attributeName="fill" to="#808080" begin="arrowLeft.mouseover" end="arrowLeft.mouseout"/>
                  </use>
                  <path fill="none" stroke="white" stroke-width="1.5" d="M0,-3.0v7 M-2.5,-0.5L0,-3.0L2.5,-0.5"/>
                </g>
        </g>
        <svg viewBox="0 0 15 15" width="100%" height="30px" preserveAspectRatio="xMaxYMin meet">
         <g id="arrow_out" transform="scale(0.3 0.3)">
          <a xlink:href="classnat__num__t_a33fdda0e7d67cc2f9a9c90ea001e8c2b_cgraph_org.svg" target="_base">
           <rect id="button" ry="5" rx="5" y="6" x="6" height="38" width="38"
                fill="#f2f5e9" fill-opacity="0.5" stroke="#606060" stroke-width="1.0"/>
           <path id="arrow"
             d="M 11.500037,31.436501 C 11.940474,20.09759 22.043105,11.32322 32.158766,21.979434 L 37.068811,17.246167 C 37.068811,17.246167 37.088388,32 37.088388,32 L 22.160133,31.978069 C 22.160133,31.978069 26.997745,27.140456 26.997745,27.140456 C 18.528582,18.264221 13.291696,25.230495 11.500037,31.436501 z"
             style="fill:#404040;"/>
          </a>
         </g>
        </svg>
</svg>
