<?xml version="1.0" encoding="UTF-8" standalone="no"?>
<!DOCTYPE svg PUBLIC "-//W3C//DTD SVG 1.1//EN"
 "http://www.w3.org/Graphics/SVG/1.1/DTD/svg11.dtd">
<!-- Generated by graphviz version 2.44.1 (20220725.2034)
 -->
<!-- Title: nat_num_t::operator* Pages: 1 -->
<svg width="676pt" height="127pt"
 viewBox="0.00 0.00 676.00 127.40" xmlns="http://www.w3.org/2000/svg" xmlns:xlink="http://www.w3.org/1999/xlink">
<g id="graph0" class="graph" transform="scale(1 1) rotate(0) translate(4 123.4)">
<title>nat_num_t::operator*</title>
<!-- Node1 -->
<g id="node1" class="node">
<title>Node1</title>
<g id="a_node1"><a xlink:title=" ">
<polygon fill="#999999" stroke="#666666" points="107,-51.9 0,-51.9 0,-32.9 107,-32.9 107,-51.9"/>
<text text-anchor="middle" x="53.5" y="-39.9" font-family="Helvetica,sans-Serif" font-size="10.00">nat_num_t::operator*</text>
</a>
</g>
</g>
<!-- Node2 -->
<g id="node2" class="node">
<title>Node2</title>
<g id="a_node2"><a xlink:href="classnat__num__t.html#aa0ced0babafe7e7e98b393c63d0c06d9" target="_top" xlink:title=" ">
<polygon fill="white" stroke="#666666" points="257,-88.9 143,-88.9 143,-69.9 257,-69.9 257,-88.9"/>
<text text-anchor="middle" x="200" y="-76.9" font-family="Helvetica,sans-Serif" font-size="10.00">nat_num_t::push_front</text>
</a>
</g>
</g>
<!-- Node1&#45;&gt;Node2 -->
<g id="edge1" class="edge">
<title>Node1&#45;&gt;Node2</title>
<path fill="none" stroke="#63b8ff" d="M91.71,-51.93C110.01,-56.62 132.27,-62.32 151.76,-67.31"/>
<polygon fill="#63b8ff" stroke="#63b8ff" points="151.11,-70.75 161.66,-69.84 152.84,-63.97 151.11,-70.75"/>
</g>
<!-- Node3 -->
<g id="node3" class="node">
<title>Node3</title>
<g id="a_node3"><a xlink:href="classnat__num__t.html#a5a1e29dfd320bf08016a2f0227621f0d" target="_top" xlink:title=" ">
<polygon fill="white" stroke="#666666" points="249,-51.9 151,-51.9 151,-32.9 249,-32.9 249,-51.9"/>
<text text-anchor="middle" x="200" y="-39.9" font-family="Helvetica,sans-Serif" font-size="10.00">nat_num_t::reduce</text>
</a>
</g>
</g>
<!-- Node1&#45;&gt;Node3 -->
<g id="edge2" class="edge">
<title>Node1&#45;&gt;Node3</title>
<path fill="none" stroke="#63b8ff" d="M107.08,-42.4C117.95,-42.4 129.47,-42.4 140.54,-42.4"/>
<polygon fill="#63b8ff" stroke="#63b8ff" points="140.54,-45.9 150.54,-42.4 140.54,-38.9 140.54,-45.9"/>
</g>
<!-- Node6 -->
<g id="node6" class="node">
<title>Node6</title>
<g id="a_node6"><a xlink:href="classnat__num__t.html#a3f420ff49cf6b55ef38936b2035a4071" target="_top" xlink:title=" ">
<polygon fill="white" stroke="#666666" points="668,-70.9 582,-70.9 582,-51.9 668,-51.9 668,-70.9"/>
<text text-anchor="middle" x="625" y="-58.9" font-family="Helvetica,sans-Serif" font-size="10.00">nat_num_t::size</text>
</a>
</g>
</g>
<!-- Node1&#45;&gt;Node6 -->
<g id="edge8" class="edge">
<title>Node1&#45;&gt;Node6</title>
<path fill="none" stroke="#63b8ff" d="M90.59,-32.89C154.47,-17.32 291.62,10.5 407,-4.4 471.55,-12.74 544.29,-34.48 587.03,-48.57"/>
<polygon fill="#63b8ff" stroke="#63b8ff" points="586.11,-51.96 596.7,-51.8 588.33,-45.32 586.11,-51.96"/>
</g>
<!-- Node4 -->
<g id="node4" class="node">
<title>Node4</title>
<g id="a_node4"><a xlink:href="classnat__num__t.html#a14b63725918fba3ba1f731c3cda4b6ca" target="_top" xlink:title=" ">
<polygon fill="white" stroke="#666666" points="401,-119.4 299,-119.4 299,-89.4 401,-89.4 401,-119.4"/>
<text text-anchor="start" x="307" y="-107.4" font-family="Helvetica,sans-Serif" font-size="10.00">nat_num_t::digs_no</text>
<text text-anchor="middle" x="350" y="-96.4" font-family="Helvetica,sans-Serif" font-size="10.00">_significativos</text>
</a>
</g>
</g>
<!-- Node3&#45;&gt;Node4 -->
<g id="edge3" class="edge">
<title>Node3&#45;&gt;Node4</title>
<path fill="none" stroke="#63b8ff" d="M231.16,-51.96C239.59,-54.81 248.71,-58.07 257,-61.4 274.5,-68.44 293.45,-77.1 309.57,-84.81"/>
<polygon fill="#63b8ff" stroke="#63b8ff" points="308.18,-88.02 318.7,-89.21 311.22,-81.72 308.18,-88.02"/>
</g>
<!-- Node3&#45;&gt;Node6 -->
<g id="edge7" class="edge">
<title>Node3&#45;&gt;Node6</title>
<path fill="none" stroke="#63b8ff" d="M249.11,-44.56C329.16,-48.16 489.06,-55.34 571.77,-59.06"/>
<polygon fill="#63b8ff" stroke="#63b8ff" points="571.79,-62.56 581.94,-59.51 572.11,-55.57 571.79,-62.56"/>
</g>
<!-- Node7 -->
<g id="node7" class="node">
<title>Node7</title>
<g id="a_node7"><a xlink:href="classnat__num__t.html#a8f8bdd2355aab6b9b24f4c87cd68f5b7" target="_top" xlink:title=" ">
<polygon fill="white" stroke="#666666" points="407,-32.9 293,-32.9 293,-13.9 407,-13.9 407,-32.9"/>
<text text-anchor="middle" x="350" y="-20.9" font-family="Helvetica,sans-Serif" font-size="10.00">nat_num_t::nat_num_t</text>
</a>
</g>
</g>
<!-- Node3&#45;&gt;Node7 -->
<g id="edge6" class="edge">
<title>Node3&#45;&gt;Node7</title>
<path fill="none" stroke="#63b8ff" d="M249.05,-36.23C259.89,-34.84 271.57,-33.34 283,-31.88"/>
<polygon fill="#63b8ff" stroke="#63b8ff" points="283.48,-35.34 292.95,-30.6 282.59,-28.4 283.48,-35.34"/>
</g>
<!-- Node5 -->
<g id="node5" class="node">
<title>Node5</title>
<g id="a_node5"><a xlink:href="classnat__num__t.html#a2a7eae79a48f9b29a40c9103cfac72d7" target="_top" xlink:title=" ">
<polygon fill="white" stroke="#666666" points="546,-119.4 443,-119.4 443,-89.4 546,-89.4 546,-119.4"/>
<text text-anchor="start" x="451" y="-107.4" font-family="Helvetica,sans-Serif" font-size="10.00">nat_num_t::ceros_a</text>
<text text-anchor="middle" x="494.5" y="-96.4" font-family="Helvetica,sans-Serif" font-size="10.00">_la_izqda</text>
</a>
</g>
</g>
<!-- Node4&#45;&gt;Node5 -->
<g id="edge4" class="edge">
<title>Node4&#45;&gt;Node5</title>
<path fill="none" stroke="#63b8ff" d="M401.24,-104.4C411.34,-104.4 422.05,-104.4 432.47,-104.4"/>
<polygon fill="#63b8ff" stroke="#63b8ff" points="432.75,-107.9 442.75,-104.4 432.75,-100.9 432.75,-107.9"/>
</g>
<!-- Node5&#45;&gt;Node6 -->
<g id="edge5" class="edge">
<title>Node5&#45;&gt;Node6</title>
<path fill="none" stroke="#63b8ff" d="M540.44,-89.36C555.26,-84.4 571.59,-78.94 585.85,-74.17"/>
<polygon fill="#63b8ff" stroke="#63b8ff" points="586.98,-77.48 595.35,-70.99 584.76,-70.84 586.98,-77.48"/>
</g>
</g>
</svg>
