<?xml version="1.0" encoding="UTF-8" standalone="no"?>
<!DOCTYPE svg PUBLIC "-//W3C//DTD SVG 1.1//EN"
 "http://www.w3.org/Graphics/SVG/1.1/DTD/svg11.dtd">
<!-- Generated by graphviz version 2.44.1 (20220725.2034)
 -->
<!-- Title: nat_num_t::operator&#45; Pages: 1 -->
<svg width="807pt" height="218pt"
 viewBox="0.00 0.00 807.00 217.50" xmlns="http://www.w3.org/2000/svg" xmlns:xlink="http://www.w3.org/1999/xlink">
<g id="graph0" class="graph" transform="scale(1 1) rotate(0) translate(4 213.5)">
<title>nat_num_t::operator&#45;</title>
<!-- Node1 -->
<g id="node1" class="node">
<title>Node1</title>
<g id="a_node1"><a xlink:title=" ">
<polygon fill="#999999" stroke="#666666" points="107,-101.5 0,-101.5 0,-82.5 107,-82.5 107,-101.5"/>
<text text-anchor="middle" x="53.5" y="-89.5" font-family="Helvetica,sans-Serif" font-size="10.00">nat_num_t::operator&#45;</text>
</a>
</g>
</g>
<!-- Node2 -->
<g id="node2" class="node">
<title>Node2</title>
<g id="a_node2"><a xlink:href="classnat__num__t.html#a07b25245f1119449ee9171ab2ea85de6" target="_top" xlink:title=" ">
<polygon fill="white" stroke="#666666" points="238,-160.5 143,-160.5 143,-141.5 238,-141.5 238,-160.5"/>
<text text-anchor="middle" x="190.5" y="-148.5" font-family="Helvetica,sans-Serif" font-size="10.00">nat_num_t::minus</text>
</a>
</g>
</g>
<!-- Node1&#45;&gt;Node2 -->
<g id="edge1" class="edge">
<title>Node1&#45;&gt;Node2</title>
<path fill="none" stroke="#63b8ff" d="M76.49,-101.61C98.65,-111.3 133.07,-126.34 158.1,-137.28"/>
<polygon fill="#63b8ff" stroke="#63b8ff" points="156.95,-140.6 167.52,-141.39 159.76,-134.18 156.95,-140.6"/>
</g>
<!-- Node4 -->
<g id="node4" class="node">
<title>Node4</title>
<g id="a_node4"><a xlink:href="classnat__num__t.html#a5a1e29dfd320bf08016a2f0227621f0d" target="_top" xlink:title=" ">
<polygon fill="white" stroke="#666666" points="380,-101.5 282,-101.5 282,-82.5 380,-82.5 380,-101.5"/>
<text text-anchor="middle" x="331" y="-89.5" font-family="Helvetica,sans-Serif" font-size="10.00">nat_num_t::reduce</text>
</a>
</g>
</g>
<!-- Node1&#45;&gt;Node4 -->
<g id="edge10" class="edge">
<title>Node1&#45;&gt;Node4</title>
<path fill="none" stroke="#63b8ff" d="M107.29,-92C154.41,-92 223.28,-92 271.93,-92"/>
<polygon fill="#63b8ff" stroke="#63b8ff" points="271.99,-95.5 281.99,-92 271.99,-88.5 271.99,-95.5"/>
</g>
<!-- Node7 -->
<g id="node7" class="node">
<title>Node7</title>
<g id="a_node7"><a xlink:href="classnat__num__t.html#a3f420ff49cf6b55ef38936b2035a4071" target="_top" xlink:title=" ">
<polygon fill="white" stroke="#666666" points="799,-68.5 713,-68.5 713,-49.5 799,-49.5 799,-68.5"/>
<text text-anchor="middle" x="756" y="-56.5" font-family="Helvetica,sans-Serif" font-size="10.00">nat_num_t::size</text>
</a>
</g>
</g>
<!-- Node1&#45;&gt;Node7 -->
<g id="edge11" class="edge">
<title>Node1&#45;&gt;Node7</title>
<path fill="none" stroke="#63b8ff" d="M70.94,-82.33C112.71,-58.71 226.88,0 330,0 330,0 330,0 482,0 568.6,0 667.24,-28.71 718.97,-46.08"/>
<polygon fill="#63b8ff" stroke="#63b8ff" points="718.08,-49.47 728.67,-49.39 720.34,-42.85 718.08,-49.47"/>
</g>
<!-- Node3 -->
<g id="node3" class="node">
<title>Node3</title>
<g id="a_node3"><a xlink:href="classnat__num__t.html#aa0ced0babafe7e7e98b393c63d0c06d9" target="_top" xlink:title=" ">
<polygon fill="white" stroke="#666666" points="388,-209.5 274,-209.5 274,-190.5 388,-190.5 388,-209.5"/>
<text text-anchor="middle" x="331" y="-197.5" font-family="Helvetica,sans-Serif" font-size="10.00">nat_num_t::push_front</text>
</a>
</g>
</g>
<!-- Node2&#45;&gt;Node3 -->
<g id="edge2" class="edge">
<title>Node2&#45;&gt;Node3</title>
<path fill="none" stroke="#63b8ff" d="M218.53,-160.56C239.89,-168.12 269.9,-178.74 293.4,-187.05"/>
<polygon fill="#63b8ff" stroke="#63b8ff" points="292.44,-190.42 303.04,-190.46 294.78,-183.83 292.44,-190.42"/>
</g>
<!-- Node2&#45;&gt;Node4 -->
<g id="edge3" class="edge">
<title>Node2&#45;&gt;Node4</title>
<path fill="none" stroke="#63b8ff" d="M214.06,-141.39C236.9,-131.66 272.42,-116.53 298.12,-105.58"/>
<polygon fill="#63b8ff" stroke="#63b8ff" points="299.62,-108.75 307.45,-101.61 296.88,-102.31 299.62,-108.75"/>
</g>
<!-- Node2&#45;&gt;Node7 -->
<g id="edge9" class="edge">
<title>Node2&#45;&gt;Node7</title>
<path fill="none" stroke="#63b8ff" d="M238.24,-155.6C327.49,-162.47 526.68,-168.53 677,-105 696.67,-96.69 717.42,-84.25 732.57,-74.4"/>
<polygon fill="#63b8ff" stroke="#63b8ff" points="734.82,-77.11 741.22,-68.66 730.95,-71.27 734.82,-77.11"/>
</g>
<!-- Node5 -->
<g id="node5" class="node">
<title>Node5</title>
<g id="a_node5"><a xlink:href="classnat__num__t.html#a14b63725918fba3ba1f731c3cda4b6ca" target="_top" xlink:title=" ">
<polygon fill="white" stroke="#666666" points="532,-96 430,-96 430,-66 532,-66 532,-96"/>
<text text-anchor="start" x="438" y="-84" font-family="Helvetica,sans-Serif" font-size="10.00">nat_num_t::digs_no</text>
<text text-anchor="middle" x="481" y="-73" font-family="Helvetica,sans-Serif" font-size="10.00">_significativos</text>
</a>
</g>
</g>
<!-- Node4&#45;&gt;Node5 -->
<g id="edge4" class="edge">
<title>Node4&#45;&gt;Node5</title>
<path fill="none" stroke="#63b8ff" d="M380.05,-88.43C392.76,-87.48 406.65,-86.45 419.91,-85.47"/>
<polygon fill="#63b8ff" stroke="#63b8ff" points="420.19,-88.96 429.9,-84.72 419.67,-81.97 420.19,-88.96"/>
</g>
<!-- Node4&#45;&gt;Node7 -->
<g id="edge8" class="edge">
<title>Node4&#45;&gt;Node7</title>
<path fill="none" stroke="#63b8ff" d="M351.14,-82.36C369.35,-73.76 397.78,-61.82 424,-57 521.11,-39.15 636.96,-46.16 702.66,-52.7"/>
<polygon fill="#63b8ff" stroke="#63b8ff" points="702.45,-56.2 712.76,-53.74 703.17,-49.24 702.45,-56.2"/>
</g>
<!-- Node8 -->
<g id="node8" class="node">
<title>Node8</title>
<g id="a_node8"><a xlink:href="classnat__num__t.html#a8f8bdd2355aab6b9b24f4c87cd68f5b7" target="_top" xlink:title=" ">
<polygon fill="white" stroke="#666666" points="538,-133.5 424,-133.5 424,-114.5 538,-114.5 538,-133.5"/>
<text text-anchor="middle" x="481" y="-121.5" font-family="Helvetica,sans-Serif" font-size="10.00">nat_num_t::nat_num_t</text>
</a>
</g>
</g>
<!-- Node4&#45;&gt;Node8 -->
<g id="edge7" class="edge">
<title>Node4&#45;&gt;Node8</title>
<path fill="none" stroke="#63b8ff" d="M376,-101.51C391.67,-104.9 409.49,-108.76 425.91,-112.3"/>
<polygon fill="#63b8ff" stroke="#63b8ff" points="425.4,-115.77 435.91,-114.47 426.88,-108.93 425.4,-115.77"/>
</g>
<!-- Node6 -->
<g id="node6" class="node">
<title>Node6</title>
<g id="a_node6"><a xlink:href="classnat__num__t.html#a2a7eae79a48f9b29a40c9103cfac72d7" target="_top" xlink:title=" ">
<polygon fill="white" stroke="#666666" points="677,-96 574,-96 574,-66 677,-66 677,-96"/>
<text text-anchor="start" x="582" y="-84" font-family="Helvetica,sans-Serif" font-size="10.00">nat_num_t::ceros_a</text>
<text text-anchor="middle" x="625.5" y="-73" font-family="Helvetica,sans-Serif" font-size="10.00">_la_izqda</text>
</a>
</g>
</g>
<!-- Node5&#45;&gt;Node6 -->
<g id="edge5" class="edge">
<title>Node5&#45;&gt;Node6</title>
<path fill="none" stroke="#63b8ff" d="M532.24,-81C542.34,-81 553.05,-81 563.47,-81"/>
<polygon fill="#63b8ff" stroke="#63b8ff" points="563.75,-84.5 573.75,-81 563.75,-77.5 563.75,-84.5"/>
</g>
<!-- Node6&#45;&gt;Node7 -->
<g id="edge6" class="edge">
<title>Node6&#45;&gt;Node7</title>
<path fill="none" stroke="#63b8ff" d="M677.29,-72.31C685.67,-70.87 694.36,-69.38 702.78,-67.94"/>
<polygon fill="#63b8ff" stroke="#63b8ff" points="703.59,-71.35 712.86,-66.22 702.41,-64.45 703.59,-71.35"/>
</g>
</g>
</svg>
