<?xml version="1.0" encoding="UTF-8" standalone="no"?>
<!DOCTYPE svg PUBLIC "-//W3C//DTD SVG 1.1//EN"
 "http://www.w3.org/Graphics/SVG/1.1/DTD/svg11.dtd">
<!-- Generated by graphviz version 2.44.1 (20220725.2034)
 -->
<!-- Title: nat_num_t::remB Pages: 1 -->
<svg width="645pt" height="114pt"
 viewBox="0.00 0.00 645.00 113.50" xmlns="http://www.w3.org/2000/svg" xmlns:xlink="http://www.w3.org/1999/xlink">
<g id="graph0" class="graph" transform="scale(1 1) rotate(0) translate(4 109.5)">
<title>nat_num_t::remB</title>
<!-- Node1 -->
<g id="node1" class="node">
<title>Node1</title>
<g id="a_node1"><a xlink:title=" ">
<polygon fill="#999999" stroke="#666666" points="92,-57 0,-57 0,-38 92,-38 92,-57"/>
<text text-anchor="middle" x="46" y="-45" font-family="Helvetica,sans-Serif" font-size="10.00">nat_num_t::remB</text>
</a>
</g>
</g>
<!-- Node2 -->
<g id="node2" class="node">
<title>Node2</title>
<g id="a_node2"><a xlink:href="classnat__num__t.html#a5a1e29dfd320bf08016a2f0227621f0d" target="_top" xlink:title=" ">
<polygon fill="white" stroke="#666666" points="226,-57 128,-57 128,-38 226,-38 226,-57"/>
<text text-anchor="middle" x="177" y="-45" font-family="Helvetica,sans-Serif" font-size="10.00">nat_num_t::reduce</text>
</a>
</g>
</g>
<!-- Node1&#45;&gt;Node2 -->
<g id="edge1" class="edge">
<title>Node1&#45;&gt;Node2</title>
<path fill="none" stroke="#63b8ff" d="M92.12,-47.5C100.28,-47.5 108.9,-47.5 117.38,-47.5"/>
<polygon fill="#63b8ff" stroke="#63b8ff" points="117.62,-51 127.62,-47.5 117.62,-44 117.62,-51"/>
</g>
<!-- Node3 -->
<g id="node3" class="node">
<title>Node3</title>
<g id="a_node3"><a xlink:href="classnat__num__t.html#a14b63725918fba3ba1f731c3cda4b6ca" target="_top" xlink:title=" ">
<polygon fill="white" stroke="#666666" points="370,-105.5 268,-105.5 268,-75.5 370,-75.5 370,-105.5"/>
<text text-anchor="start" x="276" y="-93.5" font-family="Helvetica,sans-Serif" font-size="10.00">nat_num_t::digs_no</text>
<text text-anchor="middle" x="319" y="-82.5" font-family="Helvetica,sans-Serif" font-size="10.00">_significativos</text>
</a>
</g>
</g>
<!-- Node2&#45;&gt;Node3 -->
<g id="edge2" class="edge">
<title>Node2&#45;&gt;Node3</title>
<path fill="none" stroke="#63b8ff" d="M209.07,-57.04C223.82,-61.57 241.95,-67.14 259.15,-72.43"/>
<polygon fill="#63b8ff" stroke="#63b8ff" points="258.56,-75.9 269.14,-75.49 260.61,-69.21 258.56,-75.9"/>
</g>
<!-- Node5 -->
<g id="node5" class="node">
<title>Node5</title>
<g id="a_node5"><a xlink:href="classnat__num__t.html#a3f420ff49cf6b55ef38936b2035a4071" target="_top" xlink:title=" ">
<polygon fill="white" stroke="#666666" points="637,-78 551,-78 551,-59 637,-59 637,-78"/>
<text text-anchor="middle" x="594" y="-66" font-family="Helvetica,sans-Serif" font-size="10.00">nat_num_t::size</text>
</a>
</g>
</g>
<!-- Node2&#45;&gt;Node5 -->
<g id="edge6" class="edge">
<title>Node2&#45;&gt;Node5</title>
<path fill="none" stroke="#63b8ff" d="M226.01,-49.93C304.48,-53.9 459.57,-61.75 540.72,-65.85"/>
<polygon fill="#63b8ff" stroke="#63b8ff" points="540.55,-69.35 550.72,-66.36 540.91,-62.36 540.55,-69.35"/>
</g>
<!-- Node6 -->
<g id="node6" class="node">
<title>Node6</title>
<g id="a_node6"><a xlink:href="classnat__num__t.html#a8f8bdd2355aab6b9b24f4c87cd68f5b7" target="_top" xlink:title=" ">
<polygon fill="white" stroke="#666666" points="376,-19 262,-19 262,0 376,0 376,-19"/>
<text text-anchor="middle" x="319" y="-7" font-family="Helvetica,sans-Serif" font-size="10.00">nat_num_t::nat_num_t</text>
</a>
</g>
</g>
<!-- Node2&#45;&gt;Node6 -->
<g id="edge5" class="edge">
<title>Node2&#45;&gt;Node6</title>
<path fill="none" stroke="#63b8ff" d="M213.33,-37.91C231.4,-33.01 253.6,-26.98 272.89,-21.74"/>
<polygon fill="#63b8ff" stroke="#63b8ff" points="273.95,-25.08 282.68,-19.09 272.12,-18.33 273.95,-25.08"/>
</g>
<!-- Node4 -->
<g id="node4" class="node">
<title>Node4</title>
<g id="a_node4"><a xlink:href="classnat__num__t.html#a2a7eae79a48f9b29a40c9103cfac72d7" target="_top" xlink:title=" ">
<polygon fill="white" stroke="#666666" points="515,-105.5 412,-105.5 412,-75.5 515,-75.5 515,-105.5"/>
<text text-anchor="start" x="420" y="-93.5" font-family="Helvetica,sans-Serif" font-size="10.00">nat_num_t::ceros_a</text>
<text text-anchor="middle" x="463.5" y="-82.5" font-family="Helvetica,sans-Serif" font-size="10.00">_la_izqda</text>
</a>
</g>
</g>
<!-- Node3&#45;&gt;Node4 -->
<g id="edge3" class="edge">
<title>Node3&#45;&gt;Node4</title>
<path fill="none" stroke="#63b8ff" d="M370.24,-90.5C380.34,-90.5 391.05,-90.5 401.47,-90.5"/>
<polygon fill="#63b8ff" stroke="#63b8ff" points="401.75,-94 411.75,-90.5 401.75,-87 401.75,-94"/>
</g>
<!-- Node4&#45;&gt;Node5 -->
<g id="edge4" class="edge">
<title>Node4&#45;&gt;Node5</title>
<path fill="none" stroke="#63b8ff" d="M515.29,-81.81C523.67,-80.37 532.36,-78.88 540.78,-77.44"/>
<polygon fill="#63b8ff" stroke="#63b8ff" points="541.59,-80.85 550.86,-75.72 540.41,-73.95 541.59,-80.85"/>
</g>
</g>
</svg>
