<?xml version="1.0" encoding="UTF-8" standalone="no"?>
<!DOCTYPE svg PUBLIC "-//W3C//DTD SVG 1.1//EN"
 "http://www.w3.org/Graphics/SVG/1.1/DTD/svg11.dtd">
<!-- Generated by graphviz version 2.44.1 (20220725.2034)
 -->
<!-- Title: nat_num_t::operator= Pages: 1 -->
<!--zoomable 127 -->
<svg id="main" version="1.1" xmlns="http://www.w3.org/2000/svg" xmlns:xlink="http://www.w3.org/1999/xlink" xml:space="preserve" onload="init(evt)">
<style type="text/css"><![CDATA[
.edge:hover path { stroke: red; }
.edge:hover polygon { stroke: red; fill: red; }
]]></style>
<script type="text/javascript"><![CDATA[
var edges = document.getElementsByTagName('g');
if (edges && edges.length) {
  for (var i=0;i<edges.length;i++) {
    if (edges[i].id.substr(0,4)=='edge') {
      edges[i].setAttribute('class','edge');
    }
  }
}
]]></script>
        <defs>
                <circle id="rim" cx="0" cy="0" r="7"/>
                <circle id="rim2" cx="0" cy="0" r="3.5"/>
                <g id="zoomPlus">
                        <use xlink:href="#rim" fill="#404040">
                                <set attributeName="fill" to="#808080" begin="zoomplus.mouseover" end="zoomplus.mouseout"/>
                        </use>
                        <path d="M-4,0h8M0,-4v8" fill="none" stroke="white" stroke-width="1.5" pointer-events="none"/>
                </g>
                <g id="zoomMin">
                        <use xlink:href="#rim" fill="#404040">
                                <set attributeName="fill" to="#808080" begin="zoomminus.mouseover" end="zoomminus.mouseout"/>
                        </use>
                        <path d="M-4,0h8" fill="none" stroke="white" stroke-width="1.5" pointer-events="none"/>
                </g>
                <g id="dirArrow">
                        <path fill="none" stroke="white" stroke-width="1.5" d="M0,-3.0v7 M-2.5,-0.5L0,-3.0L2.5,-0.5"/>
                </g>
               <g id="resetDef">
                       <use xlink:href="#rim2" fill="#404040">
                               <set attributeName="fill" to="#808080" begin="reset.mouseover" end="reset.mouseout"/>
                       </use>
               </g>
        </defs>

<script type="text/javascript">
var viewWidth = 663;
var viewHeight = 127;
var sectionId = 'dynsection-76';
</script>
<script xlink:href="svgpan.js"/>
<svg id="graph" class="graph">
<g id="viewport">
<title>nat_num_t::operator=</title>
<!-- Node1 -->
<g id="node1" class="node">
<title>Node1</title>
<g id="a_node1"><a xlink:title=" ">
<polygon fill="#999999" stroke="#666666" points="110,-51.63 0,-51.63 0,-32.63 110,-32.63 110,-51.63"/>
<text text-anchor="middle" x="55" y="-39.63" font-family="Helvetica,sans-Serif" font-size="10.00">nat_num_t::operator=</text>
</a>
</g>
</g>
<!-- Node2 -->
<g id="node2" class="node">
<title>Node2</title>
<g id="a_node2"><a xlink:href="classnat__num__t.html#a296e66bafb159169f28cab2ef1357f14" target="_top" xlink:title=" ">
<polygon fill="white" stroke="#666666" points="239.5,-88.63 150.5,-88.63 150.5,-69.63 239.5,-69.63 239.5,-88.63"/>
<text text-anchor="middle" x="195" y="-76.63" font-family="Helvetica,sans-Serif" font-size="10.00">nat_num_t::clear</text>
</a>
</g>
</g>
<!-- Node1&#45;&gt;Node2 -->
<g id="edge1" class="edge">
<title>Node1&#45;&gt;Node2</title>
<path fill="none" stroke="#63b8ff" d="M91.54,-51.66C108.87,-56.3 129.91,-61.95 148.41,-66.91"/>
<polygon fill="#63b8ff" stroke="#63b8ff" points="147.54,-70.3 158.1,-69.5 149.35,-63.53 147.54,-70.3"/>
</g>
<!-- Node3 -->
<g id="node3" class="node">
<title>Node3</title>
<g id="a_node3"><a xlink:href="classnat__num__t.html#a5a1e29dfd320bf08016a2f0227621f0d" target="_top" xlink:title=" ">
<polygon fill="white" stroke="#666666" points="244,-51.63 146,-51.63 146,-32.63 244,-32.63 244,-51.63"/>
<text text-anchor="middle" x="195" y="-39.63" font-family="Helvetica,sans-Serif" font-size="10.00">nat_num_t::reduce</text>
</a>
</g>
</g>
<!-- Node1&#45;&gt;Node3 -->
<g id="edge2" class="edge">
<title>Node1&#45;&gt;Node3</title>
<path fill="none" stroke="#63b8ff" d="M110.15,-42.13C118.52,-42.13 127.2,-42.13 135.66,-42.13"/>
<polygon fill="#63b8ff" stroke="#63b8ff" points="135.84,-45.63 145.84,-42.13 135.84,-38.63 135.84,-45.63"/>
</g>
<!-- Node6 -->
<g id="node6" class="node">
<title>Node6</title>
<g id="a_node6"><a xlink:href="classnat__num__t.html#a3f420ff49cf6b55ef38936b2035a4071" target="_top" xlink:title=" ">
<polygon fill="white" stroke="#666666" points="655,-70.63 569,-70.63 569,-51.63 655,-51.63 655,-70.63"/>
<text text-anchor="middle" x="612" y="-58.63" font-family="Helvetica,sans-Serif" font-size="10.00">nat_num_t::size</text>
</a>
</g>
</g>
<!-- Node1&#45;&gt;Node6 -->
<g id="edge8" class="edge">
<title>Node1&#45;&gt;Node6</title>
<path fill="none" stroke="#63b8ff" d="M91.08,-32.62C152.53,-17.21 283.61,10.13 394,-4.13 458.55,-12.47 531.29,-34.21 574.03,-48.3"/>
<polygon fill="#63b8ff" stroke="#63b8ff" points="573.11,-51.68 583.7,-51.53 575.33,-45.04 573.11,-51.68"/>
</g>
<!-- Node4 -->
<g id="node4" class="node">
<title>Node4</title>
<g id="a_node4"><a xlink:href="classnat__num__t.html#a14b63725918fba3ba1f731c3cda4b6ca" target="_top" xlink:title=" ">
<polygon fill="white" stroke="#666666" points="388,-119.13 286,-119.13 286,-89.13 388,-89.13 388,-119.13"/>
<text text-anchor="start" x="294" y="-107.13" font-family="Helvetica,sans-Serif" font-size="10.00">nat_num_t::digs_no</text>
<text text-anchor="middle" x="337" y="-96.13" font-family="Helvetica,sans-Serif" font-size="10.00">_significativos</text>
</a>
</g>
</g>
<!-- Node3&#45;&gt;Node4 -->
<g id="edge3" class="edge">
<title>Node3&#45;&gt;Node4</title>
<path fill="none" stroke="#63b8ff" d="M221.03,-51.71C228.46,-54.64 236.59,-57.94 244,-61.13 261.05,-68.48 279.65,-77.06 295.63,-84.62"/>
<polygon fill="#63b8ff" stroke="#63b8ff" points="294.17,-87.8 304.7,-88.93 297.17,-81.48 294.17,-87.8"/>
</g>
<!-- Node3&#45;&gt;Node6 -->
<g id="edge7" class="edge">
<title>Node3&#45;&gt;Node6</title>
<path fill="none" stroke="#63b8ff" d="M244.01,-44.33C322.48,-47.92 477.57,-55.02 558.72,-58.74"/>
<polygon fill="#63b8ff" stroke="#63b8ff" points="558.57,-62.23 568.72,-59.19 558.89,-55.24 558.57,-62.23"/>
</g>
<!-- Node7 -->
<g id="node7" class="node">
<title>Node7</title>
<g id="a_node7"><a xlink:href="classnat__num__t.html#a8f8bdd2355aab6b9b24f4c87cd68f5b7" target="_top" xlink:title=" ">
<polygon fill="white" stroke="#666666" points="394,-32.63 280,-32.63 280,-13.63 394,-13.63 394,-32.63"/>
<text text-anchor="middle" x="337" y="-20.63" font-family="Helvetica,sans-Serif" font-size="10.00">nat_num_t::nat_num_t</text>
</a>
</g>
</g>
<!-- Node3&#45;&gt;Node7 -->
<g id="edge6" class="edge">
<title>Node3&#45;&gt;Node7</title>
<path fill="none" stroke="#63b8ff" d="M244.18,-35.59C252.37,-34.48 261,-33.31 269.55,-32.15"/>
<polygon fill="#63b8ff" stroke="#63b8ff" points="270.1,-35.61 279.54,-30.79 269.16,-28.67 270.1,-35.61"/>
</g>
<!-- Node5 -->
<g id="node5" class="node">
<title>Node5</title>
<g id="a_node5"><a xlink:href="classnat__num__t.html#a2a7eae79a48f9b29a40c9103cfac72d7" target="_top" xlink:title=" ">
<polygon fill="white" stroke="#666666" points="533,-119.13 430,-119.13 430,-89.13 533,-89.13 533,-119.13"/>
<text text-anchor="start" x="438" y="-107.13" font-family="Helvetica,sans-Serif" font-size="10.00">nat_num_t::ceros_a</text>
<text text-anchor="middle" x="481.5" y="-96.13" font-family="Helvetica,sans-Serif" font-size="10.00">_la_izqda</text>
</a>
</g>
</g>
<!-- Node4&#45;&gt;Node5 -->
<g id="edge4" class="edge">
<title>Node4&#45;&gt;Node5</title>
<path fill="none" stroke="#63b8ff" d="M388.24,-104.13C398.34,-104.13 409.05,-104.13 419.47,-104.13"/>
<polygon fill="#63b8ff" stroke="#63b8ff" points="419.75,-107.63 429.75,-104.13 419.75,-100.63 419.75,-107.63"/>
</g>
<!-- Node5&#45;&gt;Node6 -->
<g id="edge5" class="edge">
<title>Node5&#45;&gt;Node6</title>
<path fill="none" stroke="#63b8ff" d="M527.44,-89.09C542.26,-84.13 558.59,-78.67 572.85,-73.89"/>
<polygon fill="#63b8ff" stroke="#63b8ff" points="573.98,-77.21 582.35,-70.72 571.76,-70.57 573.98,-77.21"/>
</g>
</g>
</svg>
        <g id="navigator" transform="translate(0 0)" fill="#404254">
                <rect fill="#f2f5e9" fill-opacity="0.5" stroke="#606060" stroke-width=".5" x="0" y="0" width="60" height="60"/>
                <use id="zoomplus" xlink:href="#zoomPlus" x="17" y="9" onmousedown="handleZoom(evt,'in')"/>
                <use id="zoomminus" xlink:href="#zoomMin" x="42" y="9" onmousedown="handleZoom(evt,'out')"/>
                <use id="reset" xlink:href="#resetDef" x="30" y="36" onmousedown="handleReset()"/>
                <g id="arrowUp" xlink:href="#dirArrow" transform="translate(30 24)" onmousedown="handlePan(0,-1)">
                  <use xlink:href="#rim" fill="#404040">
                        <set attributeName="fill" to="#808080" begin="arrowUp.mouseover" end="arrowUp.mouseout"/>
                  </use>
                  <path fill="none" stroke="white" stroke-width="1.5" d="M0,-3.0v7 M-2.5,-0.5L0,-3.0L2.5,-0.5"/>
                </g>
                <g id="arrowRight" xlink:href="#dirArrow" transform="rotate(90) translate(36 -43)" onmousedown="handlePan(1,0)">
                  <use xlink:href="#rim" fill="#404040">
                        <set attributeName="fill" to="#808080" begin="arrowRight.mouseover" end="arrowRight.mouseout"/>
                  </use>
                  <path fill="none" stroke="white" stroke-width="1.5" d="M0,-3.0v7 M-2.5,-0.5L0,-3.0L2.5,-0.5"/>
                </g>
                <g id="arrowDown" xlink:href="#dirArrow" transform="rotate(180) translate(-30 -48)" onmousedown="handlePan(0,1)">
                  <use xlink:href="#rim" fill="#404040">
                        <set attributeName="fill" to="#808080" begin="arrowDown.mouseover" end="arrowDown.mouseout"/>
                  </use>
                  <path fill="none" stroke="white" stroke-width="1.5" d="M0,-3.0v7 M-2.5,-0.5L0,-3.0L2.5,-0.5"/>
                </g>
                <g id="arrowLeft" xlink:href="#dirArrow" transform="rotate(270) translate(-36 17)" onmousedown="handlePan(-1,0)">
                  <use xlink:href="#rim" fill="#404040">
                        <set attributeName="fill" to="#808080" begin="arrowLeft.mouseover" end="arrowLeft.mouseout"/>
                  </use>
                  <path fill="none" stroke="white" stroke-width="1.5" d="M0,-3.0v7 M-2.5,-0.5L0,-3.0L2.5,-0.5"/>
                </g>
        </g>
        <svg viewBox="0 0 15 15" width="100%" height="30px" preserveAspectRatio="xMaxYMin meet">
         <g id="arrow_out" transform="scale(0.3 0.3)">
          <a xlink:href="classnat__num__t_a2f2bc5932044b67b90f5fba65c0fbb36_cgraph_org.svg" target="_base">
           <rect id="button" ry="5" rx="5" y="6" x="6" height="38" width="38"
                fill="#f2f5e9" fill-opacity="0.5" stroke="#606060" stroke-width="1.0"/>
           <path id="arrow"
             d="M 11.500037,31.436501 C 11.940474,20.09759 22.043105,11.32322 32.158766,21.979434 L 37.068811,17.246167 C 37.068811,17.246167 37.088388,32 37.088388,32 L 22.160133,31.978069 C 22.160133,31.978069 26.997745,27.140456 26.997745,27.140456 C 18.528582,18.264221 13.291696,25.230495 11.500037,31.436501 z"
             style="fill:#404040;"/>
          </a>
         </g>
        </svg>
</svg>
