<?xml version="1.0" encoding="UTF-8" standalone="no"?>
<!DOCTYPE svg PUBLIC "-//W3C//DTD SVG 1.1//EN"
 "http://www.w3.org/Graphics/SVG/1.1/DTD/svg11.dtd">
<!-- Generated by graphviz version 2.44.1 (20220725.2034)
 -->
<!-- Title: nat_num_t::operator%= Pages: 1 -->
<svg width="672pt" height="114pt"
 viewBox="0.00 0.00 672.00 113.50" xmlns="http://www.w3.org/2000/svg" xmlns:xlink="http://www.w3.org/1999/xlink">
<g id="graph0" class="graph" transform="scale(1 1) rotate(0) translate(4 109.5)">
<title>nat_num_t::operator%=</title>
<!-- Node1 -->
<g id="node1" class="node">
<title>Node1</title>
<g id="a_node1"><a xlink:title=" ">
<polygon fill="#999999" stroke="#666666" points="119,-57 0,-57 0,-38 119,-38 119,-57"/>
<text text-anchor="middle" x="59.5" y="-45" font-family="Helvetica,sans-Serif" font-size="10.00">nat_num_t::operator%=</text>
</a>
</g>
</g>
<!-- Node2 -->
<g id="node2" class="node">
<title>Node2</title>
<g id="a_node2"><a xlink:href="classnat__num__t.html#a5a1e29dfd320bf08016a2f0227621f0d" target="_top" xlink:title=" ">
<polygon fill="white" stroke="#666666" points="253,-57 155,-57 155,-38 253,-38 253,-57"/>
<text text-anchor="middle" x="204" y="-45" font-family="Helvetica,sans-Serif" font-size="10.00">nat_num_t::reduce</text>
</a>
</g>
</g>
<!-- Node1&#45;&gt;Node2 -->
<g id="edge1" class="edge">
<title>Node1&#45;&gt;Node2</title>
<path fill="none" stroke="#63b8ff" d="M119.28,-47.5C127.68,-47.5 136.31,-47.5 144.69,-47.5"/>
<polygon fill="#63b8ff" stroke="#63b8ff" points="144.77,-51 154.77,-47.5 144.77,-44 144.77,-51"/>
</g>
<!-- Node3 -->
<g id="node3" class="node">
<title>Node3</title>
<g id="a_node3"><a xlink:href="classnat__num__t.html#a14b63725918fba3ba1f731c3cda4b6ca" target="_top" xlink:title=" ">
<polygon fill="white" stroke="#666666" points="397,-105.5 295,-105.5 295,-75.5 397,-75.5 397,-105.5"/>
<text text-anchor="start" x="303" y="-93.5" font-family="Helvetica,sans-Serif" font-size="10.00">nat_num_t::digs_no</text>
<text text-anchor="middle" x="346" y="-82.5" font-family="Helvetica,sans-Serif" font-size="10.00">_significativos</text>
</a>
</g>
</g>
<!-- Node2&#45;&gt;Node3 -->
<g id="edge2" class="edge">
<title>Node2&#45;&gt;Node3</title>
<path fill="none" stroke="#63b8ff" d="M236.07,-57.04C250.82,-61.57 268.95,-67.14 286.15,-72.43"/>
<polygon fill="#63b8ff" stroke="#63b8ff" points="285.56,-75.9 296.14,-75.49 287.61,-69.21 285.56,-75.9"/>
</g>
<!-- Node5 -->
<g id="node5" class="node">
<title>Node5</title>
<g id="a_node5"><a xlink:href="classnat__num__t.html#a3f420ff49cf6b55ef38936b2035a4071" target="_top" xlink:title=" ">
<polygon fill="white" stroke="#666666" points="664,-78 578,-78 578,-59 664,-59 664,-78"/>
<text text-anchor="middle" x="621" y="-66" font-family="Helvetica,sans-Serif" font-size="10.00">nat_num_t::size</text>
</a>
</g>
</g>
<!-- Node2&#45;&gt;Node5 -->
<g id="edge6" class="edge">
<title>Node2&#45;&gt;Node5</title>
<path fill="none" stroke="#63b8ff" d="M253.01,-49.93C331.48,-53.9 486.57,-61.75 567.72,-65.85"/>
<polygon fill="#63b8ff" stroke="#63b8ff" points="567.55,-69.35 577.72,-66.36 567.91,-62.36 567.55,-69.35"/>
</g>
<!-- Node6 -->
<g id="node6" class="node">
<title>Node6</title>
<g id="a_node6"><a xlink:href="classnat__num__t.html#a8f8bdd2355aab6b9b24f4c87cd68f5b7" target="_top" xlink:title=" ">
<polygon fill="white" stroke="#666666" points="403,-19 289,-19 289,0 403,0 403,-19"/>
<text text-anchor="middle" x="346" y="-7" font-family="Helvetica,sans-Serif" font-size="10.00">nat_num_t::nat_num_t</text>
</a>
</g>
</g>
<!-- Node2&#45;&gt;Node6 -->
<g id="edge5" class="edge">
<title>Node2&#45;&gt;Node6</title>
<path fill="none" stroke="#63b8ff" d="M240.33,-37.91C258.4,-33.01 280.6,-26.98 299.89,-21.74"/>
<polygon fill="#63b8ff" stroke="#63b8ff" points="300.95,-25.08 309.68,-19.09 299.12,-18.33 300.95,-25.08"/>
</g>
<!-- Node4 -->
<g id="node4" class="node">
<title>Node4</title>
<g id="a_node4"><a xlink:href="classnat__num__t.html#a2a7eae79a48f9b29a40c9103cfac72d7" target="_top" xlink:title=" ">
<polygon fill="white" stroke="#666666" points="542,-105.5 439,-105.5 439,-75.5 542,-75.5 542,-105.5"/>
<text text-anchor="start" x="447" y="-93.5" font-family="Helvetica,sans-Serif" font-size="10.00">nat_num_t::ceros_a</text>
<text text-anchor="middle" x="490.5" y="-82.5" font-family="Helvetica,sans-Serif" font-size="10.00">_la_izqda</text>
</a>
</g>
</g>
<!-- Node3&#45;&gt;Node4 -->
<g id="edge3" class="edge">
<title>Node3&#45;&gt;Node4</title>
<path fill="none" stroke="#63b8ff" d="M397.24,-90.5C407.34,-90.5 418.05,-90.5 428.47,-90.5"/>
<polygon fill="#63b8ff" stroke="#63b8ff" points="428.75,-94 438.75,-90.5 428.75,-87 428.75,-94"/>
</g>
<!-- Node4&#45;&gt;Node5 -->
<g id="edge4" class="edge">
<title>Node4&#45;&gt;Node5</title>
<path fill="none" stroke="#63b8ff" d="M542.29,-81.81C550.67,-80.37 559.36,-78.88 567.78,-77.44"/>
<polygon fill="#63b8ff" stroke="#63b8ff" points="568.59,-80.85 577.86,-75.72 567.41,-73.95 568.59,-80.85"/>
</g>
</g>
</svg>
