<?xml version="1.0" encoding="UTF-8" standalone="no"?>
<!DOCTYPE svg PUBLIC "-//W3C//DTD SVG 1.1//EN"
 "http://www.w3.org/Graphics/SVG/1.1/DTD/svg11.dtd">
<!-- Generated by graphviz version 2.44.1 (20220725.2034)
 -->
<!-- Title: nat_num_t::m_rem2 Pages: 1 -->
<svg width="657pt" height="133pt"
 viewBox="0.00 0.00 657.00 132.50" xmlns="http://www.w3.org/2000/svg" xmlns:xlink="http://www.w3.org/1999/xlink">
<g id="graph0" class="graph" transform="scale(1 1) rotate(0) translate(4 128.5)">
<title>nat_num_t::m_rem2</title>
<!-- Node1 -->
<g id="node1" class="node">
<title>Node1</title>
<g id="a_node1"><a xlink:title=" ">
<polygon fill="#999999" stroke="#666666" points="104,-19 0,-19 0,0 104,0 104,-19"/>
<text text-anchor="middle" x="52" y="-7" font-family="Helvetica,sans-Serif" font-size="10.00">nat_num_t::m_rem2</text>
</a>
</g>
</g>
<!-- Node2 -->
<g id="node2" class="node">
<title>Node2</title>
<g id="a_node2"><a xlink:href="classnat__num__t.html#a5a1e29dfd320bf08016a2f0227621f0d" target="_top" xlink:title=" ">
<polygon fill="white" stroke="#666666" points="238,-57 140,-57 140,-38 238,-38 238,-57"/>
<text text-anchor="middle" x="189" y="-45" font-family="Helvetica,sans-Serif" font-size="10.00">nat_num_t::reduce</text>
</a>
</g>
</g>
<!-- Node1&#45;&gt;Node2 -->
<g id="edge1" class="edge">
<title>Node1&#45;&gt;Node2</title>
<path fill="none" stroke="#63b8ff" d="M87.07,-19.09C104.41,-23.97 125.7,-29.96 144.25,-35.18"/>
<polygon fill="#63b8ff" stroke="#63b8ff" points="143.37,-38.57 153.94,-37.91 145.27,-31.84 143.37,-38.57"/>
</g>
<!-- Node5 -->
<g id="node5" class="node">
<title>Node5</title>
<g id="a_node5"><a xlink:href="classnat__num__t.html#a3f420ff49cf6b55ef38936b2035a4071" target="_top" xlink:title=" ">
<polygon fill="white" stroke="#666666" points="649,-76 563,-76 563,-57 649,-57 649,-76"/>
<text text-anchor="middle" x="606" y="-64" font-family="Helvetica,sans-Serif" font-size="10.00">nat_num_t::size</text>
</a>
</g>
</g>
<!-- Node1&#45;&gt;Node5 -->
<g id="edge7" class="edge">
<title>Node1&#45;&gt;Node5</title>
<path fill="none" stroke="#63b8ff" d="M104.05,-5.45C169.97,-1.16 288.07,3.41 388,-9.5 452.55,-17.84 525.29,-39.58 568.03,-53.67"/>
<polygon fill="#63b8ff" stroke="#63b8ff" points="567.11,-57.05 577.7,-56.9 569.33,-50.41 567.11,-57.05"/>
</g>
<!-- Node3 -->
<g id="node3" class="node">
<title>Node3</title>
<g id="a_node3"><a xlink:href="classnat__num__t.html#a14b63725918fba3ba1f731c3cda4b6ca" target="_top" xlink:title=" ">
<polygon fill="white" stroke="#666666" points="382,-124.5 280,-124.5 280,-94.5 382,-94.5 382,-124.5"/>
<text text-anchor="start" x="288" y="-112.5" font-family="Helvetica,sans-Serif" font-size="10.00">nat_num_t::digs_no</text>
<text text-anchor="middle" x="331" y="-101.5" font-family="Helvetica,sans-Serif" font-size="10.00">_significativos</text>
</a>
</g>
</g>
<!-- Node2&#45;&gt;Node3 -->
<g id="edge2" class="edge">
<title>Node2&#45;&gt;Node3</title>
<path fill="none" stroke="#63b8ff" d="M211.57,-57.05C231.5,-65.88 261.69,-79.25 286.61,-90.28"/>
<polygon fill="#63b8ff" stroke="#63b8ff" points="285.31,-93.54 295.87,-94.38 288.14,-87.13 285.31,-93.54"/>
</g>
<!-- Node2&#45;&gt;Node5 -->
<g id="edge6" class="edge">
<title>Node2&#45;&gt;Node5</title>
<path fill="none" stroke="#63b8ff" d="M238.01,-49.7C316.48,-53.29 471.57,-60.39 552.72,-64.11"/>
<polygon fill="#63b8ff" stroke="#63b8ff" points="552.57,-67.6 562.72,-64.56 552.89,-60.61 552.57,-67.6"/>
</g>
<!-- Node6 -->
<g id="node6" class="node">
<title>Node6</title>
<g id="a_node6"><a xlink:href="classnat__num__t.html#a8f8bdd2355aab6b9b24f4c87cd68f5b7" target="_top" xlink:title=" ">
<polygon fill="white" stroke="#666666" points="388,-38 274,-38 274,-19 388,-19 388,-38"/>
<text text-anchor="middle" x="331" y="-26" font-family="Helvetica,sans-Serif" font-size="10.00">nat_num_t::nat_num_t</text>
</a>
</g>
</g>
<!-- Node2&#45;&gt;Node6 -->
<g id="edge5" class="edge">
<title>Node2&#45;&gt;Node6</title>
<path fill="none" stroke="#63b8ff" d="M238.18,-40.96C246.37,-39.85 255,-38.68 263.55,-37.52"/>
<polygon fill="#63b8ff" stroke="#63b8ff" points="264.1,-40.98 273.54,-36.16 263.16,-34.04 264.1,-40.98"/>
</g>
<!-- Node4 -->
<g id="node4" class="node">
<title>Node4</title>
<g id="a_node4"><a xlink:href="classnat__num__t.html#a2a7eae79a48f9b29a40c9103cfac72d7" target="_top" xlink:title=" ">
<polygon fill="white" stroke="#666666" points="527,-124.5 424,-124.5 424,-94.5 527,-94.5 527,-124.5"/>
<text text-anchor="start" x="432" y="-112.5" font-family="Helvetica,sans-Serif" font-size="10.00">nat_num_t::ceros_a</text>
<text text-anchor="middle" x="475.5" y="-101.5" font-family="Helvetica,sans-Serif" font-size="10.00">_la_izqda</text>
</a>
</g>
</g>
<!-- Node3&#45;&gt;Node4 -->
<g id="edge3" class="edge">
<title>Node3&#45;&gt;Node4</title>
<path fill="none" stroke="#63b8ff" d="M382.24,-109.5C392.34,-109.5 403.05,-109.5 413.47,-109.5"/>
<polygon fill="#63b8ff" stroke="#63b8ff" points="413.75,-113 423.75,-109.5 413.75,-106 413.75,-113"/>
</g>
<!-- Node4&#45;&gt;Node5 -->
<g id="edge4" class="edge">
<title>Node4&#45;&gt;Node5</title>
<path fill="none" stroke="#63b8ff" d="M521.44,-94.46C536.26,-89.5 552.59,-84.04 566.85,-79.27"/>
<polygon fill="#63b8ff" stroke="#63b8ff" points="567.98,-82.58 576.35,-76.09 565.76,-75.94 567.98,-82.58"/>
</g>
</g>
</svg>
