<?xml version="1.0" encoding="UTF-8" standalone="no"?>
<!DOCTYPE svg PUBLIC "-//W3C//DTD SVG 1.1//EN"
 "http://www.w3.org/Graphics/SVG/1.1/DTD/svg11.dtd">
<!-- Generated by graphviz version 2.44.1 (20220725.2034)
 -->
<!-- Title: nat_num_t::operator! Pages: 1 -->
<svg width="660pt" height="139pt"
 viewBox="0.00 0.00 660.00 139.00" xmlns="http://www.w3.org/2000/svg" xmlns:xlink="http://www.w3.org/1999/xlink">
<g id="graph0" class="graph" transform="scale(1 1) rotate(0) translate(4 135)">
<title>nat_num_t::operator!</title>
<!-- Node1 -->
<g id="node1" class="node">
<title>Node1</title>
<g id="a_node1"><a xlink:title=" ">
<polygon fill="#999999" stroke="#666666" points="107,-94 0,-94 0,-75 107,-75 107,-94"/>
<text text-anchor="middle" x="53.5" y="-82" font-family="Helvetica,sans-Serif" font-size="10.00">nat_num_t::operator!</text>
</a>
</g>
</g>
<!-- Node2 -->
<g id="node2" class="node">
<title>Node2</title>
<g id="a_node2"><a xlink:href="classnat__num__t.html#ad6d4ad46b1d326930b2e635c8c0df004" target="_top" xlink:title=" ">
<polygon fill="white" stroke="#666666" points="238,-131 146,-131 146,-112 238,-112 238,-131"/>
<text text-anchor="middle" x="192" y="-119" font-family="Helvetica,sans-Serif" font-size="10.00">nat_num_t::begin</text>
</a>
</g>
</g>
<!-- Node1&#45;&gt;Node2 -->
<g id="edge1" class="edge">
<title>Node1&#45;&gt;Node2</title>
<path fill="none" stroke="#63b8ff" d="M89.65,-94.03C106.71,-98.65 127.42,-104.27 145.65,-109.21"/>
<polygon fill="#63b8ff" stroke="#63b8ff" points="144.93,-112.64 155.49,-111.88 146.76,-105.88 144.93,-112.64"/>
</g>
<!-- Node3 -->
<g id="node3" class="node">
<title>Node3</title>
<g id="a_node3"><a xlink:href="classnat__num__t.html#ac8a00bffa131db2a558d6131214bc481" target="_top" xlink:title=" ">
<polygon fill="white" stroke="#666666" points="234,-94 150,-94 150,-75 234,-75 234,-94"/>
<text text-anchor="middle" x="192" y="-82" font-family="Helvetica,sans-Serif" font-size="10.00">nat_num_t::end</text>
</a>
</g>
</g>
<!-- Node1&#45;&gt;Node3 -->
<g id="edge2" class="edge">
<title>Node1&#45;&gt;Node3</title>
<path fill="none" stroke="#63b8ff" d="M107.27,-84.5C117.85,-84.5 128.95,-84.5 139.49,-84.5"/>
<polygon fill="#63b8ff" stroke="#63b8ff" points="139.79,-88 149.79,-84.5 139.79,-81 139.79,-88"/>
</g>
<!-- Node4 -->
<g id="node4" class="node">
<title>Node4</title>
<g id="a_node4"><a xlink:href="classnat__num__t.html#a5a1e29dfd320bf08016a2f0227621f0d" target="_top" xlink:title=" ">
<polygon fill="white" stroke="#666666" points="241,-57 143,-57 143,-38 241,-38 241,-57"/>
<text text-anchor="middle" x="192" y="-45" font-family="Helvetica,sans-Serif" font-size="10.00">nat_num_t::reduce</text>
</a>
</g>
</g>
<!-- Node1&#45;&gt;Node4 -->
<g id="edge3" class="edge">
<title>Node1&#45;&gt;Node4</title>
<path fill="none" stroke="#63b8ff" d="M89.65,-74.97C106.71,-70.35 127.42,-64.73 145.65,-59.79"/>
<polygon fill="#63b8ff" stroke="#63b8ff" points="146.76,-63.12 155.49,-57.12 144.93,-56.36 146.76,-63.12"/>
</g>
<!-- Node5 -->
<g id="node5" class="node">
<title>Node5</title>
<g id="a_node5"><a xlink:href="classnat__num__t.html#a14b63725918fba3ba1f731c3cda4b6ca" target="_top" xlink:title=" ">
<polygon fill="white" stroke="#666666" points="385,-105.5 283,-105.5 283,-75.5 385,-75.5 385,-105.5"/>
<text text-anchor="start" x="291" y="-93.5" font-family="Helvetica,sans-Serif" font-size="10.00">nat_num_t::digs_no</text>
<text text-anchor="middle" x="334" y="-82.5" font-family="Helvetica,sans-Serif" font-size="10.00">_significativos</text>
</a>
</g>
</g>
<!-- Node4&#45;&gt;Node5 -->
<g id="edge4" class="edge">
<title>Node4&#45;&gt;Node5</title>
<path fill="none" stroke="#63b8ff" d="M224.07,-57.04C238.82,-61.57 256.95,-67.14 274.15,-72.43"/>
<polygon fill="#63b8ff" stroke="#63b8ff" points="273.56,-75.9 284.14,-75.49 275.61,-69.21 273.56,-75.9"/>
</g>
<!-- Node7 -->
<g id="node7" class="node">
<title>Node7</title>
<g id="a_node7"><a xlink:href="classnat__num__t.html#a3f420ff49cf6b55ef38936b2035a4071" target="_top" xlink:title=" ">
<polygon fill="white" stroke="#666666" points="652,-78 566,-78 566,-59 652,-59 652,-78"/>
<text text-anchor="middle" x="609" y="-66" font-family="Helvetica,sans-Serif" font-size="10.00">nat_num_t::size</text>
</a>
</g>
</g>
<!-- Node4&#45;&gt;Node7 -->
<g id="edge8" class="edge">
<title>Node4&#45;&gt;Node7</title>
<path fill="none" stroke="#63b8ff" d="M241.01,-49.93C319.48,-53.9 474.57,-61.75 555.72,-65.85"/>
<polygon fill="#63b8ff" stroke="#63b8ff" points="555.55,-69.35 565.72,-66.36 555.91,-62.36 555.55,-69.35"/>
</g>
<!-- Node8 -->
<g id="node8" class="node">
<title>Node8</title>
<g id="a_node8"><a xlink:href="classnat__num__t.html#a8f8bdd2355aab6b9b24f4c87cd68f5b7" target="_top" xlink:title=" ">
<polygon fill="white" stroke="#666666" points="391,-19 277,-19 277,0 391,0 391,-19"/>
<text text-anchor="middle" x="334" y="-7" font-family="Helvetica,sans-Serif" font-size="10.00">nat_num_t::nat_num_t</text>
</a>
</g>
</g>
<!-- Node4&#45;&gt;Node8 -->
<g id="edge7" class="edge">
<title>Node4&#45;&gt;Node8</title>
<path fill="none" stroke="#63b8ff" d="M228.33,-37.91C246.4,-33.01 268.6,-26.98 287.89,-21.74"/>
<polygon fill="#63b8ff" stroke="#63b8ff" points="288.95,-25.08 297.68,-19.09 287.12,-18.33 288.95,-25.08"/>
</g>
<!-- Node6 -->
<g id="node6" class="node">
<title>Node6</title>
<g id="a_node6"><a xlink:href="classnat__num__t.html#a2a7eae79a48f9b29a40c9103cfac72d7" target="_top" xlink:title=" ">
<polygon fill="white" stroke="#666666" points="530,-105.5 427,-105.5 427,-75.5 530,-75.5 530,-105.5"/>
<text text-anchor="start" x="435" y="-93.5" font-family="Helvetica,sans-Serif" font-size="10.00">nat_num_t::ceros_a</text>
<text text-anchor="middle" x="478.5" y="-82.5" font-family="Helvetica,sans-Serif" font-size="10.00">_la_izqda</text>
</a>
</g>
</g>
<!-- Node5&#45;&gt;Node6 -->
<g id="edge5" class="edge">
<title>Node5&#45;&gt;Node6</title>
<path fill="none" stroke="#63b8ff" d="M385.24,-90.5C395.34,-90.5 406.05,-90.5 416.47,-90.5"/>
<polygon fill="#63b8ff" stroke="#63b8ff" points="416.75,-94 426.75,-90.5 416.75,-87 416.75,-94"/>
</g>
<!-- Node6&#45;&gt;Node7 -->
<g id="edge6" class="edge">
<title>Node6&#45;&gt;Node7</title>
<path fill="none" stroke="#63b8ff" d="M530.29,-81.81C538.67,-80.37 547.36,-78.88 555.78,-77.44"/>
<polygon fill="#63b8ff" stroke="#63b8ff" points="556.59,-80.85 565.86,-75.72 555.41,-73.95 556.59,-80.85"/>
</g>
</g>
</svg>
