<?xml version="1.0" encoding="UTF-8" standalone="no"?>
<!DOCTYPE svg PUBLIC "-//W3C//DTD SVG 1.1//EN"
 "http://www.w3.org/Graphics/SVG/1.1/DTD/svg11.dtd">
<!-- Generated by graphviz version 2.44.1 (20220725.2034)
 -->
<!-- Title: Representaci칩n gr치fica de la clase Pages: 1 -->
<svg width="242pt" height="64pt"
 viewBox="0.00 0.00 242.00 64.00" xmlns="http://www.w3.org/2000/svg" xmlns:xlink="http://www.w3.org/1999/xlink">
<g id="graph0" class="graph" transform="scale(1 1) rotate(0) translate(4 60)">
<title>Representaci칩n gr치fica de la clase</title>
<!-- Node0 -->
<g id="node1" class="node">
<title>Node0</title>
<g id="a_node1"><a xlink:title=" ">
<polygon fill="#e0e0e0" stroke="#999999" points="70,-37 0,-37 0,-18 70,-18 70,-37"/>
<text text-anchor="middle" x="35" y="-25" font-family="Helvetica,sans-Serif" font-size="10.00">base_num_t</text>
</a>
</g>
</g>
<!-- Node1 -->
<g id="node2" class="node">
<title>Node1</title>
<g id="a_node2"><a xlink:href="structint__num__t.html" target="_top" xlink:title=" ">
<polygon fill="white" stroke="#666666" points="232.5,-56 107.5,-56 107.5,-37 232.5,-37 232.5,-56"/>
<text text-anchor="middle" x="170" y="-44" font-family="Helvetica,sans-Serif" font-size="10.00">int_num_t&lt; UINT_T, B &gt;</text>
</a>
</g>
</g>
<!-- Node0&#45;&gt;Node1 -->
<g id="edge1" class="edge">
<title>Node0&#45;&gt;Node1</title>
<path fill="none" stroke="darkgreen" d="M80.43,-33.85C89.04,-35.08 98.2,-36.39 107.25,-37.68"/>
<polygon fill="darkgreen" stroke="darkgreen" points="80.65,-30.34 70.25,-32.39 79.66,-37.27 80.65,-30.34"/>
</g>
<!-- Node2 -->
<g id="node3" class="node">
<title>Node2</title>
<g id="a_node3"><a xlink:href="classnat__num__t.html" target="_top" xlink:title=" ">
<polygon fill="white" stroke="#666666" points="234,-19 106,-19 106,0 234,0 234,-19"/>
<text text-anchor="middle" x="170" y="-7" font-family="Helvetica,sans-Serif" font-size="10.00">nat_num_t&lt; UINT_T, B &gt;</text>
</a>
</g>
</g>
<!-- Node0&#45;&gt;Node2 -->
<g id="edge2" class="edge">
<title>Node0&#45;&gt;Node2</title>
<path fill="none" stroke="#63b8ff" d="M80.35,-21.5C88.57,-20.39 97.3,-19.2 105.95,-18.03"/>
<polygon fill="#63b8ff" stroke="#63b8ff" points="79.69,-18.05 70.25,-22.86 80.63,-24.99 79.69,-18.05"/>
</g>
</g>
</svg>
