<?xml version="1.0" encoding="UTF-8" standalone="no"?>
<!DOCTYPE svg PUBLIC "-//W3C//DTD SVG 1.1//EN"
 "http://www.w3.org/Graphics/SVG/1.1/DTD/svg11.dtd">
<!-- Generated by graphviz version 2.44.1 (20220725.2034)
 -->
<!-- Title: NumRepr::detail::ceilsqrt Pages: 1 -->
<svg width="408pt" height="51pt"
 viewBox="0.00 0.00 408.00 50.50" xmlns="http://www.w3.org/2000/svg" xmlns:xlink="http://www.w3.org/1999/xlink">
<g id="graph0" class="graph" transform="scale(1 1) rotate(0) translate(4 46.5)">
<title>NumRepr::detail::ceilsqrt</title>
<!-- Node1 -->
<g id="node1" class="node">
<title>Node1</title>
<g id="a_node1"><a xlink:title=" ">
<polygon fill="#999999" stroke="#666666" points="400,-24.5 275,-24.5 275,-5.5 400,-5.5 400,-24.5"/>
<text text-anchor="middle" x="337.5" y="-12.5" font-family="Helvetica,sans-Serif" font-size="10.00">NumRepr::detail::ceilsqrt</text>
</a>
</g>
</g>
<!-- Node1&#45;&gt;Node1 -->
<g id="edge1" class="edge">
<title>Node1&#45;&gt;Node1</title>
<path fill="none" stroke="#63b8ff" d="M365.5,-33.32C364.33,-38.51 355,-42.5 337.5,-42.5 310.84,-42.5 303.13,-33.23 314.38,-24.58"/>
<polygon fill="#63b8ff" stroke="#63b8ff" points="368.55,-31.61 360.62,-24.58 362.44,-35.02 368.55,-31.61"/>
</g>
<!-- Node2 -->
<g id="node2" class="node">
<title>Node2</title>
<g id="a_node2"><a xlink:href="namespace_num_repr_1_1auxiliary__functions.html#a6a368b190a18264af00c59b164dc1096" target="_top" xlink:title=" ">
<polygon fill="white" stroke="#666666" points="239,-30 135,-30 135,0 239,0 239,-30"/>
<text text-anchor="start" x="143" y="-18" font-family="Helvetica,sans-Serif" font-size="10.00">NumRepr::auxiliary</text>
<text text-anchor="middle" x="187" y="-7" font-family="Helvetica,sans-Serif" font-size="10.00">_functions::is_prime</text>
</a>
</g>
</g>
<!-- Node1&#45;&gt;Node2 -->
<g id="edge2" class="edge">
<title>Node1&#45;&gt;Node2</title>
<path fill="none" stroke="#63b8ff" d="M264.79,-15C256.2,-15 247.58,-15 239.36,-15"/>
<polygon fill="#63b8ff" stroke="#63b8ff" points="264.81,-18.5 274.81,-15 264.81,-11.5 264.81,-18.5"/>
</g>
<!-- Node3 -->
<g id="node3" class="node">
<title>Node3</title>
<g id="a_node3"><a xlink:href="struct_num_repr_1_1dig__t.html#a2e4a2d001d8b4a6e97639da50e33d3cb" target="_top" xlink:title=" ">
<polygon fill="white" stroke="#666666" points="99,-30 0,-30 0,0 99,0 99,-30"/>
<text text-anchor="start" x="8" y="-18" font-family="Helvetica,sans-Serif" font-size="10.00">NumRepr::dig_t::is</text>
<text text-anchor="middle" x="49.5" y="-7" font-family="Helvetica,sans-Serif" font-size="10.00">_prime</text>
</a>
</g>
</g>
<!-- Node2&#45;&gt;Node3 -->
<g id="edge3" class="edge">
<title>Node2&#45;&gt;Node3</title>
<path fill="none" stroke="#63b8ff" d="M124.5,-15C115.99,-15 107.34,-15 99.11,-15"/>
<polygon fill="#63b8ff" stroke="#63b8ff" points="124.77,-18.5 134.77,-15 124.77,-11.5 124.77,-18.5"/>
</g>
</g>
</svg>
