<?xml version="1.0" encoding="UTF-8" standalone="no"?>
<!DOCTYPE svg PUBLIC "-//W3C//DTD SVG 1.1//EN"
 "http://www.w3.org/Graphics/SVG/1.1/DTD/svg11.dtd">
<!-- Generated by graphviz version 2.44.1 (20220725.2034)
 -->
<!-- Title: NumRepr::type_traits::maxbase Pages: 1 -->
<svg width="430pt" height="182pt"
 viewBox="0.00 0.00 430.00 182.00" xmlns="http://www.w3.org/2000/svg" xmlns:xlink="http://www.w3.org/1999/xlink">
<g id="graph0" class="graph" transform="scale(1 1) rotate(0) translate(4 178)">
<title>NumRepr::type_traits::maxbase</title>
<!-- Node1 -->
<g id="node1" class="node">
<title>Node1</title>
<g id="a_node1"><a xlink:title=" ">
<polygon fill="#999999" stroke="#666666" points="422,-102 312,-102 312,-72 422,-72 422,-102"/>
<text text-anchor="start" x="320" y="-90" font-family="Helvetica,sans-Serif" font-size="10.00">NumRepr::type_traits</text>
<text text-anchor="middle" x="367" y="-79" font-family="Helvetica,sans-Serif" font-size="10.00">::maxbase</text>
</a>
</g>
</g>
<!-- Node2 -->
<g id="node2" class="node">
<title>Node2</title>
<g id="a_node2"><a xlink:href="struct_num_repr_1_1nat__reg__digs__t.html#a02c8ea238d4e8921ae5e92d330f5bfba" target="_top" xlink:title="OPERACION COPIA DESDE UN ENTERO (CONVERSION A LA BASE B) A UN BASE_T.">
<polygon fill="white" stroke="#666666" points="276,-174 156,-174 156,-144 276,-144 276,-174"/>
<text text-anchor="start" x="164" y="-162" font-family="Helvetica,sans-Serif" font-size="10.00">NumRepr::nat_reg_digs</text>
<text text-anchor="middle" x="216" y="-151" font-family="Helvetica,sans-Serif" font-size="10.00">_t::assign</text>
</a>
</g>
</g>
<!-- Node1&#45;&gt;Node2 -->
<g id="edge1" class="edge">
<title>Node1&#45;&gt;Node2</title>
<path fill="none" stroke="#63b8ff" d="M330.39,-107.09C314.02,-116.04 294.23,-126.46 276,-135 269.49,-138.05 262.48,-141.1 255.65,-143.95"/>
<polygon fill="#63b8ff" stroke="#63b8ff" points="332.52,-109.91 339.59,-102.02 329.14,-103.78 332.52,-109.91"/>
</g>
<!-- Node4 -->
<g id="node4" class="node">
<title>Node4</title>
<g id="a_node4"><a xlink:href="struct_num_repr_1_1nat__reg__digs__t.html#a314ac41efce60c862c67a3939c8e6c5e" target="_top" xlink:title=" ">
<polygon fill="white" stroke="#666666" points="276,-126 156,-126 156,-96 276,-96 276,-126"/>
<text text-anchor="start" x="164" y="-114" font-family="Helvetica,sans-Serif" font-size="10.00">NumRepr::nat_reg_digs</text>
<text text-anchor="middle" x="216" y="-103" font-family="Helvetica,sans-Serif" font-size="10.00">_t::operator Int_Type</text>
</a>
</g>
</g>
<!-- Node1&#45;&gt;Node4 -->
<g id="edge3" class="edge">
<title>Node1&#45;&gt;Node4</title>
<path fill="none" stroke="#63b8ff" d="M301.89,-97.33C293.36,-98.7 284.65,-100.1 276.21,-101.46"/>
<polygon fill="#63b8ff" stroke="#63b8ff" points="302.47,-100.78 311.79,-95.73 301.36,-93.87 302.47,-100.78"/>
</g>
<!-- Node5 -->
<g id="node5" class="node">
<title>Node5</title>
<g id="a_node5"><a xlink:href="struct_num_repr_1_1reg__digs__t.html#a3ff2a749d367851189bc05a1687a0b22" target="_top" xlink:title="SE PODRÃA HACER PARA UINT128_T.">
<polygon fill="white" stroke="#666666" points="271,-78 161,-78 161,-48 271,-48 271,-78"/>
<text text-anchor="start" x="169" y="-66" font-family="Helvetica,sans-Serif" font-size="10.00">NumRepr::reg_digs_t</text>
<text text-anchor="middle" x="216" y="-55" font-family="Helvetica,sans-Serif" font-size="10.00">::operator Int_Type</text>
</a>
</g>
</g>
<!-- Node1&#45;&gt;Node5 -->
<g id="edge4" class="edge">
<title>Node1&#45;&gt;Node5</title>
<path fill="none" stroke="#63b8ff" d="M301.72,-76.65C291.54,-75.01 281.09,-73.32 271.17,-71.73"/>
<polygon fill="#63b8ff" stroke="#63b8ff" points="301.36,-80.13 311.79,-78.27 302.47,-73.22 301.36,-80.13"/>
</g>
<!-- Node6 -->
<g id="node6" class="node">
<title>Node6</title>
<g id="a_node6"><a xlink:href="struct_num_repr_1_1reg__digs__t.html#ada84ccdb7769b08b7b91b1dae6452c09" target="_top" xlink:title=" ">
<polygon fill="white" stroke="#666666" points="271,-30 161,-30 161,0 271,0 271,-30"/>
<text text-anchor="start" x="169" y="-18" font-family="Helvetica,sans-Serif" font-size="10.00">NumRepr::reg_digs_t</text>
<text text-anchor="middle" x="216" y="-7" font-family="Helvetica,sans-Serif" font-size="10.00">::operator=</text>
</a>
</g>
</g>
<!-- Node1&#45;&gt;Node6 -->
<g id="edge5" class="edge">
<title>Node1&#45;&gt;Node6</title>
<path fill="none" stroke="#63b8ff" d="M330.39,-66.91C314.02,-57.96 294.23,-47.54 276,-39 269.49,-35.95 262.48,-32.9 255.65,-30.05"/>
<polygon fill="#63b8ff" stroke="#63b8ff" points="329.14,-70.22 339.59,-71.98 332.52,-64.09 329.14,-70.22"/>
</g>
<!-- Node3 -->
<g id="node3" class="node">
<title>Node3</title>
<g id="a_node3"><a xlink:href="struct_num_repr_1_1nat__reg__digs__t.html#ab1a63d715621ca9fea2c4d765155a23b" target="_top" xlink:title="OPERACION COPIA DESDE UN ENTERO (CONVERSION A LA BASE B)">
<polygon fill="white" stroke="#666666" points="120,-174 0,-174 0,-144 120,-144 120,-174"/>
<text text-anchor="start" x="8" y="-162" font-family="Helvetica,sans-Serif" font-size="10.00">NumRepr::nat_reg_digs</text>
<text text-anchor="middle" x="60" y="-151" font-family="Helvetica,sans-Serif" font-size="10.00">_t::operator=</text>
</a>
</g>
</g>
<!-- Node2&#45;&gt;Node3 -->
<g id="edge2" class="edge">
<title>Node2&#45;&gt;Node3</title>
<path fill="none" stroke="#63b8ff" d="M145.63,-159C137.14,-159 128.52,-159 120.2,-159"/>
<polygon fill="#63b8ff" stroke="#63b8ff" points="145.9,-162.5 155.9,-159 145.9,-155.5 145.9,-162.5"/>
</g>
</g>
</svg>
