<?xml version="1.0" encoding="UTF-8" standalone="no"?>
<!DOCTYPE svg PUBLIC "-//W3C//DTD SVG 1.1//EN"
 "http://www.w3.org/Graphics/SVG/1.1/DTD/svg11.dtd">
<!-- Generated by graphviz version 2.44.1 (20220725.2034)
 -->
<!-- Title: NumRepr::ui_1 Pages: 1 -->
<svg width="266pt" height="273pt"
 viewBox="0.00 0.00 266.00 272.50" xmlns="http://www.w3.org/2000/svg" xmlns:xlink="http://www.w3.org/1999/xlink">
<g id="graph0" class="graph" transform="scale(1 1) rotate(0) translate(4 268.5)">
<title>NumRepr::ui_1</title>
<!-- Node1 -->
<g id="node1" class="node">
<title>Node1</title>
<g id="a_node1"><a xlink:title=" ">
<polygon fill="#999999" stroke="#666666" points="258,-136 175,-136 175,-117 258,-117 258,-136"/>
<text text-anchor="middle" x="216.5" y="-124" font-family="Helvetica,sans-Serif" font-size="10.00">NumRepr::ui_1</text>
</a>
</g>
</g>
<!-- Node2 -->
<g id="node2" class="node">
<title>Node2</title>
<g id="a_node2"><a xlink:href="struct_num_repr_1_1dig__t.html#a48f6d7f54f227eaf337438fccd8b9ff4" target="_top" xlink:title=" ">
<polygon fill="white" stroke="#666666" points="119,-264.5 20,-264.5 20,-234.5 119,-234.5 119,-264.5"/>
<text text-anchor="start" x="28" y="-252.5" font-family="Helvetica,sans-Serif" font-size="10.00">NumRepr::dig_t::is</text>
<text text-anchor="middle" x="69.5" y="-241.5" font-family="Helvetica,sans-Serif" font-size="10.00">_0_divisor</text>
</a>
</g>
</g>
<!-- Node1&#45;&gt;Node2 -->
<g id="edge1" class="edge">
<title>Node1&#45;&gt;Node2</title>
<path fill="none" stroke="#63b8ff" d="M205.7,-144.91C193.06,-167.01 169.08,-203.8 139,-225.5 132.97,-229.85 126.08,-233.47 119.05,-236.46"/>
<polygon fill="#63b8ff" stroke="#63b8ff" points="208.77,-146.6 210.55,-136.16 202.64,-143.21 208.77,-146.6"/>
</g>
<!-- Node3 -->
<g id="node3" class="node">
<title>Node3</title>
<g id="a_node3"><a xlink:href="struct_num_repr_1_1dig__t.html#a3097efc035d69810593924081fe87698" target="_top" xlink:title=" ">
<polygon fill="white" stroke="#666666" points="131,-216 8,-216 8,-197 131,-197 131,-216"/>
<text text-anchor="middle" x="69.5" y="-204" font-family="Helvetica,sans-Serif" font-size="10.00">NumRepr::dig_t::is_0or1</text>
</a>
</g>
</g>
<!-- Node1&#45;&gt;Node3 -->
<g id="edge2" class="edge">
<title>Node1&#45;&gt;Node3</title>
<path fill="none" stroke="#63b8ff" d="M198.83,-143.57C184.26,-157.57 161.9,-176.89 139,-188.5 132.31,-191.89 124.92,-194.69 117.54,-196.98"/>
<polygon fill="#63b8ff" stroke="#63b8ff" points="201.42,-145.94 206.08,-136.43 196.5,-140.96 201.42,-145.94"/>
</g>
<!-- Node4 -->
<g id="node4" class="node">
<title>Node4</title>
<g id="a_node4"><a xlink:href="struct_num_repr_1_1dig__t.html#ac906122dd220e44ed6762896888b8e4c" target="_top" xlink:title=" ">
<polygon fill="white" stroke="#666666" points="124.5,-179 14.5,-179 14.5,-160 124.5,-160 124.5,-179"/>
<text text-anchor="middle" x="69.5" y="-167" font-family="Helvetica,sans-Serif" font-size="10.00">NumRepr::dig_t::is_1</text>
</a>
</g>
</g>
<!-- Node1&#45;&gt;Node4 -->
<g id="edge3" class="edge">
<title>Node1&#45;&gt;Node4</title>
<path fill="none" stroke="#63b8ff" d="M176.12,-139.13C164.22,-142.87 151.1,-146.93 139,-150.5 128.23,-153.68 116.46,-157 105.76,-159.96"/>
<polygon fill="#63b8ff" stroke="#63b8ff" points="177.3,-142.43 185.78,-136.08 175.19,-135.75 177.3,-142.43"/>
</g>
<!-- Node5 -->
<g id="node5" class="node">
<title>Node5</title>
<g id="a_node5"><a xlink:href="struct_num_repr_1_1dig__t.html#a3f3fbeaf6b33d1715bbd18a32c9d786b" target="_top" xlink:title=" ">
<polygon fill="white" stroke="#666666" points="119,-141.5 20,-141.5 20,-111.5 119,-111.5 119,-141.5"/>
<text text-anchor="start" x="28" y="-129.5" font-family="Helvetica,sans-Serif" font-size="10.00">NumRepr::dig_t::is</text>
<text text-anchor="middle" x="69.5" y="-118.5" font-family="Helvetica,sans-Serif" font-size="10.00">_not_1</text>
</a>
</g>
</g>
<!-- Node1&#45;&gt;Node5 -->
<g id="edge4" class="edge">
<title>Node1&#45;&gt;Node5</title>
<path fill="none" stroke="#63b8ff" d="M164.31,-126.5C149.65,-126.5 133.7,-126.5 119.19,-126.5"/>
<polygon fill="#63b8ff" stroke="#63b8ff" points="164.72,-130 174.72,-126.5 164.72,-123 164.72,-130"/>
</g>
<!-- Node6 -->
<g id="node6" class="node">
<title>Node6</title>
<g id="a_node6"><a xlink:href="struct_num_repr_1_1dig__t.html#aecc930e8cb3dbc3ede5beeff11ef77ee" target="_top" xlink:title=" ">
<polygon fill="white" stroke="#666666" points="129.5,-93 9.5,-93 9.5,-74 129.5,-74 129.5,-93"/>
<text text-anchor="middle" x="69.5" y="-81" font-family="Helvetica,sans-Serif" font-size="10.00">NumRepr::dig_t::is_unit</text>
</a>
</g>
</g>
<!-- Node1&#45;&gt;Node6 -->
<g id="edge5" class="edge">
<title>Node1&#45;&gt;Node6</title>
<path fill="none" stroke="#63b8ff" d="M176.12,-113.87C164.22,-110.13 151.1,-106.07 139,-102.5 128.23,-99.32 116.46,-96 105.76,-93.04"/>
<polygon fill="#63b8ff" stroke="#63b8ff" points="175.19,-117.25 185.78,-116.92 177.3,-110.57 175.19,-117.25"/>
</g>
<!-- Node7 -->
<g id="node7" class="node">
<title>Node7</title>
<g id="a_node7"><a xlink:href="struct_num_repr_1_1dig__t.html#aaa1f4b500974e6fd56e680e03f29b2c2" target="_top" xlink:title=" ">
<polygon fill="white" stroke="#666666" points="139,-56 0,-56 0,-37 139,-37 139,-56"/>
<text text-anchor="middle" x="69.5" y="-44" font-family="Helvetica,sans-Serif" font-size="10.00">NumRepr::dig_t::operator++</text>
</a>
</g>
</g>
<!-- Node1&#45;&gt;Node7 -->
<g id="edge6" class="edge">
<title>Node1&#45;&gt;Node7</title>
<path fill="none" stroke="#63b8ff" d="M198.74,-109.79C184.11,-96.08 161.72,-77.1 139,-65.5 131.52,-61.69 123.19,-58.56 114.97,-56.02"/>
<polygon fill="#63b8ff" stroke="#63b8ff" points="196.39,-112.38 206.02,-116.79 201.24,-107.34 196.39,-112.38"/>
</g>
<!-- Node8 -->
<g id="node8" class="node">
<title>Node8</title>
<g id="a_node8"><a xlink:href="struct_num_repr_1_1dig__t.html#a760f7426a2aa1c3633499eb30faa47bc" target="_top" xlink:title=" ">
<polygon fill="white" stroke="#666666" points="136,-19 3,-19 3,0 136,0 136,-19"/>
<text text-anchor="middle" x="69.5" y="-7" font-family="Helvetica,sans-Serif" font-size="10.00">NumRepr::dig_t::operator&#45;&#45;</text>
</a>
</g>
</g>
<!-- Node1&#45;&gt;Node8 -->
<g id="edge7" class="edge">
<title>Node1&#45;&gt;Node8</title>
<path fill="none" stroke="#63b8ff" d="M205.89,-107.94C193.43,-85.73 169.64,-48.98 139,-28.5 133.15,-24.59 126.51,-21.48 119.72,-19.01"/>
<polygon fill="#63b8ff" stroke="#63b8ff" points="202.82,-109.62 210.66,-116.75 208.97,-106.29 202.82,-109.62"/>
</g>
</g>
</svg>
