<?xml version="1.0" encoding="UTF-8" standalone="no"?>
<!DOCTYPE svg PUBLIC "-//W3C//DTD SVG 1.1//EN"
 "http://www.w3.org/Graphics/SVG/1.1/DTD/svg11.dtd">
<!-- Generated by graphviz version 2.44.1 (20220725.2034)
 -->
<!-- Title: nat_rat_fixed_reg_t.hpp Pages: 1 -->
<svg width="1296pt" height="412pt"
 viewBox="0.00 0.00 1296.00 412.00" xmlns="http://www.w3.org/2000/svg" xmlns:xlink="http://www.w3.org/1999/xlink">
<g id="graph0" class="graph" transform="scale(1 1) rotate(0) translate(4 408)">
<title>nat_rat_fixed_reg_t.hpp</title>
<!-- Node1 -->
<g id="node1" class="node">
<title>Node1</title>
<g id="a_node1"><a xlink:title=" ">
<polygon fill="#999999" stroke="#666666" points="875.5,-404 756.5,-404 756.5,-385 875.5,-385 875.5,-404"/>
<text text-anchor="middle" x="816" y="-392" font-family="Helvetica,sans-Serif" font-size="10.00">nat_rat_fixed_reg_t.hpp</text>
</a>
</g>
</g>
<!-- Node2 -->
<g id="node2" class="node">
<title>Node2</title>
<g id="a_node2"><a xlink:href="int__reg__digs__t_8hpp.html" target="_top" xlink:title=" ">
<polygon fill="white" stroke="#666666" points="826,-349 730,-349 730,-330 826,-330 826,-349"/>
<text text-anchor="middle" x="778" y="-337" font-family="Helvetica,sans-Serif" font-size="10.00">int_reg_digs_t.hpp</text>
</a>
</g>
</g>
<!-- Node1&#45;&gt;Node2 -->
<g id="edge1" class="edge">
<title>Node1&#45;&gt;Node2</title>
<path fill="none" stroke="#63b8ff" d="M809.73,-384.75C804.41,-377.34 796.64,-366.5 790.12,-357.41"/>
<polygon fill="#63b8ff" stroke="#63b8ff" points="792.83,-355.18 784.16,-349.09 787.14,-359.26 792.83,-355.18"/>
</g>
<!-- Node28 -->
<g id="node28" class="node">
<title>Node28</title>
<g id="a_node28"><a xlink:href="utilities_8hpp.html" target="_top" xlink:title=" ">
<polygon fill="white" stroke="#666666" points="888,-239 822,-239 822,-220 888,-220 888,-239"/>
<text text-anchor="middle" x="855" y="-227" font-family="Helvetica,sans-Serif" font-size="10.00">utilities.hpp</text>
</a>
</g>
</g>
<!-- Node1&#45;&gt;Node28 -->
<g id="edge32" class="edge">
<title>Node1&#45;&gt;Node28</title>
<path fill="none" stroke="#63b8ff" d="M820.42,-384.86C824.74,-376.06 831.22,-361.9 835,-349 845.09,-314.59 850.65,-272.97 853.21,-249.33"/>
<polygon fill="#63b8ff" stroke="#63b8ff" points="856.7,-249.59 854.23,-239.28 849.74,-248.88 856.7,-249.59"/>
</g>
<!-- Node3 -->
<g id="node3" class="node">
<title>Node3</title>
<g id="a_node3"><a xlink:href="nat__reg__digs__t_8hpp.html" target="_top" xlink:title=" ">
<polygon fill="white" stroke="#666666" points="826.5,-294 727.5,-294 727.5,-275 826.5,-275 826.5,-294"/>
<text text-anchor="middle" x="777" y="-282" font-family="Helvetica,sans-Serif" font-size="10.00">nat_reg_digs_t.hpp</text>
</a>
</g>
</g>
<!-- Node2&#45;&gt;Node3 -->
<g id="edge2" class="edge">
<title>Node2&#45;&gt;Node3</title>
<path fill="none" stroke="#63b8ff" d="M777.83,-329.75C777.7,-322.8 777.52,-312.85 777.35,-304.13"/>
<polygon fill="#63b8ff" stroke="#63b8ff" points="780.85,-304.02 777.16,-294.09 773.85,-304.15 780.85,-304.02"/>
</g>
<!-- Node4 -->
<g id="node4" class="node">
<title>Node4</title>
<g id="a_node4"><a xlink:href="dig__t_8hpp.html" target="_top" xlink:title=" ">
<polygon fill="white" stroke="#666666" points="804,-239 748,-239 748,-220 804,-220 804,-239"/>
<text text-anchor="middle" x="776" y="-227" font-family="Helvetica,sans-Serif" font-size="10.00">dig_t.hpp</text>
</a>
</g>
</g>
<!-- Node3&#45;&gt;Node4 -->
<g id="edge3" class="edge">
<title>Node3&#45;&gt;Node4</title>
<path fill="none" stroke="#63b8ff" d="M776.83,-274.75C776.7,-267.8 776.52,-257.85 776.35,-249.13"/>
<polygon fill="#63b8ff" stroke="#63b8ff" points="779.85,-249.02 776.16,-239.09 772.85,-249.15 779.85,-249.02"/>
</g>
<!-- Node3&#45;&gt;Node28 -->
<g id="edge28" class="edge">
<title>Node3&#45;&gt;Node28</title>
<path fill="none" stroke="#63b8ff" d="M789.53,-274.98C801.4,-266.92 819.46,-254.65 833.61,-245.03"/>
<polygon fill="#63b8ff" stroke="#63b8ff" points="835.94,-247.69 842.24,-239.17 832,-241.9 835.94,-247.69"/>
</g>
<!-- Node5 -->
<g id="node5" class="node">
<title>Node5</title>
<g id="a_node5"><a xlink:href="auxiliary__functions_8hpp.html" target="_top" xlink:title=" ">
<polygon fill="white" stroke="#666666" points="749,-184 633,-184 633,-165 749,-165 749,-184"/>
<text text-anchor="middle" x="691" y="-172" font-family="Helvetica,sans-Serif" font-size="10.00">auxiliary_functions.hpp</text>
</a>
</g>
</g>
<!-- Node4&#45;&gt;Node5 -->
<g id="edge4" class="edge">
<title>Node4&#45;&gt;Node5</title>
<path fill="none" stroke="#63b8ff" d="M762.34,-219.98C749.16,-211.77 728.97,-199.18 713.43,-189.49"/>
<polygon fill="#63b8ff" stroke="#63b8ff" points="715.24,-186.49 704.91,-184.17 711.54,-192.43 715.24,-186.49"/>
</g>
<!-- Node6 -->
<g id="node6" class="node">
<title>Node6</title>
<g id="a_node6"><a xlink:href="auxiliary__types_8hpp.html" target="_top" xlink:title=" ">
<polygon fill="white" stroke="#666666" points="764.5,-129 663.5,-129 663.5,-110 764.5,-110 764.5,-129"/>
<text text-anchor="middle" x="714" y="-117" font-family="Helvetica,sans-Serif" font-size="10.00">auxiliary_types.hpp</text>
</a>
</g>
</g>
<!-- Node4&#45;&gt;Node6 -->
<g id="edge27" class="edge">
<title>Node4&#45;&gt;Node6</title>
<path fill="none" stroke="#63b8ff" d="M774.93,-219.74C773.07,-206.97 768.39,-182.82 758,-165 751.55,-153.93 741.7,-143.62 732.96,-135.72"/>
<polygon fill="#63b8ff" stroke="#63b8ff" points="735.24,-133.05 725.37,-129.18 730.67,-138.36 735.24,-133.05"/>
</g>
<!-- Node5&#45;&gt;Node6 -->
<g id="edge5" class="edge">
<title>Node5&#45;&gt;Node6</title>
<path fill="none" stroke="#63b8ff" d="M694.8,-164.75C697.91,-157.57 702.42,-147.18 706.29,-138.27"/>
<polygon fill="#63b8ff" stroke="#63b8ff" points="709.5,-139.66 710.27,-129.09 703.08,-136.87 709.5,-139.66"/>
</g>
<!-- Node7 -->
<g id="node7" class="node">
<title>Node7</title>
<g id="a_node7"><a xlink:href="basic__types_8hpp.html" target="_top" xlink:title=" ">
<polygon fill="white" stroke="#666666" points="758,-74 670,-74 670,-55 758,-55 758,-74"/>
<text text-anchor="middle" x="714" y="-62" font-family="Helvetica,sans-Serif" font-size="10.00">basic_types.hpp</text>
</a>
</g>
</g>
<!-- Node6&#45;&gt;Node7 -->
<g id="edge6" class="edge">
<title>Node6&#45;&gt;Node7</title>
<path fill="none" stroke="#63b8ff" d="M714,-109.75C714,-102.8 714,-92.85 714,-84.13"/>
<polygon fill="#63b8ff" stroke="#63b8ff" points="717.5,-84.09 714,-74.09 710.5,-84.09 717.5,-84.09"/>
</g>
<!-- Node8 -->
<g id="node8" class="node">
<title>Node8</title>
<g id="a_node8"><a xlink:title=" ">
<polygon fill="#e0e0e0" stroke="#999999" points="46,-19 0,-19 0,0 46,0 46,-19"/>
<text text-anchor="middle" x="23" y="-7" font-family="Helvetica,sans-Serif" font-size="10.00">cstdint</text>
</a>
</g>
</g>
<!-- Node7&#45;&gt;Node8 -->
<g id="edge7" class="edge">
<title>Node7&#45;&gt;Node8</title>
<path fill="none" stroke="#63b8ff" d="M669.7,-63.43C564.61,-62.66 291.98,-56.97 56.43,-18.91"/>
<polygon fill="#63b8ff" stroke="#63b8ff" points="56.74,-15.41 46.31,-17.24 55.61,-22.32 56.74,-15.41"/>
</g>
<!-- Node9 -->
<g id="node9" class="node">
<title>Node9</title>
<g id="a_node9"><a xlink:title=" ">
<polygon fill="#e0e0e0" stroke="#999999" points="126,-19 64,-19 64,0 126,0 126,-19"/>
<text text-anchor="middle" x="95" y="-7" font-family="Helvetica,sans-Serif" font-size="10.00">type_traits</text>
</a>
</g>
</g>
<!-- Node7&#45;&gt;Node9 -->
<g id="edge8" class="edge">
<title>Node7&#45;&gt;Node9</title>
<path fill="none" stroke="#63b8ff" d="M669.84,-62.1C574.26,-58.65 341,-47.92 136.4,-19.01"/>
<polygon fill="#63b8ff" stroke="#63b8ff" points="136.77,-15.53 126.37,-17.58 135.78,-22.46 136.77,-15.53"/>
</g>
<!-- Node10 -->
<g id="node10" class="node">
<title>Node10</title>
<g id="a_node10"><a xlink:title=" ">
<polygon fill="#e0e0e0" stroke="#999999" points="194,-19 144,-19 144,0 194,0 194,-19"/>
<text text-anchor="middle" x="169" y="-7" font-family="Helvetica,sans-Serif" font-size="10.00">optional</text>
</a>
</g>
</g>
<!-- Node7&#45;&gt;Node10 -->
<g id="edge9" class="edge">
<title>Node7&#45;&gt;Node10</title>
<path fill="none" stroke="#63b8ff" d="M669.96,-62.01C582.76,-58.55 381.9,-48.08 204.21,-18.93"/>
<polygon fill="#63b8ff" stroke="#63b8ff" points="204.6,-15.45 194.16,-17.26 203.45,-22.35 204.6,-15.45"/>
</g>
<!-- Node11 -->
<g id="node11" class="node">
<title>Node11</title>
<g id="a_node11"><a xlink:title=" ">
<polygon fill="#e0e0e0" stroke="#999999" points="266,-19 212,-19 212,0 266,0 266,-19"/>
<text text-anchor="middle" x="239" y="-7" font-family="Helvetica,sans-Serif" font-size="10.00">compare</text>
</a>
</g>
</g>
<!-- Node7&#45;&gt;Node11 -->
<g id="edge10" class="edge">
<title>Node7&#45;&gt;Node11</title>
<path fill="none" stroke="#63b8ff" d="M669.82,-60.94C592.16,-56.03 426.03,-43.65 276.34,-19.01"/>
<polygon fill="#63b8ff" stroke="#63b8ff" points="276.49,-15.48 266.05,-17.29 275.34,-22.39 276.49,-15.48"/>
</g>
<!-- Node12 -->
<g id="node12" class="node">
<title>Node12</title>
<g id="a_node12"><a xlink:title=" ">
<polygon fill="#e0e0e0" stroke="#999999" points="340,-19 284,-19 284,0 340,0 340,-19"/>
<text text-anchor="middle" x="312" y="-7" font-family="Helvetica,sans-Serif" font-size="10.00">concepts</text>
</a>
</g>
</g>
<!-- Node7&#45;&gt;Node12 -->
<g id="edge11" class="edge">
<title>Node7&#45;&gt;Node12</title>
<path fill="none" stroke="#63b8ff" d="M669.96,-59.63C603.02,-53.42 471.51,-39.94 350.41,-19.08"/>
<polygon fill="#63b8ff" stroke="#63b8ff" points="350.67,-15.57 340.22,-17.3 349.47,-22.47 350.67,-15.57"/>
</g>
<!-- Node13 -->
<g id="node13" class="node">
<title>Node13</title>
<g id="a_node13"><a xlink:title=" ">
<polygon fill="#e0e0e0" stroke="#999999" points="412,-19 358,-19 358,0 412,0 412,-19"/>
<text text-anchor="middle" x="385" y="-7" font-family="Helvetica,sans-Serif" font-size="10.00">iostream</text>
</a>
</g>
</g>
<!-- Node7&#45;&gt;Node13 -->
<g id="edge12" class="edge">
<title>Node7&#45;&gt;Node13</title>
<path fill="none" stroke="#63b8ff" d="M669.63,-57.9C614.04,-50.64 515.66,-36.95 422,-19.06"/>
<polygon fill="#63b8ff" stroke="#63b8ff" points="422.56,-15.6 412.08,-17.14 421.23,-22.47 422.56,-15.6"/>
</g>
<!-- Node14 -->
<g id="node14" class="node">
<title>Node14</title>
<g id="a_node14"><a xlink:title=" ">
<polygon fill="#e0e0e0" stroke="#999999" points="476,-19 430,-19 430,0 476,0 476,-19"/>
<text text-anchor="middle" x="453" y="-7" font-family="Helvetica,sans-Serif" font-size="10.00">cstring</text>
</a>
</g>
</g>
<!-- Node7&#45;&gt;Node14 -->
<g id="edge13" class="edge">
<title>Node7&#45;&gt;Node14</title>
<path fill="none" stroke="#63b8ff" d="M669.91,-55.85C625.74,-47.98 555.6,-34.93 485.86,-19.07"/>
<polygon fill="#63b8ff" stroke="#63b8ff" points="486.56,-15.64 476.03,-16.82 484.99,-22.46 486.56,-15.64"/>
</g>
<!-- Node15 -->
<g id="node15" class="node">
<title>Node15</title>
<g id="a_node15"><a xlink:title=" ">
<polygon fill="#e0e0e0" stroke="#999999" points="535.5,-19 494.5,-19 494.5,0 535.5,0 535.5,-19"/>
<text text-anchor="middle" x="515" y="-7" font-family="Helvetica,sans-Serif" font-size="10.00">string</text>
</a>
</g>
</g>
<!-- Node7&#45;&gt;Node15 -->
<g id="edge14" class="edge">
<title>Node7&#45;&gt;Node15</title>
<path fill="none" stroke="#63b8ff" d="M680.92,-54.98C648.81,-46.68 598.46,-33.53 545.55,-19.11"/>
<polygon fill="#63b8ff" stroke="#63b8ff" points="546.21,-15.66 535.64,-16.4 544.37,-22.42 546.21,-15.66"/>
</g>
<!-- Node16 -->
<g id="node16" class="node">
<title>Node16</title>
<g id="a_node16"><a xlink:title=" ">
<polygon fill="#e0e0e0" stroke="#999999" points="606,-19 554,-19 554,0 606,0 606,-19"/>
<text text-anchor="middle" x="580" y="-7" font-family="Helvetica,sans-Serif" font-size="10.00">sstream</text>
</a>
</g>
</g>
<!-- Node7&#45;&gt;Node16 -->
<g id="edge15" class="edge">
<title>Node7&#45;&gt;Node16</title>
<path fill="none" stroke="#63b8ff" d="M692.47,-54.98C670.53,-46.3 636.26,-32.75 611.31,-22.88"/>
<polygon fill="#63b8ff" stroke="#63b8ff" points="612.51,-19.59 601.92,-19.17 609.93,-26.1 612.51,-19.59"/>
</g>
<!-- Node17 -->
<g id="node17" class="node">
<title>Node17</title>
<g id="a_node17"><a xlink:title=" ">
<polygon fill="#e0e0e0" stroke="#999999" points="674,-19 624,-19 624,0 674,0 674,-19"/>
<text text-anchor="middle" x="649" y="-7" font-family="Helvetica,sans-Serif" font-size="10.00">fstream</text>
</a>
</g>
</g>
<!-- Node7&#45;&gt;Node17 -->
<g id="edge16" class="edge">
<title>Node7&#45;&gt;Node17</title>
<path fill="none" stroke="#63b8ff" d="M703.56,-54.98C693.85,-47.07 679.18,-35.11 667.5,-25.58"/>
<polygon fill="#63b8ff" stroke="#63b8ff" points="669.6,-22.78 659.63,-19.17 665.17,-28.2 669.6,-22.78"/>
</g>
<!-- Node18 -->
<g id="node18" class="node">
<title>Node18</title>
<g id="a_node18"><a xlink:title=" ">
<polygon fill="#e0e0e0" stroke="#999999" points="1288,-19 1250,-19 1250,0 1288,0 1288,-19"/>
<text text-anchor="middle" x="1269" y="-7" font-family="Helvetica,sans-Serif" font-size="10.00">array</text>
</a>
</g>
</g>
<!-- Node7&#45;&gt;Node18 -->
<g id="edge17" class="edge">
<title>Node7&#45;&gt;Node18</title>
<path fill="none" stroke="#63b8ff" d="M758.11,-60.31C870.51,-52.11 1163.6,-30.26 1239.87,-18.6"/>
<polygon fill="#63b8ff" stroke="#63b8ff" points="1240.59,-22.03 1249.85,-16.89 1239.41,-15.13 1240.59,-22.03"/>
</g>
<!-- Node19 -->
<g id="node19" class="node">
<title>Node19</title>
<g id="a_node19"><a xlink:title=" ">
<polygon fill="#e0e0e0" stroke="#999999" points="736,-19 692,-19 692,0 736,0 736,-19"/>
<text text-anchor="middle" x="714" y="-7" font-family="Helvetica,sans-Serif" font-size="10.00">vector</text>
</a>
</g>
</g>
<!-- Node7&#45;&gt;Node19 -->
<g id="edge18" class="edge">
<title>Node7&#45;&gt;Node19</title>
<path fill="none" stroke="#63b8ff" d="M714,-54.75C714,-47.8 714,-37.85 714,-29.13"/>
<polygon fill="#63b8ff" stroke="#63b8ff" points="717.5,-29.09 714,-19.09 710.5,-29.09 717.5,-29.09"/>
</g>
<!-- Node20 -->
<g id="node20" class="node">
<title>Node20</title>
<g id="a_node20"><a xlink:title=" ">
<polygon fill="#e0e0e0" stroke="#999999" points="783.5,-19 754.5,-19 754.5,0 783.5,0 783.5,-19"/>
<text text-anchor="middle" x="769" y="-7" font-family="Helvetica,sans-Serif" font-size="10.00">list</text>
</a>
</g>
</g>
<!-- Node7&#45;&gt;Node20 -->
<g id="edge19" class="edge">
<title>Node7&#45;&gt;Node20</title>
<path fill="none" stroke="#63b8ff" d="M723.08,-54.75C731.09,-47.03 742.96,-35.6 752.62,-26.28"/>
<polygon fill="#63b8ff" stroke="#63b8ff" points="755.31,-28.55 760.09,-19.09 750.46,-23.51 755.31,-28.55"/>
</g>
<!-- Node21 -->
<g id="node21" class="node">
<title>Node21</title>
<g id="a_node21"><a xlink:title=" ">
<polygon fill="#e0e0e0" stroke="#999999" points="836.5,-19 801.5,-19 801.5,0 836.5,0 836.5,-19"/>
<text text-anchor="middle" x="819" y="-7" font-family="Helvetica,sans-Serif" font-size="10.00">map</text>
</a>
</g>
</g>
<!-- Node7&#45;&gt;Node21 -->
<g id="edge20" class="edge">
<title>Node7&#45;&gt;Node21</title>
<path fill="none" stroke="#63b8ff" d="M730.87,-54.98C747.61,-46.54 773.5,-33.47 792.89,-23.68"/>
<polygon fill="#63b8ff" stroke="#63b8ff" points="794.47,-26.8 801.82,-19.17 791.32,-20.55 794.47,-26.8"/>
</g>
<!-- Node22 -->
<g id="node22" class="node">
<title>Node22</title>
<g id="a_node22"><a xlink:title=" ">
<polygon fill="#e0e0e0" stroke="#999999" points="899.5,-19 854.5,-19 854.5,0 899.5,0 899.5,-19"/>
<text text-anchor="middle" x="877" y="-7" font-family="Helvetica,sans-Serif" font-size="10.00">climits</text>
</a>
</g>
</g>
<!-- Node7&#45;&gt;Node22 -->
<g id="edge21" class="edge">
<title>Node7&#45;&gt;Node22</title>
<path fill="none" stroke="#63b8ff" d="M740.19,-54.98C768.57,-45.76 813.89,-31.02 844.52,-21.06"/>
<polygon fill="#63b8ff" stroke="#63b8ff" points="845.87,-24.3 854.29,-17.88 843.7,-17.65 845.87,-24.3"/>
</g>
<!-- Node23 -->
<g id="node23" class="node">
<title>Node23</title>
<g id="a_node23"><a xlink:title=" ">
<polygon fill="#e0e0e0" stroke="#999999" points="968.5,-19 917.5,-19 917.5,0 968.5,0 968.5,-19"/>
<text text-anchor="middle" x="943" y="-7" font-family="Helvetica,sans-Serif" font-size="10.00">numeric</text>
</a>
</g>
</g>
<!-- Node7&#45;&gt;Node23 -->
<g id="edge22" class="edge">
<title>Node7&#45;&gt;Node23</title>
<path fill="none" stroke="#63b8ff" d="M752.53,-54.95C789.83,-46.62 848.23,-33.44 907.49,-19.33"/>
<polygon fill="#63b8ff" stroke="#63b8ff" points="908.48,-22.69 917.39,-16.96 906.85,-15.88 908.48,-22.69"/>
</g>
<!-- Node24 -->
<g id="node24" class="node">
<title>Node24</title>
<g id="a_node24"><a xlink:title=" ">
<polygon fill="#e0e0e0" stroke="#999999" points="1027,-19 987,-19 987,0 1027,0 1027,-19"/>
<text text-anchor="middle" x="1007" y="-7" font-family="Helvetica,sans-Serif" font-size="10.00">limits</text>
</a>
</g>
</g>
<!-- Node7&#45;&gt;Node24 -->
<g id="edge23" class="edge">
<title>Node7&#45;&gt;Node24</title>
<path fill="none" stroke="#63b8ff" d="M758.22,-57.67C808.91,-50.64 894.61,-37.64 977.03,-18.99"/>
<polygon fill="#63b8ff" stroke="#63b8ff" points="977.83,-22.4 986.8,-16.75 976.27,-15.58 977.83,-22.4"/>
</g>
<!-- Node25 -->
<g id="node25" class="node">
<title>Node25</title>
<g id="a_node25"><a xlink:title=" ">
<polygon fill="#e0e0e0" stroke="#999999" points="1089,-19 1045,-19 1045,0 1089,0 1089,-19"/>
<text text-anchor="middle" x="1067" y="-7" font-family="Helvetica,sans-Serif" font-size="10.00">cmath</text>
</a>
</g>
</g>
<!-- Node7&#45;&gt;Node25 -->
<g id="edge24" class="edge">
<title>Node7&#45;&gt;Node25</title>
<path fill="none" stroke="#63b8ff" d="M758.06,-59.25C818.42,-53.02 930.33,-40.04 1034.66,-19.04"/>
<polygon fill="#63b8ff" stroke="#63b8ff" points="1035.64,-22.41 1044.73,-16.98 1034.23,-15.55 1035.64,-22.41"/>
</g>
<!-- Node26 -->
<g id="node26" class="node">
<title>Node26</title>
<g id="a_node26"><a xlink:title=" ">
<polygon fill="#e0e0e0" stroke="#999999" points="1154.5,-19 1107.5,-19 1107.5,0 1154.5,0 1154.5,-19"/>
<text text-anchor="middle" x="1131" y="-7" font-family="Helvetica,sans-Serif" font-size="10.00">iterator</text>
</a>
</g>
</g>
<!-- Node7&#45;&gt;Node26 -->
<g id="edge25" class="edge">
<title>Node7&#45;&gt;Node26</title>
<path fill="none" stroke="#63b8ff" d="M758.06,-60.36C827.93,-54.96 968.56,-42.35 1097.26,-18.88"/>
<polygon fill="#63b8ff" stroke="#63b8ff" points="1098.1,-22.28 1107.29,-17.02 1096.82,-15.4 1098.1,-22.28"/>
</g>
<!-- Node27 -->
<g id="node27" class="node">
<title>Node27</title>
<g id="a_node27"><a xlink:title=" ">
<polygon fill="#e0e0e0" stroke="#999999" points="1231.5,-19 1172.5,-19 1172.5,0 1231.5,0 1231.5,-19"/>
<text text-anchor="middle" x="1202" y="-7" font-family="Helvetica,sans-Serif" font-size="10.00">functional</text>
</a>
</g>
</g>
<!-- Node7&#45;&gt;Node27 -->
<g id="edge26" class="edge">
<title>Node7&#45;&gt;Node27</title>
<path fill="none" stroke="#63b8ff" d="M758.05,-59.83C851.82,-51.91 1069.52,-32.93 1162.07,-19.1"/>
<polygon fill="#63b8ff" stroke="#63b8ff" points="1162.85,-22.52 1172.2,-17.53 1161.78,-15.6 1162.85,-22.52"/>
</g>
<!-- Node28&#45;&gt;Node7 -->
<g id="edge31" class="edge">
<title>Node28&#45;&gt;Node7</title>
<path fill="none" stroke="#63b8ff" d="M850.27,-219.77C838.82,-199.16 808,-146.46 773,-110 762.1,-98.64 748.09,-87.95 736.46,-79.89"/>
<polygon fill="#63b8ff" stroke="#63b8ff" points="738.37,-76.96 728.12,-74.28 734.46,-82.76 738.37,-76.96"/>
</g>
<!-- Node28&#45;&gt;Node18 -->
<g id="edge30" class="edge">
<title>Node28&#45;&gt;Node18</title>
<path fill="none" stroke="#63b8ff" d="M855.26,-219.95C856.12,-206.56 859.66,-180.57 874,-165 900.43,-136.31 1153.71,-49.27 1240.21,-20.13"/>
<polygon fill="#63b8ff" stroke="#63b8ff" points="1241.54,-23.37 1249.91,-16.87 1239.31,-16.74 1241.54,-23.37"/>
</g>
<!-- Node29 -->
<g id="node29" class="node">
<title>Node29</title>
<g id="a_node29"><a xlink:title=" ">
<polygon fill="#e0e0e0" stroke="#999999" points="921,-184 883,-184 883,-165 921,-165 921,-184"/>
<text text-anchor="middle" x="902" y="-172" font-family="Helvetica,sans-Serif" font-size="10.00">tuple</text>
</a>
</g>
</g>
<!-- Node28&#45;&gt;Node29 -->
<g id="edge29" class="edge">
<title>Node28&#45;&gt;Node29</title>
<path fill="none" stroke="#63b8ff" d="M862.76,-219.75C869.47,-212.18 879.34,-201.05 887.51,-191.84"/>
<polygon fill="#63b8ff" stroke="#63b8ff" points="890.37,-193.89 894.38,-184.09 885.13,-189.25 890.37,-193.89"/>
</g>
</g>
</svg>
