<?xml version="1.0" encoding="UTF-8" standalone="no"?>
<!DOCTYPE svg PUBLIC "-//W3C//DTD SVG 1.1//EN"
 "http://www.w3.org/Graphics/SVG/1.1/DTD/svg11.dtd">
<!-- Generated by graphviz version 2.44.1 (20220725.2034)
 -->
<!-- Title: is_0 Pages: 1 -->
<!--zoomable 508 -->
<svg id="main" version="1.1" xmlns="http://www.w3.org/2000/svg" xmlns:xlink="http://www.w3.org/1999/xlink" xml:space="preserve" onload="init(evt)">
<style type="text/css"><![CDATA[
.edge:hover path { stroke: red; }
.edge:hover polygon { stroke: red; fill: red; }
]]></style>
<script type="text/javascript"><![CDATA[
var edges = document.getElementsByTagName('g');
if (edges && edges.length) {
  for (var i=0;i<edges.length;i++) {
    if (edges[i].id.substr(0,4)=='edge') {
      edges[i].setAttribute('class','edge');
    }
  }
}
]]></script>
        <defs>
                <circle id="rim" cx="0" cy="0" r="7"/>
                <circle id="rim2" cx="0" cy="0" r="3.5"/>
                <g id="zoomPlus">
                        <use xlink:href="#rim" fill="#404040">
                                <set attributeName="fill" to="#808080" begin="zoomplus.mouseover" end="zoomplus.mouseout"/>
                        </use>
                        <path d="M-4,0h8M0,-4v8" fill="none" stroke="white" stroke-width="1.5" pointer-events="none"/>
                </g>
                <g id="zoomMin">
                        <use xlink:href="#rim" fill="#404040">
                                <set attributeName="fill" to="#808080" begin="zoomminus.mouseover" end="zoomminus.mouseout"/>
                        </use>
                        <path d="M-4,0h8" fill="none" stroke="white" stroke-width="1.5" pointer-events="none"/>
                </g>
                <g id="dirArrow">
                        <path fill="none" stroke="white" stroke-width="1.5" d="M0,-3.0v7 M-2.5,-0.5L0,-3.0L2.5,-0.5"/>
                </g>
               <g id="resetDef">
                       <use xlink:href="#rim2" fill="#404040">
                               <set attributeName="fill" to="#808080" begin="reset.mouseover" end="reset.mouseout"/>
                       </use>
               </g>
        </defs>

<script type="text/javascript">
var viewWidth = 200;
var viewHeight = 508;
var sectionId = 'dynsection-4';
</script>
<script xlink:href="svgpan.js"/>
<svg id="graph" class="graph">
<g id="viewport">
<title>is_0</title>
<!-- Node1 -->
<g id="node1" class="node">
<title>Node1</title>
<g id="a_node1"><a xlink:title=" ">
<polygon fill="#999999" stroke="#666666" points="192,-264.5 157,-264.5 157,-245.5 192,-245.5 192,-264.5"/>
<text text-anchor="middle" x="174.5" y="-252.5" font-family="Helvetica,sans-Serif" font-size="10.00">is_0</text>
</a>
</g>
</g>
<!-- Node2 -->
<g id="node2" class="node">
<title>Node2</title>
<g id="a_node2"><a xlink:href="struct_num_repr_1_1dig__t.html#a48f6d7f54f227eaf337438fccd8b9ff4" target="_top" xlink:title=" ">
<polygon fill="white" stroke="#666666" points="110,-500 11,-500 11,-470 110,-470 110,-500"/>
<text text-anchor="start" x="19" y="-488" font-family="Helvetica,sans-Serif" font-size="10.00">NumRepr::dig_t::is</text>
<text text-anchor="middle" x="60.5" y="-477" font-family="Helvetica,sans-Serif" font-size="10.00">_0_divisor</text>
</a>
</g>
</g>
<!-- Node1&#45;&gt;Node2 -->
<g id="edge1" class="edge">
<title>Node1&#45;&gt;Node2</title>
<path fill="none" stroke="#63b8ff" d="M174.05,-274.61C174.1,-314.62 168.64,-406.51 121,-461 117.92,-464.52 114.25,-467.53 110.27,-470.11"/>
<polygon fill="#63b8ff" stroke="#63b8ff" points="177.55,-274.51 173.91,-264.56 170.55,-274.61 177.55,-274.51"/>
</g>
<!-- Node3 -->
<g id="node3" class="node">
<title>Node3</title>
<g id="a_node3"><a xlink:href="struct_num_repr_1_1dig__t.html#ad54d97fbbe203e3aecaf937df2600ba2" target="_top" xlink:title=" ">
<polygon fill="white" stroke="#666666" points="110,-452 11,-452 11,-422 110,-422 110,-452"/>
<text text-anchor="start" x="19" y="-440" font-family="Helvetica,sans-Serif" font-size="10.00">NumRepr::dig_t::is</text>
<text text-anchor="middle" x="60.5" y="-429" font-family="Helvetica,sans-Serif" font-size="10.00">_maxormin</text>
</a>
</g>
</g>
<!-- Node1&#45;&gt;Node3 -->
<g id="edge2" class="edge">
<title>Node1&#45;&gt;Node3</title>
<path fill="none" stroke="#63b8ff" d="M172.18,-274.68C168.96,-307.49 158,-373.61 121,-413 117.8,-416.41 114.04,-419.35 110.01,-421.87"/>
<polygon fill="#63b8ff" stroke="#63b8ff" points="175.68,-274.83 173.02,-264.57 168.7,-274.24 175.68,-274.83"/>
</g>
<!-- Node4 -->
<g id="node4" class="node">
<title>Node4</title>
<g id="a_node4"><a xlink:href="struct_num_repr_1_1dig__t.html#af91d529a5c32bcc62d02b4700713b512" target="_top" xlink:title=" ">
<polygon fill="white" stroke="#666666" points="110,-404 11,-404 11,-374 110,-374 110,-404"/>
<text text-anchor="start" x="19" y="-392" font-family="Helvetica,sans-Serif" font-size="10.00">NumRepr::dig_t::is</text>
<text text-anchor="middle" x="60.5" y="-381" font-family="Helvetica,sans-Serif" font-size="10.00">_near_maxormin</text>
</a>
</g>
</g>
<!-- Node1&#45;&gt;Node4 -->
<g id="edge3" class="edge">
<title>Node1&#45;&gt;Node4</title>
<path fill="none" stroke="#63b8ff" d="M168.88,-274.47C162.2,-298.71 147.61,-339.99 121,-365 117.35,-368.43 113.14,-371.4 108.69,-373.96"/>
<polygon fill="#63b8ff" stroke="#63b8ff" points="172.31,-275.2 171.41,-264.64 165.53,-273.45 172.31,-275.2"/>
</g>
<!-- Node5 -->
<g id="node5" class="node">
<title>Node5</title>
<g id="a_node5"><a xlink:href="struct_num_repr_1_1dig__t.html#aecc930e8cb3dbc3ede5beeff11ef77ee" target="_top" xlink:title=" ">
<polygon fill="white" stroke="#666666" points="120.5,-355.5 0.5,-355.5 0.5,-336.5 120.5,-336.5 120.5,-355.5"/>
<text text-anchor="middle" x="60.5" y="-343.5" font-family="Helvetica,sans-Serif" font-size="10.00">NumRepr::dig_t::is_unit</text>
</a>
</g>
</g>
<!-- Node1&#45;&gt;Node5 -->
<g id="edge4" class="edge">
<title>Node1&#45;&gt;Node5</title>
<path fill="none" stroke="#63b8ff" d="M164.05,-274.06C155.08,-290.33 140.12,-313.21 121,-327 115.64,-330.87 109.45,-333.97 103.14,-336.46"/>
<polygon fill="#63b8ff" stroke="#63b8ff" points="167.3,-275.41 168.86,-264.93 161.1,-272.15 167.3,-275.41"/>
</g>
<!-- Node6 -->
<g id="node6" class="node">
<title>Node6</title>
<g id="a_node6"><a xlink:href="struct_num_repr_1_1nat__rat__fixed__reg__t.html#a858568dd397e27a65b678be845d2f11d" target="_top" xlink:title=" ">
<polygon fill="white" stroke="#666666" points="121,-318 0,-318 0,-288 121,-288 121,-318"/>
<text text-anchor="start" x="8" y="-306" font-family="Helvetica,sans-Serif" font-size="10.00">NumRepr::nat_rat_fixed</text>
<text text-anchor="middle" x="60.5" y="-295" font-family="Helvetica,sans-Serif" font-size="10.00">_reg_t::operator!=</text>
</a>
</g>
</g>
<!-- Node1&#45;&gt;Node6 -->
<g id="edge5" class="edge">
<title>Node1&#45;&gt;Node6</title>
<path fill="none" stroke="#63b8ff" d="M147.28,-267.27C138.92,-271.1 129.6,-275.3 121,-279 114.14,-281.95 106.8,-285 99.7,-287.89"/>
<polygon fill="#63b8ff" stroke="#63b8ff" points="148.95,-270.35 156.56,-262.98 146.02,-264 148.95,-270.35"/>
</g>
<!-- Node7 -->
<g id="node7" class="node">
<title>Node7</title>
<g id="a_node7"><a xlink:href="struct_num_repr_1_1nat__rat__fixed__reg__t.html#a863b4585d8f4ae407912c98c9273b6d3" target="_top" xlink:title=" ">
<polygon fill="white" stroke="#666666" points="121,-270 0,-270 0,-240 121,-240 121,-270"/>
<text text-anchor="start" x="8" y="-258" font-family="Helvetica,sans-Serif" font-size="10.00">NumRepr::nat_rat_fixed</text>
<text text-anchor="middle" x="60.5" y="-247" font-family="Helvetica,sans-Serif" font-size="10.00">_reg_t::operator&#45;=</text>
</a>
</g>
</g>
<!-- Node1&#45;&gt;Node7 -->
<g id="edge6" class="edge">
<title>Node1&#45;&gt;Node7</title>
<path fill="none" stroke="#63b8ff" d="M146.72,-255C138.9,-255 130.02,-255 121.03,-255"/>
<polygon fill="#63b8ff" stroke="#63b8ff" points="146.97,-258.5 156.97,-255 146.97,-251.5 146.97,-258.5"/>
</g>
<!-- Node8 -->
<g id="node8" class="node">
<title>Node8</title>
<g id="a_node8"><a xlink:href="struct_num_repr_1_1nat__rat__fixed__reg__t.html#a0f8ef4c04d7b0956fb973192e04259c9" target="_top" xlink:title=" ">
<polygon fill="white" stroke="#666666" points="121,-222 0,-222 0,-192 121,-192 121,-222"/>
<text text-anchor="start" x="8" y="-210" font-family="Helvetica,sans-Serif" font-size="10.00">NumRepr::nat_rat_fixed</text>
<text text-anchor="middle" x="60.5" y="-199" font-family="Helvetica,sans-Serif" font-size="10.00">_reg_t::operator&lt;</text>
</a>
</g>
</g>
<!-- Node1&#45;&gt;Node8 -->
<g id="edge7" class="edge">
<title>Node1&#45;&gt;Node8</title>
<path fill="none" stroke="#63b8ff" d="M147.28,-242.73C138.92,-238.9 129.6,-234.7 121,-231 114.14,-228.05 106.8,-225 99.7,-222.11"/>
<polygon fill="#63b8ff" stroke="#63b8ff" points="146.02,-246 156.56,-247.02 148.95,-239.65 146.02,-246"/>
</g>
<!-- Node9 -->
<g id="node9" class="node">
<title>Node9</title>
<g id="a_node9"><a xlink:href="struct_num_repr_1_1nat__rat__fixed__reg__t.html#a674d8af40df8b5fc48eecd0e58c6b844" target="_top" xlink:title=" ">
<polygon fill="white" stroke="#666666" points="121,-174 0,-174 0,-144 121,-144 121,-174"/>
<text text-anchor="start" x="8" y="-162" font-family="Helvetica,sans-Serif" font-size="10.00">NumRepr::nat_rat_fixed</text>
<text text-anchor="middle" x="60.5" y="-151" font-family="Helvetica,sans-Serif" font-size="10.00">_reg_t::operator&lt;=</text>
</a>
</g>
</g>
<!-- Node1&#45;&gt;Node9 -->
<g id="edge8" class="edge">
<title>Node1&#45;&gt;Node9</title>
<path fill="none" stroke="#63b8ff" d="M163.8,-236.28C154.65,-220.24 139.59,-197.49 121,-183 116.7,-179.64 111.86,-176.69 106.85,-174.12"/>
<polygon fill="#63b8ff" stroke="#63b8ff" points="160.84,-238.17 168.71,-245.27 166.98,-234.82 160.84,-238.17"/>
</g>
<!-- Node10 -->
<g id="node10" class="node">
<title>Node10</title>
<g id="a_node10"><a xlink:href="struct_num_repr_1_1nat__rat__fixed__reg__t.html#a1dfad6f1cf535bde170572bc3c023c6d" target="_top" xlink:title=" ">
<polygon fill="white" stroke="#666666" points="121,-126 0,-126 0,-96 121,-96 121,-126"/>
<text text-anchor="start" x="8" y="-114" font-family="Helvetica,sans-Serif" font-size="10.00">NumRepr::nat_rat_fixed</text>
<text text-anchor="middle" x="60.5" y="-103" font-family="Helvetica,sans-Serif" font-size="10.00">_reg_t::operator==</text>
</a>
</g>
</g>
<!-- Node1&#45;&gt;Node10 -->
<g id="edge9" class="edge">
<title>Node1&#45;&gt;Node10</title>
<path fill="none" stroke="#63b8ff" d="M169.72,-235.28C163.74,-209.08 149.69,-162.87 121,-135 117.48,-131.59 113.42,-128.64 109.1,-126.09"/>
<polygon fill="#63b8ff" stroke="#63b8ff" points="166.32,-236.11 171.81,-245.17 173.17,-234.67 166.32,-236.11"/>
</g>
<!-- Node11 -->
<g id="node11" class="node">
<title>Node11</title>
<g id="a_node11"><a xlink:href="struct_num_repr_1_1nat__rat__fixed__reg__t.html#a9a04f43c91d88792c1c6d7369406660a" target="_top" xlink:title=" ">
<polygon fill="white" stroke="#666666" points="121,-78 0,-78 0,-48 121,-48 121,-78"/>
<text text-anchor="start" x="8" y="-66" font-family="Helvetica,sans-Serif" font-size="10.00">NumRepr::nat_rat_fixed</text>
<text text-anchor="middle" x="60.5" y="-55" font-family="Helvetica,sans-Serif" font-size="10.00">_reg_t::operator&gt;</text>
</a>
</g>
</g>
<!-- Node1&#45;&gt;Node11 -->
<g id="edge10" class="edge">
<title>Node1&#45;&gt;Node11</title>
<path fill="none" stroke="#63b8ff" d="M172.63,-235.04C170.08,-200.54 160.09,-129.38 121,-87 117.83,-83.56 114.1,-80.61 110.07,-78.07"/>
<polygon fill="#63b8ff" stroke="#63b8ff" points="169.15,-235.47 173.24,-245.24 176.13,-235.05 169.15,-235.47"/>
</g>
<!-- Node12 -->
<g id="node12" class="node">
<title>Node12</title>
<g id="a_node12"><a xlink:href="struct_num_repr_1_1nat__rat__fixed__reg__t.html#a81d967416f67b9a4c30fbca73b4d2a6c" target="_top" xlink:title=" ">
<polygon fill="white" stroke="#666666" points="121,-30 0,-30 0,0 121,0 121,-30"/>
<text text-anchor="start" x="8" y="-18" font-family="Helvetica,sans-Serif" font-size="10.00">NumRepr::nat_rat_fixed</text>
<text text-anchor="middle" x="60.5" y="-7" font-family="Helvetica,sans-Serif" font-size="10.00">_reg_t::operator&gt;=</text>
</a>
</g>
</g>
<!-- Node1&#45;&gt;Node12 -->
<g id="edge11" class="edge">
<title>Node1&#45;&gt;Node12</title>
<path fill="none" stroke="#63b8ff" d="M174.34,-235.31C175.03,-193.85 170.83,-96.64 121,-39 118.01,-35.55 114.46,-32.58 110.59,-30.04"/>
<polygon fill="#63b8ff" stroke="#63b8ff" points="170.84,-235.35 174.05,-245.45 177.83,-235.55 170.84,-235.35"/>
</g>
</g>
</svg>
        <g id="navigator" transform="translate(0 0)" fill="#404254">
                <rect fill="#f2f5e9" fill-opacity="0.5" stroke="#606060" stroke-width=".5" x="0" y="0" width="60" height="60"/>
                <use id="zoomplus" xlink:href="#zoomPlus" x="17" y="9" onmousedown="handleZoom(evt,'in')"/>
                <use id="zoomminus" xlink:href="#zoomMin" x="42" y="9" onmousedown="handleZoom(evt,'out')"/>
                <use id="reset" xlink:href="#resetDef" x="30" y="36" onmousedown="handleReset()"/>
                <g id="arrowUp" xlink:href="#dirArrow" transform="translate(30 24)" onmousedown="handlePan(0,-1)">
                  <use xlink:href="#rim" fill="#404040">
                        <set attributeName="fill" to="#808080" begin="arrowUp.mouseover" end="arrowUp.mouseout"/>
                  </use>
                  <path fill="none" stroke="white" stroke-width="1.5" d="M0,-3.0v7 M-2.5,-0.5L0,-3.0L2.5,-0.5"/>
                </g>
                <g id="arrowRight" xlink:href="#dirArrow" transform="rotate(90) translate(36 -43)" onmousedown="handlePan(1,0)">
                  <use xlink:href="#rim" fill="#404040">
                        <set attributeName="fill" to="#808080" begin="arrowRight.mouseover" end="arrowRight.mouseout"/>
                  </use>
                  <path fill="none" stroke="white" stroke-width="1.5" d="M0,-3.0v7 M-2.5,-0.5L0,-3.0L2.5,-0.5"/>
                </g>
                <g id="arrowDown" xlink:href="#dirArrow" transform="rotate(180) translate(-30 -48)" onmousedown="handlePan(0,1)">
                  <use xlink:href="#rim" fill="#404040">
                        <set attributeName="fill" to="#808080" begin="arrowDown.mouseover" end="arrowDown.mouseout"/>
                  </use>
                  <path fill="none" stroke="white" stroke-width="1.5" d="M0,-3.0v7 M-2.5,-0.5L0,-3.0L2.5,-0.5"/>
                </g>
                <g id="arrowLeft" xlink:href="#dirArrow" transform="rotate(270) translate(-36 17)" onmousedown="handlePan(-1,0)">
                  <use xlink:href="#rim" fill="#404040">
                        <set attributeName="fill" to="#808080" begin="arrowLeft.mouseover" end="arrowLeft.mouseout"/>
                  </use>
                  <path fill="none" stroke="white" stroke-width="1.5" d="M0,-3.0v7 M-2.5,-0.5L0,-3.0L2.5,-0.5"/>
                </g>
        </g>
        <svg viewBox="0 0 15 15" width="100%" height="30px" preserveAspectRatio="xMaxYMin meet">
         <g id="arrow_out" transform="scale(0.3 0.3)">
          <a xlink:href="nat__reg__digs__t_01_07_copia_01en_01conflicto_01de_01_m_s_i_012022-11-24_08_8hpp_a540a0e700a266a624a295898de9ff8fc_icgraph_org.svg" target="_base">
           <rect id="button" ry="5" rx="5" y="6" x="6" height="38" width="38"
                fill="#f2f5e9" fill-opacity="0.5" stroke="#606060" stroke-width="1.0"/>
           <path id="arrow"
             d="M 11.500037,31.436501 C 11.940474,20.09759 22.043105,11.32322 32.158766,21.979434 L 37.068811,17.246167 C 37.068811,17.246167 37.088388,32 37.088388,32 L 22.160133,31.978069 C 22.160133,31.978069 26.997745,27.140456 26.997745,27.140456 C 18.528582,18.264221 13.291696,25.230495 11.500037,31.436501 z"
             style="fill:#404040;"/>
          </a>
         </g>
        </svg>
</svg>
