<?xml version="1.0" encoding="UTF-8" standalone="no"?>
<!DOCTYPE svg PUBLIC "-//W3C//DTD SVG 1.1//EN"
 "http://www.w3.org/Graphics/SVG/1.1/DTD/svg11.dtd">
<!-- Generated by graphviz version 2.44.1 (20220725.2034)
 -->
<!-- Title: is_Bm1 Pages: 1 -->
<svg width="193pt" height="134pt"
 viewBox="0.00 0.00 193.00 134.00" xmlns="http://www.w3.org/2000/svg" xmlns:xlink="http://www.w3.org/1999/xlink">
<g id="graph0" class="graph" transform="scale(1 1) rotate(0) translate(4 130)">
<title>is_Bm1</title>
<!-- Node1 -->
<g id="node1" class="node">
<title>Node1</title>
<g id="a_node1"><a xlink:title=" ">
<polygon fill="#999999" stroke="#666666" points="185,-72.5 135,-72.5 135,-53.5 185,-53.5 185,-72.5"/>
<text text-anchor="middle" x="160" y="-60.5" font-family="Helvetica,sans-Serif" font-size="10.00">is_Bm1</text>
</a>
</g>
</g>
<!-- Node2 -->
<g id="node2" class="node">
<title>Node2</title>
<g id="a_node2"><a xlink:href="struct_num_repr_1_1dig__t.html#a6c4fba7ed06b49210ef5ff28df23a668" target="_top" xlink:title=" ">
<polygon fill="white" stroke="#666666" points="99,-126 0,-126 0,-96 99,-96 99,-126"/>
<text text-anchor="start" x="8" y="-114" font-family="Helvetica,sans-Serif" font-size="10.00">NumRepr::dig_t::is</text>
<text text-anchor="middle" x="49.5" y="-103" font-family="Helvetica,sans-Serif" font-size="10.00">_Bm1orBm2</text>
</a>
</g>
</g>
<!-- Node1&#45;&gt;Node2 -->
<g id="edge1" class="edge">
<title>Node1&#45;&gt;Node2</title>
<path fill="none" stroke="#63b8ff" d="M127.92,-76.75C114.36,-82.75 98.43,-89.8 84.55,-95.94"/>
<polygon fill="#63b8ff" stroke="#63b8ff" points="129.58,-79.84 137.3,-72.6 126.74,-73.44 129.58,-79.84"/>
</g>
<!-- Node3 -->
<g id="node3" class="node">
<title>Node3</title>
<g id="a_node3"><a xlink:href="struct_num_repr_1_1dig__t.html#ad54d97fbbe203e3aecaf937df2600ba2" target="_top" xlink:title=" ">
<polygon fill="white" stroke="#666666" points="99,-78 0,-78 0,-48 99,-48 99,-78"/>
<text text-anchor="start" x="8" y="-66" font-family="Helvetica,sans-Serif" font-size="10.00">NumRepr::dig_t::is</text>
<text text-anchor="middle" x="49.5" y="-55" font-family="Helvetica,sans-Serif" font-size="10.00">_maxormin</text>
</a>
</g>
</g>
<!-- Node1&#45;&gt;Node3 -->
<g id="edge2" class="edge">
<title>Node1&#45;&gt;Node3</title>
<path fill="none" stroke="#63b8ff" d="M124.79,-63C116.73,-63 107.98,-63 99.41,-63"/>
<polygon fill="#63b8ff" stroke="#63b8ff" points="124.92,-66.5 134.92,-63 124.92,-59.5 124.92,-66.5"/>
</g>
<!-- Node4 -->
<g id="node4" class="node">
<title>Node4</title>
<g id="a_node4"><a xlink:href="struct_num_repr_1_1dig__t.html#af91d529a5c32bcc62d02b4700713b512" target="_top" xlink:title=" ">
<polygon fill="white" stroke="#666666" points="99,-30 0,-30 0,0 99,0 99,-30"/>
<text text-anchor="start" x="8" y="-18" font-family="Helvetica,sans-Serif" font-size="10.00">NumRepr::dig_t::is</text>
<text text-anchor="middle" x="49.5" y="-7" font-family="Helvetica,sans-Serif" font-size="10.00">_near_maxormin</text>
</a>
</g>
</g>
<!-- Node1&#45;&gt;Node4 -->
<g id="edge3" class="edge">
<title>Node1&#45;&gt;Node4</title>
<path fill="none" stroke="#63b8ff" d="M127.92,-49.25C114.36,-43.25 98.43,-36.2 84.55,-30.06"/>
<polygon fill="#63b8ff" stroke="#63b8ff" points="126.74,-52.56 137.3,-53.4 129.58,-46.16 126.74,-52.56"/>
</g>
</g>
</svg>
