<?xml version="1.0" encoding="UTF-8" standalone="no"?>
<!DOCTYPE svg PUBLIC "-//W3C//DTD SVG 1.1//EN"
 "http://www.w3.org/Graphics/SVG/1.1/DTD/svg11.dtd">
<!-- Generated by graphviz version 2.44.1 (20220725.2034)
 -->
<!-- Title: NumRepr::nat_reg_digs_t::dig_Bm1 Pages: 1 -->
<svg width="317pt" height="230pt"
 viewBox="0.00 0.00 317.00 230.00" xmlns="http://www.w3.org/2000/svg" xmlns:xlink="http://www.w3.org/1999/xlink">
<g id="graph0" class="graph" transform="scale(1 1) rotate(0) translate(4 226)">
<title>NumRepr::nat_reg_digs_t::dig_Bm1</title>
<!-- Node1 -->
<g id="node1" class="node">
<title>Node1</title>
<g id="a_node1"><a xlink:title=" ">
<polygon fill="#999999" stroke="#666666" points="309,-126 189,-126 189,-96 309,-96 309,-126"/>
<text text-anchor="start" x="197" y="-114" font-family="Helvetica,sans-Serif" font-size="10.00">NumRepr::nat_reg_digs</text>
<text text-anchor="middle" x="249" y="-103" font-family="Helvetica,sans-Serif" font-size="10.00">_t::dig_Bm1</text>
</a>
</g>
</g>
<!-- Node2 -->
<g id="node2" class="node">
<title>Node2</title>
<g id="a_node2"><a xlink:href="struct_num_repr_1_1nat__reg__digs__t.html#af990d1acc2982f27df4ce9d72c3f327d" target="_top" xlink:title="END : OPERATORS | &amp; |= &amp;=.">
<polygon fill="white" stroke="#666666" points="136.5,-222 16.5,-222 16.5,-192 136.5,-192 136.5,-222"/>
<text text-anchor="start" x="24.5" y="-210" font-family="Helvetica,sans-Serif" font-size="10.00">NumRepr::nat_reg_digs</text>
<text text-anchor="middle" x="76.5" y="-199" font-family="Helvetica,sans-Serif" font-size="10.00">_t::m_add</text>
</a>
</g>
</g>
<!-- Node1&#45;&gt;Node2 -->
<g id="edge1" class="edge">
<title>Node1&#45;&gt;Node2</title>
<path fill="none" stroke="#63b8ff" d="M223.87,-133C205.55,-148.74 179.13,-169.46 153,-183 146.53,-186.35 139.5,-189.35 132.42,-191.99"/>
<polygon fill="#63b8ff" stroke="#63b8ff" points="226.46,-135.38 231.69,-126.16 221.85,-130.11 226.46,-135.38"/>
</g>
<!-- Node3 -->
<g id="node3" class="node">
<title>Node3</title>
<g id="a_node3"><a xlink:href="struct_num_repr_1_1nat__reg__digs__t.html#a65523219739c53202de6718061c2867d" target="_top" xlink:title="OPERATOR BASE_T &#45;= DIG_T CON NOMBRE M_SUB.">
<polygon fill="white" stroke="#666666" points="136.5,-174 16.5,-174 16.5,-144 136.5,-144 136.5,-174"/>
<text text-anchor="start" x="24.5" y="-162" font-family="Helvetica,sans-Serif" font-size="10.00">NumRepr::nat_reg_digs</text>
<text text-anchor="middle" x="76.5" y="-151" font-family="Helvetica,sans-Serif" font-size="10.00">_t::m_sub</text>
</a>
</g>
</g>
<!-- Node1&#45;&gt;Node3 -->
<g id="edge2" class="edge">
<title>Node1&#45;&gt;Node3</title>
<path fill="none" stroke="#63b8ff" d="M184.81,-128.79C167.05,-133.79 147.91,-139.18 130.79,-144"/>
<polygon fill="#63b8ff" stroke="#63b8ff" points="185.84,-132.13 194.52,-126.06 183.95,-125.4 185.84,-132.13"/>
</g>
<!-- Node4 -->
<g id="node4" class="node">
<title>Node4</title>
<g id="a_node4"><a xlink:href="struct_num_repr_1_1nat__reg__digs__t.html#a207bbdbb5f8b3ba6fef2cbd0fb3b2fd4" target="_top" xlink:title=" ">
<polygon fill="white" stroke="#666666" points="136.5,-126 16.5,-126 16.5,-96 136.5,-96 136.5,-126"/>
<text text-anchor="start" x="24.5" y="-114" font-family="Helvetica,sans-Serif" font-size="10.00">NumRepr::nat_reg_digs</text>
<text text-anchor="middle" x="76.5" y="-103" font-family="Helvetica,sans-Serif" font-size="10.00">_t::regd_base_N_Bm1</text>
</a>
</g>
</g>
<!-- Node1&#45;&gt;Node4 -->
<g id="edge3" class="edge">
<title>Node1&#45;&gt;Node4</title>
<path fill="none" stroke="#63b8ff" d="M178.78,-111C164.77,-111 150.17,-111 136.55,-111"/>
<polygon fill="#63b8ff" stroke="#63b8ff" points="178.85,-114.5 188.85,-111 178.85,-107.5 178.85,-114.5"/>
</g>
<!-- Node5 -->
<g id="node5" class="node">
<title>Node5</title>
<g id="a_node5"><a xlink:href="struct_num_repr_1_1nat__reg__digs__t.html#aced30ba689f6251588687cbc4891b055" target="_top" xlink:title=" ">
<polygon fill="white" stroke="#666666" points="153,-78 0,-78 0,-48 153,-48 153,-78"/>
<text text-anchor="start" x="8" y="-66" font-family="Helvetica,sans-Serif" font-size="10.00">NumRepr::nat_reg_digs</text>
<text text-anchor="middle" x="76.5" y="-55" font-family="Helvetica,sans-Serif" font-size="10.00">_t::regd_base_N_pow_n_B_m1</text>
</a>
</g>
</g>
<!-- Node1&#45;&gt;Node5 -->
<g id="edge4" class="edge">
<title>Node1&#45;&gt;Node5</title>
<path fill="none" stroke="#63b8ff" d="M184.81,-93.21C167.05,-88.21 147.91,-82.82 130.79,-78"/>
<polygon fill="#63b8ff" stroke="#63b8ff" points="183.95,-96.6 194.52,-95.94 185.84,-89.87 183.95,-96.6"/>
</g>
<!-- Node6 -->
<g id="node6" class="node">
<title>Node6</title>
<g id="a_node6"><a xlink:href="struct_num_repr_1_1nat__reg__digs__t.html#a9fb67b33d8f8d153fce5b8bcc575f283" target="_top" xlink:title=" ">
<polygon fill="white" stroke="#666666" points="136.5,-30 16.5,-30 16.5,0 136.5,0 136.5,-30"/>
<text text-anchor="start" x="24.5" y="-18" font-family="Helvetica,sans-Serif" font-size="10.00">NumRepr::nat_reg_digs</text>
<text text-anchor="middle" x="76.5" y="-7" font-family="Helvetica,sans-Serif" font-size="10.00">_t::regi_Bm1</text>
</a>
</g>
</g>
<!-- Node1&#45;&gt;Node6 -->
<g id="edge5" class="edge">
<title>Node1&#45;&gt;Node6</title>
<path fill="none" stroke="#63b8ff" d="M223.87,-89C205.55,-73.26 179.13,-52.54 153,-39 146.53,-35.65 139.5,-32.65 132.42,-30.01"/>
<polygon fill="#63b8ff" stroke="#63b8ff" points="221.85,-91.89 231.69,-95.84 226.46,-86.62 221.85,-91.89"/>
</g>
</g>
</svg>
