<?xml version="1.0" encoding="UTF-8" standalone="no"?>
<!DOCTYPE svg PUBLIC "-//W3C//DTD SVG 1.1//EN"
 "http://www.w3.org/Graphics/SVG/1.1/DTD/svg11.dtd">
<!-- Generated by graphviz version 2.44.1 (20220725.2034)
 -->
<!-- Title: NumRepr::dig_t::is_unit Pages: 1 -->
<svg width="247pt" height="101pt"
 viewBox="0.00 0.00 247.00 101.00" xmlns="http://www.w3.org/2000/svg" xmlns:xlink="http://www.w3.org/1999/xlink">
<g id="graph0" class="graph" transform="scale(1 1) rotate(0) translate(4 97)">
<title>NumRepr::dig_t::is_unit</title>
<!-- Node1 -->
<g id="node1" class="node">
<title>Node1</title>
<g id="a_node1"><a xlink:title=" ">
<polygon fill="#999999" stroke="#666666" points="120,-56 0,-56 0,-37 120,-37 120,-56"/>
<text text-anchor="middle" x="60" y="-44" font-family="Helvetica,sans-Serif" font-size="10.00">NumRepr::dig_t::is_unit</text>
</a>
</g>
</g>
<!-- Node2 -->
<g id="node2" class="node">
<title>Node2</title>
<g id="a_node2"><a xlink:href="nat__reg__digs__t_01_07_copia_01en_01conflicto_01de_01_m_s_i_012022-11-24_08_8hpp.html#a540a0e700a266a624a295898de9ff8fc" target="_top" xlink:title=" ">
<polygon fill="white" stroke="#666666" points="215,-93 180,-93 180,-74 215,-74 215,-93"/>
<text text-anchor="middle" x="197.5" y="-81" font-family="Helvetica,sans-Serif" font-size="10.00">is_0</text>
</a>
</g>
</g>
<!-- Node1&#45;&gt;Node2 -->
<g id="edge1" class="edge">
<title>Node1&#45;&gt;Node2</title>
<path fill="none" stroke="#63b8ff" d="M95.89,-56.03C118.97,-62.33 148.76,-70.46 169.91,-76.24"/>
<polygon fill="#63b8ff" stroke="#63b8ff" points="169.26,-79.69 179.83,-78.95 171.1,-72.94 169.26,-79.69"/>
</g>
<!-- Node3 -->
<g id="node3" class="node">
<title>Node3</title>
<g id="a_node3"><a xlink:href="nat__reg__digs__t_01_07_copia_01en_01conflicto_01de_01_m_s_i_012022-11-24_08_8hpp.html#a3fdf457344d84bef1762417b5f5228d2" target="_top" xlink:title=" ">
<polygon fill="white" stroke="#666666" points="215,-56 180,-56 180,-37 215,-37 215,-56"/>
<text text-anchor="middle" x="197.5" y="-44" font-family="Helvetica,sans-Serif" font-size="10.00">is_1</text>
</a>
</g>
</g>
<!-- Node1&#45;&gt;Node3 -->
<g id="edge2" class="edge">
<title>Node1&#45;&gt;Node3</title>
<path fill="none" stroke="#63b8ff" d="M120.04,-46.5C137.43,-46.5 155.6,-46.5 169.86,-46.5"/>
<polygon fill="#63b8ff" stroke="#63b8ff" points="169.93,-50 179.93,-46.5 169.93,-43 169.93,-50"/>
</g>
<!-- Node4 -->
<g id="node4" class="node">
<title>Node4</title>
<g id="a_node4"><a xlink:href="namespace_num_repr.html#a2546ea7fb1f063e87dbb450cfe5e3623" target="_top" xlink:title=" ">
<polygon fill="white" stroke="#666666" points="239,-19 156,-19 156,0 239,0 239,-19"/>
<text text-anchor="middle" x="197.5" y="-7" font-family="Helvetica,sans-Serif" font-size="10.00">NumRepr::ui_1</text>
</a>
</g>
</g>
<!-- Node1&#45;&gt;Node4 -->
<g id="edge3" class="edge">
<title>Node1&#45;&gt;Node4</title>
<path fill="none" stroke="#63b8ff" d="M95.89,-36.97C112.83,-32.35 133.38,-26.73 151.49,-21.79"/>
<polygon fill="#63b8ff" stroke="#63b8ff" points="152.53,-25.14 161.25,-19.12 150.68,-18.38 152.53,-25.14"/>
</g>
</g>
</svg>
