<?xml version="1.0" encoding="UTF-8" standalone="no"?>
<!DOCTYPE svg PUBLIC "-//W3C//DTD SVG 1.1//EN"
 "http://www.w3.org/Graphics/SVG/1.1/DTD/svg11.dtd">
<!-- Generated by graphviz version 2.44.1 (20220725.2034)
 -->
<!-- Title: int_num_t::ceros_a_la_izqda Pages: 1 -->
<svg width="244pt" height="82pt"
 viewBox="0.00 0.00 244.00 82.00" xmlns="http://www.w3.org/2000/svg" xmlns:xlink="http://www.w3.org/1999/xlink">
<g id="graph0" class="graph" transform="scale(1 1) rotate(0) translate(4 78)">
<title>int_num_t::ceros_a_la_izqda</title>
<!-- Node1 -->
<g id="node1" class="node">
<title>Node1</title>
<g id="a_node1"><a xlink:title=" ">
<polygon fill="#999999" stroke="#666666" points="100,-42.5 0,-42.5 0,-12.5 100,-12.5 100,-42.5"/>
<text text-anchor="start" x="8" y="-30.5" font-family="Helvetica,sans-Serif" font-size="10.00">int_num_t::ceros_a</text>
<text text-anchor="middle" x="50" y="-19.5" font-family="Helvetica,sans-Serif" font-size="10.00">_la_izqda</text>
</a>
</g>
</g>
<!-- Node2 -->
<g id="node2" class="node">
<title>Node2</title>
<g id="a_node2"><a xlink:href="structint__num__t.html#ae209e7a115353db1633459a602d24e0b" target="_top" xlink:title=" ">
<polygon fill="white" stroke="#666666" points="236,-56 136,-56 136,-37 236,-37 236,-56"/>
<text text-anchor="middle" x="186" y="-44" font-family="Helvetica,sans-Serif" font-size="10.00">int_num_t::num_int</text>
</a>
</g>
</g>
<!-- Node1&#45;&gt;Node2 -->
<g id="edge1" class="edge">
<title>Node1&#45;&gt;Node2</title>
<path fill="none" stroke="#63b8ff" d="M100.14,-34.47C108.51,-35.65 117.29,-36.9 125.89,-38.12"/>
<polygon fill="#63b8ff" stroke="#63b8ff" points="125.48,-41.6 135.87,-39.53 126.46,-34.66 125.48,-41.6"/>
</g>
<!-- Node3 -->
<g id="node3" class="node">
<title>Node3</title>
<g id="a_node3"><a xlink:href="structint__num__t.html#a489e24fd874f049d247539eb02416338" target="_top" xlink:title=" ">
<polygon fill="white" stroke="#666666" points="227.5,-19 144.5,-19 144.5,0 227.5,0 227.5,-19"/>
<text text-anchor="middle" x="186" y="-7" font-family="Helvetica,sans-Serif" font-size="10.00">int_num_t::size</text>
</a>
</g>
</g>
<!-- Node1&#45;&gt;Node3 -->
<g id="edge3" class="edge">
<title>Node1&#45;&gt;Node3</title>
<path fill="none" stroke="#63b8ff" d="M100.14,-20.9C111.23,-19.41 123.03,-17.82 134.19,-16.33"/>
<polygon fill="#63b8ff" stroke="#63b8ff" points="134.78,-19.78 144.22,-14.98 133.85,-12.84 134.78,-19.78"/>
</g>
<!-- Node2&#45;&gt;Node2 -->
<g id="edge2" class="edge">
<title>Node2&#45;&gt;Node2</title>
<path fill="none" stroke="#63b8ff" d="M165.04,-56.08C154.84,-64.73 161.83,-74 186,-74 201.49,-74 209.92,-70.2 211.3,-65.19"/>
<polygon fill="#63b8ff" stroke="#63b8ff" points="214.42,-63.61 206.96,-56.08 208.1,-66.62 214.42,-63.61"/>
</g>
</g>
</svg>
