<?xml version="1.0" encoding="UTF-8" standalone="no"?>
<!DOCTYPE svg PUBLIC "-//W3C//DTD SVG 1.1//EN"
 "http://www.w3.org/Graphics/SVG/1.1/DTD/svg11.dtd">
<!-- Generated by graphviz version 2.44.1 (20220725.2034)
 -->
<!-- Title: NumRepr::nat_reg_digs_t::dig_1 Pages: 1 -->
<!--zoomable 470 -->
<svg id="main" version="1.1" xmlns="http://www.w3.org/2000/svg" xmlns:xlink="http://www.w3.org/1999/xlink" xml:space="preserve" onload="init(evt)">
<style type="text/css"><![CDATA[
.edge:hover path { stroke: red; }
.edge:hover polygon { stroke: red; fill: red; }
]]></style>
<script type="text/javascript"><![CDATA[
var edges = document.getElementsByTagName('g');
if (edges && edges.length) {
  for (var i=0;i<edges.length;i++) {
    if (edges[i].id.substr(0,4)=='edge') {
      edges[i].setAttribute('class','edge');
    }
  }
}
]]></script>
        <defs>
                <circle id="rim" cx="0" cy="0" r="7"/>
                <circle id="rim2" cx="0" cy="0" r="3.5"/>
                <g id="zoomPlus">
                        <use xlink:href="#rim" fill="#404040">
                                <set attributeName="fill" to="#808080" begin="zoomplus.mouseover" end="zoomplus.mouseout"/>
                        </use>
                        <path d="M-4,0h8M0,-4v8" fill="none" stroke="white" stroke-width="1.5" pointer-events="none"/>
                </g>
                <g id="zoomMin">
                        <use xlink:href="#rim" fill="#404040">
                                <set attributeName="fill" to="#808080" begin="zoomminus.mouseover" end="zoomminus.mouseout"/>
                        </use>
                        <path d="M-4,0h8" fill="none" stroke="white" stroke-width="1.5" pointer-events="none"/>
                </g>
                <g id="dirArrow">
                        <path fill="none" stroke="white" stroke-width="1.5" d="M0,-3.0v7 M-2.5,-0.5L0,-3.0L2.5,-0.5"/>
                </g>
               <g id="resetDef">
                       <use xlink:href="#rim2" fill="#404040">
                               <set attributeName="fill" to="#808080" begin="reset.mouseover" end="reset.mouseout"/>
                       </use>
               </g>
        </defs>

<script type="text/javascript">
var viewWidth = 298;
var viewHeight = 470;
var sectionId = 'dynsection-16';
</script>
<script xlink:href="svgpan.js"/>
<svg id="graph" class="graph">
<g id="viewport">
<title>NumRepr::nat_reg_digs_t::dig_1</title>
<!-- Node1 -->
<g id="node1" class="node">
<title>Node1</title>
<g id="a_node1"><a xlink:title=" ">
<polygon fill="#999999" stroke="#666666" points="290,-246 170,-246 170,-216 290,-216 290,-246"/>
<text text-anchor="start" x="178" y="-234" font-family="Helvetica,sans-Serif" font-size="10.00">NumRepr::nat_reg_digs</text>
<text text-anchor="middle" x="230" y="-223" font-family="Helvetica,sans-Serif" font-size="10.00">_t::dig_1</text>
</a>
</g>
</g>
<!-- Node2 -->
<g id="node2" class="node">
<title>Node2</title>
<g id="a_node2"><a xlink:href="struct_num_repr_1_1nat__reg__digs__t.html#af990d1acc2982f27df4ce9d72c3f327d" target="_top" xlink:title="END : OPERATORS | &amp; |= &amp;=.">
<polygon fill="white" stroke="#666666" points="127,-462 7,-462 7,-432 127,-432 127,-462"/>
<text text-anchor="start" x="15" y="-450" font-family="Helvetica,sans-Serif" font-size="10.00">NumRepr::nat_reg_digs</text>
<text text-anchor="middle" x="67" y="-439" font-family="Helvetica,sans-Serif" font-size="10.00">_t::m_add</text>
</a>
</g>
</g>
<!-- Node1&#45;&gt;Node2 -->
<g id="edge1" class="edge">
<title>Node1&#45;&gt;Node2</title>
<path fill="none" stroke="#63b8ff" d="M223.12,-255.94C212.31,-296.51 185.51,-376.89 134,-423 130.18,-426.42 125.84,-429.36 121.25,-431.89"/>
<polygon fill="#63b8ff" stroke="#63b8ff" points="226.56,-256.63 225.64,-246.07 219.77,-254.89 226.56,-256.63"/>
</g>
<!-- Node3 -->
<g id="node3" class="node">
<title>Node3</title>
<g id="a_node3"><a xlink:href="struct_num_repr_1_1nat__reg__digs__t.html#a65523219739c53202de6718061c2867d" target="_top" xlink:title="OPERATOR BASE_T &#45;= DIG_T CON NOMBRE M_SUB.">
<polygon fill="white" stroke="#666666" points="127,-414 7,-414 7,-384 127,-384 127,-414"/>
<text text-anchor="start" x="15" y="-402" font-family="Helvetica,sans-Serif" font-size="10.00">NumRepr::nat_reg_digs</text>
<text text-anchor="middle" x="67" y="-391" font-family="Helvetica,sans-Serif" font-size="10.00">_t::m_sub</text>
</a>
</g>
</g>
<!-- Node1&#45;&gt;Node3 -->
<g id="edge2" class="edge">
<title>Node1&#45;&gt;Node3</title>
<path fill="none" stroke="#63b8ff" d="M218.63,-255.84C204.14,-287.69 174.94,-342.68 134,-375 129.69,-378.4 124.86,-381.35 119.82,-383.89"/>
<polygon fill="#63b8ff" stroke="#63b8ff" points="221.98,-256.93 222.82,-246.36 215.57,-254.1 221.98,-256.93"/>
</g>
<!-- Node4 -->
<g id="node4" class="node">
<title>Node4</title>
<g id="a_node4"><a xlink:href="struct_num_repr_1_1nat__reg__digs__t.html#a4f4dcebb7aaf1dacde690b6b847e66d4" target="_top" xlink:title=" ">
<polygon fill="white" stroke="#666666" points="127,-366 7,-366 7,-336 127,-336 127,-366"/>
<text text-anchor="start" x="15" y="-354" font-family="Helvetica,sans-Serif" font-size="10.00">NumRepr::nat_reg_digs</text>
<text text-anchor="middle" x="67" y="-343" font-family="Helvetica,sans-Serif" font-size="10.00">_t::operator+=</text>
</a>
</g>
</g>
<!-- Node1&#45;&gt;Node4 -->
<g id="edge3" class="edge">
<title>Node1&#45;&gt;Node4</title>
<path fill="none" stroke="#63b8ff" d="M211.32,-254C193.76,-275.48 165.03,-307.13 134,-327 128.76,-330.35 122.99,-333.32 117.11,-335.93"/>
<polygon fill="#63b8ff" stroke="#63b8ff" points="214.18,-256.03 217.7,-246.04 208.72,-251.65 214.18,-256.03"/>
</g>
<!-- Node5 -->
<g id="node5" class="node">
<title>Node5</title>
<g id="a_node5"><a xlink:href="struct_num_repr_1_1nat__reg__digs__t.html#ae1fb554a49a057b8e372a7c3b661559b" target="_top" xlink:title=" ">
<polygon fill="white" stroke="#666666" points="127,-318 7,-318 7,-288 127,-288 127,-318"/>
<text text-anchor="start" x="15" y="-306" font-family="Helvetica,sans-Serif" font-size="10.00">NumRepr::nat_reg_digs</text>
<text text-anchor="middle" x="67" y="-295" font-family="Helvetica,sans-Serif" font-size="10.00">_t::operator&#45;=</text>
</a>
</g>
</g>
<!-- Node1&#45;&gt;Node5 -->
<g id="edge4" class="edge">
<title>Node1&#45;&gt;Node5</title>
<path fill="none" stroke="#63b8ff" d="M191.93,-251.02C174.56,-260.06 153.46,-270.58 134,-279 126.84,-282.1 119.13,-285.15 111.6,-287.98"/>
<polygon fill="#63b8ff" stroke="#63b8ff" points="193.93,-253.93 201.15,-246.18 190.67,-247.73 193.93,-253.93"/>
</g>
<!-- Node6 -->
<g id="node6" class="node">
<title>Node6</title>
<g id="a_node6"><a xlink:href="struct_num_repr_1_1nat__reg__digs__t.html#a4348d3c7e66b4316c9336de940900b4f" target="_top" xlink:title=" ">
<polygon fill="white" stroke="#666666" points="127,-270 7,-270 7,-240 127,-240 127,-270"/>
<text text-anchor="start" x="15" y="-258" font-family="Helvetica,sans-Serif" font-size="10.00">NumRepr::nat_reg_digs</text>
<text text-anchor="middle" x="67" y="-247" font-family="Helvetica,sans-Serif" font-size="10.00">_t::regd_base_N_1</text>
</a>
</g>
</g>
<!-- Node1&#45;&gt;Node6 -->
<g id="edge5" class="edge">
<title>Node1&#45;&gt;Node6</title>
<path fill="none" stroke="#63b8ff" d="M159.99,-241.29C149.01,-242.92 137.75,-244.6 127.03,-246.2"/>
<polygon fill="#63b8ff" stroke="#63b8ff" points="160.59,-244.74 169.96,-239.8 159.56,-237.81 160.59,-244.74"/>
</g>
<!-- Node7 -->
<g id="node7" class="node">
<title>Node7</title>
<g id="a_node7"><a xlink:href="struct_num_repr_1_1nat__reg__digs__t.html#ac1b7ea3317908fc13e2372226218f30c" target="_top" xlink:title=" ">
<polygon fill="white" stroke="#666666" points="127,-222 7,-222 7,-192 127,-192 127,-222"/>
<text text-anchor="start" x="15" y="-210" font-family="Helvetica,sans-Serif" font-size="10.00">NumRepr::nat_reg_digs</text>
<text text-anchor="middle" x="67" y="-199" font-family="Helvetica,sans-Serif" font-size="10.00">_t::regd_base_N_B</text>
</a>
</g>
</g>
<!-- Node1&#45;&gt;Node7 -->
<g id="edge6" class="edge">
<title>Node1&#45;&gt;Node7</title>
<path fill="none" stroke="#63b8ff" d="M159.99,-220.71C149.01,-219.08 137.75,-217.4 127.03,-215.8"/>
<polygon fill="#63b8ff" stroke="#63b8ff" points="159.56,-224.19 169.96,-222.2 160.59,-217.26 159.56,-224.19"/>
</g>
<!-- Node8 -->
<g id="node8" class="node">
<title>Node8</title>
<g id="a_node8"><a xlink:href="struct_num_repr_1_1nat__reg__digs__t.html#afa3463868582493cbae113570c005ff5" target="_top" xlink:title=" ">
<polygon fill="white" stroke="#666666" points="134,-174 0,-174 0,-144 134,-144 134,-174"/>
<text text-anchor="start" x="8" y="-162" font-family="Helvetica,sans-Serif" font-size="10.00">NumRepr::nat_reg_digs</text>
<text text-anchor="middle" x="67" y="-151" font-family="Helvetica,sans-Serif" font-size="10.00">_t::regd_base_N_pow_n_B</text>
</a>
</g>
</g>
<!-- Node1&#45;&gt;Node8 -->
<g id="edge7" class="edge">
<title>Node1&#45;&gt;Node8</title>
<path fill="none" stroke="#63b8ff" d="M191.93,-210.98C174.56,-201.94 153.46,-191.42 134,-183 126.84,-179.9 119.13,-176.85 111.6,-174.02"/>
<polygon fill="#63b8ff" stroke="#63b8ff" points="190.67,-214.27 201.15,-215.82 193.93,-208.07 190.67,-214.27"/>
</g>
<!-- Node9 -->
<g id="node9" class="node">
<title>Node9</title>
<g id="a_node9"><a xlink:href="struct_num_repr_1_1nat__reg__digs__t.html#a11a8669870d26e8e0e4d0d2af3c814d8" target="_top" xlink:title=" ">
<polygon fill="white" stroke="#666666" points="127,-126 7,-126 7,-96 127,-96 127,-126"/>
<text text-anchor="start" x="15" y="-114" font-family="Helvetica,sans-Serif" font-size="10.00">NumRepr::nat_reg_digs</text>
<text text-anchor="middle" x="67" y="-103" font-family="Helvetica,sans-Serif" font-size="10.00">_t::regi_1</text>
</a>
</g>
</g>
<!-- Node1&#45;&gt;Node9 -->
<g id="edge8" class="edge">
<title>Node1&#45;&gt;Node9</title>
<path fill="none" stroke="#63b8ff" d="M211.32,-208C193.76,-186.52 165.03,-154.87 134,-135 128.76,-131.65 122.99,-128.68 117.11,-126.07"/>
<polygon fill="#63b8ff" stroke="#63b8ff" points="208.72,-210.35 217.7,-215.96 214.18,-205.97 208.72,-210.35"/>
</g>
<!-- Node10 -->
<g id="node10" class="node">
<title>Node10</title>
<g id="a_node10"><a xlink:href="struct_num_repr_1_1nat__reg__digs__t.html#a197912d151a7d43a251ec8c019701678" target="_top" xlink:title=" ">
<polygon fill="white" stroke="#666666" points="127,-78 7,-78 7,-48 127,-48 127,-78"/>
<text text-anchor="start" x="15" y="-66" font-family="Helvetica,sans-Serif" font-size="10.00">NumRepr::nat_reg_digs</text>
<text text-anchor="middle" x="67" y="-55" font-family="Helvetica,sans-Serif" font-size="10.00">_t::regi_B</text>
</a>
</g>
</g>
<!-- Node1&#45;&gt;Node10 -->
<g id="edge9" class="edge">
<title>Node1&#45;&gt;Node10</title>
<path fill="none" stroke="#63b8ff" d="M218.63,-206.16C204.14,-174.31 174.94,-119.32 134,-87 129.69,-83.6 124.86,-80.65 119.82,-78.11"/>
<polygon fill="#63b8ff" stroke="#63b8ff" points="215.57,-207.9 222.82,-215.64 221.98,-205.07 215.57,-207.9"/>
</g>
<!-- Node11 -->
<g id="node11" class="node">
<title>Node11</title>
<g id="a_node11"><a xlink:href="struct_num_repr_1_1nat__reg__digs__t.html#a72cde29ddb63c9bc1d77bd7ba9954e78" target="_top" xlink:title=" ">
<polygon fill="white" stroke="#666666" points="127,-30 7,-30 7,0 127,0 127,-30"/>
<text text-anchor="start" x="15" y="-18" font-family="Helvetica,sans-Serif" font-size="10.00">NumRepr::nat_reg_digs</text>
<text text-anchor="middle" x="67" y="-7" font-family="Helvetica,sans-Serif" font-size="10.00">_t::regi_pow_n_B</text>
</a>
</g>
</g>
<!-- Node1&#45;&gt;Node11 -->
<g id="edge10" class="edge">
<title>Node1&#45;&gt;Node11</title>
<path fill="none" stroke="#63b8ff" d="M223.12,-206.06C212.31,-165.49 185.51,-85.11 134,-39 130.18,-35.58 125.84,-32.64 121.25,-30.11"/>
<polygon fill="#63b8ff" stroke="#63b8ff" points="219.77,-207.11 225.64,-215.93 226.56,-205.37 219.77,-207.11"/>
</g>
</g>
</svg>
        <g id="navigator" transform="translate(0 0)" fill="#404254">
                <rect fill="#f2f5e9" fill-opacity="0.5" stroke="#606060" stroke-width=".5" x="0" y="0" width="60" height="60"/>
                <use id="zoomplus" xlink:href="#zoomPlus" x="17" y="9" onmousedown="handleZoom(evt,'in')"/>
                <use id="zoomminus" xlink:href="#zoomMin" x="42" y="9" onmousedown="handleZoom(evt,'out')"/>
                <use id="reset" xlink:href="#resetDef" x="30" y="36" onmousedown="handleReset()"/>
                <g id="arrowUp" xlink:href="#dirArrow" transform="translate(30 24)" onmousedown="handlePan(0,-1)">
                  <use xlink:href="#rim" fill="#404040">
                        <set attributeName="fill" to="#808080" begin="arrowUp.mouseover" end="arrowUp.mouseout"/>
                  </use>
                  <path fill="none" stroke="white" stroke-width="1.5" d="M0,-3.0v7 M-2.5,-0.5L0,-3.0L2.5,-0.5"/>
                </g>
                <g id="arrowRight" xlink:href="#dirArrow" transform="rotate(90) translate(36 -43)" onmousedown="handlePan(1,0)">
                  <use xlink:href="#rim" fill="#404040">
                        <set attributeName="fill" to="#808080" begin="arrowRight.mouseover" end="arrowRight.mouseout"/>
                  </use>
                  <path fill="none" stroke="white" stroke-width="1.5" d="M0,-3.0v7 M-2.5,-0.5L0,-3.0L2.5,-0.5"/>
                </g>
                <g id="arrowDown" xlink:href="#dirArrow" transform="rotate(180) translate(-30 -48)" onmousedown="handlePan(0,1)">
                  <use xlink:href="#rim" fill="#404040">
                        <set attributeName="fill" to="#808080" begin="arrowDown.mouseover" end="arrowDown.mouseout"/>
                  </use>
                  <path fill="none" stroke="white" stroke-width="1.5" d="M0,-3.0v7 M-2.5,-0.5L0,-3.0L2.5,-0.5"/>
                </g>
                <g id="arrowLeft" xlink:href="#dirArrow" transform="rotate(270) translate(-36 17)" onmousedown="handlePan(-1,0)">
                  <use xlink:href="#rim" fill="#404040">
                        <set attributeName="fill" to="#808080" begin="arrowLeft.mouseover" end="arrowLeft.mouseout"/>
                  </use>
                  <path fill="none" stroke="white" stroke-width="1.5" d="M0,-3.0v7 M-2.5,-0.5L0,-3.0L2.5,-0.5"/>
                </g>
        </g>
        <svg viewBox="0 0 15 15" width="100%" height="30px" preserveAspectRatio="xMaxYMin meet">
         <g id="arrow_out" transform="scale(0.3 0.3)">
          <a xlink:href="struct_num_repr_1_1nat__reg__digs__t_af5f8d64e4139b59eada5483f2e3b4713_icgraph_org.svg" target="_base">
           <rect id="button" ry="5" rx="5" y="6" x="6" height="38" width="38"
                fill="#f2f5e9" fill-opacity="0.5" stroke="#606060" stroke-width="1.0"/>
           <path id="arrow"
             d="M 11.500037,31.436501 C 11.940474,20.09759 22.043105,11.32322 32.158766,21.979434 L 37.068811,17.246167 C 37.068811,17.246167 37.088388,32 37.088388,32 L 22.160133,31.978069 C 22.160133,31.978069 26.997745,27.140456 26.997745,27.140456 C 18.528582,18.264221 13.291696,25.230495 11.500037,31.436501 z"
             style="fill:#404040;"/>
          </a>
         </g>
        </svg>
</svg>
