<?xml version="1.0" encoding="UTF-8" standalone="no"?>
<!DOCTYPE svg PUBLIC "-//W3C//DTD SVG 1.1//EN"
 "http://www.w3.org/Graphics/SVG/1.1/DTD/svg11.dtd">
<!-- Generated by graphviz version 2.44.1 (20220725.2034)
 -->
<!-- Title: NumRepr::nat_reg_digs_t::dig_0 Pages: 1 -->
<svg width="473pt" height="350pt"
 viewBox="0.00 0.00 473.00 350.00" xmlns="http://www.w3.org/2000/svg" xmlns:xlink="http://www.w3.org/1999/xlink">
<g id="graph0" class="graph" transform="scale(1 1) rotate(0) translate(4 346)">
<title>NumRepr::nat_reg_digs_t::dig_0</title>
<!-- Node1 -->
<g id="node1" class="node">
<title>Node1</title>
<g id="a_node1"><a xlink:title=" ">
<polygon fill="#999999" stroke="#666666" points="465,-222 345,-222 345,-192 465,-192 465,-222"/>
<text text-anchor="start" x="353" y="-210" font-family="Helvetica,sans-Serif" font-size="10.00">NumRepr::nat_reg_digs</text>
<text text-anchor="middle" x="405" y="-199" font-family="Helvetica,sans-Serif" font-size="10.00">_t::dig_0</text>
</a>
</g>
</g>
<!-- Node2 -->
<g id="node2" class="node">
<title>Node2</title>
<g id="a_node2"><a xlink:href="struct_num_repr_1_1nat__reg__digs__t.html#af990d1acc2982f27df4ce9d72c3f327d" target="_top" xlink:title="END : OPERATORS | &amp; |= &amp;=.">
<polygon fill="white" stroke="#666666" points="292.5,-342 172.5,-342 172.5,-312 292.5,-312 292.5,-342"/>
<text text-anchor="start" x="180.5" y="-330" font-family="Helvetica,sans-Serif" font-size="10.00">NumRepr::nat_reg_digs</text>
<text text-anchor="middle" x="232.5" y="-319" font-family="Helvetica,sans-Serif" font-size="10.00">_t::m_add</text>
</a>
</g>
</g>
<!-- Node1&#45;&gt;Node2 -->
<g id="edge1" class="edge">
<title>Node1&#45;&gt;Node2</title>
<path fill="none" stroke="#63b8ff" d="M386.5,-230.29C369.07,-251.97 340.43,-283.77 309,-303 303.49,-306.37 297.45,-309.32 291.27,-311.88"/>
<polygon fill="#63b8ff" stroke="#63b8ff" points="389.4,-232.26 392.83,-222.24 383.9,-227.93 389.4,-232.26"/>
</g>
<!-- Node3 -->
<g id="node3" class="node">
<title>Node3</title>
<g id="a_node3"><a xlink:href="struct_num_repr_1_1nat__reg__digs__t.html#a65523219739c53202de6718061c2867d" target="_top" xlink:title="OPERATOR BASE_T &#45;= DIG_T CON NOMBRE M_SUB.">
<polygon fill="white" stroke="#666666" points="292.5,-294 172.5,-294 172.5,-264 292.5,-264 292.5,-294"/>
<text text-anchor="start" x="180.5" y="-282" font-family="Helvetica,sans-Serif" font-size="10.00">NumRepr::nat_reg_digs</text>
<text text-anchor="middle" x="232.5" y="-271" font-family="Helvetica,sans-Serif" font-size="10.00">_t::m_sub</text>
</a>
</g>
</g>
<!-- Node1&#45;&gt;Node3 -->
<g id="edge2" class="edge">
<title>Node1&#45;&gt;Node3</title>
<path fill="none" stroke="#63b8ff" d="M367.84,-226.99C350.37,-236.2 328.92,-246.86 309,-255 301.23,-258.17 292.88,-261.2 284.66,-263.96"/>
<polygon fill="#63b8ff" stroke="#63b8ff" points="369.93,-229.84 377.1,-222.05 366.63,-223.67 369.93,-229.84"/>
</g>
<!-- Node4 -->
<g id="node4" class="node">
<title>Node4</title>
<g id="a_node4"><a xlink:href="struct_num_repr_1_1nat__reg__digs__t.html#a48e13b837d97d5b20e16d06fdb896453" target="_top" xlink:title="CONSTRUCTOR POR DEFECTO.">
<polygon fill="white" stroke="#666666" points="292.5,-246 172.5,-246 172.5,-216 292.5,-216 292.5,-246"/>
<text text-anchor="start" x="180.5" y="-234" font-family="Helvetica,sans-Serif" font-size="10.00">NumRepr::nat_reg_digs</text>
<text text-anchor="middle" x="232.5" y="-223" font-family="Helvetica,sans-Serif" font-size="10.00">_t::nat_reg_digs_t</text>
</a>
</g>
</g>
<!-- Node1&#45;&gt;Node4 -->
<g id="edge3" class="edge">
<title>Node1&#45;&gt;Node4</title>
<path fill="none" stroke="#63b8ff" d="M334.78,-216.74C320.77,-218.72 306.17,-220.77 292.55,-222.69"/>
<polygon fill="#63b8ff" stroke="#63b8ff" points="335.43,-220.19 344.85,-215.33 334.46,-213.25 335.43,-220.19"/>
</g>
<!-- Node5 -->
<g id="node5" class="node">
<title>Node5</title>
<g id="a_node5"><a xlink:href="struct_num_repr_1_1nat__reg__digs__t.html#a0e0ce3574da31820f62617ff44a48ba7" target="_top" xlink:title=" ">
<polygon fill="white" stroke="#666666" points="292.5,-198 172.5,-198 172.5,-168 292.5,-168 292.5,-198"/>
<text text-anchor="start" x="180.5" y="-186" font-family="Helvetica,sans-Serif" font-size="10.00">NumRepr::nat_reg_digs</text>
<text text-anchor="middle" x="232.5" y="-175" font-family="Helvetica,sans-Serif" font-size="10.00">_t::regd_base_N_0</text>
</a>
</g>
</g>
<!-- Node1&#45;&gt;Node5 -->
<g id="edge4" class="edge">
<title>Node1&#45;&gt;Node5</title>
<path fill="none" stroke="#63b8ff" d="M334.78,-197.26C320.77,-195.28 306.17,-193.23 292.55,-191.31"/>
<polygon fill="#63b8ff" stroke="#63b8ff" points="334.46,-200.75 344.85,-198.67 335.43,-193.81 334.46,-200.75"/>
</g>
<!-- Node6 -->
<g id="node6" class="node">
<title>Node6</title>
<g id="a_node6"><a xlink:href="struct_num_repr_1_1nat__reg__digs__t.html#aced30ba689f6251588687cbc4891b055" target="_top" xlink:title=" ">
<polygon fill="white" stroke="#666666" points="309,-150 156,-150 156,-120 309,-120 309,-150"/>
<text text-anchor="start" x="164" y="-138" font-family="Helvetica,sans-Serif" font-size="10.00">NumRepr::nat_reg_digs</text>
<text text-anchor="middle" x="232.5" y="-127" font-family="Helvetica,sans-Serif" font-size="10.00">_t::regd_base_N_pow_n_B_m1</text>
</a>
</g>
</g>
<!-- Node1&#45;&gt;Node6 -->
<g id="edge5" class="edge">
<title>Node1&#45;&gt;Node6</title>
<path fill="none" stroke="#63b8ff" d="M367.84,-187.01C350.37,-177.8 328.92,-167.14 309,-159 301.23,-155.83 292.88,-152.8 284.66,-150.04"/>
<polygon fill="#63b8ff" stroke="#63b8ff" points="366.63,-190.33 377.1,-191.95 369.93,-184.16 366.63,-190.33"/>
</g>
<!-- Node7 -->
<g id="node7" class="node">
<title>Node7</title>
<g id="a_node7"><a xlink:href="struct_num_repr_1_1nat__reg__digs__t.html#acf4ea2de98d127c1bfc0ffef53fc2843" target="_top" xlink:title="ARRAYS DE ENTEROS (CONSTANTES EN TIEMPO DE COMPILACION INMEDIATAS)">
<polygon fill="white" stroke="#666666" points="292.5,-102 172.5,-102 172.5,-72 292.5,-72 292.5,-102"/>
<text text-anchor="start" x="180.5" y="-90" font-family="Helvetica,sans-Serif" font-size="10.00">NumRepr::nat_reg_digs</text>
<text text-anchor="middle" x="232.5" y="-79" font-family="Helvetica,sans-Serif" font-size="10.00">_t::regi_0</text>
</a>
</g>
</g>
<!-- Node1&#45;&gt;Node7 -->
<g id="edge6" class="edge">
<title>Node1&#45;&gt;Node7</title>
<path fill="none" stroke="#63b8ff" d="M386.5,-183.71C369.07,-162.03 340.43,-130.23 309,-111 303.49,-107.63 297.45,-104.68 291.27,-102.12"/>
<polygon fill="#63b8ff" stroke="#63b8ff" points="383.9,-186.07 392.83,-191.76 389.4,-181.74 383.9,-186.07"/>
</g>
<!-- Node8 -->
<g id="node8" class="node">
<title>Node8</title>
<g id="a_node8"><a xlink:href="struct_num_repr_1_1nat__reg__digs__t.html#a11a8669870d26e8e0e4d0d2af3c814d8" target="_top" xlink:title=" ">
<polygon fill="white" stroke="#666666" points="120,-174 0,-174 0,-144 120,-144 120,-174"/>
<text text-anchor="start" x="8" y="-162" font-family="Helvetica,sans-Serif" font-size="10.00">NumRepr::nat_reg_digs</text>
<text text-anchor="middle" x="60" y="-151" font-family="Helvetica,sans-Serif" font-size="10.00">_t::regi_1</text>
</a>
</g>
</g>
<!-- Node7&#45;&gt;Node8 -->
<g id="edge7" class="edge">
<title>Node7&#45;&gt;Node8</title>
<path fill="none" stroke="#63b8ff" d="M167.93,-105.76C163.85,-107.41 159.84,-109.16 156,-111 138.67,-119.33 136.99,-126 120,-135 114.04,-138.16 107.57,-141.17 101.17,-143.94"/>
<polygon fill="#63b8ff" stroke="#63b8ff" points="169.47,-108.92 177.57,-102.09 166.98,-102.38 169.47,-108.92"/>
</g>
<!-- Node9 -->
<g id="node9" class="node">
<title>Node9</title>
<g id="a_node9"><a xlink:href="struct_num_repr_1_1nat__reg__digs__t.html#a197912d151a7d43a251ec8c019701678" target="_top" xlink:title=" ">
<polygon fill="white" stroke="#666666" points="120,-126 0,-126 0,-96 120,-96 120,-126"/>
<text text-anchor="start" x="8" y="-114" font-family="Helvetica,sans-Serif" font-size="10.00">NumRepr::nat_reg_digs</text>
<text text-anchor="middle" x="60" y="-103" font-family="Helvetica,sans-Serif" font-size="10.00">_t::regi_B</text>
</a>
</g>
</g>
<!-- Node7&#45;&gt;Node9 -->
<g id="edge8" class="edge">
<title>Node7&#45;&gt;Node9</title>
<path fill="none" stroke="#63b8ff" d="M162.28,-96.74C148.27,-98.72 133.67,-100.77 120.05,-102.69"/>
<polygon fill="#63b8ff" stroke="#63b8ff" points="162.93,-100.19 172.35,-95.33 161.96,-93.25 162.93,-100.19"/>
</g>
<!-- Node10 -->
<g id="node10" class="node">
<title>Node10</title>
<g id="a_node10"><a xlink:href="struct_num_repr_1_1nat__reg__digs__t.html#a9fb67b33d8f8d153fce5b8bcc575f283" target="_top" xlink:title=" ">
<polygon fill="white" stroke="#666666" points="120,-78 0,-78 0,-48 120,-48 120,-78"/>
<text text-anchor="start" x="8" y="-66" font-family="Helvetica,sans-Serif" font-size="10.00">NumRepr::nat_reg_digs</text>
<text text-anchor="middle" x="60" y="-55" font-family="Helvetica,sans-Serif" font-size="10.00">_t::regi_Bm1</text>
</a>
</g>
</g>
<!-- Node7&#45;&gt;Node10 -->
<g id="edge9" class="edge">
<title>Node7&#45;&gt;Node10</title>
<path fill="none" stroke="#63b8ff" d="M162.28,-77.26C148.27,-75.28 133.67,-73.23 120.05,-71.31"/>
<polygon fill="#63b8ff" stroke="#63b8ff" points="161.96,-80.75 172.35,-78.67 162.93,-73.81 161.96,-80.75"/>
</g>
<!-- Node11 -->
<g id="node11" class="node">
<title>Node11</title>
<g id="a_node11"><a xlink:href="struct_num_repr_1_1nat__reg__digs__t.html#a72cde29ddb63c9bc1d77bd7ba9954e78" target="_top" xlink:title=" ">
<polygon fill="white" stroke="#666666" points="120,-30 0,-30 0,0 120,0 120,-30"/>
<text text-anchor="start" x="8" y="-18" font-family="Helvetica,sans-Serif" font-size="10.00">NumRepr::nat_reg_digs</text>
<text text-anchor="middle" x="60" y="-7" font-family="Helvetica,sans-Serif" font-size="10.00">_t::regi_pow_n_B</text>
</a>
</g>
</g>
<!-- Node7&#45;&gt;Node11 -->
<g id="edge10" class="edge">
<title>Node7&#45;&gt;Node11</title>
<path fill="none" stroke="#63b8ff" d="M187.53,-67.83C167.05,-58.96 142.32,-48.34 120,-39 113.06,-36.1 105.65,-33.04 98.5,-30.12"/>
<polygon fill="#63b8ff" stroke="#63b8ff" points="186.35,-71.13 196.92,-71.9 189.14,-64.71 186.35,-71.13"/>
</g>
</g>
</svg>
