<?xml version="1.0" encoding="UTF-8" standalone="no"?>
<!DOCTYPE svg PUBLIC "-//W3C//DTD SVG 1.1//EN"
 "http://www.w3.org/Graphics/SVG/1.1/DTD/svg11.dtd">
<!-- Generated by graphviz version 2.44.1 (20220725.2034)
 -->
<!-- Title: int_num_t::operator/= Pages: 1 -->
<svg width="376pt" height="46pt"
 viewBox="0.00 0.00 376.00 46.00" xmlns="http://www.w3.org/2000/svg" xmlns:xlink="http://www.w3.org/1999/xlink">
<g id="graph0" class="graph" transform="scale(1 1) rotate(0) translate(4 42)">
<title>int_num_t::operator/=</title>
<!-- Node1 -->
<g id="node1" class="node">
<title>Node1</title>
<g id="a_node1"><a xlink:title=" ">
<polygon fill="#999999" stroke="#666666" points="110,-19 0,-19 0,0 110,0 110,-19"/>
<text text-anchor="middle" x="55" y="-7" font-family="Helvetica,sans-Serif" font-size="10.00">int_num_t::operator/=</text>
</a>
</g>
</g>
<!-- Node2 -->
<g id="node2" class="node">
<title>Node2</title>
<g id="a_node2"><a xlink:href="structint__num__t.html#acf8be3251610cf7365b5a7ae48dfa001" target="_top" xlink:title=" ">
<polygon fill="white" stroke="#666666" points="232,-38 146,-38 146,-19 232,-19 232,-38"/>
<text text-anchor="middle" x="189" y="-26" font-family="Helvetica,sans-Serif" font-size="10.00">int_num_t::absp</text>
</a>
</g>
</g>
<!-- Node1&#45;&gt;Node2 -->
<g id="edge1" class="edge">
<title>Node1&#45;&gt;Node2</title>
<path fill="none" stroke="#63b8ff" d="M110.07,-17.28C118.57,-18.51 127.35,-19.77 135.81,-20.99"/>
<polygon fill="#63b8ff" stroke="#63b8ff" points="135.54,-24.48 145.93,-22.45 136.53,-17.56 135.54,-24.48"/>
</g>
<!-- Node3 -->
<g id="node3" class="node">
<title>Node3</title>
<g id="a_node3"><a xlink:href="structint__num__t.html#ae209e7a115353db1633459a602d24e0b" target="_top" xlink:title=" ">
<polygon fill="white" stroke="#666666" points="368,-19 268,-19 268,0 368,0 368,-19"/>
<text text-anchor="middle" x="318" y="-7" font-family="Helvetica,sans-Serif" font-size="10.00">int_num_t::num_int</text>
</a>
</g>
</g>
<!-- Node1&#45;&gt;Node3 -->
<g id="edge4" class="edge">
<title>Node1&#45;&gt;Node3</title>
<path fill="none" stroke="#63b8ff" d="M110.08,-9.5C153.16,-9.5 213.4,-9.5 257.77,-9.5"/>
<polygon fill="#63b8ff" stroke="#63b8ff" points="257.84,-13 267.84,-9.5 257.84,-6 257.84,-13"/>
</g>
<!-- Node2&#45;&gt;Node3 -->
<g id="edge2" class="edge">
<title>Node2&#45;&gt;Node3</title>
<path fill="none" stroke="#63b8ff" d="M232.29,-22.17C240.48,-20.95 249.21,-19.64 257.83,-18.35"/>
<polygon fill="#63b8ff" stroke="#63b8ff" points="258.49,-21.79 267.86,-16.85 257.45,-14.87 258.49,-21.79"/>
</g>
<!-- Node3&#45;&gt;Node3 -->
<g id="edge3" class="edge">
<title>Node3&#45;&gt;Node3</title>
<path fill="none" stroke="#63b8ff" d="M298.27,-19.08C288.67,-27.73 295.25,-37 318,-37 332.22,-37 340.12,-33.38 341.7,-28.55"/>
<polygon fill="#63b8ff" stroke="#63b8ff" points="344.83,-26.95 337.73,-19.08 338.37,-29.66 344.83,-26.95"/>
</g>
</g>
</svg>
