<?xml version="1.0" encoding="UTF-8" standalone="no"?>
<!DOCTYPE svg PUBLIC "-//W3C//DTD SVG 1.1//EN"
 "http://www.w3.org/Graphics/SVG/1.1/DTD/svg11.dtd">
<!-- Generated by graphviz version 2.44.1 (20220725.2034)
 -->
<!-- Title: NumRepr::nat_rat_fixed_reg_t::rev_subreg_digs_pe Pages: 1 -->
<svg width="468pt" height="38pt"
 viewBox="0.00 0.00 468.00 38.00" xmlns="http://www.w3.org/2000/svg" xmlns:xlink="http://www.w3.org/1999/xlink">
<g id="graph0" class="graph" transform="scale(1 1) rotate(0) translate(4 34)">
<title>NumRepr::nat_rat_fixed_reg_t::rev_subreg_digs_pe</title>
<!-- Node1 -->
<g id="node1" class="node">
<title>Node1</title>
<g id="a_node1"><a xlink:title=" ">
<polygon fill="#999999" stroke="#666666" points="137,-30 0,-30 0,0 137,0 137,-30"/>
<text text-anchor="start" x="8" y="-18" font-family="Helvetica,sans-Serif" font-size="10.00">NumRepr::nat_rat_fixed</text>
<text text-anchor="middle" x="68.5" y="-7" font-family="Helvetica,sans-Serif" font-size="10.00">_reg_t::rev_subreg_digs_pe</text>
</a>
</g>
</g>
<!-- Node2 -->
<g id="node2" class="node">
<title>Node2</title>
<g id="a_node2"><a xlink:href="struct_num_repr_1_1nat__rat__fixed__reg__t.html#a05f3a766ce29786655fc99812d550fa6" target="_top" xlink:title=" ">
<polygon fill="white" stroke="#666666" points="303,-30 173,-30 173,0 303,0 303,-30"/>
<text text-anchor="start" x="181" y="-18" font-family="Helvetica,sans-Serif" font-size="10.00">NumRepr::nat_rat_fixed</text>
<text text-anchor="middle" x="238" y="-7" font-family="Helvetica,sans-Serif" font-size="10.00">_reg_t::pfx_rat_reg_digs_t</text>
</a>
</g>
</g>
<!-- Node1&#45;&gt;Node2 -->
<g id="edge1" class="edge">
<title>Node1&#45;&gt;Node2</title>
<path fill="none" stroke="#63b8ff" d="M137.15,-15C145.54,-15 154.15,-15 162.64,-15"/>
<polygon fill="#63b8ff" stroke="#63b8ff" points="162.9,-18.5 172.9,-15 162.9,-11.5 162.9,-18.5"/>
</g>
<!-- Node3 -->
<g id="node3" class="node">
<title>Node3</title>
<g id="a_node3"><a xlink:href="struct_num_repr_1_1nat__rat__fixed__reg__t.html#a235bc4a9ae726bbf7c7d5933d9a62b2e" target="_top" xlink:title=" ">
<polygon fill="white" stroke="#666666" points="460,-30 339,-30 339,0 460,0 460,-30"/>
<text text-anchor="start" x="347" y="-18" font-family="Helvetica,sans-Serif" font-size="10.00">NumRepr::nat_rat_fixed</text>
<text text-anchor="middle" x="399.5" y="-7" font-family="Helvetica,sans-Serif" font-size="10.00">_reg_t::dig_0</text>
</a>
</g>
</g>
<!-- Node2&#45;&gt;Node3 -->
<g id="edge2" class="edge">
<title>Node2&#45;&gt;Node3</title>
<path fill="none" stroke="#63b8ff" d="M303.42,-15C311.71,-15 320.24,-15 328.62,-15"/>
<polygon fill="#63b8ff" stroke="#63b8ff" points="328.75,-18.5 338.75,-15 328.75,-11.5 328.75,-18.5"/>
</g>
</g>
</svg>
