<?xml version="1.0" encoding="UTF-8" standalone="no"?>
<!DOCTYPE svg PUBLIC "-//W3C//DTD SVG 1.1//EN"
 "http://www.w3.org/Graphics/SVG/1.1/DTD/svg11.dtd">
<!-- Generated by graphviz version 2.44.1 (20220725.2034)
 -->
<!-- Title: int_num_t::reduce Pages: 1 -->
<svg width="252pt" height="101pt"
 viewBox="0.00 0.00 252.00 101.00" xmlns="http://www.w3.org/2000/svg" xmlns:xlink="http://www.w3.org/1999/xlink">
<g id="graph0" class="graph" transform="scale(1 1) rotate(0) translate(4 97)">
<title>int_num_t::reduce</title>
<!-- Node1 -->
<g id="node1" class="node">
<title>Node1</title>
<g id="a_node1"><a xlink:title=" ">
<polygon fill="#999999" stroke="#666666" points="244,-56 149,-56 149,-37 244,-37 244,-56"/>
<text text-anchor="middle" x="196.5" y="-44" font-family="Helvetica,sans-Serif" font-size="10.00">int_num_t::reduce</text>
</a>
</g>
</g>
<!-- Node2 -->
<g id="node2" class="node">
<title>Node2</title>
<g id="a_node2"><a xlink:href="structint__num__t.html#ab4f61bc56098580779f5fb4f8d52cf44" target="_top" xlink:title=" ">
<polygon fill="white" stroke="#666666" points="111.5,-93 1.5,-93 1.5,-74 111.5,-74 111.5,-93"/>
<text text-anchor="middle" x="56.5" y="-81" font-family="Helvetica,sans-Serif" font-size="10.00">int_num_t::operator*=</text>
</a>
</g>
</g>
<!-- Node1&#45;&gt;Node2 -->
<g id="edge1" class="edge">
<title>Node1&#45;&gt;Node2</title>
<path fill="none" stroke="#63b8ff" d="M150.29,-58.62C131.83,-63.57 110.78,-69.22 93.4,-73.88"/>
<polygon fill="#63b8ff" stroke="#63b8ff" points="151.21,-62 159.96,-56.03 149.4,-55.24 151.21,-62"/>
</g>
<!-- Node3 -->
<g id="node3" class="node">
<title>Node3</title>
<g id="a_node3"><a xlink:href="structint__num__t.html#adac8cb6ab4d43634b44059a0d7a21dc4" target="_top" xlink:title=" ">
<polygon fill="white" stroke="#666666" points="113,-56 0,-56 0,-37 113,-37 113,-56"/>
<text text-anchor="middle" x="56.5" y="-44" font-family="Helvetica,sans-Serif" font-size="10.00">int_num_t::operator+=</text>
</a>
</g>
</g>
<!-- Node1&#45;&gt;Node3 -->
<g id="edge2" class="edge">
<title>Node1&#45;&gt;Node3</title>
<path fill="none" stroke="#63b8ff" d="M138.69,-46.5C130.28,-46.5 121.63,-46.5 113.24,-46.5"/>
<polygon fill="#63b8ff" stroke="#63b8ff" points="138.78,-50 148.78,-46.5 138.78,-43 138.78,-50"/>
</g>
<!-- Node4 -->
<g id="node4" class="node">
<title>Node4</title>
<g id="a_node4"><a xlink:href="structint__num__t.html#adcde21a88cbb4b810259e675944e1ec8" target="_top" xlink:title=" ">
<polygon fill="white" stroke="#666666" points="111.5,-19 1.5,-19 1.5,0 111.5,0 111.5,-19"/>
<text text-anchor="middle" x="56.5" y="-7" font-family="Helvetica,sans-Serif" font-size="10.00">int_num_t::operator&#45;=</text>
</a>
</g>
</g>
<!-- Node1&#45;&gt;Node4 -->
<g id="edge3" class="edge">
<title>Node1&#45;&gt;Node4</title>
<path fill="none" stroke="#63b8ff" d="M150.29,-34.38C131.83,-29.43 110.78,-23.78 93.4,-19.12"/>
<polygon fill="#63b8ff" stroke="#63b8ff" points="149.4,-37.76 159.96,-36.97 151.21,-31 149.4,-37.76"/>
</g>
</g>
</svg>
