<?xml version="1.0" encoding="UTF-8" standalone="no"?>
<!DOCTYPE svg PUBLIC "-//W3C//DTD SVG 1.1//EN"
 "http://www.w3.org/Graphics/SVG/1.1/DTD/svg11.dtd">
<!-- Generated by graphviz version 2.44.1 (20220725.2034)
 -->
<!-- Title: NumRepr::nat_rat_fixed_reg_t::operator&gt;&gt;= Pages: 1 -->
<svg width="452pt" height="59pt"
 viewBox="0.00 0.00 452.00 59.00" xmlns="http://www.w3.org/2000/svg" xmlns:xlink="http://www.w3.org/1999/xlink">
<g id="graph0" class="graph" transform="scale(1 1) rotate(0) translate(4 55)">
<title>NumRepr::nat_rat_fixed_reg_t::operator&gt;&gt;=</title>
<!-- Node1 -->
<g id="node1" class="node">
<title>Node1</title>
<g id="a_node1"><a xlink:title=" ">
<polygon fill="#999999" stroke="#666666" points="121,-51 0,-51 0,-21 121,-21 121,-51"/>
<text text-anchor="start" x="8" y="-39" font-family="Helvetica,sans-Serif" font-size="10.00">NumRepr::nat_rat_fixed</text>
<text text-anchor="middle" x="60.5" y="-28" font-family="Helvetica,sans-Serif" font-size="10.00">_reg_t::operator&gt;&gt;=</text>
</a>
</g>
</g>
<!-- Node2 -->
<g id="node2" class="node">
<title>Node2</title>
<g id="a_node2"><a xlink:href="struct_num_repr_1_1nat__rat__fixed__reg__t.html#a235bc4a9ae726bbf7c7d5933d9a62b2e" target="_top" xlink:title=" ">
<polygon fill="white" stroke="#666666" points="444,-51 323,-51 323,-21 444,-21 444,-51"/>
<text text-anchor="start" x="331" y="-39" font-family="Helvetica,sans-Serif" font-size="10.00">NumRepr::nat_rat_fixed</text>
<text text-anchor="middle" x="383.5" y="-28" font-family="Helvetica,sans-Serif" font-size="10.00">_reg_t::dig_0</text>
</a>
</g>
</g>
<!-- Node1&#45;&gt;Node2 -->
<g id="edge1" class="edge">
<title>Node1&#45;&gt;Node2</title>
<path fill="none" stroke="#63b8ff" d="M121.1,-38.16C132.99,-38.51 145.39,-38.82 157,-39 214.77,-39.91 229.23,-39.91 287,-39 295.34,-38.87 304.1,-38.67 312.78,-38.44"/>
<polygon fill="#63b8ff" stroke="#63b8ff" points="313,-41.94 322.9,-38.16 312.81,-34.94 313,-41.94"/>
</g>
<!-- Node3 -->
<g id="node3" class="node">
<title>Node3</title>
<g id="a_node3"><a xlink:href="struct_num_repr_1_1nat__rat__fixed__reg__t.html#a05f3a766ce29786655fc99812d550fa6" target="_top" xlink:title=" ">
<polygon fill="white" stroke="#666666" points="287,-30 157,-30 157,0 287,0 287,-30"/>
<text text-anchor="start" x="165" y="-18" font-family="Helvetica,sans-Serif" font-size="10.00">NumRepr::nat_rat_fixed</text>
<text text-anchor="middle" x="222" y="-7" font-family="Helvetica,sans-Serif" font-size="10.00">_reg_t::pfx_rat_reg_digs_t</text>
</a>
</g>
</g>
<!-- Node1&#45;&gt;Node3 -->
<g id="edge2" class="edge">
<title>Node1&#45;&gt;Node3</title>
<path fill="none" stroke="#63b8ff" d="M121.35,-28.12C129.67,-27.02 138.3,-25.89 146.85,-24.76"/>
<polygon fill="#63b8ff" stroke="#63b8ff" points="147.36,-28.23 156.82,-23.45 146.44,-21.29 147.36,-28.23"/>
</g>
<!-- Node3&#45;&gt;Node2 -->
<g id="edge3" class="edge">
<title>Node3&#45;&gt;Node2</title>
<path fill="none" stroke="#63b8ff" d="M287.42,-23.48C295.71,-24.57 304.24,-25.7 312.62,-26.8"/>
<polygon fill="#63b8ff" stroke="#63b8ff" points="312.37,-30.3 322.75,-28.13 313.29,-23.36 312.37,-30.3"/>
</g>
</g>
</svg>
