<?xml version="1.0" encoding="UTF-8" standalone="no"?>
<!DOCTYPE svg PUBLIC "-//W3C//DTD SVG 1.1//EN"
 "http://www.w3.org/Graphics/SVG/1.1/DTD/svg11.dtd">
<!-- Generated by graphviz version 2.44.1 (20220725.2034)
 -->
<!-- Title: int_num_t::num_int Pages: 1 -->
<!--zoomable 1706 -->
<svg id="main" version="1.1" xmlns="http://www.w3.org/2000/svg" xmlns:xlink="http://www.w3.org/1999/xlink" xml:space="preserve" onload="init(evt)">
<style type="text/css"><![CDATA[
.edge:hover path { stroke: red; }
.edge:hover polygon { stroke: red; fill: red; }
]]></style>
<script type="text/javascript"><![CDATA[
var edges = document.getElementsByTagName('g');
if (edges && edges.length) {
  for (var i=0;i<edges.length;i++) {
    if (edges[i].id.substr(0,4)=='edge') {
      edges[i].setAttribute('class','edge');
    }
  }
}
]]></script>
        <defs>
                <circle id="rim" cx="0" cy="0" r="7"/>
                <circle id="rim2" cx="0" cy="0" r="3.5"/>
                <g id="zoomPlus">
                        <use xlink:href="#rim" fill="#404040">
                                <set attributeName="fill" to="#808080" begin="zoomplus.mouseover" end="zoomplus.mouseout"/>
                        </use>
                        <path d="M-4,0h8M0,-4v8" fill="none" stroke="white" stroke-width="1.5" pointer-events="none"/>
                </g>
                <g id="zoomMin">
                        <use xlink:href="#rim" fill="#404040">
                                <set attributeName="fill" to="#808080" begin="zoomminus.mouseover" end="zoomminus.mouseout"/>
                        </use>
                        <path d="M-4,0h8" fill="none" stroke="white" stroke-width="1.5" pointer-events="none"/>
                </g>
                <g id="dirArrow">
                        <path fill="none" stroke="white" stroke-width="1.5" d="M0,-3.0v7 M-2.5,-0.5L0,-3.0L2.5,-0.5"/>
                </g>
               <g id="resetDef">
                       <use xlink:href="#rim2" fill="#404040">
                               <set attributeName="fill" to="#808080" begin="reset.mouseover" end="reset.mouseout"/>
                       </use>
               </g>
        </defs>

<script type="text/javascript">
var viewWidth = 415;
var viewHeight = 1706;
var sectionId = 'dynsection-26';
</script>
<script xlink:href="svgpan.js"/>
<svg id="graph" class="graph">
<g id="viewport">
<title>int_num_t::num_int</title>
<!-- Node1 -->
<g id="node1" class="node">
<title>Node1</title>
<g id="a_node1"><a xlink:title=" ">
<polygon fill="#999999" stroke="#666666" points="407,-828.5 307,-828.5 307,-809.5 407,-809.5 407,-828.5"/>
<text text-anchor="middle" x="357" y="-816.5" font-family="Helvetica,sans-Serif" font-size="10.00">int_num_t::num_int</text>
</a>
</g>
</g>
<!-- Node1&#45;&gt;Node1 -->
<g id="edge23" class="edge">
<title>Node1&#45;&gt;Node1</title>
<path fill="none" stroke="#63b8ff" d="M384.16,-837.69C382.68,-842.7 373.62,-846.5 357,-846.5 331.05,-846.5 323.55,-837.23 334.5,-828.58"/>
<polygon fill="#63b8ff" stroke="#63b8ff" points="387.17,-835.89 379.5,-828.58 380.94,-839.08 387.17,-835.89"/>
</g>
<!-- Node2 -->
<g id="node2" class="node">
<title>Node2</title>
<g id="a_node2"><a xlink:href="structint__num__t.html#a94f6a0a608614642522b2d8fff91aff0" target="_top" xlink:title=" ">
<polygon fill="white" stroke="#666666" points="250.5,-1660.5 169.5,-1660.5 169.5,-1641.5 250.5,-1641.5 250.5,-1660.5"/>
<text text-anchor="middle" x="210" y="-1648.5" font-family="Helvetica,sans-Serif" font-size="10.00">int_num_t::abs</text>
</a>
</g>
</g>
<!-- Node1&#45;&gt;Node2 -->
<g id="edge1" class="edge">
<title>Node1&#45;&gt;Node2</title>
<path fill="none" stroke="#63b8ff" d="M355.14,-838.67C349.82,-956.12 320.15,-1562.02 271,-1627 265.86,-1633.8 258.48,-1638.68 250.65,-1642.18"/>
<polygon fill="#63b8ff" stroke="#63b8ff" points="358.64,-838.74 355.59,-828.6 351.64,-838.43 358.64,-838.74"/>
</g>
<!-- Node3 -->
<g id="node3" class="node">
<title>Node3</title>
<g id="a_node3"><a xlink:href="structint__num__t.html#a958e81879bcf27742be664eaf019a125" target="_top" xlink:title=" ">
<polygon fill="white" stroke="#666666" points="111.5,-1679.5 1.5,-1679.5 1.5,-1660.5 111.5,-1660.5 111.5,-1679.5"/>
<text text-anchor="middle" x="56.5" y="-1667.5" font-family="Helvetica,sans-Serif" font-size="10.00">int_num_t::operator%</text>
</a>
</g>
</g>
<!-- Node1&#45;&gt;Node3 -->
<g id="edge26" class="edge">
<title>Node1&#45;&gt;Node3</title>
<path fill="none" stroke="#63b8ff" d="M355.57,-838.87C352.75,-961.52 334.79,-1612.27 271,-1670 218.92,-1717.13 126.96,-1694.49 82.69,-1679.54"/>
<polygon fill="#63b8ff" stroke="#63b8ff" points="359.08,-838.76 355.8,-828.69 352.08,-838.61 359.08,-838.76"/>
</g>
<!-- Node4 -->
<g id="node4" class="node">
<title>Node4</title>
<g id="a_node4"><a xlink:href="structint__num__t.html#acc818e68d0ebebc9ee1a14c0a9506328" target="_top" xlink:title=" ">
<polygon fill="white" stroke="#666666" points="108.5,-1632.5 4.5,-1632.5 4.5,-1613.5 108.5,-1613.5 108.5,-1632.5"/>
<text text-anchor="middle" x="56.5" y="-1620.5" font-family="Helvetica,sans-Serif" font-size="10.00">int_num_t::operator/</text>
</a>
</g>
</g>
<!-- Node1&#45;&gt;Node4 -->
<g id="edge36" class="edge">
<title>Node1&#45;&gt;Node4</title>
<path fill="none" stroke="#63b8ff" d="M355.12,-838.87C349.9,-952.55 321.53,-1517.39 271,-1574 230.74,-1619.11 158.13,-1627.09 108.89,-1626.66"/>
<polygon fill="#63b8ff" stroke="#63b8ff" points="358.63,-838.69 355.59,-828.54 351.64,-838.37 358.63,-838.69"/>
</g>
<!-- Node5 -->
<g id="node5" class="node">
<title>Node5</title>
<g id="a_node5"><a xlink:href="structint__num__t.html#acf8be3251610cf7365b5a7ae48dfa001" target="_top" xlink:title=" ">
<polygon fill="white" stroke="#666666" points="253,-1432.5 167,-1432.5 167,-1413.5 253,-1413.5 253,-1432.5"/>
<text text-anchor="middle" x="210" y="-1420.5" font-family="Helvetica,sans-Serif" font-size="10.00">int_num_t::absp</text>
</a>
</g>
</g>
<!-- Node1&#45;&gt;Node5 -->
<g id="edge4" class="edge">
<title>Node1&#45;&gt;Node5</title>
<path fill="none" stroke="#63b8ff" d="M355.68,-838.64C353.82,-929.59 341.87,-1309.16 271,-1399 266,-1405.34 259.06,-1410.02 251.68,-1413.46"/>
<polygon fill="#63b8ff" stroke="#63b8ff" points="359.18,-838.67 355.87,-828.6 352.18,-838.54 359.18,-838.67"/>
</g>
<!-- Node6 -->
<g id="node6" class="node">
<title>Node6</title>
<g id="a_node6"><a xlink:href="structint__num__t.html#ab4f61bc56098580779f5fb4f8d52cf44" target="_top" xlink:title=" ">
<polygon fill="white" stroke="#666666" points="111.5,-1470.5 1.5,-1470.5 1.5,-1451.5 111.5,-1451.5 111.5,-1470.5"/>
<text text-anchor="middle" x="56.5" y="-1458.5" font-family="Helvetica,sans-Serif" font-size="10.00">int_num_t::operator*=</text>
</a>
</g>
</g>
<!-- Node1&#45;&gt;Node6 -->
<g id="edge29" class="edge">
<title>Node1&#45;&gt;Node6</title>
<path fill="none" stroke="#63b8ff" d="M356.44,-838.77C358.16,-935.38 360.36,-1356.73 271,-1442 224.83,-1486.06 144.7,-1479.61 96.84,-1470.56"/>
<polygon fill="#63b8ff" stroke="#63b8ff" points="359.94,-838.57 356.24,-828.64 352.94,-838.71 359.94,-838.57"/>
</g>
<!-- Node7 -->
<g id="node7" class="node">
<title>Node7</title>
<g id="a_node7"><a xlink:href="structint__num__t.html#a6087d5c5da71405c13e8e818a8cac6b0" target="_top" xlink:title=" ">
<polygon fill="white" stroke="#666666" points="111.5,-1413.5 1.5,-1413.5 1.5,-1394.5 111.5,-1394.5 111.5,-1413.5"/>
<text text-anchor="middle" x="56.5" y="-1401.5" font-family="Helvetica,sans-Serif" font-size="10.00">int_num_t::operator/=</text>
</a>
</g>
</g>
<!-- Node1&#45;&gt;Node7 -->
<g id="edge37" class="edge">
<title>Node1&#45;&gt;Node7</title>
<path fill="none" stroke="#63b8ff" d="M355.88,-838.69C354.91,-927.41 346.33,-1289 271,-1366 249.35,-1388.14 167.37,-1397.51 111.53,-1401.39"/>
<polygon fill="#63b8ff" stroke="#63b8ff" points="359.38,-838.67 355.97,-828.64 352.38,-838.61 359.38,-838.67"/>
</g>
<!-- Node8 -->
<g id="node8" class="node">
<title>Node8</title>
<g id="a_node8"><a xlink:href="structint__num__t.html#aec4ca498212a838867d18a5cd246aa6f" target="_top" xlink:title=" ">
<polygon fill="white" stroke="#666666" points="264.5,-1357 155.5,-1357 155.5,-1327 264.5,-1327 264.5,-1357"/>
<text text-anchor="start" x="163.5" y="-1345" font-family="Helvetica,sans-Serif" font-size="10.00">int_num_t::Bm1_a_la</text>
<text text-anchor="middle" x="210" y="-1334" font-family="Helvetica,sans-Serif" font-size="10.00">_drcha</text>
</a>
</g>
</g>
<!-- Node1&#45;&gt;Node8 -->
<g id="edge7" class="edge">
<title>Node1&#45;&gt;Node8</title>
<path fill="none" stroke="#63b8ff" d="M355.15,-838.99C351.21,-922.43 332.31,-1242.1 271,-1318 268.25,-1321.4 264.95,-1324.33 261.32,-1326.84"/>
<polygon fill="#63b8ff" stroke="#63b8ff" points="358.65,-838.98 355.61,-828.83 351.66,-838.67 358.65,-838.98"/>
</g>
<!-- Node9 -->
<g id="node9" class="node">
<title>Node9</title>
<g id="a_node9"><a xlink:href="structint__num__t.html#acbbb77c55849e7b5b26a162c90acf32d" target="_top" xlink:title=" ">
<polygon fill="white" stroke="#666666" points="264.5,-1309 155.5,-1309 155.5,-1279 264.5,-1279 264.5,-1309"/>
<text text-anchor="start" x="163.5" y="-1297" font-family="Helvetica,sans-Serif" font-size="10.00">int_num_t::Bm1_a_la</text>
<text text-anchor="middle" x="210" y="-1286" font-family="Helvetica,sans-Serif" font-size="10.00">_izqda</text>
</a>
</g>
</g>
<!-- Node1&#45;&gt;Node9 -->
<g id="edge8" class="edge">
<title>Node1&#45;&gt;Node9</title>
<path fill="none" stroke="#63b8ff" d="M354.75,-839.02C349.47,-917.38 326.72,-1202.25 271,-1270 268.15,-1273.47 264.72,-1276.43 260.98,-1278.98"/>
<polygon fill="#63b8ff" stroke="#63b8ff" points="358.27,-838.85 355.42,-828.64 351.28,-838.4 358.27,-838.85"/>
</g>
<!-- Node10 -->
<g id="node10" class="node">
<title>Node10</title>
<g id="a_node10"><a xlink:href="structint__num__t.html#aae2d5fd1815a61a2aadc21c151a34e6b" target="_top" xlink:title=" ">
<polygon fill="white" stroke="#666666" points="260,-1261 160,-1261 160,-1231 260,-1231 260,-1261"/>
<text text-anchor="start" x="168" y="-1249" font-family="Helvetica,sans-Serif" font-size="10.00">int_num_t::ceros_a</text>
<text text-anchor="middle" x="210" y="-1238" font-family="Helvetica,sans-Serif" font-size="10.00">_la_izqda</text>
</a>
</g>
</g>
<!-- Node1&#45;&gt;Node10 -->
<g id="edge9" class="edge">
<title>Node1&#45;&gt;Node10</title>
<path fill="none" stroke="#63b8ff" d="M354.07,-838.83C346.72,-910.69 318.52,-1156.46 271,-1217 266.64,-1222.55 260.95,-1227.1 254.82,-1230.82"/>
<polygon fill="#63b8ff" stroke="#63b8ff" points="357.59,-838.8 355.1,-828.5 350.62,-838.11 357.59,-838.8"/>
</g>
<!-- Node11 -->
<g id="node11" class="node">
<title>Node11</title>
<g id="a_node11"><a xlink:href="structint__num__t.html#a55203f0d36573721c63de3837f8d416e" target="_top" xlink:title=" ">
<polygon fill="white" stroke="#666666" points="259.5,-1175 160.5,-1175 160.5,-1145 259.5,-1145 259.5,-1175"/>
<text text-anchor="start" x="168.5" y="-1163" font-family="Helvetica,sans-Serif" font-size="10.00">int_num_t::digs_no</text>
<text text-anchor="middle" x="210" y="-1152" font-family="Helvetica,sans-Serif" font-size="10.00">_significativos</text>
</a>
</g>
</g>
<!-- Node1&#45;&gt;Node11 -->
<g id="edge10" class="edge">
<title>Node1&#45;&gt;Node11</title>
<path fill="none" stroke="#63b8ff" d="M356.45,-838.76C356.64,-893.21 349.77,-1047.3 271,-1136 267.72,-1139.69 263.8,-1142.82 259.55,-1145.48"/>
<polygon fill="#63b8ff" stroke="#63b8ff" points="359.95,-838.66 356.33,-828.71 352.95,-838.75 359.95,-838.66"/>
</g>
<!-- Node12 -->
<g id="node12" class="node">
<title>Node12</title>
<g id="a_node12"><a xlink:href="structint__num__t.html#a0fa45dac193d9e3ccf9dcbd3a0f0a6bd" target="_top" xlink:title=" ">
<polygon fill="white" stroke="#666666" points="111.5,-1190.5 1.5,-1190.5 1.5,-1171.5 111.5,-1171.5 111.5,-1190.5"/>
<text text-anchor="middle" x="56.5" y="-1178.5" font-family="Helvetica,sans-Serif" font-size="10.00">int_num_t::operator!=</text>
</a>
</g>
</g>
<!-- Node1&#45;&gt;Node12 -->
<g id="edge25" class="edge">
<title>Node1&#45;&gt;Node12</title>
<path fill="none" stroke="#63b8ff" d="M354.53,-838.85C348.9,-908.53 326.27,-1140.12 271,-1184 216.27,-1227.45 126.38,-1205.28 82.79,-1190.58"/>
<polygon fill="#63b8ff" stroke="#63b8ff" points="358.02,-839.02 355.31,-828.78 351.04,-838.48 358.02,-839.02"/>
</g>
<!-- Node13 -->
<g id="node13" class="node">
<title>Node13</title>
<g id="a_node13"><a xlink:href="structint__num__t.html#a066a49e72fc5bde03a85fdd2fa693973" target="_top" xlink:title=" ">
<polygon fill="white" stroke="#666666" points="251.5,-1126.5 168.5,-1126.5 168.5,-1107.5 251.5,-1107.5 251.5,-1126.5"/>
<text text-anchor="middle" x="210" y="-1114.5" font-family="Helvetica,sans-Serif" font-size="10.00">int_num_t::div2</text>
</a>
</g>
</g>
<!-- Node1&#45;&gt;Node13 -->
<g id="edge12" class="edge">
<title>Node1&#45;&gt;Node13</title>
<path fill="none" stroke="#63b8ff" d="M356.01,-838.79C354.94,-889.51 344.94,-1025.3 271,-1099 265.69,-1104.3 258.88,-1108.05 251.77,-1110.7"/>
<polygon fill="#63b8ff" stroke="#63b8ff" points="359.52,-838.6 356.13,-828.56 352.52,-838.52 359.52,-838.6"/>
</g>
<!-- Node14 -->
<g id="node14" class="node">
<title>Node14</title>
<g id="a_node14"><a xlink:href="structint__num__t.html#a11d24d94e5768ecceb341991ab7203a9" target="_top" xlink:title=" ">
<polygon fill="white" stroke="#666666" points="254.5,-1089.5 165.5,-1089.5 165.5,-1070.5 254.5,-1070.5 254.5,-1089.5"/>
<text text-anchor="middle" x="210" y="-1077.5" font-family="Helvetica,sans-Serif" font-size="10.00">int_num_t::div2p</text>
</a>
</g>
</g>
<!-- Node1&#45;&gt;Node14 -->
<g id="edge13" class="edge">
<title>Node1&#45;&gt;Node14</title>
<path fill="none" stroke="#63b8ff" d="M354.95,-838.62C351.44,-884.51 336.22,-999.65 271,-1062 266.36,-1066.43 260.67,-1069.78 254.67,-1072.3"/>
<polygon fill="#63b8ff" stroke="#63b8ff" points="358.46,-838.73 355.62,-828.52 351.47,-838.27 358.46,-838.73"/>
</g>
<!-- Node15 -->
<g id="node15" class="node">
<title>Node15</title>
<g id="a_node15"><a xlink:href="structint__num__t.html#aba3e9122269d8c60f598be8416397ba2" target="_top" xlink:title=" ">
<polygon fill="white" stroke="#666666" points="252.5,-1052.5 167.5,-1052.5 167.5,-1033.5 252.5,-1033.5 252.5,-1052.5"/>
<text text-anchor="middle" x="210" y="-1040.5" font-family="Helvetica,sans-Serif" font-size="10.00">int_num_t::divB</text>
</a>
</g>
</g>
<!-- Node1&#45;&gt;Node15 -->
<g id="edge14" class="edge">
<title>Node1&#45;&gt;Node15</title>
<path fill="none" stroke="#63b8ff" d="M353.5,-838.93C347.29,-879.9 327.38,-973.99 271,-1025 265.76,-1029.74 259.31,-1033.24 252.61,-1035.81"/>
<polygon fill="#63b8ff" stroke="#63b8ff" points="356.99,-839.25 354.9,-828.86 350.05,-838.28 356.99,-839.25"/>
</g>
<!-- Node16 -->
<g id="node16" class="node">
<title>Node16</title>
<g id="a_node16"><a xlink:href="structint__num__t.html#ad1ba25e7c16f7c3bc032c36646f00f68" target="_top" xlink:title=" ">
<polygon fill="white" stroke="#666666" points="255,-1015.5 165,-1015.5 165,-996.5 255,-996.5 255,-1015.5"/>
<text text-anchor="middle" x="210" y="-1003.5" font-family="Helvetica,sans-Serif" font-size="10.00">int_num_t::divBp</text>
</a>
</g>
</g>
<!-- Node1&#45;&gt;Node16 -->
<g id="edge15" class="edge">
<title>Node1&#45;&gt;Node16</title>
<path fill="none" stroke="#63b8ff" d="M351.55,-838.69C342.57,-873.92 318.9,-947.81 271,-988 266.33,-991.91 260.84,-994.98 255.1,-997.38"/>
<polygon fill="#63b8ff" stroke="#63b8ff" points="355.02,-839.24 353.96,-828.7 348.21,-837.6 355.02,-839.24"/>
</g>
<!-- Node17 -->
<g id="node17" class="node">
<title>Node17</title>
<g id="a_node17"><a xlink:href="structint__num__t.html#a4b7bc7c10c03f0560b724614e4e4278f" target="_top" xlink:title=" ">
<polygon fill="white" stroke="#666666" points="263.5,-978.5 156.5,-978.5 156.5,-959.5 263.5,-959.5 263.5,-978.5"/>
<text text-anchor="middle" x="210" y="-966.5" font-family="Helvetica,sans-Serif" font-size="10.00">int_num_t::EuclidDiv</text>
</a>
</g>
</g>
<!-- Node1&#45;&gt;Node17 -->
<g id="edge16" class="edge">
<title>Node1&#45;&gt;Node17</title>
<path fill="none" stroke="#63b8ff" d="M348.85,-837.96C337.04,-866.7 310.77,-921.08 271,-951 266.48,-954.4 261.32,-957.16 255.97,-959.4"/>
<polygon fill="#63b8ff" stroke="#63b8ff" points="352.12,-839.22 352.54,-828.63 345.61,-836.64 352.12,-839.22"/>
</g>
<!-- Node18 -->
<g id="node18" class="node">
<title>Node18</title>
<g id="a_node18"><a xlink:href="structint__num__t.html#a4e1b2b56ffe5f4d8f0cf2b31fee922fc" target="_top" xlink:title=" ">
<polygon fill="white" stroke="#666666" points="267,-941.5 153,-941.5 153,-922.5 267,-922.5 267,-941.5"/>
<text text-anchor="middle" x="210" y="-929.5" font-family="Helvetica,sans-Serif" font-size="10.00">int_num_t::EuclidDivP</text>
</a>
</g>
</g>
<!-- Node1&#45;&gt;Node18 -->
<g id="edge17" class="edge">
<title>Node1&#45;&gt;Node18</title>
<path fill="none" stroke="#63b8ff" d="M344.29,-836.9C329.58,-858.02 302.44,-892.8 271,-913 265.03,-916.84 258.22,-919.95 251.38,-922.46"/>
<polygon fill="#63b8ff" stroke="#63b8ff" points="347.26,-838.76 349.97,-828.52 341.46,-834.83 347.26,-838.76"/>
</g>
<!-- Node19 -->
<g id="node19" class="node">
<title>Node19</title>
<g id="a_node19"><a xlink:href="structint__num__t.html#ab074dd2e3e7b88588a25d371dc2c1636" target="_top" xlink:title=" ">
<polygon fill="white" stroke="#666666" points="259.5,-904 160.5,-904 160.5,-874 259.5,-874 259.5,-904"/>
<text text-anchor="start" x="168.5" y="-892" font-family="Helvetica,sans-Serif" font-size="10.00">int_num_t::filled_of</text>
<text text-anchor="middle" x="210" y="-881" font-family="Helvetica,sans-Serif" font-size="10.00">_all_digits_are_0</text>
</a>
</g>
</g>
<!-- Node1&#45;&gt;Node19 -->
<g id="edge18" class="edge">
<title>Node1&#45;&gt;Node19</title>
<path fill="none" stroke="#63b8ff" d="M330.58,-833.76C313.89,-843.2 291.45,-855.42 271,-865 264.5,-868.05 257.5,-871.07 250.65,-873.89"/>
<polygon fill="#63b8ff" stroke="#63b8ff" points="332.73,-836.56 339.68,-828.57 329.26,-830.48 332.73,-836.56"/>
</g>
<!-- Node20 -->
<g id="node20" class="node">
<title>Node20</title>
<g id="a_node20"><a xlink:href="structint__num__t.html#ac789d6752f2a0d51e6e3304c66529716" target="_top" xlink:title=" ">
<polygon fill="white" stroke="#666666" points="262,-856 158,-856 158,-826 262,-826 262,-856"/>
<text text-anchor="start" x="166" y="-844" font-family="Helvetica,sans-Serif" font-size="10.00">int_num_t::filled_of</text>
<text text-anchor="middle" x="210" y="-833" font-family="Helvetica,sans-Serif" font-size="10.00">_all_digits_are_Bm1</text>
</a>
</g>
</g>
<!-- Node1&#45;&gt;Node20 -->
<g id="edge19" class="edge">
<title>Node1&#45;&gt;Node20</title>
<path fill="none" stroke="#63b8ff" d="M296.9,-827.97C285.33,-829.72 273.29,-831.55 262.02,-833.26"/>
<polygon fill="#63b8ff" stroke="#63b8ff" points="297.55,-831.41 306.91,-826.45 296.5,-824.49 297.55,-831.41"/>
</g>
<!-- Node21 -->
<g id="node21" class="node">
<title>Node21</title>
<g id="a_node21"><a xlink:href="structint__num__t.html#a3a812ddf5e23511d20f4b40f0a1d119e" target="_top" xlink:title=" ">
<polygon fill="white" stroke="#666666" points="256.5,-807.5 163.5,-807.5 163.5,-788.5 256.5,-788.5 256.5,-807.5"/>
<text text-anchor="middle" x="210" y="-795.5" font-family="Helvetica,sans-Serif" font-size="10.00">int_num_t::mC_B</text>
</a>
</g>
</g>
<!-- Node1&#45;&gt;Node21 -->
<g id="edge20" class="edge">
<title>Node1&#45;&gt;Node21</title>
<path fill="none" stroke="#63b8ff" d="M296.81,-810.43C283.4,-808.49 269.36,-806.45 256.62,-804.61"/>
<polygon fill="#63b8ff" stroke="#63b8ff" points="296.51,-813.92 306.91,-811.89 297.51,-806.99 296.51,-813.92"/>
</g>
<!-- Node23 -->
<g id="node23" class="node">
<title>Node23</title>
<g id="a_node23"><a xlink:href="structint__num__t.html#ac325668599524297888380a9239225cb" target="_top" xlink:title=" ">
<polygon fill="white" stroke="#666666" points="263.5,-770.5 156.5,-770.5 156.5,-751.5 263.5,-751.5 263.5,-770.5"/>
<text text-anchor="middle" x="210" y="-758.5" font-family="Helvetica,sans-Serif" font-size="10.00">int_num_t::mC_Bm1</text>
</a>
</g>
</g>
<!-- Node1&#45;&gt;Node23 -->
<g id="edge22" class="edge">
<title>Node1&#45;&gt;Node23</title>
<path fill="none" stroke="#63b8ff" d="M328.72,-804.9C312.27,-796.71 290.73,-786.56 271,-779 262.98,-775.93 254.19,-773.04 245.88,-770.51"/>
<polygon fill="#63b8ff" stroke="#63b8ff" points="327.27,-808.08 337.77,-809.46 330.42,-801.83 327.27,-808.08"/>
</g>
<!-- Node24 -->
<g id="node24" class="node">
<title>Node24</title>
<g id="a_node24"><a xlink:href="structint__num__t.html#a2f3c3db7d5472decaeb8ef735f01541e" target="_top" xlink:title=" ">
<polygon fill="white" stroke="#666666" points="262,-733.5 158,-733.5 158,-714.5 262,-714.5 262,-733.5"/>
<text text-anchor="middle" x="210" y="-721.5" font-family="Helvetica,sans-Serif" font-size="10.00">int_num_t::operator!</text>
</a>
</g>
</g>
<!-- Node1&#45;&gt;Node24 -->
<g id="edge24" class="edge">
<title>Node1&#45;&gt;Node24</title>
<path fill="none" stroke="#63b8ff" d="M341.27,-801.75C325.53,-784.33 299.02,-757.81 271,-742 265.03,-738.63 258.37,-735.83 251.71,-733.52"/>
<polygon fill="#63b8ff" stroke="#63b8ff" points="338.85,-804.3 348.09,-809.48 344.1,-799.67 338.85,-804.3"/>
</g>
<!-- Node25 -->
<g id="node25" class="node">
<title>Node25</title>
<g id="a_node25"><a xlink:href="structint__num__t.html#aff9076398c6852dc5249e2ab6dfa5500" target="_top" xlink:title=" ">
<polygon fill="white" stroke="#666666" points="268,-696.5 152,-696.5 152,-677.5 268,-677.5 268,-696.5"/>
<text text-anchor="middle" x="210" y="-684.5" font-family="Helvetica,sans-Serif" font-size="10.00">int_num_t::operator%=</text>
</a>
</g>
</g>
<!-- Node1&#45;&gt;Node25 -->
<g id="edge27" class="edge">
<title>Node1&#45;&gt;Node25</title>
<path fill="none" stroke="#63b8ff" d="M347.04,-800.48C333.86,-775.19 306.89,-730.12 271,-705 266.1,-701.57 260.54,-698.78 254.82,-696.52"/>
<polygon fill="#63b8ff" stroke="#63b8ff" points="343.92,-802.06 351.54,-809.42 350.17,-798.91 343.92,-802.06"/>
</g>
<!-- Node26 -->
<g id="node26" class="node">
<title>Node26</title>
<g id="a_node26"><a xlink:href="structint__num__t.html#ae1144a6001a66b5fecad8debf5454bc2" target="_top" xlink:title=" ">
<polygon fill="white" stroke="#666666" points="262,-659.5 158,-659.5 158,-640.5 262,-640.5 262,-659.5"/>
<text text-anchor="middle" x="210" y="-647.5" font-family="Helvetica,sans-Serif" font-size="10.00">int_num_t::operator*</text>
</a>
</g>
</g>
<!-- Node1&#45;&gt;Node26 -->
<g id="edge28" class="edge">
<title>Node1&#45;&gt;Node26</title>
<path fill="none" stroke="#63b8ff" d="M350.36,-799.6C340,-767.43 314.9,-703.12 271,-668 266.75,-664.6 261.88,-661.85 256.78,-659.61"/>
<polygon fill="#63b8ff" stroke="#63b8ff" points="347.02,-800.66 353.31,-809.19 353.71,-798.6 347.02,-800.66"/>
</g>
<!-- Node27 -->
<g id="node27" class="node">
<title>Node27</title>
<g id="a_node27"><a xlink:href="structint__num__t.html#a1fa5a610a675322a17233b696994276a" target="_top" xlink:title=" ">
<polygon fill="white" stroke="#666666" points="263.5,-622.5 156.5,-622.5 156.5,-603.5 263.5,-603.5 263.5,-622.5"/>
<text text-anchor="middle" x="210" y="-610.5" font-family="Helvetica,sans-Serif" font-size="10.00">int_num_t::operator+</text>
</a>
</g>
</g>
<!-- Node1&#45;&gt;Node27 -->
<g id="edge30" class="edge">
<title>Node1&#45;&gt;Node27</title>
<path fill="none" stroke="#63b8ff" d="M352.64,-799.23C345.11,-761.01 323.26,-676.73 271,-631 267.07,-627.56 262.51,-624.78 257.68,-622.53"/>
<polygon fill="#63b8ff" stroke="#63b8ff" points="349.21,-799.92 354.47,-809.12 356.1,-798.65 349.21,-799.92"/>
</g>
<!-- Node28 -->
<g id="node28" class="node">
<title>Node28</title>
<g id="a_node28"><a xlink:href="structint__num__t.html#affa4d6ff03dfb310a7b6bda3ecc1eb7a" target="_top" xlink:title=" ">
<polygon fill="white" stroke="#666666" points="266.5,-585.5 153.5,-585.5 153.5,-566.5 266.5,-566.5 266.5,-585.5"/>
<text text-anchor="middle" x="210" y="-573.5" font-family="Helvetica,sans-Serif" font-size="10.00">int_num_t::operator++</text>
</a>
</g>
</g>
<!-- Node1&#45;&gt;Node28 -->
<g id="edge31" class="edge">
<title>Node1&#45;&gt;Node28</title>
<path fill="none" stroke="#63b8ff" d="M354.29,-799.06C349.46,-755.41 331.83,-650.73 271,-594 267.34,-590.59 263.06,-587.82 258.5,-585.58"/>
<polygon fill="#63b8ff" stroke="#63b8ff" points="350.83,-799.62 355.3,-809.23 357.79,-798.93 350.83,-799.62"/>
</g>
<!-- Node29 -->
<g id="node29" class="node">
<title>Node29</title>
<g id="a_node29"><a xlink:href="structint__num__t.html#adac8cb6ab4d43634b44059a0d7a21dc4" target="_top" xlink:title=" ">
<polygon fill="white" stroke="#666666" points="113,-1565.5 0,-1565.5 0,-1546.5 113,-1546.5 113,-1565.5"/>
<text text-anchor="middle" x="56.5" y="-1553.5" font-family="Helvetica,sans-Serif" font-size="10.00">int_num_t::operator+=</text>
</a>
</g>
</g>
<!-- Node1&#45;&gt;Node29 -->
<g id="edge32" class="edge">
<title>Node1&#45;&gt;Node29</title>
<path fill="none" stroke="#63b8ff" d="M355.17,-838.92C350.3,-950.43 323.98,-1494.14 271,-1544 222.34,-1589.8 136.56,-1577.13 89.91,-1565.56"/>
<polygon fill="#63b8ff" stroke="#63b8ff" points="358.67,-838.88 355.6,-828.74 351.68,-838.58 358.67,-838.88"/>
</g>
<!-- Node30 -->
<g id="node30" class="node">
<title>Node30</title>
<g id="a_node30"><a xlink:href="structint__num__t.html#abf1ec8aeeadefe6195d33e62435eca37" target="_top" xlink:title=" ">
<polygon fill="white" stroke="#666666" points="262,-548.5 158,-548.5 158,-529.5 262,-529.5 262,-548.5"/>
<text text-anchor="middle" x="210" y="-536.5" font-family="Helvetica,sans-Serif" font-size="10.00">int_num_t::operator&#45;</text>
</a>
</g>
</g>
<!-- Node1&#45;&gt;Node30 -->
<g id="edge33" class="edge">
<title>Node1&#45;&gt;Node30</title>
<path fill="none" stroke="#63b8ff" d="M355.53,-799.17C353.27,-750.68 340.63,-625.1 271,-557 267.5,-553.58 263.38,-550.8 258.96,-548.55"/>
<polygon fill="#63b8ff" stroke="#63b8ff" points="352.03,-799.41 355.89,-809.28 359.03,-799.16 352.03,-799.41"/>
</g>
<!-- Node31 -->
<g id="node31" class="node">
<title>Node31</title>
<g id="a_node31"><a xlink:href="structint__num__t.html#a0f0b3db6587b441868f2cccb2f4b014c" target="_top" xlink:title=" ">
<polygon fill="white" stroke="#666666" points="263.5,-511.5 156.5,-511.5 156.5,-492.5 263.5,-492.5 263.5,-511.5"/>
<text text-anchor="middle" x="210" y="-499.5" font-family="Helvetica,sans-Serif" font-size="10.00">int_num_t::operator&#45;&#45;</text>
</a>
</g>
</g>
<!-- Node1&#45;&gt;Node31 -->
<g id="edge34" class="edge">
<title>Node1&#45;&gt;Node31</title>
<path fill="none" stroke="#63b8ff" d="M356.47,-799.3C356.61,-746.36 349.53,-599.67 271,-520 267.64,-516.59 263.66,-513.82 259.38,-511.58"/>
<polygon fill="#63b8ff" stroke="#63b8ff" points="352.97,-799.33 356.34,-809.37 359.97,-799.42 352.97,-799.33"/>
</g>
<!-- Node32 -->
<g id="node32" class="node">
<title>Node32</title>
<g id="a_node32"><a xlink:href="structint__num__t.html#adcde21a88cbb4b810259e675944e1ec8" target="_top" xlink:title=" ">
<polygon fill="white" stroke="#666666" points="111.5,-1518.5 1.5,-1518.5 1.5,-1499.5 111.5,-1499.5 111.5,-1518.5"/>
<text text-anchor="middle" x="56.5" y="-1506.5" font-family="Helvetica,sans-Serif" font-size="10.00">int_num_t::operator&#45;=</text>
</a>
</g>
</g>
<!-- Node1&#45;&gt;Node32 -->
<g id="edge35" class="edge">
<title>Node1&#45;&gt;Node32</title>
<path fill="none" stroke="#63b8ff" d="M355.12,-838.92C350.1,-948.19 323.42,-1471.56 271,-1518 216.99,-1565.84 121.81,-1535.79 79.19,-1518.59"/>
<polygon fill="#63b8ff" stroke="#63b8ff" points="358.63,-838.82 355.58,-828.67 351.64,-838.5 358.63,-838.82"/>
</g>
<!-- Node33 -->
<g id="node33" class="node">
<title>Node33</title>
<g id="a_node33"><a xlink:href="structint__num__t.html#a6212907f79ef713205e6d09e5e340f2c" target="_top" xlink:title=" ">
<polygon fill="white" stroke="#666666" points="263.5,-474.5 156.5,-474.5 156.5,-455.5 263.5,-455.5 263.5,-474.5"/>
<text text-anchor="middle" x="210" y="-462.5" font-family="Helvetica,sans-Serif" font-size="10.00">int_num_t::operator&lt;</text>
</a>
</g>
</g>
<!-- Node1&#45;&gt;Node33 -->
<g id="edge38" class="edge">
<title>Node1&#45;&gt;Node33</title>
<path fill="none" stroke="#63b8ff" d="M353.55,-799.15C345.17,-734.22 315.65,-529.64 271,-483 267.77,-479.62 263.93,-476.87 259.77,-474.63"/>
<polygon fill="#63b8ff" stroke="#63b8ff" points="350.11,-799.79 354.83,-809.27 357.05,-798.91 350.11,-799.79"/>
</g>
<!-- Node34 -->
<g id="node34" class="node">
<title>Node34</title>
<g id="a_node34"><a xlink:href="structint__num__t.html#a8a80c22f65c390355de7421e1ddd7d54" target="_top" xlink:title=" ">
<polygon fill="white" stroke="#666666" points="266.5,-437.5 153.5,-437.5 153.5,-418.5 266.5,-418.5 266.5,-437.5"/>
<text text-anchor="middle" x="210" y="-425.5" font-family="Helvetica,sans-Serif" font-size="10.00">int_num_t::operator&lt;=</text>
</a>
</g>
</g>
<!-- Node1&#45;&gt;Node34 -->
<g id="edge39" class="edge">
<title>Node1&#45;&gt;Node34</title>
<path fill="none" stroke="#63b8ff" d="M354.1,-799.26C347.05,-729.89 320.19,-498.63 271,-446 267.81,-442.58 263.99,-439.81 259.86,-437.55"/>
<polygon fill="#63b8ff" stroke="#63b8ff" points="350.63,-799.68 355.1,-809.28 357.59,-798.99 350.63,-799.68"/>
</g>
<!-- Node35 -->
<g id="node35" class="node">
<title>Node35</title>
<g id="a_node35"><a xlink:href="structint__num__t.html#aeeedd95e69e5f62662b060823b3bded7" target="_top" xlink:title=" ">
<polygon fill="white" stroke="#666666" points="263.5,-400.5 156.5,-400.5 156.5,-381.5 263.5,-381.5 263.5,-400.5"/>
<text text-anchor="middle" x="210" y="-388.5" font-family="Helvetica,sans-Serif" font-size="10.00">int_num_t::operator=</text>
</a>
</g>
</g>
<!-- Node1&#45;&gt;Node35 -->
<g id="edge40" class="edge">
<title>Node1&#45;&gt;Node35</title>
<path fill="none" stroke="#63b8ff" d="M354.54,-799.25C348.71,-725.53 324.73,-467.63 271,-409 267.91,-405.63 264.23,-402.89 260.22,-400.65"/>
<polygon fill="#63b8ff" stroke="#63b8ff" points="351.07,-799.74 355.32,-809.44 358.05,-799.21 351.07,-799.74"/>
</g>
<!-- Node36 -->
<g id="node36" class="node">
<title>Node36</title>
<g id="a_node36"><a xlink:href="structint__num__t.html#a3f6da26847b75caa02c9969f51702de8" target="_top" xlink:title=" ">
<polygon fill="white" stroke="#666666" points="266.5,-363.5 153.5,-363.5 153.5,-344.5 266.5,-344.5 266.5,-363.5"/>
<text text-anchor="middle" x="210" y="-351.5" font-family="Helvetica,sans-Serif" font-size="10.00">int_num_t::operator==</text>
</a>
</g>
</g>
<!-- Node1&#45;&gt;Node36 -->
<g id="edge41" class="edge">
<title>Node1&#45;&gt;Node36</title>
<path fill="none" stroke="#63b8ff" d="M354.89,-799.01C350.18,-720.78 329.23,-436.6 271,-372 267.94,-368.61 264.27,-365.84 260.27,-363.59"/>
<polygon fill="#63b8ff" stroke="#63b8ff" points="351.42,-799.59 355.5,-809.37 358.41,-799.18 351.42,-799.59"/>
</g>
<!-- Node37 -->
<g id="node37" class="node">
<title>Node37</title>
<g id="a_node37"><a xlink:href="structint__num__t.html#acb4f8554bc619a61d768b8b7467ddf46" target="_top" xlink:title=" ">
<polygon fill="white" stroke="#666666" points="263.5,-326.5 156.5,-326.5 156.5,-307.5 263.5,-307.5 263.5,-326.5"/>
<text text-anchor="middle" x="210" y="-314.5" font-family="Helvetica,sans-Serif" font-size="10.00">int_num_t::operator&gt;</text>
</a>
</g>
</g>
<!-- Node1&#45;&gt;Node37 -->
<g id="edge42" class="edge">
<title>Node1&#45;&gt;Node37</title>
<path fill="none" stroke="#63b8ff" d="M355.21,-798.96C351.57,-716.66 333.8,-405.65 271,-335 267.97,-331.59 264.31,-328.81 260.32,-326.55"/>
<polygon fill="#63b8ff" stroke="#63b8ff" points="351.73,-799.54 355.65,-809.39 358.73,-799.25 351.73,-799.54"/>
</g>
<!-- Node38 -->
<g id="node38" class="node">
<title>Node38</title>
<g id="a_node38"><a xlink:href="structint__num__t.html#acec6fb387e79e65f37e779ffb18d8730" target="_top" xlink:title=" ">
<polygon fill="white" stroke="#666666" points="266.5,-289.5 153.5,-289.5 153.5,-270.5 266.5,-270.5 266.5,-289.5"/>
<text text-anchor="middle" x="210" y="-277.5" font-family="Helvetica,sans-Serif" font-size="10.00">int_num_t::operator&gt;=</text>
</a>
</g>
</g>
<!-- Node1&#45;&gt;Node38 -->
<g id="edge43" class="edge">
<title>Node1&#45;&gt;Node38</title>
<path fill="none" stroke="#63b8ff" d="M355.5,-799.36C352.91,-713.86 338.49,-374.87 271,-298 267.99,-294.57 264.35,-291.78 260.37,-289.51"/>
<polygon fill="#63b8ff" stroke="#63b8ff" points="352,-799.6 355.78,-809.5 359,-799.4 352,-799.6"/>
</g>
<!-- Node39 -->
<g id="node39" class="node">
<title>Node39</title>
<g id="a_node39"><a xlink:href="structint__num__t.html#a399984c0c867c6e3a5b15aaed4e1d465" target="_top" xlink:title=" ">
<polygon fill="white" stroke="#666666" points="257.5,-1508.5 162.5,-1508.5 162.5,-1489.5 257.5,-1489.5 257.5,-1508.5"/>
<text text-anchor="middle" x="210" y="-1496.5" font-family="Helvetica,sans-Serif" font-size="10.00">int_num_t::reduce</text>
</a>
</g>
</g>
<!-- Node1&#45;&gt;Node39 -->
<g id="edge44" class="edge">
<title>Node1&#45;&gt;Node39</title>
<path fill="none" stroke="#63b8ff" d="M356.05,-838.99C355.91,-937.67 350.71,-1372.21 271,-1475 266.12,-1481.29 259.33,-1485.94 252.07,-1489.38"/>
<polygon fill="#63b8ff" stroke="#63b8ff" points="359.55,-838.89 356.05,-828.89 352.55,-838.89 359.55,-838.89"/>
</g>
<!-- Node40 -->
<g id="node40" class="node">
<title>Node40</title>
<g id="a_node40"><a xlink:href="structint__num__t.html#a80b19146b3ea979dd1f6a431b7a061fe" target="_top" xlink:title=" ">
<polygon fill="white" stroke="#666666" points="271,-252.5 149,-252.5 149,-233.5 271,-233.5 271,-252.5"/>
<text text-anchor="middle" x="210" y="-240.5" font-family="Helvetica,sans-Serif" font-size="10.00">int_num_t::reduce_fracc</text>
</a>
</g>
</g>
<!-- Node1&#45;&gt;Node40 -->
<g id="edge48" class="edge">
<title>Node1&#45;&gt;Node40</title>
<path fill="none" stroke="#63b8ff" d="M355.73,-799.12C354.09,-709.5 343.03,-343.92 271,-261 268.08,-257.63 264.55,-254.88 260.69,-252.64"/>
<polygon fill="#63b8ff" stroke="#63b8ff" points="352.23,-799.32 355.89,-809.26 359.23,-799.21 352.23,-799.32"/>
</g>
<!-- Node41 -->
<g id="node41" class="node">
<title>Node41</title>
<g id="a_node41"><a xlink:href="structint__num__t.html#aeb24d35b97a122413d6ae886f55d59e7" target="_top" xlink:title=" ">
<polygon fill="white" stroke="#666666" points="253.5,-215.5 166.5,-215.5 166.5,-196.5 253.5,-196.5 253.5,-215.5"/>
<text text-anchor="middle" x="210" y="-203.5" font-family="Helvetica,sans-Serif" font-size="10.00">int_num_t::rem2</text>
</a>
</g>
</g>
<!-- Node1&#45;&gt;Node41 -->
<g id="edge49" class="edge">
<title>Node1&#45;&gt;Node41</title>
<path fill="none" stroke="#63b8ff" d="M355.93,-798.99C355.21,-705.56 347.61,-313.02 271,-224 266.39,-218.64 260.25,-214.84 253.66,-212.16"/>
<polygon fill="#63b8ff" stroke="#63b8ff" points="352.43,-799.1 355.99,-809.08 359.43,-799.06 352.43,-799.1"/>
</g>
<!-- Node42 -->
<g id="node42" class="node">
<title>Node42</title>
<g id="a_node42"><a xlink:href="structint__num__t.html#ad5ba09cfe05ae18fbcb505b0e92b1745" target="_top" xlink:title=" ">
<polygon fill="white" stroke="#666666" points="256,-178.5 164,-178.5 164,-159.5 256,-159.5 256,-178.5"/>
<text text-anchor="middle" x="210" y="-166.5" font-family="Helvetica,sans-Serif" font-size="10.00">int_num_t::rem2p</text>
</a>
</g>
</g>
<!-- Node1&#45;&gt;Node42 -->
<g id="edge50" class="edge">
<title>Node1&#45;&gt;Node42</title>
<path fill="none" stroke="#63b8ff" d="M356.12,-799.3C356.29,-702.97 352.32,-282.28 271,-187 266.98,-182.28 261.77,-178.78 256.11,-176.17"/>
<polygon fill="#63b8ff" stroke="#63b8ff" points="352.62,-799.39 356.08,-809.4 359.62,-799.41 352.62,-799.39"/>
</g>
<!-- Node43 -->
<g id="node43" class="node">
<title>Node43</title>
<g id="a_node43"><a xlink:href="structint__num__t.html#a4d4b2c2c862d358a897074e2afe9c298" target="_top" xlink:title=" ">
<polygon fill="white" stroke="#666666" points="254.5,-141.5 165.5,-141.5 165.5,-122.5 254.5,-122.5 254.5,-141.5"/>
<text text-anchor="middle" x="210" y="-129.5" font-family="Helvetica,sans-Serif" font-size="10.00">int_num_t::remB</text>
</a>
</g>
</g>
<!-- Node1&#45;&gt;Node43 -->
<g id="edge51" class="edge">
<title>Node1&#45;&gt;Node43</title>
<path fill="none" stroke="#63b8ff" d="M356.28,-799.11C357.29,-699.03 356.9,-251.4 271,-150 266.64,-144.86 260.87,-141.15 254.64,-138.48"/>
<polygon fill="#63b8ff" stroke="#63b8ff" points="352.78,-799.28 356.16,-809.32 359.78,-799.36 352.78,-799.28"/>
</g>
<!-- Node44 -->
<g id="node44" class="node">
<title>Node44</title>
<g id="a_node44"><a xlink:href="structint__num__t.html#a7536efd30cc24248602b3083295a782c" target="_top" xlink:title=" ">
<polygon fill="white" stroke="#666666" points="261,-104.5 159,-104.5 159,-85.5 261,-85.5 261,-104.5"/>
<text text-anchor="middle" x="210" y="-92.5" font-family="Helvetica,sans-Serif" font-size="10.00">int_num_t::remBm1</text>
</a>
</g>
</g>
<!-- Node1&#45;&gt;Node44 -->
<g id="edge52" class="edge">
<title>Node1&#45;&gt;Node44</title>
<path fill="none" stroke="#63b8ff" d="M354.89,-799.12C348.66,-690.02 316.54,-167.11 271,-113 268.13,-109.59 264.64,-106.81 260.8,-104.54"/>
<polygon fill="#63b8ff" stroke="#63b8ff" points="351.41,-799.56 355.47,-809.35 358.4,-799.17 351.41,-799.56"/>
</g>
<!-- Node45 -->
<g id="node45" class="node">
<title>Node45</title>
<g id="a_node45"><a xlink:href="structint__num__t.html#ae37121ea60fbd75600561e3bbef77194" target="_top" xlink:title=" ">
<polygon fill="white" stroke="#666666" points="257,-67.5 163,-67.5 163,-48.5 257,-48.5 257,-67.5"/>
<text text-anchor="middle" x="210" y="-55.5" font-family="Helvetica,sans-Serif" font-size="10.00">int_num_t::remBp</text>
</a>
</g>
</g>
<!-- Node1&#45;&gt;Node45 -->
<g id="edge53" class="edge">
<title>Node1&#45;&gt;Node45</title>
<path fill="none" stroke="#63b8ff" d="M355.02,-799.14C349.31,-686.72 318.87,-133.23 271,-76 267.23,-71.5 262.38,-68.09 257.08,-65.52"/>
<polygon fill="#63b8ff" stroke="#63b8ff" points="351.54,-799.56 355.53,-809.38 358.53,-799.21 351.54,-799.56"/>
</g>
<!-- Node46 -->
<g id="node46" class="node">
<title>Node46</title>
<g id="a_node46"><a xlink:href="structint__num__t.html#a0f7c7d803d12ead8126beb05485022c3" target="_top" xlink:title=" ">
<polygon fill="white" stroke="#666666" points="265,-30 155,-30 155,0 265,0 265,-30"/>
<text text-anchor="start" x="163" y="-18" font-family="Helvetica,sans-Serif" font-size="10.00">int_num_t::unos_a_la</text>
<text text-anchor="middle" x="210" y="-7" font-family="Helvetica,sans-Serif" font-size="10.00">_izqda</text>
</a>
</g>
</g>
<!-- Node1&#45;&gt;Node46 -->
<g id="edge54" class="edge">
<title>Node1&#45;&gt;Node46</title>
<path fill="none" stroke="#63b8ff" d="M355.06,-799.31C349.39,-684.21 318.48,-101.54 271,-39 268.42,-35.6 265.29,-32.69 261.82,-30.18"/>
<polygon fill="#63b8ff" stroke="#63b8ff" points="351.57,-799.65 355.55,-809.47 358.56,-799.31 351.57,-799.65"/>
</g>
<!-- Node2&#45;&gt;Node3 -->
<g id="edge2" class="edge">
<title>Node2&#45;&gt;Node3</title>
<path fill="none" stroke="#63b8ff" d="M158.96,-1657.28C143.77,-1659.18 127.01,-1661.28 111.56,-1663.22"/>
<polygon fill="#63b8ff" stroke="#63b8ff" points="159.71,-1660.71 169.2,-1655.99 158.84,-1653.76 159.71,-1660.71"/>
</g>
<!-- Node2&#45;&gt;Node4 -->
<g id="edge3" class="edge">
<title>Node2&#45;&gt;Node4</title>
<path fill="none" stroke="#63b8ff" d="M159.36,-1641.83C143.13,-1638.83 125.08,-1635.49 108.74,-1632.47"/>
<polygon fill="#63b8ff" stroke="#63b8ff" points="158.73,-1645.27 169.2,-1643.64 160,-1638.38 158.73,-1645.27"/>
</g>
<!-- Node5&#45;&gt;Node6 -->
<g id="edge5" class="edge">
<title>Node5&#45;&gt;Node6</title>
<path fill="none" stroke="#63b8ff" d="M161,-1435.04C139.83,-1440.35 115.31,-1446.5 95.45,-1451.48"/>
<polygon fill="#63b8ff" stroke="#63b8ff" points="161.92,-1438.42 170.77,-1432.59 160.22,-1431.63 161.92,-1438.42"/>
</g>
<!-- Node5&#45;&gt;Node7 -->
<g id="edge6" class="edge">
<title>Node5&#45;&gt;Node7</title>
<path fill="none" stroke="#63b8ff" d="M156.5,-1416.42C142.01,-1414.6 126.26,-1412.62 111.68,-1410.79"/>
<polygon fill="#63b8ff" stroke="#63b8ff" points="156.44,-1419.94 166.8,-1417.71 157.31,-1412.99 156.44,-1419.94"/>
</g>
<!-- Node11&#45;&gt;Node12 -->
<g id="edge11" class="edge">
<title>Node11&#45;&gt;Node12</title>
<path fill="none" stroke="#63b8ff" d="M150.23,-1168.15C137.55,-1169.9 124.19,-1171.76 111.69,-1173.49"/>
<polygon fill="#63b8ff" stroke="#63b8ff" points="150.81,-1171.6 160.23,-1166.76 149.84,-1164.67 150.81,-1171.6"/>
</g>
<!-- Node22 -->
<g id="node22" class="node">
<title>Node22</title>
<g id="a_node22"><a xlink:href="structint__num__t.html#a15fd56ca4bfffa62e6896bb3e0c8720c" target="_top" xlink:title=" ">
<polygon fill="white" stroke="#666666" points="111.5,-807.5 1.5,-807.5 1.5,-788.5 111.5,-788.5 111.5,-807.5"/>
<text text-anchor="middle" x="56.5" y="-795.5" font-family="Helvetica,sans-Serif" font-size="10.00">int_num_t::operator*=</text>
</a>
</g>
</g>
<!-- Node21&#45;&gt;Node22 -->
<g id="edge21" class="edge">
<title>Node21&#45;&gt;Node22</title>
<path fill="none" stroke="#63b8ff" d="M153.03,-798C139.54,-798 125.15,-798 111.74,-798"/>
<polygon fill="#63b8ff" stroke="#63b8ff" points="153.13,-801.5 163.13,-798 153.13,-794.5 153.13,-801.5"/>
</g>
<!-- Node39&#45;&gt;Node6 -->
<g id="edge45" class="edge">
<title>Node39&#45;&gt;Node6</title>
<path fill="none" stroke="#63b8ff" d="M161,-1486.96C139.83,-1481.65 115.31,-1475.5 95.45,-1470.52"/>
<polygon fill="#63b8ff" stroke="#63b8ff" points="160.22,-1490.37 170.77,-1489.41 161.92,-1483.58 160.22,-1490.37"/>
</g>
<!-- Node39&#45;&gt;Node29 -->
<g id="edge46" class="edge">
<title>Node39&#45;&gt;Node29</title>
<path fill="none" stroke="#63b8ff" d="M174.27,-1512.07C146.43,-1522.54 107.99,-1537.01 82.94,-1546.43"/>
<polygon fill="#63b8ff" stroke="#63b8ff" points="175.52,-1515.34 183.64,-1508.54 173.05,-1508.79 175.52,-1515.34"/>
</g>
<!-- Node39&#45;&gt;Node32 -->
<g id="edge47" class="edge">
<title>Node39&#45;&gt;Node32</title>
<path fill="none" stroke="#63b8ff" d="M151.95,-1502.77C138.77,-1503.64 124.79,-1504.56 111.73,-1505.42"/>
<polygon fill="#63b8ff" stroke="#63b8ff" points="152.56,-1506.23 162.31,-1502.08 152.1,-1499.25 152.56,-1506.23"/>
</g>
</g>
</svg>
        <g id="navigator" transform="translate(0 0)" fill="#404254">
                <rect fill="#f2f5e9" fill-opacity="0.5" stroke="#606060" stroke-width=".5" x="0" y="0" width="60" height="60"/>
                <use id="zoomplus" xlink:href="#zoomPlus" x="17" y="9" onmousedown="handleZoom(evt,'in')"/>
                <use id="zoomminus" xlink:href="#zoomMin" x="42" y="9" onmousedown="handleZoom(evt,'out')"/>
                <use id="reset" xlink:href="#resetDef" x="30" y="36" onmousedown="handleReset()"/>
                <g id="arrowUp" xlink:href="#dirArrow" transform="translate(30 24)" onmousedown="handlePan(0,-1)">
                  <use xlink:href="#rim" fill="#404040">
                        <set attributeName="fill" to="#808080" begin="arrowUp.mouseover" end="arrowUp.mouseout"/>
                  </use>
                  <path fill="none" stroke="white" stroke-width="1.5" d="M0,-3.0v7 M-2.5,-0.5L0,-3.0L2.5,-0.5"/>
                </g>
                <g id="arrowRight" xlink:href="#dirArrow" transform="rotate(90) translate(36 -43)" onmousedown="handlePan(1,0)">
                  <use xlink:href="#rim" fill="#404040">
                        <set attributeName="fill" to="#808080" begin="arrowRight.mouseover" end="arrowRight.mouseout"/>
                  </use>
                  <path fill="none" stroke="white" stroke-width="1.5" d="M0,-3.0v7 M-2.5,-0.5L0,-3.0L2.5,-0.5"/>
                </g>
                <g id="arrowDown" xlink:href="#dirArrow" transform="rotate(180) translate(-30 -48)" onmousedown="handlePan(0,1)">
                  <use xlink:href="#rim" fill="#404040">
                        <set attributeName="fill" to="#808080" begin="arrowDown.mouseover" end="arrowDown.mouseout"/>
                  </use>
                  <path fill="none" stroke="white" stroke-width="1.5" d="M0,-3.0v7 M-2.5,-0.5L0,-3.0L2.5,-0.5"/>
                </g>
                <g id="arrowLeft" xlink:href="#dirArrow" transform="rotate(270) translate(-36 17)" onmousedown="handlePan(-1,0)">
                  <use xlink:href="#rim" fill="#404040">
                        <set attributeName="fill" to="#808080" begin="arrowLeft.mouseover" end="arrowLeft.mouseout"/>
                  </use>
                  <path fill="none" stroke="white" stroke-width="1.5" d="M0,-3.0v7 M-2.5,-0.5L0,-3.0L2.5,-0.5"/>
                </g>
        </g>
        <svg viewBox="0 0 15 15" width="100%" height="30px" preserveAspectRatio="xMaxYMin meet">
         <g id="arrow_out" transform="scale(0.3 0.3)">
          <a xlink:href="structint__num__t_ae209e7a115353db1633459a602d24e0b_icgraph_org.svg" target="_base">
           <rect id="button" ry="5" rx="5" y="6" x="6" height="38" width="38"
                fill="#f2f5e9" fill-opacity="0.5" stroke="#606060" stroke-width="1.0"/>
           <path id="arrow"
             d="M 11.500037,31.436501 C 11.940474,20.09759 22.043105,11.32322 32.158766,21.979434 L 37.068811,17.246167 C 37.068811,17.246167 37.088388,32 37.088388,32 L 22.160133,31.978069 C 22.160133,31.978069 26.997745,27.140456 26.997745,27.140456 C 18.528582,18.264221 13.291696,25.230495 11.500037,31.436501 z"
             style="fill:#404040;"/>
          </a>
         </g>
        </svg>
</svg>
