<?xml version="1.0" encoding="UTF-8" standalone="no"?>
<!DOCTYPE svg PUBLIC "-//W3C//DTD SVG 1.1//EN"
 "http://www.w3.org/Graphics/SVG/1.1/DTD/svg11.dtd">
<!-- Generated by graphviz version 2.44.1 (20220725.2034)
 -->
<!-- Title: NumRepr::nat_rat_fixed_reg_t::mC_B Pages: 1 -->
<svg width="452pt" height="153pt"
 viewBox="0.00 0.00 452.00 153.30" xmlns="http://www.w3.org/2000/svg" xmlns:xlink="http://www.w3.org/1999/xlink">
<g id="graph0" class="graph" transform="scale(1 1) rotate(0) translate(4 149.3)">
<title>NumRepr::nat_rat_fixed_reg_t::mC_B</title>
<!-- Node1 -->
<g id="node1" class="node">
<title>Node1</title>
<g id="a_node1"><a xlink:title=" ">
<polygon fill="#999999" stroke="#666666" points="121,-102 0,-102 0,-72 121,-72 121,-102"/>
<text text-anchor="start" x="8" y="-90" font-family="Helvetica,sans-Serif" font-size="10.00">NumRepr::nat_rat_fixed</text>
<text text-anchor="middle" x="60.5" y="-79" font-family="Helvetica,sans-Serif" font-size="10.00">_reg_t::mC_B</text>
</a>
</g>
</g>
<!-- Node2 -->
<g id="node2" class="node">
<title>Node2</title>
<g id="a_node2"><a xlink:href="struct_num_repr_1_1nat__rat__fixed__reg__t.html#a235bc4a9ae726bbf7c7d5933d9a62b2e" target="_top" xlink:title=" ">
<polygon fill="white" stroke="#666666" points="444,-99 323,-99 323,-69 444,-69 444,-99"/>
<text text-anchor="start" x="331" y="-87" font-family="Helvetica,sans-Serif" font-size="10.00">NumRepr::nat_rat_fixed</text>
<text text-anchor="middle" x="383.5" y="-76" font-family="Helvetica,sans-Serif" font-size="10.00">_reg_t::dig_0</text>
</a>
</g>
</g>
<!-- Node1&#45;&gt;Node2 -->
<g id="edge1" class="edge">
<title>Node1&#45;&gt;Node2</title>
<path fill="none" stroke="#63b8ff" d="M83.88,-102.04C102.53,-113.61 130.28,-128.66 157,-135 213.22,-148.33 230.95,-149.03 287,-135 310.45,-129.13 334.43,-116.29 352.5,-104.96"/>
<polygon fill="#63b8ff" stroke="#63b8ff" points="354.88,-107.59 361.38,-99.22 351.08,-101.72 354.88,-107.59"/>
</g>
<!-- Node3 -->
<g id="node3" class="node">
<title>Node3</title>
<g id="a_node3"><a xlink:href="struct_num_repr_1_1nat__rat__fixed__reg__t.html#a960faa8c0828a9a6680526e7a9bfbc59" target="_top" xlink:title=" ">
<polygon fill="white" stroke="#666666" points="282.5,-126 161.5,-126 161.5,-96 282.5,-96 282.5,-126"/>
<text text-anchor="start" x="169.5" y="-114" font-family="Helvetica,sans-Serif" font-size="10.00">NumRepr::nat_rat_fixed</text>
<text text-anchor="middle" x="222" y="-103" font-family="Helvetica,sans-Serif" font-size="10.00">_reg_t::dig_1</text>
</a>
</g>
</g>
<!-- Node1&#45;&gt;Node3 -->
<g id="edge2" class="edge">
<title>Node1&#45;&gt;Node3</title>
<path fill="none" stroke="#63b8ff" d="M121.35,-96C131.16,-97.48 141.4,-99.02 151.42,-100.53"/>
<polygon fill="#63b8ff" stroke="#63b8ff" points="150.94,-104 161.35,-102.02 151.98,-97.08 150.94,-104"/>
</g>
<!-- Node4 -->
<g id="node4" class="node">
<title>Node4</title>
<g id="a_node4"><a xlink:href="struct_num_repr_1_1nat__rat__fixed__reg__t.html#a487d6b76d2e1cb0c18afaf54288e6029" target="_top" xlink:title=" ">
<polygon fill="white" stroke="#666666" points="282.5,-78 161.5,-78 161.5,-48 282.5,-48 282.5,-78"/>
<text text-anchor="start" x="169.5" y="-66" font-family="Helvetica,sans-Serif" font-size="10.00">NumRepr::nat_rat_fixed</text>
<text text-anchor="middle" x="222" y="-55" font-family="Helvetica,sans-Serif" font-size="10.00">_reg_t::dig_Bm1</text>
</a>
</g>
</g>
<!-- Node1&#45;&gt;Node4 -->
<g id="edge3" class="edge">
<title>Node1&#45;&gt;Node4</title>
<path fill="none" stroke="#63b8ff" d="M121.35,-78C131.16,-76.52 141.4,-74.98 151.42,-73.47"/>
<polygon fill="#63b8ff" stroke="#63b8ff" points="151.98,-76.92 161.35,-71.98 150.94,-70 151.98,-76.92"/>
</g>
<!-- Node5 -->
<g id="node5" class="node">
<title>Node5</title>
<g id="a_node5"><a xlink:href="struct_num_repr_1_1nat__rat__fixed__reg__t.html#a05f3a766ce29786655fc99812d550fa6" target="_top" xlink:title=" ">
<polygon fill="white" stroke="#666666" points="287,-30 157,-30 157,0 287,0 287,-30"/>
<text text-anchor="start" x="165" y="-18" font-family="Helvetica,sans-Serif" font-size="10.00">NumRepr::nat_rat_fixed</text>
<text text-anchor="middle" x="222" y="-7" font-family="Helvetica,sans-Serif" font-size="10.00">_reg_t::pfx_rat_reg_digs_t</text>
</a>
</g>
</g>
<!-- Node1&#45;&gt;Node5 -->
<g id="edge4" class="edge">
<title>Node1&#45;&gt;Node5</title>
<path fill="none" stroke="#63b8ff" d="M89.54,-71.91C108.37,-62.03 133.88,-49.11 157,-39 160.91,-37.29 164.99,-35.58 169.11,-33.92"/>
<polygon fill="#63b8ff" stroke="#63b8ff" points="170.73,-37.04 178.74,-30.11 168.16,-30.53 170.73,-37.04"/>
</g>
<!-- Node5&#45;&gt;Node2 -->
<g id="edge5" class="edge">
<title>Node5&#45;&gt;Node2</title>
<path fill="none" stroke="#63b8ff" d="M264.51,-30C272.04,-32.88 279.78,-35.95 287,-39 305.66,-46.88 326.01,-56.35 343.11,-64.56"/>
<polygon fill="#63b8ff" stroke="#63b8ff" points="341.72,-67.77 352.25,-68.97 344.77,-61.47 341.72,-67.77"/>
</g>
</g>
</svg>
