<?xml version="1.0" encoding="UTF-8" standalone="no"?>
<!DOCTYPE svg PUBLIC "-//W3C//DTD SVG 1.1//EN"
 "http://www.w3.org/Graphics/SVG/1.1/DTD/svg11.dtd">
<!-- Generated by graphviz version 2.44.1 (20220725.2034)
 -->
<!-- Title: int_num_t::operator&#45;= Pages: 1 -->
<svg width="385pt" height="64pt"
 viewBox="0.00 0.00 385.00 64.00" xmlns="http://www.w3.org/2000/svg" xmlns:xlink="http://www.w3.org/1999/xlink">
<g id="graph0" class="graph" transform="scale(1 1) rotate(0) translate(4 60)">
<title>int_num_t::operator&#45;=</title>
<!-- Node1 -->
<g id="node1" class="node">
<title>Node1</title>
<g id="a_node1"><a xlink:title=" ">
<polygon fill="#999999" stroke="#666666" points="110,-38 0,-38 0,-19 110,-19 110,-38"/>
<text text-anchor="middle" x="55" y="-26" font-family="Helvetica,sans-Serif" font-size="10.00">int_num_t::operator&#45;=</text>
</a>
</g>
</g>
<!-- Node2 -->
<g id="node2" class="node">
<title>Node2</title>
<g id="a_node2"><a xlink:href="structint__num__t.html#ae209e7a115353db1633459a602d24e0b" target="_top" xlink:title=" ">
<polygon fill="white" stroke="#666666" points="377,-38 277,-38 277,-19 377,-19 377,-38"/>
<text text-anchor="middle" x="327" y="-26" font-family="Helvetica,sans-Serif" font-size="10.00">int_num_t::num_int</text>
</a>
</g>
</g>
<!-- Node1&#45;&gt;Node2 -->
<g id="edge1" class="edge">
<title>Node1&#45;&gt;Node2</title>
<path fill="none" stroke="#63b8ff" d="M110.31,-28.5C155.55,-28.5 219.89,-28.5 266.51,-28.5"/>
<polygon fill="#63b8ff" stroke="#63b8ff" points="266.77,-32 276.77,-28.5 266.77,-25 266.77,-32"/>
</g>
<!-- Node3 -->
<g id="node3" class="node">
<title>Node3</title>
<g id="a_node3"><a xlink:href="structint__num__t.html#a399984c0c867c6e3a5b15aaed4e1d465" target="_top" xlink:title=" ">
<polygon fill="white" stroke="#666666" points="241,-19 146,-19 146,0 241,0 241,-19"/>
<text text-anchor="middle" x="193.5" y="-7" font-family="Helvetica,sans-Serif" font-size="10.00">int_num_t::reduce</text>
</a>
</g>
</g>
<!-- Node1&#45;&gt;Node3 -->
<g id="edge3" class="edge">
<title>Node1&#45;&gt;Node3</title>
<path fill="none" stroke="#63b8ff" d="M110.34,-20.94C118.69,-19.77 127.33,-18.57 135.74,-17.4"/>
<polygon fill="#63b8ff" stroke="#63b8ff" points="136.41,-20.84 145.83,-16 135.44,-13.91 136.41,-20.84"/>
</g>
<!-- Node2&#45;&gt;Node2 -->
<g id="edge2" class="edge">
<title>Node2&#45;&gt;Node2</title>
<path fill="none" stroke="#63b8ff" d="M306.65,-38.08C296.76,-46.73 303.54,-56 327,-56 342.03,-56 350.21,-52.2 351.55,-47.19"/>
<polygon fill="#63b8ff" stroke="#63b8ff" points="354.72,-45.69 347.35,-38.08 348.36,-48.63 354.72,-45.69"/>
</g>
<!-- Node3&#45;&gt;Node2 -->
<g id="edge4" class="edge">
<title>Node3&#45;&gt;Node2</title>
<path fill="none" stroke="#63b8ff" d="M241.23,-16.25C249.51,-17.45 258.23,-18.71 266.79,-19.95"/>
<polygon fill="#63b8ff" stroke="#63b8ff" points="266.35,-23.42 276.75,-21.38 267.35,-16.49 266.35,-23.42"/>
</g>
</g>
</svg>
