<?xml version="1.0" encoding="UTF-8" standalone="no"?>
<!DOCTYPE svg PUBLIC "-//W3C//DTD SVG 1.1//EN"
 "http://www.w3.org/Graphics/SVG/1.1/DTD/svg11.dtd">
<!-- Generated by graphviz version 2.44.1 (20220725.2034)
 -->
<!-- Title: NumRepr::dig_t::C_B Pages: 1 -->
<svg width="316pt" height="124pt"
 viewBox="0.00 0.00 316.00 123.50" xmlns="http://www.w3.org/2000/svg" xmlns:xlink="http://www.w3.org/1999/xlink">
<g id="graph0" class="graph" transform="scale(1 1) rotate(0) translate(4 119.5)">
<title>NumRepr::dig_t::C_B</title>
<!-- Node1 -->
<g id="node1" class="node">
<title>Node1</title>
<g id="a_node1"><a xlink:title="&quot;C_B&quot; es identico a &quot;operator&#45;()&quot;">
<polygon fill="#999999" stroke="#666666" points="308,-72.5 197,-72.5 197,-53.5 308,-53.5 308,-72.5"/>
<text text-anchor="middle" x="252.5" y="-60.5" font-family="Helvetica,sans-Serif" font-size="10.00">NumRepr::dig_t::C_B</text>
</a>
</g>
</g>
<!-- Node2 -->
<g id="node2" class="node">
<title>Node2</title>
<g id="a_node2"><a xlink:href="namespace_num_repr.html#a0aa113da9c3c91f1af1c073958cc12a3" target="_top" xlink:title=" ">
<polygon fill="white" stroke="#666666" points="161,-115.5 0,-115.5 0,-96.5 161,-96.5 161,-115.5"/>
<text text-anchor="middle" x="80.5" y="-103.5" font-family="Helvetica,sans-Serif" font-size="10.00">NumRepr::display_operator_C_B</text>
</a>
</g>
</g>
<!-- Node1&#45;&gt;Node2 -->
<g id="edge1" class="edge">
<title>Node1&#45;&gt;Node2</title>
<path fill="none" stroke="#63b8ff" d="M206.56,-75.15C192.04,-79.02 175.86,-83.26 161,-87 148.48,-90.16 134.81,-93.47 122.4,-96.43"/>
<polygon fill="#63b8ff" stroke="#63b8ff" points="207.55,-78.51 216.31,-72.55 205.75,-71.75 207.55,-78.51"/>
</g>
<!-- Node3 -->
<g id="node3" class="node">
<title>Node3</title>
<g id="a_node3"><a xlink:href="namespace_num_repr.html#aec8203e0be75e913ece973211c4b1386" target="_top" xlink:title=" ">
<polygon fill="white" stroke="#666666" points="140,-78 21,-78 21,-48 140,-48 140,-78"/>
<text text-anchor="start" x="29" y="-66" font-family="Helvetica,sans-Serif" font-size="10.00">NumRepr::display_prop</text>
<text text-anchor="middle" x="80.5" y="-55" font-family="Helvetica,sans-Serif" font-size="10.00">_C_B_eq_inv_C_B</text>
</a>
</g>
</g>
<!-- Node1&#45;&gt;Node3 -->
<g id="edge2" class="edge">
<title>Node1&#45;&gt;Node3</title>
<path fill="none" stroke="#63b8ff" d="M186.42,-63C171.23,-63 155.13,-63 140.23,-63"/>
<polygon fill="#63b8ff" stroke="#63b8ff" points="186.78,-66.5 196.78,-63 186.78,-59.5 186.78,-66.5"/>
</g>
<!-- Node4 -->
<g id="node4" class="node">
<title>Node4</title>
<g id="a_node4"><a xlink:href="namespace_num_repr.html#ae0fc1d1a1935c51de9fa9490f212c168" target="_top" xlink:title=" ">
<polygon fill="white" stroke="#666666" points="149,-30 12,-30 12,0 149,0 149,-30"/>
<text text-anchor="start" x="20" y="-18" font-family="Helvetica,sans-Serif" font-size="10.00">NumRepr::display_prop</text>
<text text-anchor="middle" x="80.5" y="-7" font-family="Helvetica,sans-Serif" font-size="10.00">_C_B_minus_1_eq_C_Bm1</text>
</a>
</g>
</g>
<!-- Node1&#45;&gt;Node4 -->
<g id="edge3" class="edge">
<title>Node1&#45;&gt;Node4</title>
<path fill="none" stroke="#63b8ff" d="M207.68,-50.63C185.45,-44.35 158.28,-36.68 134.85,-30.06"/>
<polygon fill="#63b8ff" stroke="#63b8ff" points="206.93,-54.05 217.51,-53.4 208.83,-47.32 206.93,-54.05"/>
</g>
</g>
</svg>
