<?xml version="1.0" encoding="UTF-8" standalone="no"?>
<!DOCTYPE svg PUBLIC "-//W3C//DTD SVG 1.1//EN"
 "http://www.w3.org/Graphics/SVG/1.1/DTD/svg11.dtd">
<!-- Generated by graphviz version 2.44.1 (20220725.2034)
 -->
<!-- Title: int_num_t::rem2p Pages: 1 -->
<svg width="236pt" height="45pt"
 viewBox="0.00 0.00 236.00 45.00" xmlns="http://www.w3.org/2000/svg" xmlns:xlink="http://www.w3.org/1999/xlink">
<g id="graph0" class="graph" transform="scale(1 1) rotate(0) translate(4 41)">
<title>int_num_t::rem2p</title>
<!-- Node1 -->
<g id="node1" class="node">
<title>Node1</title>
<g id="a_node1"><a xlink:title=" ">
<polygon fill="#999999" stroke="#666666" points="92,-19 0,-19 0,0 92,0 92,-19"/>
<text text-anchor="middle" x="46" y="-7" font-family="Helvetica,sans-Serif" font-size="10.00">int_num_t::rem2p</text>
</a>
</g>
</g>
<!-- Node2 -->
<g id="node2" class="node">
<title>Node2</title>
<g id="a_node2"><a xlink:href="structint__num__t.html#ae209e7a115353db1633459a602d24e0b" target="_top" xlink:title=" ">
<polygon fill="white" stroke="#666666" points="228,-19 128,-19 128,0 228,0 228,-19"/>
<text text-anchor="middle" x="178" y="-7" font-family="Helvetica,sans-Serif" font-size="10.00">int_num_t::num_int</text>
</a>
</g>
</g>
<!-- Node1&#45;&gt;Node2 -->
<g id="edge1" class="edge">
<title>Node1&#45;&gt;Node2</title>
<path fill="none" stroke="#63b8ff" d="M92.1,-9.5C100.43,-9.5 109.24,-9.5 117.91,-9.5"/>
<polygon fill="#63b8ff" stroke="#63b8ff" points="117.98,-13 127.98,-9.5 117.98,-6 117.98,-13"/>
</g>
<!-- Node2&#45;&gt;Node2 -->
<g id="edge2" class="edge">
<title>Node2&#45;&gt;Node2</title>
<path fill="none" stroke="#63b8ff" d="M157.65,-19.08C147.76,-27.73 154.54,-37 178,-37 193.03,-37 201.21,-33.2 202.55,-28.19"/>
<polygon fill="#63b8ff" stroke="#63b8ff" points="205.72,-26.69 198.35,-19.08 199.36,-29.63 205.72,-26.69"/>
</g>
</g>
</svg>
