<?xml version="1.0" encoding="UTF-8" standalone="no"?>
<!DOCTYPE svg PUBLIC "-//W3C//DTD SVG 1.1//EN"
 "http://www.w3.org/Graphics/SVG/1.1/DTD/svg11.dtd">
<!-- Generated by graphviz version 2.44.1 (20220725.2034)
 -->
<!-- Title: int_num_t::mC_B Pages: 1 -->
<svg width="250pt" height="82pt"
 viewBox="0.00 0.00 250.00 82.00" xmlns="http://www.w3.org/2000/svg" xmlns:xlink="http://www.w3.org/1999/xlink">
<g id="graph0" class="graph" transform="scale(1 1) rotate(0) translate(4 78)">
<title>int_num_t::mC_B</title>
<!-- Node1 -->
<g id="node1" class="node">
<title>Node1</title>
<g id="a_node1"><a xlink:title=" ">
<polygon fill="#999999" stroke="#666666" points="93,-37 0,-37 0,-18 93,-18 93,-37"/>
<text text-anchor="middle" x="46.5" y="-25" font-family="Helvetica,sans-Serif" font-size="10.00">int_num_t::mC_B</text>
</a>
</g>
</g>
<!-- Node2 -->
<g id="node2" class="node">
<title>Node2</title>
<g id="a_node2"><a xlink:href="structint__num__t.html#ae209e7a115353db1633459a602d24e0b" target="_top" xlink:title=" ">
<polygon fill="white" stroke="#666666" points="235.5,-56 135.5,-56 135.5,-37 235.5,-37 235.5,-56"/>
<text text-anchor="middle" x="185.5" y="-44" font-family="Helvetica,sans-Serif" font-size="10.00">int_num_t::num_int</text>
</a>
</g>
</g>
<!-- Node1&#45;&gt;Node2 -->
<g id="edge1" class="edge">
<title>Node1&#45;&gt;Node2</title>
<path fill="none" stroke="#63b8ff" d="M93.12,-33.83C103.38,-35.25 114.42,-36.78 125.15,-38.27"/>
<polygon fill="#63b8ff" stroke="#63b8ff" points="124.93,-41.77 135.32,-39.68 125.89,-34.84 124.93,-41.77"/>
</g>
<!-- Node3 -->
<g id="node3" class="node">
<title>Node3</title>
<g id="a_node3"><a xlink:href="structint__num__t.html#a6575701ad34d79f67738bdef51c92a2d" target="_top" xlink:title=" ">
<polygon fill="white" stroke="#666666" points="242,-19 129,-19 129,0 242,0 242,-19"/>
<text text-anchor="middle" x="185.5" y="-7" font-family="Helvetica,sans-Serif" font-size="10.00">int_num_t::push_back</text>
</a>
</g>
</g>
<!-- Node1&#45;&gt;Node3 -->
<g id="edge3" class="edge">
<title>Node1&#45;&gt;Node3</title>
<path fill="none" stroke="#63b8ff" d="M93.12,-21.51C101.29,-20.43 109.95,-19.3 118.55,-18.16"/>
<polygon fill="#63b8ff" stroke="#63b8ff" points="119.14,-21.62 128.59,-16.85 118.22,-14.68 119.14,-21.62"/>
</g>
<!-- Node2&#45;&gt;Node2 -->
<g id="edge2" class="edge">
<title>Node2&#45;&gt;Node2</title>
<path fill="none" stroke="#63b8ff" d="M164.23,-56.08C153.88,-64.73 160.97,-74 185.5,-74 201.21,-74 209.77,-70.2 211.17,-65.19"/>
<polygon fill="#63b8ff" stroke="#63b8ff" points="214.27,-63.56 206.77,-56.08 207.97,-66.61 214.27,-63.56"/>
</g>
</g>
</svg>
