<?xml version="1.0" encoding="UTF-8" standalone="no"?>
<!DOCTYPE svg PUBLIC "-//W3C//DTD SVG 1.1//EN"
 "http://www.w3.org/Graphics/SVG/1.1/DTD/svg11.dtd">
<!-- Generated by graphviz version 2.44.1 (20220725.2034)
 -->
<!-- Title: NumRepr::dig_t::is_0_divisor Pages: 1 -->
<svg width="226pt" height="64pt"
 viewBox="0.00 0.00 226.00 64.00" xmlns="http://www.w3.org/2000/svg" xmlns:xlink="http://www.w3.org/1999/xlink">
<g id="graph0" class="graph" transform="scale(1 1) rotate(0) translate(4 60)">
<title>NumRepr::dig_t::is_0_divisor</title>
<!-- Node1 -->
<g id="node1" class="node">
<title>Node1</title>
<g id="a_node1"><a xlink:title=" ">
<polygon fill="#999999" stroke="#666666" points="99,-42.5 0,-42.5 0,-12.5 99,-12.5 99,-42.5"/>
<text text-anchor="start" x="8" y="-30.5" font-family="Helvetica,sans-Serif" font-size="10.00">NumRepr::dig_t::is</text>
<text text-anchor="middle" x="49.5" y="-19.5" font-family="Helvetica,sans-Serif" font-size="10.00">_0_divisor</text>
</a>
</g>
</g>
<!-- Node2 -->
<g id="node2" class="node">
<title>Node2</title>
<g id="a_node2"><a xlink:href="nat__reg__digs__t_01_07_copia_01en_01conflicto_01de_01_m_s_i_012022-11-24_08_8hpp.html#a540a0e700a266a624a295898de9ff8fc" target="_top" xlink:title=" ">
<polygon fill="white" stroke="#666666" points="194,-56 159,-56 159,-37 194,-37 194,-56"/>
<text text-anchor="middle" x="176.5" y="-44" font-family="Helvetica,sans-Serif" font-size="10.00">is_0</text>
</a>
</g>
</g>
<!-- Node1&#45;&gt;Node2 -->
<g id="edge1" class="edge">
<title>Node1&#45;&gt;Node2</title>
<path fill="none" stroke="#63b8ff" d="M99.19,-34.9C116.01,-37.46 134.24,-40.23 148.66,-42.42"/>
<polygon fill="#63b8ff" stroke="#63b8ff" points="148.45,-45.93 158.86,-43.97 149.5,-39.01 148.45,-45.93"/>
</g>
<!-- Node3 -->
<g id="node3" class="node">
<title>Node3</title>
<g id="a_node3"><a xlink:href="namespace_num_repr.html#a2546ea7fb1f063e87dbb450cfe5e3623" target="_top" xlink:title=" ">
<polygon fill="white" stroke="#666666" points="218,-19 135,-19 135,0 218,0 218,-19"/>
<text text-anchor="middle" x="176.5" y="-7" font-family="Helvetica,sans-Serif" font-size="10.00">NumRepr::ui_1</text>
</a>
</g>
</g>
<!-- Node1&#45;&gt;Node3 -->
<g id="edge2" class="edge">
<title>Node1&#45;&gt;Node3</title>
<path fill="none" stroke="#63b8ff" d="M99.19,-20.49C107.57,-19.28 116.3,-18.02 124.74,-16.81"/>
<polygon fill="#63b8ff" stroke="#63b8ff" points="125.44,-20.25 134.84,-15.36 124.44,-13.32 125.44,-20.25"/>
</g>
</g>
</svg>
