<?xml version="1.0" encoding="UTF-8" standalone="no"?>
<!DOCTYPE svg PUBLIC "-//W3C//DTD SVG 1.1//EN"
 "http://www.w3.org/Graphics/SVG/1.1/DTD/svg11.dtd">
<!-- Generated by graphviz version 2.44.1 (20220725.2034)
 -->
<!-- Title: int_num_t::operator/ Pages: 1 -->
<svg width="365pt" height="46pt"
 viewBox="0.00 0.00 365.00 46.00" xmlns="http://www.w3.org/2000/svg" xmlns:xlink="http://www.w3.org/1999/xlink">
<g id="graph0" class="graph" transform="scale(1 1) rotate(0) translate(4 42)">
<title>int_num_t::operator/</title>
<!-- Node1 -->
<g id="node1" class="node">
<title>Node1</title>
<g id="a_node1"><a xlink:title=" ">
<polygon fill="#999999" stroke="#666666" points="104,-19 0,-19 0,0 104,0 104,-19"/>
<text text-anchor="middle" x="52" y="-7" font-family="Helvetica,sans-Serif" font-size="10.00">int_num_t::operator/</text>
</a>
</g>
</g>
<!-- Node2 -->
<g id="node2" class="node">
<title>Node2</title>
<g id="a_node2"><a xlink:href="structint__num__t.html#a94f6a0a608614642522b2d8fff91aff0" target="_top" xlink:title=" ">
<polygon fill="white" stroke="#666666" points="221,-38 140,-38 140,-19 221,-19 221,-38"/>
<text text-anchor="middle" x="180.5" y="-26" font-family="Helvetica,sans-Serif" font-size="10.00">int_num_t::abs</text>
</a>
</g>
</g>
<!-- Node1&#45;&gt;Node2 -->
<g id="edge1" class="edge">
<title>Node1&#45;&gt;Node2</title>
<path fill="none" stroke="#63b8ff" d="M104.09,-17.17C112.57,-18.45 121.36,-19.77 129.8,-21.04"/>
<polygon fill="#63b8ff" stroke="#63b8ff" points="129.49,-24.53 139.9,-22.55 130.53,-17.61 129.49,-24.53"/>
</g>
<!-- Node3 -->
<g id="node3" class="node">
<title>Node3</title>
<g id="a_node3"><a xlink:href="structint__num__t.html#ae209e7a115353db1633459a602d24e0b" target="_top" xlink:title=" ">
<polygon fill="white" stroke="#666666" points="357,-19 257,-19 257,0 357,0 357,-19"/>
<text text-anchor="middle" x="307" y="-7" font-family="Helvetica,sans-Serif" font-size="10.00">int_num_t::num_int</text>
</a>
</g>
</g>
<!-- Node1&#45;&gt;Node3 -->
<g id="edge4" class="edge">
<title>Node1&#45;&gt;Node3</title>
<path fill="none" stroke="#63b8ff" d="M104.2,-9.5C145.37,-9.5 203.27,-9.5 246.5,-9.5"/>
<polygon fill="#63b8ff" stroke="#63b8ff" points="246.6,-13 256.6,-9.5 246.6,-6 246.6,-13"/>
</g>
<!-- Node2&#45;&gt;Node3 -->
<g id="edge2" class="edge">
<title>Node2&#45;&gt;Node3</title>
<path fill="none" stroke="#63b8ff" d="M221.23,-22.44C229.32,-21.2 237.98,-19.88 246.58,-18.57"/>
<polygon fill="#63b8ff" stroke="#63b8ff" points="247.24,-22.01 256.59,-17.04 246.18,-15.09 247.24,-22.01"/>
</g>
<!-- Node3&#45;&gt;Node3 -->
<g id="edge3" class="edge">
<title>Node3&#45;&gt;Node3</title>
<path fill="none" stroke="#63b8ff" d="M287.58,-19.08C278.13,-27.73 284.61,-37 307,-37 321,-37 328.77,-33.38 330.33,-28.55"/>
<polygon fill="#63b8ff" stroke="#63b8ff" points="333.47,-26.99 326.42,-19.08 327,-29.66 333.47,-26.99"/>
</g>
</g>
</svg>
