<?xml version="1.0" encoding="UTF-8" standalone="no"?>
<!DOCTYPE svg PUBLIC "-//W3C//DTD SVG 1.1//EN"
 "http://www.w3.org/Graphics/SVG/1.1/DTD/svg11.dtd">
<!-- Generated by graphviz version 2.44.1 (20220725.2034)
 -->
<!-- Title: NumRepr::nat_rat_fixed_reg_t::pfx_rat_reg_digs_t Pages: 1 -->
<svg width="468pt" height="1764pt"
 viewBox="0.00 0.00 468.00 1764.00" xmlns="http://www.w3.org/2000/svg" xmlns:xlink="http://www.w3.org/1999/xlink">
<g id="graph0" class="graph" transform="scale(1 1) rotate(0) translate(4 1760)">
<title>NumRepr::nat_rat_fixed_reg_t::pfx_rat_reg_digs_t</title>
<!-- Node1 -->
<g id="node1" class="node">
<title>Node1</title>
<g id="a_node1"><a xlink:title=" ">
<polygon fill="#999999" stroke="#666666" points="460,-868 330,-868 330,-838 460,-838 460,-868"/>
<text text-anchor="start" x="338" y="-856" font-family="Helvetica,sans-Serif" font-size="10.00">NumRepr::nat_rat_fixed</text>
<text text-anchor="middle" x="395" y="-845" font-family="Helvetica,sans-Serif" font-size="10.00">_reg_t::pfx_rat_reg_digs_t</text>
</a>
</g>
</g>
<!-- Node2 -->
<g id="node2" class="node">
<title>Node2</title>
<g id="a_node2"><a xlink:href="struct_num_repr_1_1nat__rat__fixed__reg__t.html#a747abd2210ae2c492b36f277931a8cb6" target="_top" xlink:title="&#39;@&#39; = &#39;+&#39;">
<polygon fill="white" stroke="#666666" points="286,-1756 165,-1756 165,-1726 286,-1726 286,-1756"/>
<text text-anchor="start" x="173" y="-1744" font-family="Helvetica,sans-Serif" font-size="10.00">NumRepr::nat_rat_fixed</text>
<text text-anchor="middle" x="225.5" y="-1733" font-family="Helvetica,sans-Serif" font-size="10.00">_reg_t::add</text>
</a>
</g>
</g>
<!-- Node1&#45;&gt;Node2 -->
<g id="edge1" class="edge">
<title>Node1&#45;&gt;Node2</title>
<path fill="none" stroke="#63b8ff" d="M392.65,-878.3C385.23,-1013.74 347.73,-1649.48 294,-1717 291.29,-1720.41 288.06,-1723.33 284.5,-1725.84"/>
<polygon fill="#63b8ff" stroke="#63b8ff" points="396.16,-878.26 393.21,-868.09 389.17,-877.88 396.16,-878.26"/>
</g>
<!-- Node3 -->
<g id="node3" class="node">
<title>Node3</title>
<g id="a_node3"><a xlink:href="struct_num_repr_1_1nat__rat__fixed__reg__t.html#adf28ede7d87f952b85ee2e6f13bddd99" target="_top" xlink:title=" ">
<polygon fill="white" stroke="#666666" points="286,-1708 165,-1708 165,-1678 286,-1678 286,-1708"/>
<text text-anchor="start" x="173" y="-1696" font-family="Helvetica,sans-Serif" font-size="10.00">NumRepr::nat_rat_fixed</text>
<text text-anchor="middle" x="225.5" y="-1685" font-family="Helvetica,sans-Serif" font-size="10.00">_reg_t::C_B</text>
</a>
</g>
</g>
<!-- Node1&#45;&gt;Node3 -->
<g id="edge2" class="edge">
<title>Node1&#45;&gt;Node3</title>
<path fill="none" stroke="#63b8ff" d="M394.35,-878.12C395.58,-1001.56 395.04,-1542.91 294,-1669 291.28,-1672.4 288.04,-1675.31 284.47,-1677.82"/>
<polygon fill="#63b8ff" stroke="#63b8ff" points="397.85,-878.07 394.24,-868.11 390.85,-878.15 397.85,-878.07"/>
</g>
<!-- Node4 -->
<g id="node4" class="node">
<title>Node4</title>
<g id="a_node4"><a xlink:href="struct_num_repr_1_1nat__rat__fixed__reg__t.html#a27966e1e6701d534293e7f258e53457b" target="_top" xlink:title=" ">
<polygon fill="white" stroke="#666666" points="286,-1660 165,-1660 165,-1630 286,-1630 286,-1660"/>
<text text-anchor="start" x="173" y="-1648" font-family="Helvetica,sans-Serif" font-size="10.00">NumRepr::nat_rat_fixed</text>
<text text-anchor="middle" x="225.5" y="-1637" font-family="Helvetica,sans-Serif" font-size="10.00">_reg_t::C_Bm1</text>
</a>
</g>
</g>
<!-- Node1&#45;&gt;Node4 -->
<g id="edge3" class="edge">
<title>Node1&#45;&gt;Node4</title>
<path fill="none" stroke="#63b8ff" d="M394.14,-878.51C394.28,-998.19 389.14,-1503.19 294,-1621 291.27,-1624.39 288.02,-1627.3 284.45,-1629.79"/>
<polygon fill="#63b8ff" stroke="#63b8ff" points="397.64,-878.14 394.11,-868.15 390.64,-878.16 397.64,-878.14"/>
</g>
<!-- Node5 -->
<g id="node5" class="node">
<title>Node5</title>
<g id="a_node5"><a xlink:href="struct_num_repr_1_1nat__rat__fixed__reg__t.html#a8c7d7fb0e6776dd78e993e5fc8fbf8e4" target="_top" xlink:title=" ">
<polygon fill="white" stroke="#666666" points="286,-1612 165,-1612 165,-1582 286,-1582 286,-1612"/>
<text text-anchor="start" x="173" y="-1600" font-family="Helvetica,sans-Serif" font-size="10.00">NumRepr::nat_rat_fixed</text>
<text text-anchor="middle" x="225.5" y="-1589" font-family="Helvetica,sans-Serif" font-size="10.00">_reg_t::concat</text>
</a>
</g>
</g>
<!-- Node1&#45;&gt;Node5 -->
<g id="edge4" class="edge">
<title>Node1&#45;&gt;Node5</title>
<path fill="none" stroke="#63b8ff" d="M393.89,-878.37C392.9,-993.17 383.38,-1463.28 294,-1573 291.17,-1576.47 287.8,-1579.44 284.11,-1581.98"/>
<polygon fill="#63b8ff" stroke="#63b8ff" points="397.39,-878.13 393.96,-868.11 390.39,-878.08 397.39,-878.13"/>
</g>
<!-- Node6 -->
<g id="node6" class="node">
<title>Node6</title>
<g id="a_node6"><a xlink:href="struct_num_repr_1_1nat__rat__fixed__reg__t.html#a12229e5a534c8c6f2e4075031ae7ef6c" target="_top" xlink:title=" ">
<polygon fill="white" stroke="#666666" points="286,-1564 165,-1564 165,-1534 286,-1534 286,-1564"/>
<text text-anchor="start" x="173" y="-1552" font-family="Helvetica,sans-Serif" font-size="10.00">NumRepr::nat_rat_fixed</text>
<text text-anchor="middle" x="225.5" y="-1541" font-family="Helvetica,sans-Serif" font-size="10.00">_reg_t::concat_inv</text>
</a>
</g>
</g>
<!-- Node1&#45;&gt;Node6 -->
<g id="edge5" class="edge">
<title>Node1&#45;&gt;Node6</title>
<path fill="none" stroke="#63b8ff" d="M393.61,-878.43C391.43,-988.56 377.59,-1423.4 294,-1525 291.16,-1528.46 287.78,-1531.42 284.07,-1533.95"/>
<polygon fill="#63b8ff" stroke="#63b8ff" points="397.11,-878.32 393.8,-868.26 390.11,-878.19 397.11,-878.32"/>
</g>
<!-- Node7 -->
<g id="node7" class="node">
<title>Node7</title>
<g id="a_node7"><a xlink:href="struct_num_repr_1_1nat__rat__fixed__reg__t.html#a43181180eabb8e8ea937db4ba2d7718d" target="_top" xlink:title=" ">
<polygon fill="white" stroke="#666666" points="286,-1516 165,-1516 165,-1486 286,-1486 286,-1516"/>
<text text-anchor="start" x="173" y="-1504" font-family="Helvetica,sans-Serif" font-size="10.00">NumRepr::nat_rat_fixed</text>
<text text-anchor="middle" x="225.5" y="-1493" font-family="Helvetica,sans-Serif" font-size="10.00">_reg_t::mC_B</text>
</a>
</g>
</g>
<!-- Node1&#45;&gt;Node7 -->
<g id="edge6" class="edge">
<title>Node1&#45;&gt;Node7</title>
<path fill="none" stroke="#63b8ff" d="M393.3,-878.26C389.88,-983.19 371.87,-1383.42 294,-1477 291.14,-1480.44 287.74,-1483.39 284.03,-1485.92"/>
<polygon fill="#63b8ff" stroke="#63b8ff" points="396.8,-878.1 393.61,-868 389.8,-877.89 396.8,-878.1"/>
</g>
<!-- Node8 -->
<g id="node8" class="node">
<title>Node8</title>
<g id="a_node8"><a xlink:href="struct_num_repr_1_1nat__rat__fixed__reg__t.html#a82fea75187699b7f253e7a0b76f84816" target="_top" xlink:title=" ">
<polygon fill="white" stroke="#666666" points="286,-1468 165,-1468 165,-1438 286,-1438 286,-1468"/>
<text text-anchor="start" x="173" y="-1456" font-family="Helvetica,sans-Serif" font-size="10.00">NumRepr::nat_rat_fixed</text>
<text text-anchor="middle" x="225.5" y="-1445" font-family="Helvetica,sans-Serif" font-size="10.00">_reg_t::mC_Bm1</text>
</a>
</g>
</g>
<!-- Node1&#45;&gt;Node8 -->
<g id="edge7" class="edge">
<title>Node1&#45;&gt;Node8</title>
<path fill="none" stroke="#63b8ff" d="M392.92,-878.24C388.19,-978 366.13,-1343.46 294,-1429 291.11,-1432.42 287.7,-1435.36 283.98,-1437.87"/>
<polygon fill="#63b8ff" stroke="#63b8ff" points="396.42,-878.32 393.39,-868.17 389.43,-878 396.42,-878.32"/>
</g>
<!-- Node9 -->
<g id="node9" class="node">
<title>Node9</title>
<g id="a_node9"><a xlink:href="struct_num_repr_1_1nat__rat__fixed__reg__t.html#ae46f34abf55253a3dc0f6774678f57bc" target="_top" xlink:title=" ">
<polygon fill="white" stroke="#666666" points="286,-1420 165,-1420 165,-1390 286,-1390 286,-1420"/>
<text text-anchor="start" x="173" y="-1408" font-family="Helvetica,sans-Serif" font-size="10.00">NumRepr::nat_rat_fixed</text>
<text text-anchor="middle" x="225.5" y="-1397" font-family="Helvetica,sans-Serif" font-size="10.00">_reg_t::mult</text>
</a>
</g>
</g>
<!-- Node1&#45;&gt;Node9 -->
<g id="edge8" class="edge">
<title>Node1&#45;&gt;Node9</title>
<path fill="none" stroke="#63b8ff" d="M392.49,-878.25C386.35,-972.66 360.4,-1303.46 294,-1381 291.09,-1384.4 287.66,-1387.32 283.92,-1389.83"/>
<polygon fill="#63b8ff" stroke="#63b8ff" points="395.99,-878.38 393.12,-868.18 389,-877.94 395.99,-878.38"/>
</g>
<!-- Node10 -->
<g id="node10" class="node">
<title>Node10</title>
<g id="a_node10"><a xlink:href="struct_num_repr_1_1nat__rat__fixed__reg__t.html#a9f8d01bd90392598f683702bdff3ad45" target="_top" xlink:title=" ">
<polygon fill="white" stroke="#666666" points="286,-1372 165,-1372 165,-1342 286,-1342 286,-1372"/>
<text text-anchor="start" x="173" y="-1360" font-family="Helvetica,sans-Serif" font-size="10.00">NumRepr::nat_rat_fixed</text>
<text text-anchor="middle" x="225.5" y="-1349" font-family="Helvetica,sans-Serif" font-size="10.00">_reg_t::operator!</text>
</a>
</g>
</g>
<!-- Node1&#45;&gt;Node10 -->
<g id="edge9" class="edge">
<title>Node1&#45;&gt;Node10</title>
<path fill="none" stroke="#63b8ff" d="M391.97,-878.24C384.34,-967.04 354.7,-1263.42 294,-1333 290.97,-1336.47 287.41,-1339.43 283.54,-1341.97"/>
<polygon fill="#63b8ff" stroke="#63b8ff" points="395.46,-878.5 392.81,-868.24 388.48,-877.92 395.46,-878.5"/>
</g>
<!-- Node11 -->
<g id="node11" class="node">
<title>Node11</title>
<g id="a_node11"><a xlink:href="struct_num_repr_1_1nat__rat__fixed__reg__t.html#a44e11dd006b54a63e2fbf7242cf9f273" target="_top" xlink:title=" ">
<polygon fill="white" stroke="#666666" points="286,-1324 165,-1324 165,-1294 286,-1294 286,-1324"/>
<text text-anchor="start" x="173" y="-1312" font-family="Helvetica,sans-Serif" font-size="10.00">NumRepr::nat_rat_fixed</text>
<text text-anchor="middle" x="225.5" y="-1301" font-family="Helvetica,sans-Serif" font-size="10.00">_reg_t::operator&amp;</text>
</a>
</g>
</g>
<!-- Node1&#45;&gt;Node11 -->
<g id="edge10" class="edge">
<title>Node1&#45;&gt;Node11</title>
<path fill="none" stroke="#63b8ff" d="M391.35,-878.11C382.13,-960.87 349.05,-1223.28 294,-1285 290.94,-1288.43 287.35,-1291.38 283.45,-1293.9"/>
<polygon fill="#63b8ff" stroke="#63b8ff" points="394.84,-878.4 392.44,-868.08 387.88,-877.64 394.84,-878.4"/>
</g>
<!-- Node12 -->
<g id="node12" class="node">
<title>Node12</title>
<g id="a_node12"><a xlink:href="struct_num_repr_1_1nat__rat__fixed__reg__t.html#abbd54ac852f5cde9a0ec8ebe34f4ffc9" target="_top" xlink:title=" ">
<polygon fill="white" stroke="#666666" points="286,-1276 165,-1276 165,-1246 286,-1246 286,-1276"/>
<text text-anchor="start" x="173" y="-1264" font-family="Helvetica,sans-Serif" font-size="10.00">NumRepr::nat_rat_fixed</text>
<text text-anchor="middle" x="225.5" y="-1253" font-family="Helvetica,sans-Serif" font-size="10.00">_reg_t::operator*</text>
</a>
</g>
</g>
<!-- Node1&#45;&gt;Node12 -->
<g id="edge11" class="edge">
<title>Node1&#45;&gt;Node12</title>
<path fill="none" stroke="#63b8ff" d="M390.54,-878.29C379.57,-955 343.36,-1183.15 294,-1237 290.89,-1240.39 287.27,-1243.31 283.35,-1245.81"/>
<polygon fill="#63b8ff" stroke="#63b8ff" points="394.04,-878.49 391.97,-868.1 387.11,-877.52 394.04,-878.49"/>
</g>
<!-- Node13 -->
<g id="node13" class="node">
<title>Node13</title>
<g id="a_node13"><a xlink:href="struct_num_repr_1_1nat__rat__fixed__reg__t.html#a7921aacc123039a503c43bb0590a3816" target="_top" xlink:title=" ">
<polygon fill="white" stroke="#666666" points="286,-1228 165,-1228 165,-1198 286,-1198 286,-1228"/>
<text text-anchor="start" x="173" y="-1216" font-family="Helvetica,sans-Serif" font-size="10.00">NumRepr::nat_rat_fixed</text>
<text text-anchor="middle" x="225.5" y="-1205" font-family="Helvetica,sans-Serif" font-size="10.00">_reg_t::operator*=</text>
</a>
</g>
</g>
<!-- Node1&#45;&gt;Node13 -->
<g id="edge12" class="edge">
<title>Node1&#45;&gt;Node13</title>
<path fill="none" stroke="#63b8ff" d="M393.86,-878.4C392.14,-940.08 379.19,-1099.23 294,-1189 290.75,-1192.43 286.97,-1195.37 282.9,-1197.89"/>
<polygon fill="#63b8ff" stroke="#63b8ff" points="397.37,-878.13 394.07,-868.06 390.37,-877.99 397.37,-878.13"/>
</g>
<!-- Node14 -->
<g id="node14" class="node">
<title>Node14</title>
<g id="a_node14"><a xlink:href="struct_num_repr_1_1nat__rat__fixed__reg__t.html#ad900c018f6bac8a884c30349154dea10" target="_top" xlink:title=" ">
<polygon fill="white" stroke="#666666" points="286,-1180 165,-1180 165,-1150 286,-1150 286,-1180"/>
<text text-anchor="start" x="173" y="-1168" font-family="Helvetica,sans-Serif" font-size="10.00">NumRepr::nat_rat_fixed</text>
<text text-anchor="middle" x="225.5" y="-1157" font-family="Helvetica,sans-Serif" font-size="10.00">_reg_t::operator+</text>
</a>
</g>
</g>
<!-- Node1&#45;&gt;Node14 -->
<g id="edge13" class="edge">
<title>Node1&#45;&gt;Node14</title>
<path fill="none" stroke="#63b8ff" d="M392.39,-878.18C387.51,-933.39 368.28,-1066.16 294,-1141 290.58,-1144.44 286.64,-1147.39 282.41,-1149.92"/>
<polygon fill="#63b8ff" stroke="#63b8ff" points="395.88,-878.45 393.18,-868.21 388.9,-877.9 395.88,-878.45"/>
</g>
<!-- Node15 -->
<g id="node15" class="node">
<title>Node15</title>
<g id="a_node15"><a xlink:href="struct_num_repr_1_1nat__rat__fixed__reg__t.html#a1ad5dbda3b2a1663086f48ccddb0c07d" target="_top" xlink:title=" ">
<polygon fill="white" stroke="#666666" points="286,-1132 165,-1132 165,-1102 286,-1102 286,-1132"/>
<text text-anchor="start" x="173" y="-1120" font-family="Helvetica,sans-Serif" font-size="10.00">NumRepr::nat_rat_fixed</text>
<text text-anchor="middle" x="225.5" y="-1109" font-family="Helvetica,sans-Serif" font-size="10.00">_reg_t::operator++</text>
</a>
</g>
</g>
<!-- Node1&#45;&gt;Node15 -->
<g id="edge14" class="edge">
<title>Node1&#45;&gt;Node15</title>
<path fill="none" stroke="#63b8ff" d="M390.41,-877.93C382.17,-926.16 357.49,-1032.8 294,-1093 290.39,-1096.42 286.26,-1099.36 281.86,-1101.89"/>
<polygon fill="#63b8ff" stroke="#63b8ff" points="393.87,-878.46 392,-868.03 386.95,-877.35 393.87,-878.46"/>
</g>
<!-- Node16 -->
<g id="node16" class="node">
<title>Node16</title>
<g id="a_node16"><a xlink:href="struct_num_repr_1_1nat__rat__fixed__reg__t.html#af9fbb6e036ca9bd58675e476d43e05a9" target="_top" xlink:title=" ">
<polygon fill="white" stroke="#666666" points="286,-1084 165,-1084 165,-1054 286,-1054 286,-1084"/>
<text text-anchor="start" x="173" y="-1072" font-family="Helvetica,sans-Serif" font-size="10.00">NumRepr::nat_rat_fixed</text>
<text text-anchor="middle" x="225.5" y="-1061" font-family="Helvetica,sans-Serif" font-size="10.00">_reg_t::operator+=</text>
</a>
</g>
</g>
<!-- Node1&#45;&gt;Node16 -->
<g id="edge15" class="edge">
<title>Node1&#45;&gt;Node16</title>
<path fill="none" stroke="#63b8ff" d="M387.54,-877.74C375.72,-918.3 346.81,-999.04 294,-1045 290.06,-1048.43 285.59,-1051.38 280.88,-1053.91"/>
<polygon fill="#63b8ff" stroke="#63b8ff" points="390.91,-878.68 390.25,-868.11 384.17,-876.79 390.91,-878.68"/>
</g>
<!-- Node17 -->
<g id="node17" class="node">
<title>Node17</title>
<g id="a_node17"><a xlink:href="struct_num_repr_1_1nat__rat__fixed__reg__t.html#a46c6455a1ef12adaad5d814985d9ee2c" target="_top" xlink:title=" ">
<polygon fill="white" stroke="#666666" points="286,-1036 165,-1036 165,-1006 286,-1006 286,-1036"/>
<text text-anchor="start" x="173" y="-1024" font-family="Helvetica,sans-Serif" font-size="10.00">NumRepr::nat_rat_fixed</text>
<text text-anchor="middle" x="225.5" y="-1013" font-family="Helvetica,sans-Serif" font-size="10.00">_reg_t::operator&#45;</text>
</a>
</g>
</g>
<!-- Node1&#45;&gt;Node17 -->
<g id="edge16" class="edge">
<title>Node1&#45;&gt;Node17</title>
<path fill="none" stroke="#63b8ff" d="M382.99,-877.46C367.47,-909.3 336.29,-964.67 294,-997 289.55,-1000.4 284.58,-1003.34 279.41,-1005.89"/>
<polygon fill="#63b8ff" stroke="#63b8ff" points="386.17,-878.92 387.29,-868.39 379.84,-875.92 386.17,-878.92"/>
</g>
<!-- Node18 -->
<g id="node18" class="node">
<title>Node18</title>
<g id="a_node18"><a xlink:href="struct_num_repr_1_1nat__rat__fixed__reg__t.html#ae87bcfde3ae0324b373aef151db47020" target="_top" xlink:title=" ">
<polygon fill="white" stroke="#666666" points="286,-988 165,-988 165,-958 286,-958 286,-988"/>
<text text-anchor="start" x="173" y="-976" font-family="Helvetica,sans-Serif" font-size="10.00">NumRepr::nat_rat_fixed</text>
<text text-anchor="middle" x="225.5" y="-965" font-family="Helvetica,sans-Serif" font-size="10.00">_reg_t::operator&#45;&#45;</text>
</a>
</g>
</g>
<!-- Node1&#45;&gt;Node18 -->
<g id="edge17" class="edge">
<title>Node1&#45;&gt;Node18</title>
<path fill="none" stroke="#63b8ff" d="M375.42,-875.72C356.8,-897.2 326.32,-929.04 294,-949 288.6,-952.33 282.68,-955.29 276.65,-957.89"/>
<polygon fill="#63b8ff" stroke="#63b8ff" points="378.14,-877.92 381.96,-868.04 372.81,-873.38 378.14,-877.92"/>
</g>
<!-- Node19 -->
<g id="node19" class="node">
<title>Node19</title>
<g id="a_node19"><a xlink:href="struct_num_repr_1_1nat__rat__fixed__reg__t.html#a863b4585d8f4ae407912c98c9273b6d3" target="_top" xlink:title=" ">
<polygon fill="white" stroke="#666666" points="286,-940 165,-940 165,-910 286,-910 286,-940"/>
<text text-anchor="start" x="173" y="-928" font-family="Helvetica,sans-Serif" font-size="10.00">NumRepr::nat_rat_fixed</text>
<text text-anchor="middle" x="225.5" y="-917" font-family="Helvetica,sans-Serif" font-size="10.00">_reg_t::operator&#45;=</text>
</a>
</g>
</g>
<!-- Node1&#45;&gt;Node19 -->
<g id="edge18" class="edge">
<title>Node1&#45;&gt;Node19</title>
<path fill="none" stroke="#63b8ff" d="M355.66,-872.58C337.22,-881.69 314.68,-892.39 294,-901 286.65,-904.06 278.76,-907.09 271.05,-909.91"/>
<polygon fill="#63b8ff" stroke="#63b8ff" points="357.23,-875.71 364.62,-868.12 354.11,-869.44 357.23,-875.71"/>
</g>
<!-- Node20 -->
<g id="node20" class="node">
<title>Node20</title>
<g id="a_node20"><a xlink:href="struct_num_repr_1_1nat__rat__fixed__reg__t.html#ad44b35a08b59ad0418071711eeed448b" target="_top" xlink:title=" ">
<polygon fill="white" stroke="#666666" points="286,-892 165,-892 165,-862 286,-862 286,-892"/>
<text text-anchor="start" x="173" y="-880" font-family="Helvetica,sans-Serif" font-size="10.00">NumRepr::nat_rat_fixed</text>
<text text-anchor="middle" x="225.5" y="-869" font-family="Helvetica,sans-Serif" font-size="10.00">_reg_t::operator&lt;&lt;</text>
</a>
</g>
</g>
<!-- Node1&#45;&gt;Node20 -->
<g id="edge19" class="edge">
<title>Node1&#45;&gt;Node20</title>
<path fill="none" stroke="#63b8ff" d="M319.56,-863.67C308.39,-865.27 297.01,-866.9 286.21,-868.44"/>
<polygon fill="#63b8ff" stroke="#63b8ff" points="320.32,-867.09 329.72,-862.21 319.32,-860.16 320.32,-867.09"/>
</g>
<!-- Node21 -->
<g id="node21" class="node">
<title>Node21</title>
<g id="a_node21"><a xlink:href="struct_num_repr_1_1nat__rat__fixed__reg__t.html#a197245d11816587e8bbcc82e53a94b45" target="_top" xlink:title=" ">
<polygon fill="white" stroke="#666666" points="286,-844 165,-844 165,-814 286,-814 286,-844"/>
<text text-anchor="start" x="173" y="-832" font-family="Helvetica,sans-Serif" font-size="10.00">NumRepr::nat_rat_fixed</text>
<text text-anchor="middle" x="225.5" y="-821" font-family="Helvetica,sans-Serif" font-size="10.00">_reg_t::operator&lt;&lt;=</text>
</a>
</g>
</g>
<!-- Node1&#45;&gt;Node21 -->
<g id="edge20" class="edge">
<title>Node1&#45;&gt;Node21</title>
<path fill="none" stroke="#63b8ff" d="M319.56,-842.33C308.39,-840.73 297.01,-839.1 286.21,-837.56"/>
<polygon fill="#63b8ff" stroke="#63b8ff" points="319.32,-845.84 329.72,-843.79 320.32,-838.91 319.32,-845.84"/>
</g>
<!-- Node22 -->
<g id="node22" class="node">
<title>Node22</title>
<g id="a_node22"><a xlink:href="struct_num_repr_1_1nat__rat__fixed__reg__t.html#a088384a64c5d34b0286cf4074929585f" target="_top" xlink:title=" ">
<polygon fill="white" stroke="#666666" points="286,-796 165,-796 165,-766 286,-766 286,-796"/>
<text text-anchor="start" x="173" y="-784" font-family="Helvetica,sans-Serif" font-size="10.00">NumRepr::nat_rat_fixed</text>
<text text-anchor="middle" x="225.5" y="-773" font-family="Helvetica,sans-Serif" font-size="10.00">_reg_t::operator&lt;=&gt;</text>
</a>
</g>
</g>
<!-- Node1&#45;&gt;Node22 -->
<g id="edge21" class="edge">
<title>Node1&#45;&gt;Node22</title>
<path fill="none" stroke="#63b8ff" d="M355.66,-833.42C337.22,-824.31 314.68,-813.61 294,-805 286.65,-801.94 278.76,-798.91 271.05,-796.09"/>
<polygon fill="#63b8ff" stroke="#63b8ff" points="354.11,-836.56 364.62,-837.88 357.23,-830.29 354.11,-836.56"/>
</g>
<!-- Node23 -->
<g id="node23" class="node">
<title>Node23</title>
<g id="a_node23"><a xlink:href="struct_num_repr_1_1nat__rat__fixed__reg__t.html#a2059c242611fae3bb6b65e7313bb7ff5" target="_top" xlink:title="DIVIDE BY THE BASE B (/10_B)">
<polygon fill="white" stroke="#666666" points="286,-748 165,-748 165,-718 286,-718 286,-748"/>
<text text-anchor="start" x="173" y="-736" font-family="Helvetica,sans-Serif" font-size="10.00">NumRepr::nat_rat_fixed</text>
<text text-anchor="middle" x="225.5" y="-725" font-family="Helvetica,sans-Serif" font-size="10.00">_reg_t::operator&gt;&gt;</text>
</a>
</g>
</g>
<!-- Node1&#45;&gt;Node23 -->
<g id="edge22" class="edge">
<title>Node1&#45;&gt;Node23</title>
<path fill="none" stroke="#63b8ff" d="M375.42,-830.28C356.8,-808.8 326.32,-776.96 294,-757 288.6,-753.67 282.68,-750.71 276.65,-748.11"/>
<polygon fill="#63b8ff" stroke="#63b8ff" points="372.81,-832.62 381.96,-837.96 378.14,-828.08 372.81,-832.62"/>
</g>
<!-- Node24 -->
<g id="node24" class="node">
<title>Node24</title>
<g id="a_node24"><a xlink:href="struct_num_repr_1_1nat__rat__fixed__reg__t.html#a04e688baa386601c21f3ad4348205ed8" target="_top" xlink:title=" ">
<polygon fill="white" stroke="#666666" points="286,-700 165,-700 165,-670 286,-670 286,-700"/>
<text text-anchor="start" x="173" y="-688" font-family="Helvetica,sans-Serif" font-size="10.00">NumRepr::nat_rat_fixed</text>
<text text-anchor="middle" x="225.5" y="-677" font-family="Helvetica,sans-Serif" font-size="10.00">_reg_t::operator&gt;&gt;=</text>
</a>
</g>
</g>
<!-- Node1&#45;&gt;Node24 -->
<g id="edge23" class="edge">
<title>Node1&#45;&gt;Node24</title>
<path fill="none" stroke="#63b8ff" d="M382.99,-828.54C367.47,-796.7 336.29,-741.33 294,-709 289.55,-705.6 284.58,-702.66 279.41,-700.11"/>
<polygon fill="#63b8ff" stroke="#63b8ff" points="379.84,-830.08 387.29,-837.61 386.17,-827.08 379.84,-830.08"/>
</g>
<!-- Node25 -->
<g id="node25" class="node">
<title>Node25</title>
<g id="a_node25"><a xlink:href="struct_num_repr_1_1nat__rat__fixed__reg__t.html#a85a5e8fd4c769947c919010307e3aa93" target="_top" xlink:title=" ">
<polygon fill="white" stroke="#666666" points="286,-652 165,-652 165,-622 286,-622 286,-652"/>
<text text-anchor="start" x="173" y="-640" font-family="Helvetica,sans-Serif" font-size="10.00">NumRepr::nat_rat_fixed</text>
<text text-anchor="middle" x="225.5" y="-629" font-family="Helvetica,sans-Serif" font-size="10.00">_reg_t::operator|</text>
</a>
</g>
</g>
<!-- Node1&#45;&gt;Node25 -->
<g id="edge24" class="edge">
<title>Node1&#45;&gt;Node25</title>
<path fill="none" stroke="#63b8ff" d="M387.54,-828.26C375.72,-787.7 346.81,-706.96 294,-661 290.06,-657.57 285.59,-654.62 280.88,-652.09"/>
<polygon fill="#63b8ff" stroke="#63b8ff" points="384.17,-829.21 390.25,-837.89 390.91,-827.32 384.17,-829.21"/>
</g>
<!-- Node26 -->
<g id="node26" class="node">
<title>Node26</title>
<g id="a_node26"><a xlink:href="struct_num_repr_1_1nat__rat__fixed__reg__t.html#a300ccd4144f9f2cdb9979897e14ded03" target="_top" xlink:title=" ">
<polygon fill="white" stroke="#666666" points="286,-528 165,-528 165,-498 286,-498 286,-528"/>
<text text-anchor="start" x="173" y="-516" font-family="Helvetica,sans-Serif" font-size="10.00">NumRepr::nat_rat_fixed</text>
<text text-anchor="middle" x="225.5" y="-505" font-family="Helvetica,sans-Serif" font-size="10.00">_reg_t::regd_0</text>
</a>
</g>
</g>
<!-- Node1&#45;&gt;Node26 -->
<g id="edge25" class="edge">
<title>Node1&#45;&gt;Node26</title>
<path fill="none" stroke="#63b8ff" d="M392.76,-827.82C388.61,-770.02 370.72,-626.35 294,-542 288.85,-536.34 282.41,-531.74 275.56,-528.01"/>
<polygon fill="#63b8ff" stroke="#63b8ff" points="389.27,-828.13 393.4,-837.88 396.26,-827.68 389.27,-828.13"/>
</g>
<!-- Node27 -->
<g id="node27" class="node">
<title>Node27</title>
<g id="a_node27"><a xlink:href="struct_num_repr_1_1nat__rat__fixed__reg__t.html#a4d1b2577021f8594d6efa471234869e0" target="_top" xlink:title=" ">
<polygon fill="white" stroke="#666666" points="121,-608 0,-608 0,-578 121,-578 121,-608"/>
<text text-anchor="start" x="8" y="-596" font-family="Helvetica,sans-Serif" font-size="10.00">NumRepr::nat_rat_fixed</text>
<text text-anchor="middle" x="60.5" y="-585" font-family="Helvetica,sans-Serif" font-size="10.00">_reg_t::regd_1</text>
</a>
</g>
</g>
<!-- Node1&#45;&gt;Node27 -->
<g id="edge31" class="edge">
<title>Node1&#45;&gt;Node27</title>
<path fill="none" stroke="#63b8ff" d="M391.84,-827.96C386.03,-777.74 365.31,-665.09 294,-613 244.36,-576.73 171.87,-576.44 121.07,-582.21"/>
<polygon fill="#63b8ff" stroke="#63b8ff" points="388.36,-828.37 392.89,-837.95 395.32,-827.64 388.36,-828.37"/>
</g>
<!-- Node28 -->
<g id="node28" class="node">
<title>Node28</title>
<g id="a_node28"><a xlink:href="struct_num_repr_1_1nat__rat__fixed__reg__t.html#afc75739252c5a40b233bd12eace8dd16" target="_top" xlink:title=" ">
<polygon fill="white" stroke="#666666" points="121,-560 0,-560 0,-530 121,-530 121,-560"/>
<text text-anchor="start" x="8" y="-548" font-family="Helvetica,sans-Serif" font-size="10.00">NumRepr::nat_rat_fixed</text>
<text text-anchor="middle" x="60.5" y="-537" font-family="Helvetica,sans-Serif" font-size="10.00">_reg_t::regd_B</text>
</a>
</g>
</g>
<!-- Node1&#45;&gt;Node28 -->
<g id="edge32" class="edge">
<title>Node1&#45;&gt;Node28</title>
<path fill="none" stroke="#63b8ff" d="M393.2,-827.88C389.97,-772.37 373.84,-639.16 294,-575 268.14,-554.22 180.96,-547.74 121.02,-545.77"/>
<polygon fill="#63b8ff" stroke="#63b8ff" points="389.71,-828.08 393.69,-837.9 396.7,-827.74 389.71,-828.08"/>
</g>
<!-- Node29 -->
<g id="node29" class="node">
<title>Node29</title>
<g id="a_node29"><a xlink:href="struct_num_repr_1_1nat__rat__fixed__reg__t.html#ad70d405111f74e96957daf7e860f0abd" target="_top" xlink:title=" ">
<polygon fill="white" stroke="#666666" points="121,-512 0,-512 0,-482 121,-482 121,-512"/>
<text text-anchor="start" x="8" y="-500" font-family="Helvetica,sans-Serif" font-size="10.00">NumRepr::nat_rat_fixed</text>
<text text-anchor="middle" x="60.5" y="-489" font-family="Helvetica,sans-Serif" font-size="10.00">_reg_t::regd_Bm1</text>
</a>
</g>
</g>
<!-- Node1&#45;&gt;Node29 -->
<g id="edge33" class="edge">
<title>Node1&#45;&gt;Node29</title>
<path fill="none" stroke="#63b8ff" d="M390.99,-827.74C381.45,-752.25 349.14,-531.03 294,-489 238.11,-446.39 150.79,-465.4 100.58,-481.95"/>
<polygon fill="#63b8ff" stroke="#63b8ff" points="387.54,-828.28 392.24,-837.78 394.48,-827.42 387.54,-828.28"/>
</g>
<!-- Node30 -->
<g id="node30" class="node">
<title>Node30</title>
<g id="a_node30"><a xlink:href="struct_num_repr_1_1nat__rat__fixed__reg__t.html#a0fd73bc1e0e7ef8d7e5cfeb2830da7a5" target="_top" xlink:title=" ">
<polygon fill="white" stroke="#666666" points="121,-463 0,-463 0,-433 121,-433 121,-463"/>
<text text-anchor="start" x="8" y="-451" font-family="Helvetica,sans-Serif" font-size="10.00">NumRepr::nat_rat_fixed</text>
<text text-anchor="middle" x="60.5" y="-440" font-family="Helvetica,sans-Serif" font-size="10.00">_reg_t::regd_pow_n_B</text>
</a>
</g>
</g>
<!-- Node1&#45;&gt;Node30 -->
<g id="edge34" class="edge">
<title>Node1&#45;&gt;Node30</title>
<path fill="none" stroke="#63b8ff" d="M391.47,-827.92C382.92,-748.77 352.34,-506.64 294,-459 246.03,-419.83 172.18,-423.62 120.62,-432.96"/>
<polygon fill="#63b8ff" stroke="#63b8ff" points="388,-828.4 392.53,-837.97 394.96,-827.66 388,-828.4"/>
</g>
<!-- Node31 -->
<g id="node31" class="node">
<title>Node31</title>
<g id="a_node31"><a xlink:href="struct_num_repr_1_1nat__rat__fixed__reg__t.html#a5beb2c8c44ad830017acdac79a4e84ad" target="_top" xlink:title="END : OPERATORS &gt;&gt; &gt;&gt;= &lt;&lt; &lt;&lt;=.">
<polygon fill="white" stroke="#666666" points="121,-413 0,-413 0,-383 121,-383 121,-413"/>
<text text-anchor="start" x="8" y="-401" font-family="Helvetica,sans-Serif" font-size="10.00">NumRepr::nat_rat_fixed</text>
<text text-anchor="middle" x="60.5" y="-390" font-family="Helvetica,sans-Serif" font-size="10.00">_reg_t::rem_B</text>
</a>
</g>
</g>
<!-- Node1&#45;&gt;Node31 -->
<g id="edge36" class="edge">
<title>Node1&#45;&gt;Node31</title>
<path fill="none" stroke="#63b8ff" d="M391.88,-827.41C384.33,-743.13 355.88,-476.59 294,-422 247.29,-380.8 173,-380.38 121.01,-386.64"/>
<polygon fill="#63b8ff" stroke="#63b8ff" points="388.41,-827.96 392.77,-837.62 395.38,-827.35 388.41,-827.96"/>
</g>
<!-- Node32 -->
<g id="node32" class="node">
<title>Node32</title>
<g id="a_node32"><a xlink:href="struct_num_repr_1_1nat__rat__fixed__reg__t.html#a010c5902fd8210da63a98c1179be37a7" target="_top" xlink:title=" ">
<polygon fill="white" stroke="#666666" points="292,-366 159,-366 159,-336 292,-336 292,-366"/>
<text text-anchor="start" x="167" y="-354" font-family="Helvetica,sans-Serif" font-size="10.00">NumRepr::nat_rat_fixed</text>
<text text-anchor="middle" x="225.5" y="-343" font-family="Helvetica,sans-Serif" font-size="10.00">_reg_t::regd_pow_n_B_m1</text>
</a>
</g>
</g>
<!-- Node1&#45;&gt;Node32 -->
<g id="edge35" class="edge">
<title>Node1&#45;&gt;Node32</title>
<path fill="none" stroke="#63b8ff" d="M391.68,-827.41C383.22,-739.31 351.54,-450.18 294,-380 289.39,-374.38 283.49,-369.82 277.1,-366.13"/>
<polygon fill="#63b8ff" stroke="#63b8ff" points="388.21,-827.95 392.63,-837.57 395.18,-827.29 388.21,-827.95"/>
</g>
<!-- Node33 -->
<g id="node33" class="node">
<title>Node33</title>
<g id="a_node33"><a xlink:href="struct_num_repr_1_1nat__rat__fixed__reg__t.html#a206489e66bc07dd845d00c4a6ccb0bdc" target="_top" xlink:title=" ">
<polygon fill="white" stroke="#666666" points="286,-318 165,-318 165,-288 286,-288 286,-318"/>
<text text-anchor="start" x="173" y="-306" font-family="Helvetica,sans-Serif" font-size="10.00">NumRepr::nat_rat_fixed</text>
<text text-anchor="middle" x="225.5" y="-295" font-family="Helvetica,sans-Serif" font-size="10.00">_reg_t::rev_subreg_digs</text>
</a>
</g>
</g>
<!-- Node1&#45;&gt;Node33 -->
<g id="edge37" class="edge">
<title>Node1&#45;&gt;Node33</title>
<path fill="none" stroke="#63b8ff" d="M392.47,-827.84C386.29,-733.79 360.18,-404.23 294,-327 291.09,-323.6 287.66,-320.68 283.92,-318.18"/>
<polygon fill="#63b8ff" stroke="#63b8ff" points="388.98,-828.12 393.12,-837.88 395.97,-827.68 388.98,-828.12"/>
</g>
<!-- Node34 -->
<g id="node34" class="node">
<title>Node34</title>
<g id="a_node34"><a xlink:href="struct_num_repr_1_1nat__rat__fixed__reg__t.html#a3a821c17ddc821a00db5e00b02ea7f77" target="_top" xlink:title=" ">
<polygon fill="white" stroke="#666666" points="294,-270 157,-270 157,-240 294,-240 294,-270"/>
<text text-anchor="start" x="165" y="-258" font-family="Helvetica,sans-Serif" font-size="10.00">NumRepr::nat_rat_fixed</text>
<text text-anchor="middle" x="225.5" y="-247" font-family="Helvetica,sans-Serif" font-size="10.00">_reg_t::rev_subreg_digs_pe</text>
</a>
</g>
</g>
<!-- Node1&#45;&gt;Node34 -->
<g id="edge38" class="edge">
<title>Node1&#45;&gt;Node34</title>
<path fill="none" stroke="#63b8ff" d="M392.91,-827.84C388.13,-728.43 365.91,-364.23 294,-279 291.11,-275.58 287.7,-272.64 283.97,-270.13"/>
<polygon fill="#63b8ff" stroke="#63b8ff" points="389.42,-828.05 393.38,-837.88 396.41,-827.73 389.42,-828.05"/>
</g>
<!-- Node35 -->
<g id="node35" class="node">
<title>Node35</title>
<g id="a_node35"><a xlink:href="struct_num_repr_1_1nat__rat__fixed__reg__t.html#ad5adcbe25e088551ac817004a9320300" target="_top" xlink:title=" ">
<polygon fill="white" stroke="#666666" points="292.5,-222 158.5,-222 158.5,-192 292.5,-192 292.5,-222"/>
<text text-anchor="start" x="166.5" y="-210" font-family="Helvetica,sans-Serif" font-size="10.00">NumRepr::nat_rat_fixed</text>
<text text-anchor="middle" x="225.5" y="-199" font-family="Helvetica,sans-Serif" font-size="10.00">_reg_t::rev_subreg_digs_pf</text>
</a>
</g>
</g>
<!-- Node1&#45;&gt;Node35 -->
<g id="edge39" class="edge">
<title>Node1&#45;&gt;Node35</title>
<path fill="none" stroke="#63b8ff" d="M393.27,-827.47C389.78,-722.36 371.56,-324.16 294,-231 291.14,-227.56 287.74,-224.61 284.02,-222.09"/>
<polygon fill="#63b8ff" stroke="#63b8ff" points="389.78,-827.88 393.6,-837.77 396.78,-827.66 389.78,-827.88"/>
</g>
<!-- Node36 -->
<g id="node36" class="node">
<title>Node36</title>
<g id="a_node36"><a xlink:href="struct_num_repr_1_1nat__rat__fixed__reg__t.html#aa93bfacedfc35b410d1eb6f1e74ffe55" target="_top" xlink:title=" ">
<polygon fill="white" stroke="#666666" points="286,-174 165,-174 165,-144 286,-144 286,-174"/>
<text text-anchor="start" x="173" y="-162" font-family="Helvetica,sans-Serif" font-size="10.00">NumRepr::nat_rat_fixed</text>
<text text-anchor="middle" x="225.5" y="-151" font-family="Helvetica,sans-Serif" font-size="10.00">_reg_t::subreg_digs</text>
</a>
</g>
</g>
<!-- Node1&#45;&gt;Node36 -->
<g id="edge40" class="edge">
<title>Node1&#45;&gt;Node36</title>
<path fill="none" stroke="#63b8ff" d="M393.6,-827.65C391.38,-717.84 377.37,-284.29 294,-183 291.15,-179.54 287.77,-176.58 284.07,-174.05"/>
<polygon fill="#63b8ff" stroke="#63b8ff" points="390.1,-827.86 393.79,-837.79 397.1,-827.73 390.1,-827.86"/>
</g>
<!-- Node37 -->
<g id="node37" class="node">
<title>Node37</title>
<g id="a_node37"><a xlink:href="struct_num_repr_1_1nat__rat__fixed__reg__t.html#a6fa675710cb0e3a25d2b46b601516149" target="_top" xlink:title=" ">
<polygon fill="white" stroke="#666666" points="286,-126 165,-126 165,-96 286,-96 286,-126"/>
<text text-anchor="start" x="173" y="-114" font-family="Helvetica,sans-Serif" font-size="10.00">NumRepr::nat_rat_fixed</text>
<text text-anchor="middle" x="225.5" y="-103" font-family="Helvetica,sans-Serif" font-size="10.00">_reg_t::subreg_digs_pe</text>
</a>
</g>
</g>
<!-- Node1&#45;&gt;Node37 -->
<g id="edge41" class="edge">
<title>Node1&#45;&gt;Node37</title>
<path fill="none" stroke="#63b8ff" d="M393.88,-827.7C392.85,-713.21 383.16,-244.41 294,-135 291.17,-131.53 287.8,-128.56 284.1,-126.02"/>
<polygon fill="#63b8ff" stroke="#63b8ff" points="390.38,-827.96 393.96,-837.94 397.38,-827.91 390.38,-827.96"/>
</g>
<!-- Node38 -->
<g id="node38" class="node">
<title>Node38</title>
<g id="a_node38"><a xlink:href="struct_num_repr_1_1nat__rat__fixed__reg__t.html#a826d5ada30ddfb3bd85e38a3b9231ed9" target="_top" xlink:title=" ">
<polygon fill="white" stroke="#666666" points="286,-78 165,-78 165,-48 286,-48 286,-78"/>
<text text-anchor="start" x="173" y="-66" font-family="Helvetica,sans-Serif" font-size="10.00">NumRepr::nat_rat_fixed</text>
<text text-anchor="middle" x="225.5" y="-55" font-family="Helvetica,sans-Serif" font-size="10.00">_reg_t::subreg_digs_pf</text>
</a>
</g>
</g>
<!-- Node1&#45;&gt;Node38 -->
<g id="edge42" class="edge">
<title>Node1&#45;&gt;Node38</title>
<path fill="none" stroke="#63b8ff" d="M394.13,-827.56C394.22,-708.19 388.91,-204.49 294,-87 291.26,-83.61 288.02,-80.7 284.44,-78.21"/>
<polygon fill="#63b8ff" stroke="#63b8ff" points="390.63,-827.88 394.1,-837.89 397.63,-827.89 390.63,-827.88"/>
</g>
<!-- Node39 -->
<g id="node39" class="node">
<title>Node39</title>
<g id="a_node39"><a xlink:href="struct_num_repr_1_1nat__rat__fixed__reg__t.html#a6551f10097dd07df063b87fc1a007fd8" target="_top" xlink:title=" ">
<polygon fill="white" stroke="#666666" points="286,-30 165,-30 165,0 286,0 286,-30"/>
<text text-anchor="start" x="173" y="-18" font-family="Helvetica,sans-Serif" font-size="10.00">NumRepr::nat_rat_fixed</text>
<text text-anchor="middle" x="225.5" y="-7" font-family="Helvetica,sans-Serif" font-size="10.00">_reg_t::subst</text>
</a>
</g>
</g>
<!-- Node1&#45;&gt;Node39 -->
<g id="edge43" class="edge">
<title>Node1&#45;&gt;Node39</title>
<path fill="none" stroke="#63b8ff" d="M394.34,-827.57C395.52,-703.72 394.71,-164.64 294,-39 291.28,-35.6 288.04,-32.69 284.47,-30.18"/>
<polygon fill="#63b8ff" stroke="#63b8ff" points="390.84,-827.89 394.23,-837.93 397.84,-827.97 390.84,-827.89"/>
</g>
<!-- Node26&#45;&gt;Node27 -->
<g id="edge26" class="edge">
<title>Node26&#45;&gt;Node27</title>
<path fill="none" stroke="#63b8ff" d="M189.58,-533.17C169.75,-544.3 144.3,-558.04 121,-569 114.55,-572.03 107.61,-575.05 100.82,-577.87"/>
<polygon fill="#63b8ff" stroke="#63b8ff" points="191.56,-536.07 198.54,-528.1 188.12,-529.97 191.56,-536.07"/>
</g>
<!-- Node26&#45;&gt;Node28 -->
<g id="edge27" class="edge">
<title>Node26&#45;&gt;Node28</title>
<path fill="none" stroke="#63b8ff" d="M154.63,-526.72C143.52,-528.9 132.11,-531.14 121.26,-533.27"/>
<polygon fill="#63b8ff" stroke="#63b8ff" points="155.59,-530.09 164.73,-524.73 154.24,-523.23 155.59,-530.09"/>
</g>
<!-- Node26&#45;&gt;Node29 -->
<g id="edge28" class="edge">
<title>Node26&#45;&gt;Node29</title>
<path fill="none" stroke="#63b8ff" d="M154.63,-506.14C143.52,-505.05 132.11,-503.93 121.26,-502.87"/>
<polygon fill="#63b8ff" stroke="#63b8ff" points="154.44,-509.64 164.73,-507.13 155.12,-502.67 154.44,-509.64"/>
</g>
<!-- Node26&#45;&gt;Node30 -->
<g id="edge29" class="edge">
<title>Node26&#45;&gt;Node30</title>
<path fill="none" stroke="#63b8ff" d="M177.14,-494.12C152.41,-484.25 122.56,-472.35 99.38,-463.11"/>
<polygon fill="#63b8ff" stroke="#63b8ff" points="176.11,-497.47 186.69,-497.92 178.7,-490.97 176.11,-497.47"/>
</g>
<!-- Node26&#45;&gt;Node31 -->
<g id="edge30" class="edge">
<title>Node26&#45;&gt;Node31</title>
<path fill="none" stroke="#63b8ff" d="M202.52,-490.64C182.56,-471.22 151.64,-443.26 121,-424 114.61,-419.98 107.48,-416.28 100.45,-413.02"/>
<polygon fill="#63b8ff" stroke="#63b8ff" points="200.29,-493.35 209.86,-497.88 205.2,-488.37 200.29,-493.35"/>
</g>
</g>
</svg>
