<?xml version="1.0" encoding="UTF-8" standalone="no"?>
<!DOCTYPE svg PUBLIC "-//W3C//DTD SVG 1.1//EN"
 "http://www.w3.org/Graphics/SVG/1.1/DTD/svg11.dtd">
<!-- Generated by graphviz version 2.44.1 (20220725.2034)
 -->
<!-- Title: int_num_t::operator+= Pages: 1 -->
<svg width="388pt" height="64pt"
 viewBox="0.00 0.00 388.00 64.00" xmlns="http://www.w3.org/2000/svg" xmlns:xlink="http://www.w3.org/1999/xlink">
<g id="graph0" class="graph" transform="scale(1 1) rotate(0) translate(4 60)">
<title>int_num_t::operator+=</title>
<!-- Node1 -->
<g id="node1" class="node">
<title>Node1</title>
<g id="a_node1"><a xlink:title=" ">
<polygon fill="#999999" stroke="#666666" points="113,-38 0,-38 0,-19 113,-19 113,-38"/>
<text text-anchor="middle" x="56.5" y="-26" font-family="Helvetica,sans-Serif" font-size="10.00">int_num_t::operator+=</text>
</a>
</g>
</g>
<!-- Node2 -->
<g id="node2" class="node">
<title>Node2</title>
<g id="a_node2"><a xlink:href="structint__num__t.html#ae209e7a115353db1633459a602d24e0b" target="_top" xlink:title=" ">
<polygon fill="white" stroke="#666666" points="380,-38 280,-38 280,-19 380,-19 380,-38"/>
<text text-anchor="middle" x="330" y="-26" font-family="Helvetica,sans-Serif" font-size="10.00">int_num_t::num_int</text>
</a>
</g>
</g>
<!-- Node1&#45;&gt;Node2 -->
<g id="edge1" class="edge">
<title>Node1&#45;&gt;Node2</title>
<path fill="none" stroke="#63b8ff" d="M113.1,-28.5C158.67,-28.5 223.03,-28.5 269.61,-28.5"/>
<polygon fill="#63b8ff" stroke="#63b8ff" points="269.86,-32 279.86,-28.5 269.86,-25 269.86,-32"/>
</g>
<!-- Node3 -->
<g id="node3" class="node">
<title>Node3</title>
<g id="a_node3"><a xlink:href="structint__num__t.html#a399984c0c867c6e3a5b15aaed4e1d465" target="_top" xlink:title=" ">
<polygon fill="white" stroke="#666666" points="244,-19 149,-19 149,0 244,0 244,-19"/>
<text text-anchor="middle" x="196.5" y="-7" font-family="Helvetica,sans-Serif" font-size="10.00">int_num_t::reduce</text>
</a>
</g>
</g>
<!-- Node1&#45;&gt;Node3 -->
<g id="edge3" class="edge">
<title>Node1&#45;&gt;Node3</title>
<path fill="none" stroke="#63b8ff" d="M113.23,-20.83C121.63,-19.67 130.31,-18.48 138.73,-17.32"/>
<polygon fill="#63b8ff" stroke="#63b8ff" points="139.42,-20.75 148.85,-15.92 138.47,-13.82 139.42,-20.75"/>
</g>
<!-- Node2&#45;&gt;Node2 -->
<g id="edge2" class="edge">
<title>Node2&#45;&gt;Node2</title>
<path fill="none" stroke="#63b8ff" d="M309.65,-38.08C299.76,-46.73 306.54,-56 330,-56 345.03,-56 353.21,-52.2 354.55,-47.19"/>
<polygon fill="#63b8ff" stroke="#63b8ff" points="357.72,-45.69 350.35,-38.08 351.36,-48.63 357.72,-45.69"/>
</g>
<!-- Node3&#45;&gt;Node2 -->
<g id="edge4" class="edge">
<title>Node3&#45;&gt;Node2</title>
<path fill="none" stroke="#63b8ff" d="M244.23,-16.25C252.51,-17.45 261.23,-18.71 269.79,-19.95"/>
<polygon fill="#63b8ff" stroke="#63b8ff" points="269.35,-23.42 279.75,-21.38 270.35,-16.49 269.35,-23.42"/>
</g>
</g>
</svg>
