<?xml version="1.0" encoding="UTF-8" standalone="no"?>
<!DOCTYPE svg PUBLIC "-//W3C//DTD SVG 1.1//EN"
 "http://www.w3.org/Graphics/SVG/1.1/DTD/svg11.dtd">
<!-- Generated by graphviz version 2.44.1 (20220725.2034)
 -->
<!-- Title: NumRepr::nat_rat_fixed_reg_t::regd_0 Pages: 1 -->
<svg width="286pt" height="230pt"
 viewBox="0.00 0.00 286.00 230.00" xmlns="http://www.w3.org/2000/svg" xmlns:xlink="http://www.w3.org/1999/xlink">
<g id="graph0" class="graph" transform="scale(1 1) rotate(0) translate(4 226)">
<title>NumRepr::nat_rat_fixed_reg_t::regd_0</title>
<!-- Node1 -->
<g id="node1" class="node">
<title>Node1</title>
<g id="a_node1"><a xlink:title=" ">
<polygon fill="#999999" stroke="#666666" points="278,-126 157,-126 157,-96 278,-96 278,-126"/>
<text text-anchor="start" x="165" y="-114" font-family="Helvetica,sans-Serif" font-size="10.00">NumRepr::nat_rat_fixed</text>
<text text-anchor="middle" x="217.5" y="-103" font-family="Helvetica,sans-Serif" font-size="10.00">_reg_t::regd_0</text>
</a>
</g>
</g>
<!-- Node2 -->
<g id="node2" class="node">
<title>Node2</title>
<g id="a_node2"><a xlink:href="struct_num_repr_1_1nat__rat__fixed__reg__t.html#a4d1b2577021f8594d6efa471234869e0" target="_top" xlink:title=" ">
<polygon fill="white" stroke="#666666" points="121,-222 0,-222 0,-192 121,-192 121,-222"/>
<text text-anchor="start" x="8" y="-210" font-family="Helvetica,sans-Serif" font-size="10.00">NumRepr::nat_rat_fixed</text>
<text text-anchor="middle" x="60.5" y="-199" font-family="Helvetica,sans-Serif" font-size="10.00">_reg_t::regd_1</text>
</a>
</g>
</g>
<!-- Node1&#45;&gt;Node2 -->
<g id="edge1" class="edge">
<title>Node1&#45;&gt;Node2</title>
<path fill="none" stroke="#63b8ff" d="M191.82,-132.49C173.24,-147.92 146.66,-168.49 121,-183 115.28,-186.24 109.04,-189.25 102.81,-191.98"/>
<polygon fill="#63b8ff" stroke="#63b8ff" points="194.12,-135.12 199.51,-126.01 189.61,-129.77 194.12,-135.12"/>
</g>
<!-- Node3 -->
<g id="node3" class="node">
<title>Node3</title>
<g id="a_node3"><a xlink:href="struct_num_repr_1_1nat__rat__fixed__reg__t.html#afc75739252c5a40b233bd12eace8dd16" target="_top" xlink:title=" ">
<polygon fill="white" stroke="#666666" points="121,-174 0,-174 0,-144 121,-144 121,-174"/>
<text text-anchor="start" x="8" y="-162" font-family="Helvetica,sans-Serif" font-size="10.00">NumRepr::nat_rat_fixed</text>
<text text-anchor="middle" x="60.5" y="-151" font-family="Helvetica,sans-Serif" font-size="10.00">_reg_t::regd_B</text>
</a>
</g>
</g>
<!-- Node1&#45;&gt;Node3 -->
<g id="edge2" class="edge">
<title>Node1&#45;&gt;Node3</title>
<path fill="none" stroke="#63b8ff" d="M158.16,-129.07C142.27,-133.99 125.22,-139.27 109.95,-144"/>
<polygon fill="#63b8ff" stroke="#63b8ff" points="159.37,-132.36 167.88,-126.06 157.29,-125.67 159.37,-132.36"/>
</g>
<!-- Node4 -->
<g id="node4" class="node">
<title>Node4</title>
<g id="a_node4"><a xlink:href="struct_num_repr_1_1nat__rat__fixed__reg__t.html#ad70d405111f74e96957daf7e860f0abd" target="_top" xlink:title=" ">
<polygon fill="white" stroke="#666666" points="121,-126 0,-126 0,-96 121,-96 121,-126"/>
<text text-anchor="start" x="8" y="-114" font-family="Helvetica,sans-Serif" font-size="10.00">NumRepr::nat_rat_fixed</text>
<text text-anchor="middle" x="60.5" y="-103" font-family="Helvetica,sans-Serif" font-size="10.00">_reg_t::regd_Bm1</text>
</a>
</g>
</g>
<!-- Node1&#45;&gt;Node4 -->
<g id="edge3" class="edge">
<title>Node1&#45;&gt;Node4</title>
<path fill="none" stroke="#63b8ff" d="M146.34,-111C137.88,-111 129.3,-111 121.01,-111"/>
<polygon fill="#63b8ff" stroke="#63b8ff" points="146.57,-114.5 156.57,-111 146.57,-107.5 146.57,-114.5"/>
</g>
<!-- Node5 -->
<g id="node5" class="node">
<title>Node5</title>
<g id="a_node5"><a xlink:href="struct_num_repr_1_1nat__rat__fixed__reg__t.html#a0fd73bc1e0e7ef8d7e5cfeb2830da7a5" target="_top" xlink:title=" ">
<polygon fill="white" stroke="#666666" points="121,-78 0,-78 0,-48 121,-48 121,-78"/>
<text text-anchor="start" x="8" y="-66" font-family="Helvetica,sans-Serif" font-size="10.00">NumRepr::nat_rat_fixed</text>
<text text-anchor="middle" x="60.5" y="-55" font-family="Helvetica,sans-Serif" font-size="10.00">_reg_t::regd_pow_n_B</text>
</a>
</g>
</g>
<!-- Node1&#45;&gt;Node5 -->
<g id="edge4" class="edge">
<title>Node1&#45;&gt;Node5</title>
<path fill="none" stroke="#63b8ff" d="M158.16,-92.93C142.27,-88.01 125.22,-82.73 109.95,-78"/>
<polygon fill="#63b8ff" stroke="#63b8ff" points="157.29,-96.33 167.88,-95.94 159.37,-89.64 157.29,-96.33"/>
</g>
<!-- Node6 -->
<g id="node6" class="node">
<title>Node6</title>
<g id="a_node6"><a xlink:href="struct_num_repr_1_1nat__rat__fixed__reg__t.html#a5beb2c8c44ad830017acdac79a4e84ad" target="_top" xlink:title="END : OPERATORS &gt;&gt; &gt;&gt;= &lt;&lt; &lt;&lt;=.">
<polygon fill="white" stroke="#666666" points="121,-30 0,-30 0,0 121,0 121,-30"/>
<text text-anchor="start" x="8" y="-18" font-family="Helvetica,sans-Serif" font-size="10.00">NumRepr::nat_rat_fixed</text>
<text text-anchor="middle" x="60.5" y="-7" font-family="Helvetica,sans-Serif" font-size="10.00">_reg_t::rem_B</text>
</a>
</g>
</g>
<!-- Node1&#45;&gt;Node6 -->
<g id="edge5" class="edge">
<title>Node1&#45;&gt;Node6</title>
<path fill="none" stroke="#63b8ff" d="M191.82,-89.51C173.24,-74.08 146.66,-53.51 121,-39 115.28,-35.76 109.04,-32.75 102.81,-30.02"/>
<polygon fill="#63b8ff" stroke="#63b8ff" points="189.61,-92.23 199.51,-95.99 194.12,-86.88 189.61,-92.23"/>
</g>
</g>
</svg>
