<?xml version="1.0" encoding="UTF-8" standalone="no"?>
<!DOCTYPE svg PUBLIC "-//W3C//DTD SVG 1.1//EN"
 "http://www.w3.org/Graphics/SVG/1.1/DTD/svg11.dtd">
<!-- Generated by graphviz version 2.44.1 (20220725.2034)
 -->
<!-- Title: NumRepr::nat_reg_digs_t::operator! Pages: 1 -->
<svg width="284pt" height="56pt"
 viewBox="0.00 0.00 284.00 56.00" xmlns="http://www.w3.org/2000/svg" xmlns:xlink="http://www.w3.org/1999/xlink">
<g id="graph0" class="graph" transform="scale(1 1) rotate(0) translate(4 52)">
<title>NumRepr::nat_reg_digs_t::operator!</title>
<!-- Node1 -->
<g id="node1" class="node">
<title>Node1</title>
<g id="a_node1"><a xlink:title=" ">
<polygon fill="#999999" stroke="#666666" points="120,-30 0,-30 0,0 120,0 120,-30"/>
<text text-anchor="start" x="8" y="-18" font-family="Helvetica,sans-Serif" font-size="10.00">NumRepr::nat_reg_digs</text>
<text text-anchor="middle" x="60" y="-7" font-family="Helvetica,sans-Serif" font-size="10.00">_t::operator!</text>
</a>
</g>
</g>
<!-- Node2 -->
<g id="node2" class="node">
<title>Node2</title>
<g id="a_node2"><a xlink:href="struct_num_repr_1_1nat__reg__digs__t.html#ac08d43112d9336e1e76fd7e62f3ba8a7" target="_top" xlink:title=" ">
<polygon fill="white" stroke="#666666" points="276,-30 156,-30 156,0 276,0 276,-30"/>
<text text-anchor="start" x="164" y="-18" font-family="Helvetica,sans-Serif" font-size="10.00">NumRepr::nat_reg_digs</text>
<text text-anchor="middle" x="216" y="-7" font-family="Helvetica,sans-Serif" font-size="10.00">_t::C_Bm1</text>
</a>
</g>
</g>
<!-- Node1&#45;&gt;Node2 -->
<g id="edge1" class="edge">
<title>Node1&#45;&gt;Node2</title>
<path fill="none" stroke="#63b8ff" d="M120.1,-15C128.42,-15 137.04,-15 145.53,-15"/>
<polygon fill="#63b8ff" stroke="#63b8ff" points="145.8,-18.5 155.8,-15 145.8,-11.5 145.8,-18.5"/>
</g>
<!-- Node2&#45;&gt;Node2 -->
<g id="edge2" class="edge">
<title>Node2&#45;&gt;Node2</title>
<path fill="none" stroke="#63b8ff" d="M188.58,-30.28C182.48,-39.41 191.62,-48 216,-48 230.47,-48 239.57,-44.97 243.31,-40.6"/>
<polygon fill="#63b8ff" stroke="#63b8ff" points="246.81,-40.31 243.42,-30.28 239.81,-40.24 246.81,-40.31"/>
</g>
</g>
</svg>
