<?xml version="1.0" encoding="UTF-8" standalone="no"?>
<!DOCTYPE svg PUBLIC "-//W3C//DTD SVG 1.1//EN"
 "http://www.w3.org/Graphics/SVG/1.1/DTD/svg11.dtd">
<!-- Generated by graphviz version 2.44.1 (20220725.2034)
 -->
<!-- Title: int_num_t::digs_fracc_no_significativos Pages: 1 -->
<svg width="373pt" height="38pt"
 viewBox="0.00 0.00 373.00 38.00" xmlns="http://www.w3.org/2000/svg" xmlns:xlink="http://www.w3.org/1999/xlink">
<g id="graph0" class="graph" transform="scale(1 1) rotate(0) translate(4 34)">
<title>int_num_t::digs_fracc_no_significativos</title>
<!-- Node1 -->
<g id="node1" class="node">
<title>Node1</title>
<g id="a_node1"><a xlink:title=" ">
<polygon fill="#999999" stroke="#666666" points="110,-30 0,-30 0,0 110,0 110,-30"/>
<text text-anchor="start" x="8" y="-18" font-family="Helvetica,sans-Serif" font-size="10.00">int_num_t::digs_fracc</text>
<text text-anchor="middle" x="55" y="-7" font-family="Helvetica,sans-Serif" font-size="10.00">_no_significativos</text>
</a>
</g>
</g>
<!-- Node2 -->
<g id="node2" class="node">
<title>Node2</title>
<g id="a_node2"><a xlink:href="structint__num__t.html#ae09c19efabf27eb9caf36f33f0f380dd" target="_top" xlink:title=" ">
<polygon fill="white" stroke="#666666" points="246,-30 146,-30 146,0 246,0 246,-30"/>
<text text-anchor="start" x="154" y="-18" font-family="Helvetica,sans-Serif" font-size="10.00">int_num_t::ceros_a</text>
<text text-anchor="middle" x="196" y="-7" font-family="Helvetica,sans-Serif" font-size="10.00">_la_drcha</text>
</a>
</g>
</g>
<!-- Node1&#45;&gt;Node2 -->
<g id="edge1" class="edge">
<title>Node1&#45;&gt;Node2</title>
<path fill="none" stroke="#63b8ff" d="M110.14,-15C118.48,-15 127.14,-15 135.6,-15"/>
<polygon fill="#63b8ff" stroke="#63b8ff" points="135.77,-18.5 145.77,-15 135.77,-11.5 135.77,-18.5"/>
</g>
<!-- Node3 -->
<g id="node3" class="node">
<title>Node3</title>
<g id="a_node3"><a xlink:href="structint__num__t.html#a489e24fd874f049d247539eb02416338" target="_top" xlink:title=" ">
<polygon fill="white" stroke="#666666" points="365,-24.5 282,-24.5 282,-5.5 365,-5.5 365,-24.5"/>
<text text-anchor="middle" x="323.5" y="-12.5" font-family="Helvetica,sans-Serif" font-size="10.00">int_num_t::size</text>
</a>
</g>
</g>
<!-- Node2&#45;&gt;Node3 -->
<g id="edge2" class="edge">
<title>Node2&#45;&gt;Node3</title>
<path fill="none" stroke="#63b8ff" d="M246.24,-15C254.64,-15 263.37,-15 271.81,-15"/>
<polygon fill="#63b8ff" stroke="#63b8ff" points="271.9,-18.5 281.9,-15 271.9,-11.5 271.9,-18.5"/>
</g>
</g>
</svg>
