<?xml version="1.0" encoding="UTF-8" standalone="no"?>
<!DOCTYPE svg PUBLIC "-//W3C//DTD SVG 1.1//EN"
 "http://www.w3.org/Graphics/SVG/1.1/DTD/svg11.dtd">
<!-- Generated by graphviz version 2.44.1 (20220725.2034)
 -->
<!-- Title: NumRepr::dig_t::is_prime Pages: 1 -->
<svg width="408pt" height="112pt"
 viewBox="0.00 0.00 408.00 111.50" xmlns="http://www.w3.org/2000/svg" xmlns:xlink="http://www.w3.org/1999/xlink">
<g id="graph0" class="graph" transform="scale(1 1) rotate(0) translate(4 107.5)">
<title>NumRepr::dig_t::is_prime</title>
<!-- Node1 -->
<g id="node1" class="node">
<title>Node1</title>
<g id="a_node1"><a xlink:title=" ">
<polygon fill="#999999" stroke="#666666" points="99,-60 0,-60 0,-30 99,-30 99,-60"/>
<text text-anchor="start" x="8" y="-48" font-family="Helvetica,sans-Serif" font-size="10.00">NumRepr::dig_t::is</text>
<text text-anchor="middle" x="49.5" y="-37" font-family="Helvetica,sans-Serif" font-size="10.00">_prime</text>
</a>
</g>
</g>
<!-- Node2 -->
<g id="node2" class="node">
<title>Node2</title>
<g id="a_node2"><a xlink:href="namespace_num_repr_1_1auxiliary__functions.html#a6a368b190a18264af00c59b164dc1096" target="_top" xlink:title=" ">
<polygon fill="white" stroke="#666666" points="239,-60 135,-60 135,-30 239,-30 239,-60"/>
<text text-anchor="start" x="143" y="-48" font-family="Helvetica,sans-Serif" font-size="10.00">NumRepr::auxiliary</text>
<text text-anchor="middle" x="187" y="-37" font-family="Helvetica,sans-Serif" font-size="10.00">_functions::is_prime</text>
</a>
</g>
</g>
<!-- Node1&#45;&gt;Node2 -->
<g id="edge1" class="edge">
<title>Node1&#45;&gt;Node2</title>
<path fill="none" stroke="#63b8ff" d="M99.04,-45C107.24,-45 115.86,-45 124.35,-45"/>
<polygon fill="#63b8ff" stroke="#63b8ff" points="124.6,-48.5 134.6,-45 124.6,-41.5 124.6,-48.5"/>
</g>
<!-- Node3 -->
<g id="node3" class="node">
<title>Node3</title>
<g id="a_node3"><a xlink:href="namespace_num_repr_1_1detail.html#aa138a7304b06ab664d7208956b3c0dbe" target="_top" xlink:title=" ">
<polygon fill="white" stroke="#666666" points="400,-85.5 275,-85.5 275,-66.5 400,-66.5 400,-85.5"/>
<text text-anchor="middle" x="337.5" y="-73.5" font-family="Helvetica,sans-Serif" font-size="10.00">NumRepr::detail::ceilsqrt</text>
</a>
</g>
</g>
<!-- Node2&#45;&gt;Node3 -->
<g id="edge2" class="edge">
<title>Node2&#45;&gt;Node3</title>
<path fill="none" stroke="#63b8ff" d="M239.11,-55.67C252.61,-58.49 267.24,-61.54 280.97,-64.41"/>
<polygon fill="#63b8ff" stroke="#63b8ff" points="280.27,-67.84 290.77,-66.45 281.7,-60.98 280.27,-67.84"/>
</g>
<!-- Node4 -->
<g id="node4" class="node">
<title>Node4</title>
<g id="a_node4"><a xlink:href="namespace_num_repr_1_1detail.html#a098c7fa0c984b9aa1e6c5e6033affc88" target="_top" xlink:title=" ">
<polygon fill="white" stroke="#666666" points="392.5,-30 282.5,-30 282.5,0 392.5,0 392.5,-30"/>
<text text-anchor="start" x="290.5" y="-18" font-family="Helvetica,sans-Serif" font-size="10.00">NumRepr::detail::find</text>
<text text-anchor="middle" x="337.5" y="-7" font-family="Helvetica,sans-Serif" font-size="10.00">_factor</text>
</a>
</g>
</g>
<!-- Node2&#45;&gt;Node4 -->
<g id="edge4" class="edge">
<title>Node2&#45;&gt;Node4</title>
<path fill="none" stroke="#63b8ff" d="M239.11,-34.68C249.77,-32.52 261.14,-30.22 272.21,-27.99"/>
<polygon fill="#63b8ff" stroke="#63b8ff" points="273.15,-31.37 282.26,-25.96 271.77,-24.51 273.15,-31.37"/>
</g>
<!-- Node3&#45;&gt;Node3 -->
<g id="edge3" class="edge">
<title>Node3&#45;&gt;Node3</title>
<path fill="none" stroke="#63b8ff" d="M314.38,-85.58C303.13,-94.23 310.84,-103.5 337.5,-103.5 355,-103.5 364.33,-99.51 365.5,-94.32"/>
<polygon fill="#63b8ff" stroke="#63b8ff" points="368.55,-92.61 360.62,-85.58 362.44,-96.02 368.55,-92.61"/>
</g>
<!-- Node4&#45;&gt;Node4 -->
<g id="edge5" class="edge">
<title>Node4&#45;&gt;Node4</title>
<path fill="none" stroke="#63b8ff" d="M311.13,-30.28C305.27,-39.41 314.06,-48 337.5,-48 351.42,-48 360.17,-44.97 363.76,-40.6"/>
<polygon fill="#63b8ff" stroke="#63b8ff" points="367.26,-40.31 363.87,-30.28 360.26,-40.24 367.26,-40.31"/>
</g>
</g>
</svg>
