<?xml version="1.0" encoding="UTF-8" standalone="no"?>
<!DOCTYPE svg PUBLIC "-//W3C//DTD SVG 1.1//EN"
 "http://www.w3.org/Graphics/SVG/1.1/DTD/svg11.dtd">
<!-- Generated by graphviz version 2.44.1 (20220725.2034)
 -->
<!-- Title: int_num_t::operator*= Pages: 1 -->
<svg width="385pt" height="103pt"
 viewBox="0.00 0.00 385.00 103.00" xmlns="http://www.w3.org/2000/svg" xmlns:xlink="http://www.w3.org/1999/xlink">
<g id="graph0" class="graph" transform="scale(1 1) rotate(0) translate(4 99)">
<title>int_num_t::operator*=</title>
<!-- Node1 -->
<g id="node1" class="node">
<title>Node1</title>
<g id="a_node1"><a xlink:title=" ">
<polygon fill="#999999" stroke="#666666" points="110,-57 0,-57 0,-38 110,-38 110,-57"/>
<text text-anchor="middle" x="55" y="-45" font-family="Helvetica,sans-Serif" font-size="10.00">int_num_t::operator*=</text>
</a>
</g>
</g>
<!-- Node2 -->
<g id="node2" class="node">
<title>Node2</title>
<g id="a_node2"><a xlink:href="structint__num__t.html#acf8be3251610cf7365b5a7ae48dfa001" target="_top" xlink:title=" ">
<polygon fill="white" stroke="#666666" points="236.5,-95 150.5,-95 150.5,-76 236.5,-76 236.5,-95"/>
<text text-anchor="middle" x="193.5" y="-83" font-family="Helvetica,sans-Serif" font-size="10.00">int_num_t::absp</text>
</a>
</g>
</g>
<!-- Node1&#45;&gt;Node2 -->
<g id="edge1" class="edge">
<title>Node1&#45;&gt;Node2</title>
<path fill="none" stroke="#63b8ff" d="M90.44,-57.09C107.98,-61.97 129.51,-67.96 148.26,-73.18"/>
<polygon fill="#63b8ff" stroke="#63b8ff" points="147.49,-76.6 158.07,-75.91 149.37,-69.86 147.49,-76.6"/>
</g>
<!-- Node3 -->
<g id="node3" class="node">
<title>Node3</title>
<g id="a_node3"><a xlink:href="structint__num__t.html#ae209e7a115353db1633459a602d24e0b" target="_top" xlink:title=" ">
<polygon fill="white" stroke="#666666" points="377,-57 277,-57 277,-38 377,-38 377,-57"/>
<text text-anchor="middle" x="327" y="-45" font-family="Helvetica,sans-Serif" font-size="10.00">int_num_t::num_int</text>
</a>
</g>
</g>
<!-- Node1&#45;&gt;Node3 -->
<g id="edge4" class="edge">
<title>Node1&#45;&gt;Node3</title>
<path fill="none" stroke="#63b8ff" d="M110.31,-47.5C155.55,-47.5 219.89,-47.5 266.51,-47.5"/>
<polygon fill="#63b8ff" stroke="#63b8ff" points="266.77,-51 276.77,-47.5 266.77,-44 266.77,-51"/>
</g>
<!-- Node4 -->
<g id="node4" class="node">
<title>Node4</title>
<g id="a_node4"><a xlink:href="structint__num__t.html#a399984c0c867c6e3a5b15aaed4e1d465" target="_top" xlink:title=" ">
<polygon fill="white" stroke="#666666" points="241,-19 146,-19 146,0 241,0 241,-19"/>
<text text-anchor="middle" x="193.5" y="-7" font-family="Helvetica,sans-Serif" font-size="10.00">int_num_t::reduce</text>
</a>
</g>
</g>
<!-- Node1&#45;&gt;Node4 -->
<g id="edge5" class="edge">
<title>Node1&#45;&gt;Node4</title>
<path fill="none" stroke="#63b8ff" d="M90.44,-37.91C107.98,-33.03 129.51,-27.04 148.26,-21.82"/>
<polygon fill="#63b8ff" stroke="#63b8ff" points="149.37,-25.14 158.07,-19.09 147.49,-18.4 149.37,-25.14"/>
</g>
<!-- Node2&#45;&gt;Node3 -->
<g id="edge2" class="edge">
<title>Node2&#45;&gt;Node3</title>
<path fill="none" stroke="#63b8ff" d="M227.68,-75.91C244.5,-71.05 265.13,-65.09 283.13,-59.89"/>
<polygon fill="#63b8ff" stroke="#63b8ff" points="284.19,-63.22 292.83,-57.09 282.25,-56.5 284.19,-63.22"/>
</g>
<!-- Node3&#45;&gt;Node3 -->
<g id="edge3" class="edge">
<title>Node3&#45;&gt;Node3</title>
<path fill="none" stroke="#63b8ff" d="M306.65,-57.08C296.76,-65.73 303.54,-75 327,-75 342.03,-75 350.21,-71.2 351.55,-66.19"/>
<polygon fill="#63b8ff" stroke="#63b8ff" points="354.72,-64.69 347.35,-57.08 348.36,-67.63 354.72,-64.69"/>
</g>
<!-- Node4&#45;&gt;Node3 -->
<g id="edge6" class="edge">
<title>Node4&#45;&gt;Node3</title>
<path fill="none" stroke="#63b8ff" d="M227.68,-19.09C244.5,-23.95 265.13,-29.91 283.13,-35.11"/>
<polygon fill="#63b8ff" stroke="#63b8ff" points="282.25,-38.5 292.83,-37.91 284.19,-31.78 282.25,-38.5"/>
</g>
</g>
</svg>
