<?xml version="1.0" encoding="UTF-8" standalone="no"?>
<!DOCTYPE svg PUBLIC "-//W3C//DTD SVG 1.1//EN"
 "http://www.w3.org/Graphics/SVG/1.1/DTD/svg11.dtd">
<!-- Generated by graphviz version 2.44.1 (20220725.2034)
 -->
<!-- Title: NumRepr::nat_reg_digs_t::regi_1 Pages: 1 -->
<svg width="440pt" height="86pt"
 viewBox="0.00 0.00 440.00 86.00" xmlns="http://www.w3.org/2000/svg" xmlns:xlink="http://www.w3.org/1999/xlink">
<g id="graph0" class="graph" transform="scale(1 1) rotate(0) translate(4 82)">
<title>NumRepr::nat_reg_digs_t::regi_1</title>
<!-- Node1 -->
<g id="node1" class="node">
<title>Node1</title>
<g id="a_node1"><a xlink:title=" ">
<polygon fill="#999999" stroke="#666666" points="120,-54 0,-54 0,-24 120,-24 120,-54"/>
<text text-anchor="start" x="8" y="-42" font-family="Helvetica,sans-Serif" font-size="10.00">NumRepr::nat_reg_digs</text>
<text text-anchor="middle" x="60" y="-31" font-family="Helvetica,sans-Serif" font-size="10.00">_t::regi_1</text>
</a>
</g>
</g>
<!-- Node2 -->
<g id="node2" class="node">
<title>Node2</title>
<g id="a_node2"><a xlink:href="struct_num_repr_1_1nat__reg__digs__t.html#af5f8d64e4139b59eada5483f2e3b4713" target="_top" xlink:title=" ">
<polygon fill="white" stroke="#666666" points="276,-78 156,-78 156,-48 276,-48 276,-78"/>
<text text-anchor="start" x="164" y="-66" font-family="Helvetica,sans-Serif" font-size="10.00">NumRepr::nat_reg_digs</text>
<text text-anchor="middle" x="216" y="-55" font-family="Helvetica,sans-Serif" font-size="10.00">_t::dig_1</text>
</a>
</g>
</g>
<!-- Node1&#45;&gt;Node2 -->
<g id="edge1" class="edge">
<title>Node1&#45;&gt;Node2</title>
<path fill="none" stroke="#63b8ff" d="M120.1,-48.21C128.51,-49.52 137.23,-50.88 145.81,-52.22"/>
<polygon fill="#63b8ff" stroke="#63b8ff" points="145.38,-55.69 155.8,-53.77 146.46,-48.78 145.38,-55.69"/>
</g>
<!-- Node3 -->
<g id="node3" class="node">
<title>Node3</title>
<g id="a_node3"><a xlink:href="struct_num_repr_1_1nat__reg__digs__t.html#acf4ea2de98d127c1bfc0ffef53fc2843" target="_top" xlink:title="ARRAYS DE ENTEROS (CONSTANTES EN TIEMPO DE COMPILACION INMEDIATAS)">
<polygon fill="white" stroke="#666666" points="276,-30 156,-30 156,0 276,0 276,-30"/>
<text text-anchor="start" x="164" y="-18" font-family="Helvetica,sans-Serif" font-size="10.00">NumRepr::nat_reg_digs</text>
<text text-anchor="middle" x="216" y="-7" font-family="Helvetica,sans-Serif" font-size="10.00">_t::regi_0</text>
</a>
</g>
</g>
<!-- Node1&#45;&gt;Node3 -->
<g id="edge2" class="edge">
<title>Node1&#45;&gt;Node3</title>
<path fill="none" stroke="#63b8ff" d="M120.1,-29.79C128.51,-28.48 137.23,-27.12 145.81,-25.78"/>
<polygon fill="#63b8ff" stroke="#63b8ff" points="146.46,-29.22 155.8,-24.23 145.38,-22.31 146.46,-29.22"/>
</g>
<!-- Node4 -->
<g id="node4" class="node">
<title>Node4</title>
<g id="a_node4"><a xlink:href="struct_num_repr_1_1nat__reg__digs__t.html#a85a8b769de34b30bc8f57d8fe7b6eca7" target="_top" xlink:title=" ">
<polygon fill="white" stroke="#666666" points="432,-30 312,-30 312,0 432,0 432,-30"/>
<text text-anchor="start" x="320" y="-18" font-family="Helvetica,sans-Serif" font-size="10.00">NumRepr::nat_reg_digs</text>
<text text-anchor="middle" x="372" y="-7" font-family="Helvetica,sans-Serif" font-size="10.00">_t::dig_0</text>
</a>
</g>
</g>
<!-- Node3&#45;&gt;Node4 -->
<g id="edge3" class="edge">
<title>Node3&#45;&gt;Node4</title>
<path fill="none" stroke="#63b8ff" d="M276.1,-15C284.42,-15 293.04,-15 301.53,-15"/>
<polygon fill="#63b8ff" stroke="#63b8ff" points="301.8,-18.5 311.8,-15 301.8,-11.5 301.8,-18.5"/>
</g>
</g>
</svg>
