<?xml version="1.0" encoding="UTF-8" standalone="no"?>
<!DOCTYPE svg PUBLIC "-//W3C//DTD SVG 1.1//EN"
 "http://www.w3.org/Graphics/SVG/1.1/DTD/svg11.dtd">
<!-- Generated by graphviz version 2.44.1 (20220725.2034)
 -->
<!-- Title: NumRepr::reg_digs_t::mC_Bm1 Pages: 1 -->
<svg width="435pt" height="86pt"
 viewBox="0.00 0.00 435.00 86.00" xmlns="http://www.w3.org/2000/svg" xmlns:xlink="http://www.w3.org/1999/xlink">
<g id="graph0" class="graph" transform="scale(1 1) rotate(0) translate(4 82)">
<title>NumRepr::reg_digs_t::mC_Bm1</title>
<!-- Node1 -->
<g id="node1" class="node">
<title>Node1</title>
<g id="a_node1"><a xlink:title=" ">
<polygon fill="#999999" stroke="#666666" points="427,-54 317,-54 317,-24 427,-24 427,-54"/>
<text text-anchor="start" x="325" y="-42" font-family="Helvetica,sans-Serif" font-size="10.00">NumRepr::reg_digs_t</text>
<text text-anchor="middle" x="372" y="-31" font-family="Helvetica,sans-Serif" font-size="10.00">::mC_Bm1</text>
</a>
</g>
</g>
<!-- Node1&#45;&gt;Node1 -->
<g id="edge4" class="edge">
<title>Node1&#45;&gt;Node1</title>
<path fill="none" stroke="#63b8ff" d="M397.56,-64.6C394.06,-68.97 385.54,-72 372,-72 349.19,-72 340.63,-63.41 346.34,-54.28"/>
<polygon fill="#63b8ff" stroke="#63b8ff" points="401.06,-64.31 397.66,-54.28 394.06,-64.24 401.06,-64.31"/>
</g>
<!-- Node2 -->
<g id="node2" class="node">
<title>Node2</title>
<g id="a_node2"><a xlink:href="struct_num_repr_1_1reg__digs__t.html#a2fe3516a538c7e83b6827106fd5606c2" target="_top" xlink:title=" ">
<polygon fill="white" stroke="#666666" points="281,-78 171,-78 171,-48 281,-48 281,-78"/>
<text text-anchor="start" x="179" y="-66" font-family="Helvetica,sans-Serif" font-size="10.00">NumRepr::reg_digs_t</text>
<text text-anchor="middle" x="226" y="-55" font-family="Helvetica,sans-Serif" font-size="10.00">::C_Bm1</text>
</a>
</g>
</g>
<!-- Node1&#45;&gt;Node2 -->
<g id="edge1" class="edge">
<title>Node1&#45;&gt;Node2</title>
<path fill="none" stroke="#63b8ff" d="M307.01,-49.67C298.44,-51.09 289.72,-52.55 281.33,-53.94"/>
<polygon fill="#63b8ff" stroke="#63b8ff" points="307.68,-53.1 316.97,-48 306.53,-46.2 307.68,-53.1"/>
</g>
<!-- Node3 -->
<g id="node3" class="node">
<title>Node3</title>
<g id="a_node3"><a xlink:href="struct_num_repr_1_1reg__digs__t.html#a459dcc84f5a2ff05f229a2813eeca4eb" target="_top" xlink:title=" ">
<polygon fill="white" stroke="#666666" points="281,-30 171,-30 171,0 281,0 281,-30"/>
<text text-anchor="start" x="179" y="-18" font-family="Helvetica,sans-Serif" font-size="10.00">NumRepr::reg_digs_t</text>
<text text-anchor="middle" x="226" y="-7" font-family="Helvetica,sans-Serif" font-size="10.00">::mC_B</text>
</a>
</g>
</g>
<!-- Node1&#45;&gt;Node3 -->
<g id="edge2" class="edge">
<title>Node1&#45;&gt;Node3</title>
<path fill="none" stroke="#63b8ff" d="M307.01,-28.33C298.44,-26.91 289.72,-25.45 281.33,-24.06"/>
<polygon fill="#63b8ff" stroke="#63b8ff" points="306.53,-31.8 316.97,-30 307.68,-24.9 306.53,-31.8"/>
</g>
<!-- Node4 -->
<g id="node4" class="node">
<title>Node4</title>
<g id="a_node4"><a xlink:href="struct_num_repr_1_1reg__digs__t.html#a61e3773ab1f1b47ae335e5c561ca5c6c" target="_top" xlink:title=" ">
<polygon fill="white" stroke="#666666" points="135,-24.5 0,-24.5 0,-5.5 135,-5.5 135,-24.5"/>
<text text-anchor="middle" x="67.5" y="-12.5" font-family="Helvetica,sans-Serif" font-size="10.00">NumRepr::reg_digs_t::C_B</text>
</a>
</g>
</g>
<!-- Node3&#45;&gt;Node4 -->
<g id="edge3" class="edge">
<title>Node3&#45;&gt;Node4</title>
<path fill="none" stroke="#63b8ff" d="M160.59,-15C152.18,-15 143.56,-15 135.12,-15"/>
<polygon fill="#63b8ff" stroke="#63b8ff" points="160.7,-18.5 170.7,-15 160.7,-11.5 160.7,-18.5"/>
</g>
</g>
</svg>
