<?xml version="1.0" encoding="UTF-8" standalone="no"?>
<!DOCTYPE svg PUBLIC "-//W3C//DTD SVG 1.1//EN"
 "http://www.w3.org/Graphics/SVG/1.1/DTD/svg11.dtd">
<!-- Generated by graphviz version 2.44.1 (20220725.2034)
 -->
<!-- Title: NumRepr::dig_t::is_near_maxormin Pages: 1 -->
<svg width="193pt" height="101pt"
 viewBox="0.00 0.00 193.00 101.00" xmlns="http://www.w3.org/2000/svg" xmlns:xlink="http://www.w3.org/1999/xlink">
<g id="graph0" class="graph" transform="scale(1 1) rotate(0) translate(4 97)">
<title>NumRepr::dig_t::is_near_maxormin</title>
<!-- Node1 -->
<g id="node1" class="node">
<title>Node1</title>
<g id="a_node1"><a xlink:title=" ">
<polygon fill="#999999" stroke="#666666" points="99,-61.5 0,-61.5 0,-31.5 99,-31.5 99,-61.5"/>
<text text-anchor="start" x="8" y="-49.5" font-family="Helvetica,sans-Serif" font-size="10.00">NumRepr::dig_t::is</text>
<text text-anchor="middle" x="49.5" y="-38.5" font-family="Helvetica,sans-Serif" font-size="10.00">_near_maxormin</text>
</a>
</g>
</g>
<!-- Node2 -->
<g id="node2" class="node">
<title>Node2</title>
<g id="a_node2"><a xlink:href="nat__reg__digs__t_01_07_copia_01en_01conflicto_01de_01_m_s_i_012022-11-24_08_8hpp.html#a540a0e700a266a624a295898de9ff8fc" target="_top" xlink:title=" ">
<polygon fill="white" stroke="#666666" points="177.5,-93 142.5,-93 142.5,-74 177.5,-74 177.5,-93"/>
<text text-anchor="middle" x="160" y="-81" font-family="Helvetica,sans-Serif" font-size="10.00">is_0</text>
</a>
</g>
</g>
<!-- Node1&#45;&gt;Node2 -->
<g id="edge1" class="edge">
<title>Node1&#45;&gt;Node2</title>
<path fill="none" stroke="#63b8ff" d="M94.63,-61.55C107.48,-65.93 121.11,-70.58 132.51,-74.46"/>
<polygon fill="#63b8ff" stroke="#63b8ff" points="131.66,-77.87 142.26,-77.79 133.92,-71.25 131.66,-77.87"/>
</g>
<!-- Node3 -->
<g id="node3" class="node">
<title>Node3</title>
<g id="a_node3"><a xlink:href="nat__reg__digs__t_01_07_copia_01en_01conflicto_01de_01_m_s_i_012022-11-24_08_8hpp.html#a3fdf457344d84bef1762417b5f5228d2" target="_top" xlink:title=" ">
<polygon fill="white" stroke="#666666" points="177.5,-56 142.5,-56 142.5,-37 177.5,-37 177.5,-56"/>
<text text-anchor="middle" x="160" y="-44" font-family="Helvetica,sans-Serif" font-size="10.00">is_1</text>
</a>
</g>
</g>
<!-- Node1&#45;&gt;Node3 -->
<g id="edge2" class="edge">
<title>Node1&#45;&gt;Node3</title>
<path fill="none" stroke="#63b8ff" d="M99.04,-46.5C110.47,-46.5 122.25,-46.5 132.31,-46.5"/>
<polygon fill="#63b8ff" stroke="#63b8ff" points="132.45,-50 142.45,-46.5 132.45,-43 132.45,-50"/>
</g>
<!-- Node4 -->
<g id="node4" class="node">
<title>Node4</title>
<g id="a_node4"><a xlink:href="nat__reg__digs__t_01_07_copia_01en_01conflicto_01de_01_m_s_i_012022-11-24_08_8hpp.html#a6433e8337d5ddd54c9d362e29780d52b" target="_top" xlink:title=" ">
<polygon fill="white" stroke="#666666" points="185,-19 135,-19 135,0 185,0 185,-19"/>
<text text-anchor="middle" x="160" y="-7" font-family="Helvetica,sans-Serif" font-size="10.00">is_Bm1</text>
</a>
</g>
</g>
<!-- Node1&#45;&gt;Node4 -->
<g id="edge3" class="edge">
<title>Node1&#45;&gt;Node4</title>
<path fill="none" stroke="#63b8ff" d="M94.63,-31.45C104.82,-27.98 115.5,-24.33 125.17,-21.04"/>
<polygon fill="#63b8ff" stroke="#63b8ff" points="126.48,-24.29 134.82,-17.75 124.22,-17.66 126.48,-24.29"/>
</g>
</g>
</svg>
