<?xml version="1.0" encoding="UTF-8" standalone="no"?>
<!DOCTYPE svg PUBLIC "-//W3C//DTD SVG 1.1//EN"
 "http://www.w3.org/Graphics/SVG/1.1/DTD/svg11.dtd">
<!-- Generated by graphviz version 2.44.1 (20220725.2034)
 -->
<!-- Title: utilities.hpp Pages: 1 -->
<!--zoomable 137 -->
<svg id="main" version="1.1" xmlns="http://www.w3.org/2000/svg" xmlns:xlink="http://www.w3.org/1999/xlink" xml:space="preserve" onload="init(evt)">
<style type="text/css"><![CDATA[
.edge:hover path { stroke: red; }
.edge:hover polygon { stroke: red; fill: red; }
]]></style>
<script type="text/javascript"><![CDATA[
var edges = document.getElementsByTagName('g');
if (edges && edges.length) {
  for (var i=0;i<edges.length;i++) {
    if (edges[i].id.substr(0,4)=='edge') {
      edges[i].setAttribute('class','edge');
    }
  }
}
]]></script>
        <defs>
                <circle id="rim" cx="0" cy="0" r="7"/>
                <circle id="rim2" cx="0" cy="0" r="3.5"/>
                <g id="zoomPlus">
                        <use xlink:href="#rim" fill="#404040">
                                <set attributeName="fill" to="#808080" begin="zoomplus.mouseover" end="zoomplus.mouseout"/>
                        </use>
                        <path d="M-4,0h8M0,-4v8" fill="none" stroke="white" stroke-width="1.5" pointer-events="none"/>
                </g>
                <g id="zoomMin">
                        <use xlink:href="#rim" fill="#404040">
                                <set attributeName="fill" to="#808080" begin="zoomminus.mouseover" end="zoomminus.mouseout"/>
                        </use>
                        <path d="M-4,0h8" fill="none" stroke="white" stroke-width="1.5" pointer-events="none"/>
                </g>
                <g id="dirArrow">
                        <path fill="none" stroke="white" stroke-width="1.5" d="M0,-3.0v7 M-2.5,-0.5L0,-3.0L2.5,-0.5"/>
                </g>
               <g id="resetDef">
                       <use xlink:href="#rim2" fill="#404040">
                               <set attributeName="fill" to="#808080" begin="reset.mouseover" end="reset.mouseout"/>
                       </use>
               </g>
        </defs>

<script type="text/javascript">
var viewWidth = 1296;
var viewHeight = 137;
var sectionId = 'dynsection-0';
</script>
<script xlink:href="svgpan.js"/>
<svg id="graph" class="graph">
<g id="viewport">
<title>utilities.hpp</title>
<!-- Node1 -->
<g id="node1" class="node">
<title>Node1</title>
<g id="a_node1"><a xlink:title=" ">
<polygon fill="#999999" stroke="#666666" points="324,-129 258,-129 258,-110 324,-110 324,-129"/>
<text text-anchor="middle" x="291" y="-117" font-family="Helvetica,sans-Serif" font-size="10.00">utilities.hpp</text>
</a>
</g>
</g>
<!-- Node2 -->
<g id="node2" class="node">
<title>Node2</title>
<g id="a_node2"><a xlink:title=" ">
<polygon fill="#e0e0e0" stroke="#999999" points="263,-74 225,-74 225,-55 263,-55 263,-74"/>
<text text-anchor="middle" x="244" y="-62" font-family="Helvetica,sans-Serif" font-size="10.00">tuple</text>
</a>
</g>
</g>
<!-- Node1&#45;&gt;Node2 -->
<g id="edge1" class="edge">
<title>Node1&#45;&gt;Node2</title>
<path fill="none" stroke="#63b8ff" d="M283.24,-109.75C276.53,-102.18 266.66,-91.05 258.49,-81.84"/>
<polygon fill="#63b8ff" stroke="#63b8ff" points="260.87,-79.25 251.62,-74.09 255.63,-83.89 260.87,-79.25"/>
</g>
<!-- Node3 -->
<g id="node3" class="node">
<title>Node3</title>
<g id="a_node3"><a xlink:title=" ">
<polygon fill="#e0e0e0" stroke="#999999" points="38,-19 0,-19 0,0 38,0 38,-19"/>
<text text-anchor="middle" x="19" y="-7" font-family="Helvetica,sans-Serif" font-size="10.00">array</text>
</a>
</g>
</g>
<!-- Node1&#45;&gt;Node3 -->
<g id="edge2" class="edge">
<title>Node1&#45;&gt;Node3</title>
<path fill="none" stroke="#63b8ff" d="M291.12,-109.57C290.77,-95.65 287.93,-68.95 272,-55 198.2,9.64 148.84,-38.54 48.1,-18.83"/>
<polygon fill="#63b8ff" stroke="#63b8ff" points="48.7,-15.37 38.19,-16.7 47.23,-22.22 48.7,-15.37"/>
</g>
<!-- Node4 -->
<g id="node4" class="node">
<title>Node4</title>
<g id="a_node4"><a xlink:href="basic__types_8hpp.html" target="_top" xlink:title=" ">
<polygon fill="white" stroke="#666666" points="680,-74 592,-74 592,-55 680,-55 680,-74"/>
<text text-anchor="middle" x="636" y="-62" font-family="Helvetica,sans-Serif" font-size="10.00">basic_types.hpp</text>
</a>
</g>
</g>
<!-- Node1&#45;&gt;Node4 -->
<g id="edge3" class="edge">
<title>Node1&#45;&gt;Node4</title>
<path fill="none" stroke="#63b8ff" d="M324.08,-113.42C383.56,-104.28 509.08,-85 581.45,-73.88"/>
<polygon fill="#63b8ff" stroke="#63b8ff" points="582.38,-77.28 591.73,-72.3 581.31,-70.36 582.38,-77.28"/>
</g>
<!-- Node4&#45;&gt;Node3 -->
<g id="edge14" class="edge">
<title>Node4&#45;&gt;Node3</title>
<path fill="none" stroke="#63b8ff" d="M591.98,-63.46C495,-62.66 255.72,-56.83 48.01,-18.75"/>
<polygon fill="#63b8ff" stroke="#63b8ff" points="48.61,-15.31 38.14,-16.92 47.33,-22.19 48.61,-15.31"/>
</g>
<!-- Node5 -->
<g id="node5" class="node">
<title>Node5</title>
<g id="a_node5"><a xlink:title=" ">
<polygon fill="#e0e0e0" stroke="#999999" points="102,-19 56,-19 56,0 102,0 102,-19"/>
<text text-anchor="middle" x="79" y="-7" font-family="Helvetica,sans-Serif" font-size="10.00">cstdint</text>
</a>
</g>
</g>
<!-- Node4&#45;&gt;Node5 -->
<g id="edge4" class="edge">
<title>Node4&#45;&gt;Node5</title>
<path fill="none" stroke="#63b8ff" d="M591.76,-62.36C502.64,-59.5 295.09,-50.01 112.37,-18.94"/>
<polygon fill="#63b8ff" stroke="#63b8ff" points="112.76,-15.45 102.31,-17.2 111.57,-22.35 112.76,-15.45"/>
</g>
<!-- Node6 -->
<g id="node6" class="node">
<title>Node6</title>
<g id="a_node6"><a xlink:title=" ">
<polygon fill="#e0e0e0" stroke="#999999" points="182,-19 120,-19 120,0 182,0 182,-19"/>
<text text-anchor="middle" x="151" y="-7" font-family="Helvetica,sans-Serif" font-size="10.00">type_traits</text>
</a>
</g>
</g>
<!-- Node4&#45;&gt;Node6 -->
<g id="edge5" class="edge">
<title>Node4&#45;&gt;Node6</title>
<path fill="none" stroke="#63b8ff" d="M591.9,-60.7C513.47,-55.37 344.42,-42.31 192.37,-19.06"/>
<polygon fill="#63b8ff" stroke="#63b8ff" points="192.8,-15.58 182.38,-17.51 191.73,-22.5 192.8,-15.58"/>
</g>
<!-- Node7 -->
<g id="node7" class="node">
<title>Node7</title>
<g id="a_node7"><a xlink:title=" ">
<polygon fill="#e0e0e0" stroke="#999999" points="250,-19 200,-19 200,0 250,0 250,-19"/>
<text text-anchor="middle" x="225" y="-7" font-family="Helvetica,sans-Serif" font-size="10.00">optional</text>
</a>
</g>
</g>
<!-- Node4&#45;&gt;Node7 -->
<g id="edge6" class="edge">
<title>Node4&#45;&gt;Node7</title>
<path fill="none" stroke="#63b8ff" d="M591.9,-60.13C523.1,-54.47 385.92,-41.59 260.35,-19.03"/>
<polygon fill="#63b8ff" stroke="#63b8ff" points="260.64,-15.52 250.17,-17.17 259.38,-22.41 260.64,-15.52"/>
</g>
<!-- Node8 -->
<g id="node8" class="node">
<title>Node8</title>
<g id="a_node8"><a xlink:title=" ">
<polygon fill="#e0e0e0" stroke="#999999" points="322,-19 268,-19 268,0 322,0 322,-19"/>
<text text-anchor="middle" x="295" y="-7" font-family="Helvetica,sans-Serif" font-size="10.00">compare</text>
</a>
</g>
</g>
<!-- Node4&#45;&gt;Node8 -->
<g id="edge7" class="edge">
<title>Node4&#45;&gt;Node8</title>
<path fill="none" stroke="#63b8ff" d="M591.86,-58.28C534.34,-51.22 430.44,-37.53 332.18,-19.08"/>
<polygon fill="#63b8ff" stroke="#63b8ff" points="332.55,-15.59 322.07,-17.16 331.24,-22.46 332.55,-15.59"/>
</g>
<!-- Node9 -->
<g id="node9" class="node">
<title>Node9</title>
<g id="a_node9"><a xlink:title=" ">
<polygon fill="#e0e0e0" stroke="#999999" points="396,-19 340,-19 340,0 396,0 396,-19"/>
<text text-anchor="middle" x="368" y="-7" font-family="Helvetica,sans-Serif" font-size="10.00">concepts</text>
</a>
</g>
</g>
<!-- Node4&#45;&gt;Node9 -->
<g id="edge8" class="edge">
<title>Node4&#45;&gt;Node9</title>
<path fill="none" stroke="#63b8ff" d="M591.62,-55.43C547.14,-47.24 476.44,-33.93 406.17,-19.19"/>
<polygon fill="#63b8ff" stroke="#63b8ff" points="406.77,-15.74 396.26,-17.1 405.32,-22.59 406.77,-15.74"/>
</g>
<!-- Node10 -->
<g id="node10" class="node">
<title>Node10</title>
<g id="a_node10"><a xlink:title=" ">
<polygon fill="#e0e0e0" stroke="#999999" points="468,-19 414,-19 414,0 468,0 468,-19"/>
<text text-anchor="middle" x="441" y="-7" font-family="Helvetica,sans-Serif" font-size="10.00">iostream</text>
</a>
</g>
</g>
<!-- Node4&#45;&gt;Node10 -->
<g id="edge9" class="edge">
<title>Node4&#45;&gt;Node10</title>
<path fill="none" stroke="#63b8ff" d="M604.67,-54.98C570.13,-45.6 514.61,-30.51 477.97,-20.55"/>
<polygon fill="#63b8ff" stroke="#63b8ff" points="478.73,-17.13 468.16,-17.88 476.9,-23.88 478.73,-17.13"/>
</g>
<!-- Node11 -->
<g id="node11" class="node">
<title>Node11</title>
<g id="a_node11"><a xlink:title=" ">
<polygon fill="#e0e0e0" stroke="#999999" points="532,-19 486,-19 486,0 532,0 532,-19"/>
<text text-anchor="middle" x="509" y="-7" font-family="Helvetica,sans-Serif" font-size="10.00">cstring</text>
</a>
</g>
</g>
<!-- Node4&#45;&gt;Node11 -->
<g id="edge10" class="edge">
<title>Node4&#45;&gt;Node11</title>
<path fill="none" stroke="#63b8ff" d="M615.6,-54.98C594.98,-46.38 562.89,-32.99 539.31,-23.15"/>
<polygon fill="#63b8ff" stroke="#63b8ff" points="540.35,-19.79 529.78,-19.17 537.66,-26.25 540.35,-19.79"/>
</g>
<!-- Node12 -->
<g id="node12" class="node">
<title>Node12</title>
<g id="a_node12"><a xlink:title=" ">
<polygon fill="#e0e0e0" stroke="#999999" points="591.5,-19 550.5,-19 550.5,0 591.5,0 591.5,-19"/>
<text text-anchor="middle" x="571" y="-7" font-family="Helvetica,sans-Serif" font-size="10.00">string</text>
</a>
</g>
</g>
<!-- Node4&#45;&gt;Node12 -->
<g id="edge11" class="edge">
<title>Node4&#45;&gt;Node12</title>
<path fill="none" stroke="#63b8ff" d="M625.56,-54.98C615.85,-47.07 601.18,-35.11 589.5,-25.58"/>
<polygon fill="#63b8ff" stroke="#63b8ff" points="591.6,-22.78 581.63,-19.17 587.17,-28.2 591.6,-22.78"/>
</g>
<!-- Node13 -->
<g id="node13" class="node">
<title>Node13</title>
<g id="a_node13"><a xlink:title=" ">
<polygon fill="#e0e0e0" stroke="#999999" points="662,-19 610,-19 610,0 662,0 662,-19"/>
<text text-anchor="middle" x="636" y="-7" font-family="Helvetica,sans-Serif" font-size="10.00">sstream</text>
</a>
</g>
</g>
<!-- Node4&#45;&gt;Node13 -->
<g id="edge12" class="edge">
<title>Node4&#45;&gt;Node13</title>
<path fill="none" stroke="#63b8ff" d="M636,-54.75C636,-47.8 636,-37.85 636,-29.13"/>
<polygon fill="#63b8ff" stroke="#63b8ff" points="639.5,-29.09 636,-19.09 632.5,-29.09 639.5,-29.09"/>
</g>
<!-- Node14 -->
<g id="node14" class="node">
<title>Node14</title>
<g id="a_node14"><a xlink:title=" ">
<polygon fill="#e0e0e0" stroke="#999999" points="730,-19 680,-19 680,0 730,0 730,-19"/>
<text text-anchor="middle" x="705" y="-7" font-family="Helvetica,sans-Serif" font-size="10.00">fstream</text>
</a>
</g>
</g>
<!-- Node4&#45;&gt;Node14 -->
<g id="edge13" class="edge">
<title>Node4&#45;&gt;Node14</title>
<path fill="none" stroke="#63b8ff" d="M647.09,-54.98C657.49,-47 673.26,-34.88 685.72,-25.31"/>
<polygon fill="#63b8ff" stroke="#63b8ff" points="687.91,-28.04 693.71,-19.17 683.65,-22.49 687.91,-28.04"/>
</g>
<!-- Node15 -->
<g id="node15" class="node">
<title>Node15</title>
<g id="a_node15"><a xlink:title=" ">
<polygon fill="#e0e0e0" stroke="#999999" points="792,-19 748,-19 748,0 792,0 792,-19"/>
<text text-anchor="middle" x="770" y="-7" font-family="Helvetica,sans-Serif" font-size="10.00">vector</text>
</a>
</g>
</g>
<!-- Node4&#45;&gt;Node15 -->
<g id="edge15" class="edge">
<title>Node4&#45;&gt;Node15</title>
<path fill="none" stroke="#63b8ff" d="M657.53,-54.98C679.47,-46.3 713.74,-32.75 738.69,-22.88"/>
<polygon fill="#63b8ff" stroke="#63b8ff" points="740.07,-26.1 748.08,-19.17 737.49,-19.59 740.07,-26.1"/>
</g>
<!-- Node16 -->
<g id="node16" class="node">
<title>Node16</title>
<g id="a_node16"><a xlink:title=" ">
<polygon fill="#e0e0e0" stroke="#999999" points="839.5,-19 810.5,-19 810.5,0 839.5,0 839.5,-19"/>
<text text-anchor="middle" x="825" y="-7" font-family="Helvetica,sans-Serif" font-size="10.00">list</text>
</a>
</g>
</g>
<!-- Node4&#45;&gt;Node16 -->
<g id="edge16" class="edge">
<title>Node4&#45;&gt;Node16</title>
<path fill="none" stroke="#63b8ff" d="M670.67,-54.98C702.18,-47.05 750.13,-34.53 800.56,-18.95"/>
<polygon fill="#63b8ff" stroke="#63b8ff" points="801.83,-22.21 810.34,-15.89 799.75,-15.53 801.83,-22.21"/>
</g>
<!-- Node17 -->
<g id="node17" class="node">
<title>Node17</title>
<g id="a_node17"><a xlink:title=" ">
<polygon fill="#e0e0e0" stroke="#999999" points="892.5,-19 857.5,-19 857.5,0 892.5,0 892.5,-19"/>
<text text-anchor="middle" x="875" y="-7" font-family="Helvetica,sans-Serif" font-size="10.00">map</text>
</a>
</g>
</g>
<!-- Node4&#45;&gt;Node17 -->
<g id="edge17" class="edge">
<title>Node4&#45;&gt;Node17</title>
<path fill="none" stroke="#63b8ff" d="M680.39,-55.7C721.6,-48.13 784.79,-35.69 847.76,-19.11"/>
<polygon fill="#63b8ff" stroke="#63b8ff" points="848.7,-22.48 857.46,-16.53 846.89,-15.72 848.7,-22.48"/>
</g>
<!-- Node18 -->
<g id="node18" class="node">
<title>Node18</title>
<g id="a_node18"><a xlink:title=" ">
<polygon fill="#e0e0e0" stroke="#999999" points="955.5,-19 910.5,-19 910.5,0 955.5,0 955.5,-19"/>
<text text-anchor="middle" x="933" y="-7" font-family="Helvetica,sans-Serif" font-size="10.00">climits</text>
</a>
</g>
</g>
<!-- Node4&#45;&gt;Node18 -->
<g id="edge18" class="edge">
<title>Node4&#45;&gt;Node18</title>
<path fill="none" stroke="#63b8ff" d="M680.04,-57.54C730.99,-50.32 817.58,-37.12 900.54,-19.15"/>
<polygon fill="#63b8ff" stroke="#63b8ff" points="901.36,-22.55 910.38,-16.99 899.86,-15.71 901.36,-22.55"/>
</g>
<!-- Node19 -->
<g id="node19" class="node">
<title>Node19</title>
<g id="a_node19"><a xlink:title=" ">
<polygon fill="#e0e0e0" stroke="#999999" points="1024.5,-19 973.5,-19 973.5,0 1024.5,0 1024.5,-19"/>
<text text-anchor="middle" x="999" y="-7" font-family="Helvetica,sans-Serif" font-size="10.00">numeric</text>
</a>
</g>
</g>
<!-- Node4&#45;&gt;Node19 -->
<g id="edge19" class="edge">
<title>Node4&#45;&gt;Node19</title>
<path fill="none" stroke="#63b8ff" d="M680.15,-59.1C741.62,-52.62 856.59,-39.27 963.46,-19.12"/>
<polygon fill="#63b8ff" stroke="#63b8ff" points="964.28,-22.52 973.45,-17.21 962.97,-15.65 964.28,-22.52"/>
</g>
<!-- Node20 -->
<g id="node20" class="node">
<title>Node20</title>
<g id="a_node20"><a xlink:title=" ">
<polygon fill="#e0e0e0" stroke="#999999" points="1083,-19 1043,-19 1043,0 1083,0 1083,-19"/>
<text text-anchor="middle" x="1063" y="-7" font-family="Helvetica,sans-Serif" font-size="10.00">limits</text>
</a>
</g>
</g>
<!-- Node4&#45;&gt;Node20 -->
<g id="edge20" class="edge">
<title>Node4&#45;&gt;Node20</title>
<path fill="none" stroke="#63b8ff" d="M680.26,-61.07C752.35,-56.56 899.62,-45.08 1032.86,-18.89"/>
<polygon fill="#63b8ff" stroke="#63b8ff" points="1033.71,-22.29 1042.83,-16.9 1032.34,-15.43 1033.71,-22.29"/>
</g>
<!-- Node21 -->
<g id="node21" class="node">
<title>Node21</title>
<g id="a_node21"><a xlink:title=" ">
<polygon fill="#e0e0e0" stroke="#999999" points="1145,-19 1101,-19 1101,0 1145,0 1145,-19"/>
<text text-anchor="middle" x="1123" y="-7" font-family="Helvetica,sans-Serif" font-size="10.00">cmath</text>
</a>
</g>
</g>
<!-- Node4&#45;&gt;Node21 -->
<g id="edge21" class="edge">
<title>Node4&#45;&gt;Node21</title>
<path fill="none" stroke="#63b8ff" d="M680.05,-61.7C760.07,-57.88 934.69,-47.08 1090.52,-18.96"/>
<polygon fill="#63b8ff" stroke="#63b8ff" points="1091.55,-22.33 1100.75,-17.09 1090.29,-15.45 1091.55,-22.33"/>
</g>
<!-- Node22 -->
<g id="node22" class="node">
<title>Node22</title>
<g id="a_node22"><a xlink:title=" ">
<polygon fill="#e0e0e0" stroke="#999999" points="1210.5,-19 1163.5,-19 1163.5,0 1210.5,0 1210.5,-19"/>
<text text-anchor="middle" x="1187" y="-7" font-family="Helvetica,sans-Serif" font-size="10.00">iterator</text>
</a>
</g>
</g>
<!-- Node4&#45;&gt;Node22 -->
<g id="edge22" class="edge">
<title>Node4&#45;&gt;Node22</title>
<path fill="none" stroke="#63b8ff" d="M680.32,-62.18C768.6,-59 972.72,-48.99 1153.36,-18.79"/>
<polygon fill="#63b8ff" stroke="#63b8ff" points="1154.04,-22.23 1163.31,-17.11 1152.86,-15.33 1154.04,-22.23"/>
</g>
<!-- Node23 -->
<g id="node23" class="node">
<title>Node23</title>
<g id="a_node23"><a xlink:title=" ">
<polygon fill="#e0e0e0" stroke="#999999" points="1287.5,-19 1228.5,-19 1228.5,0 1287.5,0 1287.5,-19"/>
<text text-anchor="middle" x="1258" y="-7" font-family="Helvetica,sans-Serif" font-size="10.00">functional</text>
</a>
</g>
</g>
<!-- Node4&#45;&gt;Node23 -->
<g id="edge23" class="edge">
<title>Node4&#45;&gt;Node23</title>
<path fill="none" stroke="#63b8ff" d="M680.2,-62.3C776.41,-59.23 1012.11,-49.18 1218.11,-19.09"/>
<polygon fill="#63b8ff" stroke="#63b8ff" points="1218.83,-22.52 1228.21,-17.59 1217.8,-15.59 1218.83,-22.52"/>
</g>
</g>
</svg>
        <g id="navigator" transform="translate(0 0)" fill="#404254">
                <rect fill="#f2f5e9" fill-opacity="0.5" stroke="#606060" stroke-width=".5" x="0" y="0" width="60" height="60"/>
                <use id="zoomplus" xlink:href="#zoomPlus" x="17" y="9" onmousedown="handleZoom(evt,'in')"/>
                <use id="zoomminus" xlink:href="#zoomMin" x="42" y="9" onmousedown="handleZoom(evt,'out')"/>
                <use id="reset" xlink:href="#resetDef" x="30" y="36" onmousedown="handleReset()"/>
                <g id="arrowUp" xlink:href="#dirArrow" transform="translate(30 24)" onmousedown="handlePan(0,-1)">
                  <use xlink:href="#rim" fill="#404040">
                        <set attributeName="fill" to="#808080" begin="arrowUp.mouseover" end="arrowUp.mouseout"/>
                  </use>
                  <path fill="none" stroke="white" stroke-width="1.5" d="M0,-3.0v7 M-2.5,-0.5L0,-3.0L2.5,-0.5"/>
                </g>
                <g id="arrowRight" xlink:href="#dirArrow" transform="rotate(90) translate(36 -43)" onmousedown="handlePan(1,0)">
                  <use xlink:href="#rim" fill="#404040">
                        <set attributeName="fill" to="#808080" begin="arrowRight.mouseover" end="arrowRight.mouseout"/>
                  </use>
                  <path fill="none" stroke="white" stroke-width="1.5" d="M0,-3.0v7 M-2.5,-0.5L0,-3.0L2.5,-0.5"/>
                </g>
                <g id="arrowDown" xlink:href="#dirArrow" transform="rotate(180) translate(-30 -48)" onmousedown="handlePan(0,1)">
                  <use xlink:href="#rim" fill="#404040">
                        <set attributeName="fill" to="#808080" begin="arrowDown.mouseover" end="arrowDown.mouseout"/>
                  </use>
                  <path fill="none" stroke="white" stroke-width="1.5" d="M0,-3.0v7 M-2.5,-0.5L0,-3.0L2.5,-0.5"/>
                </g>
                <g id="arrowLeft" xlink:href="#dirArrow" transform="rotate(270) translate(-36 17)" onmousedown="handlePan(-1,0)">
                  <use xlink:href="#rim" fill="#404040">
                        <set attributeName="fill" to="#808080" begin="arrowLeft.mouseover" end="arrowLeft.mouseout"/>
                  </use>
                  <path fill="none" stroke="white" stroke-width="1.5" d="M0,-3.0v7 M-2.5,-0.5L0,-3.0L2.5,-0.5"/>
                </g>
        </g>
        <svg viewBox="0 0 15 15" width="100%" height="30px" preserveAspectRatio="xMaxYMin meet">
         <g id="arrow_out" transform="scale(0.3 0.3)">
          <a xlink:href="utilities_8hpp__incl_org.svg" target="_base">
           <rect id="button" ry="5" rx="5" y="6" x="6" height="38" width="38"
                fill="#f2f5e9" fill-opacity="0.5" stroke="#606060" stroke-width="1.0"/>
           <path id="arrow"
             d="M 11.500037,31.436501 C 11.940474,20.09759 22.043105,11.32322 32.158766,21.979434 L 37.068811,17.246167 C 37.068811,17.246167 37.088388,32 37.088388,32 L 22.160133,31.978069 C 22.160133,31.978069 26.997745,27.140456 26.997745,27.140456 C 18.528582,18.264221 13.291696,25.230495 11.500037,31.436501 z"
             style="fill:#404040;"/>
          </a>
         </g>
        </svg>
</svg>
