<?xml version="1.0" encoding="UTF-8" standalone="no"?>
<!DOCTYPE svg PUBLIC "-//W3C//DTD SVG 1.1//EN"
 "http://www.w3.org/Graphics/SVG/1.1/DTD/svg11.dtd">
<!-- Generated by graphviz version 2.44.1 (20220725.2034)
 -->
<!-- Title: basic_types.hpp Pages: 1 -->
<svg width="580pt" height="489pt"
 viewBox="0.00 0.00 579.53 489.00" xmlns="http://www.w3.org/2000/svg" xmlns:xlink="http://www.w3.org/1999/xlink">
<g id="graph0" class="graph" transform="scale(1 1) rotate(0) translate(4 485)">
<title>basic_types.hpp</title>
<!-- Node1 -->
<g id="node1" class="node">
<title>Node1</title>
<g id="a_node1"><a xlink:title=" ">
<polygon fill="#999999" stroke="#666666" points="340.03,-481 252.03,-481 252.03,-462 340.03,-462 340.03,-481"/>
<text text-anchor="middle" x="296.03" y="-469" font-family="Helvetica,sans-Serif" font-size="10.00">basic_types.hpp</text>
</a>
</g>
</g>
<!-- Node2 -->
<g id="node2" class="node">
<title>Node2</title>
<g id="a_node2"><a xlink:href="$auxiliary__types_8hpp.html" xlink:title=" ">
<polygon fill="white" stroke="#666666" points="303.53,-426 202.53,-426 202.53,-407 303.53,-407 303.53,-426"/>
<text text-anchor="middle" x="253.03" y="-414" font-family="Helvetica,sans-Serif" font-size="10.00">auxiliary_types.hpp</text>
</a>
</g>
</g>
<!-- Node1&#45;&gt;Node2 -->
<g id="edge1" class="edge">
<title>Node1&#45;&gt;Node2</title>
<path fill="none" stroke="#63b8ff" d="M282.6,-453.96C275.11,-444.72 266.09,-433.6 259.99,-426.09"/>
<polygon fill="#63b8ff" stroke="#63b8ff" points="279.91,-456.19 288.93,-461.75 285.34,-451.78 279.91,-456.19"/>
</g>
<!-- Node15 -->
<g id="node15" class="node">
<title>Node15</title>
<g id="a_node15"><a xlink:href="$utilities_8hpp.html" xlink:title=" ">
<polygon fill="white" stroke="#666666" points="372.03,-316 306.03,-316 306.03,-297 372.03,-297 372.03,-316"/>
<text text-anchor="middle" x="339.03" y="-304" font-family="Helvetica,sans-Serif" font-size="10.00">utilities.hpp</text>
</a>
</g>
</g>
<!-- Node1&#45;&gt;Node15 -->
<g id="edge17" class="edge">
<title>Node1&#45;&gt;Node15</title>
<path fill="none" stroke="#63b8ff" d="M303.66,-452.36C306.84,-444.37 310.39,-434.82 313.03,-426 325.09,-385.64 334.17,-336.02 337.57,-316.24"/>
<polygon fill="#63b8ff" stroke="#63b8ff" points="300.36,-451.19 299.81,-461.77 306.83,-453.84 300.36,-451.19"/>
</g>
<!-- Node3 -->
<g id="node3" class="node">
<title>Node3</title>
<g id="a_node3"><a xlink:href="$auxiliary__functions_8hpp.html" xlink:title=" ">
<polygon fill="white" stroke="#666666" points="311.03,-371 195.03,-371 195.03,-352 311.03,-352 311.03,-371"/>
<text text-anchor="middle" x="253.03" y="-359" font-family="Helvetica,sans-Serif" font-size="10.00">auxiliary_functions.hpp</text>
</a>
</g>
</g>
<!-- Node2&#45;&gt;Node3 -->
<g id="edge2" class="edge">
<title>Node2&#45;&gt;Node3</title>
<path fill="none" stroke="#63b8ff" d="M253.03,-396.66C253.03,-387.93 253.03,-377.99 253.03,-371.09"/>
<polygon fill="#63b8ff" stroke="#63b8ff" points="249.53,-396.75 253.03,-406.75 256.53,-396.75 249.53,-396.75"/>
</g>
<!-- Node4 -->
<g id="node4" class="node">
<title>Node4</title>
<g id="a_node4"><a xlink:href="$dig__t_8hpp.html" xlink:title=" ">
<polygon fill="white" stroke="#666666" points="224.03,-316 168.03,-316 168.03,-297 224.03,-297 224.03,-316"/>
<text text-anchor="middle" x="196.03" y="-304" font-family="Helvetica,sans-Serif" font-size="10.00">dig_t.hpp</text>
</a>
</g>
</g>
<!-- Node2&#45;&gt;Node4 -->
<g id="edge16" class="edge">
<title>Node2&#45;&gt;Node4</title>
<path fill="none" stroke="#63b8ff" d="M220.91,-402.52C207.6,-395.34 193.53,-385 186.03,-371 176.53,-353.3 185.33,-329.1 191.4,-316.29"/>
<polygon fill="#63b8ff" stroke="#63b8ff" points="219.4,-405.67 229.91,-406.98 222.51,-399.4 219.4,-405.67"/>
</g>
<!-- Node3&#45;&gt;Node4 -->
<g id="edge3" class="edge">
<title>Node3&#45;&gt;Node4</title>
<path fill="none" stroke="#63b8ff" d="M236.4,-345.04C226.29,-335.64 213.75,-323.98 205.35,-316.17"/>
<polygon fill="#63b8ff" stroke="#63b8ff" points="234.16,-347.74 243.87,-351.98 238.93,-342.61 234.16,-347.74"/>
</g>
<!-- Node5 -->
<g id="node5" class="node">
<title>Node5</title>
<g id="a_node5"><a xlink:href="$int__num__t_8hpp.html" xlink:title=" ">
<polygon fill="white" stroke="#666666" points="356.03,-19 278.03,-19 278.03,0 356.03,0 356.03,-19"/>
<text text-anchor="middle" x="317.03" y="-7" font-family="Helvetica,sans-Serif" font-size="10.00">int_num_t.hpp</text>
</a>
</g>
</g>
<!-- Node4&#45;&gt;Node5 -->
<g id="edge4" class="edge">
<title>Node4&#45;&gt;Node5</title>
<path fill="none" stroke="#63b8ff" d="M157.64,-300.48C112.03,-293.73 39.76,-280.31 21.03,-261 -6.08,-233.06 2.03,-214.43 2.03,-175.5 2.03,-175.5 2.03,-175.5 2.03,-118.5 2.03,-60.83 193.33,-27.46 277.77,-15.53"/>
<polygon fill="#63b8ff" stroke="#63b8ff" points="157.37,-303.98 167.77,-301.93 158.37,-297.05 157.37,-303.98"/>
</g>
<!-- Node6 -->
<g id="node6" class="node">
<title>Node6</title>
<g id="a_node6"><a xlink:href="$memory__handler_8hpp.html" xlink:title=" ">
<polygon fill="white" stroke="#666666" points="137.53,-250 30.53,-250 30.53,-231 137.53,-231 137.53,-250"/>
<text text-anchor="middle" x="84.03" y="-238" font-family="Helvetica,sans-Serif" font-size="10.00">memory_handler.hpp</text>
</a>
</g>
</g>
<!-- Node4&#45;&gt;Node6 -->
<g id="edge5" class="edge">
<title>Node4&#45;&gt;Node6</title>
<path fill="none" stroke="#63b8ff" d="M172.15,-291.86C150.1,-279.26 118.01,-260.92 99.25,-250.2"/>
<polygon fill="#63b8ff" stroke="#63b8ff" points="170.5,-294.95 180.92,-296.87 173.98,-288.87 170.5,-294.95"/>
</g>
<!-- Node7 -->
<g id="node7" class="node">
<title>Node7</title>
<g id="a_node7"><a xlink:href="$nat__reg__digs__t_01_07_copia_01en_01conflicto_01de_01_m_s_i_012022-11-24_08_8hpp.html" xlink:title=" ">
<polygon fill="white" stroke="#666666" points="366.03,-261 254.03,-261 254.03,-220 366.03,-220 366.03,-261"/>
<text text-anchor="start" x="262.03" y="-249" font-family="Helvetica,sans-Serif" font-size="10.00">nat_reg_digs_t (Copia</text>
<text text-anchor="start" x="262.03" y="-238" font-family="Helvetica,sans-Serif" font-size="10.00"> en conflicto de MSI</text>
<text text-anchor="middle" x="310.03" y="-227" font-family="Helvetica,sans-Serif" font-size="10.00"> 2022&#45;11&#45;24).hpp</text>
</a>
</g>
</g>
<!-- Node4&#45;&gt;Node7 -->
<g id="edge6" class="edge">
<title>Node4&#45;&gt;Node7</title>
<path fill="none" stroke="#63b8ff" d="M220.16,-291.95C236.17,-282.96 257.45,-271.02 275.28,-261.01"/>
<polygon fill="#63b8ff" stroke="#63b8ff" points="218.41,-288.92 211.4,-296.87 221.83,-295.03 218.41,-288.92"/>
</g>
<!-- Node8 -->
<g id="node8" class="node">
<title>Node8</title>
<g id="a_node8"><a xlink:href="$nat__reg__digs__t_8hpp.html" xlink:title=" ">
<polygon fill="white" stroke="#666666" points="483.53,-250 384.53,-250 384.53,-231 483.53,-231 483.53,-250"/>
<text text-anchor="middle" x="434.03" y="-238" font-family="Helvetica,sans-Serif" font-size="10.00">nat_reg_digs_t.hpp</text>
</a>
</g>
</g>
<!-- Node4&#45;&gt;Node8 -->
<g id="edge7" class="edge">
<title>Node4&#45;&gt;Node8</title>
<path fill="none" stroke="#63b8ff" d="M234.28,-296.87C270.67,-288.46 326.87,-274.92 375.03,-261 386.43,-257.7 398.92,-253.64 409.47,-250.08"/>
<polygon fill="#63b8ff" stroke="#63b8ff" points="233.07,-293.56 224.11,-299.21 234.64,-300.38 233.07,-293.56"/>
</g>
<!-- Node13 -->
<g id="node13" class="node">
<title>Node13</title>
<g id="a_node13"><a xlink:href="$reg__digs__t_8hpp.html" xlink:title=" ">
<polygon fill="white" stroke="#666666" points="236.03,-250 156.03,-250 156.03,-231 236.03,-231 236.03,-250"/>
<text text-anchor="middle" x="196.03" y="-238" font-family="Helvetica,sans-Serif" font-size="10.00">reg_digs_t.hpp</text>
</a>
</g>
</g>
<!-- Node4&#45;&gt;Node13 -->
<g id="edge14" class="edge">
<title>Node4&#45;&gt;Node13</title>
<path fill="none" stroke="#63b8ff" d="M196.03,-286.58C196.03,-274.63 196.03,-259.72 196.03,-250.41"/>
<polygon fill="#63b8ff" stroke="#63b8ff" points="192.53,-286.87 196.03,-296.87 199.53,-286.87 192.53,-286.87"/>
</g>
<!-- Node9 -->
<g id="node9" class="node">
<title>Node9</title>
<g id="a_node9"><a xlink:href="$int__reg__digs__t_8hpp.html" xlink:title=" ">
<polygon fill="white" stroke="#666666" points="460.03,-184 364.03,-184 364.03,-165 460.03,-165 460.03,-184"/>
<text text-anchor="middle" x="412.03" y="-172" font-family="Helvetica,sans-Serif" font-size="10.00">int_reg_digs_t.hpp</text>
</a>
</g>
</g>
<!-- Node8&#45;&gt;Node9 -->
<g id="edge8" class="edge">
<title>Node8&#45;&gt;Node9</title>
<path fill="none" stroke="#63b8ff" d="M427.78,-221.32C423.63,-209.24 418.36,-193.91 415.09,-184.41"/>
<polygon fill="#63b8ff" stroke="#63b8ff" points="424.5,-222.55 431.06,-230.87 431.12,-220.27 424.5,-222.55"/>
</g>
<!-- Node9&#45;&gt;Node5 -->
<g id="edge12" class="edge">
<title>Node9&#45;&gt;Node5</title>
<path fill="none" stroke="#63b8ff" d="M377.42,-160.76C362.74,-153.62 346.79,-143.24 337.03,-129 313.07,-94.07 314.53,-40.03 316.16,-19.14"/>
<polygon fill="#63b8ff" stroke="#63b8ff" points="376.25,-164.07 386.81,-164.99 379.13,-157.69 376.25,-164.07"/>
</g>
<!-- Node10 -->
<g id="node10" class="node">
<title>Node10</title>
<g id="a_node10"><a xlink:href="$base__num__t_8hpp.html" xlink:title=" ">
<polygon fill="white" stroke="#666666" points="434.53,-129 345.53,-129 345.53,-110 434.53,-110 434.53,-129"/>
<text text-anchor="middle" x="390.03" y="-117" font-family="Helvetica,sans-Serif" font-size="10.00">base_num_t.hpp</text>
</a>
</g>
</g>
<!-- Node9&#45;&gt;Node10 -->
<g id="edge9" class="edge">
<title>Node9&#45;&gt;Node10</title>
<path fill="none" stroke="#63b8ff" d="M404.45,-155.24C400.77,-146.37 396.52,-136.14 393.59,-129.09"/>
<polygon fill="#63b8ff" stroke="#63b8ff" points="401.33,-156.85 408.39,-164.75 407.79,-154.17 401.33,-156.85"/>
</g>
<!-- Node12 -->
<g id="node12" class="node">
<title>Node12</title>
<g id="a_node12"><a xlink:href="$nat__rat__fixed__reg__t_8hpp.html" xlink:title=" ">
<polygon fill="white" stroke="#666666" points="571.53,-129 452.53,-129 452.53,-110 571.53,-110 571.53,-129"/>
<text text-anchor="middle" x="512.03" y="-117" font-family="Helvetica,sans-Serif" font-size="10.00">nat_rat_fixed_reg_t.hpp</text>
</a>
</g>
</g>
<!-- Node9&#45;&gt;Node12 -->
<g id="edge13" class="edge">
<title>Node9&#45;&gt;Node12</title>
<path fill="none" stroke="#63b8ff" d="M437.06,-160.23C455.4,-150.51 479.77,-137.6 495.67,-129.17"/>
<polygon fill="#63b8ff" stroke="#63b8ff" points="435.29,-157.21 428.09,-164.98 438.57,-163.39 435.29,-157.21"/>
</g>
<!-- Node11 -->
<g id="node11" class="node">
<title>Node11</title>
<g id="a_node11"><a xlink:href="$nat__num__t_8hpp.html" xlink:title=" ">
<polygon fill="white" stroke="#666666" points="428.53,-74 347.53,-74 347.53,-55 428.53,-55 428.53,-74"/>
<text text-anchor="middle" x="388.03" y="-62" font-family="Helvetica,sans-Serif" font-size="10.00">nat_num_t.hpp</text>
</a>
</g>
</g>
<!-- Node10&#45;&gt;Node11 -->
<g id="edge10" class="edge">
<title>Node10&#45;&gt;Node11</title>
<path fill="none" stroke="#63b8ff" d="M389.32,-99.66C388.99,-90.93 388.61,-80.99 388.35,-74.09"/>
<polygon fill="#63b8ff" stroke="#63b8ff" points="385.82,-99.89 389.7,-109.75 392.82,-99.62 385.82,-99.89"/>
</g>
<!-- Node11&#45;&gt;Node5 -->
<g id="edge11" class="edge">
<title>Node11&#45;&gt;Node5</title>
<path fill="none" stroke="#63b8ff" d="M368.44,-48.88C355.66,-39.34 339.41,-27.21 328.64,-19.17"/>
<polygon fill="#63b8ff" stroke="#63b8ff" points="366.51,-51.81 376.62,-54.98 370.7,-46.2 366.51,-51.81"/>
</g>
<!-- Node14 -->
<g id="node14" class="node">
<title>Node14</title>
<g id="a_node14"><a xlink:href="$pruebas__dig__t_8cpp.html" xlink:title=" ">
<polygon fill="white" stroke="#666666" points="244.03,-184 148.03,-184 148.03,-165 244.03,-165 244.03,-184"/>
<text text-anchor="middle" x="196.03" y="-172" font-family="Helvetica,sans-Serif" font-size="10.00">pruebas_dig_t.cpp</text>
</a>
</g>
</g>
<!-- Node13&#45;&gt;Node14 -->
<g id="edge15" class="edge">
<title>Node13&#45;&gt;Node14</title>
<path fill="none" stroke="#63b8ff" d="M196.03,-220.58C196.03,-208.63 196.03,-193.72 196.03,-184.41"/>
<polygon fill="#63b8ff" stroke="#63b8ff" points="192.53,-220.87 196.03,-230.87 199.53,-220.87 192.53,-220.87"/>
</g>
<!-- Node15&#45;&gt;Node7 -->
<g id="edge19" class="edge">
<title>Node15&#45;&gt;Node7</title>
<path fill="none" stroke="#63b8ff" d="M330.98,-287.74C327.21,-279.43 322.72,-269.52 318.87,-261.01"/>
<polygon fill="#63b8ff" stroke="#63b8ff" points="327.8,-289.2 335.12,-296.87 334.18,-286.32 327.8,-289.2"/>
</g>
<!-- Node15&#45;&gt;Node8 -->
<g id="edge20" class="edge">
<title>Node15&#45;&gt;Node8</title>
<path fill="none" stroke="#63b8ff" d="M360.28,-291.18C378.95,-278.61 405.49,-260.73 421.11,-250.2"/>
<polygon fill="#63b8ff" stroke="#63b8ff" points="358.18,-288.38 351.84,-296.87 362.09,-294.18 358.18,-288.38"/>
</g>
<!-- Node15&#45;&gt;Node12 -->
<g id="edge18" class="edge">
<title>Node15&#45;&gt;Node12</title>
<path fill="none" stroke="#63b8ff" d="M382.22,-305.19C417.46,-302.47 465.72,-292.64 493.03,-261 526.64,-222.05 518.03,-153.05 513.74,-129.03"/>
<polygon fill="#63b8ff" stroke="#63b8ff" points="381.97,-301.7 372.2,-305.81 382.39,-308.69 381.97,-301.7"/>
</g>
<!-- Node15&#45;&gt;Node13 -->
<g id="edge21" class="edge">
<title>Node15&#45;&gt;Node13</title>
<path fill="none" stroke="#63b8ff" d="M310.41,-292.69C282.23,-280.08 239.95,-261.16 215.46,-250.2"/>
<polygon fill="#63b8ff" stroke="#63b8ff" points="309.18,-295.98 319.74,-296.87 312.04,-289.59 309.18,-295.98"/>
</g>
</g>
</svg>
