<?xml version="1.0" encoding="UTF-8" standalone="no"?>
<!DOCTYPE svg PUBLIC "-//W3C//DTD SVG 1.1//EN"
 "http://www.w3.org/Graphics/SVG/1.1/DTD/svg11.dtd">
<!-- Generated by graphviz version 2.44.1 (20220725.2034)
 -->
<!-- Title: nat_num_t::operator!= Pages: 1 -->
<svg width="382pt" height="55pt"
 viewBox="0.00 0.00 382.00 54.50" xmlns="http://www.w3.org/2000/svg" xmlns:xlink="http://www.w3.org/1999/xlink">
<g id="graph0" class="graph" transform="scale(1 1) rotate(0) translate(4 50.5)">
<title>nat_num_t::operator!=</title>
<!-- Node1 -->
<g id="node1" class="node">
<title>Node1</title>
<g id="a_node1"><a xlink:title=" ">
<polygon fill="#999999" stroke="#666666" points="113,-19 0,-19 0,0 113,0 113,-19"/>
<text text-anchor="middle" x="56.5" y="-7" font-family="Helvetica,sans-Serif" font-size="10.00">nat_num_t::operator!=</text>
</a>
</g>
</g>
<!-- Node2 -->
<g id="node2" class="node">
<title>Node2</title>
<g id="a_node2"><a xlink:href="$classnat__num__t.html#a2a7eae79a48f9b29a40c9103cfac72d7" xlink:title=" ">
<polygon fill="white" stroke="#666666" points="252,-46.5 149,-46.5 149,-16.5 252,-16.5 252,-46.5"/>
<text text-anchor="start" x="157" y="-34.5" font-family="Helvetica,sans-Serif" font-size="10.00">nat_num_t::ceros_a</text>
<text text-anchor="middle" x="200.5" y="-23.5" font-family="Helvetica,sans-Serif" font-size="10.00">_la_izqda</text>
</a>
</g>
</g>
<!-- Node1&#45;&gt;Node2 -->
<g id="edge1" class="edge">
<title>Node1&#45;&gt;Node2</title>
<path fill="none" stroke="#63b8ff" d="M113.21,-18.13C121.5,-19.42 130.08,-20.74 138.47,-22.04"/>
<polygon fill="#63b8ff" stroke="#63b8ff" points="138.15,-25.54 148.57,-23.61 139.23,-18.62 138.15,-25.54"/>
</g>
<!-- Node3 -->
<g id="node3" class="node">
<title>Node3</title>
<g id="a_node3"><a xlink:href="$classnat__num__t.html#a3f420ff49cf6b55ef38936b2035a4071" xlink:title=" ">
<polygon fill="white" stroke="#666666" points="374,-19 288,-19 288,0 374,0 374,-19"/>
<text text-anchor="middle" x="331" y="-7" font-family="Helvetica,sans-Serif" font-size="10.00">nat_num_t::size</text>
</a>
</g>
</g>
<!-- Node1&#45;&gt;Node3 -->
<g id="edge3" class="edge">
<title>Node1&#45;&gt;Node3</title>
<path fill="none" stroke="#63b8ff" d="M113.14,-8.09C124.98,-7.84 137.4,-7.63 149,-7.5 194.78,-7 206.23,-6.91 252,-7.5 260.37,-7.61 269.25,-7.78 277.9,-7.98"/>
<polygon fill="#63b8ff" stroke="#63b8ff" points="277.82,-11.48 287.9,-8.22 277.99,-4.48 277.82,-11.48"/>
</g>
<!-- Node2&#45;&gt;Node3 -->
<g id="edge2" class="edge">
<title>Node2&#45;&gt;Node3</title>
<path fill="none" stroke="#63b8ff" d="M252.29,-22.81C260.67,-21.37 269.36,-19.88 277.78,-18.44"/>
<polygon fill="#63b8ff" stroke="#63b8ff" points="278.59,-21.85 287.86,-16.72 277.41,-14.95 278.59,-21.85"/>
</g>
</g>
</svg>
