<?xml version="1.0" encoding="UTF-8" standalone="no"?>
<!DOCTYPE svg PUBLIC "-//W3C//DTD SVG 1.1//EN"
 "http://www.w3.org/Graphics/SVG/1.1/DTD/svg11.dtd">
<!-- Generated by graphviz version 2.44.1 (20220725.2034)
 -->
<!-- Title: nat_num_t::operator*= Pages: 1 -->
<svg width="684pt" height="114pt"
 viewBox="0.00 0.00 684.00 113.50" xmlns="http://www.w3.org/2000/svg" xmlns:xlink="http://www.w3.org/1999/xlink">
<g id="graph0" class="graph" transform="scale(1 1) rotate(0) translate(4 109.5)">
<title>nat_num_t::operator*=</title>
<!-- Node1 -->
<g id="node1" class="node">
<title>Node1</title>
<g id="a_node1"><a xlink:title=" ">
<polygon fill="#999999" stroke="#666666" points="113,-75 0,-75 0,-56 113,-56 113,-75"/>
<text text-anchor="middle" x="56.5" y="-63" font-family="Helvetica,sans-Serif" font-size="10.00">nat_num_t::operator*=</text>
</a>
</g>
</g>
<!-- Node2 -->
<g id="node2" class="node">
<title>Node2</title>
<g id="a_node2"><a xlink:href="$classnat__num__t.html#aef1019272164e14682dc667e158afa53" xlink:title=" ">
<polygon fill="white" stroke="#666666" points="265,-94 149,-94 149,-75 265,-75 265,-94"/>
<text text-anchor="middle" x="207" y="-82" font-family="Helvetica,sans-Serif" font-size="10.00">nat_num_t::push_back</text>
</a>
</g>
</g>
<!-- Node1&#45;&gt;Node2 -->
<g id="edge1" class="edge">
<title>Node1&#45;&gt;Node2</title>
<path fill="none" stroke="#63b8ff" d="M113.22,-72.63C121.62,-73.7 130.36,-74.82 138.96,-75.92"/>
<polygon fill="#63b8ff" stroke="#63b8ff" points="138.62,-79.41 148.98,-77.2 139.5,-72.46 138.62,-79.41"/>
</g>
<!-- Node3 -->
<g id="node3" class="node">
<title>Node3</title>
<g id="a_node3"><a xlink:href="$classnat__num__t.html#a5a1e29dfd320bf08016a2f0227621f0d" xlink:title=" ">
<polygon fill="white" stroke="#666666" points="256,-57 158,-57 158,-38 256,-38 256,-57"/>
<text text-anchor="middle" x="207" y="-45" font-family="Helvetica,sans-Serif" font-size="10.00">nat_num_t::reduce</text>
</a>
</g>
</g>
<!-- Node1&#45;&gt;Node3 -->
<g id="edge2" class="edge">
<title>Node1&#45;&gt;Node3</title>
<path fill="none" stroke="#63b8ff" d="M113.22,-58.75C124.43,-57.39 136.25,-55.95 147.56,-54.58"/>
<polygon fill="#63b8ff" stroke="#63b8ff" points="148.26,-58.02 157.77,-53.35 147.42,-51.08 148.26,-58.02"/>
</g>
<!-- Node4 -->
<g id="node4" class="node">
<title>Node4</title>
<g id="a_node4"><a xlink:href="$classnat__num__t.html#a14b63725918fba3ba1f731c3cda4b6ca" xlink:title=" ">
<polygon fill="white" stroke="#666666" points="409,-105.5 307,-105.5 307,-75.5 409,-75.5 409,-105.5"/>
<text text-anchor="start" x="315" y="-93.5" font-family="Helvetica,sans-Serif" font-size="10.00">nat_num_t::digs_no</text>
<text text-anchor="middle" x="358" y="-82.5" font-family="Helvetica,sans-Serif" font-size="10.00">_significativos</text>
</a>
</g>
</g>
<!-- Node3&#45;&gt;Node4 -->
<g id="edge3" class="edge">
<title>Node3&#45;&gt;Node4</title>
<path fill="none" stroke="#63b8ff" d="M241.07,-57.04C257.49,-61.78 277.86,-67.66 296.92,-73.16"/>
<polygon fill="#63b8ff" stroke="#63b8ff" points="296.16,-76.59 306.74,-76 298.1,-69.86 296.16,-76.59"/>
</g>
<!-- Node6 -->
<g id="node6" class="node">
<title>Node6</title>
<g id="a_node6"><a xlink:href="$classnat__num__t.html#a3f420ff49cf6b55ef38936b2035a4071" xlink:title=" ">
<polygon fill="white" stroke="#666666" points="676,-78 590,-78 590,-59 676,-59 676,-78"/>
<text text-anchor="middle" x="633" y="-66" font-family="Helvetica,sans-Serif" font-size="10.00">nat_num_t::size</text>
</a>
</g>
</g>
<!-- Node3&#45;&gt;Node6 -->
<g id="edge7" class="edge">
<title>Node3&#45;&gt;Node6</title>
<path fill="none" stroke="#63b8ff" d="M256.23,-49.89C336.47,-53.86 496.74,-61.8 579.64,-65.91"/>
<polygon fill="#63b8ff" stroke="#63b8ff" points="579.68,-69.41 589.84,-66.41 580.03,-62.42 579.68,-69.41"/>
</g>
<!-- Node7 -->
<g id="node7" class="node">
<title>Node7</title>
<g id="a_node7"><a xlink:href="$classnat__num__t.html#a8f8bdd2355aab6b9b24f4c87cd68f5b7" xlink:title=" ">
<polygon fill="white" stroke="#666666" points="415,-19 301,-19 301,0 415,0 415,-19"/>
<text text-anchor="middle" x="358" y="-7" font-family="Helvetica,sans-Serif" font-size="10.00">nat_num_t::nat_num_t</text>
</a>
</g>
</g>
<!-- Node3&#45;&gt;Node7 -->
<g id="edge6" class="edge">
<title>Node3&#45;&gt;Node7</title>
<path fill="none" stroke="#63b8ff" d="M245.6,-37.91C265.08,-32.94 289.07,-26.82 309.8,-21.54"/>
<polygon fill="#63b8ff" stroke="#63b8ff" points="310.85,-24.88 319.67,-19.02 309.12,-18.1 310.85,-24.88"/>
</g>
<!-- Node5 -->
<g id="node5" class="node">
<title>Node5</title>
<g id="a_node5"><a xlink:href="$classnat__num__t.html#a2a7eae79a48f9b29a40c9103cfac72d7" xlink:title=" ">
<polygon fill="white" stroke="#666666" points="554,-105.5 451,-105.5 451,-75.5 554,-75.5 554,-105.5"/>
<text text-anchor="start" x="459" y="-93.5" font-family="Helvetica,sans-Serif" font-size="10.00">nat_num_t::ceros_a</text>
<text text-anchor="middle" x="502.5" y="-82.5" font-family="Helvetica,sans-Serif" font-size="10.00">_la_izqda</text>
</a>
</g>
</g>
<!-- Node4&#45;&gt;Node5 -->
<g id="edge4" class="edge">
<title>Node4&#45;&gt;Node5</title>
<path fill="none" stroke="#63b8ff" d="M409.24,-90.5C419.34,-90.5 430.05,-90.5 440.47,-90.5"/>
<polygon fill="#63b8ff" stroke="#63b8ff" points="440.75,-94 450.75,-90.5 440.75,-87 440.75,-94"/>
</g>
<!-- Node5&#45;&gt;Node6 -->
<g id="edge5" class="edge">
<title>Node5&#45;&gt;Node6</title>
<path fill="none" stroke="#63b8ff" d="M554.29,-81.81C562.67,-80.37 571.36,-78.88 579.78,-77.44"/>
<polygon fill="#63b8ff" stroke="#63b8ff" points="580.59,-80.85 589.86,-75.72 579.41,-73.95 580.59,-80.85"/>
</g>
</g>
</svg>
