<?xml version="1.0" encoding="UTF-8" standalone="no"?>
<!DOCTYPE svg PUBLIC "-//W3C//DTD SVG 1.1//EN"
 "http://www.w3.org/Graphics/SVG/1.1/DTD/svg11.dtd">
<!-- Generated by graphviz version 2.44.1 (20220725.2034)
 -->
<!-- Title: nat_num_t::minus Pages: 1 -->
<svg width="252pt" height="64pt"
 viewBox="0.00 0.00 252.00 64.00" xmlns="http://www.w3.org/2000/svg" xmlns:xlink="http://www.w3.org/1999/xlink">
<g id="graph0" class="graph" transform="scale(1 1) rotate(0) translate(4 60)">
<title>nat_num_t::minus</title>
<!-- Node1 -->
<g id="node1" class="node">
<title>Node1</title>
<g id="a_node1"><a xlink:title=" ">
<polygon fill="#999999" stroke="#666666" points="244,-37 149,-37 149,-18 244,-18 244,-37"/>
<text text-anchor="middle" x="196.5" y="-25" font-family="Helvetica,sans-Serif" font-size="10.00">nat_num_t::minus</text>
</a>
</g>
</g>
<!-- Node2 -->
<g id="node2" class="node">
<title>Node2</title>
<g id="a_node2"><a xlink:href="$classnat__num__t.html#aa7de2415a6824b4af279ec90aac74dd3" xlink:title=" ">
<polygon fill="white" stroke="#666666" points="110,-56 3,-56 3,-37 110,-37 110,-56"/>
<text text-anchor="middle" x="56.5" y="-44" font-family="Helvetica,sans-Serif" font-size="10.00">nat_num_t::operator&#45;</text>
</a>
</g>
</g>
<!-- Node1&#45;&gt;Node2 -->
<g id="edge1" class="edge">
<title>Node1&#45;&gt;Node2</title>
<path fill="none" stroke="#63b8ff" d="M138.74,-35.31C129.35,-36.61 119.64,-37.94 110.35,-39.22"/>
<polygon fill="#63b8ff" stroke="#63b8ff" points="139.35,-38.76 148.78,-33.93 138.4,-31.83 139.35,-38.76"/>
</g>
<!-- Node3 -->
<g id="node3" class="node">
<title>Node3</title>
<g id="a_node3"><a xlink:href="$classnat__num__t.html#a0951fd96d0bf5389fd1a30aa2c19ef6a" xlink:title=" ">
<polygon fill="white" stroke="#666666" points="113,-19 0,-19 0,0 113,0 113,-19"/>
<text text-anchor="middle" x="56.5" y="-7" font-family="Helvetica,sans-Serif" font-size="10.00">nat_num_t::operator&#45;=</text>
</a>
</g>
</g>
<!-- Node1&#45;&gt;Node3 -->
<g id="edge2" class="edge">
<title>Node1&#45;&gt;Node3</title>
<path fill="none" stroke="#63b8ff" d="M138.69,-20.09C130.28,-18.99 121.63,-17.86 113.24,-16.77"/>
<polygon fill="#63b8ff" stroke="#63b8ff" points="138.41,-23.58 148.78,-21.41 139.32,-16.64 138.41,-23.58"/>
</g>
</g>
</svg>
