<?xml version="1.0" encoding="UTF-8" standalone="no"?>
<!DOCTYPE svg PUBLIC "-//W3C//DTD SVG 1.1//EN"
 "http://www.w3.org/Graphics/SVG/1.1/DTD/svg11.dtd">
<!-- Generated by graphviz version 2.44.1 (20220725.2034)
 -->
<!-- Title: nat_num_t::nat_num_t Pages: 1 -->
<svg width="272pt" height="64pt"
 viewBox="0.00 0.00 272.00 64.00" xmlns="http://www.w3.org/2000/svg" xmlns:xlink="http://www.w3.org/1999/xlink">
<g id="graph0" class="graph" transform="scale(1 1) rotate(0) translate(4 60)">
<title>nat_num_t::nat_num_t</title>
<!-- Node1 -->
<g id="node1" class="node">
<title>Node1</title>
<g id="a_node1"><a xlink:title=" ">
<polygon fill="#999999" stroke="#666666" points="114,-37 0,-37 0,-18 114,-18 114,-37"/>
<text text-anchor="middle" x="57" y="-25" font-family="Helvetica,sans-Serif" font-size="10.00">nat_num_t::nat_num_t</text>
</a>
</g>
</g>
<!-- Node2 -->
<g id="node2" class="node">
<title>Node2</title>
<g id="a_node2"><a xlink:href="$classnat__num__t.html#a296e66bafb159169f28cab2ef1357f14" xlink:title=" ">
<polygon fill="white" stroke="#666666" points="251.5,-56 162.5,-56 162.5,-37 251.5,-37 251.5,-56"/>
<text text-anchor="middle" x="207" y="-44" font-family="Helvetica,sans-Serif" font-size="10.00">nat_num_t::clear</text>
</a>
</g>
</g>
<!-- Node1&#45;&gt;Node2 -->
<g id="edge1" class="edge">
<title>Node1&#45;&gt;Node2</title>
<path fill="none" stroke="#63b8ff" d="M114.37,-34.74C126.76,-36.33 139.84,-38.01 152.12,-39.58"/>
<polygon fill="#63b8ff" stroke="#63b8ff" points="151.85,-43.08 162.21,-40.88 152.74,-36.13 151.85,-43.08"/>
</g>
<!-- Node3 -->
<g id="node3" class="node">
<title>Node3</title>
<g id="a_node3"><a xlink:href="$classnat__num__t.html#aa0ced0babafe7e7e98b393c63d0c06d9" xlink:title=" ">
<polygon fill="white" stroke="#666666" points="264,-19 150,-19 150,0 264,0 264,-19"/>
<text text-anchor="middle" x="207" y="-7" font-family="Helvetica,sans-Serif" font-size="10.00">nat_num_t::push_front</text>
</a>
</g>
</g>
<!-- Node1&#45;&gt;Node3 -->
<g id="edge2" class="edge">
<title>Node1&#45;&gt;Node3</title>
<path fill="none" stroke="#63b8ff" d="M114.37,-20.64C122.62,-19.64 131.18,-18.6 139.6,-17.58"/>
<polygon fill="#63b8ff" stroke="#63b8ff" points="140.28,-21.02 149.78,-16.34 139.43,-14.07 140.28,-21.02"/>
</g>
</g>
</svg>
