<?xml version="1.0" encoding="UTF-8" standalone="no"?>
<!DOCTYPE svg PUBLIC "-//W3C//DTD SVG 1.1//EN"
 "http://www.w3.org/Graphics/SVG/1.1/DTD/svg11.dtd">
<!-- Generated by graphviz version 2.44.1 (20220725.2034)
 -->
<!-- Title: func_refvar_t::este_nombre_ya_ha_sido_declarado Pages: 1 -->
<svg width="335pt" height="135pt"
 viewBox="0.00 0.00 335.00 135.00" xmlns="http://www.w3.org/2000/svg" xmlns:xlink="http://www.w3.org/1999/xlink">
<g id="graph0" class="graph" transform="scale(1 1) rotate(0) translate(4 131)">
<title>func_refvar_t::este_nombre_ya_ha_sido_declarado</title>
<!-- Node1 -->
<g id="node1" class="node">
<title>Node1</title>
<g id="a_node1"><a xlink:title=" ">
<polygon fill="#999999" stroke="#666666" points="327,-89.5 171,-89.5 171,-59.5 327,-59.5 327,-89.5"/>
<text text-anchor="start" x="179" y="-77.5" font-family="Helvetica,sans-Serif" font-size="10.00">func_refvar_t::este</text>
<text text-anchor="middle" x="249" y="-66.5" font-family="Helvetica,sans-Serif" font-size="10.00">_nombre_ya_ha_sido_declarado</text>
</a>
</g>
</g>
<!-- Node2 -->
<g id="node2" class="node">
<title>Node2</title>
<g id="a_node2"><a xlink:href="$classfunc__refvar__t.html#a9127c1c5b54819300d13a4f46fbb3610" xlink:title=" ">
<polygon fill="white" stroke="#666666" points="128,-127 7,-127 7,-108 128,-108 128,-127"/>
<text text-anchor="middle" x="67.5" y="-115" font-family="Helvetica,sans-Serif" font-size="10.00">func_refvar_t::operator()</text>
</a>
</g>
</g>
<!-- Node1&#45;&gt;Node2 -->
<g id="edge1" class="edge">
<title>Node1&#45;&gt;Node2</title>
<path fill="none" stroke="#63b8ff" d="M175.19,-91.94C152.32,-97.42 127.93,-103.26 108.25,-107.98"/>
<polygon fill="#63b8ff" stroke="#63b8ff" points="176.31,-95.27 185.22,-89.54 174.68,-88.47 176.31,-95.27"/>
</g>
<!-- Node3 -->
<g id="node3" class="node">
<title>Node3</title>
<g id="a_node3"><a xlink:href="$classfunc__refvar__t_3_01_i_n_t_01_5_5_00_01_i_n_t_01_5_00_01_i_n_t_01_4.html#ab63d213a5e7e754c772965fc5375c267" xlink:title=" ">
<polygon fill="white" stroke="#666666" points="135,-89.5 0,-89.5 0,-59.5 135,-59.5 135,-89.5"/>
<text text-anchor="start" x="8" y="-77.5" font-family="Helvetica,sans-Serif" font-size="10.00">func_refvar_t&lt; INT</text>
<text text-anchor="middle" x="67.5" y="-66.5" font-family="Helvetica,sans-Serif" font-size="10.00"> **, INT *, INT &gt;::operator()</text>
</a>
</g>
</g>
<!-- Node1&#45;&gt;Node3 -->
<g id="edge2" class="edge">
<title>Node1&#45;&gt;Node3</title>
<path fill="none" stroke="#63b8ff" d="M160.76,-74.5C152.15,-74.5 143.51,-74.5 135.16,-74.5"/>
<polygon fill="#63b8ff" stroke="#63b8ff" points="160.83,-78 170.83,-74.5 160.83,-71 160.83,-78"/>
</g>
<!-- Node4 -->
<g id="node4" class="node">
<title>Node4</title>
<g id="a_node4"><a xlink:href="$classfunc__refvar__t_3_01_u_i_n_t_01_5_5_00_01_u_i_n_t_01_5_00_01_u_i_n_t_01_4.html#ab11b5bb2dc5a6f6bc98d43c9bac6e7df" xlink:title=" ">
<polygon fill="white" stroke="#666666" points="121,-41 14,-41 14,0 121,0 121,-41"/>
<text text-anchor="start" x="22" y="-29" font-family="Helvetica,sans-Serif" font-size="10.00">func_refvar_t&lt; UINT</text>
<text text-anchor="start" x="22" y="-18" font-family="Helvetica,sans-Serif" font-size="10.00"> **, UINT *, UINT &gt;</text>
<text text-anchor="middle" x="67.5" y="-7" font-family="Helvetica,sans-Serif" font-size="10.00">::operator()</text>
</a>
</g>
</g>
<!-- Node1&#45;&gt;Node4 -->
<g id="edge3" class="edge">
<title>Node1&#45;&gt;Node4</title>
<path fill="none" stroke="#63b8ff" d="M188.22,-56.52C166.49,-49.98 142.11,-42.64 121.05,-36.31"/>
<polygon fill="#63b8ff" stroke="#63b8ff" points="187.41,-59.93 198,-59.46 189.43,-53.23 187.41,-59.93"/>
</g>
</g>
</svg>
