<?xml version="1.0" encoding="UTF-8" standalone="no"?>
<!DOCTYPE svg PUBLIC "-//W3C//DTD SVG 1.1//EN"
 "http://www.w3.org/Graphics/SVG/1.1/DTD/svg11.dtd">
<!-- Generated by graphviz version 2.44.1 (20220725.2034)
 -->
<!-- Title: nat_num_t::substr Pages: 1 -->
<svg width="263pt" height="138pt"
 viewBox="0.00 0.00 263.00 138.00" xmlns="http://www.w3.org/2000/svg" xmlns:xlink="http://www.w3.org/1999/xlink">
<g id="graph0" class="graph" transform="scale(1 1) rotate(0) translate(4 134)">
<title>nat_num_t::substr</title>
<!-- Node1 -->
<g id="node1" class="node">
<title>Node1</title>
<g id="a_node1"><a xlink:title=" ">
<polygon fill="#999999" stroke="#666666" points="255,-74 160,-74 160,-55 255,-55 255,-74"/>
<text text-anchor="middle" x="207.5" y="-62" font-family="Helvetica,sans-Serif" font-size="10.00">nat_num_t::substr</text>
</a>
</g>
</g>
<!-- Node2 -->
<g id="node2" class="node">
<title>Node2</title>
<g id="a_node2"><a xlink:href="$classnat__num__t.html#a3a404549ae4f05cafef5d6ceec3a6646" xlink:title=" ">
<polygon fill="white" stroke="#666666" points="105,-130 19,-130 19,-111 105,-111 105,-130"/>
<text text-anchor="middle" x="62" y="-118" font-family="Helvetica,sans-Serif" font-size="10.00">nat_num_t::div2</text>
</a>
</g>
</g>
<!-- Node1&#45;&gt;Node2 -->
<g id="edge1" class="edge">
<title>Node1&#45;&gt;Node2</title>
<path fill="none" stroke="#63b8ff" d="M178.63,-78.56C162.84,-86.22 142.58,-95.52 124,-102.5 115.83,-105.57 106.9,-108.46 98.45,-110.98"/>
<polygon fill="#63b8ff" stroke="#63b8ff" points="180.39,-81.6 187.83,-74.05 177.31,-75.31 180.39,-81.6"/>
</g>
<!-- Node3 -->
<g id="node3" class="node">
<title>Node3</title>
<g id="a_node3"><a xlink:href="$classnat__num__t.html#a86fb8e79d86da172cc7adff7632ac725" xlink:title=" ">
<polygon fill="white" stroke="#666666" points="117,-93 7,-93 7,-74 117,-74 117,-93"/>
<text text-anchor="middle" x="62" y="-81" font-family="Helvetica,sans-Serif" font-size="10.00">nat_num_t::EuclidDiv</text>
</a>
</g>
</g>
<!-- Node1&#45;&gt;Node3 -->
<g id="edge2" class="edge">
<title>Node1&#45;&gt;Node3</title>
<path fill="none" stroke="#63b8ff" d="M149.77,-72.01C139,-73.44 127.77,-74.92 117.09,-76.34"/>
<polygon fill="#63b8ff" stroke="#63b8ff" points="150.46,-75.45 159.91,-70.67 149.54,-68.51 150.46,-75.45"/>
</g>
<!-- Node4 -->
<g id="node4" class="node">
<title>Node4</title>
<g id="a_node4"><a xlink:href="$classnat__num__t.html#affad1b46b9de15da174a01644271785f" xlink:title=" ">
<polygon fill="white" stroke="#666666" points="112,-56 12,-56 12,-37 112,-37 112,-56"/>
<text text-anchor="middle" x="62" y="-44" font-family="Helvetica,sans-Serif" font-size="10.00">nat_num_t::m_div2</text>
</a>
</g>
</g>
<!-- Node1&#45;&gt;Node4 -->
<g id="edge3" class="edge">
<title>Node1&#45;&gt;Node4</title>
<path fill="none" stroke="#63b8ff" d="M149.71,-57.38C137.34,-55.83 124.36,-54.2 112.32,-52.69"/>
<polygon fill="#63b8ff" stroke="#63b8ff" points="149.55,-60.88 159.91,-58.66 150.42,-53.94 149.55,-60.88"/>
</g>
<!-- Node5 -->
<g id="node5" class="node">
<title>Node5</title>
<g id="a_node5"><a xlink:href="$classnat__num__t.html#a33fdda0e7d67cc2f9a9c90ea001e8c2b" xlink:title=" ">
<polygon fill="white" stroke="#666666" points="124,-19 0,-19 0,0 124,0 124,-19"/>
<text text-anchor="middle" x="62" y="-7" font-family="Helvetica,sans-Serif" font-size="10.00">nat_num_t::m_EuclidDiv</text>
</a>
</g>
</g>
<!-- Node1&#45;&gt;Node5 -->
<g id="edge4" class="edge">
<title>Node1&#45;&gt;Node5</title>
<path fill="none" stroke="#63b8ff" d="M177.25,-50.8C161.62,-43.72 141.95,-35.19 124,-28.5 114.96,-25.13 105.02,-21.86 95.83,-19"/>
<polygon fill="#63b8ff" stroke="#63b8ff" points="175.86,-54.02 186.41,-55 178.77,-47.65 175.86,-54.02"/>
</g>
</g>
</svg>
