<?xml version="1.0" encoding="UTF-8" standalone="no"?>
<!DOCTYPE svg PUBLIC "-//W3C//DTD SVG 1.1//EN"
 "http://www.w3.org/Graphics/SVG/1.1/DTD/svg11.dtd">
<!-- Generated by graphviz version 2.44.1 (20220725.2034)
 -->
<!-- Title: nat_num_t::nat_num_t Pages: 1 -->
<svg width="667pt" height="114pt"
 viewBox="0.00 0.00 667.00 113.50" xmlns="http://www.w3.org/2000/svg" xmlns:xlink="http://www.w3.org/1999/xlink">
<g id="graph0" class="graph" transform="scale(1 1) rotate(0) translate(4 109.5)">
<title>nat_num_t::nat_num_t</title>
<!-- Node1 -->
<g id="node1" class="node">
<title>Node1</title>
<g id="a_node1"><a xlink:title=" ">
<polygon fill="#999999" stroke="#666666" points="114,-75 0,-75 0,-56 114,-56 114,-75"/>
<text text-anchor="middle" x="57" y="-63" font-family="Helvetica,sans-Serif" font-size="10.00">nat_num_t::nat_num_t</text>
</a>
</g>
</g>
<!-- Node2 -->
<g id="node2" class="node">
<title>Node2</title>
<g id="a_node2"><a xlink:href="$classnat__num__t.html#a296e66bafb159169f28cab2ef1357f14" xlink:title=" ">
<polygon fill="white" stroke="#666666" points="243.5,-94 154.5,-94 154.5,-75 243.5,-75 243.5,-94"/>
<text text-anchor="middle" x="199" y="-82" font-family="Helvetica,sans-Serif" font-size="10.00">nat_num_t::clear</text>
</a>
</g>
</g>
<!-- Node1&#45;&gt;Node2 -->
<g id="edge1" class="edge">
<title>Node1&#45;&gt;Node2</title>
<path fill="none" stroke="#63b8ff" d="M114.14,-73.12C124.07,-74.47 134.4,-75.87 144.27,-77.21"/>
<polygon fill="#63b8ff" stroke="#63b8ff" points="143.97,-80.7 154.35,-78.58 144.91,-73.76 143.97,-80.7"/>
</g>
<!-- Node3 -->
<g id="node3" class="node">
<title>Node3</title>
<g id="a_node3"><a xlink:href="$classnat__num__t.html#a5a1e29dfd320bf08016a2f0227621f0d" xlink:title=" ">
<polygon fill="white" stroke="#666666" points="248,-57 150,-57 150,-38 248,-38 248,-57"/>
<text text-anchor="middle" x="199" y="-45" font-family="Helvetica,sans-Serif" font-size="10.00">nat_num_t::reduce</text>
</a>
</g>
</g>
<!-- Node1&#45;&gt;Node3 -->
<g id="edge2" class="edge">
<title>Node1&#45;&gt;Node3</title>
<path fill="none" stroke="#63b8ff" d="M114.14,-58.28C122.57,-57.2 131.29,-56.08 139.77,-54.99"/>
<polygon fill="#63b8ff" stroke="#63b8ff" points="140.49,-58.42 149.96,-53.68 139.6,-51.48 140.49,-58.42"/>
</g>
<!-- Node4 -->
<g id="node4" class="node">
<title>Node4</title>
<g id="a_node4"><a xlink:href="$classnat__num__t.html#a14b63725918fba3ba1f731c3cda4b6ca" xlink:title=" ">
<polygon fill="white" stroke="#666666" points="392,-105.5 290,-105.5 290,-75.5 392,-75.5 392,-105.5"/>
<text text-anchor="start" x="298" y="-93.5" font-family="Helvetica,sans-Serif" font-size="10.00">nat_num_t::digs_no</text>
<text text-anchor="middle" x="341" y="-82.5" font-family="Helvetica,sans-Serif" font-size="10.00">_significativos</text>
</a>
</g>
</g>
<!-- Node3&#45;&gt;Node4 -->
<g id="edge3" class="edge">
<title>Node3&#45;&gt;Node4</title>
<path fill="none" stroke="#63b8ff" d="M231.07,-57.04C245.82,-61.57 263.95,-67.14 281.15,-72.43"/>
<polygon fill="#63b8ff" stroke="#63b8ff" points="280.56,-75.9 291.14,-75.49 282.61,-69.21 280.56,-75.9"/>
</g>
<!-- Node6 -->
<g id="node6" class="node">
<title>Node6</title>
<g id="a_node6"><a xlink:href="$classnat__num__t.html#a3f420ff49cf6b55ef38936b2035a4071" xlink:title=" ">
<polygon fill="white" stroke="#666666" points="659,-78 573,-78 573,-59 659,-59 659,-78"/>
<text text-anchor="middle" x="616" y="-66" font-family="Helvetica,sans-Serif" font-size="10.00">nat_num_t::size</text>
</a>
</g>
</g>
<!-- Node3&#45;&gt;Node6 -->
<g id="edge7" class="edge">
<title>Node3&#45;&gt;Node6</title>
<path fill="none" stroke="#63b8ff" d="M248.01,-49.93C326.48,-53.9 481.57,-61.75 562.72,-65.85"/>
<polygon fill="#63b8ff" stroke="#63b8ff" points="562.55,-69.35 572.72,-66.36 562.91,-62.36 562.55,-69.35"/>
</g>
<!-- Node7 -->
<g id="node7" class="node">
<title>Node7</title>
<g id="a_node7"><a xlink:href="$classnat__num__t.html#a8f8bdd2355aab6b9b24f4c87cd68f5b7" xlink:title=" ">
<polygon fill="white" stroke="#666666" points="398,-19 284,-19 284,0 398,0 398,-19"/>
<text text-anchor="middle" x="341" y="-7" font-family="Helvetica,sans-Serif" font-size="10.00">nat_num_t::nat_num_t</text>
</a>
</g>
</g>
<!-- Node3&#45;&gt;Node7 -->
<g id="edge6" class="edge">
<title>Node3&#45;&gt;Node7</title>
<path fill="none" stroke="#63b8ff" d="M235.33,-37.91C253.4,-33.01 275.6,-26.98 294.89,-21.74"/>
<polygon fill="#63b8ff" stroke="#63b8ff" points="295.95,-25.08 304.68,-19.09 294.12,-18.33 295.95,-25.08"/>
</g>
<!-- Node5 -->
<g id="node5" class="node">
<title>Node5</title>
<g id="a_node5"><a xlink:href="$classnat__num__t.html#a2a7eae79a48f9b29a40c9103cfac72d7" xlink:title=" ">
<polygon fill="white" stroke="#666666" points="537,-105.5 434,-105.5 434,-75.5 537,-75.5 537,-105.5"/>
<text text-anchor="start" x="442" y="-93.5" font-family="Helvetica,sans-Serif" font-size="10.00">nat_num_t::ceros_a</text>
<text text-anchor="middle" x="485.5" y="-82.5" font-family="Helvetica,sans-Serif" font-size="10.00">_la_izqda</text>
</a>
</g>
</g>
<!-- Node4&#45;&gt;Node5 -->
<g id="edge4" class="edge">
<title>Node4&#45;&gt;Node5</title>
<path fill="none" stroke="#63b8ff" d="M392.24,-90.5C402.34,-90.5 413.05,-90.5 423.47,-90.5"/>
<polygon fill="#63b8ff" stroke="#63b8ff" points="423.75,-94 433.75,-90.5 423.75,-87 423.75,-94"/>
</g>
<!-- Node5&#45;&gt;Node6 -->
<g id="edge5" class="edge">
<title>Node5&#45;&gt;Node6</title>
<path fill="none" stroke="#63b8ff" d="M537.29,-81.81C545.67,-80.37 554.36,-78.88 562.78,-77.44"/>
<polygon fill="#63b8ff" stroke="#63b8ff" points="563.59,-80.85 572.86,-75.72 562.41,-73.95 563.59,-80.85"/>
</g>
</g>
</svg>
