<?xml version="1.0" encoding="UTF-8" standalone="no"?>
<!DOCTYPE svg PUBLIC "-//W3C//DTD SVG 1.1//EN"
 "http://www.w3.org/Graphics/SVG/1.1/DTD/svg11.dtd">
<!-- Generated by graphviz version 2.44.1 (20220725.2034)
 -->
<!-- Title: nat_num_t::ceros_a_la_izqda Pages: 1 -->
<svg width="706pt" height="1272pt"
 viewBox="0.00 0.00 706.00 1272.00" xmlns="http://www.w3.org/2000/svg" xmlns:xlink="http://www.w3.org/1999/xlink">
<g id="graph0" class="graph" transform="scale(1 1) rotate(0) translate(4 1268)">
<title>nat_num_t::ceros_a_la_izqda</title>
<!-- Node1 -->
<g id="node1" class="node">
<title>Node1</title>
<g id="a_node1"><a xlink:title=" ">
<polygon fill="#999999" stroke="#666666" points="698,-538.5 595,-538.5 595,-508.5 698,-508.5 698,-538.5"/>
<text text-anchor="start" x="603" y="-526.5" font-family="Helvetica,sans-Serif" font-size="10.00">nat_num_t::ceros_a</text>
<text text-anchor="middle" x="646.5" y="-515.5" font-family="Helvetica,sans-Serif" font-size="10.00">_la_izqda</text>
</a>
</g>
</g>
<!-- Node2 -->
<g id="node2" class="node">
<title>Node2</title>
<g id="a_node2"><a xlink:href="$classnat__num__t.html#a14b63725918fba3ba1f731c3cda4b6ca" xlink:title=" ">
<polygon fill="white" stroke="#666666" points="552,-655.5 450,-655.5 450,-625.5 552,-625.5 552,-655.5"/>
<text text-anchor="start" x="458" y="-643.5" font-family="Helvetica,sans-Serif" font-size="10.00">nat_num_t::digs_no</text>
<text text-anchor="middle" x="501" y="-632.5" font-family="Helvetica,sans-Serif" font-size="10.00">_significativos</text>
</a>
</g>
</g>
<!-- Node1&#45;&gt;Node2 -->
<g id="edge1" class="edge">
<title>Node1&#45;&gt;Node2</title>
<path fill="none" stroke="#63b8ff" d="M628.11,-546.75C611.99,-567.02 586.42,-596.14 559,-615.5 553.79,-619.18 547.96,-622.49 542.06,-625.4"/>
<polygon fill="#63b8ff" stroke="#63b8ff" points="631.03,-548.7 634.41,-538.66 625.51,-544.39 631.03,-548.7"/>
</g>
<!-- Node37 -->
<g id="node37" class="node">
<title>Node37</title>
<g id="a_node37"><a xlink:href="$classnat__num__t.html#aae8bc6d1fe862b06f1c203822dc0000e" xlink:title=" ">
<polygon fill="white" stroke="#666666" points="557.5,-607 444.5,-607 444.5,-588 557.5,-588 557.5,-607"/>
<text text-anchor="middle" x="501" y="-595" font-family="Helvetica,sans-Serif" font-size="10.00">nat_num_t::operator!=</text>
</a>
</g>
</g>
<!-- Node1&#45;&gt;Node37 -->
<g id="edge38" class="edge">
<title>Node1&#45;&gt;Node37</title>
<path fill="none" stroke="#63b8ff" d="M616.46,-544.49C600.14,-555.63 579.07,-568.95 559,-578.5 551.46,-582.08 543.07,-585.28 535.09,-587.99"/>
<polygon fill="#63b8ff" stroke="#63b8ff" points="618.78,-547.14 625,-538.57 614.79,-541.39 618.78,-547.14"/>
</g>
<!-- Node38 -->
<g id="node38" class="node">
<title>Node38</title>
<g id="a_node38"><a xlink:href="$classnat__num__t.html#a3547d805ee0109baf0d99a3b7fed8722" xlink:title=" ">
<polygon fill="white" stroke="#666666" points="556,-570 446,-570 446,-551 556,-551 556,-570"/>
<text text-anchor="middle" x="501" y="-558" font-family="Helvetica,sans-Serif" font-size="10.00">nat_num_t::operator&lt;</text>
</a>
</g>
</g>
<!-- Node1&#45;&gt;Node38 -->
<g id="edge39" class="edge">
<title>Node1&#45;&gt;Node38</title>
<path fill="none" stroke="#63b8ff" d="M584.82,-539.14C569.28,-543.15 553.02,-547.35 539.06,-550.94"/>
<polygon fill="#63b8ff" stroke="#63b8ff" points="586.1,-542.43 594.91,-536.54 584.35,-535.65 586.1,-542.43"/>
</g>
<!-- Node39 -->
<g id="node39" class="node">
<title>Node39</title>
<g id="a_node39"><a xlink:href="$classnat__num__t.html#a11c7b4b0882f65b160a8249711f51522" xlink:title=" ">
<polygon fill="white" stroke="#666666" points="559,-533 443,-533 443,-514 559,-514 559,-533"/>
<text text-anchor="middle" x="501" y="-521" font-family="Helvetica,sans-Serif" font-size="10.00">nat_num_t::operator&lt;=</text>
</a>
</g>
</g>
<!-- Node1&#45;&gt;Node39 -->
<g id="edge40" class="edge">
<title>Node1&#45;&gt;Node39</title>
<path fill="none" stroke="#63b8ff" d="M584.8,-523.5C576.41,-523.5 567.81,-523.5 559.48,-523.5"/>
<polygon fill="#63b8ff" stroke="#63b8ff" points="584.91,-527 594.91,-523.5 584.91,-520 584.91,-527"/>
</g>
<!-- Node40 -->
<g id="node40" class="node">
<title>Node40</title>
<g id="a_node40"><a xlink:href="$classnat__num__t.html#a614183168d86548bf2798bbf4b240186" xlink:title=" ">
<polygon fill="white" stroke="#666666" points="559,-496 443,-496 443,-477 559,-477 559,-496"/>
<text text-anchor="middle" x="501" y="-484" font-family="Helvetica,sans-Serif" font-size="10.00">nat_num_t::operator==</text>
</a>
</g>
</g>
<!-- Node1&#45;&gt;Node40 -->
<g id="edge41" class="edge">
<title>Node1&#45;&gt;Node40</title>
<path fill="none" stroke="#63b8ff" d="M584.82,-507.86C569.28,-503.85 553.02,-499.65 539.06,-496.06"/>
<polygon fill="#63b8ff" stroke="#63b8ff" points="584.35,-511.35 594.91,-510.46 586.1,-504.57 584.35,-511.35"/>
</g>
<!-- Node41 -->
<g id="node41" class="node">
<title>Node41</title>
<g id="a_node41"><a xlink:href="$classnat__num__t.html#ad154f114e569b1143e6e35e6dbf18668" xlink:title=" ">
<polygon fill="white" stroke="#666666" points="556,-459 446,-459 446,-440 556,-440 556,-459"/>
<text text-anchor="middle" x="501" y="-447" font-family="Helvetica,sans-Serif" font-size="10.00">nat_num_t::operator&gt;</text>
</a>
</g>
</g>
<!-- Node1&#45;&gt;Node41 -->
<g id="edge42" class="edge">
<title>Node1&#45;&gt;Node41</title>
<path fill="none" stroke="#63b8ff" d="M616.9,-502.2C600.57,-490.76 579.35,-477.08 559,-467.5 552.24,-464.32 544.77,-461.5 537.53,-459.09"/>
<polygon fill="#63b8ff" stroke="#63b8ff" points="615.26,-505.33 625.44,-508.28 619.33,-499.63 615.26,-505.33"/>
</g>
<!-- Node42 -->
<g id="node42" class="node">
<title>Node42</title>
<g id="a_node42"><a xlink:href="$classnat__num__t.html#aa7250f4e5c2c12501bb86b2845ddf633" xlink:title=" ">
<polygon fill="white" stroke="#666666" points="559,-422 443,-422 443,-403 559,-403 559,-422"/>
<text text-anchor="middle" x="501" y="-410" font-family="Helvetica,sans-Serif" font-size="10.00">nat_num_t::operator&gt;=</text>
</a>
</g>
</g>
<!-- Node1&#45;&gt;Node42 -->
<g id="edge43" class="edge">
<title>Node1&#45;&gt;Node42</title>
<path fill="none" stroke="#63b8ff" d="M629.39,-500.25C613.69,-479.22 587.99,-448.83 559,-430.5 553.65,-427.12 547.61,-424.32 541.52,-422.03"/>
<polygon fill="#63b8ff" stroke="#63b8ff" points="626.58,-502.33 635.3,-508.35 632.24,-498.21 626.58,-502.33"/>
</g>
<!-- Node3 -->
<g id="node3" class="node">
<title>Node3</title>
<g id="a_node3"><a xlink:href="$classnat__num__t.html#a5a1e29dfd320bf08016a2f0227621f0d" xlink:title=" ">
<polygon fill="white" stroke="#666666" points="407,-650 309,-650 309,-631 407,-631 407,-650"/>
<text text-anchor="middle" x="358" y="-638" font-family="Helvetica,sans-Serif" font-size="10.00">nat_num_t::reduce</text>
</a>
</g>
</g>
<!-- Node2&#45;&gt;Node3 -->
<g id="edge2" class="edge">
<title>Node2&#45;&gt;Node3</title>
<path fill="none" stroke="#63b8ff" d="M439.6,-640.5C428.72,-640.5 417.52,-640.5 407.06,-640.5"/>
<polygon fill="#63b8ff" stroke="#63b8ff" points="439.89,-644 449.89,-640.5 439.89,-637 439.89,-644"/>
</g>
<!-- Node4 -->
<g id="node4" class="node">
<title>Node4</title>
<g id="a_node4"><a xlink:href="$classnat__num__t.html#a3a404549ae4f05cafef5d6ceec3a6646" xlink:title=" ">
<polygon fill="white" stroke="#666666" points="254,-1264 168,-1264 168,-1245 254,-1245 254,-1264"/>
<text text-anchor="middle" x="211" y="-1252" font-family="Helvetica,sans-Serif" font-size="10.00">nat_num_t::div2</text>
</a>
</g>
</g>
<!-- Node3&#45;&gt;Node4 -->
<g id="edge3" class="edge">
<title>Node3&#45;&gt;Node4</title>
<path fill="none" stroke="#63b8ff" d="M356.98,-660.55C356.49,-754.16 349.84,-1147.45 273,-1236.5 268.02,-1242.27 261.3,-1246.23 254.13,-1248.95"/>
<polygon fill="#63b8ff" stroke="#63b8ff" points="360.48,-660.45 357.02,-650.44 353.48,-660.43 360.48,-660.45"/>
</g>
<!-- Node5 -->
<g id="node5" class="node">
<title>Node5</title>
<g id="a_node5"><a xlink:href="$classnat__num__t.html#aad12fc5939f569965b9694292906194c" xlink:title=" ">
<polygon fill="white" stroke="#666666" points="255,-1227 167,-1227 167,-1208 255,-1208 255,-1227"/>
<text text-anchor="middle" x="211" y="-1215" font-family="Helvetica,sans-Serif" font-size="10.00">nat_num_t::divB</text>
</a>
</g>
</g>
<!-- Node3&#45;&gt;Node5 -->
<g id="edge4" class="edge">
<title>Node3&#45;&gt;Node5</title>
<path fill="none" stroke="#63b8ff" d="M356.78,-660.42C355.37,-750.23 345.24,-1116.55 273,-1199.5 268.21,-1205 261.84,-1208.85 255.02,-1211.55"/>
<polygon fill="#63b8ff" stroke="#63b8ff" points="360.28,-660.3 356.92,-650.26 353.28,-660.21 360.28,-660.3"/>
</g>
<!-- Node6 -->
<g id="node6" class="node">
<title>Node6</title>
<g id="a_node6"><a xlink:href="$classnat__num__t.html#a86fb8e79d86da172cc7adff7632ac725" xlink:title=" ">
<polygon fill="white" stroke="#666666" points="266,-1190 156,-1190 156,-1171 266,-1171 266,-1190"/>
<text text-anchor="middle" x="211" y="-1178" font-family="Helvetica,sans-Serif" font-size="10.00">nat_num_t::EuclidDiv</text>
</a>
</g>
</g>
<!-- Node3&#45;&gt;Node6 -->
<g id="edge5" class="edge">
<title>Node3&#45;&gt;Node6</title>
<path fill="none" stroke="#63b8ff" d="M356.55,-660.18C354.2,-745.87 340.69,-1085.59 273,-1162.5 270.01,-1165.9 266.41,-1168.67 262.48,-1170.93"/>
<polygon fill="#63b8ff" stroke="#63b8ff" points="360.05,-660.11 356.81,-650.02 353.06,-659.93 360.05,-660.11"/>
</g>
<!-- Node7 -->
<g id="node7" class="node">
<title>Node7</title>
<g id="a_node7"><a xlink:href="$classnat__num__t.html#affad1b46b9de15da174a01644271785f" xlink:title=" ">
<polygon fill="white" stroke="#666666" points="261,-1153 161,-1153 161,-1134 261,-1134 261,-1153"/>
<text text-anchor="middle" x="211" y="-1141" font-family="Helvetica,sans-Serif" font-size="10.00">nat_num_t::m_div2</text>
</a>
</g>
</g>
<!-- Node3&#45;&gt;Node7 -->
<g id="edge6" class="edge">
<title>Node3&#45;&gt;Node7</title>
<path fill="none" stroke="#63b8ff" d="M356.27,-660.59C352.87,-743.08 335.98,-1054.8 273,-1125.5 269.7,-1129.21 265.67,-1132.17 261.27,-1134.53"/>
<polygon fill="#63b8ff" stroke="#63b8ff" points="359.78,-660.26 356.68,-650.14 352.79,-659.99 359.78,-660.26"/>
</g>
<!-- Node8 -->
<g id="node8" class="node">
<title>Node8</title>
<g id="a_node8"><a xlink:href="$classnat__num__t.html#af92fae6d437e61b258bb0fa3987b91b6" xlink:title=" ">
<polygon fill="white" stroke="#666666" points="261.5,-1116 160.5,-1116 160.5,-1097 261.5,-1097 261.5,-1116"/>
<text text-anchor="middle" x="211" y="-1104" font-family="Helvetica,sans-Serif" font-size="10.00">nat_num_t::m_divB</text>
</a>
</g>
</g>
<!-- Node3&#45;&gt;Node8 -->
<g id="edge7" class="edge">
<title>Node3&#45;&gt;Node8</title>
<path fill="none" stroke="#63b8ff" d="M355.96,-660.54C351.48,-738.97 331.4,-1023.85 273,-1088.5 269.74,-1092.11 265.8,-1095 261.51,-1097.33"/>
<polygon fill="#63b8ff" stroke="#63b8ff" points="359.47,-660.33 356.53,-650.16 352.48,-659.95 359.47,-660.33"/>
</g>
<!-- Node9 -->
<g id="node9" class="node">
<title>Node9</title>
<g id="a_node9"><a xlink:href="$classnat__num__t.html#a33fdda0e7d67cc2f9a9c90ea001e8c2b" xlink:title=" ">
<polygon fill="white" stroke="#666666" points="273,-1079 149,-1079 149,-1060 273,-1060 273,-1079"/>
<text text-anchor="middle" x="211" y="-1067" font-family="Helvetica,sans-Serif" font-size="10.00">nat_num_t::m_EuclidDiv</text>
</a>
</g>
</g>
<!-- Node3&#45;&gt;Node9 -->
<g id="edge8" class="edge">
<title>Node3&#45;&gt;Node9</title>
<path fill="none" stroke="#63b8ff" d="M355.61,-660.3C350.02,-734.22 326.88,-992.81 273,-1051.5 269.86,-1054.92 266.11,-1057.7 262.04,-1059.96"/>
<polygon fill="#63b8ff" stroke="#63b8ff" points="359.12,-660.31 356.36,-650.08 352.13,-659.8 359.12,-660.31"/>
</g>
<!-- Node10 -->
<g id="node10" class="node">
<title>Node10</title>
<g id="a_node10"><a xlink:href="$classnat__num__t.html#afef2a039b484e1a1147959e96e07be7a" xlink:title=" ">
<polygon fill="white" stroke="#666666" points="263,-1042 159,-1042 159,-1023 263,-1023 263,-1042"/>
<text text-anchor="middle" x="211" y="-1030" font-family="Helvetica,sans-Serif" font-size="10.00">nat_num_t::m_rem2</text>
</a>
</g>
</g>
<!-- Node3&#45;&gt;Node10 -->
<g id="edge9" class="edge">
<title>Node3&#45;&gt;Node10</title>
<path fill="none" stroke="#63b8ff" d="M355.17,-660.3C348.37,-729.87 322.33,-961.81 273,-1014.5 269.83,-1017.89 266.06,-1020.64 261.97,-1022.89"/>
<polygon fill="#63b8ff" stroke="#63b8ff" points="358.67,-660.53 356.13,-650.25 351.7,-659.87 358.67,-660.53"/>
</g>
<!-- Node11 -->
<g id="node11" class="node">
<title>Node11</title>
<g id="a_node11"><a xlink:href="$classnat__num__t.html#a7f59276202f957a0027f1784f88bc617" xlink:title=" ">
<polygon fill="white" stroke="#666666" points="263.5,-1005 158.5,-1005 158.5,-986 263.5,-986 263.5,-1005"/>
<text text-anchor="middle" x="211" y="-993" font-family="Helvetica,sans-Serif" font-size="10.00">nat_num_t::m_remB</text>
</a>
</g>
</g>
<!-- Node3&#45;&gt;Node11 -->
<g id="edge10" class="edge">
<title>Node3&#45;&gt;Node11</title>
<path fill="none" stroke="#63b8ff" d="M354.63,-660.41C346.51,-725.55 317.77,-930.78 273,-977.5 269.72,-980.93 265.81,-983.71 261.59,-985.97"/>
<polygon fill="#63b8ff" stroke="#63b8ff" points="358.14,-660.61 355.87,-650.26 351.19,-659.76 358.14,-660.61"/>
</g>
<!-- Node12 -->
<g id="node12" class="node">
<title>Node12</title>
<g id="a_node12"><a xlink:href="$classnat__num__t.html#aa042059e50f3008d12e430fdebcc323f" xlink:title=" ">
<polygon fill="white" stroke="#666666" points="259,-968 163,-968 163,-949 259,-949 259,-968"/>
<text text-anchor="middle" x="211" y="-956" font-family="Helvetica,sans-Serif" font-size="10.00">nat_num_t::mC_B</text>
</a>
</g>
</g>
<!-- Node3&#45;&gt;Node12 -->
<g id="edge11" class="edge">
<title>Node3&#45;&gt;Node12</title>
<path fill="none" stroke="#63b8ff" d="M357.58,-660.28C358.03,-713.42 351.72,-860.67 273,-940.5 269.05,-944.51 264.25,-947.64 259.1,-950.07"/>
<polygon fill="#63b8ff" stroke="#63b8ff" points="361.08,-660.1 357.4,-650.17 354.08,-660.23 361.08,-660.1"/>
</g>
<!-- Node13 -->
<g id="node13" class="node">
<title>Node13</title>
<g id="a_node13"><a xlink:href="$classnat__num__t.html#ac276fad3a3947175a55b2b9e990ae231" xlink:title=" ">
<polygon fill="white" stroke="#666666" points="266,-931 156,-931 156,-912 266,-912 266,-931"/>
<text text-anchor="middle" x="211" y="-919" font-family="Helvetica,sans-Serif" font-size="10.00">nat_num_t::mC_Bm1</text>
</a>
</g>
</g>
<!-- Node3&#45;&gt;Node13 -->
<g id="edge12" class="edge">
<title>Node3&#45;&gt;Node13</title>
<path fill="none" stroke="#63b8ff" d="M356.08,-660.22C352.85,-707.45 338.29,-828.24 273,-897.5 267.07,-903.79 259.28,-908.47 251.26,-911.92"/>
<polygon fill="#63b8ff" stroke="#63b8ff" points="359.59,-660.3 356.67,-650.11 352.6,-659.89 359.59,-660.3"/>
</g>
<!-- Node14 -->
<g id="node14" class="node">
<title>Node14</title>
<g id="a_node14"><a xlink:href="$classnat__num__t.html#a07b25245f1119449ee9171ab2ea85de6" xlink:title=" ">
<polygon fill="white" stroke="#666666" points="258.5,-855 163.5,-855 163.5,-836 258.5,-836 258.5,-855"/>
<text text-anchor="middle" x="211" y="-843" font-family="Helvetica,sans-Serif" font-size="10.00">nat_num_t::minus</text>
</a>
</g>
</g>
<!-- Node3&#45;&gt;Node14 -->
<g id="edge13" class="edge">
<title>Node3&#45;&gt;Node14</title>
<path fill="none" stroke="#63b8ff" d="M352.97,-660.16C344.49,-696.78 321.45,-775.86 273,-821.5 266.37,-827.74 257.93,-832.43 249.46,-835.92"/>
<polygon fill="#63b8ff" stroke="#63b8ff" points="356.42,-660.76 355.15,-650.24 349.58,-659.26 356.42,-660.76"/>
</g>
<!-- Node15 -->
<g id="node15" class="node">
<title>Node15</title>
<g id="a_node15"><a xlink:href="$classnat__num__t.html#aa7de2415a6824b4af279ec90aac74dd3" xlink:title=" ">
<polygon fill="white" stroke="#666666" points="110,-873 3,-873 3,-854 110,-854 110,-873"/>
<text text-anchor="middle" x="56.5" y="-861" font-family="Helvetica,sans-Serif" font-size="10.00">nat_num_t::operator&#45;</text>
</a>
</g>
</g>
<!-- Node3&#45;&gt;Node15 -->
<g id="edge30" class="edge">
<title>Node3&#45;&gt;Node15</title>
<path fill="none" stroke="#63b8ff" d="M356.53,-660.51C354.26,-706.01 341.61,-816.96 273,-864.5 216.57,-903.6 130.32,-886.14 85.98,-873.1"/>
<polygon fill="#63b8ff" stroke="#63b8ff" points="360.04,-660.56 356.92,-650.43 353.04,-660.29 360.04,-660.56"/>
</g>
<!-- Node16 -->
<g id="node16" class="node">
<title>Node16</title>
<g id="a_node16"><a xlink:href="$classnat__num__t.html#a0951fd96d0bf5389fd1a30aa2c19ef6a" xlink:title=" ">
<polygon fill="white" stroke="#666666" points="113,-836 0,-836 0,-817 113,-817 113,-836"/>
<text text-anchor="middle" x="56.5" y="-824" font-family="Helvetica,sans-Serif" font-size="10.00">nat_num_t::operator&#45;=</text>
</a>
</g>
</g>
<!-- Node3&#45;&gt;Node16 -->
<g id="edge31" class="edge">
<title>Node3&#45;&gt;Node16</title>
<path fill="none" stroke="#63b8ff" d="M351.62,-660.35C341.77,-692.6 317.66,-755.93 273,-787.5 247.85,-805.28 168.23,-816.17 113.16,-821.78"/>
<polygon fill="#63b8ff" stroke="#63b8ff" points="355.09,-660.92 354.51,-650.34 348.37,-658.98 355.09,-660.92"/>
</g>
<!-- Node17 -->
<g id="node17" class="node">
<title>Node17</title>
<g id="a_node17"><a xlink:href="$classnat__num__t.html#a37024fe6aa82e7f7632fa2f119d91982" xlink:title=" ">
<polygon fill="white" stroke="#666666" points="268,-779 154,-779 154,-760 268,-760 268,-779"/>
<text text-anchor="middle" x="211" y="-767" font-family="Helvetica,sans-Serif" font-size="10.00">nat_num_t::nat_num_t</text>
</a>
</g>
</g>
<!-- Node3&#45;&gt;Node17 -->
<g id="edge16" class="edge">
<title>Node3&#45;&gt;Node17</title>
<path fill="none" stroke="#63b8ff" d="M347.62,-659C334.3,-683.47 307.61,-726.29 273,-750.5 267.46,-754.38 261.09,-757.49 254.61,-759.97"/>
<polygon fill="#63b8ff" stroke="#63b8ff" points="350.78,-660.51 352.35,-650.03 344.59,-657.25 350.78,-660.51"/>
</g>
<!-- Node18 -->
<g id="node18" class="node">
<title>Node18</title>
<g id="a_node18"><a xlink:href="$classnat__num__t.html#a344d5169b4e8601fd3b3c7b32ea7a2ef" xlink:title=" ">
<polygon fill="white" stroke="#666666" points="263,-741.5 159,-741.5 159,-711.5 263,-711.5 263,-741.5"/>
<text text-anchor="start" x="167" y="-729.5" font-family="Helvetica,sans-Serif" font-size="10.00">nat_num_t::operator</text>
<text text-anchor="middle" x="211" y="-718.5" font-family="Helvetica,sans-Serif" font-size="10.00"> uchint</text>
</a>
</g>
</g>
<!-- Node3&#45;&gt;Node18 -->
<g id="edge17" class="edge">
<title>Node3&#45;&gt;Node18</title>
<path fill="none" stroke="#63b8ff" d="M337.83,-656.48C321.35,-669.69 296.59,-688.35 273,-701.5 266.6,-705.07 259.59,-708.41 252.67,-711.42"/>
<polygon fill="#63b8ff" stroke="#63b8ff" points="340.09,-659.15 345.63,-650.12 335.67,-653.72 340.09,-659.15"/>
</g>
<!-- Node19 -->
<g id="node19" class="node">
<title>Node19</title>
<g id="a_node19"><a xlink:href="$classnat__num__t.html#a491e17555be2492eedcb5788b8a9a271" xlink:title=" ">
<polygon fill="white" stroke="#666666" points="272,-693 150,-693 150,-674 272,-674 272,-693"/>
<text text-anchor="middle" x="211" y="-681" font-family="Helvetica,sans-Serif" font-size="10.00">nat_num_t::operator uint</text>
</a>
</g>
</g>
<!-- Node3&#45;&gt;Node19 -->
<g id="edge18" class="edge">
<title>Node3&#45;&gt;Node19</title>
<path fill="none" stroke="#63b8ff" d="M315.13,-652.92C292.51,-659.63 265,-667.78 244.09,-673.98"/>
<polygon fill="#63b8ff" stroke="#63b8ff" points="316.23,-656.24 324.82,-650.04 314.24,-649.53 316.23,-656.24"/>
</g>
<!-- Node20 -->
<g id="node20" class="node">
<title>Node20</title>
<g id="a_node20"><a xlink:href="$classnat__num__t.html#abe95f2899f69106cd62ca8d576d546e3" xlink:title=" ">
<polygon fill="white" stroke="#666666" points="263,-655.5 159,-655.5 159,-625.5 263,-625.5 263,-655.5"/>
<text text-anchor="start" x="167" y="-643.5" font-family="Helvetica,sans-Serif" font-size="10.00">nat_num_t::operator</text>
<text text-anchor="middle" x="211" y="-632.5" font-family="Helvetica,sans-Serif" font-size="10.00"> ulint</text>
</a>
</g>
</g>
<!-- Node3&#45;&gt;Node20 -->
<g id="edge19" class="edge">
<title>Node3&#45;&gt;Node20</title>
<path fill="none" stroke="#63b8ff" d="M298.55,-640.5C286.8,-640.5 274.53,-640.5 263.05,-640.5"/>
<polygon fill="#63b8ff" stroke="#63b8ff" points="298.72,-644 308.72,-640.5 298.72,-637 298.72,-644"/>
</g>
<!-- Node21 -->
<g id="node21" class="node">
<title>Node21</title>
<g id="a_node21"><a xlink:href="$classnat__num__t.html#a541e1b883b4bdab9c1fceac15fa2ce4c" xlink:title=" ">
<polygon fill="white" stroke="#666666" points="263,-607.5 159,-607.5 159,-577.5 263,-577.5 263,-607.5"/>
<text text-anchor="start" x="167" y="-595.5" font-family="Helvetica,sans-Serif" font-size="10.00">nat_num_t::operator</text>
<text text-anchor="middle" x="211" y="-584.5" font-family="Helvetica,sans-Serif" font-size="10.00"> ullint</text>
</a>
</g>
</g>
<!-- Node3&#45;&gt;Node21 -->
<g id="edge20" class="edge">
<title>Node3&#45;&gt;Node21</title>
<path fill="none" stroke="#63b8ff" d="M318.33,-627.7C299.62,-621.51 277.04,-614.03 257.5,-607.56"/>
<polygon fill="#63b8ff" stroke="#63b8ff" points="317.41,-631.08 328.01,-630.9 319.61,-624.44 317.41,-631.08"/>
</g>
<!-- Node22 -->
<g id="node22" class="node">
<title>Node22</title>
<g id="a_node22"><a xlink:href="$classnat__num__t.html#a9c55fd75b20e9196e5f798c6d311f745" xlink:title=" ">
<polygon fill="white" stroke="#666666" points="263,-559.5 159,-559.5 159,-529.5 263,-529.5 263,-559.5"/>
<text text-anchor="start" x="167" y="-547.5" font-family="Helvetica,sans-Serif" font-size="10.00">nat_num_t::operator</text>
<text text-anchor="middle" x="211" y="-536.5" font-family="Helvetica,sans-Serif" font-size="10.00"> usint</text>
</a>
</g>
</g>
<!-- Node3&#45;&gt;Node22 -->
<g id="edge21" class="edge">
<title>Node3&#45;&gt;Node22</title>
<path fill="none" stroke="#63b8ff" d="M340.53,-623.41C324.48,-607.51 298.79,-584.02 273,-568.5 267.54,-565.21 261.55,-562.22 255.52,-559.54"/>
<polygon fill="#63b8ff" stroke="#63b8ff" points="338.47,-626.3 347.99,-630.94 343.44,-621.37 338.47,-626.3"/>
</g>
<!-- Node23 -->
<g id="node23" class="node">
<title>Node23</title>
<g id="a_node23"><a xlink:href="$classnat__num__t.html#a017ccdb8add749e869c3e35cd4d32f9d" xlink:title=" ">
<polygon fill="white" stroke="#666666" points="263,-511.5 159,-511.5 159,-481.5 263,-481.5 263,-511.5"/>
<text text-anchor="start" x="167" y="-499.5" font-family="Helvetica,sans-Serif" font-size="10.00">nat_num_t::operator</text>
<text text-anchor="middle" x="211" y="-488.5" font-family="Helvetica,sans-Serif" font-size="10.00"> vector&lt; dig &gt;</text>
</a>
</g>
</g>
<!-- Node3&#45;&gt;Node23 -->
<g id="edge22" class="edge">
<title>Node3&#45;&gt;Node23</title>
<path fill="none" stroke="#63b8ff" d="M348.33,-621.82C335.37,-595.76 308.62,-548.57 273,-520.5 268.71,-517.12 263.88,-514.16 258.87,-511.59"/>
<polygon fill="#63b8ff" stroke="#63b8ff" points="345.25,-623.49 352.75,-630.98 351.56,-620.45 345.25,-623.49"/>
</g>
<!-- Node24 -->
<g id="node24" class="node">
<title>Node24</title>
<g id="a_node24"><a xlink:href="$classnat__num__t.html#a2a5a33dec1079928b211d2dc47e6d85f" xlink:title=" ">
<polygon fill="white" stroke="#666666" points="264.5,-463 157.5,-463 157.5,-444 264.5,-444 264.5,-463"/>
<text text-anchor="middle" x="211" y="-451" font-family="Helvetica,sans-Serif" font-size="10.00">nat_num_t::operator!</text>
</a>
</g>
</g>
<!-- Node3&#45;&gt;Node24 -->
<g id="edge23" class="edge">
<title>Node3&#45;&gt;Node24</title>
<path fill="none" stroke="#63b8ff" d="M352.6,-620.98C343.71,-586.04 320.3,-512.71 273,-472.5 268.44,-468.62 263.08,-465.53 257.48,-463.07"/>
<polygon fill="#63b8ff" stroke="#63b8ff" points="349.24,-621.98 354.99,-630.88 356.04,-620.34 349.24,-621.98"/>
</g>
<!-- Node25 -->
<g id="node25" class="node">
<title>Node25</title>
<g id="a_node25"><a xlink:href="$classnat__num__t.html#a9d9cdb7e6209d001ab8e4ffa3450cb33" xlink:title=" ">
<polygon fill="white" stroke="#666666" points="267.5,-426 154.5,-426 154.5,-407 267.5,-407 267.5,-426"/>
<text text-anchor="middle" x="211" y="-414" font-family="Helvetica,sans-Serif" font-size="10.00">nat_num_t::operator%</text>
</a>
</g>
</g>
<!-- Node3&#45;&gt;Node25 -->
<g id="edge24" class="edge">
<title>Node3&#45;&gt;Node25</title>
<path fill="none" stroke="#63b8ff" d="M354.62,-620.55C348.66,-579.56 329.29,-485.42 273,-434.5 269.23,-431.09 264.85,-428.33 260.19,-426.09"/>
<polygon fill="#63b8ff" stroke="#63b8ff" points="351.17,-621.18 355.97,-630.63 358.11,-620.25 351.17,-621.18"/>
</g>
<!-- Node26 -->
<g id="node26" class="node">
<title>Node26</title>
<g id="a_node26"><a xlink:href="$classnat__num__t.html#aebfeb312e837e0bc29834fe3d9b7343b" xlink:title=" ">
<polygon fill="white" stroke="#666666" points="270.5,-389 151.5,-389 151.5,-370 270.5,-370 270.5,-389"/>
<text text-anchor="middle" x="211" y="-377" font-family="Helvetica,sans-Serif" font-size="10.00">nat_num_t::operator%=</text>
</a>
</g>
</g>
<!-- Node3&#45;&gt;Node26 -->
<g id="edge25" class="edge">
<title>Node3&#45;&gt;Node26</title>
<path fill="none" stroke="#63b8ff" d="M356.06,-620.86C352.79,-574.95 338.17,-459.74 273,-397.5 269.41,-394.07 265.19,-391.29 260.69,-389.03"/>
<polygon fill="#63b8ff" stroke="#63b8ff" points="352.58,-621.2 356.67,-630.97 359.56,-620.78 352.58,-621.2"/>
</g>
<!-- Node27 -->
<g id="node27" class="node">
<title>Node27</title>
<g id="a_node27"><a xlink:href="$classnat__num__t.html#a0f5643bd0b8c549e71abd522d58c7e7e" xlink:title=" ">
<polygon fill="white" stroke="#666666" points="264.5,-352 157.5,-352 157.5,-333 264.5,-333 264.5,-352"/>
<text text-anchor="middle" x="211" y="-340" font-family="Helvetica,sans-Serif" font-size="10.00">nat_num_t::operator*</text>
</a>
</g>
</g>
<!-- Node3&#45;&gt;Node27 -->
<g id="edge26" class="edge">
<title>Node3&#45;&gt;Node27</title>
<path fill="none" stroke="#63b8ff" d="M357.11,-620.7C356.29,-569.95 346.91,-434.08 273,-360.5 269.56,-357.07 265.5,-354.29 261.13,-352.04"/>
<polygon fill="#63b8ff" stroke="#63b8ff" points="353.61,-620.96 357.18,-630.94 360.61,-620.91 353.61,-620.96"/>
</g>
<!-- Node28 -->
<g id="node28" class="node">
<title>Node28</title>
<g id="a_node28"><a xlink:href="$classnat__num__t.html#ae0bbc32c65935b4cf54a154ec950fc18" xlink:title=" ">
<polygon fill="white" stroke="#666666" points="267.5,-315 154.5,-315 154.5,-296 267.5,-296 267.5,-315"/>
<text text-anchor="middle" x="211" y="-303" font-family="Helvetica,sans-Serif" font-size="10.00">nat_num_t::operator*=</text>
</a>
</g>
</g>
<!-- Node3&#45;&gt;Node28 -->
<g id="edge27" class="edge">
<title>Node3&#45;&gt;Node28</title>
<path fill="none" stroke="#63b8ff" d="M354.29,-620.55C345.42,-557.96 315.32,-367.02 273,-323.5 269.69,-320.1 265.77,-317.33 261.54,-315.08"/>
<polygon fill="#63b8ff" stroke="#63b8ff" points="350.86,-621.26 355.7,-630.68 357.79,-620.3 350.86,-621.26"/>
</g>
<!-- Node29 -->
<g id="node29" class="node">
<title>Node29</title>
<g id="a_node29"><a xlink:href="$classnat__num__t.html#ab1087d198842dd2e00e8f2961421fd50" xlink:title=" ">
<polygon fill="white" stroke="#666666" points="266,-278 156,-278 156,-259 266,-259 266,-278"/>
<text text-anchor="middle" x="211" y="-266" font-family="Helvetica,sans-Serif" font-size="10.00">nat_num_t::operator+</text>
</a>
</g>
</g>
<!-- Node3&#45;&gt;Node29 -->
<g id="edge28" class="edge">
<title>Node3&#45;&gt;Node29</title>
<path fill="none" stroke="#63b8ff" d="M354.93,-620.9C347.46,-554 319.92,-336.02 273,-286.5 269.81,-283.13 266.03,-280.39 261.93,-278.15"/>
<polygon fill="#63b8ff" stroke="#63b8ff" points="351.46,-621.37 356.02,-630.94 358.41,-620.62 351.46,-621.37"/>
</g>
<!-- Node30 -->
<g id="node30" class="node">
<title>Node30</title>
<g id="a_node30"><a xlink:href="$classnat__num__t.html#a61807871c9e8e701d61e7573acd35055" xlink:title=" ">
<polygon fill="white" stroke="#666666" points="269,-241 153,-241 153,-222 269,-222 269,-241"/>
<text text-anchor="middle" x="211" y="-229" font-family="Helvetica,sans-Serif" font-size="10.00">nat_num_t::operator+=</text>
</a>
</g>
</g>
<!-- Node3&#45;&gt;Node30 -->
<g id="edge29" class="edge">
<title>Node3&#45;&gt;Node30</title>
<path fill="none" stroke="#63b8ff" d="M355.35,-620.28C349.05,-548.16 324.32,-304.84 273,-249.5 269.85,-246.1 266.09,-243.33 262,-241.08"/>
<polygon fill="#63b8ff" stroke="#63b8ff" points="351.9,-621.01 356.23,-630.68 358.87,-620.42 351.9,-621.01"/>
</g>
<!-- Node31 -->
<g id="node31" class="node">
<title>Node31</title>
<g id="a_node31"><a xlink:href="$classnat__num__t.html#aa1a1fa2bc567648fb5fd76d2a73e911e" xlink:title=" ">
<polygon fill="white" stroke="#666666" points="264.5,-204 157.5,-204 157.5,-185 264.5,-185 264.5,-204"/>
<text text-anchor="middle" x="211" y="-192" font-family="Helvetica,sans-Serif" font-size="10.00">nat_num_t::operator/</text>
</a>
</g>
</g>
<!-- Node3&#45;&gt;Node31 -->
<g id="edge32" class="edge">
<title>Node3&#45;&gt;Node31</title>
<path fill="none" stroke="#63b8ff" d="M355.79,-620.85C350.76,-545.22 329.02,-274 273,-212.5 269.88,-209.07 266.14,-206.28 262.07,-204.02"/>
<polygon fill="#63b8ff" stroke="#63b8ff" points="352.3,-621.15 356.44,-630.9 359.29,-620.7 352.3,-621.15"/>
</g>
<!-- Node32 -->
<g id="node32" class="node">
<title>Node32</title>
<g id="a_node32"><a xlink:href="$classnat__num__t.html#aeecab0dc9b304ff23fb08008db79fcc1" xlink:title=" ">
<polygon fill="white" stroke="#666666" points="267.5,-167 154.5,-167 154.5,-148 267.5,-148 267.5,-167"/>
<text text-anchor="middle" x="211" y="-155" font-family="Helvetica,sans-Serif" font-size="10.00">nat_num_t::operator/=</text>
</a>
</g>
</g>
<!-- Node3&#45;&gt;Node32 -->
<g id="edge33" class="edge">
<title>Node3&#45;&gt;Node32</title>
<path fill="none" stroke="#63b8ff" d="M356.12,-620.72C352.18,-540.83 333.57,-243.01 273,-175.5 269.98,-172.13 266.36,-169.38 262.41,-167.13"/>
<polygon fill="#63b8ff" stroke="#63b8ff" points="352.63,-621.05 356.6,-630.87 359.62,-620.72 352.63,-621.05"/>
</g>
<!-- Node33 -->
<g id="node33" class="node">
<title>Node33</title>
<g id="a_node33"><a xlink:href="$classnat__num__t.html#a2f2bc5932044b67b90f5fba65c0fbb36" xlink:title=" ">
<polygon fill="white" stroke="#666666" points="266,-130 156,-130 156,-111 266,-111 266,-130"/>
<text text-anchor="middle" x="211" y="-118" font-family="Helvetica,sans-Serif" font-size="10.00">nat_num_t::operator=</text>
</a>
</g>
</g>
<!-- Node3&#45;&gt;Node33 -->
<g id="edge34" class="edge">
<title>Node3&#45;&gt;Node33</title>
<path fill="none" stroke="#63b8ff" d="M356.41,-620.78C353.52,-537.07 338.19,-212.1 273,-138.5 270,-135.11 266.39,-132.35 262.46,-130.09"/>
<polygon fill="#63b8ff" stroke="#63b8ff" points="352.92,-621.06 356.74,-630.94 359.91,-620.83 352.92,-621.06"/>
</g>
<!-- Node34 -->
<g id="node34" class="node">
<title>Node34</title>
<g id="a_node34"><a xlink:href="$classnat__num__t.html#ae56a8fb7a652c7bb033757d7e5f1c8e9" xlink:title=" ">
<polygon fill="white" stroke="#666666" points="256,-93 166,-93 166,-74 256,-74 256,-93"/>
<text text-anchor="middle" x="211" y="-81" font-family="Helvetica,sans-Serif" font-size="10.00">nat_num_t::rem2</text>
</a>
</g>
</g>
<!-- Node3&#45;&gt;Node34 -->
<g id="edge35" class="edge">
<title>Node3&#45;&gt;Node34</title>
<path fill="none" stroke="#63b8ff" d="M356.65,-620.45C354.73,-532.44 342.71,-181.11 273,-101.5 268.49,-96.35 262.59,-92.64 256.23,-89.97"/>
<polygon fill="#63b8ff" stroke="#63b8ff" points="353.16,-620.74 356.86,-630.67 360.16,-620.6 353.16,-620.74"/>
</g>
<!-- Node35 -->
<g id="node35" class="node">
<title>Node35</title>
<g id="a_node35"><a xlink:href="$classnat__num__t.html#aed8fccba120976b462162f62991f68e4" xlink:title=" ">
<polygon fill="white" stroke="#666666" points="257,-56 165,-56 165,-37 257,-37 257,-56"/>
<text text-anchor="middle" x="211" y="-44" font-family="Helvetica,sans-Serif" font-size="10.00">nat_num_t::remB</text>
</a>
</g>
</g>
<!-- Node3&#45;&gt;Node35 -->
<g id="edge36" class="edge">
<title>Node3&#45;&gt;Node35</title>
<path fill="none" stroke="#63b8ff" d="M356.88,-620.84C355.92,-529.85 347.44,-150.35 273,-64.5 268.73,-59.58 263.19,-55.97 257.19,-53.33"/>
<polygon fill="#63b8ff" stroke="#63b8ff" points="353.38,-620.92 356.96,-630.89 360.38,-620.86 353.38,-620.92"/>
</g>
<!-- Node36 -->
<g id="node36" class="node">
<title>Node36</title>
<g id="a_node36"><a xlink:href="$classnat__num__t.html#ab352e91cb85a60cc2ec06082f59dca99" xlink:title=" ">
<polygon fill="white" stroke="#666666" points="263.5,-19 158.5,-19 158.5,0 263.5,0 263.5,-19"/>
<text text-anchor="middle" x="211" y="-7" font-family="Helvetica,sans-Serif" font-size="10.00">nat_num_t::remBm1</text>
</a>
</g>
</g>
<!-- Node3&#45;&gt;Node36 -->
<g id="edge37" class="edge">
<title>Node3&#45;&gt;Node36</title>
<path fill="none" stroke="#63b8ff" d="M357.07,-620.5C356.99,-525.35 351.98,-119.38 273,-27.5 270.12,-24.15 266.65,-21.41 262.85,-19.17"/>
<polygon fill="#63b8ff" stroke="#63b8ff" points="353.57,-620.73 357.06,-630.73 360.57,-620.74 353.57,-620.73"/>
</g>
<!-- Node14&#45;&gt;Node15 -->
<g id="edge14" class="edge">
<title>Node14&#45;&gt;Node15</title>
<path fill="none" stroke="#63b8ff" d="M153.33,-852.19C139.21,-853.86 124.12,-855.64 110.2,-857.28"/>
<polygon fill="#63b8ff" stroke="#63b8ff" points="153.9,-855.65 163.42,-851 153.07,-848.69 153.9,-855.65"/>
</g>
<!-- Node14&#45;&gt;Node16 -->
<g id="edge15" class="edge">
<title>Node14&#45;&gt;Node16</title>
<path fill="none" stroke="#63b8ff" d="M153.14,-838.42C140.08,-836.79 126.2,-835.06 113.19,-833.44"/>
<polygon fill="#63b8ff" stroke="#63b8ff" points="153.06,-841.93 163.42,-839.7 153.93,-834.99 153.06,-841.93"/>
</g>
</g>
</svg>
