<?xml version="1.0" encoding="UTF-8" standalone="no"?>
<!DOCTYPE svg PUBLIC "-//W3C//DTD SVG 1.1//EN"
 "http://www.w3.org/Graphics/SVG/1.1/DTD/svg11.dtd">
<!-- Generated by graphviz version 2.44.1 (20220725.2034)
 -->
<!-- Title: nat_num_t::abs Pages: 1 -->
<svg width="252pt" height="138pt"
 viewBox="0.00 0.00 252.00 138.00" xmlns="http://www.w3.org/2000/svg" xmlns:xlink="http://www.w3.org/1999/xlink">
<g id="graph0" class="graph" transform="scale(1 1) rotate(0) translate(4 134)">
<title>nat_num_t::abs</title>
<!-- Node1 -->
<g id="node1" class="node">
<title>Node1</title>
<g id="a_node1"><a xlink:title=" ">
<polygon fill="#999999" stroke="#666666" points="244,-74 160,-74 160,-55 244,-55 244,-74"/>
<text text-anchor="middle" x="202" y="-62" font-family="Helvetica,sans-Serif" font-size="10.00">nat_num_t::abs</text>
</a>
</g>
</g>
<!-- Node2 -->
<g id="node2" class="node">
<title>Node2</title>
<g id="a_node2"><a xlink:href="$classnat__num__t.html#a3a404549ae4f05cafef5d6ceec3a6646" xlink:title=" ">
<polygon fill="white" stroke="#666666" points="105,-130 19,-130 19,-111 105,-111 105,-130"/>
<text text-anchor="middle" x="62" y="-118" font-family="Helvetica,sans-Serif" font-size="10.00">nat_num_t::div2</text>
</a>
</g>
</g>
<!-- Node1&#45;&gt;Node2 -->
<g id="edge1" class="edge">
<title>Node1&#45;&gt;Node2</title>
<path fill="none" stroke="#63b8ff" d="M174.67,-78.9C160.03,-86.54 141.31,-95.73 124,-102.5 116.08,-105.6 107.41,-108.46 99.15,-110.95"/>
<polygon fill="#63b8ff" stroke="#63b8ff" points="176.45,-81.91 183.65,-74.13 173.18,-75.73 176.45,-81.91"/>
</g>
<!-- Node3 -->
<g id="node3" class="node">
<title>Node3</title>
<g id="a_node3"><a xlink:href="$classnat__num__t.html#a86fb8e79d86da172cc7adff7632ac725" xlink:title=" ">
<polygon fill="white" stroke="#666666" points="117,-93 7,-93 7,-74 117,-74 117,-93"/>
<text text-anchor="middle" x="62" y="-81" font-family="Helvetica,sans-Serif" font-size="10.00">nat_num_t::EuclidDiv</text>
</a>
</g>
</g>
<!-- Node1&#45;&gt;Node3 -->
<g id="edge2" class="edge">
<title>Node1&#45;&gt;Node3</title>
<path fill="none" stroke="#63b8ff" d="M149.95,-71.53C139.27,-73 127.96,-74.56 117.17,-76.04"/>
<polygon fill="#63b8ff" stroke="#63b8ff" points="150.54,-74.98 159.97,-70.15 149.59,-68.05 150.54,-74.98"/>
</g>
<!-- Node4 -->
<g id="node4" class="node">
<title>Node4</title>
<g id="a_node4"><a xlink:href="$classnat__num__t.html#a33fdda0e7d67cc2f9a9c90ea001e8c2b" xlink:title=" ">
<polygon fill="white" stroke="#666666" points="124,-56 0,-56 0,-37 124,-37 124,-56"/>
<text text-anchor="middle" x="62" y="-44" font-family="Helvetica,sans-Serif" font-size="10.00">nat_num_t::m_EuclidDiv</text>
</a>
</g>
</g>
<!-- Node1&#45;&gt;Node4 -->
<g id="edge3" class="edge">
<title>Node1&#45;&gt;Node4</title>
<path fill="none" stroke="#63b8ff" d="M149.92,-57.84C141.5,-56.74 132.69,-55.59 124.05,-54.46"/>
<polygon fill="#63b8ff" stroke="#63b8ff" points="149.6,-61.33 159.97,-59.15 150.51,-54.38 149.6,-61.33"/>
</g>
<!-- Node5 -->
<g id="node5" class="node">
<title>Node5</title>
<g id="a_node5"><a xlink:href="$classnat__num__t.html#ab352e91cb85a60cc2ec06082f59dca99" xlink:title=" ">
<polygon fill="white" stroke="#666666" points="114.5,-19 9.5,-19 9.5,0 114.5,0 114.5,-19"/>
<text text-anchor="middle" x="62" y="-7" font-family="Helvetica,sans-Serif" font-size="10.00">nat_num_t::remBm1</text>
</a>
</g>
</g>
<!-- Node1&#45;&gt;Node5 -->
<g id="edge4" class="edge">
<title>Node1&#45;&gt;Node5</title>
<path fill="none" stroke="#63b8ff" d="M172.97,-50.28C158.54,-43.24 140.55,-34.91 124,-28.5 115.21,-25.09 105.53,-21.85 96.52,-19.05"/>
<polygon fill="#63b8ff" stroke="#63b8ff" points="171.81,-53.61 182.32,-54.9 174.91,-47.33 171.81,-53.61"/>
</g>
</g>
</svg>
