<?xml version="1.0" encoding="UTF-8" standalone="no"?>
<!DOCTYPE svg PUBLIC "-//W3C//DTD SVG 1.1//EN"
 "http://www.w3.org/Graphics/SVG/1.1/DTD/svg11.dtd">
<!-- Generated by graphviz version 2.44.1 (20220725.2034)
 -->
<!-- Title: nat_num_t::operator&#45; Pages: 1 -->
<svg width="676pt" height="114pt"
 viewBox="0.00 0.00 676.00 113.50" xmlns="http://www.w3.org/2000/svg" xmlns:xlink="http://www.w3.org/1999/xlink">
<g id="graph0" class="graph" transform="scale(1 1) rotate(0) translate(4 109.5)">
<title>nat_num_t::operator&#45;</title>
<!-- Node1 -->
<g id="node1" class="node">
<title>Node1</title>
<g id="a_node1"><a xlink:title=" ">
<polygon fill="#999999" stroke="#666666" points="107,-75 0,-75 0,-56 107,-56 107,-75"/>
<text text-anchor="middle" x="53.5" y="-63" font-family="Helvetica,sans-Serif" font-size="10.00">nat_num_t::operator&#45;</text>
</a>
</g>
</g>
<!-- Node2 -->
<g id="node2" class="node">
<title>Node2</title>
<g id="a_node2"><a xlink:href="$classnat__num__t.html#aa0ced0babafe7e7e98b393c63d0c06d9" xlink:title=" ">
<polygon fill="white" stroke="#666666" points="257,-94 143,-94 143,-75 257,-75 257,-94"/>
<text text-anchor="middle" x="200" y="-82" font-family="Helvetica,sans-Serif" font-size="10.00">nat_num_t::push_front</text>
</a>
</g>
</g>
<!-- Node1&#45;&gt;Node2 -->
<g id="edge1" class="edge">
<title>Node1&#45;&gt;Node2</title>
<path fill="none" stroke="#63b8ff" d="M107.08,-72.41C115.43,-73.51 124.16,-74.66 132.78,-75.79"/>
<polygon fill="#63b8ff" stroke="#63b8ff" points="132.44,-79.28 142.81,-77.11 133.35,-72.34 132.44,-79.28"/>
</g>
<!-- Node3 -->
<g id="node3" class="node">
<title>Node3</title>
<g id="a_node3"><a xlink:href="$classnat__num__t.html#a5a1e29dfd320bf08016a2f0227621f0d" xlink:title=" ">
<polygon fill="white" stroke="#666666" points="249,-57 151,-57 151,-38 249,-38 249,-57"/>
<text text-anchor="middle" x="200" y="-45" font-family="Helvetica,sans-Serif" font-size="10.00">nat_num_t::reduce</text>
</a>
</g>
</g>
<!-- Node1&#45;&gt;Node3 -->
<g id="edge2" class="edge">
<title>Node1&#45;&gt;Node3</title>
<path fill="none" stroke="#63b8ff" d="M107.08,-58.95C117.95,-57.6 129.47,-56.16 140.54,-54.78"/>
<polygon fill="#63b8ff" stroke="#63b8ff" points="141.05,-58.25 150.54,-53.54 140.19,-51.3 141.05,-58.25"/>
</g>
<!-- Node4 -->
<g id="node4" class="node">
<title>Node4</title>
<g id="a_node4"><a xlink:href="$classnat__num__t.html#a14b63725918fba3ba1f731c3cda4b6ca" xlink:title=" ">
<polygon fill="white" stroke="#666666" points="401,-105.5 299,-105.5 299,-75.5 401,-75.5 401,-105.5"/>
<text text-anchor="start" x="307" y="-93.5" font-family="Helvetica,sans-Serif" font-size="10.00">nat_num_t::digs_no</text>
<text text-anchor="middle" x="350" y="-82.5" font-family="Helvetica,sans-Serif" font-size="10.00">_significativos</text>
</a>
</g>
</g>
<!-- Node3&#45;&gt;Node4 -->
<g id="edge3" class="edge">
<title>Node3&#45;&gt;Node4</title>
<path fill="none" stroke="#63b8ff" d="M233.85,-57.04C250.09,-61.76 270.21,-67.61 289.07,-73.09"/>
<polygon fill="#63b8ff" stroke="#63b8ff" points="288.21,-76.48 298.79,-75.91 290.16,-69.76 288.21,-76.48"/>
</g>
<!-- Node6 -->
<g id="node6" class="node">
<title>Node6</title>
<g id="a_node6"><a xlink:href="$classnat__num__t.html#a3f420ff49cf6b55ef38936b2035a4071" xlink:title=" ">
<polygon fill="white" stroke="#666666" points="668,-78 582,-78 582,-59 668,-59 668,-78"/>
<text text-anchor="middle" x="625" y="-66" font-family="Helvetica,sans-Serif" font-size="10.00">nat_num_t::size</text>
</a>
</g>
</g>
<!-- Node3&#45;&gt;Node6 -->
<g id="edge7" class="edge">
<title>Node3&#45;&gt;Node6</title>
<path fill="none" stroke="#63b8ff" d="M249.11,-49.89C329.16,-53.86 489.06,-61.8 571.77,-65.91"/>
<polygon fill="#63b8ff" stroke="#63b8ff" points="571.78,-69.41 581.94,-66.41 572.13,-62.42 571.78,-69.41"/>
</g>
<!-- Node7 -->
<g id="node7" class="node">
<title>Node7</title>
<g id="a_node7"><a xlink:href="$classnat__num__t.html#a8f8bdd2355aab6b9b24f4c87cd68f5b7" xlink:title=" ">
<polygon fill="white" stroke="#666666" points="407,-19 293,-19 293,0 407,0 407,-19"/>
<text text-anchor="middle" x="350" y="-7" font-family="Helvetica,sans-Serif" font-size="10.00">nat_num_t::nat_num_t</text>
</a>
</g>
</g>
<!-- Node3&#45;&gt;Node7 -->
<g id="edge6" class="edge">
<title>Node3&#45;&gt;Node7</title>
<path fill="none" stroke="#63b8ff" d="M238.35,-37.91C257.7,-32.94 281.53,-26.82 302.11,-21.54"/>
<polygon fill="#63b8ff" stroke="#63b8ff" points="303.11,-24.9 311.92,-19.02 301.37,-18.12 303.11,-24.9"/>
</g>
<!-- Node5 -->
<g id="node5" class="node">
<title>Node5</title>
<g id="a_node5"><a xlink:href="$classnat__num__t.html#a2a7eae79a48f9b29a40c9103cfac72d7" xlink:title=" ">
<polygon fill="white" stroke="#666666" points="546,-105.5 443,-105.5 443,-75.5 546,-75.5 546,-105.5"/>
<text text-anchor="start" x="451" y="-93.5" font-family="Helvetica,sans-Serif" font-size="10.00">nat_num_t::ceros_a</text>
<text text-anchor="middle" x="494.5" y="-82.5" font-family="Helvetica,sans-Serif" font-size="10.00">_la_izqda</text>
</a>
</g>
</g>
<!-- Node4&#45;&gt;Node5 -->
<g id="edge4" class="edge">
<title>Node4&#45;&gt;Node5</title>
<path fill="none" stroke="#63b8ff" d="M401.24,-90.5C411.34,-90.5 422.05,-90.5 432.47,-90.5"/>
<polygon fill="#63b8ff" stroke="#63b8ff" points="432.75,-94 442.75,-90.5 432.75,-87 432.75,-94"/>
</g>
<!-- Node5&#45;&gt;Node6 -->
<g id="edge5" class="edge">
<title>Node5&#45;&gt;Node6</title>
<path fill="none" stroke="#63b8ff" d="M546.29,-81.81C554.67,-80.37 563.36,-78.88 571.78,-77.44"/>
<polygon fill="#63b8ff" stroke="#63b8ff" points="572.59,-80.85 581.86,-75.72 571.41,-73.95 572.59,-80.85"/>
</g>
</g>
</svg>
