<?xml version="1.0" encoding="UTF-8" standalone="no"?>
<!DOCTYPE svg PUBLIC "-//W3C//DTD SVG 1.1//EN"
 "http://www.w3.org/Graphics/SVG/1.1/DTD/svg11.dtd">
<!-- Generated by graphviz version 2.44.1 (20220725.2034)
 -->
<!-- Title: nat_num_t::minus Pages: 1 -->
<svg width="664pt" height="127pt"
 viewBox="0.00 0.00 664.00 127.29" xmlns="http://www.w3.org/2000/svg" xmlns:xlink="http://www.w3.org/1999/xlink">
<g id="graph0" class="graph" transform="scale(1 1) rotate(0) translate(4 123.29)">
<title>nat_num_t::minus</title>
<!-- Node1 -->
<g id="node1" class="node">
<title>Node1</title>
<g id="a_node1"><a xlink:title=" ">
<polygon fill="#999999" stroke="#666666" points="95,-51.79 0,-51.79 0,-32.79 95,-32.79 95,-51.79"/>
<text text-anchor="middle" x="47.5" y="-39.79" font-family="Helvetica,sans-Serif" font-size="10.00">nat_num_t::minus</text>
</a>
</g>
</g>
<!-- Node2 -->
<g id="node2" class="node">
<title>Node2</title>
<g id="a_node2"><a xlink:href="$classnat__num__t.html#aa0ced0babafe7e7e98b393c63d0c06d9" xlink:title=" ">
<polygon fill="white" stroke="#666666" points="245,-88.79 131,-88.79 131,-69.79 245,-69.79 245,-88.79"/>
<text text-anchor="middle" x="188" y="-76.79" font-family="Helvetica,sans-Serif" font-size="10.00">nat_num_t::push_front</text>
</a>
</g>
</g>
<!-- Node1&#45;&gt;Node2 -->
<g id="edge1" class="edge">
<title>Node1&#45;&gt;Node2</title>
<path fill="none" stroke="#63b8ff" d="M84.17,-51.82C101.56,-56.46 122.68,-62.11 141.25,-67.07"/>
<polygon fill="#63b8ff" stroke="#63b8ff" points="140.41,-70.47 150.97,-69.66 142.21,-63.7 140.41,-70.47"/>
</g>
<!-- Node3 -->
<g id="node3" class="node">
<title>Node3</title>
<g id="a_node3"><a xlink:href="$classnat__num__t.html#a5a1e29dfd320bf08016a2f0227621f0d" xlink:title=" ">
<polygon fill="white" stroke="#666666" points="237,-51.79 139,-51.79 139,-32.79 237,-32.79 237,-51.79"/>
<text text-anchor="middle" x="188" y="-39.79" font-family="Helvetica,sans-Serif" font-size="10.00">nat_num_t::reduce</text>
</a>
</g>
</g>
<!-- Node1&#45;&gt;Node3 -->
<g id="edge2" class="edge">
<title>Node1&#45;&gt;Node3</title>
<path fill="none" stroke="#63b8ff" d="M95,-42.29C105.83,-42.29 117.5,-42.29 128.76,-42.29"/>
<polygon fill="#63b8ff" stroke="#63b8ff" points="128.96,-45.79 138.96,-42.29 128.96,-38.79 128.96,-45.79"/>
</g>
<!-- Node6 -->
<g id="node6" class="node">
<title>Node6</title>
<g id="a_node6"><a xlink:href="$classnat__num__t.html#a3f420ff49cf6b55ef38936b2035a4071" xlink:title=" ">
<polygon fill="white" stroke="#666666" points="656,-70.79 570,-70.79 570,-51.79 656,-51.79 656,-70.79"/>
<text text-anchor="middle" x="613" y="-58.79" font-family="Helvetica,sans-Serif" font-size="10.00">nat_num_t::size</text>
</a>
</g>
</g>
<!-- Node1&#45;&gt;Node6 -->
<g id="edge8" class="edge">
<title>Node1&#45;&gt;Node6</title>
<path fill="none" stroke="#63b8ff" d="M84.47,-32.71C147.47,-17.19 281.87,10.32 395,-4.29 459.55,-12.63 532.29,-34.37 575.03,-48.46"/>
<polygon fill="#63b8ff" stroke="#63b8ff" points="574.11,-51.84 584.7,-51.69 576.33,-45.2 574.11,-51.84"/>
</g>
<!-- Node4 -->
<g id="node4" class="node">
<title>Node4</title>
<g id="a_node4"><a xlink:href="$classnat__num__t.html#a14b63725918fba3ba1f731c3cda4b6ca" xlink:title=" ">
<polygon fill="white" stroke="#666666" points="389,-119.29 287,-119.29 287,-89.29 389,-89.29 389,-119.29"/>
<text text-anchor="start" x="295" y="-107.29" font-family="Helvetica,sans-Serif" font-size="10.00">nat_num_t::digs_no</text>
<text text-anchor="middle" x="338" y="-96.29" font-family="Helvetica,sans-Serif" font-size="10.00">_significativos</text>
</a>
</g>
</g>
<!-- Node3&#45;&gt;Node4 -->
<g id="edge3" class="edge">
<title>Node3&#45;&gt;Node4</title>
<path fill="none" stroke="#63b8ff" d="M219.16,-51.84C227.59,-54.7 236.71,-57.96 245,-61.29 262.5,-68.32 281.45,-76.99 297.57,-84.7"/>
<polygon fill="#63b8ff" stroke="#63b8ff" points="296.18,-87.91 306.7,-89.1 299.22,-81.6 296.18,-87.91"/>
</g>
<!-- Node3&#45;&gt;Node6 -->
<g id="edge7" class="edge">
<title>Node3&#45;&gt;Node6</title>
<path fill="none" stroke="#63b8ff" d="M237.11,-44.45C317.16,-48.05 477.06,-55.23 559.77,-58.94"/>
<polygon fill="#63b8ff" stroke="#63b8ff" points="559.79,-62.45 569.94,-59.4 560.11,-55.46 559.79,-62.45"/>
</g>
<!-- Node7 -->
<g id="node7" class="node">
<title>Node7</title>
<g id="a_node7"><a xlink:href="$classnat__num__t.html#a8f8bdd2355aab6b9b24f4c87cd68f5b7" xlink:title=" ">
<polygon fill="white" stroke="#666666" points="395,-32.79 281,-32.79 281,-13.79 395,-13.79 395,-32.79"/>
<text text-anchor="middle" x="338" y="-20.79" font-family="Helvetica,sans-Serif" font-size="10.00">nat_num_t::nat_num_t</text>
</a>
</g>
</g>
<!-- Node3&#45;&gt;Node7 -->
<g id="edge6" class="edge">
<title>Node3&#45;&gt;Node7</title>
<path fill="none" stroke="#63b8ff" d="M237.05,-36.12C247.89,-34.73 259.57,-33.23 271,-31.76"/>
<polygon fill="#63b8ff" stroke="#63b8ff" points="271.48,-35.23 280.95,-30.48 270.59,-28.29 271.48,-35.23"/>
</g>
<!-- Node5 -->
<g id="node5" class="node">
<title>Node5</title>
<g id="a_node5"><a xlink:href="$classnat__num__t.html#a2a7eae79a48f9b29a40c9103cfac72d7" xlink:title=" ">
<polygon fill="white" stroke="#666666" points="534,-119.29 431,-119.29 431,-89.29 534,-89.29 534,-119.29"/>
<text text-anchor="start" x="439" y="-107.29" font-family="Helvetica,sans-Serif" font-size="10.00">nat_num_t::ceros_a</text>
<text text-anchor="middle" x="482.5" y="-96.29" font-family="Helvetica,sans-Serif" font-size="10.00">_la_izqda</text>
</a>
</g>
</g>
<!-- Node4&#45;&gt;Node5 -->
<g id="edge4" class="edge">
<title>Node4&#45;&gt;Node5</title>
<path fill="none" stroke="#63b8ff" d="M389.24,-104.29C399.34,-104.29 410.05,-104.29 420.47,-104.29"/>
<polygon fill="#63b8ff" stroke="#63b8ff" points="420.75,-107.79 430.75,-104.29 420.75,-100.79 420.75,-107.79"/>
</g>
<!-- Node5&#45;&gt;Node6 -->
<g id="edge5" class="edge">
<title>Node5&#45;&gt;Node6</title>
<path fill="none" stroke="#63b8ff" d="M528.44,-89.25C543.26,-84.29 559.59,-78.83 573.85,-74.05"/>
<polygon fill="#63b8ff" stroke="#63b8ff" points="574.98,-77.37 583.35,-70.88 572.76,-70.73 574.98,-77.37"/>
</g>
</g>
</svg>
