<?xml version="1.0" encoding="UTF-8" standalone="no"?>
<!DOCTYPE svg PUBLIC "-//W3C//DTD SVG 1.1//EN"
 "http://www.w3.org/Graphics/SVG/1.1/DTD/svg11.dtd">
<!-- Generated by graphviz version 2.44.1 (20220725.2034)
 -->
<!-- Title: nat_num_t::operator* Pages: 1 -->
<svg width="678pt" height="127pt"
 viewBox="0.00 0.00 678.00 127.44" xmlns="http://www.w3.org/2000/svg" xmlns:xlink="http://www.w3.org/1999/xlink">
<g id="graph0" class="graph" transform="scale(1 1) rotate(0) translate(4 123.44)">
<title>nat_num_t::operator*</title>
<!-- Node1 -->
<g id="node1" class="node">
<title>Node1</title>
<g id="a_node1"><a xlink:title=" ">
<polygon fill="#999999" stroke="#666666" points="107,-51.94 0,-51.94 0,-32.94 107,-32.94 107,-51.94"/>
<text text-anchor="middle" x="53.5" y="-39.94" font-family="Helvetica,sans-Serif" font-size="10.00">nat_num_t::operator*</text>
</a>
</g>
</g>
<!-- Node2 -->
<g id="node2" class="node">
<title>Node2</title>
<g id="a_node2"><a xlink:href="$classnat__num__t.html#aef1019272164e14682dc667e158afa53" xlink:title=" ">
<polygon fill="white" stroke="#666666" points="259,-88.94 143,-88.94 143,-69.94 259,-69.94 259,-88.94"/>
<text text-anchor="middle" x="201" y="-76.94" font-family="Helvetica,sans-Serif" font-size="10.00">nat_num_t::push_back</text>
</a>
</g>
</g>
<!-- Node1&#45;&gt;Node2 -->
<g id="edge1" class="edge">
<title>Node1&#45;&gt;Node2</title>
<path fill="none" stroke="#63b8ff" d="M91.97,-51.97C110.48,-56.68 133.02,-62.41 152.7,-67.41"/>
<polygon fill="#63b8ff" stroke="#63b8ff" points="151.85,-70.81 162.4,-69.88 153.58,-64.02 151.85,-70.81"/>
</g>
<!-- Node3 -->
<g id="node3" class="node">
<title>Node3</title>
<g id="a_node3"><a xlink:href="$classnat__num__t.html#a5a1e29dfd320bf08016a2f0227621f0d" xlink:title=" ">
<polygon fill="white" stroke="#666666" points="250,-51.94 152,-51.94 152,-32.94 250,-32.94 250,-51.94"/>
<text text-anchor="middle" x="201" y="-39.94" font-family="Helvetica,sans-Serif" font-size="10.00">nat_num_t::reduce</text>
</a>
</g>
</g>
<!-- Node1&#45;&gt;Node3 -->
<g id="edge2" class="edge">
<title>Node1&#45;&gt;Node3</title>
<path fill="none" stroke="#63b8ff" d="M107.03,-42.44C118.25,-42.44 130.16,-42.44 141.59,-42.44"/>
<polygon fill="#63b8ff" stroke="#63b8ff" points="141.9,-45.94 151.9,-42.44 141.9,-38.94 141.9,-45.94"/>
</g>
<!-- Node6 -->
<g id="node6" class="node">
<title>Node6</title>
<g id="a_node6"><a xlink:href="$classnat__num__t.html#a3f420ff49cf6b55ef38936b2035a4071" xlink:title=" ">
<polygon fill="white" stroke="#666666" points="670,-70.94 584,-70.94 584,-51.94 670,-51.94 670,-70.94"/>
<text text-anchor="middle" x="627" y="-58.94" font-family="Helvetica,sans-Serif" font-size="10.00">nat_num_t::size</text>
</a>
</g>
</g>
<!-- Node1&#45;&gt;Node6 -->
<g id="edge8" class="edge">
<title>Node1&#45;&gt;Node6</title>
<path fill="none" stroke="#63b8ff" d="M90.79,-32.92C155.05,-17.31 292.98,10.54 409,-4.44 473.55,-12.78 546.29,-34.52 589.03,-48.61"/>
<polygon fill="#63b8ff" stroke="#63b8ff" points="588.11,-51.99 598.7,-51.84 590.33,-45.35 588.11,-51.99"/>
</g>
<!-- Node4 -->
<g id="node4" class="node">
<title>Node4</title>
<g id="a_node4"><a xlink:href="$classnat__num__t.html#a14b63725918fba3ba1f731c3cda4b6ca" xlink:title=" ">
<polygon fill="white" stroke="#666666" points="403,-119.44 301,-119.44 301,-89.44 403,-89.44 403,-119.44"/>
<text text-anchor="start" x="309" y="-107.44" font-family="Helvetica,sans-Serif" font-size="10.00">nat_num_t::digs_no</text>
<text text-anchor="middle" x="352" y="-96.44" font-family="Helvetica,sans-Serif" font-size="10.00">_significativos</text>
</a>
</g>
</g>
<!-- Node3&#45;&gt;Node4 -->
<g id="edge3" class="edge">
<title>Node3&#45;&gt;Node4</title>
<path fill="none" stroke="#63b8ff" d="M232.7,-51.95C241.29,-54.81 250.57,-58.08 259,-61.44 276.66,-68.48 295.77,-77.22 311.97,-84.98"/>
<polygon fill="#63b8ff" stroke="#63b8ff" points="310.61,-88.21 321.14,-89.41 313.66,-81.91 310.61,-88.21"/>
</g>
<!-- Node3&#45;&gt;Node6 -->
<g id="edge7" class="edge">
<title>Node3&#45;&gt;Node6</title>
<path fill="none" stroke="#63b8ff" d="M250.23,-44.6C330.47,-48.2 490.74,-55.38 573.64,-59.09"/>
<polygon fill="#63b8ff" stroke="#63b8ff" points="573.7,-62.6 583.84,-59.55 574.01,-55.61 573.7,-62.6"/>
</g>
<!-- Node7 -->
<g id="node7" class="node">
<title>Node7</title>
<g id="a_node7"><a xlink:href="$classnat__num__t.html#a8f8bdd2355aab6b9b24f4c87cd68f5b7" xlink:title=" ">
<polygon fill="white" stroke="#666666" points="409,-32.94 295,-32.94 295,-13.94 409,-13.94 409,-32.94"/>
<text text-anchor="middle" x="352" y="-20.94" font-family="Helvetica,sans-Serif" font-size="10.00">nat_num_t::nat_num_t</text>
</a>
</g>
</g>
<!-- Node3&#45;&gt;Node7 -->
<g id="edge6" class="edge">
<title>Node3&#45;&gt;Node7</title>
<path fill="none" stroke="#63b8ff" d="M250.38,-36.27C261.35,-34.87 273.19,-33.36 284.77,-31.89"/>
<polygon fill="#63b8ff" stroke="#63b8ff" points="285.36,-35.34 294.84,-30.6 284.48,-28.4 285.36,-35.34"/>
</g>
<!-- Node5 -->
<g id="node5" class="node">
<title>Node5</title>
<g id="a_node5"><a xlink:href="$classnat__num__t.html#a2a7eae79a48f9b29a40c9103cfac72d7" xlink:title=" ">
<polygon fill="white" stroke="#666666" points="548,-119.44 445,-119.44 445,-89.44 548,-89.44 548,-119.44"/>
<text text-anchor="start" x="453" y="-107.44" font-family="Helvetica,sans-Serif" font-size="10.00">nat_num_t::ceros_a</text>
<text text-anchor="middle" x="496.5" y="-96.44" font-family="Helvetica,sans-Serif" font-size="10.00">_la_izqda</text>
</a>
</g>
</g>
<!-- Node4&#45;&gt;Node5 -->
<g id="edge4" class="edge">
<title>Node4&#45;&gt;Node5</title>
<path fill="none" stroke="#63b8ff" d="M403.24,-104.44C413.34,-104.44 424.05,-104.44 434.47,-104.44"/>
<polygon fill="#63b8ff" stroke="#63b8ff" points="434.75,-107.94 444.75,-104.44 434.75,-100.94 434.75,-107.94"/>
</g>
<!-- Node5&#45;&gt;Node6 -->
<g id="edge5" class="edge">
<title>Node5&#45;&gt;Node6</title>
<path fill="none" stroke="#63b8ff" d="M542.44,-89.4C557.26,-84.44 573.59,-78.98 587.85,-74.21"/>
<polygon fill="#63b8ff" stroke="#63b8ff" points="588.98,-77.52 597.35,-71.03 586.76,-70.88 588.98,-77.52"/>
</g>
</g>
</svg>
