<?xml version="1.0" encoding="UTF-8" standalone="no"?>
<!DOCTYPE svg PUBLIC "-//W3C//DTD SVG 1.1//EN"
 "http://www.w3.org/Graphics/SVG/1.1/DTD/svg11.dtd">
<!-- Generated by graphviz version 2.44.1 (20220725.2034)
 -->
<!-- Title: nat_num_t::operator&#45;= Pages: 1 -->
<svg width="813pt" height="218pt"
 viewBox="0.00 0.00 813.00 217.50" xmlns="http://www.w3.org/2000/svg" xmlns:xlink="http://www.w3.org/1999/xlink">
<g id="graph0" class="graph" transform="scale(1 1) rotate(0) translate(4 213.5)">
<title>nat_num_t::operator&#45;=</title>
<!-- Node1 -->
<g id="node1" class="node">
<title>Node1</title>
<g id="a_node1"><a xlink:title=" ">
<polygon fill="#999999" stroke="#666666" points="113,-101.5 0,-101.5 0,-82.5 113,-82.5 113,-101.5"/>
<text text-anchor="middle" x="56.5" y="-89.5" font-family="Helvetica,sans-Serif" font-size="10.00">nat_num_t::operator&#45;=</text>
</a>
</g>
</g>
<!-- Node2 -->
<g id="node2" class="node">
<title>Node2</title>
<g id="a_node2"><a xlink:href="$classnat__num__t.html#a07b25245f1119449ee9171ab2ea85de6" xlink:title=" ">
<polygon fill="white" stroke="#666666" points="244,-160.5 149,-160.5 149,-141.5 244,-141.5 244,-160.5"/>
<text text-anchor="middle" x="196.5" y="-148.5" font-family="Helvetica,sans-Serif" font-size="10.00">nat_num_t::minus</text>
</a>
</g>
</g>
<!-- Node1&#45;&gt;Node2 -->
<g id="edge1" class="edge">
<title>Node1&#45;&gt;Node2</title>
<path fill="none" stroke="#63b8ff" d="M79.98,-101.61C102.73,-111.34 138.12,-126.47 163.74,-137.42"/>
<polygon fill="#63b8ff" stroke="#63b8ff" points="162.46,-140.68 173.03,-141.39 165.21,-134.24 162.46,-140.68"/>
</g>
<!-- Node4 -->
<g id="node4" class="node">
<title>Node4</title>
<g id="a_node4"><a xlink:href="$classnat__num__t.html#a5a1e29dfd320bf08016a2f0227621f0d" xlink:title=" ">
<polygon fill="white" stroke="#666666" points="386,-101.5 288,-101.5 288,-82.5 386,-82.5 386,-101.5"/>
<text text-anchor="middle" x="337" y="-89.5" font-family="Helvetica,sans-Serif" font-size="10.00">nat_num_t::reduce</text>
</a>
</g>
</g>
<!-- Node1&#45;&gt;Node4 -->
<g id="edge10" class="edge">
<title>Node1&#45;&gt;Node4</title>
<path fill="none" stroke="#63b8ff" d="M113.19,-92C160.91,-92 229.4,-92 277.83,-92"/>
<polygon fill="#63b8ff" stroke="#63b8ff" points="277.84,-95.5 287.84,-92 277.84,-88.5 277.84,-95.5"/>
</g>
<!-- Node7 -->
<g id="node7" class="node">
<title>Node7</title>
<g id="a_node7"><a xlink:href="$classnat__num__t.html#a3f420ff49cf6b55ef38936b2035a4071" xlink:title=" ">
<polygon fill="white" stroke="#666666" points="805,-68.5 719,-68.5 719,-49.5 805,-49.5 805,-68.5"/>
<text text-anchor="middle" x="762" y="-56.5" font-family="Helvetica,sans-Serif" font-size="10.00">nat_num_t::size</text>
</a>
</g>
</g>
<!-- Node1&#45;&gt;Node7 -->
<g id="edge11" class="edge">
<title>Node1&#45;&gt;Node7</title>
<path fill="none" stroke="#63b8ff" d="M74.14,-82.33C116.38,-58.71 231.87,0 336,0 336,0 336,0 488,0 574.6,0 673.24,-28.71 724.97,-46.08"/>
<polygon fill="#63b8ff" stroke="#63b8ff" points="724.08,-49.47 734.67,-49.39 726.34,-42.85 724.08,-49.47"/>
</g>
<!-- Node3 -->
<g id="node3" class="node">
<title>Node3</title>
<g id="a_node3"><a xlink:href="$classnat__num__t.html#aa0ced0babafe7e7e98b393c63d0c06d9" xlink:title=" ">
<polygon fill="white" stroke="#666666" points="394,-209.5 280,-209.5 280,-190.5 394,-190.5 394,-209.5"/>
<text text-anchor="middle" x="337" y="-197.5" font-family="Helvetica,sans-Serif" font-size="10.00">nat_num_t::push_front</text>
</a>
</g>
</g>
<!-- Node2&#45;&gt;Node3 -->
<g id="edge2" class="edge">
<title>Node2&#45;&gt;Node3</title>
<path fill="none" stroke="#63b8ff" d="M224.53,-160.56C245.89,-168.12 275.9,-178.74 299.4,-187.05"/>
<polygon fill="#63b8ff" stroke="#63b8ff" points="298.44,-190.42 309.04,-190.46 300.78,-183.83 298.44,-190.42"/>
</g>
<!-- Node2&#45;&gt;Node4 -->
<g id="edge3" class="edge">
<title>Node2&#45;&gt;Node4</title>
<path fill="none" stroke="#63b8ff" d="M220.06,-141.39C242.9,-131.66 278.42,-116.53 304.12,-105.58"/>
<polygon fill="#63b8ff" stroke="#63b8ff" points="305.62,-108.75 313.45,-101.61 302.88,-102.31 305.62,-108.75"/>
</g>
<!-- Node2&#45;&gt;Node7 -->
<g id="edge9" class="edge">
<title>Node2&#45;&gt;Node7</title>
<path fill="none" stroke="#63b8ff" d="M244.24,-155.6C333.49,-162.47 532.68,-168.53 683,-105 702.67,-96.69 723.42,-84.25 738.57,-74.4"/>
<polygon fill="#63b8ff" stroke="#63b8ff" points="740.82,-77.11 747.22,-68.66 736.95,-71.27 740.82,-77.11"/>
</g>
<!-- Node5 -->
<g id="node5" class="node">
<title>Node5</title>
<g id="a_node5"><a xlink:href="$classnat__num__t.html#a14b63725918fba3ba1f731c3cda4b6ca" xlink:title=" ">
<polygon fill="white" stroke="#666666" points="538,-96 436,-96 436,-66 538,-66 538,-96"/>
<text text-anchor="start" x="444" y="-84" font-family="Helvetica,sans-Serif" font-size="10.00">nat_num_t::digs_no</text>
<text text-anchor="middle" x="487" y="-73" font-family="Helvetica,sans-Serif" font-size="10.00">_significativos</text>
</a>
</g>
</g>
<!-- Node4&#45;&gt;Node5 -->
<g id="edge4" class="edge">
<title>Node4&#45;&gt;Node5</title>
<path fill="none" stroke="#63b8ff" d="M386.05,-88.43C398.76,-87.48 412.65,-86.45 425.91,-85.47"/>
<polygon fill="#63b8ff" stroke="#63b8ff" points="426.19,-88.96 435.9,-84.72 425.67,-81.97 426.19,-88.96"/>
</g>
<!-- Node4&#45;&gt;Node7 -->
<g id="edge8" class="edge">
<title>Node4&#45;&gt;Node7</title>
<path fill="none" stroke="#63b8ff" d="M357.14,-82.36C375.35,-73.76 403.78,-61.82 430,-57 527.11,-39.15 642.96,-46.16 708.66,-52.7"/>
<polygon fill="#63b8ff" stroke="#63b8ff" points="708.45,-56.2 718.76,-53.74 709.17,-49.24 708.45,-56.2"/>
</g>
<!-- Node8 -->
<g id="node8" class="node">
<title>Node8</title>
<g id="a_node8"><a xlink:href="$classnat__num__t.html#a8f8bdd2355aab6b9b24f4c87cd68f5b7" xlink:title=" ">
<polygon fill="white" stroke="#666666" points="544,-133.5 430,-133.5 430,-114.5 544,-114.5 544,-133.5"/>
<text text-anchor="middle" x="487" y="-121.5" font-family="Helvetica,sans-Serif" font-size="10.00">nat_num_t::nat_num_t</text>
</a>
</g>
</g>
<!-- Node4&#45;&gt;Node8 -->
<g id="edge7" class="edge">
<title>Node4&#45;&gt;Node8</title>
<path fill="none" stroke="#63b8ff" d="M382,-101.51C397.67,-104.9 415.49,-108.76 431.91,-112.3"/>
<polygon fill="#63b8ff" stroke="#63b8ff" points="431.4,-115.77 441.91,-114.47 432.88,-108.93 431.4,-115.77"/>
</g>
<!-- Node6 -->
<g id="node6" class="node">
<title>Node6</title>
<g id="a_node6"><a xlink:href="$classnat__num__t.html#a2a7eae79a48f9b29a40c9103cfac72d7" xlink:title=" ">
<polygon fill="white" stroke="#666666" points="683,-96 580,-96 580,-66 683,-66 683,-96"/>
<text text-anchor="start" x="588" y="-84" font-family="Helvetica,sans-Serif" font-size="10.00">nat_num_t::ceros_a</text>
<text text-anchor="middle" x="631.5" y="-73" font-family="Helvetica,sans-Serif" font-size="10.00">_la_izqda</text>
</a>
</g>
</g>
<!-- Node5&#45;&gt;Node6 -->
<g id="edge5" class="edge">
<title>Node5&#45;&gt;Node6</title>
<path fill="none" stroke="#63b8ff" d="M538.24,-81C548.34,-81 559.05,-81 569.47,-81"/>
<polygon fill="#63b8ff" stroke="#63b8ff" points="569.75,-84.5 579.75,-81 569.75,-77.5 569.75,-84.5"/>
</g>
<!-- Node6&#45;&gt;Node7 -->
<g id="edge6" class="edge">
<title>Node6&#45;&gt;Node7</title>
<path fill="none" stroke="#63b8ff" d="M683.29,-72.31C691.67,-70.87 700.36,-69.38 708.78,-67.94"/>
<polygon fill="#63b8ff" stroke="#63b8ff" points="709.59,-71.35 718.86,-66.22 708.41,-64.45 709.59,-71.35"/>
</g>
</g>
</svg>
