<?xml version="1.0" encoding="UTF-8" standalone="no"?>
<!DOCTYPE svg PUBLIC "-//W3C//DTD SVG 1.1//EN"
 "http://www.w3.org/Graphics/SVG/1.1/DTD/svg11.dtd">
<!-- Generated by graphviz version 2.44.1 (20220725.2034)
 -->
<!-- Title: nat_num_t::EuclidDiv Pages: 1 -->
<svg width="690pt" height="314pt"
 viewBox="0.00 0.00 690.00 313.50" xmlns="http://www.w3.org/2000/svg" xmlns:xlink="http://www.w3.org/1999/xlink">
<g id="graph0" class="graph" transform="scale(1 1) rotate(0) translate(4 309.5)">
<title>nat_num_t::EuclidDiv</title>
<!-- Node1 -->
<g id="node1" class="node">
<title>Node1</title>
<g id="a_node1"><a xlink:title=" ">
<polygon fill="#999999" stroke="#666666" points="110,-207.5 0,-207.5 0,-188.5 110,-188.5 110,-207.5"/>
<text text-anchor="middle" x="55" y="-195.5" font-family="Helvetica,sans-Serif" font-size="10.00">nat_num_t::EuclidDiv</text>
</a>
</g>
</g>
<!-- Node2 -->
<g id="node2" class="node">
<title>Node2</title>
<g id="a_node2"><a xlink:href="$classnat__num__t.html#a5884ef039a920a6cd34409885551d33a" xlink:title=" ">
<polygon fill="white" stroke="#666666" points="250.5,-305.5 166.5,-305.5 166.5,-286.5 250.5,-286.5 250.5,-305.5"/>
<text text-anchor="middle" x="208.5" y="-293.5" font-family="Helvetica,sans-Serif" font-size="10.00">nat_num_t::abs</text>
</a>
</g>
</g>
<!-- Node1&#45;&gt;Node2 -->
<g id="edge1" class="edge">
<title>Node1&#45;&gt;Node2</title>
<path fill="none" stroke="#63b8ff" d="M65.73,-207.8C81.44,-223.19 113.89,-253.18 146,-272 152.88,-276.03 160.57,-279.65 168.11,-282.77"/>
<polygon fill="#63b8ff" stroke="#63b8ff" points="166.94,-286.07 177.52,-286.47 169.49,-279.55 166.94,-286.07"/>
</g>
<!-- Node3 -->
<g id="node3" class="node">
<title>Node3</title>
<g id="a_node3"><a xlink:href="$classnat__num__t.html#a386e6f8d5f8b23ea4ac327c3f3a33d61" xlink:title=" ">
<polygon fill="white" stroke="#666666" points="560,-192 457,-192 457,-162 560,-162 560,-192"/>
<text text-anchor="start" x="465" y="-180" font-family="Helvetica,sans-Serif" font-size="10.00">nat_num_t::ceros_a</text>
<text text-anchor="middle" x="508.5" y="-169" font-family="Helvetica,sans-Serif" font-size="10.00">_la_drcha</text>
</a>
</g>
</g>
<!-- Node1&#45;&gt;Node3 -->
<g id="edge2" class="edge">
<title>Node1&#45;&gt;Node3</title>
<path fill="none" stroke="#63b8ff" d="M110.11,-203.25C181.64,-209.11 311.43,-215.92 421,-201 431.3,-199.6 442.1,-197.3 452.45,-194.66"/>
<polygon fill="#63b8ff" stroke="#63b8ff" points="453.44,-198.02 462.19,-192.05 451.63,-191.26 453.44,-198.02"/>
</g>
<!-- Node4 -->
<g id="node4" class="node">
<title>Node4</title>
<g id="a_node4"><a xlink:href="$classnat__num__t.html#a3f420ff49cf6b55ef38936b2035a4071" xlink:title=" ">
<polygon fill="white" stroke="#666666" points="682,-143.5 596,-143.5 596,-124.5 682,-124.5 682,-143.5"/>
<text text-anchor="middle" x="639" y="-131.5" font-family="Helvetica,sans-Serif" font-size="10.00">nat_num_t::size</text>
</a>
</g>
</g>
<!-- Node1&#45;&gt;Node4 -->
<g id="edge15" class="edge">
<title>Node1&#45;&gt;Node4</title>
<path fill="none" stroke="#63b8ff" d="M84.39,-207.61C101.92,-213.03 125,-219.25 146,-222 328.67,-245.94 391.72,-275.99 560,-201 585.55,-189.61 609.04,-167.07 623.43,-151.29"/>
<polygon fill="#63b8ff" stroke="#63b8ff" points="626.09,-153.56 630.08,-143.75 620.84,-148.93 626.09,-153.56"/>
</g>
<!-- Node5 -->
<g id="node5" class="node">
<title>Node5</title>
<g id="a_node5"><a xlink:href="$classnat__num__t.html#a5a1e29dfd320bf08016a2f0227621f0d" xlink:title=" ">
<polygon fill="white" stroke="#666666" points="257.5,-105.5 159.5,-105.5 159.5,-86.5 257.5,-86.5 257.5,-105.5"/>
<text text-anchor="middle" x="208.5" y="-93.5" font-family="Helvetica,sans-Serif" font-size="10.00">nat_num_t::reduce</text>
</a>
</g>
</g>
<!-- Node1&#45;&gt;Node5 -->
<g id="edge4" class="edge">
<title>Node1&#45;&gt;Node5</title>
<path fill="none" stroke="#63b8ff" d="M70.01,-188.46C87.69,-176.42 119.06,-155.11 146,-137 158.69,-128.47 172.89,-119 184.44,-111.31"/>
<polygon fill="#63b8ff" stroke="#63b8ff" points="186.68,-114.03 193.06,-105.58 182.8,-108.2 186.68,-114.03"/>
</g>
<!-- Node9 -->
<g id="node9" class="node">
<title>Node9</title>
<g id="a_node9"><a xlink:href="$classnat__num__t.html#a52b809b6182fe1ae3ceb43114ce7a0dc" xlink:title=" ">
<polygon fill="white" stroke="#666666" points="271,-164.5 146,-164.5 146,-145.5 271,-145.5 271,-164.5"/>
<text text-anchor="middle" x="208.5" y="-152.5" font-family="Helvetica,sans-Serif" font-size="10.00">nat_num_t::reduce_fracc</text>
</a>
</g>
</g>
<!-- Node1&#45;&gt;Node9 -->
<g id="edge10" class="edge">
<title>Node1&#45;&gt;Node9</title>
<path fill="none" stroke="#63b8ff" d="M89.62,-188.46C111.59,-182.22 140.49,-174.02 164.17,-167.3"/>
<polygon fill="#63b8ff" stroke="#63b8ff" points="165.31,-170.61 173.97,-164.52 163.4,-163.88 165.31,-170.61"/>
</g>
<!-- Node11 -->
<g id="node11" class="node">
<title>Node11</title>
<g id="a_node11"><a xlink:href="$classnat__num__t.html#a04b3864005da7d30b79ebdb0b4529bcc" xlink:title=" ">
<polygon fill="white" stroke="#666666" points="256,-68.5 161,-68.5 161,-49.5 256,-49.5 256,-68.5"/>
<text text-anchor="middle" x="208.5" y="-56.5" font-family="Helvetica,sans-Serif" font-size="10.00">nat_num_t::substr</text>
</a>
</g>
</g>
<!-- Node1&#45;&gt;Node11 -->
<g id="edge16" class="edge">
<title>Node1&#45;&gt;Node11</title>
<path fill="none" stroke="#63b8ff" d="M60.58,-188.28C71.82,-165.49 102.99,-108.28 146,-78 148.83,-76.01 151.87,-74.22 155.03,-72.62"/>
<polygon fill="#63b8ff" stroke="#63b8ff" points="156.46,-75.81 164.19,-68.57 153.63,-69.41 156.46,-75.81"/>
</g>
<!-- Node3&#45;&gt;Node4 -->
<g id="edge3" class="edge">
<title>Node3&#45;&gt;Node4</title>
<path fill="none" stroke="#63b8ff" d="M554.44,-161.96C569.26,-157 585.59,-151.54 599.85,-146.77"/>
<polygon fill="#63b8ff" stroke="#63b8ff" points="600.98,-150.08 609.35,-143.59 598.76,-143.44 600.98,-150.08"/>
</g>
<!-- Node5&#45;&gt;Node4 -->
<g id="edge9" class="edge">
<title>Node5&#45;&gt;Node4</title>
<path fill="none" stroke="#63b8ff" d="M251.98,-86.42C268.99,-83.04 288.83,-79.66 307,-78 357.46,-73.38 370.74,-71.62 421,-78 485.32,-86.17 557.85,-107.43 600.65,-121.28"/>
<polygon fill="#63b8ff" stroke="#63b8ff" points="599.76,-124.67 610.35,-124.46 601.94,-118.02 599.76,-124.67"/>
</g>
<!-- Node6 -->
<g id="node6" class="node">
<title>Node6</title>
<g id="a_node6"><a xlink:href="$classnat__num__t.html#a14b63725918fba3ba1f731c3cda4b6ca" xlink:title=" ">
<polygon fill="white" stroke="#666666" points="415,-30 313,-30 313,0 415,0 415,-30"/>
<text text-anchor="start" x="321" y="-18" font-family="Helvetica,sans-Serif" font-size="10.00">nat_num_t::digs_no</text>
<text text-anchor="middle" x="364" y="-7" font-family="Helvetica,sans-Serif" font-size="10.00">_significativos</text>
</a>
</g>
</g>
<!-- Node5&#45;&gt;Node6 -->
<g id="edge5" class="edge">
<title>Node5&#45;&gt;Node6</title>
<path fill="none" stroke="#63b8ff" d="M251.94,-86.46C258.54,-84.17 265.11,-81.38 271,-78 290.09,-67.05 289.05,-56.74 307,-44 311.46,-40.83 316.32,-37.79 321.25,-34.96"/>
<polygon fill="#63b8ff" stroke="#63b8ff" points="323.04,-37.97 330.12,-30.08 319.67,-31.83 323.04,-37.97"/>
</g>
<!-- Node8 -->
<g id="node8" class="node">
<title>Node8</title>
<g id="a_node8"><a xlink:href="$classnat__num__t.html#a8f8bdd2355aab6b9b24f4c87cd68f5b7" xlink:title=" ">
<polygon fill="white" stroke="#666666" points="421,-105.5 307,-105.5 307,-86.5 421,-86.5 421,-105.5"/>
<text text-anchor="middle" x="364" y="-93.5" font-family="Helvetica,sans-Serif" font-size="10.00">nat_num_t::nat_num_t</text>
</a>
</g>
</g>
<!-- Node5&#45;&gt;Node8 -->
<g id="edge8" class="edge">
<title>Node5&#45;&gt;Node8</title>
<path fill="none" stroke="#63b8ff" d="M257.65,-96C270,-96 283.5,-96 296.59,-96"/>
<polygon fill="#63b8ff" stroke="#63b8ff" points="296.97,-99.5 306.97,-96 296.97,-92.5 296.97,-99.5"/>
</g>
<!-- Node7 -->
<g id="node7" class="node">
<title>Node7</title>
<g id="a_node7"><a xlink:href="$classnat__num__t.html#a2a7eae79a48f9b29a40c9103cfac72d7" xlink:title=" ">
<polygon fill="white" stroke="#666666" points="560,-30 457,-30 457,0 560,0 560,-30"/>
<text text-anchor="start" x="465" y="-18" font-family="Helvetica,sans-Serif" font-size="10.00">nat_num_t::ceros_a</text>
<text text-anchor="middle" x="508.5" y="-7" font-family="Helvetica,sans-Serif" font-size="10.00">_la_izqda</text>
</a>
</g>
</g>
<!-- Node6&#45;&gt;Node7 -->
<g id="edge6" class="edge">
<title>Node6&#45;&gt;Node7</title>
<path fill="none" stroke="#63b8ff" d="M415.24,-15C425.34,-15 436.05,-15 446.47,-15"/>
<polygon fill="#63b8ff" stroke="#63b8ff" points="446.75,-18.5 456.75,-15 446.75,-11.5 446.75,-18.5"/>
</g>
<!-- Node7&#45;&gt;Node4 -->
<g id="edge7" class="edge">
<title>Node7&#45;&gt;Node4</title>
<path fill="none" stroke="#63b8ff" d="M539.7,-30.14C546.67,-34.22 553.83,-38.92 560,-44 586.32,-65.67 611.09,-96.77 625.39,-116.15"/>
<polygon fill="#63b8ff" stroke="#63b8ff" points="622.66,-118.35 631.36,-124.4 628.33,-114.24 622.66,-118.35"/>
</g>
<!-- Node9&#45;&gt;Node4 -->
<g id="edge14" class="edge">
<title>Node9&#45;&gt;Node4</title>
<path fill="none" stroke="#63b8ff" d="M271.35,-151.97C355.97,-147.82 506.35,-140.45 585.67,-136.56"/>
<polygon fill="#63b8ff" stroke="#63b8ff" points="586.1,-140.05 595.92,-136.06 585.76,-133.06 586.1,-140.05"/>
</g>
<!-- Node9&#45;&gt;Node8 -->
<g id="edge13" class="edge">
<title>Node9&#45;&gt;Node8</title>
<path fill="none" stroke="#63b8ff" d="M234.5,-145.39C260.11,-135.55 300.11,-120.17 328.68,-109.19"/>
<polygon fill="#63b8ff" stroke="#63b8ff" points="330.18,-112.36 338.26,-105.51 327.67,-105.83 330.18,-112.36"/>
</g>
<!-- Node10 -->
<g id="node10" class="node">
<title>Node10</title>
<g id="a_node10"><a xlink:href="$classnat__num__t.html#a5a50025c599c9230b0ad18badc673e37" xlink:title=" ">
<polygon fill="white" stroke="#666666" points="420.5,-192 307.5,-192 307.5,-162 420.5,-162 420.5,-192"/>
<text text-anchor="start" x="315.5" y="-180" font-family="Helvetica,sans-Serif" font-size="10.00">nat_num_t::digs_fracc</text>
<text text-anchor="middle" x="364" y="-169" font-family="Helvetica,sans-Serif" font-size="10.00">_no_significativos</text>
</a>
</g>
</g>
<!-- Node9&#45;&gt;Node10 -->
<g id="edge11" class="edge">
<title>Node9&#45;&gt;Node10</title>
<path fill="none" stroke="#63b8ff" d="M271.05,-163.82C279.68,-165.06 288.58,-166.33 297.29,-167.58"/>
<polygon fill="#63b8ff" stroke="#63b8ff" points="297,-171.08 307.39,-169.03 297.99,-164.15 297,-171.08"/>
</g>
<!-- Node10&#45;&gt;Node3 -->
<g id="edge12" class="edge">
<title>Node10&#45;&gt;Node3</title>
<path fill="none" stroke="#63b8ff" d="M420.5,-177C429.04,-177 437.9,-177 446.54,-177"/>
<polygon fill="#63b8ff" stroke="#63b8ff" points="446.57,-180.5 456.57,-177 446.57,-173.5 446.57,-180.5"/>
</g>
</g>
</svg>
