<?xml version="1.0" encoding="UTF-8" standalone="no"?>
<!DOCTYPE svg PUBLIC "-//W3C//DTD SVG 1.1//EN"
 "http://www.w3.org/Graphics/SVG/1.1/DTD/svg11.dtd">
<!-- Generated by graphviz version 2.44.1 (20220725.2034)
 -->
<!-- Title: nat_num_t::operator*= Pages: 1 -->
<svg width="682pt" height="127pt"
 viewBox="0.00 0.00 682.00 127.46" xmlns="http://www.w3.org/2000/svg" xmlns:xlink="http://www.w3.org/1999/xlink">
<g id="graph0" class="graph" transform="scale(1 1) rotate(0) translate(4 123.46)">
<title>nat_num_t::operator*=</title>
<!-- Node1 -->
<g id="node1" class="node">
<title>Node1</title>
<g id="a_node1"><a xlink:title=" ">
<polygon fill="#999999" stroke="#666666" points="113,-51.96 0,-51.96 0,-32.96 113,-32.96 113,-51.96"/>
<text text-anchor="middle" x="56.5" y="-39.96" font-family="Helvetica,sans-Serif" font-size="10.00">nat_num_t::operator*=</text>
</a>
</g>
</g>
<!-- Node2 -->
<g id="node2" class="node">
<title>Node2</title>
<g id="a_node2"><a xlink:href="$classnat__num__t.html#aa0ced0babafe7e7e98b393c63d0c06d9" xlink:title=" ">
<polygon fill="white" stroke="#666666" points="263,-88.96 149,-88.96 149,-69.96 263,-69.96 263,-88.96"/>
<text text-anchor="middle" x="206" y="-76.96" font-family="Helvetica,sans-Serif" font-size="10.00">nat_num_t::push_front</text>
</a>
</g>
</g>
<!-- Node1&#45;&gt;Node2 -->
<g id="edge1" class="edge">
<title>Node1&#45;&gt;Node2</title>
<path fill="none" stroke="#63b8ff" d="M95.48,-51.99C114.25,-56.7 137.09,-62.43 157.05,-67.43"/>
<polygon fill="#63b8ff" stroke="#63b8ff" points="156.34,-70.86 166.89,-69.9 158.04,-64.07 156.34,-70.86"/>
</g>
<!-- Node3 -->
<g id="node3" class="node">
<title>Node3</title>
<g id="a_node3"><a xlink:href="$classnat__num__t.html#a5a1e29dfd320bf08016a2f0227621f0d" xlink:title=" ">
<polygon fill="white" stroke="#666666" points="255,-51.96 157,-51.96 157,-32.96 255,-32.96 255,-51.96"/>
<text text-anchor="middle" x="206" y="-39.96" font-family="Helvetica,sans-Serif" font-size="10.00">nat_num_t::reduce</text>
</a>
</g>
</g>
<!-- Node1&#45;&gt;Node3 -->
<g id="edge2" class="edge">
<title>Node1&#45;&gt;Node3</title>
<path fill="none" stroke="#63b8ff" d="M113.26,-42.46C124.14,-42.46 135.58,-42.46 146.55,-42.46"/>
<polygon fill="#63b8ff" stroke="#63b8ff" points="146.88,-45.96 156.88,-42.46 146.88,-38.96 146.88,-45.96"/>
</g>
<!-- Node6 -->
<g id="node6" class="node">
<title>Node6</title>
<g id="a_node6"><a xlink:href="$classnat__num__t.html#a3f420ff49cf6b55ef38936b2035a4071" xlink:title=" ">
<polygon fill="white" stroke="#666666" points="674,-70.96 588,-70.96 588,-51.96 674,-51.96 674,-70.96"/>
<text text-anchor="middle" x="631" y="-58.96" font-family="Helvetica,sans-Serif" font-size="10.00">nat_num_t::size</text>
</a>
</g>
</g>
<!-- Node1&#45;&gt;Node6 -->
<g id="edge8" class="edge">
<title>Node1&#45;&gt;Node6</title>
<path fill="none" stroke="#63b8ff" d="M93.9,-32.93C158.33,-17.31 296.65,10.57 413,-4.46 477.55,-12.8 550.29,-34.54 593.03,-48.63"/>
<polygon fill="#63b8ff" stroke="#63b8ff" points="592.11,-52.01 602.7,-51.86 594.33,-45.37 592.11,-52.01"/>
</g>
<!-- Node4 -->
<g id="node4" class="node">
<title>Node4</title>
<g id="a_node4"><a xlink:href="$classnat__num__t.html#a14b63725918fba3ba1f731c3cda4b6ca" xlink:title=" ">
<polygon fill="white" stroke="#666666" points="407,-119.46 305,-119.46 305,-89.46 407,-89.46 407,-119.46"/>
<text text-anchor="start" x="313" y="-107.46" font-family="Helvetica,sans-Serif" font-size="10.00">nat_num_t::digs_no</text>
<text text-anchor="middle" x="356" y="-96.46" font-family="Helvetica,sans-Serif" font-size="10.00">_significativos</text>
</a>
</g>
</g>
<!-- Node3&#45;&gt;Node4 -->
<g id="edge3" class="edge">
<title>Node3&#45;&gt;Node4</title>
<path fill="none" stroke="#63b8ff" d="M237.16,-52.01C245.59,-54.87 254.71,-58.13 263,-61.46 280.5,-68.49 299.45,-77.16 315.57,-84.87"/>
<polygon fill="#63b8ff" stroke="#63b8ff" points="314.18,-88.08 324.7,-89.27 317.22,-81.77 314.18,-88.08"/>
</g>
<!-- Node3&#45;&gt;Node6 -->
<g id="edge7" class="edge">
<title>Node3&#45;&gt;Node6</title>
<path fill="none" stroke="#63b8ff" d="M255.11,-44.62C335.16,-48.22 495.06,-55.4 577.77,-59.11"/>
<polygon fill="#63b8ff" stroke="#63b8ff" points="577.79,-62.62 587.94,-59.57 578.11,-55.63 577.79,-62.62"/>
</g>
<!-- Node7 -->
<g id="node7" class="node">
<title>Node7</title>
<g id="a_node7"><a xlink:href="$classnat__num__t.html#a8f8bdd2355aab6b9b24f4c87cd68f5b7" xlink:title=" ">
<polygon fill="white" stroke="#666666" points="413,-32.96 299,-32.96 299,-13.96 413,-13.96 413,-32.96"/>
<text text-anchor="middle" x="356" y="-20.96" font-family="Helvetica,sans-Serif" font-size="10.00">nat_num_t::nat_num_t</text>
</a>
</g>
</g>
<!-- Node3&#45;&gt;Node7 -->
<g id="edge6" class="edge">
<title>Node3&#45;&gt;Node7</title>
<path fill="none" stroke="#63b8ff" d="M255.05,-36.29C265.89,-34.9 277.57,-33.4 289,-31.93"/>
<polygon fill="#63b8ff" stroke="#63b8ff" points="289.48,-35.4 298.95,-30.65 288.59,-28.46 289.48,-35.4"/>
</g>
<!-- Node5 -->
<g id="node5" class="node">
<title>Node5</title>
<g id="a_node5"><a xlink:href="$classnat__num__t.html#a2a7eae79a48f9b29a40c9103cfac72d7" xlink:title=" ">
<polygon fill="white" stroke="#666666" points="552,-119.46 449,-119.46 449,-89.46 552,-89.46 552,-119.46"/>
<text text-anchor="start" x="457" y="-107.46" font-family="Helvetica,sans-Serif" font-size="10.00">nat_num_t::ceros_a</text>
<text text-anchor="middle" x="500.5" y="-96.46" font-family="Helvetica,sans-Serif" font-size="10.00">_la_izqda</text>
</a>
</g>
</g>
<!-- Node4&#45;&gt;Node5 -->
<g id="edge4" class="edge">
<title>Node4&#45;&gt;Node5</title>
<path fill="none" stroke="#63b8ff" d="M407.24,-104.46C417.34,-104.46 428.05,-104.46 438.47,-104.46"/>
<polygon fill="#63b8ff" stroke="#63b8ff" points="438.75,-107.96 448.75,-104.46 438.75,-100.96 438.75,-107.96"/>
</g>
<!-- Node5&#45;&gt;Node6 -->
<g id="edge5" class="edge">
<title>Node5&#45;&gt;Node6</title>
<path fill="none" stroke="#63b8ff" d="M546.44,-89.42C561.26,-84.46 577.59,-79 591.85,-74.22"/>
<polygon fill="#63b8ff" stroke="#63b8ff" points="592.98,-77.54 601.35,-71.05 590.76,-70.9 592.98,-77.54"/>
</g>
</g>
</svg>
