<?xml version="1.0" encoding="UTF-8" standalone="no"?>
<!DOCTYPE svg PUBLIC "-//W3C//DTD SVG 1.1//EN"
 "http://www.w3.org/Graphics/SVG/1.1/DTD/svg11.dtd">
<!-- Generated by graphviz version 2.44.1 (20220725.2034)
 -->
<!-- Title: is_1 Pages: 1 -->
<svg width="207pt" height="161pt"
 viewBox="0.00 0.00 207.00 161.00" xmlns="http://www.w3.org/2000/svg" xmlns:xlink="http://www.w3.org/1999/xlink">
<g id="graph0" class="graph" transform="scale(1 1) rotate(0) translate(4 157)">
<title>is_1</title>
<!-- Node1 -->
<g id="node1" class="node">
<title>Node1</title>
<g id="a_node1"><a xlink:title=" ">
<polygon fill="#999999" stroke="#666666" points="199,-85.5 164,-85.5 164,-66.5 199,-66.5 199,-85.5"/>
<text text-anchor="middle" x="181.5" y="-73.5" font-family="Helvetica,sans-Serif" font-size="10.00">is_1</text>
</a>
</g>
</g>
<!-- Node2 -->
<g id="node2" class="node">
<title>Node2</title>
<g id="a_node2"><a xlink:href="$struct_num_repr_1_1dig__t.html#af91d529a5c32bcc62d02b4700713b512" xlink:title=" ">
<polygon fill="white" stroke="#666666" points="113.5,-153 14.5,-153 14.5,-123 113.5,-123 113.5,-153"/>
<text text-anchor="start" x="22.5" y="-141" font-family="Helvetica,sans-Serif" font-size="10.00">NumRepr::dig_t::is</text>
<text text-anchor="middle" x="64" y="-130" font-family="Helvetica,sans-Serif" font-size="10.00">_near_maxormin</text>
</a>
</g>
</g>
<!-- Node1&#45;&gt;Node2 -->
<g id="edge1" class="edge">
<title>Node1&#45;&gt;Node2</title>
<path fill="none" stroke="#63b8ff" d="M160.97,-92.03C151.42,-99.36 139.52,-107.78 128,-114 122.03,-117.23 115.53,-120.22 109.04,-122.93"/>
<polygon fill="#63b8ff" stroke="#63b8ff" points="163.31,-94.63 169,-85.69 158.98,-89.14 163.31,-94.63"/>
</g>
<!-- Node3 -->
<g id="node3" class="node">
<title>Node3</title>
<g id="a_node3"><a xlink:href="$struct_num_repr_1_1dig__t.html#aecc930e8cb3dbc3ede5beeff11ef77ee" xlink:title=" ">
<polygon fill="white" stroke="#666666" points="124,-104.5 4,-104.5 4,-85.5 124,-85.5 124,-104.5"/>
<text text-anchor="middle" x="64" y="-92.5" font-family="Helvetica,sans-Serif" font-size="10.00">NumRepr::dig_t::is_unit</text>
</a>
</g>
</g>
<!-- Node1&#45;&gt;Node3 -->
<g id="edge2" class="edge">
<title>Node1&#45;&gt;Node3</title>
<path fill="none" stroke="#63b8ff" d="M153.86,-80.38C144.59,-81.91 133.79,-83.68 122.99,-85.46"/>
<polygon fill="#63b8ff" stroke="#63b8ff" points="154.65,-83.8 163.95,-78.72 153.52,-76.89 154.65,-83.8"/>
</g>
<!-- Node4 -->
<g id="node4" class="node">
<title>Node4</title>
<g id="a_node4"><a xlink:href="$struct_num_repr_1_1dig__t.html#aa62606aacfd127f2670db23a727e1689" xlink:title=" ">
<polygon fill="white" stroke="#666666" points="128,-67.5 0,-67.5 0,-48.5 128,-48.5 128,-67.5"/>
<text text-anchor="middle" x="64" y="-55.5" font-family="Helvetica,sans-Serif" font-size="10.00">NumRepr::dig_t::mult_inv</text>
</a>
</g>
</g>
<!-- Node1&#45;&gt;Node4 -->
<g id="edge3" class="edge">
<title>Node1&#45;&gt;Node4</title>
<path fill="none" stroke="#63b8ff" d="M154.04,-71.88C145.61,-70.56 135.91,-69.05 126.08,-67.52"/>
<polygon fill="#63b8ff" stroke="#63b8ff" points="153.53,-75.34 163.95,-73.42 154.61,-68.42 153.53,-75.34"/>
</g>
<!-- Node5 -->
<g id="node5" class="node">
<title>Node5</title>
<g id="a_node5"><a xlink:href="$struct_num_repr_1_1nat__rat__fixed__reg__t.html#a863b4585d8f4ae407912c98c9273b6d3" xlink:title=" ">
<polygon fill="white" stroke="#666666" points="124.5,-30 3.5,-30 3.5,0 124.5,0 124.5,-30"/>
<text text-anchor="start" x="11.5" y="-18" font-family="Helvetica,sans-Serif" font-size="10.00">NumRepr::nat_rat_fixed</text>
<text text-anchor="middle" x="64" y="-7" font-family="Helvetica,sans-Serif" font-size="10.00">_reg_t::operator&#45;=</text>
</a>
</g>
</g>
<!-- Node1&#45;&gt;Node5 -->
<g id="edge4" class="edge">
<title>Node1&#45;&gt;Node5</title>
<path fill="none" stroke="#63b8ff" d="M159.76,-60.19C150.37,-53.46 138.94,-45.83 128,-40 121.35,-36.46 114.09,-33.13 106.94,-30.12"/>
<polygon fill="#63b8ff" stroke="#63b8ff" points="157.93,-63.19 168.06,-66.29 162.07,-57.55 157.93,-63.19"/>
</g>
</g>
</svg>
