<?xml version="1.0" encoding="UTF-8" standalone="no"?>
<!DOCTYPE svg PUBLIC "-//W3C//DTD SVG 1.1//EN"
 "http://www.w3.org/Graphics/SVG/1.1/DTD/svg11.dtd">
<!-- Generated by graphviz version 2.44.1 (20220725.2034)
 -->
<!-- Title: operator&gt;&gt; Pages: 1 -->
<svg width="224pt" height="101pt"
 viewBox="0.00 0.00 224.00 101.00" xmlns="http://www.w3.org/2000/svg" xmlns:xlink="http://www.w3.org/1999/xlink">
<g id="graph0" class="graph" transform="scale(1 1) rotate(0) translate(4 97)">
<title>operator&gt;&gt;</title>
<!-- Node1 -->
<g id="node1" class="node">
<title>Node1</title>
<g id="a_node1"><a xlink:title=" ">
<polygon fill="#999999" stroke="#666666" points="64,-56 0,-56 0,-37 64,-37 64,-56"/>
<text text-anchor="middle" x="32" y="-44" font-family="Helvetica,sans-Serif" font-size="10.00">operator&gt;&gt;</text>
</a>
</g>
</g>
<!-- Node2 -->
<g id="node2" class="node">
<title>Node2</title>
<g id="a_node2"><a xlink:href="$classnat__num__t.html#a296e66bafb159169f28cab2ef1357f14" xlink:title=" ">
<polygon fill="white" stroke="#666666" points="202.5,-93 113.5,-93 113.5,-74 202.5,-74 202.5,-93"/>
<text text-anchor="middle" x="158" y="-81" font-family="Helvetica,sans-Serif" font-size="10.00">nat_num_t::clear</text>
</a>
</g>
</g>
<!-- Node1&#45;&gt;Node2 -->
<g id="edge1" class="edge">
<title>Node1&#45;&gt;Node2</title>
<path fill="none" stroke="#63b8ff" d="M64.29,-55.84C79.62,-60.41 98.3,-65.98 114.86,-70.93"/>
<polygon fill="#63b8ff" stroke="#63b8ff" points="114.27,-74.4 124.86,-73.91 116.27,-67.7 114.27,-74.4"/>
</g>
<!-- Node3 -->
<g id="node3" class="node">
<title>Node3</title>
<g id="a_node3"><a xlink:href="$classnat__num__t.html#a05f88959b68523c08a10f864e73a6fc6" xlink:title=" ">
<polygon fill="white" stroke="#666666" points="205.5,-56 110.5,-56 110.5,-37 205.5,-37 205.5,-56"/>
<text text-anchor="middle" x="158" y="-44" font-family="Helvetica,sans-Serif" font-size="10.00">nat_num_t::p_aux</text>
</a>
</g>
</g>
<!-- Node1&#45;&gt;Node3 -->
<g id="edge2" class="edge">
<title>Node1&#45;&gt;Node3</title>
<path fill="none" stroke="#63b8ff" d="M64.29,-46.5C75.16,-46.5 87.72,-46.5 100.02,-46.5"/>
<polygon fill="#63b8ff" stroke="#63b8ff" points="100.24,-50 110.24,-46.5 100.24,-43 100.24,-50"/>
</g>
<!-- Node4 -->
<g id="node4" class="node">
<title>Node4</title>
<g id="a_node4"><a xlink:href="$classnat__num__t.html#aef1019272164e14682dc667e158afa53" xlink:title=" ">
<polygon fill="white" stroke="#666666" points="216,-19 100,-19 100,0 216,0 216,-19"/>
<text text-anchor="middle" x="158" y="-7" font-family="Helvetica,sans-Serif" font-size="10.00">nat_num_t::push_back</text>
</a>
</g>
</g>
<!-- Node1&#45;&gt;Node4 -->
<g id="edge3" class="edge">
<title>Node1&#45;&gt;Node4</title>
<path fill="none" stroke="#63b8ff" d="M64.29,-37.16C79.62,-32.59 98.3,-27.02 114.86,-22.07"/>
<polygon fill="#63b8ff" stroke="#63b8ff" points="116.27,-25.3 124.86,-19.09 114.27,-18.6 116.27,-25.3"/>
</g>
</g>
</svg>
