<?xml version="1.0" encoding="UTF-8" standalone="no"?>
<!DOCTYPE svg PUBLIC "-//W3C//DTD SVG 1.1//EN"
 "http://www.w3.org/Graphics/SVG/1.1/DTD/svg11.dtd">
<!-- Generated by graphviz version 2.44.1 (20220725.2034)
 -->
<!-- Title: NumRepr::dig_t::C_Bm1 Pages: 1 -->
<svg width="306pt" height="134pt"
 viewBox="0.00 0.00 306.00 134.00" xmlns="http://www.w3.org/2000/svg" xmlns:xlink="http://www.w3.org/1999/xlink">
<g id="graph0" class="graph" transform="scale(1 1) rotate(0) translate(4 130)">
<title>NumRepr::dig_t::C_Bm1</title>
<!-- Node1 -->
<g id="node1" class="node">
<title>Node1</title>
<g id="a_node1"><a xlink:title="&quot;C_Bm1&quot; es identico a &quot;operator!()&quot;">
<polygon fill="#999999" stroke="#666666" points="298,-72.5 173,-72.5 173,-53.5 298,-53.5 298,-72.5"/>
<text text-anchor="middle" x="235.5" y="-60.5" font-family="Helvetica,sans-Serif" font-size="10.00">NumRepr::dig_t::C_Bm1</text>
</a>
</g>
</g>
<!-- Node2 -->
<g id="node2" class="node">
<title>Node2</title>
<g id="a_node2"><a xlink:href="$namespace_num_repr.html#a2525ee5f113018fcb89a1c8a6a28aa31" xlink:title=" ">
<polygon fill="white" stroke="#666666" points="136.5,-126 0.5,-126 0.5,-96 136.5,-96 136.5,-126"/>
<text text-anchor="start" x="8.5" y="-114" font-family="Helvetica,sans-Serif" font-size="10.00">NumRepr::display_operator</text>
<text text-anchor="middle" x="68.5" y="-103" font-family="Helvetica,sans-Serif" font-size="10.00">_C_Bm1</text>
</a>
</g>
</g>
<!-- Node1&#45;&gt;Node2 -->
<g id="edge1" class="edge">
<title>Node1&#45;&gt;Node2</title>
<path fill="none" stroke="#63b8ff" d="M191.67,-75.46C170.16,-81.72 143.92,-89.35 121.28,-95.94"/>
<polygon fill="#63b8ff" stroke="#63b8ff" points="192.88,-78.75 201.51,-72.6 190.93,-72.03 192.88,-78.75"/>
</g>
<!-- Node3 -->
<g id="node3" class="node">
<title>Node3</title>
<g id="a_node3"><a xlink:href="$namespace_num_repr.html#ae0fc1d1a1935c51de9fa9490f212c168" xlink:title=" ">
<polygon fill="white" stroke="#666666" points="137,-78 0,-78 0,-48 137,-48 137,-78"/>
<text text-anchor="start" x="8" y="-66" font-family="Helvetica,sans-Serif" font-size="10.00">NumRepr::display_prop</text>
<text text-anchor="middle" x="68.5" y="-55" font-family="Helvetica,sans-Serif" font-size="10.00">_C_B_minus_1_eq_C_Bm1</text>
</a>
</g>
</g>
<!-- Node1&#45;&gt;Node3 -->
<g id="edge2" class="edge">
<title>Node1&#45;&gt;Node3</title>
<path fill="none" stroke="#63b8ff" d="M162.4,-63C153.96,-63 145.38,-63 137.01,-63"/>
<polygon fill="#63b8ff" stroke="#63b8ff" points="162.59,-66.5 172.59,-63 162.59,-59.5 162.59,-66.5"/>
</g>
<!-- Node4 -->
<g id="node4" class="node">
<title>Node4</title>
<g id="a_node4"><a xlink:href="$namespace_num_repr.html#adb8c5e5fc5db353e6db6327ac4c62742" xlink:title=" ">
<polygon fill="white" stroke="#666666" points="132,-30 5,-30 5,0 132,0 132,-30"/>
<text text-anchor="start" x="13" y="-18" font-family="Helvetica,sans-Serif" font-size="10.00">NumRepr::display_prop</text>
<text text-anchor="middle" x="68.5" y="-7" font-family="Helvetica,sans-Serif" font-size="10.00">_C_Bm1_eq_inv_C_Bm1</text>
</a>
</g>
</g>
<!-- Node1&#45;&gt;Node4 -->
<g id="edge3" class="edge">
<title>Node1&#45;&gt;Node4</title>
<path fill="none" stroke="#63b8ff" d="M191.67,-50.54C170.16,-44.28 143.92,-36.65 121.28,-30.06"/>
<polygon fill="#63b8ff" stroke="#63b8ff" points="190.93,-53.97 201.51,-53.4 192.88,-47.25 190.93,-53.97"/>
</g>
</g>
</svg>
