<?xml version="1.0" encoding="UTF-8" standalone="no"?>
<!DOCTYPE svg PUBLIC "-//W3C//DTD SVG 1.1//EN"
 "http://www.w3.org/Graphics/SVG/1.1/DTD/svg11.dtd">
<!-- Generated by graphviz version 2.44.1 (20220725.2034)
 -->
<!-- Title: int_num_t::abs Pages: 1 -->
<svg width="235pt" height="64pt"
 viewBox="0.00 0.00 235.00 64.00" xmlns="http://www.w3.org/2000/svg" xmlns:xlink="http://www.w3.org/1999/xlink">
<g id="graph0" class="graph" transform="scale(1 1) rotate(0) translate(4 60)">
<title>int_num_t::abs</title>
<!-- Node1 -->
<g id="node1" class="node">
<title>Node1</title>
<g id="a_node1"><a xlink:title=" ">
<polygon fill="#999999" stroke="#666666" points="227,-37 146,-37 146,-18 227,-18 227,-37"/>
<text text-anchor="middle" x="186.5" y="-25" font-family="Helvetica,sans-Serif" font-size="10.00">int_num_t::abs</text>
</a>
</g>
</g>
<!-- Node2 -->
<g id="node2" class="node">
<title>Node2</title>
<g id="a_node2"><a xlink:href="$structint__num__t.html#a958e81879bcf27742be664eaf019a125" xlink:title=" ">
<polygon fill="white" stroke="#666666" points="110,-56 0,-56 0,-37 110,-37 110,-56"/>
<text text-anchor="middle" x="55" y="-44" font-family="Helvetica,sans-Serif" font-size="10.00">int_num_t::operator%</text>
</a>
</g>
</g>
<!-- Node1&#45;&gt;Node2 -->
<g id="edge1" class="edge">
<title>Node1&#45;&gt;Node2</title>
<path fill="none" stroke="#63b8ff" d="M135.87,-34.78C127.44,-36.02 118.64,-37.31 110.1,-38.56"/>
<polygon fill="#63b8ff" stroke="#63b8ff" points="136.56,-38.22 145.94,-33.3 135.54,-31.29 136.56,-38.22"/>
</g>
<!-- Node3 -->
<g id="node3" class="node">
<title>Node3</title>
<g id="a_node3"><a xlink:href="$structint__num__t.html#acc818e68d0ebebc9ee1a14c0a9506328" xlink:title=" ">
<polygon fill="white" stroke="#666666" points="107,-19 3,-19 3,0 107,0 107,-19"/>
<text text-anchor="middle" x="55" y="-7" font-family="Helvetica,sans-Serif" font-size="10.00">int_num_t::operator/</text>
</a>
</g>
</g>
<!-- Node1&#45;&gt;Node3 -->
<g id="edge2" class="edge">
<title>Node1&#45;&gt;Node3</title>
<path fill="none" stroke="#63b8ff" d="M135.96,-20.61C126.56,-19.31 116.71,-17.94 107.26,-16.63"/>
<polygon fill="#63b8ff" stroke="#63b8ff" points="135.56,-24.09 145.94,-22 136.52,-17.16 135.56,-24.09"/>
</g>
</g>
</svg>
