<?xml version="1.0" encoding="UTF-8" standalone="no"?>
<!DOCTYPE svg PUBLIC "-//W3C//DTD SVG 1.1//EN"
 "http://www.w3.org/Graphics/SVG/1.1/DTD/svg11.dtd">
<!-- Generated by graphviz version 2.44.1 (20220725.2034)
 -->
<!-- Title: int_num_t::operator*= Pages: 1 -->
<svg width="398pt" height="140pt"
 viewBox="0.00 0.00 398.00 140.00" xmlns="http://www.w3.org/2000/svg" xmlns:xlink="http://www.w3.org/1999/xlink">
<g id="graph0" class="graph" transform="scale(1 1) rotate(0) translate(4 136)">
<title>int_num_t::operator*=</title>
<!-- Node1 -->
<g id="node1" class="node">
<title>Node1</title>
<g id="a_node1"><a xlink:title=" ">
<polygon fill="#999999" stroke="#666666" points="110,-75 0,-75 0,-56 110,-56 110,-75"/>
<text text-anchor="middle" x="55" y="-63" font-family="Helvetica,sans-Serif" font-size="10.00">int_num_t::operator*=</text>
</a>
</g>
</g>
<!-- Node2 -->
<g id="node2" class="node">
<title>Node2</title>
<g id="a_node2"><a xlink:href="$structint__num__t.html#acf8be3251610cf7365b5a7ae48dfa001" xlink:title=" ">
<polygon fill="white" stroke="#666666" points="236.5,-132 150.5,-132 150.5,-113 236.5,-113 236.5,-132"/>
<text text-anchor="middle" x="193.5" y="-120" font-family="Helvetica,sans-Serif" font-size="10.00">int_num_t::absp</text>
</a>
</g>
</g>
<!-- Node1&#45;&gt;Node2 -->
<g id="edge1" class="edge">
<title>Node1&#45;&gt;Node2</title>
<path fill="none" stroke="#63b8ff" d="M78.85,-75.04C101.09,-84.33 135.11,-98.54 160.14,-108.99"/>
<polygon fill="#63b8ff" stroke="#63b8ff" points="159,-112.3 169.58,-112.93 161.7,-105.85 159,-112.3"/>
</g>
<!-- Node3 -->
<g id="node3" class="node">
<title>Node3</title>
<g id="a_node3"><a xlink:href="$structint__num__t.html#ae209e7a115353db1633459a602d24e0b" xlink:title=" ">
<polygon fill="white" stroke="#666666" points="383.5,-75 283.5,-75 283.5,-56 383.5,-56 383.5,-75"/>
<text text-anchor="middle" x="333.5" y="-63" font-family="Helvetica,sans-Serif" font-size="10.00">int_num_t::num_int</text>
</a>
</g>
</g>
<!-- Node1&#45;&gt;Node3 -->
<g id="edge7" class="edge">
<title>Node1&#45;&gt;Node3</title>
<path fill="none" stroke="#63b8ff" d="M110.3,-65.5C157.28,-65.5 225.09,-65.5 273.42,-65.5"/>
<polygon fill="#63b8ff" stroke="#63b8ff" points="273.43,-69 283.43,-65.5 273.43,-62 273.43,-69"/>
</g>
<!-- Node4 -->
<g id="node4" class="node">
<title>Node4</title>
<g id="a_node4"><a xlink:href="$structint__num__t.html#a3a812ddf5e23511d20f4b40f0a1d119e" xlink:title=" ">
<polygon fill="white" stroke="#666666" points="240,-19 147,-19 147,0 240,0 240,-19"/>
<text text-anchor="middle" x="193.5" y="-7" font-family="Helvetica,sans-Serif" font-size="10.00">int_num_t::mC_B</text>
</a>
</g>
</g>
<!-- Node1&#45;&gt;Node4 -->
<g id="edge4" class="edge">
<title>Node1&#45;&gt;Node4</title>
<path fill="none" stroke="#63b8ff" d="M79.3,-55.9C97.47,-48.43 123.33,-37.79 146,-28.5 150.29,-26.74 154.81,-24.89 159.27,-23.07"/>
<polygon fill="#63b8ff" stroke="#63b8ff" points="160.91,-26.18 168.84,-19.16 158.26,-19.7 160.91,-26.18"/>
</g>
<!-- Node6 -->
<g id="node6" class="node">
<title>Node6</title>
<g id="a_node6"><a xlink:href="$structint__num__t.html#a399984c0c867c6e3a5b15aaed4e1d465" xlink:title=" ">
<polygon fill="white" stroke="#666666" points="241,-56 146,-56 146,-37 241,-37 241,-56"/>
<text text-anchor="middle" x="193.5" y="-44" font-family="Helvetica,sans-Serif" font-size="10.00">int_num_t::reduce</text>
</a>
</g>
</g>
<!-- Node1&#45;&gt;Node6 -->
<g id="edge8" class="edge">
<title>Node1&#45;&gt;Node6</title>
<path fill="none" stroke="#63b8ff" d="M110.34,-57.94C118.69,-56.77 127.33,-55.57 135.74,-54.4"/>
<polygon fill="#63b8ff" stroke="#63b8ff" points="136.41,-57.84 145.83,-53 135.44,-50.91 136.41,-57.84"/>
</g>
<!-- Node2&#45;&gt;Node3 -->
<g id="edge2" class="edge">
<title>Node2&#45;&gt;Node3</title>
<path fill="none" stroke="#63b8ff" d="M217.6,-112.96C240.09,-103.67 274.48,-89.46 299.78,-79.01"/>
<polygon fill="#63b8ff" stroke="#63b8ff" points="301.42,-82.12 309.33,-75.07 298.75,-75.65 301.42,-82.12"/>
</g>
<!-- Node3&#45;&gt;Node3 -->
<g id="edge3" class="edge">
<title>Node3&#45;&gt;Node3</title>
<path fill="none" stroke="#63b8ff" d="M311.92,-75.08C301.42,-83.73 308.62,-93 333.5,-93 349.44,-93 358.12,-89.2 359.54,-84.19"/>
<polygon fill="#63b8ff" stroke="#63b8ff" points="362.62,-82.52 355.08,-75.08 356.34,-85.6 362.62,-82.52"/>
</g>
<!-- Node4&#45;&gt;Node3 -->
<g id="edge5" class="edge">
<title>Node4&#45;&gt;Node3</title>
<path fill="none" stroke="#63b8ff" d="M218.22,-19.13C240.67,-28.24 274.57,-41.99 299.63,-52.16"/>
<polygon fill="#63b8ff" stroke="#63b8ff" points="298.5,-55.48 309.09,-56 301.14,-49 298.5,-55.48"/>
</g>
<!-- Node5 -->
<g id="node5" class="node">
<title>Node5</title>
<g id="a_node5"><a xlink:href="$structint__num__t.html#a6575701ad34d79f67738bdef51c92a2d" xlink:title=" ">
<polygon fill="white" stroke="#666666" points="390,-19 277,-19 277,0 390,0 390,-19"/>
<text text-anchor="middle" x="333.5" y="-7" font-family="Helvetica,sans-Serif" font-size="10.00">int_num_t::push_back</text>
</a>
</g>
</g>
<!-- Node4&#45;&gt;Node5 -->
<g id="edge6" class="edge">
<title>Node4&#45;&gt;Node5</title>
<path fill="none" stroke="#63b8ff" d="M240.07,-9.5C248.63,-9.5 257.73,-9.5 266.75,-9.5"/>
<polygon fill="#63b8ff" stroke="#63b8ff" points="266.88,-13 276.88,-9.5 266.88,-6 266.88,-13"/>
</g>
<!-- Node6&#45;&gt;Node3 -->
<g id="edge9" class="edge">
<title>Node6&#45;&gt;Node3</title>
<path fill="none" stroke="#63b8ff" d="M241.22,-52.93C251.53,-54.35 262.58,-55.87 273.32,-57.35"/>
<polygon fill="#63b8ff" stroke="#63b8ff" points="273.09,-60.85 283.47,-58.75 274.04,-53.92 273.09,-60.85"/>
</g>
</g>
</svg>
