<?xml version="1.0" encoding="UTF-8" standalone="no"?>
<!DOCTYPE svg PUBLIC "-//W3C//DTD SVG 1.1//EN"
 "http://www.w3.org/Graphics/SVG/1.1/DTD/svg11.dtd">
<!-- Generated by graphviz version 2.44.1 (20220725.2034)
 -->
<!-- Title: int_num_t::size Pages: 1 -->
<svg width="383pt" height="134pt"
 viewBox="0.00 0.00 383.00 134.00" xmlns="http://www.w3.org/2000/svg" xmlns:xlink="http://www.w3.org/1999/xlink">
<g id="graph0" class="graph" transform="scale(1 1) rotate(0) translate(4 130)">
<title>int_num_t::size</title>
<!-- Node1 -->
<g id="node1" class="node">
<title>Node1</title>
<g id="a_node1"><a xlink:title=" ">
<polygon fill="#999999" stroke="#666666" points="375,-72.5 292,-72.5 292,-53.5 375,-53.5 375,-72.5"/>
<text text-anchor="middle" x="333.5" y="-60.5" font-family="Helvetica,sans-Serif" font-size="10.00">int_num_t::size</text>
</a>
</g>
</g>
<!-- Node2 -->
<g id="node2" class="node">
<title>Node2</title>
<g id="a_node2"><a xlink:href="$structint__num__t.html#ae09c19efabf27eb9caf36f33f0f380dd" xlink:title=" ">
<polygon fill="white" stroke="#666666" points="251,-126 151,-126 151,-96 251,-96 251,-126"/>
<text text-anchor="start" x="159" y="-114" font-family="Helvetica,sans-Serif" font-size="10.00">int_num_t::ceros_a</text>
<text text-anchor="middle" x="201" y="-103" font-family="Helvetica,sans-Serif" font-size="10.00">_la_drcha</text>
</a>
</g>
</g>
<!-- Node1&#45;&gt;Node2 -->
<g id="edge1" class="edge">
<title>Node1&#45;&gt;Node2</title>
<path fill="none" stroke="#63b8ff" d="M297,-76.06C280.3,-82.2 260.29,-89.56 242.95,-95.94"/>
<polygon fill="#63b8ff" stroke="#63b8ff" points="298.23,-79.34 306.41,-72.6 295.81,-72.77 298.23,-79.34"/>
</g>
<!-- Node4 -->
<g id="node4" class="node">
<title>Node4</title>
<g id="a_node4"><a xlink:href="$structint__num__t.html#aae2d5fd1815a61a2aadc21c151a34e6b" xlink:title=" ">
<polygon fill="white" stroke="#666666" points="251,-78 151,-78 151,-48 251,-48 251,-78"/>
<text text-anchor="start" x="159" y="-66" font-family="Helvetica,sans-Serif" font-size="10.00">int_num_t::ceros_a</text>
<text text-anchor="middle" x="201" y="-55" font-family="Helvetica,sans-Serif" font-size="10.00">_la_izqda</text>
</a>
</g>
</g>
<!-- Node1&#45;&gt;Node4 -->
<g id="edge3" class="edge">
<title>Node1&#45;&gt;Node4</title>
<path fill="none" stroke="#63b8ff" d="M281.71,-63C271.71,-63 261.23,-63 251.27,-63"/>
<polygon fill="#63b8ff" stroke="#63b8ff" points="281.92,-66.5 291.92,-63 281.92,-59.5 281.92,-66.5"/>
</g>
<!-- Node5 -->
<g id="node5" class="node">
<title>Node5</title>
<g id="a_node5"><a xlink:href="$structint__num__t.html#a9ffbfe2524e6104557827b766b800890" xlink:title=" ">
<polygon fill="white" stroke="#666666" points="256,-30 146,-30 146,0 256,0 256,-30"/>
<text text-anchor="start" x="154" y="-18" font-family="Helvetica,sans-Serif" font-size="10.00">int_num_t::unos_a_la</text>
<text text-anchor="middle" x="201" y="-7" font-family="Helvetica,sans-Serif" font-size="10.00">_drcha</text>
</a>
</g>
</g>
<!-- Node1&#45;&gt;Node5 -->
<g id="edge4" class="edge">
<title>Node1&#45;&gt;Node5</title>
<path fill="none" stroke="#63b8ff" d="M297,-49.94C280.3,-43.8 260.29,-36.44 242.95,-30.06"/>
<polygon fill="#63b8ff" stroke="#63b8ff" points="295.81,-53.23 306.41,-53.4 298.23,-46.66 295.81,-53.23"/>
</g>
<!-- Node3 -->
<g id="node3" class="node">
<title>Node3</title>
<g id="a_node3"><a xlink:href="$structint__num__t.html#a4bf7f711400d921df1c0d05cbe3c9d3d" xlink:title=" ">
<polygon fill="white" stroke="#666666" points="110,-126 0,-126 0,-96 110,-96 110,-126"/>
<text text-anchor="start" x="8" y="-114" font-family="Helvetica,sans-Serif" font-size="10.00">int_num_t::digs_fracc</text>
<text text-anchor="middle" x="55" y="-103" font-family="Helvetica,sans-Serif" font-size="10.00">_no_significativos</text>
</a>
</g>
</g>
<!-- Node2&#45;&gt;Node3 -->
<g id="edge2" class="edge">
<title>Node2&#45;&gt;Node3</title>
<path fill="none" stroke="#63b8ff" d="M140.57,-111C130.57,-111 120.23,-111 110.36,-111"/>
<polygon fill="#63b8ff" stroke="#63b8ff" points="140.85,-114.5 150.85,-111 140.85,-107.5 140.85,-114.5"/>
</g>
</g>
</svg>
