<?xml version="1.0" encoding="UTF-8" standalone="no"?>
<!DOCTYPE svg PUBLIC "-//W3C//DTD SVG 1.1//EN"
 "http://www.w3.org/Graphics/SVG/1.1/DTD/svg11.dtd">
<!-- Generated by graphviz version 2.44.1 (20220725.2034)
 -->
<!-- Title: NumRepr::reg_digs_t::C_B Pages: 1 -->
<svg width="435pt" height="104pt"
 viewBox="0.00 0.00 435.00 104.00" xmlns="http://www.w3.org/2000/svg" xmlns:xlink="http://www.w3.org/1999/xlink">
<g id="graph0" class="graph" transform="scale(1 1) rotate(0) translate(4 100)">
<title>NumRepr::reg_digs_t::C_B</title>
<!-- Node1 -->
<g id="node1" class="node">
<title>Node1</title>
<g id="a_node1"><a xlink:title=" ">
<polygon fill="#999999" stroke="#666666" points="135,-48.5 0,-48.5 0,-29.5 135,-29.5 135,-48.5"/>
<text text-anchor="middle" x="67.5" y="-36.5" font-family="Helvetica,sans-Serif" font-size="10.00">NumRepr::reg_digs_t::C_B</text>
</a>
</g>
</g>
<!-- Node2 -->
<g id="node2" class="node">
<title>Node2</title>
<g id="a_node2"><a xlink:href="$struct_num_repr_1_1reg__digs__t.html#a459dcc84f5a2ff05f229a2813eeca4eb" xlink:title=" ">
<polygon fill="white" stroke="#666666" points="281,-54 171,-54 171,-24 281,-24 281,-54"/>
<text text-anchor="start" x="179" y="-42" font-family="Helvetica,sans-Serif" font-size="10.00">NumRepr::reg_digs_t</text>
<text text-anchor="middle" x="226" y="-31" font-family="Helvetica,sans-Serif" font-size="10.00">::mC_B</text>
</a>
</g>
</g>
<!-- Node1&#45;&gt;Node2 -->
<g id="edge1" class="edge">
<title>Node1&#45;&gt;Node2</title>
<path fill="none" stroke="#63b8ff" d="M135.32,-39C143.71,-39 152.28,-39 160.63,-39"/>
<polygon fill="#63b8ff" stroke="#63b8ff" points="160.67,-42.5 170.67,-39 160.67,-35.5 160.67,-42.5"/>
</g>
<!-- Node3 -->
<g id="node3" class="node">
<title>Node3</title>
<g id="a_node3"><a xlink:href="$struct_num_repr_1_1reg__digs__t.html#aba51984e457f7e0cd28fa38c3454b38a" xlink:title=" ">
<polygon fill="white" stroke="#666666" points="427,-78 317,-78 317,-48 427,-48 427,-78"/>
<text text-anchor="start" x="325" y="-66" font-family="Helvetica,sans-Serif" font-size="10.00">NumRepr::reg_digs_t</text>
<text text-anchor="middle" x="372" y="-55" font-family="Helvetica,sans-Serif" font-size="10.00">::mC_Bm1</text>
</a>
</g>
</g>
<!-- Node2&#45;&gt;Node3 -->
<g id="edge2" class="edge">
<title>Node2&#45;&gt;Node3</title>
<path fill="none" stroke="#63b8ff" d="M281.03,-48C289.4,-49.4 298.13,-50.85 306.7,-52.28"/>
<polygon fill="#63b8ff" stroke="#63b8ff" points="306.23,-55.75 316.67,-53.94 307.38,-48.85 306.23,-55.75"/>
</g>
<!-- Node4 -->
<g id="node4" class="node">
<title>Node4</title>
<g id="a_node4"><a xlink:href="$struct_num_repr_1_1reg__digs__t.html#abc257d67bb67ef69b1a2491e58a705e1" xlink:title="Funciones que ponen a constantes (constexpr) los objetos base_t">
<polygon fill="white" stroke="#666666" points="427,-30 317,-30 317,0 427,0 427,-30"/>
<text text-anchor="start" x="325" y="-18" font-family="Helvetica,sans-Serif" font-size="10.00">NumRepr::reg_digs_t</text>
<text text-anchor="middle" x="372" y="-7" font-family="Helvetica,sans-Serif" font-size="10.00">::set_0</text>
</a>
</g>
</g>
<!-- Node2&#45;&gt;Node4 -->
<g id="edge4" class="edge">
<title>Node2&#45;&gt;Node4</title>
<path fill="none" stroke="#63b8ff" d="M281.03,-30C289.4,-28.6 298.13,-27.15 306.7,-25.72"/>
<polygon fill="#63b8ff" stroke="#63b8ff" points="307.38,-29.15 316.67,-24.06 306.23,-22.25 307.38,-29.15"/>
</g>
<!-- Node3&#45;&gt;Node3 -->
<g id="edge3" class="edge">
<title>Node3&#45;&gt;Node3</title>
<path fill="none" stroke="#63b8ff" d="M346.34,-78.28C340.63,-87.41 349.19,-96 372,-96 385.54,-96 394.06,-92.97 397.56,-88.6"/>
<polygon fill="#63b8ff" stroke="#63b8ff" points="401.06,-88.31 397.66,-78.28 394.06,-88.24 401.06,-88.31"/>
</g>
</g>
</svg>
