<?xml version="1.0" encoding="UTF-8" standalone="no"?>
<!DOCTYPE svg PUBLIC "-//W3C//DTD SVG 1.1//EN"
 "http://www.w3.org/Graphics/SVG/1.1/DTD/svg11.dtd">
<!-- Generated by graphviz version 2.44.1 (20220725.2034)
 -->
<!-- Title: NumRepr::nat_reg_digs_t::m_sub Pages: 1 -->
<svg width="284pt" height="200pt"
 viewBox="0.00 0.00 284.00 200.00" xmlns="http://www.w3.org/2000/svg" xmlns:xlink="http://www.w3.org/1999/xlink">
<g id="graph0" class="graph" transform="scale(1 1) rotate(0) translate(4 196)">
<title>NumRepr::nat_reg_digs_t::m_sub</title>
<!-- Node1 -->
<g id="node1" class="node">
<title>Node1</title>
<g id="a_node1"><a xlink:title="OPERATOR BASE_T &#45;= DIG_T CON NOMBRE M_SUB.">
<polygon fill="#999999" stroke="#666666" points="120,-120 0,-120 0,-90 120,-90 120,-120"/>
<text text-anchor="start" x="8" y="-108" font-family="Helvetica,sans-Serif" font-size="10.00">NumRepr::nat_reg_digs</text>
<text text-anchor="middle" x="60" y="-97" font-family="Helvetica,sans-Serif" font-size="10.00">_t::m_sub</text>
</a>
</g>
</g>
<!-- Node2 -->
<g id="node2" class="node">
<title>Node2</title>
<g id="a_node2"><a xlink:href="$struct_num_repr_1_1nat__reg__digs__t.html#a85a8b769de34b30bc8f57d8fe7b6eca7" xlink:title=" ">
<polygon fill="white" stroke="#666666" points="276,-192 156,-192 156,-162 276,-162 276,-192"/>
<text text-anchor="start" x="164" y="-180" font-family="Helvetica,sans-Serif" font-size="10.00">NumRepr::nat_reg_digs</text>
<text text-anchor="middle" x="216" y="-169" font-family="Helvetica,sans-Serif" font-size="10.00">_t::dig_0</text>
</a>
</g>
</g>
<!-- Node1&#45;&gt;Node2 -->
<g id="edge1" class="edge">
<title>Node1&#45;&gt;Node2</title>
<path fill="none" stroke="#63b8ff" d="M89.39,-120.11C108.12,-129.88 133.29,-142.67 156,-153 159.63,-154.65 163.41,-156.32 167.23,-157.96"/>
<polygon fill="#63b8ff" stroke="#63b8ff" points="166.15,-161.3 176.72,-161.96 168.87,-154.85 166.15,-161.3"/>
</g>
<!-- Node3 -->
<g id="node3" class="node">
<title>Node3</title>
<g id="a_node3"><a xlink:href="$struct_num_repr_1_1nat__reg__digs__t.html#af5f8d64e4139b59eada5483f2e3b4713" xlink:title=" ">
<polygon fill="white" stroke="#666666" points="276,-144 156,-144 156,-114 276,-114 276,-144"/>
<text text-anchor="start" x="164" y="-132" font-family="Helvetica,sans-Serif" font-size="10.00">NumRepr::nat_reg_digs</text>
<text text-anchor="middle" x="216" y="-121" font-family="Helvetica,sans-Serif" font-size="10.00">_t::dig_1</text>
</a>
</g>
</g>
<!-- Node1&#45;&gt;Node3 -->
<g id="edge2" class="edge">
<title>Node1&#45;&gt;Node3</title>
<path fill="none" stroke="#63b8ff" d="M120.1,-114.21C128.51,-115.52 137.23,-116.88 145.81,-118.22"/>
<polygon fill="#63b8ff" stroke="#63b8ff" points="145.38,-121.69 155.8,-119.77 146.46,-114.78 145.38,-121.69"/>
</g>
<!-- Node4 -->
<g id="node4" class="node">
<title>Node4</title>
<g id="a_node4"><a xlink:href="$struct_num_repr_1_1nat__reg__digs__t.html#acd8786bcc458752321399dfb474df42a" xlink:title=" ">
<polygon fill="white" stroke="#666666" points="276,-96 156,-96 156,-66 276,-66 276,-96"/>
<text text-anchor="start" x="164" y="-84" font-family="Helvetica,sans-Serif" font-size="10.00">NumRepr::nat_reg_digs</text>
<text text-anchor="middle" x="216" y="-73" font-family="Helvetica,sans-Serif" font-size="10.00">_t::dig_Bm1</text>
</a>
</g>
</g>
<!-- Node1&#45;&gt;Node4 -->
<g id="edge3" class="edge">
<title>Node1&#45;&gt;Node4</title>
<path fill="none" stroke="#63b8ff" d="M120.1,-95.79C128.51,-94.48 137.23,-93.12 145.81,-91.78"/>
<polygon fill="#63b8ff" stroke="#63b8ff" points="146.46,-95.22 155.8,-90.23 145.38,-88.31 146.46,-95.22"/>
</g>
<!-- Node5 -->
<g id="node5" class="node">
<title>Node5</title>
<g id="a_node5"><a xlink:href="$struct_num_repr_1_1nat__reg__digs__t.html#a6847060c452b924139575fd342cc850f" xlink:title=" ">
<polygon fill="white" stroke="#666666" points="276,-30 156,-30 156,0 276,0 276,-30"/>
<text text-anchor="start" x="164" y="-18" font-family="Helvetica,sans-Serif" font-size="10.00">NumRepr::nat_reg_digs</text>
<text text-anchor="middle" x="216" y="-7" font-family="Helvetica,sans-Serif" font-size="10.00">_t::is_0</text>
</a>
</g>
</g>
<!-- Node1&#45;&gt;Node5 -->
<g id="edge4" class="edge">
<title>Node1&#45;&gt;Node5</title>
<path fill="none" stroke="#63b8ff" d="M86.78,-89.94C112.43,-74.94 151.96,-51.84 180.35,-35.25"/>
<polygon fill="#63b8ff" stroke="#63b8ff" points="182.27,-38.18 189.14,-30.11 178.74,-32.14 182.27,-38.18"/>
</g>
<!-- Node5&#45;&gt;Node5 -->
<g id="edge5" class="edge">
<title>Node5&#45;&gt;Node5</title>
<path fill="none" stroke="#63b8ff" d="M188.58,-30.28C182.48,-39.41 191.62,-48 216,-48 230.47,-48 239.57,-44.97 243.31,-40.6"/>
<polygon fill="#63b8ff" stroke="#63b8ff" points="246.81,-40.31 243.42,-30.28 239.81,-40.24 246.81,-40.31"/>
</g>
</g>
</svg>
