<?xml version="1.0" encoding="UTF-8" standalone="no"?>
<!DOCTYPE svg PUBLIC "-//W3C//DTD SVG 1.1//EN"
 "http://www.w3.org/Graphics/SVG/1.1/DTD/svg11.dtd">
<!-- Generated by graphviz version 2.44.1 (20220725.2034)
 -->
<!-- Title: NumRepr::nat_rat_fixed_reg_t::rev_subreg_digs_pf Pages: 1 -->
<svg width="465pt" height="38pt"
 viewBox="0.00 0.00 465.00 38.00" xmlns="http://www.w3.org/2000/svg" xmlns:xlink="http://www.w3.org/1999/xlink">
<g id="graph0" class="graph" transform="scale(1 1) rotate(0) translate(4 34)">
<title>NumRepr::nat_rat_fixed_reg_t::rev_subreg_digs_pf</title>
<!-- Node1 -->
<g id="node1" class="node">
<title>Node1</title>
<g id="a_node1"><a xlink:title=" ">
<polygon fill="#999999" stroke="#666666" points="134,-30 0,-30 0,0 134,0 134,-30"/>
<text text-anchor="start" x="8" y="-18" font-family="Helvetica,sans-Serif" font-size="10.00">NumRepr::nat_rat_fixed</text>
<text text-anchor="middle" x="67" y="-7" font-family="Helvetica,sans-Serif" font-size="10.00">_reg_t::rev_subreg_digs_pf</text>
</a>
</g>
</g>
<!-- Node2 -->
<g id="node2" class="node">
<title>Node2</title>
<g id="a_node2"><a xlink:href="$struct_num_repr_1_1nat__rat__fixed__reg__t.html#a05f3a766ce29786655fc99812d550fa6" xlink:title=" ">
<polygon fill="white" stroke="#666666" points="300,-30 170,-30 170,0 300,0 300,-30"/>
<text text-anchor="start" x="178" y="-18" font-family="Helvetica,sans-Serif" font-size="10.00">NumRepr::nat_rat_fixed</text>
<text text-anchor="middle" x="235" y="-7" font-family="Helvetica,sans-Serif" font-size="10.00">_reg_t::pfx_rat_reg_digs_t</text>
</a>
</g>
</g>
<!-- Node1&#45;&gt;Node2 -->
<g id="edge1" class="edge">
<title>Node1&#45;&gt;Node2</title>
<path fill="none" stroke="#63b8ff" d="M134.08,-15C142.44,-15 151.04,-15 159.51,-15"/>
<polygon fill="#63b8ff" stroke="#63b8ff" points="159.77,-18.5 169.77,-15 159.77,-11.5 159.77,-18.5"/>
</g>
<!-- Node3 -->
<g id="node3" class="node">
<title>Node3</title>
<g id="a_node3"><a xlink:href="$struct_num_repr_1_1nat__rat__fixed__reg__t.html#a235bc4a9ae726bbf7c7d5933d9a62b2e" xlink:title=" ">
<polygon fill="white" stroke="#666666" points="457,-30 336,-30 336,0 457,0 457,-30"/>
<text text-anchor="start" x="344" y="-18" font-family="Helvetica,sans-Serif" font-size="10.00">NumRepr::nat_rat_fixed</text>
<text text-anchor="middle" x="396.5" y="-7" font-family="Helvetica,sans-Serif" font-size="10.00">_reg_t::dig_0</text>
</a>
</g>
</g>
<!-- Node2&#45;&gt;Node3 -->
<g id="edge2" class="edge">
<title>Node2&#45;&gt;Node3</title>
<path fill="none" stroke="#63b8ff" d="M300.42,-15C308.71,-15 317.24,-15 325.62,-15"/>
<polygon fill="#63b8ff" stroke="#63b8ff" points="325.75,-18.5 335.75,-15 325.75,-11.5 325.75,-18.5"/>
</g>
</g>
</svg>
